#define x_width 256
#define x_height 256
static char x_bits[] = {
0x00,0x00,0x00,0x00,0x00,0x00,0x00,0x00,0x00,0x00,0x00,0x00,0x00,0x00,0x00,0x80,0x00,0x00,0x00,0x00,0x00,0x00,0x00,0x00,0x00,0x00,0x00,0x00,0x00,0x00,0x00,0x00,0x00,0x00,0x00,0x00,0x00,0x00,0x00,0x00,0x00,0x00,0x00,0x00,0x00,0x00,0x00,0xc0,0x00,0x00,0x00,0x00,0x00,0x00,0x00,0x00,0x00,0x00,0x00,0x00,0x00,0x00,0x00,0x00,0x00,0x00,0x00,0x00,0x00,0x00,0x00,0x00,0x00,0x00,0x00,0x00,0x00,0x00,0x00,0xf0,0x00,0x00,0x00,0x00,0x00,0x00,0x00,0x00,0x00,0x00,0x00,0x00,0x00,0x00,0x00,0x00,0x00,0x00,0x00,0x00,0x00,0x00,0x00,0x00,0x00,0x00,0x00,0x00,0x00,0x00,0x00,0xa0,0x00,0x00,0x00,0x00,0x00,0x00,0x00,0x00,0x00,0x00,0x00,0x00,0x00,0x00,0x00,0x00,0x00,0x00,0x00,0x00,0x00,0x00,0x00,0x00,0x00,0x00,0x00,0x00,0x00,0x00,0x00,0xaf,0x00,0x00,0x00,0x00,0x00,0x00,0x00,0x00,0x00,0x00,0x00,0x00,0x00,0x00,0x00,0x00,0x00,0x00,0x00,0x00,0x00,0x00,0x00,0x00,0x00,0x00,0x00,0x00,0x00,0x00,0x00,0xf6,0x00,0x00,0x00,0x00,0x00,0x00,0x00,0x00,0x00,0x00,0x00,0x00,0x00,0x00,0x00,0x00,0x00,0x00,0x00,0x00,0x00,0x00,0x00,0x00,0x00,0x00,0x00,0x00,0x00,0x00,0x00,0xcc,0x00,0x00,0x00,0x00,0x00,0x00,0x00,0x00,0x00,0x00,0x00,0x00,0x00,0x00,0x00,0x00,0x00,0x00,0x00,0x00,0x00,0x00,0x00,0x00,0x00,0x00,0x00,0x00,0x00,0x00,0x00,0x84,0x00,0x00,0x00,0x00,0x00,0x00,0x00,0x00,0x00,0x00,0x00,0x00,0x00,0x00,0x00,0x00,0x00,0x00,0x00,0x00,0x00,0x00,0x00,0x00,0x00,0x00,0x00,0x00,0x00,0x00,0xff,0x84,0x00,0x00,0x00,0x00,0x00,0x00,0x00,0x00,0x00,0x00,0x00,0x00,0x00,0x00,0x00,0x00,0x00,0x00,0x00,0x00,0x00,0x00,0x00,0x00,0x00,0x00,0x00,0x00,0x00,0x00,0x66,0xcc,0x00,0x00,0x00,0x00,0x00,0x00,0x00,0x00,0x00,0x00,0x00,0x00,0x00,0x00,0x00,0x00,0x00,0x00,0x00,0x00,0x00,0x00,0x00,0x00,0x00,0x00,0x00,0x00,0x00,0x00,0x3c,0xf6,0x00,0x00,0x00,0x00,0x00,0x00,0x00,0x00,0x00,0x00,0x00,0x00,0x00,0x00,0x00,0x00,0x00,0x00,0x00,0x00,0x00,0x00,0x00,0x00,0x00,0x00,0x00,0x00,0x00,0x00,0x24,0xaf,0x00,0x00,0x00,0x00,0x00,0x00,0x00,0x00,0x00,0x00,0x00,0x00,0x00,0x00,0x00,0x00,0x00,0x00,0x00,0x00,0x00,0x00,0x00,0x00,0x00,0x00,0x00,0x00,0x00,0x00,0x50,0xa0,0x00,0x00,0x00,0x00,0x00,0x00,0x00,0x00,0x00,0x00,0x00,0x00,0x00,0x00,0x00,0x00,0x00,0x00,0x00,0x00,0x00,0x00,0x00,0x00,0x00,0x00,0x00,0x00,0x00,0x00,0xf0,0xf0,0x00,0x00,0x00,0x00,0x00,0x00,0x00,0x00,0x00,0x00,0x00,0x00,0x00,0x00,0x00,0x00,0x00,0x00,0x00,0x00,0x00,0x00,0x00,0x00,0x00,0x00,0x00,0x00,0x00,0x00,0x30,0xc0,0x00,0x00,0x00,0x00,0x00,0x00,0x00,0x00,0x00,0x00,0x00,0x00,0x00,0x00,0x00,0x00,0x00,0x00,0x00,0x00,0x00,0x00,0x00,0x00,0x00,0x00,0x00,0x00,0x00,0x00,0x10,0x80,0x00,0x00,0x00,0x00,0x00,0x00,0x00,0x00,0x00,0x00,0x00,0x00,0x00,0x00,0x00,0x00,0x00,0x00,0x00,0x00,0x00,0x00,0x00,0x00,0x00,0x00,0x00,0x00,0xff,0xff,0x10,0x80,0x00,0x00,0x00,0x00,0x00,0x00,0x00,0x00,0x00,0x00,0x00,0x00,0x00,0x00,0x00,0x00,0x00,0x00,0x00,0x00,0x00,0x00,0x00,0x00,0x00,0x00,0x00,0x00,0x66,0x66,0x30,0xc0,0x00,0x00,0x00,0x00,0x00,0x00,0x00,0x00,0x00,0x00,0x00,0x00,0x00,0x00,0x00,0x00,0x00,0x00,0x00,0x00,0x00,0x00,0x00,0x00,0x00,0x00,0x00,0x00,0x3c,0x3c,0xf0,0xf0,0x00,0x00,0x00,0x00,0x00,0x00,0x00,0x00,0x00,0x00,0x00,0x00,0x00,0x00,0x00,0x00,0x00,0x00,0x00,0x00,0x00,0x00,0x00,0x00,0x00,0x00,0x00,0x00,0x24,0x24,0x50,0xa0,0x00,0x00,0x00,0x00,0x00,0x00,0x00,0x00,0x00,0x00,0x00,0x00,0x00,0x00,0x00,0x00,0x00,0x00,0x00,0x00,0x00,0x00,0x00,0x00,0x00,0x00,0x00,0x00,0x50,0x0a,0x64,0xaf,0x00,0x00,0x00,0x00,0x00,0x00,0x00,0x00,0x00,0x00,0x00,0x00,0x00,0x00,0x00,0x00,0x00,0x00,0x00,0x00,0x00,0x00,0x00,0x00,0x00,0x00,0x00,0x00,0xf0,0x0f,0x3c,0xf6,0x00,0x00,0x00,0x00,0x00,0x00,0x00,0x00,0x00,0x00,0x00,0x00,0x00,0x00,0x00,0x00,0x00,0x00,0x00,0x00,0x00,0x00,0x00,0x00,0x00,0x00,0x00,0x00,0x30,0x0c,0x66,0xcc,0x00,0x00,0x00,0x00,0x00,0x00,0x00,0x00,0x00,0x00,0x00,0x00,0x00,0x00,0x00,0x00,0x00,0x00,0x00,0x00,0x00,0x00,0x00,0x00,0x00,0x00,0x00,0x00,0x10,0x08,0xff,0x84,0x00,0x00,0x00,0x00,0x00,0x00,0x00,0x00,0x00,0x00,0x00,0x00,0x00,0x00,0x00,0x00,0x00,0x00,0x00,0x00,0x00,0x00,0x00,0x00,0x00,0x00,0x00,0x00,0x00,0x21,0x00,0x84,0x00,0x00,0x00,0x00,0x00,0x00,0x00,0x00,0x00,0x00,0x00,0x00,0x00,0x00,0x00,0x00,0x00,0x00,0x00,0x00,0x00,0x00,0x00,0x00,0x00,0x00,0x00,0x00,0x00,0x33,0x00,0xcc,0x00,0x00,0x00,0x00,0x00,0x00,0x00,0x00,0x00,0x00,0x00,0x00,0x00,0x00,0x00,0x00,0x00,0x00,0x00,0x00,0x00,0x00,0x00,0x00,0x00,0x00,0x00,0x00,0x00,0x6f,0x00,0xf6,0x00,0x00,0x00,0x00,0x00,0x00,0x00,0x00,0x00,0x00,0x00,0x00,0x00,0x00,0x00,0x00,0x00,0x00,0x00,0x00,0x00,0x00,0x00,0x00,0x00,0x00,0x00,0x00,0x00,0xf5,0x00,0xaf,0x00,0x00,0x00,0x00,0x00,0x00,0x00,0x00,0x00,0x00,0x00,0x00,0x00,0x00,0x00,0x00,0x00,0x00,0x00,0x00,0x00,0x00,0x00,0x00,0x00,0x00,0x00,0x00,0x00,0x05,0x00,0xa0,0x00,0x00,0x00,0x00,0x00,0x00,0x00,0x00,0x00,0x00,0x00,0x00,0x00,0x00,0x00,0x00,0x00,0x00,0x00,0x00,0x00,0x00,0x00,0x00,0x00,0x00,0x00,0x00,0x00,0x0f,0x00,0xf0,0x00,0x00,0x00,0x00,0x00,0x00,0x00,0x00,0x00,0x00,0x00,0x00,0x00,0x00,0x00,0x00,0x00,0x00,0x00,0x00,0x00,0x00,0x00,0x00,0x00,0x00,0x00,0x00,0x00,0x03,0x00,0xc0,0x00,0x00,0x00,0x00,0x00,0x00,0x00,0x00,0x00,0x00,0x00,0x00,0x00,0x00,0x00,0x00,0x00,0x00,0x00,0x00,0x00,0x00,0x00,0x00,0x00,0x00,0x00,0x00,0x00,0x01,0x00,0x80,0x00,0x00,0x00,0x00,0x00,0x00,0x00,0x00,0x00,0x00,0x00,0x00,0x00,0x00,0x00,0x00,0x00,0x00,0x00,0x00,0x00,0x00,0x00,0x00,0xff,0xff,0xff,0xff,0x00,0x01,0x00,0x80,0x00,0x00,0x00,0x00,0x00,0x00,0x00,0x00,0x00,0x00,0x00,0x00,0x00,0x00,0x00,0x00,0x00,0x00,0x00,0x00,0x00,0x00,0x00,0x00,0x66,0x66,0x66,0x66,0x00,0x03,0x00,0xc0,0x00,0x00,0x00,0x00,0x00,0x00,0x00,0x00,0x00,0x00,0x00,0x00,0x00,0x00,0x00,0x00,0x00,0x00,0x00,0x00,0x00,0x00,0x00,0x00,0x3c,0x3c,0x3c,0x3c,0x00,0x0f,0x00,0xf0,0x00,0x00,0x00,0x00,0x00,0x00,0x00,0x00,0x00,0x00,0x00,0x00,0x00,0x00,0x00,0x00,0x00,0x00,0x00,0x00,0x00,0x00,0x00,0x00,0x24,0x24,0x24,0x24,0x00,0x05,0x00,0xa0,0x00,0x00,0x00,0x00,0x00,0x00,0x00,0x00,0x00,0x00,0x00,0x00,0x00,0x00,0x00,0x00,0x00,0x00,0x00,0x00,0x00,0x00,0x00,0x00,0x50,0x0a,0x50,0x0a,0x00,0xf5,0x00,0xaf,0x00,0x00,0x00,0x00,0x00,0x00,0x00,0x00,0x00,0x00,0x00,0x00,0x00,0x00,0x00,0x00,0x00,0x00,0x00,0x00,0x00,0x00,0x00,0x00,0xf0,0x0f,0xf0,0x0f,0x00,0x6f,0x00,0xf6,0x00,0x00,0x00,0x00,0x00,0x00,0x00,0x00,0x00,0x00,0x00,0x00,0x00,0x00,0x00,0x00,0x00,0x00,0x00,0x00,0x00,0x00,0x00,0x00,0x30,0x0c,0x30,0x0c,0x00,0x33,0x00,0xcc,0x00,0x00,0x00,0x00,0x00,0x00,0x00,0x00,0x00,0x00,0x00,0x00,0x00,0x00,0x00,0x00,0x00,0x00,0x00,0x00,0x00,0x00,0x00,0x00,0x10,0x08,0x10,0x08,0x00,0x21,0x00,0x84,0x00,0x00,0x00,0x00,0x00,0x00,0x00,0x00,0x00,0x00,0x00,0x00,0x00,0x00,0x00,0x00,0x00,0x00,0x00,0x00,0x00,0x00,0x00,0x00,0x00,0x21,0x84,0x00,0x10,0x08,0xff,0x84,0x00,0x00,0x00,0x00,0x00,0x00,0x00,0x00,0x00,0x00,0x00,0x00,0x00,0x00,0x00,0x00,0x00,0x00,0x00,0x00,0x00,0x00,0x00,0x00,0x00,0x33,0xcc,0x00,0x30,0x0c,0x66,0xcc,0x00,0x00,0x00,0x00,0x00,0x00,0x00,0x00,0x00,0x00,0x00,0x00,0x00,0x00,0x00,0x00,0x00,0x00,0x00,0x00,0x00,0x00,0x00,0x00,0x00,0x6f,0xf6,0x00,0xf0,0x0f,0x3c,0xf6,0x00,0x00,0x00,0x00,0x00,0x00,0x00,0x00,0x00,0x00,0x00,0x00,0x00,0x00,0x00,0x00,0x00,0x00,0x00,0x00,0x00,0x00,0x00,0x00,0x00,0xf5,0xaf,0x00,0x50,0x0a,0x24,0xaf,0x00,0x00,0x00,0x00,0x00,0x00,0x00,0x00,0x00,0x00,0x00,0x00,0x00,0x00,0x00,0x00,0x00,0x00,0x00,0x00,0x00,0x00,0x00,0x00,0x00,0x05,0xa0,0x00,0x24,0x24,0x50,0xa0,0x00,0x00,0x00,0x00,0x00,0x00,0x00,0x00,0x00,0x00,0x00,0x00,0x00,0x00,0x00,0x00,0x00,0x00,0x00,0x00,0x00,0x00,0x00,0x00,0x00,0x0f,0xf0,0x00,0x3c,0x3c,0xf0,0xf0,0x00,0x00,0x00,0x00,0x00,0x00,0x00,0x00,0x00,0x00,0x00,0x00,0x00,0x00,0x00,0x00,0x00,0x00,0x00,0x00,0x00,0x00,0x00,0x00,0x00,0x03,0xc0,0x00,0x66,0x66,0x30,0xc0,0x00,0x00,0x00,0x00,0x00,0x00,0x00,0x00,0x00,0x00,0x00,0x00,0x00,0x00,0x00,0x00,0x00,0x00,0x00,0x00,0x00,0x00,0x00,0x00,0x00,0x01,0x80,0x00,0xff,0xff,0x10,0x80,0x00,0x00,0x00,0x00,0x00,0x00,0x00,0x00,0x00,0x00,0x00,0x00,0x00,0x00,0x00,0x00,0x00,0x00,0x00,0x00,0x00,0x00,0x00,0x00,0x00,0x00,0x01,0x08,0x00,0x00,0x10,0x80,0x00,0x00,0x00,0x00,0x00,0x00,0x00,0x00,0x00,0x00,0x00,0x00,0x00,0x00,0x00,0x00,0x00,0x00,0x00,0x00,0x00,0x00,0x00,0x00,0x00,0x00,0x03,0x0c,0x00,0x00,0x30,0xc0,0x00,0x00,0x00,0x00,0x00,0x00,0x00,0x00,0x00,0x00,0x00,0x00,0x00,0x00,0x00,0x00,0x00,0x00,0x00,0x00,0x00,0x00,0x00,0x00,0x00,0x00,0x0f,0x0f,0x00,0x00,0xf0,0xf0,0x00,0x00,0x00,0x00,0x00,0x00,0x00,0x00,0x00,0x00,0x00,0x00,0x00,0x00,0x00,0x00,0x00,0x00,0x00,0x00,0x00,0x00,0x00,0x00,0x00,0x00,0x05,0x0a,0x00,0x00,0x50,0xa0,0x00,0x00,0x00,0x00,0x00,0x00,0x00,0x00,0x00,0x00,0x00,0x00,0x00,0x00,0x00,0x00,0x00,0x00,0x00,0x00,0x00,0x00,0x00,0x00,0x00,0x00,0xf5,0x24,0x00,0x00,0x24,0xaf,0x00,0x00,0x00,0x00,0x00,0x00,0x00,0x00,0x00,0x00,0x00,0x00,0x00,0x00,0x00,0x00,0x00,0x00,0x00,0x00,0x00,0x00,0x00,0x00,0x00,0x00,0x6f,0x3c,0x00,0x00,0x3c,0xf6,0x00,0x00,0x00,0x00,0x00,0x00,0x00,0x00,0x00,0x00,0x00,0x00,0x00,0x00,0x00,0x00,0x00,0x00,0x00,0x00,0x00,0x00,0x00,0x00,0x00,0x00,0x33,0x66,0x00,0x00,0x66,0xcc,0x00,0x00,0x00,0x00,0x00,0x00,0x00,0x00,0x00,0x00,0x00,0x00,0x00,0x00,0x00,0x00,0x00,0x00,0x00,0x00,0x00,0x00,0x00,0x00,0x00,0x00,0x21,0xff,0x00,0x00,0xff,0x84,0x00,0x00,0x00,0x00,0x00,0x00,0x00,0x00,0x00,0x00,0x00,0x00,0x00,0x00,0x00,0x00,0x00,0x00,0x00,0x00,0x00,0x00,0x00,0x00,0x00,0x00,0x21,0x00,0x00,0x00,0x00,0x84,0x00,0x00,0x00,0x00,0x00,0x00,0x00,0x00,0x00,0x00,0x00,0x00,0x00,0x00,0x00,0x00,0x00,0x00,0x00,0x00,0x00,0x00,0x00,0x00,0x00,0x00,0x33,0x00,0x00,0x00,0x00,0xcc,0x00,0x00,0x00,0x00,0x00,0x00,0x00,0x00,0x00,0x00,0x00,0x00,0x00,0x00,0x00,0x00,0x00,0x00,0x00,0x00,0x00,0x00,0x00,0x00,0x00,0x00,0x6f,0x00,0x00,0x00,0x00,0xf6,0x00,0x00,0x00,0x00,0x00,0x00,0x00,0x00,0x00,0x00,0x00,0x00,0x00,0x00,0x00,0x00,0x00,0x00,0x00,0x00,0x00,0x00,0x00,0x00,0x00,0x00,0xf5,0x00,0x00,0x00,0x00,0xaf,0x00,0x00,0x00,0x00,0x00,0x00,0x00,0x00,0x00,0x00,0x00,0x00,0x00,0x00,0x00,0x00,0x00,0x00,0x00,0x00,0x00,0x00,0x00,0x00,0x00,0x00,0x05,0x00,0x00,0x00,0x00,0xa0,0x00,0x00,0x00,0x00,0x00,0x00,0x00,0x00,0x00,0x00,0x00,0x00,0x00,0x00,0x00,0x00,0x00,0x00,0x00,0x00,0x00,0x00,0x00,0x00,0x00,0x00,0x0f,0x00,0x00,0x00,0x00,0xf0,0x00,0x00,0x00,0x00,0x00,0x00,0x00,0x00,0x00,0x00,0x00,0x00,0x00,0x00,0x00,0x00,0x00,0x00,0x00,0x00,0x00,0x00,0x00,0x00,0x00,0x00,0x03,0x00,0x00,0x00,0x00,0xc0,0x00,0x00,0x00,0x00,0x00,0x00,0x00,0x00,0x00,0x00,0x00,0x00,0x00,0x00,0x00,0x00,0x00,0x00,0x00,0x00,0x00,0x00,0x00,0x00,0x00,0x00,0x01,0x00,0x00,0x00,0x00,0x80,0x00,0x00,0x00,0x00,0x00,0x00,0x00,0x00,0x00,0x00,0x00,0x00,0x00,0x00,0x00,0x00,0xff,0xff,0xff,0xff,0xff,0xff,0xff,0xff,0x00,0x00,0x01,0x00,0x00,0x00,0x00,0x80,0x00,0x00,0x00,0x00,0x00,0x00,0x00,0x00,0x00,0x00,0x00,0x00,0x00,0x00,0x00,0x00,0x66,0x66,0x66,0x66,0x66,0x66,0x66,0x66,0x00,0x00,0x03,0x00,0x00,0x00,0x00,0xc0,0x00,0x00,0x00,0x00,0x00,0x00,0x00,0x00,0x00,0x00,0x00,0x00,0x00,0x00,0x00,0x00,0x3c,0x3c,0x3c,0x3c,0x3c,0x3c,0x3c,0x3c,0x00,0x00,0x0f,0x00,0x00,0x00,0x00,0xf0,0x00,0x00,0x00,0x00,0x00,0x00,0x00,0x00,0x00,0x00,0x00,0x00,0x00,0x00,0x00,0x00,0x24,0x24,0x24,0x24,0x24,0x24,0x24,0x24,0x00,0x00,0x05,0x00,0x00,0x00,0x00,0xa0,0x00,0x00,0x00,0x00,0x00,0x00,0x00,0x00,0x00,0x00,0x00,0x00,0x00,0x00,0x00,0x00,0x50,0x0a,0x50,0x0a,0x50,0x0a,0x50,0x0a,0x00,0x00,0xf5,0x00,0x00,0x00,0x00,0xaf,0x00,0x00,0x00,0x00,0x00,0x00,0x00,0x00,0x00,0x00,0x00,0x00,0x00,0x00,0x00,0x00,0xf0,0x0f,0xf0,0x0f,0xf0,0x0f,0xf0,0x0f,0x00,0x00,0x6f,0x00,0x00,0x00,0x00,0xf6,0x00,0x00,0x00,0x00,0x00,0x00,0x00,0x00,0x00,0x00,0x00,0x00,0x00,0x00,0x00,0x00,0x30,0x0c,0x30,0x0c,0x30,0x0c,0x30,0x0c,0x00,0x00,0x33,0x00,0x00,0x00,0x00,0xcc,0x00,0x00,0x00,0x00,0x00,0x00,0x00,0x00,0x00,0x00,0x00,0x00,0x00,0x00,0x00,0x00,0x10,0x08,0x10,0x08,0x10,0x08,0x10,0x08,0x00,0x00,0x21,0x00,0x00,0x00,0x00,0x84,0x00,0x00,0x00,0x00,0x00,0x00,0x00,0x00,0x00,0x00,0x00,0x00,0x00,0x00,0x00,0x00,0x00,0x21,0x84,0x00,0x00,0x21,0x84,0x00,0x00,0x00,0x21,0xff,0x00,0x00,0xff,0x84,0x00,0x00,0x00,0x00,0x00,0x00,0x00,0x00,0x00,0x00,0x00,0x00,0x00,0x00,0x00,0x00,0x00,0x33,0xcc,0x00,0x00,0x33,0xcc,0x00,0x00,0x00,0x33,0x66,0x00,0x00,0x66,0xcc,0x00,0x00,0x00,0x00,0x00,0x00,0x00,0x00,0x00,0x00,0x00,0x00,0x00,0x00,0x00,0x00,0x00,0x6f,0xf6,0x00,0x00,0x6f,0xf6,0x00,0x00,0x00,0x6f,0x3c,0x00,0x00,0x3c,0xf6,0x00,0x00,0x00,0x00,0x00,0x00,0x00,0x00,0x00,0x00,0x00,0x00,0x00,0x00,0x00,0x00,0x00,0xf5,0xaf,0x00,0x00,0xf5,0xaf,0x00,0x00,0x00,0xf5,0x24,0x00,0x00,0x24,0xaf,0x00,0x00,0x00,0x00,0x00,0x00,0x00,0x00,0x00,0x00,0x00,0x00,0x00,0x00,0x00,0x00,0x00,0x05,0xa0,0x00,0x00,0x05,0xa0,0x00,0x00,0x00,0x05,0x0a,0x00,0x00,0x50,0xa0,0x00,0x00,0x00,0x00,0x00,0x00,0x00,0x00,0x00,0x00,0x00,0x00,0x00,0x00,0x00,0x00,0x00,0x0f,0xf0,0x00,0x00,0x0f,0xf0,0x00,0x00,0x00,0x0f,0x0f,0x00,0x00,0xf0,0xf0,0x00,0x00,0x00,0x00,0x00,0x00,0x00,0x00,0x00,0x00,0x00,0x00,0x00,0x00,0x00,0x00,0x00,0x03,0xc0,0x00,0x00,0x03,0xc0,0x00,0x00,0x00,0x03,0x0c,0x00,0x00,0x30,0xc0,0x00,0x00,0x00,0x00,0x00,0x00,0x00,0x00,0x00,0x00,0x00,0x00,0x00,0x00,0x00,0x00,0x00,0x01,0x80,0x00,0x00,0x01,0x80,0x00,0x00,0x00,0x01,0x08,0x00,0x00,0x10,0x80,0x00,0x00,0x00,0x00,0x00,0x00,0x00,0x00,0x00,0x00,0x00,0x00,0x00,0x00,0x00,0x00,0x00,0x00,0x01,0x08,0x10,0x80,0x00,0x00,0x00,0x01,0x80,0x00,0xff,0xff,0x10,0x80,0x00,0x00,0x00,0x00,0x00,0x00,0x00,0x00,0x00,0x00,0x00,0x00,0x00,0x00,0x00,0x00,0x00,0x00,0x03,0x0c,0x30,0xc0,0x00,0x00,0x00,0x03,0xc0,0x00,0x66,0x66,0x30,0xc0,0x00,0x00,0x00,0x00,0x00,0x00,0x00,0x00,0x00,0x00,0x00,0x00,0x00,0x00,0x00,0x00,0x00,0x00,0x0f,0x0f,0xf0,0xf0,0x00,0x00,0x00,0x0f,0xf0,0x00,0x3c,0x3c,0xf0,0xf0,0x00,0x00,0x00,0x00,0x00,0x00,0x00,0x00,0x00,0x00,0x00,0x00,0x00,0x00,0x00,0x00,0x00,0x00,0x05,0x0a,0x50,0xa0,0x00,0x00,0x00,0x05,0xa0,0x00,0x24,0x24,0x50,0xa0,0x00,0x00,0x00,0x00,0x00,0x00,0x00,0x00,0x00,0x00,0x00,0x00,0x00,0x00,0x00,0x00,0x00,0x00,0xf5,0x24,0x24,0xaf,0x00,0x00,0x00,0xf5,0xaf,0x00,0x50,0x0a,0x24,0xaf,0x00,0x00,0x00,0x00,0x00,0x00,0x00,0x00,0x00,0x00,0x00,0x00,0x00,0x00,0x00,0x00,0x00,0x00,0x6f,0x3c,0x3c,0xf6,0x00,0x00,0x00,0x6f,0xf6,0x00,0xf0,0x0f,0x3c,0xf6,0x00,0x00,0x00,0x00,0x00,0x00,0x00,0x00,0x00,0x00,0x00,0x00,0x00,0x00,0x00,0x00,0x00,0x00,0x33,0x66,0x66,0xcc,0x00,0x00,0x00,0x33,0xcc,0x00,0x30,0x0c,0x66,0xcc,0x00,0x00,0x00,0x00,0x00,0x00,0x00,0x00,0x00,0x00,0x00,0x00,0x00,0x00,0x00,0x00,0x00,0x00,0x21,0xff,0xff,0x84,0x00,0x00,0x00,0x21,0x84,0x00,0x10,0x08,0xff,0x84,0x00,0x00,0x00,0x00,0x00,0x00,0x00,0x00,0x00,0x00,0x00,0x00,0x00,0x00,0x00,0x00,0x00,0x00,0x21,0x00,0x00,0x84,0x00,0x00,0x10,0x08,0x10,0x08,0x00,0x21,0x00,0x84,0x00,0x00,0x00,0x00,0x00,0x00,0x00,0x00,0x00,0x00,0x00,0x00,0x00,0x00,0x00,0x00,0x00,0x00,0x33,0x00,0x00,0xcc,0x00,0x00,0x30,0x0c,0x30,0x0c,0x00,0x33,0x00,0xcc,0x00,0x00,0x00,0x00,0x00,0x00,0x00,0x00,0x00,0x00,0x00,0x00,0x00,0x00,0x00,0x00,0x00,0x00,0x6f,0x00,0x00,0xf6,0x00,0x00,0xf0,0x0f,0xf0,0x0f,0x00,0x6f,0x00,0xf6,0x00,0x00,0x00,0x00,0x00,0x00,0x00,0x00,0x00,0x00,0x00,0x00,0x00,0x00,0x00,0x00,0x00,0x00,0xf5,0x00,0x00,0xaf,0x00,0x00,0x50,0x0a,0x50,0x0a,0x00,0xf5,0x00,0xaf,0x00,0x00,0x00,0x00,0x00,0x00,0x00,0x00,0x00,0x00,0x00,0x00,0x00,0x00,0x00,0x00,0x00,0x00,0x05,0x00,0x00,0xa0,0x00,0x00,0x24,0x24,0x24,0x24,0x00,0x05,0x00,0xa0,0x00,0x00,0x00,0x00,0x00,0x00,0x00,0x00,0x00,0x00,0x00,0x00,0x00,0x00,0x00,0x00,0x00,0x00,0x0f,0x00,0x00,0xf0,0x00,0x00,0x3c,0x3c,0x3c,0x3c,0x00,0x0f,0x00,0xf0,0x00,0x00,0x00,0x00,0x00,0x00,0x00,0x00,0x00,0x00,0x00,0x00,0x00,0x00,0x00,0x00,0x00,0x00,0x03,0x00,0x00,0xc0,0x00,0x00,0x66,0x66,0x66,0x66,0x00,0x03,0x00,0xc0,0x00,0x00,0x00,0x00,0x00,0x00,0x00,0x00,0x00,0x00,0x00,0x00,0x00,0x00,0x00,0x00,0x00,0x00,0x01,0x00,0x00,0x80,0x00,0x00,0xff,0xff,0xff,0xff,0x00,0x01,0x00,0x80,0x00,0x00,0x00,0x00,0x00,0x00,0x00,0x00,0x00,0x00,0x00,0x00,0x00,0x00,0x00,0x00,0x00,0x00,0x00,0x00,0x01,0x00,0x80,0x00,0x10,0x00,0x00,0x00,0x00,0x01,0x00,0x80,0x00,0x00,0x00,0x00,0x00,0x00,0x00,0x00,0x00,0x00,0x00,0x00,0x00,0x00,0x00,0x00,0x00,0x00,0x00,0x00,0x03,0x00,0xc0,0x00,0x00,0x00,0x00,0x00,0x00,0x03,0x00,0xc0,0x00,0x00,0x00,0x00,0x00,0x00,0x00,0x00,0x00,0x00,0x00,0x00,0x00,0x00,0x00,0x00,0x00,0x00,0x00,0x00,0x0f,0x00,0xf0,0x00,0x00,0x00,0x00,0x00,0x00,0x0f,0x00,0xf0,0x00,0x00,0x00,0x00,0x00,0x00,0x00,0x00,0x00,0x00,0x00,0x00,0x00,0x00,0x00,0x00,0x00,0x00,0x00,0x00,0x05,0x00,0xa0,0x00,0x00,0x00,0x00,0x00,0x00,0x05,0x00,0xa0,0x00,0x00,0x00,0x00,0x00,0x00,0x00,0x00,0x00,0x00,0x00,0x00,0x00,0x00,0x00,0x00,0x00,0x00,0x00,0x00,0xf5,0x00,0xaf,0x00,0x00,0x00,0x00,0x00,0x00,0xf5,0x00,0xaf,0x00,0x00,0x00,0x00,0x00,0x00,0x00,0x00,0x00,0x00,0x00,0x00,0x00,0x00,0x00,0x00,0x00,0x00,0x00,0x00,0x6f,0x00,0xf6,0x00,0x00,0x00,0x00,0x00,0x00,0x6f,0x00,0xf6,0x00,0x00,0x00,0x00,0x00,0x00,0x00,0x00,0x00,0x00,0x00,0x00,0x00,0x00,0x00,0x00,0x00,0x00,0x00,0x00,0x33,0x00,0xcc,0x00,0x00,0x00,0x00,0x00,0x00,0x33,0x00,0xcc,0x00,0x00,0x00,0x00,0x00,0x00,0x00,0x00,0x00,0x00,0x00,0x00,0x00,0x00,0x00,0x00,0x00,0x00,0x00,0x00,0x21,0x00,0x84,0x00,0x00,0x00,0x00,0x00,0x00,0x21,0x00,0x84,0x00,0x00,0x00,0x00,0x00,0x00,0x00,0x00,0x00,0x00,0x00,0x00,0x00,0x00,0x00,0x00,0x00,0x00,0x00,0x00,0x21,0xff,0x10,0x08,0x00,0x00,0x00,0x00,0x10,0x08,0xff,0x84,0x00,0x00,0x00,0x00,0x00,0x00,0x00,0x00,0x00,0x00,0x00,0x00,0x00,0x00,0x00,0x00,0x00,0x00,0x00,0x00,0x33,0x66,0x30,0x0c,0x00,0x00,0x00,0x00,0x30,0x0c,0x66,0xcc,0x00,0x00,0x00,0x00,0x00,0x00,0x00,0x00,0x00,0x00,0x00,0x00,0x00,0x00,0x00,0x00,0x00,0x00,0x00,0x00,0x6f,0x3c,0xf0,0x0f,0x00,0x00,0x00,0x00,0xf0,0x0f,0x3c,0xf6,0x00,0x00,0x00,0x00,0x00,0x00,0x00,0x00,0x00,0x00,0x00,0x00,0x00,0x00,0x00,0x00,0x00,0x00,0x00,0x00,0xf5,0x24,0x50,0x0a,0x00,0x00,0x00,0x00,0x50,0x0a,0x24,0xaf,0x00,0x00,0x00,0x00,0x00,0x00,0x00,0x00,0x00,0x00,0x00,0x00,0x00,0x00,0x00,0x00,0x00,0x00,0x00,0x00,0x05,0x0a,0x24,0x24,0x00,0x00,0x00,0x00,0x24,0x24,0x50,0xa0,0x00,0x00,0x00,0x00,0x00,0x00,0x00,0x00,0x00,0x00,0x00,0x00,0x00,0x00,0x00,0x00,0x00,0x00,0x00,0x00,0x0f,0x0f,0x3c,0x3c,0x00,0x00,0x00,0x00,0x3c,0x3c,0xf0,0xf0,0x00,0x00,0x00,0x00,0x00,0x00,0x00,0x00,0x00,0x00,0x00,0x00,0x00,0x00,0x00,0x00,0x00,0x00,0x00,0x00,0x03,0x0c,0x66,0x66,0x00,0x00,0x00,0x00,0x66,0x66,0x30,0xc0,0x00,0x00,0x00,0x00,0x00,0x00,0x00,0x00,0x00,0x00,0x00,0x00,0x00,0x00,0x00,0x00,0x00,0x00,0x00,0x00,0x01,0x08,0xff,0xff,0x00,0x00,0x00,0x00,0xff,0xff,0x10,0x80,0x00,0x00,0x00,0x00,0x00,0x00,0x00,0x00,0x00,0x00,0x00,0x00,0x00,0x00,0x00,0x00,0x00,0x00,0x00,0x00,0x01,0x08,0x00,0x00,0x00,0x00,0x00,0x00,0x00,0x00,0x10,0x80,0x00,0x00,0x00,0x00,0x00,0x00,0x00,0x00,0x00,0x00,0x00,0x00,0x00,0x00,0x00,0x00,0x00,0x00,0x00,0x00,0x03,0x0c,0x00,0x00,0x00,0x00,0x00,0x00,0x00,0x00,0x30,0xc0,0x00,0x00,0x00,0x00,0x00,0x00,0x00,0x00,0x00,0x00,0x00,0x00,0x00,0x00,0x00,0x00,0x00,0x00,0x00,0x00,0x0f,0x0f,0x00,0x00,0x00,0x00,0x00,0x00,0x00,0x00,0xf0,0xf0,0x00,0x00,0x00,0x00,0x00,0x00,0x00,0x00,0x00,0x00,0x00,0x00,0x00,0x00,0x00,0x00,0x00,0x00,0x00,0x00,0x05,0x0a,0x00,0x00,0x00,0x00,0x00,0x00,0x00,0x00,0x50,0xa0,0x00,0x00,0x00,0x00,0x00,0x00,0x00,0x00,0x00,0x00,0x00,0x00,0x00,0x00,0x00,0x00,0x00,0x00,0x00,0x00,0xf5,0x24,0x00,0x00,0x00,0x00,0x00,0x00,0x00,0x00,0x24,0xaf,0x00,0x00,0x00,0x00,0x00,0x00,0x00,0x00,0x00,0x00,0x00,0x00,0x00,0x00,0x00,0x00,0x00,0x00,0x00,0x00,0x6f,0x3c,0x00,0x00,0x00,0x00,0x00,0x00,0x00,0x00,0x3c,0xf6,0x00,0x00,0x00,0x00,0x00,0x00,0x00,0x00,0x00,0x00,0x00,0x00,0x00,0x00,0x00,0x00,0x00,0x00,0x00,0x00,0x33,0x66,0x00,0x00,0x00,0x00,0x00,0x00,0x00,0x00,0x66,0xcc,0x00,0x00,0x00,0x00,0x00,0x00,0x00,0x00,0x00,0x00,0x00,0x00,0x00,0x00,0x00,0x00,0x00,0x00,0x00,0x00,0x21,0xff,0x00,0x00,0x00,0x00,0x00,0x00,0x00,0x00,0xff,0x84,0x00,0x00,0x00,0x00,0x00,0x00,0x00,0x00,0x00,0x00,0x00,0x00,0x00,0x00,0x00,0x00,0x00,0x00,0x00,0x00,0x21,0x00,0x00,0x00,0x00,0x00,0x00,0x00,0x00,0x00,0x00,0x84,0x00,0x00,0x00,0x00,0x00,0x00,0x00,0x00,0x00,0x00,0x00,0x00,0x00,0x00,0x00,0x00,0x00,0x00,0x00,0x00,0x33,0x00,0x00,0x00,0x00,0x00,0x00,0x00,0x00,0x00,0x00,0xcc,0x00,0x00,0x00,0x00,0x00,0x00,0x00,0x00,0x00,0x00,0x00,0x00,0x00,0x00,0x00,0x00,0x00,0x00,0x00,0x00,0x6f,0x00,0x00,0x00,0x00,0x00,0x00,0x00,0x00,0x00,0x00,0xf6,0x00,0x00,0x00,0x00,0x00,0x00,0x00,0x00,0x00,0x00,0x00,0x00,0x00,0x00,0x00,0x00,0x00,0x00,0x00,0x00,0xf5,0x00,0x00,0x00,0x00,0x00,0x00,0x00,0x00,0x00,0x00,0xaf,0x00,0x00,0x00,0x00,0x00,0x00,0x00,0x00,0x00,0x00,0x00,0x00,0x00,0x00,0x00,0x00,0x00,0x00,0x00,0x00,0x05,0x00,0x00,0x00,0x00,0x00,0x00,0x00,0x00,0x00,0x00,0xa0,0x00,0x00,0x00,0x00,0x00,0x00,0x00,0x00,0x00,0x00,0x00,0x00,0x00,0x00,0x00,0x00,0x00,0x00,0x00,0x00,0x0f,0x00,0x00,0x00,0x00,0x00,0x00,0x00,0x00,0x00,0x00,0xf0,0x00,0x00,0x00,0x00,0x00,0x00,0x00,0x00,0x00,0x00,0x00,0x00,0x00,0x00,0x00,0x00,0x00,0x00,0x00,0x00,0x03,0x00,0x00,0x00,0x00,0x00,0x00,0x00,0x00,0x00,0x00,0xc0,0x00,0x00,0x00,0x00,0x00,0x00,0x00,0x00,0x00,0x00,0x00,0x00,0x00,0x00,0x00,0x00,0x00,0x00,0x00,0x00,0x01,0x00,0x00,0x00,0x00,0x00,0x00,0x00,0x00,0x00,0x00,0x80,0x00,0x00,0x00,0x00,0x00,0x00,0x00,0x00,0x00,0x00,0x00,0x00,0x00,0x00,0x00,0x00,0x00,0x00,0x00,0x00,0x00,0x00,0x00,0x00,0x01,0x00,0x00,0x00,0x00,0x00,0x00,0x00,0x00,0x00,0x00,0x00,0x00,0x00,0x00,0x80,0x00,0x00,0x00,0x00,0x00,0x00,0x00,0x00,0x00,0x00,0x00,0x00,0x00,0x00,0x00,0x00,0x03,0x00,0x00,0x00,0x00,0x00,0x00,0x00,0x00,0x00,0x00,0x00,0x00,0x00,0x00,0xc0,0x00,0x00,0x00,0x00,0x00,0x00,0x00,0x00,0x00,0x00,0x00,0x00,0x00,0x00,0x00,0x00,0x0f,0x00,0x00,0x00,0x00,0x00,0x00,0x00,0x00,0x00,0x00,0x00,0x00,0x00,0x00,0xf0,0x00,0x00,0x00,0x00,0x00,0x00,0x00,0x00,0x00,0x00,0x00,0x00,0x00,0x00,0x00,0x00,0x05,0x00,0x00,0x00,0x00,0x00,0x00,0x00,0x00,0x00,0x00,0x00,0x00,0x00,0x00,0xa0,0x00,0x00,0x00,0x00,0x00,0x00,0x00,0x00,0x00,0x00,0x00,0x00,0x00,0x00,0x00,0x00,0xf5,0x00,0x00,0x00,0x00,0x00,0x00,0x00,0x00,0x00,0x00,0x00,0x00,0x00,0x00,0xaf,0x00,0x00,0x00,0x00,0x00,0x00,0x00,0x00,0x00,0x00,0x00,0x00,0x00,0x00,0x00,0x00,0x6f,0x00,0x00,0x00,0x00,0x00,0x00,0x00,0x00,0x00,0x00,0x00,0x00,0x00,0x00,0xf6,0x00,0x00,0x00,0x00,0x00,0x00,0x00,0x00,0x00,0x00,0x00,0x00,0x00,0x00,0x00,0x00,0x33,0x00,0x00,0x00,0x00,0x00,0x00,0x00,0x00,0x00,0x00,0x00,0x00,0x00,0x00,0xcc,0x00,0x00,0x00,0x00,0x00,0x00,0x00,0x00,0x00,0x00,0x00,0x00,0x00,0x00,0x00,0x00,0x21,0x00,0x00,0x00,0x00,0x00,0x00,0x00,0x00,0x00,0x00,0x00,0x00,0x00,0x00,0x84,0x00,0x00,0x00,0x00,0x00,0x00,0x00,0x00,0x00,0x00,0x00,0x00,0x00,0x00,0x00,0x00,0x21,0xff,0x00,0x00,0x00,0x00,0x00,0x00,0x00,0x00,0x00,0x00,0x00,0x00,0xff,0x84,0x00,0x00,0x00,0x00,0x00,0x00,0x00,0x00,0x00,0x00,0x00,0x00,0x00,0x00,0x00,0x00,0x33,0x66,0x00,0x00,0x00,0x00,0x00,0x00,0x00,0x00,0x00,0x00,0x00,0x00,0x66,0xcc,0x00,0x00,0x00,0x00,0x00,0x00,0x00,0x00,0x00,0x00,0x00,0x00,0x00,0x00,0x00,0x00,0x6f,0x3c,0x00,0x00,0x00,0x00,0x00,0x00,0x00,0x00,0x00,0x00,0x00,0x00,0x3c,0xfe,0x00,0x00,0x00,0x00,0x00,0x00,0x00,0x00,0x00,0x00,0x00,0x00,0x00,0x00,0x00,0x00,0xf5,0x24,0x00,0x00,0x00,0x00,0x00,0x00,0x00,0x00,0x00,0x00,0x00,0x00,0x24,0xaf,0x00,0x00,0x00,0x00,0x00,0x00,0x00,0x00,0x00,0x00,0x00,0x00,0x00,0x00,0x00,0x00,0x05,0x0a,0x00,0x00,0x00,0x00,0x00,0x00,0x00,0x00,0x00,0x00,0x00,0x00,0x50,0xa0,0x00,0x00,0x00,0x00,0x00,0x00,0x00,0x00,0x00,0x00,0x00,0x00,0x00,0x00,0x00,0x00,0x0f,0x0f,0x00,0x00,0x00,0x00,0x00,0x00,0x00,0x00,0x00,0x00,0x00,0x00,0xf0,0xf0,0x00,0x00,0x00,0x00,0x00,0x00,0x00,0x00,0x00,0x00,0x00,0x00,0x00,0x00,0x00,0x00,0x03,0x0c,0x00,0x00,0x00,0x00,0x00,0x00,0x00,0x00,0x00,0x00,0x00,0x00,0x30,0xc0,0x00,0x00,0x00,0x00,0x00,0x00,0x00,0x00,0x00,0x00,0x00,0x00,0x00,0x00,0x00,0x00,0x01,0x08,0x00,0x00,0x00,0x00,0x00,0x00,0x00,0x00,0x00,0x00,0x00,0x00,0x10,0x80,0x00,0x00,0x00,0x00,0x00,0x00,0x00,0x00,0x00,0x00,0x00,0x00,0x00,0x00,0x00,0x00,0x01,0x08,0xff,0xff,0x00,0x00,0x00,0x00,0x00,0x00,0x00,0x00,0xff,0xff,0x10,0x80,0x00,0x00,0x00,0x00,0x00,0x00,0x00,0x00,0x00,0x00,0x00,0x00,0x00,0x00,0x00,0x00,0x03,0x0c,0x66,0x66,0x00,0x00,0x00,0x00,0x00,0x00,0x00,0x00,0x66,0x66,0x30,0xc0,0x00,0x00,0x00,0x00,0x00,0x00,0x00,0x00,0x00,0x00,0x00,0x00,0x00,0x00,0x00,0x00,0x0f,0x0f,0x3c,0x3c,0x00,0x00,0x00,0x00,0x00,0x00,0x00,0x00,0x3c,0x3c,0xf0,0xf0,0x00,0x00,0x00,0x00,0x00,0x00,0x00,0x00,0x00,0x00,0x00,0x00,0x00,0x00,0x00,0x00,0x05,0x0a,0x24,0x24,0x00,0x00,0x00,0x00,0x00,0x00,0x00,0x00,0x24,0x24,0x50,0xa0,0x00,0x00,0x00,0x00,0x00,0x00,0x00,0x00,0x00,0x00,0x00,0x00,0x00,0x00,0x00,0x00,0xf5,0x24,0x50,0x0a,0x00,0x00,0x00,0x00,0x00,0x00,0x00,0x00,0x50,0x0a,0x24,0xaf,0x00,0x00,0x00,0x00,0x00,0x00,0x00,0x00,0x00,0x00,0x00,0x00,0x00,0x00,0x00,0x00,0x6f,0x3c,0xf0,0x0f,0x00,0x00,0x00,0x00,0x00,0x00,0x00,0x00,0xf0,0x0f,0x3c,0xf6,0x00,0x00,0x00,0x00,0x00,0x00,0x00,0x00,0x00,0x00,0x00,0x00,0x00,0x00,0x00,0x00,0x33,0x66,0x30,0x0c,0x00,0x00,0x00,0x00,0x00,0x00,0x00,0x00,0x30,0x0c,0x66,0xcc,0x00,0x00,0x00,0x00,0x00,0x00,0x00,0x00,0x00,0x00,0x00,0x00,0x00,0x00,0x00,0x00,0x21,0xff,0x10,0x08,0x00,0x00,0x00,0x00,0x00,0x00,0x00,0x00,0x10,0x08,0xff,0x84,0x00,0x00,0x00,0x00,0x00,0x00,0x00,0x00,0x00,0x00,0x00,0x00,0x00,0x00,0x00,0x00,0x21,0x00,0x84,0x00,0x00,0x00,0x00,0x00,0x00,0x00,0x00,0x00,0x00,0x21,0x00,0x84,0x00,0x00,0x00,0x00,0x00,0x00,0x00,0x00,0x00,0x00,0x00,0x00,0x00,0x00,0x00,0x00,0x33,0x00,0xcc,0x00,0x00,0x00,0x00,0x00,0x00,0x00,0x00,0x00,0x00,0x33,0x00,0xcc,0x00,0x00,0x00,0x00,0x00,0x00,0x00,0x00,0x00,0x00,0x00,0x00,0x00,0x00,0x00,0x00,0x6f,0x00,0xf6,0x00,0x00,0x00,0x00,0x00,0x00,0x00,0x00,0x00,0x00,0x6f,0x00,0xf6,0x00,0x00,0x00,0x00,0x00,0x00,0x00,0x00,0x00,0x00,0x00,0x00,0x00,0x00,0x00,0x00,0xf5,0x00,0xaf,0x00,0x00,0x00,0x00,0x00,0x00,0x00,0x00,0x00,0x00,0xf5,0x00,0xaf,0x00,0x00,0x00,0x00,0x00,0x00,0x00,0x00,0x00,0x00,0x00,0x00,0x00,0x00,0x00,0x00,0x05,0x00,0xa0,0x00,0x00,0x00,0x00,0x00,0x00,0x00,0x00,0x00,0x00,0x05,0x00,0xa0,0x00,0x00,0x00,0x00,0x00,0x00,0x00,0x00,0x00,0x00,0x00,0x00,0x00,0x00,0x00,0x00,0x0f,0x00,0xf0,0x00,0x00,0x00,0x00,0x00,0x00,0x00,0x00,0x00,0x00,0x0f,0x00,0xf0,0x00,0x00,0x00,0x00,0x00,0x00,0x00,0x00,0x00,0x00,0x00,0x00,0x00,0x00,0x00,0x00,0x03,0x00,0xc0,0x00,0x00,0x00,0x00,0x00,0x00,0x00,0x00,0x00,0x00,0x03,0x00,0xc0,0x00,0x00,0x00,0x00,0x00,0x00,0x00,0x00,0x00,0x00,0x00,0x00,0x00,0x00,0x00,0x00,0x01,0x00,0x80,0x00,0x00,0x00,0x00,0x00,0x00,0x00,0x00,0x00,0x00,0x01,0x00,0x80,0x00,0x00,0x00,0x00,0x00,0x00,0x00,0x00,0x00,0x00,0x00,0x00,0x00,0x00,0x00,0x00,0x01,0x00,0x80,0x00,0xff,0xff,0xff,0xff,0xff,0xff,0xff,0xff,0x00,0x01,0x00,0x80,0x00,0x00,0x00,0x00,0x00,0x00,0x00,0x00,0x00,0x00,0x00,0x00,0x00,0x00,0x00,0x00,0x03,0x00,0xc0,0x00,0x66,0x66,0x66,0x66,0x66,0x66,0x66,0x66,0x00,0x03,0x00,0xc0,0x00,0x00,0x00,0x00,0x00,0x00,0x00,0x00,0x00,0x00,0x00,0x00,0x00,0x00,0x00,0x00,0x0f,0x00,0xf0,0x00,0x3c,0x3c,0x3c,0x3c,0x3c,0x3c,0x3c,0x3c,0x00,0x0f,0x00,0xf0,0x00,0x00,0x00,0x00,0x00,0x00,0x00,0x00,0x00,0x00,0x00,0x00,0x00,0x00,0x00,0x00,0x05,0x00,0xa0,0x00,0x24,0x24,0x24,0x24,0x24,0x24,0x24,0x24,0x00,0x05,0x00,0xa0,0x00,0x00,0x00,0x00,0x00,0x00,0x00,0x00,0x00,0x00,0x00,0x00,0x00,0x00,0x00,0x00,0xf5,0x00,0xaf,0x00,0x50,0x0a,0x50,0x0a,0x50,0x0a,0x50,0x0a,0x00,0xf5,0x00,0xaf,0x00,0x00,0x00,0x00,0x00,0x00,0x00,0x00,0x00,0x00,0x00,0x00,0x00,0x00,0x00,0x00,0x6f,0x00,0xf6,0x00,0xf0,0x0f,0xf0,0x0f,0xf0,0x0f,0xf0,0x0f,0x00,0x6f,0x00,0xf6,0x00,0x00,0x00,0x00,0x00,0x00,0x00,0x00,0x00,0x00,0x00,0x00,0x00,0x00,0x00,0x00,0x33,0x00,0xcc,0x00,0x30,0x0c,0x30,0x0c,0x30,0x0c,0x30,0x0c,0x00,0x33,0x00,0xcc,0x00,0x00,0x00,0x00,0x00,0x00,0x00,0x00,0x00,0x00,0x00,0x00,0x00,0x00,0x00,0x00,0x21,0x00,0x84,0x00,0x10,0x08,0x10,0x08,0x10,0x08,0x10,0x08,0x00,0x21,0x00,0x84,0x00,0x00,0x00,0x00,0x00,0x00,0x00,0x00,0x00,0x00,0x00,0x00,0x00,0x00,0x00,0x00,0x21,0xff,0x10,0x08,0x00,0x21,0x84,0x00,0x00,0x21,0x84,0x00,0x10,0x08,0xff,0x84,0x00,0x00,0x00,0x00,0x00,0x00,0x00,0x00,0x00,0x00,0x00,0x00,0x00,0x00,0x00,0x00,0x33,0x66,0x30,0x0c,0x00,0x33,0xcc,0x00,0x00,0x33,0xcc,0x00,0x30,0x0c,0x66,0xcc,0x00,0x00,0x00,0x00,0x00,0x00,0x00,0x00,0x00,0x00,0x00,0x00,0x00,0x00,0x00,0x00,0x6f,0x3c,0xf0,0x0f,0x00,0x6f,0xf6,0x00,0x00,0x6f,0xf6,0x00,0xf0,0x0f,0x3c,0xf6,0x00,0x00,0x00,0x00,0x00,0x00,0x00,0x00,0x00,0x00,0x00,0x00,0x00,0x00,0x00,0x00,0xf5,0x24,0x50,0x0a,0x00,0xf5,0xaf,0x00,0x00,0xf5,0xaf,0x00,0x50,0x0a,0x24,0xaf,0x00,0x00,0x00,0x00,0x00,0x00,0x00,0x00,0x00,0x00,0x00,0x00,0x00,0x00,0x00,0x00,0x05,0x0a,0x24,0x24,0x00,0x05,0xa0,0x00,0x00,0x05,0xa0,0x00,0x24,0x24,0x50,0xa0,0x00,0x00,0x00,0x00,0x00,0x00,0x00,0x00,0x00,0x00,0x00,0x00,0x00,0x00,0x00,0x00,0x0f,0x0f,0x3c,0x3c,0x00,0x0f,0xf0,0x00,0x00,0x0f,0xf0,0x00,0x3c,0x3c,0xf0,0xf0,0x00,0x00,0x00,0x00,0x00,0x00,0x00,0x00,0x00,0x00,0x00,0x00,0x00,0x00,0x00,0x00,0x03,0x0c,0x66,0x66,0x00,0x03,0xc0,0x00,0x00,0x03,0xc0,0x00,0x66,0x66,0x30,0xc0,0x00,0x00,0x00,0x00,0x00,0x00,0x00,0x00,0x00,0x00,0x00,0x00,0x00,0x00,0x00,0x00,0x01,0x08,0xff,0xff,0x00,0x01,0x80,0x00,0x00,0x01,0x80,0x00,0xff,0xff,0x10,0x80,0x00,0x00,0x00,0x00,0x00,0x00,0x00,0x00,0x00,0x00,0x00,0x00,0x00,0x00,0x00,0x00,0x01,0x08,0x00,0x20,0x10,0x80,0x00,0x00,0x00,0x00,0x01,0x08,0x00,0x00,0x10,0x80,0x00,0x00,0x00,0x00,0x00,0x00,0x00,0x00,0x00,0x00,0x00,0x00,0x00,0x00,0x00,0x00,0x03,0x0c,0x00,0x00,0x30,0xc0,0x00,0x00,0x00,0x00,0x03,0x0c,0x00,0x00,0x30,0xc0,0x00,0x00,0x00,0x00,0x00,0x00,0x00,0x00,0x00,0x00,0x00,0x00,0x00,0x00,0x00,0x00,0x0f,0x0f,0x00,0x00,0xf0,0xf0,0x00,0x00,0x00,0x00,0x0f,0x0f,0x00,0x00,0xf0,0xf0,0x00,0x00,0x00,0x00,0x00,0x00,0x00,0x00,0x00,0x00,0x00,0x00,0x00,0x00,0x00,0x00,0x05,0x0a,0x00,0x00,0x50,0xa0,0x00,0x00,0x00,0x00,0x05,0x0a,0x00,0x00,0x50,0xa0,0x00,0x00,0x00,0x00,0x00,0x00,0x00,0x00,0x00,0x00,0x00,0x00,0x00,0x00,0x00,0x00,0xf5,0x24,0x00,0x00,0x24,0xaf,0x00,0x00,0x00,0x00,0xf5,0x24,0x00,0x00,0x24,0xaf,0x00,0x00,0x00,0x00,0x00,0x00,0x00,0x00,0x00,0x00,0x00,0x00,0x00,0x00,0x00,0x00,0x6f,0x3c,0x00,0x00,0x3c,0xf6,0x00,0x00,0x00,0x00,0x6f,0x3c,0x00,0x00,0x3c,0xf6,0x00,0x00,0x00,0x00,0x00,0x00,0x00,0x00,0x00,0x00,0x00,0x00,0x00,0x00,0x00,0x00,0x33,0x66,0x00,0x00,0x66,0xcc,0x00,0x00,0x00,0x00,0x33,0x66,0x00,0x00,0x66,0xcc,0x00,0x00,0x00,0x00,0x00,0x00,0x00,0x00,0x00,0x00,0x00,0x00,0x00,0x00,0x00,0x00,0x21,0xff,0x00,0x00,0xff,0x84,0x00,0x00,0x00,0x00,0x21,0xff,0x00,0x00,0xff,0x84,0x00,0x00,0x00,0x00,0x00,0x00,0x00,0x00,0x00,0x00,0x00,0x00,0x00,0x00,0x00,0x00,0x21,0x00,0x00,0x00,0x00,0x84,0x00,0x00,0x00,0x00,0x21,0x00,0x00,0x00,0x00,0x84,0x00,0x00,0x00,0x00,0x00,0x00,0x00,0x00,0x00,0x00,0x00,0x00,0x00,0x00,0x00,0x00,0x33,0x00,0x00,0x00,0x00,0xcc,0x00,0x00,0x00,0x00,0x33,0x00,0x00,0x00,0x00,0xcc,0x00,0x00,0x00,0x00,0x00,0x00,0x00,0x00,0x00,0x00,0x00,0x00,0x00,0x00,0x00,0x00,0x6f,0x00,0x00,0x00,0x00,0xf6,0x00,0x00,0x00,0x00,0x6f,0x00,0x00,0x00,0x00,0xf6,0x00,0x00,0x00,0x00,0x00,0x00,0x00,0x00,0x00,0x00,0x00,0x00,0x00,0x00,0x00,0x00,0xf5,0x00,0x00,0x00,0x00,0xaf,0x00,0x00,0x00,0x00,0xf5,0x00,0x00,0x00,0x00,0xaf,0x00,0x00,0x00,0x00,0x00,0x00,0x00,0x00,0x00,0x00,0x00,0x00,0x00,0x00,0x00,0x00,0x05,0x00,0x00,0x00,0x00,0xa0,0x00,0x00,0x00,0x00,0x05,0x00,0x00,0x00,0x00,0xa0,0x00,0x00,0x00,0x00,0x00,0x00,0x00,0x00,0x00,0x00,0x00,0x00,0x00,0x00,0x00,0x00,0x0f,0x00,0x00,0x00,0x00,0xf0,0x00,0x00,0x00,0x00,0x0f,0x00,0x00,0x00,0x00,0xf0,0x00,0x00,0x00,0x00,0x00,0x00,0x00,0x00,0x00,0x00,0x00,0x00,0x00,0x00,0x00,0x00,0x03,0x00,0x00,0x00,0x00,0xc0,0x00,0x00,0x00,0x00,0x03,0x00,0x00,0x00,0x00,0xc0,0x00,0x00,0x00,0x00,0x00,0x00,0x00,0x00,0x00,0x00,0x00,0x00,0x00,0x00,0x00,0x00,0x01,0x00,0x00,0x00,0x00,0x80,0x00,0x00,0x00,0x00,0x01,0x00,0x00,0x00,0x00,0x80,0x00,0x00,0x00,0x00,0x00,0x00,0x00,0x00,0x00,0x00,0x00,0x00,0x01,0x00,0x00,0x00,0x00,0x00,0x00,0x80,0x00,0x00,0x00,0x00,0x00,0x00,0x00,0x00,0x01,0x00,0x00,0x00,0x00,0x00,0x00,0x80,0x00,0x00,0x00,0x00,0x00,0x00,0x00,0x00,0x03,0x00,0x00,0x00,0x00,0x00,0x00,0xc0,0x00,0x00,0x00,0x00,0x00,0x00,0x00,0x00,0x03,0x00,0x00,0x00,0x00,0x00,0x00,0xc0,0x00,0x00,0x00,0x00,0x00,0x00,0x00,0x00,0x0f,0x00,0x00,0x00,0x00,0x00,0x00,0xf0,0x00,0x00,0x00,0x00,0x00,0x00,0x00,0x00,0x0f,0x00,0x00,0x00,0x00,0x00,0x00,0xf0,0x00,0x00,0x00,0x00,0x00,0x00,0x00,0x00,0x05,0x00,0x00,0x00,0x00,0x00,0x00,0xa0,0x00,0x00,0x00,0x00,0x00,0x00,0x00,0x00,0x05,0x00,0x00,0x00,0x00,0x00,0x00,0xa0,0x00,0x00,0x00,0x00,0x00,0x00,0x00,0x00,0xf5,0x00,0x00,0x00,0x00,0x00,0x00,0xaf,0x00,0x00,0x00,0x00,0x00,0x00,0x00,0x00,0xf5,0x00,0x00,0x00,0x00,0x00,0x00,0xaf,0x00,0x00,0x00,0x00,0x00,0x00,0x00,0x00,0x6f,0x00,0x00,0x00,0x00,0x00,0x00,0xf6,0x00,0x00,0x00,0x00,0x00,0x00,0x00,0x00,0x6f,0x00,0x00,0x00,0x00,0x00,0x00,0xf6,0x00,0x00,0x00,0x00,0x00,0x00,0x00,0x00,0x33,0x00,0x00,0x00,0x00,0x00,0x00,0xcc,0x00,0x00,0x00,0x00,0x00,0x00,0x00,0x00,0x33,0x00,0x00,0x00,0x00,0x00,0x00,0xcc,0x00,0x00,0x00,0x00,0x00,0x00,0x00,0x00,0x21,0x00,0x00,0x00,0x00,0x00,0x00,0x84,0x00,0x00,0x00,0x00,0x00,0x00,0x00,0x00,0x21,0x00,0x00,0x00,0x00,0x00,0x00,0x84,0x00,0x00,0x00,0x00,0x00,0x00,0x00,0x00,0x21,0xff,0x00,0x00,0x00,0x00,0xff,0x84,0x00,0x00,0x00,0x00,0x00,0x00,0x00,0x00,0x21,0xff,0x00,0x00,0x00,0x00,0xff,0x84,0x00,0x00,0x00,0x00,0x00,0x00,0x00,0x00,0x33,0x66,0x00,0x00,0x00,0x00,0x66,0xcc,0x00,0x00,0x00,0x00,0x00,0x00,0x00,0x00,0x33,0x66,0x00,0x00,0x00,0x00,0x66,0xcc,0x00,0x00,0x00,0x00,0x00,0x00,0x00,0x00,0x6f,0x3c,0x00,0x00,0x00,0x00,0x3c,0xf6,0x00,0x00,0x00,0x00,0x00,0x00,0x00,0x00,0x6f,0x3c,0x00,0x00,0x00,0x00,0x3c,0xf6,0x00,0x00,0x00,0x00,0x00,0x00,0x00,0x00,0xf5,0x24,0x00,0x00,0x00,0x00,0x24,0xaf,0x00,0x00,0x00,0x00,0x00,0x00,0x00,0x00,0xf5,0x24,0x00,0x00,0x00,0x00,0x24,0xaf,0x00,0x00,0x00,0x00,0x00,0x00,0x00,0x00,0x05,0x0a,0x00,0x00,0x00,0x00,0x50,0xa0,0x00,0x00,0x00,0x00,0x00,0x00,0x00,0x00,0x05,0x0a,0x00,0x00,0x00,0x00,0x50,0xa0,0x00,0x00,0x00,0x00,0x00,0x00,0x00,0x00,0x0f,0x0f,0x00,0x00,0x00,0x00,0xf0,0xf0,0x00,0x00,0x00,0x00,0x00,0x00,0x00,0x00,0x0f,0x0f,0x00,0x00,0x00,0x00,0xf0,0xf0,0x00,0x00,0x00,0x00,0x00,0x00,0x00,0x00,0x03,0x0c,0x00,0x00,0x00,0x00,0x30,0xc0,0x00,0x00,0x00,0x00,0x00,0x00,0x00,0x00,0x03,0x0c,0x00,0x00,0x00,0x00,0x30,0xc0,0x00,0x00,0x00,0x00,0x00,0x00,0x00,0x00,0x01,0x08,0x00,0x00,0x00,0x00,0x10,0x80,0x00,0x00,0x00,0x00,0x00,0x00,0x00,0x00,0x01,0x08,0x00,0x00,0x00,0x00,0x10,0x80,0x00,0x00,0x00,0x00,0x00,0x00,0x00,0x00,0x01,0x08,0xff,0xff,0xff,0xff,0x10,0x80,0x00,0x00,0x00,0x00,0x00,0x00,0x00,0x00,0x01,0x08,0xff,0xff,0xff,0xff,0x10,0x80,0x00,0x00,0x00,0x00,0x00,0x00,0x00,0x00,0x03,0x0c,0x66,0x66,0x66,0x66,0x30,0xc0,0x00,0x00,0x00,0x00,0x00,0x00,0x00,0x00,0x03,0x0c,0x66,0x66,0x66,0x66,0x30,0xc0,0x00,0x00,0x00,0x00,0x00,0x00,0x00,0x00,0x0f,0x0f,0x3c,0x3c,0x3c,0x3c,0xf0,0xf0,0x00,0x00,0x00,0x00,0x00,0x00,0x00,0x00,0x0f,0x0f,0x3c,0x3c,0x3c,0x3c,0xf0,0xf0,0x00,0x00,0x00,0x00,0x00,0x00,0x00,0x00,0x05,0x0a,0x24,0x24,0x24,0x24,0x50,0xa0,0x00,0x00,0x00,0x00,0x00,0x00,0x00,0x00,0x05,0x0a,0x24,0x24,0x24,0x24,0x50,0xa0,0x00,0x00,0x00,0x00,0x00,0x00,0x00,0x00,0xf5,0x24,0x50,0x0a,0x50,0x0a,0x24,0xaf,0x00,0x00,0x00,0x00,0x00,0x00,0x00,0x00,0xf5,0x24,0x50,0x0a,0x50,0x0a,0x24,0xaf,0x00,0x00,0x00,0x00,0x00,0x00,0x00,0x00,0x6f,0x3c,0xf0,0x0f,0xf0,0x0f,0x3c,0xf6,0x00,0x00,0x00,0x00,0x00,0x00,0x00,0x00,0x6f,0x3c,0xf0,0x0f,0xf0,0x0f,0x3c,0xf6,0x00,0x00,0x00,0x00,0x00,0x00,0x00,0x00,0x33,0x66,0x30,0x0c,0x30,0x0c,0x66,0xcc,0x00,0x00,0x00,0x00,0x00,0x00,0x00,0x00,0x33,0x66,0x30,0x0c,0x30,0x0c,0x66,0xcc,0x00,0x00,0x00,0x00,0x00,0x00,0x00,0x00,0x21,0xff,0x10,0x08,0x10,0x08,0xff,0x84,0x00,0x00,0x00,0x00,0x00,0x00,0x00,0x00,0x21,0xff,0x10,0x08,0x10,0x08,0xff,0x84,0x00,0x00,0x00,0x00,0x00,0x00,0x00,0x00,0x21,0x00,0x84,0x00,0x00,0x21,0x00,0x84,0x00,0x00,0x00,0x00,0x00,0x00,0x00,0x00,0x21,0x40,0x84,0x00,0x00,0x21,0x00,0x84,0x00,0x00,0x00,0x00,0x00,0x00,0x00,0x00,0x33,0x00,0xcc,0x00,0x00,0x33,0x00,0xcc,0x00,0x00,0x00,0x00,0x00,0x00,0x00,0x00,0x33,0x00,0xcc,0x00,0x00,0x33,0x00,0xcc,0x00,0x00,0x00,0x00,0x00,0x00,0x00,0x00,0x6f,0x00,0xf6,0x00,0x00,0x6f,0x00,0xf6,0x00,0x00,0x00,0x00,0x00,0x00,0x00,0x00,0x6f,0x00,0xf6,0x00,0x00,0x6f,0x00,0xf6,0x00,0x00,0x00,0x00,0x00,0x00,0x00,0x00,0xf5,0x00,0xaf,0x00,0x00,0xf5,0x00,0xaf,0x00,0x00,0x00,0x00,0x00,0x00,0x00,0x00,0xf5,0x00,0xaf,0x00,0x00,0xf5,0x00,0xaf,0x00,0x00,0x00,0x00,0x00,0x00,0x00,0x00,0x05,0x00,0xa0,0x00,0x00,0x05,0x00,0xa0,0x00,0x00,0x00,0x00,0x00,0x00,0x00,0x00,0x05,0x00,0xa0,0x00,0x00,0x05,0x00,0xa0,0x00,0x00,0x00,0x00,0x00,0x00,0x00,0x00,0x0f,0x00,0xf0,0x00,0x00,0x0f,0x00,0xf0,0x00,0x00,0x00,0x00,0x00,0x00,0x00,0x00,0x0f,0x00,0xf0,0x00,0x00,0x0f,0x00,0xf0,0x00,0x00,0x00,0x00,0x00,0x00,0x00,0x00,0x03,0x00,0xc0,0x00,0x00,0x03,0x00,0xc0,0x00,0x00,0x00,0x00,0x00,0x00,0x00,0x00,0x03,0x00,0xc0,0x00,0x00,0x03,0x00,0xc0,0x00,0x00,0x00,0x00,0x00,0x00,0x00,0x00,0x01,0x00,0x80,0x00,0x00,0x01,0x00,0x80,0x00,0x00,0x00,0x00,0x00,0x00,0x00,0x00,0x01,0x00,0x80,0x00,0x00,0x01,0x00,0x80,0x00,0x00,0x00,0x00,0x00,0x00,0x01,0x00,0x00,0x80,0x00,0x00,0x00,0x00,0x01,0x00,0x00,0x80,0x00,0x00,0x00,0x00,0x01,0x00,0x00,0x80,0x00,0x00,0x00,0x00,0x01,0x00,0x00,0x80,0x00,0x00,0x00,0x00,0x03,0x00,0x00,0xc0,0x00,0x00,0x00,0x00,0x03,0x00,0x00,0xc0,0x00,0x00,0x00,0x00,0x03,0x00,0x00,0xc0,0x00,0x00,0x00,0x00,0x03,0x00,0x00,0xc0,0x00,0x00,0x00,0x00,0x0f,0x00,0x00,0xf0,0x00,0x00,0x00,0x00,0x0f,0x00,0x00,0xf0,0x00,0x00,0x00,0x00,0x0f,0x00,0x00,0xf0,0x00,0x00,0x00,0x00,0x0f,0x00,0x00,0xf0,0x00,0x00,0x00,0x00,0x05,0x00,0x00,0xa0,0x00,0x00,0x00,0x00,0x05,0x00,0x00,0xa0,0x00,0x00,0x00,0x00,0x05,0x00,0x00,0xa0,0x00,0x00,0x00,0x00,0x05,0x00,0x00,0xa0,0x00,0x00,0x00,0x00,0xf5,0x00,0x00,0xaf,0x00,0x00,0x00,0x00,0xf5,0x00,0x00,0xaf,0x00,0x00,0x00,0x00,0xf5,0x00,0x00,0xaf,0x00,0x00,0x00,0x00,0xf5,0x00,0x00,0xaf,0x00,0x00,0x00,0x00,0x6f,0x00,0x00,0xf6,0x00,0x00,0x00,0x00,0x6f,0x00,0x00,0xf6,0x00,0x00,0x00,0x00,0x6f,0x00,0x00,0xf6,0x00,0x00,0x00,0x00,0x6f,0x00,0x00,0xf6,0x00,0x00,0x00,0x00,0x33,0x00,0x00,0xcc,0x00,0x00,0x00,0x00,0x33,0x00,0x00,0xcc,0x00,0x00,0x00,0x00,0x33,0x00,0x00,0xcc,0x00,0x00,0x00,0x00,0x33,0x00,0x00,0xcc,0x00,0x00,0x00,0x00,0x21,0x00,0x00,0x84,0x00,0x00,0x00,0x00,0x21,0x00,0x00,0x84,0x00,0x00,0x00,0x00,0x21,0x00,0x00,0x84,0x00,0x00,0x00,0x00,0x21,0x00,0x00,0x84,0x00,0x00,0x00,0x00,0x21,0xff,0xff,0x84,0x00,0x00,0x00,0x00,0x21,0xff,0xff,0x84,0x00,0x00,0x00,0x00,0x21,0xff,0xff,0x84,0x00,0x00,0x00,0x00,0x21,0xff,0xff,0x84,0x00,0x00,0x00,0x00,0x33,0x66,0x66,0xcc,0x00,0x00,0x00,0x00,0x33,0x66,0x66,0xcc,0x00,0x00,0x00,0x00,0x33,0x66,0x66,0xcc,0x00,0x00,0x00,0x00,0x33,0x66,0x66,0xcc,0x00,0x00,0x00,0x00,0x6f,0x3c,0x3c,0xf6,0x00,0x00,0x00,0x00,0x6f,0x3c,0x3c,0xf6,0x00,0x00,0x00,0x00,0x6f,0x3c,0x3c,0xf6,0x00,0x00,0x00,0x00,0x6f,0x3c,0x3c,0xf6,0x00,0x00,0x00,0x00,0xf5,0x24,0x24,0xaf,0x00,0x00,0x00,0x00,0xf5,0x24,0x24,0xaf,0x00,0x00,0x00,0x00,0xf5,0x24,0x24,0xaf,0x00,0x00,0x00,0x00,0xf5,0x24,0x24,0xaf,0x00,0x00,0x00,0x00,0x05,0x0a,0x50,0xa0,0x00,0x00,0x00,0x00,0x05,0x0a,0x50,0xa0,0x00,0x00,0x00,0x00,0x05,0x0a,0x50,0xa0,0x00,0x00,0x00,0x00,0x85,0x0a,0x50,0xa0,0x00,0x00,0x00,0x00,0x0f,0x0f,0xf0,0xf0,0x00,0x00,0x00,0x00,0x0f,0x0f,0xf0,0xf0,0x00,0x00,0x00,0x00,0x0f,0x0f,0xf0,0xf0,0x00,0x00,0x00,0x00,0x0f,0x0f,0xf0,0xf0,0x00,0x00,0x00,0x00,0x03,0x0c,0x30,0xc0,0x00,0x00,0x00,0x00,0x03,0x0c,0x30,0xc0,0x00,0x00,0x00,0x00,0x03,0x0c,0x30,0xc0,0x00,0x00,0x00,0x00,0x03,0x0c,0x30,0xc0,0x00,0x00,0x00,0x00,0x01,0x08,0x10,0x80,0x00,0x00,0x00,0x00,0x01,0x08,0x10,0x80,0x00,0x00,0x00,0x00,0x01,0x08,0x10,0x80,0x00,0x00,0x00,0x00,0x01,0x08,0x10,0x80,0x00,0x00,0x00,0x01,0x80,0x00,0x00,0x01,0x80,0x00,0x00,0x01,0x80,0x00,0x00,0x01,0x80,0x00,0x00,0x01,0x80,0x00,0x00,0x01,0x80,0x00,0x00,0x01,0x80,0x00,0x00,0x01,0x80,0x00,0x00,0x03,0xc0,0x00,0x00,0x03,0xc0,0x00,0x00,0x03,0xc0,0x00,0x00,0x03,0xc0,0x00,0x00,0x03,0xc0,0x00,0x00,0x03,0xc0,0x00,0x00,0x03,0xc0,0x00,0x00,0x03,0xc0,0x00,0x00,0x0f,0xf0,0x00,0x00,0x0f,0xf0,0x00,0x00,0x0f,0xf0,0x00,0x00,0x0f,0xf0,0x00,0x00,0x0f,0xf0,0x00,0x00,0x0f,0xf0,0x00,0x00,0x0f,0xf0,0x00,0x00,0x0f,0xf0,0x00,0x00,0x05,0xa0,0x00,0x00,0x05,0xa0,0x00,0x00,0x05,0xa0,0x00,0x00,0x05,0xa0,0x00,0x00,0x05,0xa0,0x00,0x00,0x05,0xa0,0x00,0x00,0x05,0xa0,0x00,0x00,0x05,0xa0,0x00,0x00,0xf5,0xaf,0x00,0x00,0xf5,0xaf,0x00,0x00,0xf5,0xaf,0x00,0x00,0xf5,0xaf,0x00,0x00,0xf5,0xaf,0x00,0x00,0xf5,0xaf,0x00,0x00,0xf5,0xaf,0x00,0x00,0xf5,0xaf,0x00,0x00,0x6f,0xf6,0x00,0x00,0x6f,0xf6,0x00,0x00,0x6f,0xf6,0x00,0x00,0x6f,0xf6,0x00,0x00,0x6f,0xf6,0x00,0x00,0x6f,0xf6,0x00,0x00,0x6f,0xf6,0x00,0x00,0x6f,0xf6,0x00,0x00,0x33,0xcc,0x00,0x00,0x33,0xcc,0x00,0x00,0x33,0xcc,0x00,0x00,0x33,0xcc,0x00,0x00,0x33,0xcc,0x00,0x00,0x33,0xcc,0x00,0x00,0x33,0xcc,0x00,0x00,0x33,0xcc,0x00,0x00,0x21,0x84,0x00,0x00,0x21,0x84,0x00,0x00,0x21,0x84,0x00,0x00,0x21,0x84,0x00,0x00,0x21,0x84,0x00,0x00,0x21,0x84,0x00,0x00,0x21,0x84,0x00,0x00,0x21,0x84,0x00,0x10,0x08,0x10,0x08,0x10,0x08,0x10,0x08,0x10,0x08,0x10,0x08,0x10,0x08,0x10,0x08,0x10,0x08,0x10,0x08,0x10,0x08,0x10,0x08,0x10,0x08,0x10,0x08,0x10,0x08,0x10,0x08,0x30,0x0c,0x30,0x0c,0x30,0x0c,0x30,0x0c,0x30,0x0c,0x30,0x0c,0x30,0x0c,0x30,0x0c,0x30,0x0c,0x30,0x0c,0x30,0x0c,0x30,0x0c,0x30,0x0c,0x30,0x0c,0x30,0x0c,0x30,0x0c,0xf0,0x0f,0xf0,0x0f,0xf0,0x0f,0xf0,0x0f,0xf0,0x0f,0xf0,0x0f,0xf0,0x0f,0xf0,0x0f,0xf0,0x0f,0xf0,0x0f,0xf0,0x0f,0xf0,0x0f,0xf0,0x0f,0xf0,0x0f,0xf0,0x0f,0xf0,0x0f,0x50,0x0a,0x50,0x0a,0x50,0x0a,0x50,0x0a,0x50,0x0a,0x50,0x0a,0x50,0x0a,0x50,0x0a,0x50,0x0a,0x50,0x0a,0x50,0x0a,0x50,0x0a,0x50,0x0a,0x50,0x0a,0x50,0x0a,0x50,0x0a,0x24,0x24,0x24,0x24,0x24,0x24,0x24,0x24,0x24,0x24,0x24,0x24,0x24,0x24,0x24,0x24,0x24,0x24,0x24,0x24,0x24,0x24,0x24,0x24,0x24,0x24,0x24,0x24,0x24,0x24,0x24,0x24,0x3c,0x3c,0x3c,0x3c,0x3c,0x3c,0x3c,0x3c,0x3c,0x3c,0x3c,0x3c,0x3c,0x3c,0x3c,0x3c,0x3c,0x3c,0x3c,0x3c,0x3c,0x3c,0x3c,0x3c,0x3c,0x3c,0x3c,0x3c,0x3c,0x3c,0x3c,0x3c,0x66,0x66,0x66,0x66,0x66,0x66,0x66,0x66,0x66,0x66,0x66,0x66,0x66,0x66,0x66,0x66,0x66,0x66,0x66,0x66,0x66,0x66,0x66,0x66,0x66,0x66,0x66,0x66,0x66,0x66,0x66,0x66,0xff,0xff,0xff,0xff,0xff,0xff,0xff,0xff,0xff,0xff,0xff,0xff,0xff,0xff,0xff,0xff,0xff,0xff,0xff,0xff,0xff,0xff,0xff,0xff,0xff,0xff,0xff,0xff,0xff,0xff,0xff,0xff};
