#define x_width 256
#define x_height 256
static char x_bits[] = {
0xff,0xff,0xff,0xff,0xff,0xff,0xff,0xff,0xff,0xff,0xff,0xff,0xff,0xff,0xff,0xff,0xff,0xff,0xff,0xff,0xff,0xff,0xff,0xff,0xff,0xff,0xff,0xff,0xff,0xff,0xff,0xff,0xff,0xff,0xff,0xff,0xff,0xff,0xff,0xff,0xff,0xff,0xff,0xff,0xff,0xff,0xff,0xff,0xff,0xff,0xff,0xff,0xff,0xff,0xff,0xff,0xff,0xff,0xff,0xff,0xff,0xff,0xff,0xff,0xff,0xff,0xff,0xff,0xff,0xff,0xff,0xff,0xff,0xff,0xff,0xff,0xff,0xff,0xff,0xff,0xff,0xff,0xff,0xff,0xff,0xff,0xff,0xff,0xff,0xff,0xff,0xff,0xff,0xff,0xff,0xff,0xff,0xff,0xff,0xff,0xff,0xff,0xff,0xff,0xff,0xff,0xff,0xff,0xff,0xff,0xff,0xff,0xff,0xff,0xff,0xff,0xff,0xff,0xff,0xff,0xff,0xff,0xff,0xff,0xff,0xff,0xff,0xff,0x1f,0xf8,0x3f,0xf8,0x1f,0xfc,0x1f,0xf8,0x1f,0xf8,0x0f,0xf8,0x1f,0xfc,0x0f,0xf8,0x1f,0xfc,0x3f,0xfc,0x1f,0xf8,0x1f,0xf0,0x0f,0xf8,0x3f,0xf8,0x1f,0xf8,0x3f,0xf8,0xef,0xf7,0xef,0xf7,0xef,0xf7,0xef,0xf7,0xef,0xf7,0xef,0xf7,0xef,0xf7,0xef,0xf7,0xef,0xf7,0xef,0xf7,0xef,0xf7,0xef,0xf7,0xef,0xf7,0xef,0xf7,0xef,0xf7,0xef,0xf7,0xef,0xf7,0xef,0xf7,0xef,0xf7,0xef,0xf7,0xef,0xf7,0xef,0xf7,0xef,0xf7,0xef,0xf7,0xef,0xf7,0xef,0xf7,0xef,0xf7,0xef,0xf7,0xef,0xf7,0xef,0xf7,0xef,0xf7,0xef,0xf7,0xef,0xf7,0xef,0xf7,0xef,0xf7,0xef,0xf7,0xef,0xf7,0xef,0xf7,0xef,0xf7,0xef,0xf7,0xef,0xf7,0xef,0xf7,0xef,0xf7,0xef,0xf7,0xef,0xf7,0xef,0xf7,0xef,0xf7,0xef,0xf7,0xef,0x03,0xe0,0xf7,0xef,0x07,0xc0,0xf7,0xef,0x07,0xe0,0xf7,0xef,0x07,0xc0,0xf7,0xef,0x03,0xe0,0xf7,0xef,0x01,0xc0,0xf7,0xef,0x07,0xe0,0xf7,0xef,0x07,0xc0,0xf7,0xef,0x00,0x00,0xf7,0xef,0x00,0x00,0xf7,0xef,0x00,0x00,0xf7,0xef,0x00,0x00,0xf7,0xef,0x00,0x00,0xf7,0xef,0x00,0x00,0xf7,0xef,0x00,0x00,0xf7,0xef,0x00,0x00,0xf7,0xef,0xfc,0x3f,0xf7,0xff,0xfc,0x3f,0xf7,0xef,0xfc,0x3f,0xf7,0xef,0xfc,0x3f,0xf7,0xff,0xfc,0x3f,0xf7,0xef,0xfc,0x3f,0xf7,0xef,0xfc,0x3f,0xff,0xef,0xfc,0x3f,0xf7,0x1f,0xfc,0x3f,0xf0,0x1f,0xfc,0x3f,0xf8,0x1f,0xfc,0x3f,0xf8,0x1f,0xfc,0x3f,0xf8,0x1f,0xfc,0x3f,0xf8,0x1f,0xfc,0x3f,0xf0,0x1f,0xfc,0x3f,0xf8,0x1f,0xfc,0x3f,0xf8,0xff,0xfc,0x3f,0xff,0xff,0xfc,0x3f,0xff,0xff,0xfc,0x3f,0xff,0xff,0xfc,0x3f,0xff,0xff,0xfc,0x3f,0xff,0xff,0xfc,0x3f,0xff,0xff,0xfc,0x3f,0xff,0xff,0xfc,0x3f,0xff,0xff,0xfc,0x3f,0xff,0xff,0xfc,0x3f,0xff,0xff,0xfc,0x3f,0xff,0xff,0xfc,0x3f,0xff,0xff,0xfc,0x3f,0xff,0xff,0xfc,0x3f,0xff,0xff,0xfc,0x3f,0xff,0xff,0xfc,0x3f,0xff,0xff,0xfc,0x3f,0xff,0xff,0xfc,0x3f,0xff,0xff,0xfc,0x3f,0xff,0xff,0xfc,0x3f,0xff,0xff,0xfc,0x3f,0xff,0xff,0xfc,0x3f,0xff,0xff,0xfc,0x3f,0xff,0xff,0xfc,0x3f,0xff,0xff,0xfc,0x3f,0xff,0xff,0xfc,0x3f,0xff,0xff,0xfc,0x3f,0xff,0xff,0xfc,0x3f,0xff,0xff,0xfc,0x3f,0xff,0xff,0xfc,0x3f,0xff,0xff,0xfc,0x3f,0xff,0xff,0xfc,0x3f,0xff,0xff,0xfc,0x1f,0x00,0x00,0xf8,0x3f,0xff,0xff,0xfc,0x3f,0x00,0x00,0xfc,0x3f,0xff,0xff,0xfc,0x3f,0x00,0x00,0xf8,0x3f,0xff,0xff,0xfc,0x1f,0x00,0x00,0xf8,0x3f,0xff,0xff,0xfc,0x00,0x00,0x00,0x00,0x3f,0xff,0xff,0xfc,0x00,0x00,0x00,0x00,0x3f,0xff,0xff,0xfc,0x00,0x00,0x00,0x00,0x3f,0xff,0xff,0xfc,0x00,0x00,0x00,0x00,0x3f,0xff,0xff,0xfc,0x00,0x00,0x00,0x00,0x3f,0xff,0xff,0xfc,0x00,0x00,0x00,0x00,0x3f,0xff,0xff,0xfc,0x00,0x00,0x00,0x00,0x3f,0xff,0xff,0xfc,0x00,0x00,0x00,0x00,0x3f,0xff,0xff,0xfc,0x00,0x00,0x00,0x00,0x3f,0xff,0xff,0xfc,0x00,0x00,0x00,0x00,0x3f,0xff,0xff,0xfc,0x00,0x00,0x00,0x00,0x3f,0xff,0xff,0xfc,0x00,0x00,0x00,0x00,0x3f,0xff,0x1f,0xfc,0x00,0x00,0x00,0x00,0x3f,0xf8,0x0f,0xfc,0x00,0x00,0x00,0x00,0x3f,0xf8,0x1f,0xfc,0x00,0x00,0x00,0x00,0x3f,0xf8,0x1f,0xfc,0x00,0x00,0x00,0x00,0x3f,0xf0,0xef,0xfd,0xe0,0xff,0xff,0x07,0x3f,0xf7,0xff,0xfd,0xe0,0xff,0xff,0x07,0xbf,0xff,0xef,0xfc,0xe0,0xff,0xff,0x07,0xbf,0xff,0xff,0xfc,0xe0,0xff,0xff,0x07,0xbf,0xf7,0xef,0x01,0xe0,0xff,0xff,0x07,0x80,0xf7,0xef,0x01,0xe0,0xff,0xff,0x07,0x80,0xf7,0xef,0x00,0xe0,0xff,0xff,0x07,0x80,0xf7,0xef,0x01,0xe0,0xff,0xff,0x07,0x80,0xf7,0xef,0x01,0xe0,0xff,0xff,0x07,0x80,0xf7,0xef,0x01,0xe0,0xff,0xff,0x07,0x80,0xf7,0xef,0x01,0xe0,0xff,0xff,0x07,0x80,0xf7,0xef,0x01,0xe0,0xff,0xff,0x07,0x80,0xf7,0xef,0xf7,0xe0,0xff,0xff,0x07,0xef,0xf7,0xef,0xf7,0xe0,0xff,0xff,0x07,0xef,0xf7,0xef,0xf7,0xe0,0xff,0xff,0x07,0xef,0xf7,0xef,0xf7,0xe0,0xff,0xff,0x07,0xef,0xf7,0xef,0xf7,0xe0,0xff,0xff,0x07,0xef,0xf7,0xef,0xf7,0xe0,0xff,0xff,0x07,0xef,0xf7,0xef,0xf7,0xe0,0xff,0xff,0x07,0xef,0xf7,0xef,0xf7,0xe0,0xff,0xff,0x07,0xef,0xf7,0xff,0xf7,0xe0,0xff,0xff,0x07,0xef,0xff,0xef,0xf7,0xe0,0xff,0xff,0x07,0xef,0xff,0xef,0xf7,0xe0,0xff,0xff,0x07,0xef,0xf7,0xef,0xf7,0xe0,0xff,0xff,0x07,0xef,0xf7,0x1f,0xf0,0xe0,0x07,0xe0,0x07,0x1f,0xf8,0x1f,0xf0,0xe0,0x07,0xe0,0x07,0x1f,0xf8,0x1f,0xf8,0xe0,0x07,0xe0,0x07,0x1f,0xf8,0x1f,0xfc,0xe0,0x07,0xe0,0x07,0x1f,0xf8,0xff,0xff,0xe0,0xf7,0xef,0x07,0xff,0xff,0xff,0xff,0xe0,0xf7,0xef,0x07,0xff,0xff,0xff,0xff,0xe0,0xf7,0xef,0x07,0xff,0xff,0xff,0xff,0xe0,0xf7,0xef,0x07,0xff,0xff,0xff,0xff,0xe0,0xf7,0xef,0x07,0xff,0xff,0xff,0xff,0xe0,0xf7,0xef,0x07,0xff,0xff,0xff,0xff,0xe0,0xf7,0xef,0x07,0xff,0xff,0xff,0xff,0xe0,0xf7,0xef,0x07,0xff,0xff,0xff,0xff,0xe0,0xf7,0xef,0x07,0xff,0xff,0xff,0xff,0xe0,0xf7,0xef,0x07,0xff,0xff,0xff,0xff,0xe0,0xf7,0xef,0x07,0xff,0xff,0xff,0xff,0xe0,0xf7,0xef,0x07,0xff,0xff,0xff,0xff,0xe0,0xf7,0xef,0x07,0xff,0xff,0xff,0xff,0xe0,0xf7,0xef,0x07,0xff,0xff,0xff,0xff,0xe0,0xf7,0xef,0x07,0xff,0xff,0xff,0xff,0xe0,0xf7,0xef,0x07,0xff,0xff,0xff,0xff,0xe0,0xf7,0xef,0x07,0x00,0x00,0x00,0x00,0xe0,0xf7,0xef,0x07,0xff,0xff,0xff,0xff,0xe0,0xf7,0xef,0x07,0x00,0x00,0x00,0x00,0xe0,0xf7,0xef,0x07,0xff,0xff,0xff,0xff,0xe0,0xf7,0x00,0x00,0x00,0x00,0x00,0x00,0x00,0x00,0xef,0x07,0xff,0xff,0xff,0xff,0xe0,0xf7,0x00,0x00,0x00,0x00,0x00,0x00,0x00,0x00,0xef,0x07,0xff,0xff,0xff,0xff,0xe0,0xf7,0x00,0x00,0x00,0x00,0x00,0x00,0x00,0x00,0xef,0x07,0xff,0xff,0xff,0xff,0xe0,0xf7,0x00,0x00,0x00,0x00,0x00,0x00,0x00,0x00,0xef,0x07,0xff,0xff,0xff,0xff,0xe0,0xf7,0x00,0x00,0x00,0x00,0x00,0x00,0x00,0x00,0xef,0x07,0xff,0xff,0xff,0xff,0xe0,0xf7,0x00,0x00,0x00,0x00,0x00,0x00,0x00,0x00,0xef,0x07,0xff,0xff,0x0f,0xf8,0xe0,0x07,0x00,0x00,0x00,0x00,0x00,0x00,0x00,0x00,0xe0,0x07,0x3f,0xf8,0x1f,0xf8,0xe0,0x07,0x00,0x00,0x00,0x00,0x00,0x00,0x00,0x00,0xe0,0x07,0x1f,0xf8,0xff,0xf7,0xe0,0xff,0x00,0x00,0x00,0x00,0x00,0x00,0x00,0x00,0xff,0x07,0xef,0xf7,0xef,0xf7,0xe0,0xff,0x00,0x00,0x00,0x00,0x00,0x00,0x00,0x00,0xff,0x07,0xef,0xff,0xef,0xf7,0xe0,0xff,0x00,0x00,0x00,0x00,0x00,0x00,0x00,0x00,0xff,0x07,0xef,0xf7,0xef,0xf7,0xe0,0xff,0x00,0x00,0x00,0x00,0x00,0x00,0x00,0x00,0xff,0x07,0xef,0xf7,0xef,0xf7,0xe0,0xff,0x00,0x00,0x00,0x00,0x00,0x00,0x00,0x00,0xff,0x07,0xef,0xf7,0xef,0xf7,0xe0,0xff,0x00,0x00,0x00,0x00,0x00,0x00,0x00,0x00,0xff,0x07,0xef,0xf7,0xef,0x01,0xe0,0xff,0x00,0x00,0x00,0x00,0x00,0x00,0x00,0x00,0xff,0x07,0x80,0xf7,0xef,0x01,0xe0,0xff,0x00,0x00,0x00,0x00,0x00,0x00,0x00,0x00,0xff,0x07,0x80,0xf7,0xef,0x01,0xe0,0xff,0x00,0x00,0x00,0x00,0x00,0x00,0x00,0x00,0xff,0x07,0x80,0xf7,0xef,0x00,0xe0,0xff,0x00,0x00,0x00,0x00,0x00,0x00,0x00,0x00,0xff,0x07,0x80,0xf7,0xef,0xfd,0xe0,0xff,0x00,0x00,0x00,0x00,0x00,0x00,0x00,0x00,0xff,0x07,0xbf,0xff,0xff,0xfd,0xe1,0xff,0x00,0x00,0x00,0x00,0x00,0x00,0x00,0x00,0xff,0x87,0xbf,0xf7,0x1f,0xfc,0x01,0x00,0x00,0xfc,0xff,0xff,0xff,0xff,0x1f,0x00,0x00,0x80,0x3f,0xf8,0x1f,0xfc,0x01,0x00,0x00,0xf8,0xff,0xff,0xff,0xff,0x3f,0x00,0x00,0x80,0x3f,0xf8,0xff,0xfc,0x01,0x00,0x00,0xfc,0xff,0xff,0xff,0xff,0x1f,0x00,0x00,0x80,0x3f,0xff,0xff,0xfc,0x01,0x00,0x00,0xf8,0xff,0xff,0xff,0xff,0x3f,0x00,0x00,0x80,0x3f,0xff,0xff,0xfc,0x01,0x00,0x00,0xfc,0xff,0xff,0xff,0xff,0x1f,0x00,0x00,0x80,0x3f,0xff,0xff,0xfc,0x01,0x00,0x00,0xf8,0xff,0xff,0xff,0xff,0x3f,0x00,0x00,0x00,0x3f,0xff,0xff,0xfc,0x01,0x00,0x00,0xfc,0xff,0xff,0xff,0xff,0x1f,0x00,0x00,0x80,0x3f,0xff,0xff,0xfc,0x01,0x00,0x00,0xf8,0xff,0xff,0xff,0xff,0x3f,0x00,0x00,0x80,0x3f,0xff,0xff,0xfc,0x01,0x00,0x00,0xfc,0xff,0xff,0xff,0xff,0x1f,0x00,0x00,0x80,0x3f,0xff,0xff,0xfc,0x01,0x00,0x00,0xf8,0xff,0xff,0xff,0xff,0x3f,0x00,0x00,0x80,0x3f,0xff,0xff,0xfc,0x3f,0xff,0x00,0xfc,0xff,0xff,0xff,0xff,0x1f,0x00,0xff,0xfc,0x3f,0xff,0xff,0xfc,0x3f,0xff,0x00,0xf8,0xff,0xff,0xff,0xff,0x3f,0x00,0xff,0xfc,0x3f,0xff,0xff,0xfc,0x3f,0xff,0x00,0xfc,0x00,0xfc,0x1f,0x80,0x1f,0x00,0xff,0xfc,0x3f,0xff,0xff,0xfc,0x3f,0xff,0x00,0xf8,0x01,0xf8,0x3f,0x00,0x3f,0x00,0xff,0xfc,0x3f,0xff,0xff,0xfc,0x3f,0xff,0x00,0xfc,0xfe,0xfd,0xdf,0xbf,0x1f,0x00,0xff,0xfc,0x3f,0xff,0xff,0xfc,0x3f,0xff,0x00,0xf8,0xfd,0xfb,0xbf,0x7f,0x3f,0x00,0xff,0xfc,0x3f,0xff,0xff,0xfc,0x3f,0xff,0x00,0xfc,0xfe,0xfd,0xdf,0xbf,0x1f,0x00,0xff,0xfc,0x3f,0xff,0xff,0xfc,0x3f,0xff,0x00,0xf8,0xfd,0xfb,0xbf,0x7f,0x3f,0x00,0xff,0xfc,0x3f,0xff,0x1f,0xfc,0x3f,0xf8,0x00,0xfc,0xfe,0xfd,0xdf,0xbf,0x1f,0x00,0x1f,0xfc,0x3f,0xf8,0x1f,0xfc,0x3f,0xf8,0x00,0xf8,0xfd,0xfb,0xbf,0x7f,0x3f,0x00,0x1f,0xfc,0x3f,0xf8,0xef,0xfd,0x3f,0xf7,0x00,0xfc,0xfe,0xfd,0xdf,0xbf,0x1f,0x00,0xef,0xfc,0xbf,0xff,0xef,0xfd,0x3f,0xf7,0x00,0xf8,0xfd,0xfb,0xbf,0x7f,0x3f,0x00,0xef,0xfc,0xbf,0xf7,0xef,0x00,0x00,0xf7,0x00,0xfc,0x1e,0x00,0x00,0xbc,0x1f,0x00,0xef,0x00,0x00,0xf7,0xef,0x01,0x00,0xf7,0x00,0xf8,0x3d,0x00,0x00,0x78,0x3f,0x00,0xef,0x00,0x80,0xf7,0xef,0x01,0xe0,0xf7,0x00,0xfc,0x1e,0x00,0x00,0xbc,0x1f,0x00,0xef,0x07,0x80,0xf7,0xef,0x01,0xe0,0xf7,0x00,0xf8,0x3d,0x00,0x00,0x78,0x3f,0x00,0xef,0x03,0x80,0xf7,0xef,0xf7,0xef,0xf7,0x00,0xfc,0x1e,0x00,0x00,0xbc,0x1f,0x00,0xef,0xf7,0xef,0xf7,0xef,0xf7,0xef,0xf7,0x00,0xf8,0x3d,0x00,0x00,0x78,0x3f,0x00,0xef,0xf7,0xef,0xf7,0xef,0xf7,0xef,0xf7,0x00,0xfc,0x1e,0xff,0x7f,0xbc,0x1f,0x00,0xef,0xf7,0xef,0xf7,0xef,0xf7,0xef,0xf7,0x00,0xf8,0x3d,0xfe,0xff,0x78,0x3f,0x00,0xef,0xf7,0xef,0xf7,0xef,0xf7,0xef,0xf7,0x00,0xfc,0x00,0xff,0x7f,0x80,0x1f,0x00,0xef,0xf7,0xef,0xf7,0xef,0xf7,0xef,0xf7,0x00,0xf8,0x01,0xfe,0xff,0x00,0x3f,0x00,0xef,0xf7,0xef,0xf7,0x1f,0xf8,0x1f,0xf8,0x00,0xfc,0x1f,0xff,0x7f,0xfc,0x1f,0x00,0x1f,0xf0,0x1f,0xf0,0x1f,0xf8,0x3f,0xf8,0x00,0xf8,0x3f,0xfe,0xff,0xf8,0x3f,0x00,0x1f,0xf8,0x1f,0xf8,0xff,0xff,0xff,0xff,0x00,0xfc,0x1f,0xff,0x7f,0xfc,0x1f,0x00,0xff,0xff,0xff,0xff,0xff,0xff,0xff,0xff,0x00,0xf8,0x3f,0xfe,0xff,0xf8,0x3f,0x00,0xff,0xff,0xff,0xff,0xff,0xff,0xff,0xff,0x00,0xfc,0x1f,0xff,0x7f,0xfc,0x1f,0x00,0xff,0xff,0xff,0xff,0xff,0xff,0xff,0xff,0x00,0xf8,0x3f,0xfe,0xff,0xf8,0x3f,0x00,0xff,0xff,0xff,0xff,0xff,0xff,0xff,0xff,0x00,0xfc,0x1f,0xff,0x7f,0xfc,0x1f,0x00,0xff,0xff,0xff,0xff,0xff,0xff,0xff,0xff,0x00,0xf8,0x3f,0xfe,0xf7,0xf8,0x3f,0x00,0xff,0xff,0xff,0xff,0xff,0xff,0xff,0xff,0x00,0xfc,0x1f,0xef,0x7f,0xfc,0x1f,0x00,0xff,0xff,0xff,0xff,0xff,0xff,0xff,0xff,0x00,0xf8,0x3f,0xfe,0xf7,0xf8,0x3f,0x00,0xff,0xff,0xff,0xff,0xff,0xff,0xff,0xff,0x00,0xfc,0x1f,0xff,0x7f,0xfc,0x1f,0x00,0x00,0x00,0x00,0x00,0x00,0x00,0x00,0x00,0x00,0xf8,0x3f,0xfe,0xff,0xf8,0x3f,0x00,0xff,0xff,0xff,0xff,0xff,0xff,0xff,0xff,0x00,0xfc,0x1f,0xff,0x00,0x00,0x00,0x00,0x00,0x00,0x00,0x00,0x00,0x00,0x00,0x00,0x00,0x00,0x00,0x00,0xff,0xf8,0x3f,0x00,0xff,0xff,0xff,0xff,0xff,0xff,0xff,0xff,0x00,0xfc,0x1f,0xef,0x00,0x00,0x00,0x00,0x00,0x00,0x00,0x00,0x00,0x00,0x00,0x00,0x00,0x00,0x00,0x00,0xff,0xf8,0x3f,0x00,0xff,0xff,0xff,0xff,0xff,0xff,0xff,0xff,0x00,0xfc,0x1f,0x6f,0x00,0x00,0x00,0x00,0x00,0x00,0x00,0x00,0x00,0x00,0x00,0x00,0x00,0x00,0x00,0x00,0xf6,0xf8,0x3f,0x00,0xff,0xff,0xff,0xff,0x1f,0xf8,0x3f,0xf8,0x00,0xfc,0x1f,0xff,0x00,0x00,0x00,0x00,0x00,0x00,0x00,0x00,0x00,0x00,0x00,0x00,0x00,0x00,0x00,0x00,0xff,0xf8,0x3f,0x00,0x3f,0xf8,0x1f,0xf8,0xef,0xf7,0xef,0xf7,0x00,0xfc,0x1f,0xff,0x00,0x00,0x00,0x00,0x00,0x00,0x00,0x00,0x00,0x00,0x00,0x00,0x00,0x00,0x00,0x00,0xff,0xf8,0x3f,0x00,0xef,0xf7,0xef,0xf7,0xef,0xf7,0xef,0xf7,0x00,0xfc,0x00,0xff,0x00,0x00,0x00,0x00,0x00,0x00,0x00,0x00,0x00,0x00,0x00,0x00,0x00,0x00,0x00,0x00,0xff,0x00,0x3f,0x00,0xef,0xf7,0xef,0xf7,0xef,0xf7,0xef,0xf7,0x00,0xfc,0x1e,0xff,0x00,0x00,0x00,0x00,0x00,0x00,0x00,0x00,0x00,0x00,0x00,0x00,0x00,0x00,0x00,0x00,0xff,0x78,0x3f,0x00,0xef,0xf7,0xef,0xf7,0xef,0x01,0xe0,0xf7,0x00,0xfc,0x1e,0x00,0x00,0x00,0x00,0x00,0x00,0x00,0x00,0x00,0x00,0x00,0x00,0x00,0x00,0x00,0x00,0x00,0x00,0x78,0x3f,0x00,0xef,0x07,0x80,0xf7,0xef,0x00,0x00,0xf7,0x00,0xfc,0x1e,0x00,0x00,0x00,0x00,0x00,0x00,0x00,0x00,0x00,0x00,0x00,0x00,0x00,0x00,0x00,0x00,0x00,0x00,0x78,0x3f,0x00,0xef,0x00,0x80,0xf7,0xff,0xfd,0x3f,0xff,0x00,0xfc,0x1e,0x00,0x00,0x00,0x00,0x00,0x00,0x00,0x00,0x00,0x00,0x00,0x00,0x00,0x00,0x00,0x00,0x00,0x00,0x78,0x3f,0x00,0xff,0xfc,0xbf,0xf7,0x1f,0xfc,0x3f,0xf8,0x00,0xfc,0xfe,0xfd,0x00,0x00,0x00,0x00,0x00,0x00,0x00,0x00,0x00,0x00,0x00,0x00,0x00,0x00,0x00,0x00,0xbf,0x7f,0x3f,0x00,0x1f,0xfc,0x3f,0xf8,0xff,0xfc,0x3f,0xff,0x00,0xfc,0xfe,0xfd,0x00,0x00,0x00,0x00,0x00,0x00,0x00,0x00,0x00,0x00,0x00,0x00,0x00,0x00,0x00,0x00,0xbf,0x7f,0x3f,0x00,0xff,0xfc,0x3f,0xff,0xff,0xfc,0x3f,0xff,0x00,0xfc,0xfe,0xfd,0x00,0x00,0x00,0x00,0x00,0x00,0x00,0x00,0x00,0x00,0x00,0x00,0x00,0x00,0x00,0x00,0xbf,0x7f,0x3f,0x00,0xff,0xfc,0x3f,0xff,0xff,0xfc,0x3f,0xff,0x00,0xfc,0xfe,0xfd,0x00,0x00,0x00,0x00,0x00,0x00,0x00,0x00,0x00,0x00,0x00,0x00,0x00,0x00,0x00,0x00,0xbf,0x7f,0x3f,0x00,0xff,0xfc,0x3f,0xff,0xff,0xfc,0x3f,0xff,0x00,0xfc,0x00,0xfc,0x00,0x00,0x00,0x00,0x00,0x00,0x00,0x00,0x00,0x00,0x00,0x00,0x00,0x00,0x00,0x00,0x3f,0x00,0x3f,0x00,0xff,0xfc,0x3f,0xff,0xff,0xfc,0x01,0x00,0x00,0xfc,0xff,0xff,0x00,0x00,0x00,0x00,0x00,0x00,0x00,0x00,0x00,0x00,0x00,0x00,0x00,0x00,0x00,0x00,0xff,0xff,0x3f,0x00,0x00,0x80,0x3f,0xff,0xff,0xfc,0x01,0x00,0x00,0xfc,0xff,0xff,0x00,0x00,0x00,0x00,0x00,0x00,0x00,0x00,0x00,0x00,0x00,0x00,0x00,0x00,0x00,0x00,0xff,0xff,0x3f,0x00,0x00,0x80,0x3f,0xff,0xff,0xfc,0x01,0x00,0x00,0xfc,0xff,0xff,0x00,0x00,0x00,0x00,0x00,0x00,0x00,0x00,0x00,0x00,0x00,0x00,0x00,0x00,0x00,0x00,0xff,0xff,0x3f,0x00,0x00,0x00,0x3f,0xff,0xff,0xfc,0x01,0x00,0x00,0xfc,0xff,0xff,0x00,0x00,0x00,0x00,0x00,0x00,0x00,0x00,0x00,0x00,0x00,0x00,0x00,0x00,0x00,0x00,0xff,0xff,0x3f,0x00,0x00,0x80,0x3f,0xff,0x1f,0xfc,0x01,0x00,0x00,0xfc,0xff,0xff,0x00,0x00,0x00,0x00,0x00,0x00,0x00,0x00,0x00,0x00,0x00,0x00,0x00,0x00,0x00,0x00,0xff,0xff,0x3f,0x00,0x00,0x80,0x3f,0xf8,0xef,0xfd,0xe1,0xff,0x01,0xfc,0xff,0xff,0x00,0x00,0x00,0x00,0x00,0x00,0x00,0x00,0x00,0x00,0x00,0x00,0x00,0x00,0x00,0x00,0xff,0xff,0x3f,0x80,0xff,0x87,0x9f,0xff,0xef,0x01,0xe0,0xff,0x01,0x00,0x00,0x00,0x00,0x00,0xf0,0xff,0xff,0xff,0xff,0xff,0xff,0xff,0xff,0xff,0xff,0x03,0x00,0x00,0x00,0x00,0x00,0x80,0xff,0x07,0x80,0xf7,0xef,0x01,0xe0,0xff,0x01,0x00,0x00,0x00,0x00,0x00,0xf0,0xff,0xff,0xff,0xff,0xff,0xff,0xff,0xff,0xff,0xff,0x03,0x00,0x00,0x00,0x00,0x00,0x80,0xff,0x07,0x80,0xf7,0xef,0xf7,0xe0,0xff,0x01,0x00,0x00,0x00,0x00,0x00,0xf0,0xff,0xff,0xff,0xff,0xff,0xff,0xff,0xff,0xff,0xff,0x03,0x00,0x00,0x00,0x00,0x00,0x80,0xff,0x07,0xef,0xf7,0xef,0xf7,0xe0,0xff,0x01,0x00,0x00,0x00,0x00,0x00,0xf0,0xff,0xff,0xff,0xff,0xff,0xff,0xff,0xff,0xff,0xff,0x03,0x00,0x00,0x00,0x00,0x00,0x80,0xff,0x07,0xef,0xf7,0xef,0xf7,0xe0,0xff,0x01,0x00,0x00,0x00,0x00,0x00,0xf0,0xff,0xff,0xff,0xff,0xff,0xff,0xff,0xff,0xff,0xff,0x03,0x00,0x00,0x00,0x00,0x00,0x80,0xff,0x07,0xef,0xf7,0x1f,0xf8,0xe0,0x07,0x00,0x00,0x00,0x00,0x00,0x00,0xf0,0xff,0xff,0xff,0xff,0xff,0xff,0xff,0xff,0xff,0xff,0x03,0x00,0x00,0x00,0x00,0x00,0x00,0xe0,0x07,0x1f,0xf0,0xff,0xff,0xe0,0xf7,0x01,0x00,0x00,0x00,0x00,0x00,0xf0,0x03,0xf0,0xff,0x00,0xfe,0x1f,0x80,0xff,0x03,0xf0,0x03,0x00,0x00,0x00,0x00,0x00,0x80,0xef,0x07,0xff,0xff,0xff,0xff,0xe0,0xf7,0x01,0x00,0x00,0x00,0x00,0x00,0xf0,0xfb,0xf7,0xff,0xff,0xff,0xdf,0xbf,0xff,0xfb,0xf7,0x03,0x00,0x00,0x00,0x00,0x00,0x80,0xef,0x07,0xff,0xff,0xff,0xff,0xe0,0xf7,0x01,0x00,0x00,0x00,0x00,0x00,0xf0,0xfb,0xf7,0xff,0xff,0xff,0xdf,0xbf,0xff,0xfb,0xf7,0x03,0x00,0x00,0x00,0x00,0x00,0x80,0xef,0x07,0xff,0xff,0xff,0xff,0xe0,0xf7,0x01,0x00,0x00,0x00,0x00,0x00,0xf0,0xfb,0xf7,0xff,0xff,0xff,0xdf,0xbf,0xff,0xfb,0xf7,0x03,0x00,0x00,0x00,0x00,0x00,0x80,0xef,0x07,0xff,0xff,0xff,0xff,0xe0,0xf7,0xef,0x07,0xff,0xff,0x00,0x00,0xf0,0xfb,0xf7,0xff,0xff,0xff,0xdf,0xbf,0xff,0xfb,0xf7,0x03,0x00,0x00,0xff,0xff,0xe0,0xf7,0xef,0x07,0xff,0xff,0xff,0xff,0xe0,0xf7,0xef,0x07,0xff,0xff,0x00,0x00,0xf0,0xfb,0x01,0x00,0xfa,0xff,0xdf,0x07,0x00,0xc8,0xf7,0x03,0x00,0x00,0xff,0xff,0xe0,0xf7,0xef,0x07,0xff,0xff,0xff,0xff,0xe0,0xf7,0xef,0x07,0xff,0xff,0x00,0x00,0xf0,0xfb,0x00,0x00,0xf0,0xff,0xdf,0x03,0x00,0x80,0xf7,0x03,0x00,0x00,0xff,0xff,0xe0,0xf7,0xef,0x07,0xff,0xff,0xff,0xff,0xe0,0xf7,0xef,0x07,0xff,0xff,0x00,0x00,0xf0,0xfb,0x00,0x00,0xf0,0xff,0xdf,0x03,0x00,0x80,0xf7,0x03,0x00,0x00,0xff,0xff,0xe0,0xf7,0xef,0x07,0xff,0xff,0x1f,0xf8,0xe0,0x07,0xe0,0x07,0x1f,0xf8,0x00,0x00,0xf0,0xfb,0xfc,0xff,0xf1,0xff,0xdf,0xe3,0xff,0x8f,0xf7,0x03,0x00,0x00,0x1f,0xf8,0xe0,0x07,0xe0,0x07,0x0f,0xf8,0xef,0xf7,0xe0,0xff,0xff,0x07,0xef,0xff,0x00,0x00,0xf0,0x03,0xfc,0xff,0x01,0xfe,0x1f,0xe0,0xff,0x0f,0xf0,0x03,0x00,0x00,0xef,0xf7,0xe0,0xff,0xff,0x07,0xef,0xff,0xef,0xf7,0xe0,0xff,0xff,0x07,0xef,0xf7,0x00,0x00,0xf0,0xff,0xfc,0xff,0xf1,0xff,0xff,0xe3,0xff,0x8f,0xff,0x03,0x00,0x00,0xef,0xf7,0xe0,0xff,0xff,0x07,0xef,0xf7,0xef,0xf7,0xe0,0xff,0xff,0x07,0xef,0xf7,0x00,0x00,0xf0,0xff,0xfc,0xff,0xf1,0xff,0xff,0xe3,0xff,0x8f,0xff,0x03,0x00,0x00,0xef,0xf7,0xe0,0xff,0xff,0x07,0xef,0xf7,0xef,0x01,0xe0,0xff,0xff,0x07,0x80,0xf7,0x00,0x00,0xf0,0xff,0xfc,0xff,0xf1,0xff,0xff,0xe3,0xff,0x8f,0xff,0x03,0x00,0x00,0xef,0x01,0xe0,0xff,0xff,0x07,0x80,0xf7,0xef,0x01,0xe0,0xff,0xff,0x07,0x80,0xf7,0x00,0x00,0xf0,0xff,0xfc,0xef,0xf1,0xff,0xff,0xe3,0x7d,0x8f,0xff,0x03,0x00,0x00,0xef,0x01,0xe0,0xff,0xff,0x07,0x00,0xf7,0xef,0xf8,0xe1,0xff,0xff,0x07,0x3f,0xf7,0x00,0x00,0xf0,0xff,0xfc,0xef,0xf1,0xff,0xff,0xe3,0x7f,0x8f,0xff,0x03,0x00,0x00,0xef,0xfc,0xe0,0xff,0xff,0x87,0xbf,0xff,0x0f,0xfc,0x01,0x00,0x00,0x00,0x3f,0xf8,0x00,0x00,0xf0,0xff,0xfc,0xef,0xf1,0xff,0xff,0xe3,0x7f,0x8f,0xff,0x03,0x00,0x00,0x1f,0xfc,0x00,0x00,0x00,0x80,0x3f,0xf8,0xff,0xfc,0x01,0x00,0x00,0x00,0x3f,0xff,0x00,0x00,0xf0,0xff,0xfc,0x03,0x00,0x00,0x00,0x00,0x70,0x8f,0xff,0x03,0x00,0x00,0xff,0xfc,0x00,0x00,0x00,0x80,0x3f,0xff,0xff,0xfc,0x01,0x00,0x00,0x00,0x3f,0xff,0x00,0x00,0xf0,0xff,0xfc,0x03,0x00,0x00,0x00,0x00,0x70,0x8f,0xff,0x03,0x00,0x00,0xff,0xfc,0x00,0x00,0x00,0x00,0x3f,0xff,0xff,0xfc,0x01,0x00,0x00,0x00,0x3f,0xff,0x00,0x00,0xf0,0xff,0xfc,0x03,0x00,0x00,0x00,0x00,0x70,0x8f,0xff,0x03,0x00,0x00,0xff,0xfc,0x00,0x00,0x00,0x80,0x3f,0xff,0xff,0xfc,0x01,0x00,0x00,0xfc,0x3f,0xff,0x00,0x00,0xf0,0xff,0xfc,0x03,0x00,0x00,0x00,0x00,0xf0,0x8f,0xff,0x03,0x00,0x00,0xff,0xfc,0x3f,0x00,0x00,0x80,0x3f,0xff,0xff,0xfc,0x3f,0xff,0xff,0xfc,0x3f,0xff,0x00,0x00,0xf0,0xff,0xfc,0x03,0x00,0x00,0x00,0x00,0xf0,0x8f,0xff,0x03,0x00,0x00,0xff,0xfc,0x3f,0xff,0xff,0xfc,0x3f,0xff,0xff,0xfc,0x3f,0xff,0xff,0xfc,0x3f,0xff,0x00,0x00,0xf0,0x03,0xfc,0x03,0x00,0x00,0x00,0x00,0xf0,0x0f,0xf0,0x03,0x00,0x00,0xff,0xfc,0x3f,0xff,0xff,0xfc,0x3f,0xff,0xff,0xfc,0x3f,0xff,0xff,0xfc,0x3f,0xff,0x00,0x00,0xf0,0xfb,0xfc,0x03,0x00,0x00,0x00,0x00,0xf0,0x8f,0xf7,0x03,0x00,0x00,0xff,0xfc,0x3f,0xff,0xff,0xfc,0x3f,0xff,0xff,0xfc,0x3f,0xff,0xff,0xfc,0x3f,0xff,0x00,0x00,0xf0,0xfb,0x00,0x00,0xff,0xff,0xff,0x1f,0x00,0xc0,0xf7,0x03,0x00,0x00,0xff,0xfc,0x3f,0xff,0xff,0xfc,0x3f,0xff,0x1f,0xfc,0x3f,0xf8,0x1f,0xfc,0x3f,0xf8,0x00,0x00,0xf0,0xfb,0x00,0x00,0xff,0xff,0xff,0x1f,0x00,0x80,0xf7,0x03,0x00,0x00,0x1f,0xfc,0x3f,0xf8,0x1f,0xfc,0x3f,0xf8,0xef,0xfd,0x3f,0xf7,0xff,0xfc,0x3f,0xf7,0x00,0x00,0xf0,0xfb,0x00,0x00,0xff,0xff,0xff,0x1f,0x00,0xc0,0xf7,0x03,0x00,0x00,0xef,0xfc,0x1f,0xff,0xff,0xfc,0x3f,0xf7,0xef,0x01,0x00,0xf7,0xef,0x00,0x00,0xf7,0x00,0x00,0xf0,0xfb,0xf7,0x03,0xff,0xff,0xff,0x1f,0xf0,0xfb,0xf7,0x03,0x00,0x00,0xef,0x00,0x00,0xf7,0xef,0x00,0x00,0xf7,0xef,0x01,0xc0,0xf7,0xef,0x07,0xc0,0xf7,0x00,0x00,0xf0,0xfb,0xf7,0x03,0xff,0xfb,0xff,0x1f,0xf0,0xfb,0xf7,0x03,0x00,0x00,0xef,0x07,0xe0,0xf7,0xef,0x01,0x80,0xf7,0xef,0xf7,0xef,0xf7,0xef,0xf7,0xef,0xf7,0x00,0x00,0xf0,0xfb,0xf7,0x03,0xff,0xff,0xff,0x1f,0xf0,0xfb,0xf7,0x03,0x00,0x00,0xef,0xf7,0xef,0xf7,0xef,0xf7,0xef,0xf7,0xef,0xf7,0xef,0xf7,0xef,0xf7,0xef,0xf7,0x00,0x00,0xf0,0xfb,0xf7,0x03,0xff,0xff,0xff,0x1f,0xf0,0xfb,0xf7,0x03,0x00,0x00,0xef,0xf7,0xef,0xf7,0xef,0xf7,0xef,0xf7,0xef,0xf7,0xef,0xf7,0xef,0xf7,0xef,0xf7,0x00,0x00,0xf0,0x03,0xf0,0x03,0xff,0xfb,0xff,0x1f,0xf0,0x03,0xf0,0x03,0x00,0x00,0xef,0xf7,0xef,0xf7,0xef,0xf7,0xef,0xff,0x1f,0xf8,0x0f,0xf8,0x1f,0xf0,0x3f,0xf0,0x00,0x00,0xf0,0xff,0xff,0x03,0xff,0x00,0xe0,0x1f,0xf0,0xff,0xff,0x03,0x00,0x00,0x1f,0xf8,0x3f,0xfc,0x1f,0xfc,0x1f,0xf8,0xff,0xff,0xff,0xff,0xff,0xff,0xff,0xff,0x00,0x00,0xf0,0xff,0xff,0x03,0xff,0xfe,0xef,0x1f,0xf0,0xff,0xff,0x03,0x00,0x00,0xff,0xff,0xff,0xff,0xff,0xff,0xff,0xff,0xff,0xff,0xff,0xff,0xff,0xff,0xff,0xff,0x00,0x00,0xf0,0xff,0xff,0x03,0xff,0xfe,0xef,0x1f,0xf0,0xff,0xff,0x03,0x00,0x00,0xff,0xff,0xff,0xff,0xff,0xff,0xff,0xff,0xff,0xff,0xff,0xff,0xff,0xff,0xff,0xff,0x00,0x00,0xf0,0xff,0xff,0x03,0xff,0xfe,0xef,0x1f,0xf0,0xff,0xff,0x03,0x00,0x00,0xff,0xff,0xff,0xff,0xff,0xff,0xff,0xff,0xff,0xff,0xff,0xff,0xff,0xff,0xff,0xff,0x00,0x00,0xf0,0xff,0xff,0x03,0xff,0xfe,0xef,0x1f,0xf0,0xff,0xff,0x03,0x00,0x00,0xff,0xff,0xff,0xff,0xff,0xff,0xff,0xff,0xff,0xff,0xff,0xff,0xff,0xff,0xff,0xff,0x00,0x00,0xf0,0xff,0xff,0x03,0xff,0xfe,0xef,0x1f,0xf0,0xff,0xff,0x03,0x00,0x00,0x00,0x00,0x00,0x00,0x00,0x00,0x00,0x00,0xff,0xff,0xff,0xff,0xff,0xff,0xff,0xff,0x00,0x00,0xf0,0xff,0xff,0x03,0xff,0xfe,0xef,0x1f,0x00,0x00,0x00,0x00,0x00,0x00,0x00,0x00,0x00,0x00,0x00,0x00,0x00,0x00,0xff,0xff,0xff,0xff,0xff,0xff,0xff,0xff,0x00,0x00,0xf0,0xff,0xff,0x03,0xff,0x7e,0x00,0x00,0x00,0x00,0x00,0x00,0x00,0x00,0x00,0x00,0x00,0x00,0x00,0x00,0x00,0x00,0xff,0xff,0xff,0xff,0xff,0xff,0xff,0xff,0x00,0x00,0xf0,0xff,0xff,0x03,0xff,0x7e,0x00,0x00,0x00,0x00,0x00,0x00,0x00,0x00,0x00,0x00,0x00,0x00,0x00,0x00,0x00,0x00,0x1f,0xf8,0x0f,0xf8,0x2f,0xfc,0x1f,0xf8,0x00,0x00,0xf0,0xff,0xff,0x03,0xff,0x7e,0x00,0x00,0x00,0x00,0x00,0x00,0x00,0x00,0x00,0x00,0x00,0x00,0x00,0x00,0x00,0x00,0xef,0xf7,0xef,0xf7,0xef,0xf7,0xef,0xf7,0x00,0x00,0xf0,0xff,0xff,0x03,0xff,0x7e,0x00,0x00,0x00,0x00,0x00,0x00,0x00,0x00,0x00,0x00,0x00,0x00,0x00,0x00,0x00,0x00,0xef,0xf7,0xef,0xf7,0xef,0xf7,0xef,0xf7,0x00,0x00,0xf0,0xff,0xff,0x03,0xff,0x7c,0x00,0x00,0x00,0x00,0x00,0x00,0x00,0x00,0x00,0x00,0x00,0x00,0x00,0x00,0x00,0x00,0xef,0xf7,0xef,0xf7,0xef,0xf7,0xef,0xf7,0x00,0x00,0xf0,0xfb,0xf7,0x03,0xff,0x00,0x00,0x00,0x00,0x00,0x00,0x00,0x00,0x00,0x00,0x00,0x00,0x00,0x00,0x00,0x00,0x00,0xef,0x01,0xc0,0xf7,0xef,0x07,0xa0,0xf7,0x00,0x00,0xf0,0xfb,0xf7,0x03,0xff,0x7f,0x00,0x00,0x00,0x00,0x00,0x00,0x00,0x00,0x00,0x00,0x00,0x00,0x00,0x00,0x00,0x00,0xef,0x01,0x00,0xf7,0xef,0x00,0x00,0xf7,0x00,0x00,0xf0,0xfb,0xf7,0x03,0xff,0x7f,0x00,0x00,0x00,0x00,0x00,0x00,0x00,0x00,0x00,0x00,0x00,0x00,0x00,0x00,0x00,0x00,0xef,0xfd,0x3f,0xf7,0xeb,0xfc,0x3f,0xf7,0x00,0x00,0xf0,0xfb,0xf7,0x03,0xff,0x7f,0x00,0x00,0x00,0x00,0x00,0x00,0x00,0x00,0x00,0x00,0x00,0x00,0x00,0x00,0x00,0x00,0x1f,0xfc,0x3f,0xf8,0x0f,0xfc,0x3f,0xf0,0x00,0x00,0xf0,0xfb,0xf7,0x03,0xff,0x7f,0x00,0x00,0x00,0x00,0x00,0x00,0x00,0x00,0x00,0x00,0x00,0x00,0x00,0x00,0x00,0x00,0xff,0xfc,0x3f,0xff,0xff,0xfc,0x3f,0xff,0x00,0x00,0xf0,0xfb,0x00,0x00,0xff,0x7f,0x00,0x00,0x00,0x00,0x00,0x00,0x00,0x00,0x00,0x00,0x00,0x00,0x00,0x00,0x00,0x00,0xff,0xfc,0x3f,0xff,0xff,0xfc,0x3f,0xff,0x00,0x00,0xf0,0xfb,0x00,0x00,0xff,0x7f,0x00,0x00,0x00,0x00,0x00,0x00,0x00,0x00,0x00,0x00,0x00,0x00,0x00,0x00,0x00,0x00,0xff,0xfc,0x3f,0xff,0xff,0xfc,0x3f,0xff,0x00,0x00,0xf0,0xfb,0x00,0x00,0xff,0x7f,0x00,0x00,0x00,0x00,0x00,0x00,0x00,0x00,0x00,0x00,0x00,0x00,0x00,0x00,0x00,0x00,0xff,0xfc,0x3f,0xff,0xff,0xfc,0x3f,0xff,0x00,0x00,0xf0,0x3b,0xfc,0x03,0xff,0x7f,0x00,0x00,0x00,0x00,0x00,0x00,0x00,0x00,0x00,0x00,0x00,0x00,0x00,0x00,0x00,0x00,0xff,0xfc,0x01,0x00,0x00,0xfc,0x3f,0xff,0x00,0x00,0xf0,0xff,0xfc,0x03,0x00,0x00,0x00,0x00,0x00,0x00,0x00,0x00,0x00,0x00,0x00,0x00,0x00,0x00,0x00,0x00,0x00,0x00,0xff,0xfc,0x01,0x00,0x00,0x00,0x3f,0xff,0x00,0x00,0xf0,0xff,0xfc,0x03,0x00,0x00,0x00,0x00,0x00,0x00,0x00,0x00,0x00,0x00,0x00,0x00,0x00,0x00,0x00,0x00,0x00,0x00,0xff,0xfc,0x01,0x00,0x00,0x00,0x3f,0xff,0x00,0x00,0xf0,0xff,0xfc,0x03,0x00,0x00,0x00,0x00,0x00,0x00,0x00,0x00,0x00,0x00,0x00,0x00,0x00,0x00,0x00,0x00,0x00,0x00,0xff,0xfc,0x01,0x00,0x00,0x00,0x3f,0xff,0x00,0x00,0xf0,0xff,0x7c,0x00,0x00,0x00,0x00,0x00,0x00,0x00,0x00,0x00,0x00,0x00,0x00,0x00,0x00,0x00,0x00,0x00,0x00,0x00,0x1f,0xfc,0x01,0x00,0x00,0x00,0x3f,0xf8,0x00,0x00,0xf0,0xff,0xfc,0x03,0x00,0x00,0x00,0x00,0x00,0x00,0x00,0x00,0x00,0x00,0x00,0x00,0x00,0x00,0x00,0x00,0x00,0x00,0xff,0xfd,0xe1,0xff,0xff,0x07,0xbf,0xff,0x00,0x00,0xf0,0xff,0xfc,0x03,0x00,0x00,0x00,0x00,0x00,0x00,0x00,0x00,0x00,0x00,0x00,0x00,0x00,0x00,0x00,0x00,0x00,0x00,0xef,0x01,0xe0,0xff,0xff,0x07,0x00,0xf7,0x00,0x00,0xf0,0xff,0xfc,0xff,0xf3,0xff,0x00,0x00,0x00,0x00,0x00,0x00,0x00,0x00,0x00,0x00,0x00,0x00,0x00,0x00,0x00,0x00,0xef,0x01,0xe0,0xff,0xff,0x07,0x80,0xf7,0x00,0x00,0xf0,0xff,0xfc,0xff,0xf1,0xff,0x00,0x00,0x00,0x00,0x00,0x00,0x00,0x00,0x00,0x00,0x00,0x00,0x00,0x00,0x00,0x00,0xef,0xf7,0xe0,0xff,0xff,0x07,0xef,0xf7,0x00,0x00,0xf0,0xff,0xfc,0xff,0xf3,0xff,0x00,0x00,0x00,0x00,0x00,0x00,0x00,0x00,0x00,0x00,0x00,0x00,0x00,0x00,0x00,0x00,0xef,0xf7,0xe0,0xff,0xff,0x07,0xef,0xf7,0x00,0x00,0xf0,0xff,0xfc,0xff,0xf3,0xff,0x00,0x00,0x00,0x00,0x00,0x00,0x00,0x00,0x00,0x00,0x00,0x00,0x00,0x00,0x00,0x00,0xef,0xf7,0xe0,0xff,0xff,0x07,0xef,0xff,0x00,0x00,0xf0,0xff,0xfc,0xff,0xf3,0xff,0x00,0x00,0x00,0x00,0x00,0x00,0x00,0x00,0x00,0x00,0x00,0x00,0x00,0x00,0x00,0x00,0x1f,0xf8,0xe0,0x07,0xe0,0x07,0x1f,0xf8,0x00,0x00,0xf0,0xff,0xfc,0xff,0xf3,0xff,0x00,0x00,0x00,0x00,0x00,0x00,0x00,0x00,0x00,0x00,0x00,0x00,0x00,0x00,0x00,0x00,0xff,0xff,0xe0,0xf7,0xef,0x07,0xff,0xff,0x00,0x00,0xf0,0x03,0xfc,0xff,0x03,0xfe,0x00,0x00,0x00,0x00,0x00,0x00,0x00,0x00,0x00,0x00,0x00,0x00,0x00,0x00,0x00,0x00,0xff,0xff,0xe0,0xf7,0xef,0x07,0xff,0xff,0x00,0x00,0xf0,0xfb,0xfc,0xff,0xf3,0xff,0x00,0x00,0x00,0x00,0x00,0x00,0x00,0x00,0x00,0x00,0x00,0x00,0x00,0x00,0x00,0x00,0xff,0xff,0xe0,0xf7,0xef,0x07,0xff,0xff,0x00,0x00,0xf0,0xfb,0x00,0x00,0xf0,0xff,0x00,0x00,0x00,0x00,0x00,0x00,0x00,0x00,0x00,0x00,0x00,0x00,0x00,0x00,0x00,0x00,0xff,0xff,0xe0,0xf7,0xef,0x07,0xff,0xff,0x00,0x00,0xf0,0xfb,0x00,0x00,0xf0,0xff,0x00,0x00,0x00,0x00,0x00,0x00,0x00,0x00,0x00,0x00,0x00,0x00,0x00,0x00,0x00,0x00,0xff,0xff,0xe0,0xf7,0x01,0x00,0x00,0x00,0x00,0x00,0xf0,0xfb,0xf7,0x7f,0xfe,0xff,0x00,0x00,0x00,0x00,0x00,0x00,0x00,0x00,0x00,0x00,0x00,0x00,0x00,0x00,0x00,0x00,0xff,0xff,0xe0,0xf7,0x01,0x00,0x00,0x00,0x00,0x00,0xf0,0xfb,0xf7,0xff,0xff,0xff,0x00,0x00,0x00,0x00,0x00,0x00,0x00,0x00,0x00,0x00,0x00,0x00,0x00,0x00,0x00,0x00,0xff,0xff,0xe0,0xf7,0x01,0x00,0x00,0x00,0x00,0x00,0xf0,0xfb,0xf7,0xff,0xff,0xff,0x00,0x00,0x00,0x00,0x00,0x00,0x00,0x00,0x00,0x00,0x00,0x00,0x00,0x00,0x00,0x00,0xff,0xff,0xe0,0xf7,0x01,0x00,0x00,0x00,0x00,0x00,0xf0,0xfb,0xf7,0xff,0xff,0xff,0x00,0x00,0x00,0x00,0x00,0x00,0x00,0x00,0x00,0x00,0x00,0x00,0x00,0x00,0x00,0x00,0x1f,0xf8,0xe0,0x07,0x00,0x00,0x00,0x00,0x00,0x00,0xf0,0xfb,0xf7,0xff,0xfe,0xfe,0x00,0x00,0x00,0x00,0x00,0x00,0x00,0x00,0x00,0x00,0x00,0x00,0x00,0x00,0x00,0x00,0xef,0xf7,0xe0,0xff,0x01,0x00,0x00,0x00,0x00,0x00,0xf0,0x03,0xf0,0xff,0x00,0xfe,0x00,0x00,0x00,0x00,0x00,0x00,0x00,0x00,0x00,0x00,0x00,0x00,0x00,0x00,0x00,0x00,0xef,0xf7,0xe0,0xff,0x01,0x00,0x00,0x00,0x00,0x00,0xf0,0xff,0xff,0xff,0xff,0xff,0x00,0x00,0x00,0x00,0x00,0x00,0x00,0x00,0x00,0x00,0x00,0x00,0x00,0x00,0x00,0x00,0xef,0xf7,0xe0,0xff,0x01,0x00,0x00,0x00,0x00,0x00,0xf0,0xff,0xff,0xff,0xff,0xff,0x00,0x00,0x00,0x00,0x00,0x00,0x00,0x00,0x00,0x00,0x00,0x00,0x00,0x00,0x00,0x00,0xef,0x01,0xe0,0xff,0x01,0x00,0x00,0x00,0x00,0x00,0xf0,0xff,0xff,0xff,0xff,0xff,0x00,0x00,0x00,0x00,0x00,0x00,0x00,0x00,0x00,0x00,0x00,0x00,0x00,0x00,0x00,0x00,0xef,0x01,0xe0,0xff,0x01,0x00,0x00,0x00,0x00,0x00,0xf0,0xff,0xff,0xff,0xff,0xff,0x00,0x00,0x00,0x00,0x00,0x00,0x00,0x00,0x00,0x00,0x00,0x00,0x00,0x00,0x00,0x00,0xef,0xfd,0xe1,0xff,0x01,0x00,0x00,0x00,0x00,0x00,0xf0,0xff,0xff,0xff,0xff,0xff,0x00,0x00,0x00,0x00,0x00,0x00,0x00,0x00,0x00,0x00,0x00,0x00,0x00,0x00,0x00,0x00,0x1f,0xfc,0x01,0x00,0x00,0xf8,0xff,0xff,0x01,0x00,0xf0,0xff,0xff,0xff,0xff,0xff,0x00,0x00,0x00,0x00,0x00,0x00,0x00,0x00,0x00,0x00,0x00,0x00,0x00,0x00,0x00,0x00,0xff,0xfc,0x01,0x00,0x00,0xf8,0xff,0xff,0x01,0x00,0x00,0x00,0x00,0x00,0x00,0x00,0x00,0x00,0x00,0x00,0x00,0x00,0x00,0x00,0x00,0x00,0x00,0x00,0x00,0x00,0x00,0x00,0xff,0xfc,0x01,0x00,0x00,0xf8,0xff,0xff,0x01,0x00,0x00,0x00,0x00,0x00,0x00,0x00,0x00,0x00,0x00,0x00,0x00,0x00,0x00,0x00,0x00,0x00,0x00,0x00,0x00,0x00,0x00,0x00,0xff,0xfc,0x01,0x00,0x00,0xf8,0xff,0xff,0x01,0x00,0x00,0x00,0x00,0x00,0x00,0x00,0x00,0x00,0x00,0x00,0x00,0x00,0x00,0x00,0x00,0x00,0x00,0x00,0x00,0x00,0x00,0x00,0xff,0xfc,0x01,0x00,0x00,0xf8,0xff,0xff,0x01,0x00,0x00,0x00,0x00,0x00,0x00,0x00,0x00,0x00,0x00,0x00,0x00,0x00,0x00,0x00,0x00,0x00,0x00,0x00,0x00,0x00,0x00,0x00,0xff,0xfc,0x3f,0xff,0x00,0xf8,0xff,0xff,0x01,0x00,0x00,0x00,0x00,0x00,0x00,0x00,0x00,0x00,0x00,0x00,0x00,0x00,0x00,0x00,0x00,0x00,0x00,0x00,0x00,0x00,0x00,0x00,0xff,0xfc,0x3f,0xff,0x00,0xf8,0x01,0xf8,0x01,0x00,0x00,0x00,0x00,0x00,0x00,0x00,0x00,0x00,0x00,0x00,0x00,0x00,0x00,0x00,0x00,0x00,0x00,0x00,0x00,0x00,0x00,0x00,0xff,0xfc,0x3f,0xff,0x00,0xf8,0xfd,0xfb,0x01,0x00,0x00,0x00,0x00,0x00,0x00,0x00,0x00,0x00,0x00,0x00,0x00,0x00,0x00,0x00,0x00,0x00,0x00,0x00,0x00,0x00,0x00,0x00,0xff,0xfc,0x3f,0xff,0x00,0xf8,0xfd,0xfb,0x01,0x00,0x00,0x00,0x00,0x00,0x00,0x00,0x00,0x00,0x00,0x00,0x00,0x00,0x00,0x00,0x00,0x00,0x00,0x00,0x00,0x00,0x00,0x00,0x1f,0xfc,0x3f,0xf8,0x00,0xf8,0xfd,0xfb,0x01,0x00,0x00,0x00,0x00,0x00,0x00,0x00,0x00,0x00,0x00,0x00,0x00,0x00,0x00,0x00,0x00,0x00,0x00,0x00,0x00,0x00,0x00,0x00,0xff,0xfd,0x3f,0xff,0x00,0xf8,0xfd,0xfb,0x01,0x00,0x00,0x00,0x00,0x00,0x00,0x00,0x00,0x00,0x00,0x00,0x00,0x00,0x00,0x00,0x00,0x00,0x00,0x00,0x00,0x00,0x00,0x00,0xef,0x01,0x00,0xf7,0x00,0xf8,0x3d,0x00,0x00,0x00,0x00,0x00,0x00,0x00,0x00,0x00,0x00,0x00,0x00,0x00,0x00,0x00,0x00,0x00,0x00,0x00,0x00,0x00,0x00,0x00,0x00,0x00,0xef,0x01,0xa0,0xf7,0x00,0xf8,0x3d,0x00,0x00,0x00,0x00,0x00,0x00,0x00,0x00,0x00,0x00,0x00,0x00,0x00,0x00,0x00,0x00,0x00,0x00,0x00,0x00,0x00,0x00,0x00,0x00,0x00,0xef,0xf7,0xef,0xf7,0x00,0xf8,0x3d,0x00,0x00,0x00,0x00,0x00,0x00,0x00,0x00,0x00,0x00,0x00,0x00,0x00,0x00,0x00,0x00,0x00,0x00,0x00,0x00,0x00,0x00,0x00,0x00,0x00,0xef,0xf7,0xef,0xf7,0x00,0xf8,0x3d,0xfe,0x01,0x00,0x00,0x00,0x00,0x00,0x00,0x00,0x00,0x00,0x00,0x00,0x00,0x00,0x00,0x00,0x00,0x00,0x00,0x00,0x00,0x00,0x00,0x00,0xef,0xf7,0xef,0xf7,0x00,0xf8,0x01,0xfe,0x01,0x00,0x00,0x00,0x00,0x00,0x00,0x00,0x00,0x00,0x00,0x00,0x00,0x00,0x00,0x00,0x00,0x00,0x00,0x00,0x00,0x00,0x00,0x00,0x1f,0xf8,0x1f,0xf4,0x00,0xf8,0x3f,0xfe,0x01,0x00,0x00,0x00,0x00,0x00,0x00,0x00,0x00,0x00,0x00,0x00,0x00,0x00,0x00,0x00,0x00,0x00,0x00,0x00,0x00,0x00,0x00,0x00,0xff,0xff,0xff,0xff,0x00,0xf8,0x3f,0xfe,0x01,0x00,0x00,0x00,0x00,0x00,0x00,0x00,0x00,0x00,0x00,0x00,0x00,0x00,0x00,0x00,0x00,0x00,0x00,0x00,0x00,0x00,0x00,0x00,0xff,0xff,0xff,0xff,0x00,0xf8,0x3f,0xbe,0x01,0x00,0x00,0x00,0x00,0x00,0x00,0x00,0x00,0x00,0x00,0x00,0x00,0x00,0x00,0x00,0x00,0x00,0x00,0x00,0x00,0x00,0x00,0x00,0xff,0xff,0xff,0xff,0x00,0xf8,0x3f,0xfe,0x01,0x00,0x00,0x00,0x00,0x00,0x00,0x00,0x00,0x00,0x00,0x00,0x00,0x00,0x00,0x00,0x00,0x00,0x00,0x00,0x00,0x00,0x00,0x00,0xff,0xff,0xff,0xff,0x00,0xf8,0x3f,0xfe,0x01,0x00,0x00,0x00,0x00,0x00,0x00,0x00,0x00,0x00,0x00,0x00,0x00,0x00,0x00,0x00,0x00,0x00,0x00,0x00,0x00,0x00,0x00,0x00,0xff,0xff,0xff,0xff,0x00,0xf8,0x3f,0xfe,0xff,0xf8,0x3f,0x00,0xff,0xff,0xff,0xff,0x00,0x00,0x00,0x00,0x00,0x00,0x00,0x00,0x00,0x00,0x00,0x00,0x00,0x00,0x00,0x00,0xff,0xff,0xff,0xff,0x00,0xf8,0x3f,0xfe,0xf7,0xf8,0x3f,0x00,0xff,0xff,0xff,0xff,0x00,0x00,0x00,0x00,0x00,0x00,0x00,0x00,0x00,0x00,0x00,0x00,0x00,0x00,0x00,0x00,0xff,0xff,0xff,0xff,0x00,0xf8,0x3f,0xfe,0xff,0xf8,0x3f,0x00,0xff,0xff,0xff,0xff,0x00,0x00,0x00,0x00,0x00,0x00,0x00,0x00,0x00,0x00,0x00,0x00,0x00,0x00,0x00,0x00,0xff,0xff,0xff,0xff,0x00,0xf8,0x3f,0xbe,0xf6,0xf8,0x3f,0x00,0xff,0xff,0xff,0xff,0x00,0x00,0x00,0x00,0x00,0x00,0x00,0x00,0x00,0x00,0x00,0x00,0x00,0x00,0x00,0x00,0x1f,0xfc,0x1f,0xf8,0x00,0xf8,0x3f,0xfe,0xff,0xf8,0x3f,0x00,0x2f,0xf8,0x1f,0xf8,0x00,0x00,0x00,0x00,0x00,0x00,0x00,0x00,0x00,0x00,0x00,0x00,0x00,0x00,0x00,0x00,0xef,0xf7,0xef,0xf7,0x00,0xf8,0x3f,0xfe,0xff,0xf8,0x3f,0x00,0xef,0xf7,0xef,0xf7,0x00,0x00,0x00,0x00,0x00,0x00,0x00,0x00,0x00,0x00,0x00,0x00,0x00,0x00,0x00,0x00,0xef,0xf7,0xef,0xf7,0x00,0xf8,0x01,0xfe,0xff,0x00,0x3f,0x00,0xef,0xf7,0xef,0xf7,0x00,0x00,0x00,0x00,0x00,0x00,0x00,0x00,0x00,0x00,0x00,0x00,0x00,0x00,0x00,0x00,0xef,0xf7,0xef,0xf7,0x00,0xf8,0x3d,0xfe,0xff,0x78,0x3f,0x00,0xef,0xf7,0xef,0xf7,0x00,0x00,0x00,0x00,0x00,0x00,0x00,0x00,0x00,0x00,0x00,0x00,0x00,0x00,0x00,0x00,0xef,0x01,0xe0,0xf7,0x00,0xf8,0x3d,0x00,0x00,0x78,0x3f,0x00,0xef,0x03,0x80,0xf7,0x00,0x00,0x00,0x00,0x00,0x00,0x00,0x00,0x00,0x00,0x00,0x00,0x00,0x00,0x00,0x00,0xef,0x01,0x00,0xf7,0x00,0xf8,0x3d,0x00,0x00,0x78,0x3f,0x00,0xef,0x00,0x80,0xf7,0x00,0x00,0x00,0x00,0x00,0x00,0x00,0x00,0x00,0x00,0x00,0x00,0x00,0x00,0x00,0x00,0xff,0xfd,0x3f,0xf7,0x00,0xf8,0x3d,0x00,0x00,0x78,0x3f,0x00,0xef,0xfc,0xbf,0xff,0x00,0x00,0x00,0x00,0x00,0x00,0x00,0x00,0x00,0x00,0x00,0x00,0x00,0x00,0x00,0x00,0x1f,0xfc,0x3f,0xf8,0x00,0xf8,0xfd,0xfb,0xbf,0x7f,0x3f,0x00,0x1f,0xfc,0x3f,0xf8,0x00,0x00,0x00,0x00,0x00,0x00,0x00,0x00,0x00,0x00,0x00,0x00,0x00,0x00,0x00,0x00,0xff,0xfc,0x3f,0xff,0x00,0xf8,0xfd,0xfb,0xbf,0x7f,0x3f,0x00,0xff,0xfc,0x3f,0xff,0x00,0x00,0x00,0x00,0x00,0x00,0x00,0x00,0x00,0x00,0x00,0x00,0x00,0x00,0x00,0x00,0xff,0xfc,0x3f,0xff,0x00,0xf8,0xfd,0xfb,0xbf,0x7f,0x3f,0x00,0xff,0xfc,0x3f,0xff,0x00,0x00,0x00,0x00,0x00,0x00,0x00,0x00,0x00,0x00,0x00,0x00,0x00,0x00,0x00,0x00,0xff,0xfc,0x3f,0xff,0x00,0xf8,0xfd,0xfb,0xbf,0x7f,0x3f,0x00,0xff,0xfc,0x3f,0xff,0x00,0x00,0x00,0x00,0x00,0x00,0x00,0x00,0x00,0x00,0x00,0x00,0x00,0x00,0x00,0x00,0xff,0xfc,0x3f,0xff,0x00,0xf8,0x01,0xf8,0x3f,0x00,0x3f,0x00,0xff,0xfc,0x3f,0xff,0x00,0x00,0x00,0x00,0x00,0x00,0x00,0x00,0x00,0x00,0x00,0x00,0x00,0x00,0x00,0x00,0xff,0xfc,0x01,0x00,0x00,0xf8,0xff,0xff,0xff,0xff,0x3f,0x00,0x00,0x80,0x3f,0xff,0x00,0x00,0x00,0x00,0x00,0x00,0x00,0x00,0x00,0x00,0x00,0x00,0x00,0x00,0x00,0x00,0xff,0xfc,0x01,0x00,0x00,0xf8,0xff,0xff,0xff,0xff,0x3f,0x00,0x00,0x80,0x3f,0xff,0x00,0x00,0x00,0x00,0x00,0x00,0x00,0x00,0x00,0x00,0x00,0x00,0x00,0x00,0x00,0x00,0xff,0xfc,0x01,0x00,0x00,0xf8,0xff,0xff,0xff,0xff,0x3f,0x00,0x00,0x80,0x3f,0xff,0x00,0x00,0x00,0x00,0x00,0x00,0x00,0x00,0x00,0x00,0x00,0x00,0x00,0x00,0x00,0x00,0xff,0xfc,0x01,0x00,0x00,0xf8,0xff,0xff,0xff,0xff,0x3f,0x00,0x00,0x80,0x3f,0xff,0x00,0x00,0x00,0x00,0x00,0x00,0x00,0x00,0x00,0x00,0x00,0x00,0x00,0x00,0x00,0x00,0x1f,0xfc,0x01,0x00,0x00,0xf8,0xff,0xff,0xff,0xff,0x3f,0x00,0x00,0x00,0x3f,0xf8,0x00,0x00,0x00,0x00,0x00,0x00,0x00,0x00,0x00,0x00,0x00,0x00,0x00,0x00,0x00,0x00,0xef,0xf9,0xe1,0xff,0x01,0xf8,0xff,0xff,0xff,0xff,0x3f,0x00,0xff,0x07,0x3f,0xf7,0x00,0x00,0x00,0x00,0x00,0x00,0x00,0x00,0x00,0x00,0x00,0x00,0x00,0x00,0x00,0x00,0xef,0x00,0xe0,0xff,0x01,0x00,0x00,0x00,0x00,0x00,0x00,0x00,0xff,0x07,0x80,0xf7,0x00,0x00,0x00,0x00,0x00,0x00,0x00,0x00,0x00,0x00,0x00,0x00,0x00,0x00,0x00,0x00,0xef,0x01,0xe0,0xff,0x01,0x00,0x00,0x00,0x00,0x00,0x00,0x00,0xff,0x07,0x80,0xf7,0x00,0x00,0x00,0x00,0x00,0x00,0x00,0x00,0x00,0x00,0x00,0x00,0x00,0x00,0x00,0x00,0xef,0xf7,0xe0,0xff,0x01,0x00,0x00,0x00,0x00,0x00,0x00,0x00,0xff,0x07,0xef,0xf7,0x00,0x00,0x00,0x00,0x00,0x00,0x00,0x00,0x00,0x00,0x00,0x00,0x00,0x00,0x00,0x00,0xef,0xf7,0xe0,0xff,0x01,0x00,0x00,0x00,0x00,0x00,0x00,0x00,0xff,0x07,0xef,0xf7,0x00,0x00,0x00,0x00,0x00,0x00,0x00,0x00,0x00,0x00,0x00,0x00,0x00,0x00,0x00,0x00,0xef,0xf7,0xe0,0xff,0x01,0x00,0x00,0x00,0x00,0x00,0x00,0x00,0xff,0x07,0xef,0xff,0x00,0x00,0x00,0x00,0x00,0x00,0x00,0x00,0x00,0x00,0x00,0x00,0x00,0x00,0x00,0x00,0x1f,0xf8,0xe0,0x07,0x00,0x00,0x00,0x00,0x00,0x00,0x00,0x00,0xe0,0x07,0x3f,0xf8,0x00,0x00,0x00,0x00,0x00,0x00,0x00,0x00,0x00,0x00,0x00,0x00,0x00,0x00,0x00,0x00,0xff,0xff,0xe0,0xf7,0x01,0x00,0x00,0x00,0x00,0x00,0x00,0x00,0xef,0x07,0xff,0xff,0x00,0x00,0x00,0x00,0x00,0x00,0x00,0x00,0x00,0x00,0x00,0x00,0x00,0x00,0x00,0x00,0xff,0xff,0xe0,0xf7,0x01,0x00,0x00,0x00,0x00,0x00,0x00,0x00,0xef,0x07,0xff,0xff,0x00,0x00,0x00,0x00,0x00,0x00,0x00,0x00,0x00,0x00,0x00,0x00,0x00,0x00,0x00,0x00,0xff,0xff,0xe0,0xf7,0x01,0x00,0x00,0x00,0x00,0x00,0x00,0x00,0xef,0x07,0xff,0xff,0x00,0x00,0x00,0x00,0x00,0x00,0x00,0x00,0x00,0x00,0x00,0x00,0x00,0x00,0x00,0x00,0xff,0xff,0xe0,0xf7,0x01,0x00,0x00,0x00,0x00,0x00,0xe0,0xf7,0xef,0x07,0xff,0xff,0x00,0x00,0x00,0x00,0x00,0x00,0x00,0x00,0x00,0x00,0x00,0x00,0x00,0x00,0x00,0x00,0xff,0xff,0xe0,0xf7,0xef,0x07,0xff,0xff,0xff,0xff,0xe0,0xf7,0xef,0x07,0xff,0xff,0x00,0x00,0x00,0x00,0x00,0x00,0x00,0x00,0x00,0x00,0x00,0x00,0x00,0x00,0x00,0x00,0xff,0xff,0xe0,0xf7,0xef,0x07,0xff,0xff,0xff,0xff,0xe0,0xf7,0xef,0x07,0xff,0xff,0x00,0x00,0x00,0x00,0x00,0x00,0x00,0x00,0x00,0x00,0x00,0x00,0x00,0x00,0x00,0x00,0xff,0xff,0xe0,0xf7,0xef,0x07,0xff,0xff,0xff,0xff,0xe0,0xf7,0xef,0x07,0xff,0xff,0x00,0x00,0x00,0x00,0x00,0x00,0x00,0x00,0x00,0x00,0x00,0x00,0x00,0x00,0x00,0x00,0xff,0xff,0xe0,0xf7,0xef,0x07,0xff,0xff,0xff,0xff,0xe0,0xf7,0xef,0x07,0xff,0xff,0x00,0x00,0x00,0x00,0x00,0x00,0x00,0x00,0x00,0x00,0x00,0x00,0x00,0x00,0x00,0x00,0x1f,0xf8,0xe0,0x07,0xe0,0x07,0x1f,0xf0,0x0f,0xfc,0xe0,0x07,0xe0,0x07,0x3f,0xf0,0x00,0x00,0x00,0x00,0x00,0x00,0x00,0x00,0x00,0x00,0x00,0x00,0x00,0x00,0x00,0x00,0xef,0xf7,0xe0,0xff,0xff,0x07,0xef,0xf7,0xef,0xf7,0xe0,0xff,0xff,0x07,0xef,0xf7,0x00,0x00,0x00,0x00,0x00,0x00,0x00,0x00,0x00,0x00,0x00,0x00,0x00,0x00,0x00,0x00,0xef,0xf7,0xe0,0xff,0xff,0x07,0xef,0xf7,0xef,0xf7,0xe0,0xff,0xff,0x07,0xef,0xf7,0x00,0x00,0x00,0x00,0x00,0x00,0x00,0x00,0x00,0x00,0x00,0x00,0x00,0x00,0x00,0x00,0xef,0xf7,0xe0,0xff,0xff,0x07,0xef,0xf7,0xef,0xf7,0xe0,0xff,0xff,0x07,0xef,0xf7,0x00,0x00,0x00,0x00,0x00,0x00,0x00,0x00,0x00,0x00,0x00,0x00,0x00,0x00,0x00,0x00,0xef,0x01,0xe0,0xff,0xff,0x07,0x80,0xf7,0xef,0x01,0xe0,0xff,0xff,0x07,0x80,0xf7,0x00,0x00,0x00,0x00,0x00,0x00,0x00,0x00,0x00,0x00,0x00,0x00,0x00,0x00,0x00,0x00,0xef,0x01,0xe0,0xff,0xff,0x07,0x80,0xf7,0xef,0x01,0xe0,0xff,0xff,0x07,0x80,0xf7,0x00,0x00,0x00,0x00,0x00,0x00,0x00,0x00,0x00,0x00,0x00,0x00,0x00,0x00,0x00,0x00,0xef,0xfd,0xe0,0xff,0xff,0x07,0xbf,0xff,0xff,0xfd,0xe0,0xff,0xff,0x07,0xbf,0xff,0x00,0x00,0x00,0x00,0x00,0x00,0x00,0x00,0x00,0x00,0x00,0x00,0x00,0x00,0x00,0x00,0x1f,0xfc,0x01,0x00,0x00,0x00,0x3f,0xf8,0x1f,0xfc,0x00,0x00,0x00,0x00,0x3f,0xf8,0x00,0x00,0x00,0x00,0x00,0x00,0x00,0x00,0x00,0x00,0x00,0x00,0x00,0x00,0x00,0x00,0xff,0xfc,0x01,0x00,0x00,0x00,0x3f,0xff,0xff,0xfc,0x00,0x00,0x00,0x00,0x3f,0xff,0x00,0x00,0x00,0x00,0x00,0x00,0x00,0x00,0x00,0x00,0x00,0x00,0x00,0x00,0x00,0x00,0xff,0xfc,0x00,0x00,0x00,0x00,0x3f,0xff,0xff,0xfc,0x00,0x00,0x00,0x00,0x3f,0xff,0x00,0x00,0x00,0x00,0x00,0x00,0x00,0x00,0x00,0x00,0x00,0x00,0x00,0x00,0x00,0x00,0xff,0xfc,0x01,0x00,0x00,0x00,0x3f,0xff,0xff,0xfc,0x00,0x00,0x00,0x00,0x3f,0xff,0x00,0x00,0x00,0x00,0x00,0x00,0x00,0x00,0x00,0x00,0x00,0x00,0x00,0x00,0x00,0x00,0xff,0xfc,0x01,0x00,0x00,0xf8,0x3f,0xff,0xff,0xfc,0x3f,0x00,0x00,0xfc,0x3f,0xff,0x00,0x00,0x00,0x00,0x00,0x00,0x00,0x00,0x00,0x00,0x00,0x00,0x00,0x00,0x00,0x00,0xff,0xfc,0x3f,0xff,0xff,0xfc,0x3f,0xff,0xff,0xfc,0x3f,0xff,0xff,0xfc,0x3f,0xff,0x00,0x00,0x00,0x00,0x00,0x00,0x00,0x00,0x00,0x00,0x00,0x00,0x00,0x00,0x00,0x00,0xff,0xfc,0x3f,0xff,0xff,0xfc,0x3f,0xff,0xff,0xfc,0x3f,0xff,0xff,0xfc,0x3f,0xff,0x00,0x00,0x00,0x00,0x00,0x00,0x00,0x00,0x00,0x00,0x00,0x00,0x00,0x00,0x00,0x00,0xff,0xfc,0x3f,0xff,0xff,0xfc,0x3f,0xff,0xff,0xfc,0x3f,0xff,0xff,0xfc,0x3f,0xff,0x00,0x00,0x00,0x00,0x00,0x00,0x00,0x00,0x00,0x00,0x00,0x00,0x00,0x00,0x00,0x00,0xff,0xfc,0x3f,0xff,0xff,0xfc,0x3f,0xff,0xff,0xfc,0x3f,0xff,0xff,0xfc,0x3f,0xff,0x00,0x00,0x00,0x00,0x00,0x00,0x00,0x00,0x00,0x00,0x00,0x00,0x00,0x00,0x00,0x00,0x1f,0xfc,0x3f,0xf8,0x1f,0xfc,0x3f,0xf8,0x1f,0xfc,0x3f,0xf8,0x1f,0xfc,0x3f,0xf8,0x00,0x00,0x00,0x00,0x00,0x00,0x00,0x00,0x00,0x00,0x00,0x00,0x00,0x00,0x00,0x00,0xef,0xfd,0x3f,0xff,0xef,0xfc,0x3f,0xf7,0xef,0xfc,0x3f,0xf7,0xef,0xfc,0x3f,0xff,0x00,0x00,0x00,0x00,0x00,0x00,0x00,0x00,0x00,0x00,0x00,0x00,0x00,0x00,0x00,0x00,0xef,0x01,0x00,0xf7,0xef,0x00,0x00,0xf7,0xef,0x00,0x00,0xf7,0xef,0x00,0x00,0xf7,0x00,0x00,0x00,0x00,0x00,0x00,0x00,0x00,0x00,0x00,0x00,0x00,0x00,0x00,0x00,0x00,0xef,0x01,0xe0,0xf7,0xef,0x05,0xc0,0xf7,0xef,0x07,0xa0,0xf7,0xef,0x05,0xc0,0xf7,0x00,0x00,0x00,0x00,0x00,0x00,0x00,0x00,0x00,0x00,0x00,0x00,0x00,0x00,0x00,0x00,0xef,0xf7,0xef,0xf7,0xef,0xf7,0xef,0xf7,0xef,0xf7,0xef,0xf7,0xef,0xf7,0xef,0xf7,0x00,0x00,0x00,0x00,0x00,0x00,0x00,0x00,0x00,0x00,0x00,0x00,0x00,0x00,0x00,0x00,0xef,0xf7,0xef,0xf7,0xef,0xf7,0xef,0xf7,0xef,0xf7,0xef,0xf7,0xef,0xf7,0xef,0xf7,0x00,0x00,0x00,0x00,0x00,0x00,0x00,0x00,0x00,0x00,0x00,0x00,0x00,0x00,0x00,0x00,0xef,0xf7,0xef,0xf7,0xef,0xf7,0xef,0xf7,0xef,0xf7,0xef,0xf7,0xef,0xf7,0xef,0xf7,0x00,0x00,0x00,0x00,0x00,0x00,0x00,0x00,0x00,0x00,0x00,0x00,0x00,0x00,0x00,0x00,0x1f,0xfc,0x3f,0xf8,0x1f,0xf8,0x1f,0xf8,0x1f,0xf8,0x1f,0xfc,0x1f,0xf0,0x0f,0xfc,0x00,0x00,0x00,0x00,0x00,0x00,0x00,0x00,0x00,0x00,0x00,0x00,0x00,0x00,0x00,0x00,0xff,0xff,0xff,0xff,0xff,0xff,0xff,0xff,0xff,0xff,0xff,0xff,0xff,0xff,0xff,0xff,0x00,0x00,0x00,0x00,0x00,0x00,0x00,0x00,0x00,0x00,0x00,0x00,0x00,0x00,0x00,0x00,0xff,0xff,0xff,0xff,0xff,0xff,0xff,0xff,0xff,0xff,0xff,0xff,0xff,0xff,0xff,0xff,0x00,0x00,0x00,0x00,0x00,0x00,0x00,0x00,0x00,0x00,0x00,0x00,0x00,0x00,0x00,0x00,0xff,0xff,0xff,0xff,0xff,0xff,0xff,0xff,0xff,0xff,0xff,0xff,0xff,0xff,0xff,0xff,0x00,0x00,0x00,0x00,0x00,0x00,0x00,0x00,0x00,0x00,0x00,0x00,0x00,0x00,0x00,0x00,0xff,0xff,0xff,0xff,0xff,0xff,0xff,0xff,0xff,0xff,0xff,0xff,0xff,0xff,0xff,0xff,0x00,0x00,0x00,0x00,0x00,0x00,0x00,0x00,0x00,0x00,0x00,0x00,0x00,0x00,0x00,0x00};
