#define x_width 256
#define x_height 256
static char x_bits[] = {
0x00,0x00,0x00,0x80,0x00,0x00,0x00,0x80,0x00,0x00,0x01,0x00,0x00,0x04,0x00,0x40,0x00,0x00,0x00,0x00,0x00,0x00,0x00,0x00,0x00,0x00,0x00,0x00,0x00,0x00,0x00,0x01,0x00,0x44,0x00,0x40,0x00,0x00,0x44,0x4c,0x00,0x42,0x00,0x00,0x00,0x04,0x40,0x00,0x00,0x00,0x00,0x21,0x02,0x00,0x00,0x20,0x10,0x00,0x20,0x00,0x02,0x20,0x00,0x20,0x04,0x20,0x20,0x12,0x90,0x08,0x00,0x20,0x00,0x00,0x20,0x40,0x00,0x00,0x4e,0x10,0x20,0x00,0x00,0x02,0x40,0x40,0x00,0x30,0x24,0x48,0x42,0x00,0x00,0x24,0x00,0x02,0x3c,0x10,0x14,0x28,0x1c,0x08,0x28,0x10,0x10,0x18,0x18,0x00,0x18,0x18,0x58,0x08,0x38,0x10,0x28,0x10,0x10,0x08,0x08,0x10,0x00,0x10,0x18,0x10,0x08,0x1c,0x00,0x20,0x18,0x1c,0x08,0x18,0x18,0x08,0x18,0x10,0x12,0x10,0x58,0x10,0x0c,0x10,0x28,0x18,0x18,0x18,0x08,0x18,0x08,0x39,0x88,0x18,0x18,0x18,0x18,0x10,0x98,0x10,0x1c,0x18,0x00,0x50,0x28,0x26,0x40,0x22,0x20,0x86,0x00,0x81,0x00,0x01,0x02,0x02,0x00,0x25,0x40,0x82,0x10,0x00,0x40,0x04,0x00,0x08,0x00,0x00,0x10,0x00,0x00,0x00,0x20,0x01,0x60,0x82,0x60,0x03,0xe0,0x07,0x41,0x06,0xf0,0x03,0x40,0x03,0x42,0x26,0xa0,0x02,0x40,0x26,0xc0,0x03,0x60,0x23,0xc0,0x00,0xc0,0x03,0x70,0x47,0xc2,0x22,0xe0,0x02,0x80,0x05,0x88,0x01,0xe0,0x01,0x80,0x07,0x80,0x03,0xc0,0x01,0xc0,0x01,0x80,0x01,0xe0,0x01,0xc0,0x01,0xe0,0x05,0xa0,0x03,0x80,0x03,0xc0,0x81,0xc0,0x01,0x80,0x03,0x80,0x03,0xe0,0x05,0xa0,0x01,0x80,0x05,0x80,0x03,0x80,0x05,0x80,0x01,0x88,0x01,0x80,0x01,0x81,0x01,0x80,0x01,0xc0,0x01,0xa0,0x03,0x80,0x03,0x80,0x01,0xc0,0x01,0x40,0x02,0x40,0x06,0x40,0x22,0x46,0x02,0x44,0x03,0x44,0x06,0x40,0x02,0x60,0x02,0x44,0x03,0x44,0x43,0xe0,0x63,0x40,0x02,0x40,0x02,0xe2,0x43,0x60,0x06,0xc0,0x02,0x00,0x06,0x00,0x02,0x80,0x27,0x86,0x04,0x20,0x03,0xc0,0x06,0x00,0x1d,0x42,0xc4,0x0a,0x03,0x42,0x40,0x20,0x10,0x00,0x45,0x00,0x44,0x70,0x01,0x32,0x01,0x42,0x04,0x29,0x5c,0x1b,0x18,0x1a,0x18,0x19,0x00,0x44,0x98,0x19,0x80,0x00,0x58,0x19,0x10,0x08,0x38,0x1b,0x10,0x08,0xd8,0x1f,0x18,0x18,0x38,0x1a,0x10,0x1c,0x58,0x1e,0x08,0x38,0x78,0x1f,0x10,0x30,0x78,0x1e,0x18,0x10,0xfc,0x5e,0x0a,0x28,0x58,0x1e,0x48,0x00,0x58,0x1f,0x18,0x10,0x78,0x3b,0x18,0x18,0x68,0x1e,0x28,0x10,0xf8,0x1f,0x18,0x40,0xba,0x4f,0x40,0x02,0x7a,0x2e,0x2a,0x08,0x70,0x0c,0x00,0x21,0x78,0x0c,0x00,0x04,0x3a,0x4c,0x28,0x00,0x70,0x4c,0x00,0x20,0x30,0x0e,0x00,0x00,0x7c,0x4c,0x02,0x02,0xe8,0x1f,0x20,0x44,0xd8,0x0f,0x00,0x02,0xfc,0x0f,0x00,0x00,0xd0,0x1f,0x00,0x20,0xf8,0x1b,0x02,0x24,0xfa,0x1b,0x20,0x04,0xf8,0x0f,0x00,0x00,0xd8,0x13,0x00,0x00,0xd8,0x03,0x00,0x00,0xc0,0x1f,0x00,0x00,0xd0,0x4b,0x00,0x40,0xc0,0x1b,0x00,0x00,0xc0,0x0b,0x00,0x00,0xc0,0x33,0x00,0x00,0xd0,0x03,0x00,0x00,0xc0,0x0f,0x00,0x00,0xf8,0x03,0x00,0x00,0xc8,0x03,0x00,0x00,0xb0,0x07,0x00,0x00,0xd0,0x47,0x00,0x00,0xc9,0x0b,0x40,0x00,0xf0,0x13,0x00,0x00,0xc0,0x1b,0x40,0x00,0xc0,0x0f,0x00,0x00,0xc8,0x0b,0x00,0x02,0xf8,0x5b,0x20,0x02,0xc8,0x0f,0x01,0x02,0xfa,0x1f,0x00,0x00,0xdc,0x3b,0x20,0x82,0xf0,0x13,0x20,0x00,0xf8,0x1f,0x01,0xc0,0xf0,0x5b,0x00,0x00,0xb2,0x4d,0x20,0x00,0x7c,0x0c,0x04,0x40,0x32,0x2e,0x24,0x00,0x78,0x17,0x40,0x00,0x34,0x1f,0x24,0x00,0xf0,0x04,0x02,0x20,0xf8,0x1d,0x14,0x00,0xf4,0x0e,0x04,0x14,0xb8,0x1f,0x18,0x18,0x78,0x1e,0x18,0x18,0x78,0x1f,0x10,0x18,0xf0,0x0e,0x10,0x58,0x38,0x5e,0x30,0x18,0xbc,0x1f,0x00,0x18,0xba,0x1e,0x18,0x18,0xf8,0x1c,0x08,0x08,0x78,0x1b,0x10,0x18,0xd8,0x1d,0x58,0x08,0x4a,0x1b,0x08,0x18,0xd8,0x1a,0x10,0x28,0x4c,0x1f,0x18,0x18,0x50,0x1e,0x08,0x08,0x78,0x1f,0x18,0x08,0xd8,0x10,0x18,0x02,0x01,0x48,0x32,0xa0,0x00,0x82,0x40,0x40,0x00,0xe9,0x08,0x12,0x00,0x50,0x00,0x44,0x64,0x00,0x00,0x80,0x0a,0x80,0x00,0x00,0x66,0xc4,0x81,0x62,0x03,0x33,0x62,0x61,0x06,0xe0,0x5b,0x4f,0x03,0x60,0x07,0x4c,0x12,0xc4,0x5f,0xd0,0x63,0x44,0x16,0x60,0x22,0x44,0xeb,0xcb,0x03,0xe0,0x42,0x4c,0x2f,0x40,0x76,0x6a,0x02,0x40,0x07,0x80,0x03,0xc0,0x7f,0xdf,0x03,0xe0,0x05,0xa0,0x01,0xc0,0x7b,0x9e,0x03,0xa0,0x01,0x80,0x05,0xe0,0x37,0xc6,0x03,0xa0,0x81,0x80,0x07,0xc0,0xb7,0xff,0x07,0xa0,0x01,0xc0,0x01,0x80,0xf9,0xbf,0x03,0xa0,0x01,0x80,0x01,0xc0,0xf3,0xad,0x01,0x90,0x01,0xe0,0x17,0xa0,0x31,0xae,0x01,0x80,0x41,0x80,0x05,0xc0,0x7b,0x8d,0x01,0x92,0x01,0x40,0x0a,0xe0,0x6f,0x7e,0x43,0x40,0x05,0x62,0x06,0xe0,0x7f,0x7a,0x02,0x44,0x02,0x40,0x20,0x60,0x6f,0x7a,0x26,0xe4,0x46,0x40,0x06,0xc0,0xff,0xfa,0x03,0xc0,0x12,0x80,0x10,0xa0,0x0f,0xfb,0x02,0x40,0x01,0x06,0x02,0x40,0xdf,0xfc,0x47,0xc0,0x04,0x44,0x00,0x40,0x9f,0x7a,0x03,0x40,0x00,0x22,0x03,0x44,0x5e,0xf2,0x06,0x00,0x00,0x10,0x18,0xa8,0x9e,0x7f,0x1b,0x18,0x1c,0x18,0x14,0x18,0x3f,0x7f,0x18,0x18,0x14,0x10,0x18,0x48,0x7f,0xf9,0x11,0x18,0x3a,0x10,0x08,0x98,0xbf,0xf9,0x14,0x18,0x08,0x18,0x08,0xd0,0xff,0x7a,0x0b,0x00,0x18,0x18,0x10,0xc8,0x7f,0xfe,0x1f,0x0c,0x18,0x18,0x10,0xd8,0xff,0x7e,0x19,0x10,0x08,0x18,0x18,0xd8,0xff,0xff,0x42,0x38,0x18,0x00,0x00,0xa0,0xf5,0xcf,0x03,0x00,0x04,0x22,0x20,0x88,0xe3,0xcf,0x03,0x08,0x04,0x22,0x42,0xa0,0xf5,0xbf,0x01,0x00,0x02,0x44,0x44,0x80,0xf1,0x8f,0x01,0x00,0x40,0x00,0x40,0x88,0xfb,0xef,0x63,0x00,0x40,0x04,0x02,0xc0,0xf3,0xdf,0x03,0x02,0x02,0x00,0x02,0xc0,0xfb,0x7f,0x23,0x10,0x00,0x00,0x10,0xc0,0xf3,0xdf,0x03,0x00,0x00,0x00,0x10,0x60,0xf3,0x07,0x02,0x00,0x41,0x20,0x00,0x00,0xe9,0x0f,0x04,0x08,0x00,0x00,0x00,0x60,0xf9,0x1f,0x02,0x00,0x00,0x00,0x00,0x40,0xf9,0xdf,0x44,0x00,0x00,0x00,0x00,0x00,0xf3,0x8f,0x02,0x00,0x00,0x00,0x04,0x00,0xf4,0x9f,0x08,0x00,0x40,0x00,0x00,0x80,0xfa,0xaf,0x00,0x00,0x40,0x00,0x00,0x80,0xf2,0x5f,0x00,0x00,0x00,0x04,0x20,0x40,0xff,0x7f,0x02,0x00,0x20,0x4c,0x0c,0x40,0xf2,0x5f,0x06,0x00,0x00,0x00,0x02,0x40,0xfb,0x7f,0x06,0x00,0x24,0x05,0x20,0xc0,0xfe,0xdf,0x92,0x20,0x00,0x40,0x00,0xe4,0xf1,0xa7,0x01,0x00,0x00,0x00,0x40,0x80,0xf7,0xdf,0x01,0x00,0x14,0x08,0x04,0xe0,0xf1,0xbf,0x43,0x82,0x20,0x00,0x02,0x84,0xf7,0xdf,0x05,0x00,0x40,0x18,0x18,0xc8,0xf9,0xbf,0x11,0x1a,0x08,0x1c,0x10,0xd0,0xff,0xbf,0x1b,0x00,0x08,0x38,0x08,0xc0,0xfe,0x9f,0x13,0x10,0x18,0x18,0x04,0xb8,0xfd,0xdf,0x05,0x08,0x18,0x38,0x38,0xe8,0x7e,0xfb,0x19,0x18,0x08,0x11,0x18,0xd8,0xdf,0xf3,0x9a,0x18,0x08,0x00,0x18,0x48,0x5f,0x7b,0x1a,0x18,0x19,0x38,0x08,0xc0,0xde,0x7a,0x1e,0x08,0x12,0x80,0x04,0x80,0x7e,0x7a,0x06,0x20,0x00,0xb0,0x46,0x40,0x3f,0xfa,0x06,0x40,0x44,0x80,0x04,0x04,0x5e,0xf9,0x02,0x23,0x00,0x00,0x00,0x10,0xde,0xf2,0x11,0x00,0x43,0xe2,0x42,0x44,0xde,0xfa,0x43,0x40,0x22,0x44,0x01,0xc0,0xff,0xfe,0x26,0x60,0x02,0x40,0x02,0x40,0x7f,0xfa,0x57,0x44,0x02,0x64,0x02,0xc4,0xff,0xfb,0x03,0x48,0x22,0xc0,0x81,0xe0,0x3f,0xf7,0x03,0x80,0x03,0x80,0x43,0xe0,0x7f,0xfb,0x17,0x88,0x03,0xc0,0x01,0xe0,0x73,0xfe,0x03,0x80,0x01,0x80,0x01,0xc0,0xf7,0xee,0x07,0x80,0x01,0x80,0x01,0xc0,0xfb,0xae,0x47,0x90,0x25,0xe0,0x01,0xa0,0xfd,0xcc,0x03,0x80,0x11,0xc0,0x01,0xe4,0xb3,0xce,0x01,0x80,0x03,0x80,0x03,0xd0,0x67,0xcc,0x07,0x80,0x03,0x40,0x32,0xe0,0x7e,0x4b,0x03,0xe4,0x03,0xc0,0x03,0xc0,0xdb,0xfa,0x53,0x64,0x22,0xc0,0x03,0xe0,0x7b,0xca,0x03,0x60,0x20,0x60,0x02,0xc0,0x56,0xda,0x0f,0xe0,0x02,0x84,0x20,0xc8,0xc8,0xe2,0x11,0x60,0x05,0x06,0x40,0xc0,0x60,0xd6,0x24,0x00,0x21,0x00,0x00,0x20,0x10,0xe3,0x4b,0x00,0x42,0x00,0x81,0x00,0x10,0x94,0x01,0x00,0x00,0x28,0xf8,0x1a,0x18,0x10,0xd4,0x56,0x18,0x11,0x7b,0x1f,0x18,0x18,0x68,0x08,0x10,0x18,0x98,0x09,0x18,0x00,0xd8,0x9a,0x3c,0x18,0xca,0x3b,0x18,0x18,0x98,0x1a,0x08,0x28,0xf8,0x16,0x18,0x98,0xf8,0x7f,0x5b,0x53,0x79,0x1f,0x18,0x1c,0xf8,0x1f,0x0c,0x18,0x79,0x1f,0x4a,0x18,0xf8,0x9f,0xda,0x9f,0xbe,0x1f,0x18,0x18,0x78,0x1e,0x18,0x02,0x30,0x8c,0x40,0x00,0x72,0xde,0x37,0xe6,0x30,0x5f,0x00,0x00,0x72,0x05,0x02,0x40,0x72,0x6c,0x10,0x00,0xf2,0xde,0x6f,0x8e,0x7f,0x0e,0x01,0x42,0x38,0x0c,0x02,0x00,0xf2,0x57,0x40,0x80,0xf4,0xff,0x37,0xdf,0xfd,0x0f,0x00,0x10,0xf8,0x1f,0x01,0x22,0xf8,0x5f,0x00,0x08,0xf8,0x9f,0xff,0xfc,0xff,0x2f,0x04,0x04,0xec,0x0f,0x00,0x00,0xf8,0x13,0x00,0x00,0xfc,0x3b,0x4f,0x78,0xff,0x1f,0x00,0x00,0xf0,0x13,0x08,0x00,0xd8,0x03,0x80,0x00,0xf0,0xd7,0xbe,0xf6,0xda,0x17,0x08,0x00,0xfc,0x0b,0x00,0x02,0xc0,0x13,0x00,0x00,0xd8,0x23,0x0f,0x79,0xfa,0x0f,0x00,0x00,0xc0,0x03,0x10,0x00,0xc0,0x9f,0x00,0x80,0xd8,0x57,0x9e,0xf1,0xe0,0x1f,0x00,0x40,0xc0,0x0b,0x00,0x01,0xdc,0x93,0x20,0x00,0xf8,0x5f,0x7f,0xfd,0xfb,0x1f,0x04,0x00,0xf8,0x6f,0x40,0x64,0xd0,0x13,0x06,0x00,0xf8,0xbf,0xfe,0xfe,0xfa,0x3f,0x00,0x00,0xda,0x1f,0x24,0x40,0xf9,0xde,0x00,0x50,0x7a,0xfe,0x7b,0xff,0xff,0x1e,0x00,0x00,0xb0,0x4f,0x00,0x04,0x28,0x0d,0x06,0x04,0xf0,0xff,0x7f,0xed,0xff,0x4d,0x00,0x56,0x30,0x06,0x00,0x18,0x38,0x1d,0x08,0x10,0xf8,0xff,0x7d,0xde,0xff,0x1f,0x18,0x1c,0x7c,0x1e,0x18,0x18,0x78,0x1f,0x18,0x18,0xfe,0xfe,0xff,0xfe,0x7f,0x3e,0x18,0x18,0x38,0x3f,0x00,0x10,0xd0,0x1e,0x08,0x00,0x58,0xff,0x6b,0xef,0x7f,0x1b,0x18,0x04,0x7a,0x1a,0x18,0x58,0x58,0x3a,0x18,0x00,0xd8,0xfe,0xdb,0xdb,0xff,0x1e,0x10,0x10,0x58,0x1e,0x08,0x80,0x00,0x82,0x03,0x00,0x27,0xff,0x70,0x80,0x7f,0x51,0x04,0x00,0x21,0x34,0x20,0x80,0x20,0x20,0x00,0x00,0xc8,0xfe,0xa3,0xa0,0x7f,0x2a,0x00,0x20,0x02,0x10,0x02,0xc0,0x07,0xc0,0x02,0x40,0x2b,0xff,0x67,0xe9,0x7f,0xdb,0x02,0x40,0x03,0x40,0x42,0xf0,0x23,0xc4,0x62,0x42,0x8f,0xfe,0xcb,0x75,0xff,0x48,0x02,0x40,0x22,0x44,0x02,0x80,0x05,0x80,0x01,0xe0,0x79,0xff,0x7f,0xff,0xff,0x8f,0x01,0x80,0x01,0xe0,0x03,0xe0,0x21,0xa0,0x05,0x80,0xf5,0xfe,0xdb,0xfe,0xff,0xee,0x01,0xc0,0x01,0xa0,0x03,0x80,0x01,0xe0,0x05,0x80,0x33,0xfe,0xb9,0xc6,0x3f,0xef,0x03,0xc0,0x03,0x80,0x43,0xc0,0x05,0xe0,0x11,0xc0,0xe5,0xfc,0x63,0xfe,0xff,0xac,0x01,0x80,0x01,0xa0,0x03,0xc0,0x02,0xc4,0x02,0x44,0xeb,0xff,0xff,0xff,0xff,0xef,0x03,0x48,0x02,0x64,0x02,0xe2,0x43,0xc4,0x22,0xc0,0xf2,0xd7,0xff,0xff,0xff,0xd7,0x02,0x60,0x07,0x40,0x02,0x04,0x61,0x00,0x60,0x00,0xe4,0x53,0xff,0xff,0xe1,0x15,0x00,0x44,0x00,0x01,0x00,0x40,0x24,0x00,0x22,0x60,0xe0,0x6b,0xfe,0xff,0xf2,0x37,0x00,0x80,0x00,0x20,0x20,0x18,0x18,0x18,0x10,0x08,0xf8,0x3f,0xff,0x7f,0xf0,0x19,0x10,0x18,0x18,0x18,0x18,0x18,0x18,0x18,0x18,0x08,0xf8,0xdb,0xfe,0xff,0xf8,0x1b,0x00,0x09,0x18,0x18,0x58,0x00,0x00,0x18,0x50,0x48,0xec,0x7b,0xff,0x7f,0xe8,0x1b,0x08,0x48,0x1c,0x18,0x1c,0x10,0x00,0x18,0x00,0x18,0xd8,0xdf,0xfe,0xff,0xde,0x1f,0x08,0x08,0x30,0x08,0x58,0x42,0x00,0x40,0x00,0x00,0x30,0xe7,0xff,0xff,0x7f,0x1f,0x20,0x02,0x40,0x00,0x50,0x21,0x40,0x44,0x42,0x00,0x6c,0xcc,0xff,0xff,0xf3,0x0e,0x00,0xe4,0x40,0x00,0x00,0x00,0x40,0x00,0x02,0x24,0x3c,0xce,0xff,0xff,0x7d,0x0f,0x00,0x00,0x04,0x00,0x20,0x40,0x00,0x00,0x00,0x04,0xf8,0xc4,0xff,0xff,0xe7,0x6f,0x00,0x40,0x00,0x60,0x20,0x00,0x00,0x00,0x00,0x00,0x78,0x5b,0xff,0x7f,0x4a,0x09,0x40,0x00,0x00,0x01,0x00,0x00,0x08,0x00,0x40,0x00,0xb0,0x92,0xfe,0xff,0xd2,0x1e,0x00,0x00,0x00,0x00,0x00,0x00,0x00,0x00,0x00,0x00,0x20,0x61,0xff,0x7f,0x04,0x0d,0x00,0x00,0x00,0x00,0x00,0x00,0x01,0x20,0x00,0x00,0x00,0x50,0xfe,0xff,0x41,0x12,0x00,0x00,0x00,0x00,0x00,0x20,0x08,0x44,0x00,0x00,0x7c,0x5b,0xff,0xff,0x69,0x3f,0x00,0x00,0x00,0x00,0x40,0x05,0x00,0x00,0x00,0x00,0x98,0xde,0xfe,0xff,0xd3,0x56,0x0a,0xc2,0x10,0x00,0x20,0x60,0x00,0x02,0x00,0x42,0x70,0x87,0xff,0xff,0xf9,0x47,0x18,0x80,0x00,0x00,0x44,0x60,0x20,0x40,0x00,0x40,0x60,0xbc,0xff,0xff,0x63,0x3e,0x04,0x00,0x08,0x20,0x08,0x58,0x5e,0x18,0x18,0x18,0x38,0xd6,0xff,0xff,0x79,0x06,0x08,0x18,0x20,0x08,0x18,0x38,0x18,0x1a,0x18,0x18,0x78,0xee,0xff,0xff,0x6f,0x1e,0x18,0x00,0x10,0x10,0x18,0x08,0x18,0x08,0x18,0x18,0xf8,0x4f,0xff,0x7f,0xf9,0x0f,0x38,0x08,0x18,0x00,0x10,0x19,0x10,0x09,0x18,0x18,0xf8,0xdf,0xfe,0xff,0xf2,0x1a,0x58,0x08,0x18,0x10,0x08,0x40,0x00,0x04,0x02,0x28,0xf0,0xbf,0xff,0xff,0xd4,0x47,0x01,0x80,0x02,0xa0,0x21,0x24,0x21,0x00,0x00,0x00,0xe8,0x8f,0xfe,0xff,0xc0,0x17,0x00,0x40,0x10,0x20,0x42,0xd4,0x22,0x40,0x06,0xc0,0xe2,0xc7,0xff,0x7f,0xe7,0xcb,0x03,0xc6,0x02,0x60,0x87,0x60,0x07,0x40,0x02,0x40,0xfa,0xcf,0xff,0xff,0xef,0xcf,0x03,0x40,0x06,0xe4,0x22,0x80,0x15,0xa0,0x01,0x80,0xf9,0xef,0xff,0xff,0xff,0x9f,0x01,0xe0,0x05,0x80,0x07,0xc0,0x01,0x80,0x07,0xa0,0xf9,0xff,0xff,0xff,0xff,0x9b,0x01,0x80,0x03,0xa0,0x03,0x80,0x07,0xe0,0x01,0xa0,0x71,0xff,0x39,0xe6,0xbf,0xc7,0x01,0x81,0x01,0x90,0x01,0x80,0x09,0xe0,0x01,0xc0,0x63,0xfc,0x67,0x8e,0x7f,0x9c,0x85,0xc0,0x01,0x80,0x03,0xc0,0x22,0x42,0x06,0xc0,0x6f,0xff,0xdf,0xed,0x7f,0x4d,0x23,0x46,0x02,0xc0,0x02,0x25,0x42,0xe0,0x03,0xe4,0x52,0xfe,0xfb,0xde,0xff,0x56,0x06,0x44,0x83,0x44,0x02,0x60,0x06,0x40,0x40,0xa0,0x6c,0xff,0x3f,0x8f,0x3f,0xdd,0x06,0xa0,0x04,0x10,0x01,0x00,0x0a,0x50,0x90,0x00,0x78,0xff,0xff,0xae,0xff,0x9b,0x00,0xc0,0x09,0x61,0x00,0x18,0xd0,0x1a,0x88,0x1a,0xf8,0xfe,0x3a,0xf9,0x3f,0x19,0x08,0x04,0x78,0x0b,0x08,0x00,0x5c,0x16,0x18,0x08,0x50,0xfd,0xb1,0xb9,0x7f,0x1f,0x18,0x18,0xd8,0x1b,0x18,0x10,0xb8,0x0e,0x18,0x58,0x7c,0xff,0xeb,0xfa,0xff,0x1f,0x18,0x18,0x30,0x1c,0x18,0x10,0x78,0x1e,0x18,0x58,0xf8,0xff,0x9f,0x9e,0xff,0x1d,0x18,0x18,0xbc,0x1f,0x08,0x0e,0x78,0x2e,0x06,0x00,0x78,0xff,0x77,0xde,0x3f,0x1f,0x02,0x42,0x38,0x07,0x04,0x00,0xe6,0x1c,0x00,0x00,0xf4,0xfc,0xe3,0xee,0xff,0x0e,0x01,0x00,0x7a,0x0c,0x00,0x00,0xd0,0x03,0x41,0x00,0xfc,0xff,0x7f,0xff,0xff,0x0f,0x00,0x00,0xd8,0x4b,0x00,0x00,0xf8,0x1b,0x14,0x00,0xf8,0xff,0xb7,0xde,0xff,0x1f,0x02,0xc0,0xca,0x0f,0x02,0x00,0xd8,0x03,0x00,0x00,0xcc,0x6b,0x4f,0x7f,0xff,0x0b,0x00,0x00,0xcc,0x0b,0x00,0x00,0xc8,0x07,0x00,0x12,0xd8,0x93,0xfe,0xfa,0xf6,0x3b,0x00,0x00,0xc1,0x43,0x00,0x00,0xf0,0x0b,0x00,0x00,0xd0,0x2b,0x8e,0xf8,0xd0,0x03,0x00,0x00,0xc8,0x1b,0x08,0x00,0xc0,0x23,0x00,0x00,0xe8,0x8f,0x1e,0xf0,0xd8,0x1f,0x00,0x00,0xc0,0x1b,0x02,0x00,0xf8,0x37,0x00,0x80,0xf8,0x4f,0x6f,0x7d,0xdf,0x9b,0x22,0x00,0xfd,0x1f,0x44,0x00,0xf8,0x37,0x08,0x04,0xd0,0xff,0xbe,0xf2,0xfe,0x3f,0x88,0x00,0xe8,0x1f,0x2a,0x60,0x70,0x1d,0x41,0x00,0xf0,0xef,0x7f,0xce,0x73,0x0e,0x00,0x00,0x36,0x1e,0x26,0x04,0x7c,0x2c,0x20,0x40,0x78,0xdf,0xe1,0xbe,0xff,0x2d,0x20,0x40,0x7d,0x0e,0x20,0x38,0x70,0x1f,0x08,0x1c,0x7a,0xfe,0x3f,0x9f,0xf9,0x3f,0x08,0x18,0x78,0x3f,0x18,0x18,0x7c,0x1f,0x08,0x08,0xf8,0xde,0x6b,0xfc,0xf9,0x1f,0x1b,0x10,0x78,0x1f,0x0c,0x18,0xd8,0x19,0x00,0x00,0xf8,0xdb,0x7f,0x4b,0x5f,0x1f,0x10,0x08,0x38,0x13,0x08,0x08,0x98,0x12,0x10,0x18,0xf8,0x3b,0xde,0xda,0xfa,0x1f,0x38,0x18,0x18,0x1b,0x18,0x00,0x08,0x00,0x04,0xc0,0x2c,0x00,0x63,0x26,0x0d,0xe2,0x41,0xa3,0x47,0x22,0x80,0x28,0x42,0x20,0x53,0xca,0xa3,0xb4,0x8a,0x84,0x66,0xa2,0x14,0x00,0x08,0x00,0x04,0xc4,0x02,0xe2,0xd7,0xce,0x06,0xc0,0x42,0x64,0x03,0xe4,0xf7,0xfc,0xe7,0xea,0x07,0xe2,0x47,0xe8,0xeb,0xef,0x22,0x40,0x52,0xc0,0x02,0xe0,0x5b,0xfa,0x07,0xe2,0x26,0x80,0x05,0xc0,0xfb,0x8e,0x03,0x80,0x01,0x80,0x03,0xe8,0xfd,0xff,0x2f,0xeb,0x2d,0xf9,0x79,0xef,0x3d,0xbf,0x03,0xc1,0x01,0x80,0x01,0xe0,0x75,0xee,0x03,0x80,0x01,0xc0,0x25,0xe0,0x71,0x9d,0x01,0xe0,0x01,0xc0,0x01,0xc0,0xff,0xdf,0x39,0xe6,0x73,0xce,0x7f,0xe7,0xf9,0xfe,0x01,0x82,0x03,0xc0,0x01,0xa0,0x3b,0xae,0x13,0xb0,0x01,0x40,0x02,0xe2,0xde,0xf8,0x07,0x64,0x22,0x60,0x43,0xe0,0xdf,0xff,0xfe,0xe6,0xff,0xe6,0x1b,0xc7,0x5f,0xff,0x03,0x42,0x48,0xe4,0x67,0xc0,0x7f,0x7b,0x83,0x44,0x43,0xa0,0x01,0x60,0x3e,0x78,0x68,0x00,0x00,0x20,0x44,0xf4,0xff,0xfd,0xeb,0x59,0x6f,0xff,0xef,0xef,0x2f,0xfd,0x11,0x60,0x42,0xc4,0x21,0x40,0xcf,0xfd,0x07,0x00,0x02,0x08,0x18,0xcc,0x9e,0xfd,0x13,0x18,0x18,0x0c,0x10,0xe8,0xdf,0xfa,0xf3,0x5f,0x1f,0x39,0xfa,0xed,0x7f,0xfb,0x1b,0x38,0x00,0x10,0x48,0x98,0x1f,0x7a,0x19,0x48,0x18,0x18,0x38,0x48,0x7f,0xff,0x1f,0x18,0x18,0x10,0x1c,0xf0,0xff,0xff,0xef,0x2b,0x3f,0xff,0xff,0xb1,0xff,0xff,0x11,0x10,0x08,0x10,0x18,0x58,0x7f,0xff,0x1b,0x10,0x18,0x00,0x00,0xc0,0xf5,0xef,0x45,0x00,0x20,0x10,0xa2,0xe0,0xff,0xff,0xff,0xee,0xbf,0xff,0xbf,0xef,0xff,0xff,0x05,0x40,0x0a,0x12,0x22,0xc4,0xf1,0xff,0x43,0x22,0x00,0x04,0x00,0xc0,0xfb,0xdf,0x07,0x20,0x28,0x04,0x06,0xe0,0xfa,0xff,0x1e,0xfe,0x1a,0xce,0x1f,0xce,0xfb,0xef,0x03,0x00,0x00,0x04,0x00,0x80,0xfb,0xc7,0x03,0x40,0x00,0x00,0x00,0x00,0xfe,0x3f,0x02,0x02,0x00,0x00,0x00,0xe0,0xf9,0xff,0x2d,0xff,0x29,0xeb,0x3f,0x2d,0xfd,0xff,0x03,0x40,0x00,0x02,0x00,0x40,0xf9,0x4f,0x01,0x00,0x00,0x00,0x00,0x80,0xf1,0x8f,0x01,0x80,0x00,0x00,0x80,0x60,0xff,0x9f,0x5e,0xfe,0x84,0xc4,0x3f,0xe5,0xfd,0x3f,0x03,0x00,0x00,0x00,0x00,0x81,0xf2,0x97,0x01,0x04,0x00,0x86,0x00,0xe0,0xf8,0x9f,0x02,0x18,0x80,0x42,0x40,0xe0,0xfb,0xff,0x77,0xfe,0x61,0xc7,0x5f,0xde,0xff,0xef,0xc3,0x01,0x00,0x02,0x00,0x40,0xff,0xef,0x03,0x20,0x02,0x40,0x40,0xc0,0xf7,0x8f,0x43,0x40,0x00,0x20,0x00,0xe0,0xfd,0xef,0x7b,0xff,0x2f,0xef,0xff,0xaf,0xfd,0xe7,0x23,0x64,0x00,0x40,0x02,0xa0,0xf1,0x9f,0x07,0x04,0x00,0x19,0x08,0xd8,0xfd,0xdf,0x19,0x10,0x08,0x06,0x18,0xd8,0xff,0xff,0x5f,0xfe,0x18,0xd6,0x5f,0xdf,0xff,0xff,0x0b,0x10,0x18,0x10,0x18,0x88,0xff,0xdf,0x3b,0x18,0x19,0x10,0x18,0x48,0xde,0xfe,0x32,0x1c,0x18,0x02,0x19,0xf8,0xff,0xff,0xff,0xff,0x7f,0xff,0xff,0xef,0xff,0xff,0x1f,0x10,0x18,0x18,0x1c,0x6c,0xff,0x7b,0x1b,0x18,0x08,0x10,0x05,0x62,0xdf,0xf4,0x82,0x92,0x04,0x08,0x17,0x48,0xff,0xff,0xff,0x67,0x7f,0xfe,0xed,0xff,0xff,0xff,0x05,0xc0,0x06,0x40,0x20,0x00,0xbf,0xfc,0x27,0x00,0x04,0xe2,0x06,0x60,0xff,0xfa,0x02,0x40,0x03,0x64,0x27,0xd0,0x5f,0xff,0xff,0x45,0xcf,0xfe,0xf2,0xff,0xef,0x7f,0x0f,0xc2,0x23,0xe0,0x22,0xe4,0xdf,0x7a,0x07,0x60,0x0f,0xc0,0x03,0xa0,0x7f,0xcc,0x03,0xa4,0x43,0xa0,0x01,0xe0,0xff,0xfd,0xff,0xa9,0x2f,0xf9,0xf9,0xff,0xbf,0xff,0x23,0x80,0x03,0xc0,0x01,0xa0,0xfb,0xfe,0x07,0x80,0x13,0xc0,0x03,0xe0,0x75,0xed,0x01,0x80,0x01,0x80,0x01,0xc0,0x7f,0xfe,0xff,0xc7,0x5d,0xef,0xff,0xff,0x3f,0xff,0x03,0x80,0x01,0x80,0x01,0xe0,0x3b,0xc6,0x03,0xa0,0x01,0x40,0x07,0xc0,0xdb,0xfb,0x02,0x60,0x06,0x50,0x03,0xc0,0x7f,0xff,0xff,0xef,0x9e,0xee,0xfb,0xff,0x5f,0xef,0x2b,0x40,0x03,0x60,0x87,0x64,0x7b,0x4a,0x26,0xc6,0x22,0x80,0x00,0xc0,0x87,0xd5,0x03,0x24,0x00,0x20,0x0a,0x60,0x6d,0xff,0xff,0xe9,0xef,0x3b,0xed,0xff,0x2f,0x6b,0x0b,0x0c,0x00,0x60,0x04,0x30,0x19,0x38,0x03,0x00,0x00,0x10,0x98,0x52,0x18,0x18,0x7c,0x52,0x18,0x00,0x78,0x5b,0x19,0xfd,0xff,0x9f,0x18,0x1c,0xf2,0xff,0x3f,0x48,0x58,0x32,0x08,0x10,0x68,0x5a,0x14,0x18,0x4c,0x4e,0x08,0x18,0xf8,0x1e,0x08,0x18,0xb8,0x1f,0x08,0x08,0x78,0x7c,0xaf,0xfd,0xff,0xbf,0x79,0x5f,0xf9,0xff,0xbf,0x5f,0xfb,0x0d,0x08,0x10,0x78,0x0e,0x18,0x30,0xf8,0x1e,0x18,0x00,0x70,0x4c,0x00,0x20,0xf0,0x3c,0x20,0x10,0x30,0xef,0x3f,0xff,0xff,0xef,0x79,0x6f,0xf9,0xff,0x1f,0xee,0x22,0x0d,0x22,0x08,0x38,0x1f,0x04,0x00,0x30,0x5e,0x08,0x00,0xf8,0x17,0x40,0x02,0xd0,0x1f,0x42,0x00,0xdb,0xcf,0x1d,0xfe,0xff,0xff,0x30,0xc6,0xfc,0xff,0xbf,0xe6,0xd8,0x3b,0x24,0x40,0xc8,0x3f,0x21,0x20,0xf8,0x1f,0x04,0x00,0xd0,0x1b,0x40,0x00,0xc0,0x4b,0x00,0x00,0xd0,0xb3,0x6f,0xfd,0xff,0x2f,0x3f,0x7c,0xed,0xff,0x3f,0x3f,0xc1,0x17,0x00,0x00,0xd0,0x0b,0x00,0x00,0xf4,0x0b,0x00,0x00,0xc8,0x07,0x00,0x00,0xc0,0x13,0x00,0x00,0xe8,0x2b,0x1f,0xfc,0xff,0xfb,0x2f,0x7c,0xec,0xff,0x0f,0xfe,0xd8,0x13,0x00,0x88,0xd0,0x13,0x10,0x00,0xc4,0x03,0x08,0x00,0xf0,0x1b,0x00,0x22,0xf9,0x7b,0x00,0x00,0xc8,0x5b,0x6f,0xfe,0xff,0x9f,0xef,0x7c,0xed,0xff,0x5f,0xbe,0xdb,0x1b,0x40,0x06,0xf8,0x0f,0x20,0x00,0xe8,0x5f,0x22,0x40,0x78,0x4d,0x00,0x00,0x60,0x5e,0x08,0x58,0x70,0x6c,0xff,0xff,0xff,0xbf,0x6f,0xff,0xff,0xff,0x3f,0xff,0xf9,0x0e,0x00,0x50,0x30,0x0e,0x00,0x42,0x70,0x0c,0x10,0x18,0x78,0x1c,0x08,0x10,0xfc,0x1e,0x0a,0x10,0x58,0xde,0xf8,0xd7,0xf8,0xff,0xff,0xff,0xff,0xde,0xfa,0xff,0xfc,0x1e,0x08,0x10,0xf8,0x1d,0x08,0x18,0x7c,0x1f,0x18,0x18,0x58,0x1f,0x18,0x0a,0xd8,0x19,0x18,0x38,0x38,0xea,0xfd,0xff,0x7f,0xff,0xff,0xff,0xff,0xbf,0xfb,0xef,0xd9,0x1a,0x09,0x30,0x30,0x3f,0x18,0x18,0x58,0x1a,0x10,0x00,0x02,0xc0,0x02,0xa0,0x18,0x02,0x00,0xe2,0x00,0x60,0xf8,0x67,0x2b,0xff,0xff,0xff,0x3f,0x74,0xf9,0x2f,0x03,0x20,0x21,0x84,0x04,0xc0,0x06,0x46,0x01,0x20,0x00,0xc4,0x06,0x60,0x27,0x40,0x02,0xc4,0x62,0x40,0x02,0x60,0xf7,0x67,0x47,0xff,0xff,0xff,0xdf,0xf2,0xfa,0x67,0x26,0x40,0x07,0x42,0x02,0xc0,0x02,0x40,0x17,0x60,0x02,0xc0,0x01,0x80,0x01,0xa0,0x01,0x80,0x05,0x80,0x83,0xb0,0xfd,0xef,0x2d,0xff,0xff,0xff,0x3f,0xad,0xff,0xaf,0x03,0x81,0x01,0x80,0x01,0x80,0x03,0x80,0x21,0x80,0x01,0x88,0x07,0xc0,0x03,0xc0,0x03,0xc0,0x05,0xc0,0x01,0xe0,0xfb,0xe7,0x7f,0xff,0xff,0xff,0xff,0xce,0xff,0xcf,0x43,0xc8,0x01,0xa0,0x23,0x80,0x01,0xa0,0x01,0x80,0x01,0xc4,0x07,0x60,0x16,0x60,0x02,0x42,0x26,0x42,0x23,0xc0,0xfd,0xef,0x7b,0xff,0xff,0xff,0xff,0xc7,0xfe,0xdf,0x27,0x40,0x02,0x40,0x02,0xf0,0x03,0x60,0x22,0xe8,0x02,0x00,0x00,0x00,0x00,0x20,0x02,0x02,0x02,0x00,0x00,0x20,0x2f,0xff,0xeb,0xff,0xff,0xff,0xff,0x2d,0xaf,0xfd,0x03,0x00,0x00,0x0c,0x00,0x42,0x04,0x04,0x01,0x80,0x82,0x08,0x18,0x18,0x18,0x18,0x1c,0x18,0x18,0x00,0x38,0x08,0x7f,0x7d,0xfa,0xff,0xff,0xff,0xff,0x49,0x7f,0x3c,0x1b,0x18,0x18,0x08,0x10,0x18,0x30,0x08,0x18,0x10,0x58,0x18,0x0c,0x18,0x00,0x00,0x00,0x18,0x08,0x18,0x08,0x68,0x3f,0xfd,0xfd,0xff,0xff,0xff,0xff,0x69,0xef,0x7f,0x03,0x48,0x08,0x18,0x00,0x20,0x20,0x00,0x10,0x38,0x18,0x00,0x00,0x04,0x20,0x00,0x40,0x04,0x40,0x00,0x24,0xd1,0xbf,0xfe,0xff,0xff,0xff,0xff,0x7f,0xff,0x3c,0xff,0x03,0x18,0x02,0x24,0x00,0x00,0x40,0x26,0x00,0x04,0x04,0xc6,0x00,0x04,0x00,0x00,0x01,0x20,0x00,0x00,0x02,0xe0,0x38,0xe6,0x58,0xff,0xff,0xff,0x7f,0xe7,0x18,0xeb,0x00,0x01,0x20,0x04,0x00,0x00,0x00,0x01,0x02,0x40,0x02,0x00,0x00,0x00,0x00,0x00,0x00,0x00,0x00,0x00,0x00,0x60,0x2d,0x2d,0x6d,0xff,0xff,0xff,0x3f,0x2f,0x4d,0xef,0x03,0x00,0x00,0x04,0x00,0x01,0x00,0x00,0x00,0x40,0x00,0x00,0x00,0x00,0x20,0x00,0x10,0x00,0x00,0x00,0x00,0x60,0x04,0x4c,0xa2,0xff,0xff,0xff,0x3f,0x64,0x80,0xe1,0x00,0x00,0x00,0x10,0x00,0x00,0x00,0x00,0x00,0x00,0x00,0x00,0x40,0x00,0x00,0x00,0x2c,0x00,0x40,0x44,0x20,0xe0,0xd2,0x2e,0x4c,0xff,0xff,0xff,0xbf,0x64,0x81,0x27,0x02,0x00,0x04,0x40,0x00,0x20,0x00,0x20,0x54,0x20,0x00,0x60,0x06,0x40,0x05,0x66,0x40,0x08,0x40,0x02,0x02,0xf0,0xff,0x6f,0x6d,0xff,0xff,0xff,0xbf,0xaf,0xaf,0xeb,0x03,0x00,0x06,0x00,0x04,0x00,0x44,0x42,0x02,0x00,0x40,0x11,0x18,0x18,0x08,0x10,0x38,0x1a,0x10,0x20,0x18,0xe8,0x7a,0xdf,0x70,0xff,0xff,0xff,0x9f,0xce,0x39,0xd6,0x08,0x02,0x10,0x08,0x18,0x08,0x18,0x0c,0x00,0x94,0x18,0x20,0x10,0x18,0x10,0x08,0x18,0x10,0x10,0x18,0x18,0xe8,0xbf,0xff,0xfb,0xff,0xff,0xff,0xbf,0xef,0x7f,0xff,0x10,0x98,0x18,0x08,0x50,0x18,0x18,0x10,0x00,0x18,0x1c,0x00,0x09,0x20,0x00,0x42,0x03,0x00,0x01,0x00,0x00,0x40,0x6f,0x3e,0xe9,0xff,0xff,0xff,0xff,0x69,0x0f,0xfa,0x23,0x44,0x06,0x00,0x94,0x10,0x00,0x04,0x00,0x20,0x00,0x44,0x23,0xc4,0x23,0x40,0x02,0xc0,0x02,0x20,0x23,0x40,0x6f,0x7e,0xea,0xff,0xff,0xff,0xff,0x6b,0x6f,0xfe,0x02,0x40,0x62,0x80,0x02,0x00,0x27,0x40,0x23,0xe0,0x02,0xc0,0x11,0xa0,0x05,0xa0,0x07,0xc0,0x01,0x80,0x49,0xe8,0x6f,0xb9,0xef,0xff,0xff,0xff,0xff,0xed,0x2f,0xfd,0x05,0x81,0x03,0x80,0x03,0xc0,0x07,0x80,0x03,0xc0,0x01,0x80,0x85,0x80,0x41,0x90,0x01,0x80,0x01,0xa0,0x83,0xe0,0xf1,0xef,0x3b,0xff,0xff,0xff,0x1f,0xce,0xff,0xef,0x01,0x80,0x03,0x80,0x03,0xa0,0x03,0xc0,0x03,0x80,0x03,0x44,0x03,0xc0,0x02,0x00,0x42,0x40,0x5a,0x68,0x02,0xc0,0xfe,0xe7,0xb6,0xff,0xff,0xff,0x1f,0xe7,0xfe,0xff,0x03,0xe6,0x06,0x40,0x13,0x40,0x46,0x40,0x06,0xe0,0x42,0x00,0x04,0x80,0x06,0x24,0x02,0x04,0x0c,0xe0,0xc3,0xe0,0xfd,0x4f,0xe3,0xff,0xff,0xff,0xbf,0x7d,0xfb,0xaf,0x03,0x30,0x01,0x00,0x40,0x44,0x29,0x20,0x40,0x03,0x06,0x18,0x58,0x1b,0x08,0x98,0x68,0x1c,0x14,0x00,0x18,0x1a,0xf9,0xbf,0xfd,0xff,0xff,0xff,0x7f,0x18,0xfc,0x2f,0x3a,0x0a,0x18,0x18,0x50,0x1d,0x08,0x10,0x78,0x1a,0x00,0x18,0xf8,0x1f,0x18,0x10,0xf8,0x1e,0x18,0x00,0x78,0xbb,0xff,0x7f,0xbd,0xff,0xff,0xff,0xdf,0xbf,0xf9,0x7f,0x59,0x3e,0x18,0x18,0xf8,0x1f,0x18,0x10,0xf8,0x1f,0x50,0x20,0x72,0x0c,0x04,0x00,0x70,0x2e,0x10,0x60,0x32,0xcc,0xfd,0xef,0xbe,0xff,0xff,0xff,0xbf,0xdf,0xfb,0xcf,0x31,0x0e,0x00,0x00,0x7c,0x0e,0x00,0x20,0xf0,0x0e,0x02,0x00,0xd0,0x17,0x02,0x20,0xd0,0x1f,0x00,0x00,0xf8,0xcf,0xf4,0xdf,0xfb,0xff,0xff,0xff,0xff,0xef,0xfc,0xe7,0xf0,0x1f,0x00,0x00,0xf8,0x1b,0x02,0x00,0xf9,0x3f,0x00,0x00,0xc8,0x0b,0x00,0x00,0xe8,0x0f,0x00,0x00,0xc0,0x33,0xef,0xf9,0xff,0xff,0xbf,0xfd,0xff,0xff,0x2f,0xbd,0xc1,0x13,0x00,0x40,0xdc,0x1f,0x00,0x00,0xc0,0x13,0x00,0x00,0xd0,0x07,0x00,0x00,0xc0,0x1b,0x00,0x02,0xd0,0x43,0x4f,0xfc,0xff,0x1b,0x2f,0x3e,0xec,0xff,0xaf,0x3a,0xc8,0x53,0x00,0x02,0xe0,0x1f,0x00,0x00,0xc2,0x1b,0x00,0x20,0xf0,0x1f,0x00,0x40,0xdc,0x5f,0x00,0x40,0xcc,0xdb,0x1f,0xfd,0xff,0x73,0x6f,0x7f,0xfe,0xff,0x8f,0xfc,0xf9,0x1f,0x20,0x08,0xd8,0x1b,0x24,0x20,0xc8,0x0b,0x00,0x00,0x3a,0x0d,0x40,0x10,0x32,0x0f,0x00,0x00,0x78,0xfd,0xbf,0xfc,0xff,0xed,0xaf,0xff,0xf9,0xff,0x7f,0x7f,0x71,0x0e,0x05,0x50,0xb0,0x1e,0x00,0x00,0x30,0x26,0x48,0x10,0x79,0x1f,0x18,0x09,0xf8,0x1f,0x18,0x18,0x78,0xdc,0x78,0xfe,0xff,0xdf,0x38,0xf6,0xfd,0xff,0x3f,0xf6,0x39,0x1f,0x08,0x18,0xb8,0x1e,0x08,0x18,0x68,0x1e,0x18,0x10,0xd8,0x1c,0x88,0x10,0x70,0x1b,0x3c,0x10,0xc8,0xfa,0xff,0xfd,0xff,0xbf,0x7d,0x7f,0xed,0xff,0x3f,0xfb,0x5b,0x1a,0x10,0x10,0x58,0x18,0x08,0x00,0x9c,0x1b,0x14,0x00,0x00,0x00,0x82,0x84,0x01,0x20,0x02,0x00,0x04,0xa0,0x7b,0xfc,0xff,0x7d,0xeb,0x61,0xef,0xff,0x6f,0xe7,0x23,0x20,0x40,0x42,0x52,0xe0,0x70,0x28,0x02,0x28,0x00,0xc0,0x06,0xc0,0xfa,0xd2,0x23,0x60,0x27,0xc4,0x06,0xc0,0xfa,0xf8,0xff,0xe9,0x2e,0x55,0xe7,0xff,0xdf,0x6a,0x03,0x40,0x02,0x60,0x03,0x64,0x5b,0xcb,0x47,0xc2,0x02,0xd0,0x07,0xc0,0xf9,0xae,0x07,0x80,0x81,0xc0,0x01,0xd0,0x79,0xff,0xff,0xe9,0x79,0xa9,0xef,0xff,0x7f,0xef,0x01,0xc0,0x03,0xc0,0x01,0xa0,0x31,0xd6,0x01,0xc0,0x01,0xc2,0x03,0x80,0x53,0x9e,0x07,0xa0,0x01,0x80,0x01,0xe0,0x7f,0xfe,0xff,0xc7,0x3f,0xc6,0xff,0xff,0x3f,0xff,0x03,0x88,0x03,0x80,0x01,0xe0,0x77,0xf6,0x07,0xc0,0x01,0xe0,0x0f,0xc0,0x5f,0xfe,0x07,0x44,0x07,0x42,0x22,0xe2,0xff,0xff,0xff,0xff,0x57,0xff,0xff,0xff,0xff,0xff,0x03,0x48,0x03,0xc4,0x04,0x60,0x4f,0x7a,0x22,0x60,0x02,0x60,0x04,0x20,0x1e,0xf2,0x25,0x60,0x02,0x80,0x80,0xe0,0x7f,0xfd,0xff,0xe9,0xaf,0x7d,0xef,0xff,0xaf,0xff,0x03,0x84,0x00,0x80,0x20,0x80,0x6e,0x7c,0x26,0x0a,0x00,0x18,0x18,0xda,0xdf,0xff,0x1a,0x08,0x10,0x00,0x18,0x88,0x5f,0xfb,0xff,0x99,0x1f,0xfd,0xf8,0xff,0x7f,0x79,0x1a,0x18,0x14,0x18,0x18,0x58,0x5f,0xfb,0x1e,0x18,0x10,0x18,0x18,0x90,0xff,0xdf,0x19,0x0a,0x18,0x10,0x10,0xf8,0xff,0xff,0xff,0xa9,0xaf,0x7d,0xe9,0xff,0x7f,0xff,0x13,0x1c,0x0c,0x10,0x08,0xa0,0xfb,0xa7,0x19,0x00,0x38,0x00,0x22,0x9a,0xf9,0xaf,0x03,0x62,0x50,0x00,0x00,0xe0,0xff,0xff,0xff,0xff,0xbc,0xff,0xff,0xff,0xfd,0xff,0x07,0x00,0x00,0x63,0x20,0xc0,0xf1,0xef,0x41,0x02,0x02,0x00,0x00,0x44,0xfe,0x5f,0x82,0x00,0x24,0x00,0x00,0xc0,0xff,0xff,0xfa,0xfe,0x3e,0xc6,0x7f,0xee,0xfb,0xdf,0x03,0x44,0x24,0x00,0x00,0x44,0xff,0x5f,0x57,0x04,0x00,0x00,0x00,0x80,0xe0,0x9f,0x00,0x00,0x01,0x00,0x00,0xe2,0xff,0xef,0x6d,0xff,0x2d,0xed,0x3f,0xec,0xff,0xef,0x03,0x00,0x00,0x00,0x08,0xa0,0xf8,0x2f,0x01,0x00,0x40,0x00,0x10,0xc0,0xe0,0xdf,0x02,0x00,0x00,0x08,0x00,0xe0,0xfe,0xdf,0x06,0xfe,0x62,0xe0,0x1f,0x80,0xfc,0xb7,0x02,0x00,0x00,0x00,0x00,0x40,0xf8,0xbf,0x03,0x00,0x00,0x02,0x20,0xc0,0xff,0xef,0x03,0x00,0x20,0x20,0x01,0xe0,0xfb,0x6f,0x0f,0xfe,0x7e,0xf4,0x7f,0xc7,0xfb,0x5f,0x43,0x00,0x00,0x04,0x02,0xe0,0xfb,0xdf,0x07,0x40,0x00,0x20,0x04,0xc0,0xf7,0xaf,0x07,0x00,0x02,0x00,0x82,0xa0,0xff,0xff,0xb9,0xff,0x3d,0xef,0xbf,0xff,0xfb,0xf7,0x41,0x02,0x44,0x02,0x22,0x82,0xf1,0x8f,0x03,0x20,0x10,0x10,0x1a,0xc8,0xfe,0xdf,0x13,0x18,0x1c,0x1a,0x08,0xf0,0xff,0xff,0x3b,0xfe,0x3a,0xde,0x5f,0xdf,0xff,0xff,0x03,0x18,0x18,0x12,0x18,0xf0,0xfe,0xff,0x1a,0x10,0x18,0x10,0x3c,0x50,0x5e,0xfb,0x5b,0x1e,0x08,0x14,0x18,0xe8,0xff,0xff,0xff,0xff,0x3f,0xff,0xfc,0xef,0xff,0xff,0x03,0x18,0x14,0x00,0x18,0x98,0x7f,0x7f,0x1a,0x18,0x18,0x00,0x05,0x80,0x1e,0xf9,0x27,0x80,0x20,0x10,0x05,0x62,0x3f,0xfe,0xf8,0xff,0x0f,0xfc,0xee,0x5f,0xbf,0x7d,0x03,0xa0,0x00,0xa0,0x00,0xc0,0x3f,0x78,0x07,0x30,0x05,0x60,0x06,0xe8,0x5f,0xff,0x03,0x40,0x02,0xc0,0x62,0xe6,0x7f,0x7e,0xe7,0x4f,0x6f,0xfc,0xe6,0xe1,0x5f,0xff,0x03,0x40,0x03,0x40,0x02,0xc0,0x7f,0x7f,0x07,0x41,0x07,0x80,0x05,0x80,0x7d,0xcf,0x05,0x80,0x8b,0x90,0x03,0xe0,0xbf,0xff,0xef,0xa9,0x37,0xfd,0xef,0xad,0x7f,0xff,0x05,0x80,0x03,0xc0,0x01,0xa0,0xb3,0x9e,0x05,0xc0,0x01,0xa0,0x01,0x80,0xf9,0xce,0x03,0x81,0x01,0xc0,0x01,0xe1,0xff,0xff,0xff,0xc6,0x3d,0xc6,0xb9,0xee,0xff,0xfe,0x01,0x80,0x07,0x80,0x01,0xc0,0x39,0xff,0x05,0x80,0x03,0xe0,0x03,0x42,0xf7,0xde,0x4f,0xd0,0x02,0x60,0x07,0xe0,0xfe,0xcf,0xfb,0xfe,0xff,0xff,0x7f,0xd7,0xfb,0xff,0x03,0xc0,0x03,0xc4,0x06,0xe4,0x5b,0xeb,0x07,0x42,0x02,0x00,0x10,0x05,0x10,0x00,0x01,0x20,0x00,0x00,0x41,0xa0,0xed,0xed,0x6f,0xff,0x2d,0x2d,0x6d,0xef,0x6b,0x7d,0x6b,0x00,0x42,0x6a,0x53,0x30,0x0c,0x27,0x04,0x04,0x42,0x18,0x3c,0x7a,0x18,0x18,0xb8,0x1f,0x7c,0x70,0x3d,0x3a,0x40,0x18,0x38,0x2e,0x10,0x58,0x48,0x53,0x18,0x58,0xf8,0x9f,0x96,0xdf,0xda,0x1e,0x18,0x18,0x58,0x1a,0x10,0x1a,0xf8,0x1e,0x18,0x18,0xfc,0xbf,0x9e,0xde,0xfa,0x1f,0x08,0x10,0xb8,0x1f,0x18,0x18,0xf8,0x1f,0x08,0x10,0xf8,0xbe,0xff,0x8e,0x79,0x1e,0x18,0x18,0xf8,0x1e,0x18,0x40,0xe0,0x0e,0x20,0x00,0xfc,0xdf,0x6b,0x8c,0x6f,0x0f,0x20,0x00,0x79,0x06,0x00,0x40,0x78,0x1f,0x00,0x10,0x70,0xbf,0x77,0xfe,0xfb,0x3f,0x06,0x40,0x34,0x05,0x00,0x00,0xd8,0x13,0x42,0x00,0xfa,0xcf,0xfd,0xfc,0xef,0x1f,0x00,0x00,0xe8,0x07,0x02,0x20,0xfa,0x0f,0x00,0xc6,0xf8,0x9f,0xde,0xfe,0xde,0x1f,0x00,0x0a,0xd8,0x0f,0x20,0x00,0xf0,0x07,0x00,0x00,0xf8,0xf7,0xfe,0xf2,0xde,0x37,0x00,0x00,0xc0,0x13,0x08,0x00,0xd0,0x0b,0x40,0x00,0xc8,0x1f,0x0e,0xf3,0xcc,0x07,0x00,0x02,0xc0,0x07,0x00,0x00,0xd0,0xc7,0x40,0x00,0xe8,0x0b,0x1e,0xf0,0xc0,0x1b,0x00,0x00,0xc8,0x03,0x00,0x00,0xf0,0x0f,0x00,0x00,0xf8,0xf7,0xde,0xf4,0xd6,0x17,0x00,0x00,0xe0,0x13,0x00,0x00,0xda,0x3b,0x08,0x60,0xd8,0x9f,0xbe,0xf6,0xfe,0x33,0x00,0x42,0xf8,0x4f,0x00,0x80,0xd0,0x03,0xa0,0x64,0xf8,0xff,0xff,0xfc,0xff,0x3f,0x00,0x11,0xf8,0x1b,0x00,0x04,0x70,0x4e,0x01,0x02,0x78,0xfe,0xef,0xfe,0xff,0x1f,0x00,0x10,0xb0,0x16,0x2a,0x40,0x32,0x1c,0x00,0x20,0x78,0xfe,0x7f,0xce,0xff,0x2c,0x00,0x00,0x38,0x26,0x02,0x10,0xf8,0x0d,0x4a,0x18,0xfc,0xff,0xef,0xfe,0xff,0x3f,0x14,0x18,0xfc,0x1e,0x08,0x18,0xb8,0x3e,0x10,0x00,0xf8,0xff,0xfd,0xfa,0xff,0x1f,0x18,0x18,0x38,0x1e,0x18,0x38,0xd8,0x1a,0x18,0x00,0xd8,0xff,0xdf,0xda,0xff,0x3e,0x18,0x00,0x58,0x1f,0x18,0x08,0x58,0x3e,0x08,0x08,0x78,0xff,0xfb,0x9a,0xff,0x1f,0x18,0x08,0xf8,0x1f,0x18,0x00,0x86,0x52,0x00,0x00,0xf0,0xff,0x8d,0xa0,0xff,0x42,0x00,0x30,0x61,0x00,0x00,0x44,0x00,0x52,0x23,0xe0,0x18,0xfd,0x65,0x82,0xff,0x1b,0x00,0x00,0x20,0x09,0x00,0xc2,0x02,0x44,0x0e,0x46,0x82,0xfe,0x3b,0xfa,0xff,0xce,0x06,0x64,0x03,0x60,0x06,0x46,0x02,0xe0,0x02,0x40,0xd2,0xfe,0xd7,0xde,0xff,0x72,0x22,0xe0,0x03,0xe4,0x0a,0x80,0x03,0x80,0x03,0xa0,0xb7,0xff,0xf3,0xde,0xff,0xce,0x01,0x80,0x07,0x80,0x01,0xa0,0x05,0x80,0x05,0x80,0x65,0xff,0xf7,0x8e,0x7f,0x8d,0x05,0x80,0x03,0x80,0x03,0x80,0x01,0x80,0x41,0x80,0x61,0xfc,0xff,0x8f,0x7f,0xee,0x03,0x80,0x03,0x80,0x03,0xc0,0x01,0xc8,0x01,0xc0,0xf9,0xff,0xff,0xff,0xff,0xdf,0x01,0x80,0x01,0xc0,0x01,0x60,0x43,0xc0,0x26,0x44,0xfa,0xff,0xfe,0xff,0xff,0xd3,0x23,0x44,0x02,0x64,0x22,0x40,0x02,0xe4,0x06,0x60,0xd1,0x6f,0xff,0xff,0xee,0xf3,0x0e,0xc0,0x03,0x46,0x42,0xe0,0x00,0x00,0x06,0x10,0xf0,0xc7,0xfe,0xff,0xcc,0x17,0x0c,0x24,0x10,0x40,0xa0,0x80,0x07,0x80,0x40,0x08,0xe8,0x27,0xfe,0xff,0x88,0xaf,0x0a,0x60,0x00,0x70,0x20,0x08,0x51,0x18,0x10,0x0c,0xb8,0xbf,0xfe,0xff,0xdc,0x9b,0x18,0x18,0x18,0x58,0x18,0x38,0x18,0x2c,0x18,0x18,0xb8,0x9f,0xfe,0xff,0x96,0x3f,0x10,0x18,0x18,0x08,0x18,0x18,0x18,0x18,0x10,0x00,0xf8,0x9f,0xfe,0xff,0xda,0x37,0x10,0x18,0x18,0x18,0x38,0x18,0x18,0x18,0x08,0x18,0xfc,0x9c,0xff,0xff,0xfd,0x1e,0x18,0x08,0x28,0x70,0x18,0x00,0x00,0xc0,0x01,0x00,0xe8,0xee,0xff,0xff,0xfb,0x0c,0x02,0x00,0x48,0x40,0x04,0x20,0x00,0x20,0x40,0x06,0xe2,0x8e,0xff,0xff,0xe3,0x1e,0x20,0x08,0x08,0x00,0x00,0x00,0x20,0x00,0x00,0x10,0xe0,0xde,0xff,0xff,0xe5,0x1e,0x00,0x05,0x00,0x00,0x20,0x04,0x00,0x44,0x04,0x04,0xd8,0x93,0xfe,0xff,0x96,0x12,0x00,0x40,0x64,0x04,0x02,0x00,0x00,0x00,0x00,0x05,0x80,0xd6,0xfe,0xff,0x97,0x16,0x00,0x00,0x00,0x40,0x00,0x20,0x02,0x00,0x00,0x00,0x50,0x40,0xfe,0xff,0x40,0x31,0x00,0x01,0x02,0x00,0x00,0x00,0x02,0x00,0x10,0x00,0x20,0x0c,0xfe,0xff,0x44,0x10,0x00,0x00,0x01,0x00,0x00,0x10,0x00,0x00,0x00,0x00,0x90,0xb7,0xfe,0xff,0xf6,0x3a,0x00,0x00,0x00,0x00,0x00,0x04,0x40,0x20,0x04,0x00,0xf0,0xd6,0xfe,0xff,0x97,0x26,0x50,0x00,0x40,0x10,0x06,0x04,0x00,0x01,0x60,0x04,0x68,0xea,0xff,0x7f,0xf5,0x1e,0x02,0x00,0x00,0x00,0x40,0x00,0x20,0x40,0x00,0x42,0x68,0xef,0xff,0xff,0xff,0x0e,0x02,0x42,0x22,0x00,0x42,0x00,0x00,0x00,0x40,0x02,0x68,0xce,0xff,0xff,0x6f,0x0e,0x00,0x46,0x00,0x02,0x00,0x18,0x90,0x10,0x18,0x08,0x70,0xbe,0xff,0xff,0xff,0x0c,0x08,0x00,0x10,0x00,0x38,0x18,0x18,0x18,0x18,0x18,0xd0,0x9f,0xff,0xff,0xd2,0x1f,0x10,0x18,0x10,0x04,0x14,0x01,0x10,0x08,0x19,0x18,0xd8,0xff,0xfe,0xff,0xda,0x3f,0x10,0x10,0x38,0x08,0x18,0x18,0x18,0x18,0x08,0x18,0xd8,0xfb,0xfe,0xff,0xd6,0x3f,0x10,0x58,0x08,0x38,0x18,0x10,0x00,0x00,0x02,0x00,0xc8,0xe3,0xfe,0xff,0xc0,0x73,0x06,0x60,0x60,0xd0,0x41,0x00,0x04,0x04,0x00,0x00,0xc9,0xcb,0xfe,0xff,0xf4,0x5b,0x12,0x40,0x12,0x70,0x05,0x42,0x52,0xc8,0x06,0x60,0xca,0xcf,0xff,0xff,0xde,0x7f,0x02,0x40,0x0b,0x40,0x01,0x60,0x06,0xc0,0x03,0x40,0xf3,0xd7,0xff,0xff,0xfb,0xdf,0x06,0xf0,0x02,0x50,0x62,0xa2,0x05,0xc0,0x21,0xe0,0xf3,0xbf,0xff,0xff,0xff,0xdf,0x05,0xc0,0x0b,0xc0,0x01,0x88,0x01,0xc0,0x47,0xa0,0x63,0xfc,0x75,0xdc,0x7f,0x9c,0x01,0xc0,0x07,0x80,0x03,0xc0,0x01,0x80,0x01,0xa0,0x61,0xfc,0xe7,0x8c,0xff,0x8c,0x45,0x80,0x07,0xc0,0x05,0x80,0x05,0xc0,0x05,0x80,0xf1,0xfe,0xff,0xf6,0xff,0x9e,0x05,0xc0,0x83,0x81,0x03,0x40,0x03,0x56,0x26,0x40,0xd7,0xff,0xff,0xda,0xff,0x5e,0x07,0x64,0x02,0xc6,0x03,0x44,0x06,0xe6,0x06,0x44,0x3a,0xfe,0xa7,0xce,0xff,0x7e,0x03,0xe0,0x02,0x40,0x02,0x20,0x04,0x62,0x07,0x20,0xd6,0xfe,0x17,0x55,0x7f,0x76,0x46,0x20,0x40,0x02,0x40,0x40,0x68,0x22,0x02,0x80,0x58,0xfc,0x83,0xa7,0xff,0x8c,0x01,0x04,0x32,0x36,0x00,0x28,0x59,0x1a,0x18,0x18,0x78,0xfe,0x7f,0x9c,0x7f,0x1d,0x18,0x18,0x79,0x1a,0x00,0x10,0xdc,0x3b,0x18,0x18,0xd8,0xfe,0xdb,0xde,0xff,0x1a,0x18,0x28,0x78,0x0a,0x10,0x18,0xf8,0x3e,0x00,0x18,0xfc,0xfe,0xdf,0xd2,0xff,0x3e,0x18,0x18,0x38,0x3e,0x1c,0x10,0xf8,0x1f,0x1a,0x18,0xf8,0xff,0xff,0xfe,0xff,0x0e,0x38,0x38,0x38,0x1e,0x18,0x00,0xf2,0x2c,0x00,0x00,0x7e,0xfd,0x7b,0x9e,0xff,0x3c,0x00,0x00,0x70,0x1f,0x08,0x04,0xf8,0x6c,0x20,0x00,0xfa,0xff,0xf7,0xfe,0xff,0x2d,0x00,0x40,0x70,0x0f,0x22,0x40,0xf8,0x3b,0x00,0x00,0xf8,0xff,0x7f,0xff,0xff,0x2f,0x20,0x10,0xca,0x0b,0x20,0x00,0xda,0x5b,0x02,0x20,0xf8,0xfb,0xde,0xfa,0xff,0x3f,0x80,0x00,0xd8,0x1b,0x00,0x00,0xd0,0x0b,0x00,0x00,0xf8,0xd3,0x7e,0xf6,0xda,0x1b,0x00,0x00,0xc8,0x03,0x00,0x20,0xd0,0x13,0x00,0x00,0xd9,0x13,0x1e,0xf0,0xc7,0x1f,0x00,0x00,0xd0,0x23,0x00,0x00,0xd8,0x17,0x00,0x00,0xd8,0x03,0x1e,0xf6,0xc8,0x03,0x00,0x00,0xe8,0x1f,0x00,0x00,0xc8,0x03,0x00,0x00,0xd0,0xff,0xde,0xf2,0xf2,0x13,0x04,0x80,0xf0,0x1b,0x00,0x00,0xf8,0x1f,0x02,0x04,0xf8,0xdf,0xff,0xfe,0xde,0x1f,0x20,0x00,0xe3,0x1b,0x42,0x00,0xf0,0x5f,0x02,0x20,0xf0,0x9f,0xfb,0xef,0xff,0x1f,0x20,0x00,0xf8,0x1b,0x02,0x10,0x38,0x0e,0x00,0x20,0x78,0xfe,0x63,0xfe,0x75,0x2f,0x00,0x00,0x74,0x0e,0x02,0x04,0x30,0x0d,0x10,0x00,0x72,0xce,0xff,0x0e,0xfb,0x5e,0x40,0x20,0xb0,0x0c,0x00,0x58,0x78,0x1e,0x18,0x3c,0xf8,0xbe,0xe9,0xfe,0xff,0x1c,0x18,0x1a,0xf8,0x1e,0x08,0x18,0xfa,0x1f,0x18,0x10,0xf8,0xdf,0xda,0xdb,0xbf,0x1e,0x08,0x38,0x78,0x2f,0x18,0x10,0x58,0x1a,0x18,0x18,0xd4,0xda,0x92,0xd6,0xfb,0x1b,0x04,0x38,0xd8,0x3c,0x10,0x1c,0xd8,0x2b,0x18,0x18,0xf8,0x9f,0x5a,0x78,0x5c,0x1f,0x18,0x10,0x98,0x00,0x18,0x00,0x20,0x00,0x03,0x60,0x6c,0x06,0x02,0xa2,0x04,0x5b,0x42,0x40,0x00,0x00,0x02,0x00,0x00,0xe4,0x0b,0x21,0x41,0x08,0x04,0xa0,0x02,0xd8,0x87,0x28,0x06,0x80,0x41,0x40,0x0e,0x64,0xda,0x5f,0x2e,0x40,0x06,0xc0,0x07,0xc4,0x5a,0xf2,0x12,0xc4,0x02,0xc4,0x16,0x60,0x5f,0x6a,0x03,0x62,0x66,0x44,0x03,0xc0,0xda,0xf6,0x07,0x64,0x03,0x80,0x01,0x80,0xf3,0xfe,0x05,0xc0,0x07,0x80,0x05,0xa4,0xed,0xce,0x05,0xa1,0x05,0xa0,0x05,0xa0,0x35,0xe7,0x01,0x80,0x03,0xc0,0x03,0x80,0x7d,0xdd,0x05,0xc0,0x01,0x80,0x01,0xc0,0x73,0xce,0x01,0xa0,0x03,0x80,0x03,0x80,0xff,0xfe,0x03,0x80,0x01,0x80,0x05,0x80,0x3b,0xfe,0x03,0x84,0x03,0x80,0x01,0xc0,0xff,0xfe,0x07,0x80,0x05,0x40,0x0a,0xc0,0x5f,0xfa,0x42,0x40,0x06,0x60,0x02,0xe4,0xde,0xf3,0x06,0x44,0x02,0x60,0x03,0x40,0x5f,0xfa,0x03,0x40,0x20,0x40,0x02,0xe0,0x5f,0x7e,0x47,0x40,0x06,0x00,0x03,0x81,0x1f,0xf4,0x00,0x22,0x07,0x84,0x26,0xc4,0x3f,0xf0,0x25,0x40,0x03,0x50,0x55,0x60,0x9e,0x78,0x04,0xa0,0x01,0xa0,0x02,0x40,0x9e,0xfa,0x43,0x71,0x04,0x28,0x38,0x18,0x1e,0xf4,0x1a,0x18,0x00,0x20,0x18,0xd8,0xde,0xfa,0x1a,0x98,0x08,0x08,0x18,0xf8,0xdf,0xfb,0x12,0x18,0x18,0x10,0x50,0xda,0xde,0xfe,0x13,0x18,0x10,0x18,0x08,0xc0,0x7f,0xfe,0x03,0x19,0x1c,0x38,0x08,0xd8,0xfd,0xdf,0x33,0x1c,0x10,0x10,0x08,0x98,0xff,0xff,0x39,0x00,0x0c,0x18,0x18,0xd8,0xf9,0x9f,0x09,0x08,0x1a,0x04,0x2a,0x80,0xfb,0xcf,0x07,0x00,0x00,0x3a,0x40,0xc0,0xf7,0x8f,0x47,0x00,0x42,0x20,0x00,0xa5,0xf3,0xff,0x43,0x00,0x00,0x00,0x00,0xd0,0xf3,0x8f,0x05,0x42,0x14,0x20,0x44,0xc0,0xf3,0xdf,0xa7,0x02,0x04,0x04,0x00,0xc0,0xfa,0xff,0x23,0x00,0x20,0x00,0x00,0x44,0xfe,0x5f,0x02,0x00,0x00,0x00,0x00,0x40,0xfb,0x5f,0x03,0x02,0x60,0x00,0x00,0xc0,0xf2,0xdf,0x04,0x00,0x10,0x00,0x00,0x00,0xf9,0x8f,0x03,0x00,0x00,0x00,0x00,0x80,0xf3,0x0f,0x01,0x00,0x00,0x00,0x00,0x40,0xf8,0x2f,0x04,0x00,0x00,0x04,0x00,0x00,0xf4,0x4f,0x04,0x00,0x00,0x02,0x00,0xc0,0xfe,0xdf,0x03,0x00,0x00,0x00,0x00,0xc0,0xff,0x5f,0x01,0x00,0x00,0x00,0x00,0x40,0xf4,0x5f,0x06,0x00,0x00,0x00,0x22,0x40,0xf3,0xdf,0x06,0x04,0x28,0x50,0x00,0x82,0xf3,0xff,0x07,0x86,0x41,0x00,0x00,0xe4,0xfb,0xdf,0x07,0x00,0x00,0x00,0x04,0xc0,0xf7,0xff,0x07,0x20,0x00,0x40,0x20,0xb0,0xfb,0xff,0x83,0x10,0x10,0x30,0x04,0xc2,0xe3,0xef,0x29,0x41,0xa0,0x00,0x80,0xc0,0xf1,0xcf,0x03,0x40,0x00,0x00,0x00,0x80,0xf3,0x8f,0x07,0x21,0x40,0x18,0x80,0xd8,0xfb,0xbf,0x19,0x10,0x08,0x18,0x10,0xd8,0xff,0xfe,0x2a,0x18,0x18,0x18,0x0c,0xf0,0xff,0xff,0x1a,0x10,0x08,0x10,0x18,0xe0,0xfe,0xff,0x1b,0x18,0x08,0x18,0x19,0xd8,0x5e,0xfa,0x1a,0x18,0x18,0x00,0x19,0x08,0x9e,0xfc,0x1b,0x18,0x00,0x18,0x12,0x58,0x3f,0x78,0x19,0x28,0x18,0x11,0x18,0x80,0x7e,0xff,0x0a,0x08,0x10,0x80,0x00,0xe0,0x5e,0xf9,0x84,0xe4,0x20,0x40,0x01,0xd0,0x1e,0xf5,0x02,0xe2,0x02,0x40,0x01,0x60,0x3f,0xf9,0x01,0x00,0x10,0xc0,0x04,0xe0,0xde,0xf0,0x01,0xe8,0x00,0x40,0x02,0xc2,0xde,0xf6,0x07,0x48,0x46,0x40,0x02,0xe4,0x5e,0xfe,0x06,0x48,0x06,0x60,0x02,0x44,0xcf,0xfb,0x42,0x44,0x06,0x50,0x63,0xe0,0xde,0xff,0x06,0x40,0x0a,0xe8,0x01,0xc0,0xf5,0xdf,0x03,0x80,0x01,0xc0,0x07,0xa0,0xef,0x9f,0x41,0x80,0x01,0xc0,0x01,0xe0,0xb3,0xf7,0x07,0x80,0x03,0x81,0x07,0x80,0xf5,0xfc,0x05,0xa0,0x01,0xc0,0x05,0xc8,0xf1,0x9d,0x41,0xc0,0x03,0x80,0x05,0x80,0xe7,0xec,0x03,0x90,0x07,0xc0,0x05,0xc0,0x3d,0x9f,0x45,0xe0,0x05,0xa0,0x05,0xc0,0xfb,0xef,0x17,0xa0,0x0b,0x60,0x86,0x64,0xf6,0x7e,0x03,0x60,0x03,0x46,0x07,0xe0,0x53,0xfe,0x03,0x60,0x17,0xe0,0x82,0x40,0x4b,0xfa,0x03,0x60,0x02,0x40,0x0a,0xc2,0x7a,0xda,0x07,0xe2,0x63,0x00,0x02,0x84,0x70,0xa1,0x46,0x20,0x24,0x00,0x02,0x6a,0x43,0x60,0x64,0x20,0x04,0x00,0x62,0xe0,0x01,0x24,0x07,0x00,0x01,0x00,0x00,0xc2,0x09,0x90,0xa0,0x85,0x00,0x08,0x58,0x18,0x08,0x18,0x78,0x1f,0x30,0x18,0xd8,0x0b,0x18,0x18,0xc8,0x1b,0x18,0x18,0x78,0x1a,0x00,0x08,0xd8,0x1b,0x18,0x28,0x58,0x1b,0x00,0x28,0x58,0x1b,0x1a,0x1c,0xf8,0x1e,0x00,0x50,0x78,0x1e,0x08,0x08,0x3d,0x1c,0x18,0x10,0xfc,0x1f,0x18,0x10,0x78,0x1e,0x28,0x18,0x78,0x3c,0x08,0x18,0x38,0x0f,0x00,0x18,0x78,0x1e,0x19,0x00,0x20,0x4f,0x00,0x00,0xf0,0x1c,0x08,0x00,0xb0,0x2d,0x81,0x64,0xfa,0x4e,0x10,0x01,0xfa,0x0e,0x20,0x42,0xf0,0x5e,0x00,0x41,0x78,0x1e,0x00,0x20,0xf0,0x4e,0x10,0x04,0xd0,0x1f,0x00,0x20,0xf8,0x1b,0x24,0x00,0xfa,0x2b,0x00,0x00,0xd8,0x1b,0x00,0x00,0xd8,0x1f,0x40,0x20,0xd0,0x17,0x40,0x02,0xf8,0x3f,0x00,0x40,0xda,0x13,0x24,0x00,0xd0,0x2b,0x00,0x20,0xc0,0x1b,0x01,0x00,0xe0,0x03,0x00,0x02,0xc8,0x03,0x00,0x00,0xc0,0x07,0x00,0x00,0xc0,0x03,0x08,0x00,0xd4,0x03,0x00,0x00,0xc0,0x0b,0x00,0x40,0xc0,0x17,0x00,0x00,0xd8,0x03,0x00,0x00,0xf8,0x13,0x01,0x00,0xd8,0x1f,0x00,0x00,0xc4,0x07,0x00,0x00,0xc8,0x1f,0x00,0x80,0xc4,0x1b,0x20,0x00,0xd9,0x0b,0x00,0x40,0xdc,0x17,0x00,0x00,0xf0,0x17,0x38,0x04,0xd8,0x0f,0x10,0x20,0xf8,0x3b,0x00,0x00,0xf8,0x1f,0x41,0x04,0xf4,0x3f,0x01,0x00,0xfc,0x1f,0x00,0x06,0xf8,0x3f,0x00,0x20,0x38,0x7d,0x06,0x20,0x78,0x3c,0x02,0x20,0xb2,0x0c,0x06,0x10,0x30,0x0e,0x26,0x00,0x30,0x1d,0x00,0x00,0x78,0x4f,0x04,0x02,0x34,0x0d,0x02,0x04,0xb0,0x4e,0x00,0x18,0x7c,0x1f,0x18,0x10,0xf8,0x1e,0x08,0x10,0x58,0x9e,0x18,0x18,0x78,0x1f,0x18,0x18,0x78,0x1e,0x08,0x18,0x78,0x3e,0x1c,0x10,0x78,0x1f,0x18,0x10,0x78,0x1f,0x18,0x58,0xd8,0x5b,0x18,0x10,0xf8,0x4d,0x18,0x08,0x88,0x19,0x18,0x08,0x88,0x08,0x18,0x18,0xf8,0x1e,0x0c,0x10,0xd8,0x1c,0x0c,0x12,0x78,0x1a,0x18,0x28,0xd8,0x1b,0x34,0x02,0x64,0x00,0x04,0x22,0x08,0x00,0x04,0x40,0x06,0xc0,0x04,0x41,0x01,0xe2,0x07,0x20,0x01,0x48,0x04,0x00,0x28,0x00,0x40,0xa0,0x23,0x40,0x01,0x20,0x05,0x00,0x01,0xc4,0x06,0x42,0x06,0x44,0x06,0x40,0x06,0x40,0x03,0x62,0x06,0x44,0x02,0xc0,0x02,0x40,0x03,0xc0,0x0e,0x40,0x23,0xe2,0x06,0x40,0x43,0xc0,0x32,0x40,0x66,0xd6,0x02,0xc0,0x07,0x80,0x03,0x80,0x13,0xa0,0x01,0xa0,0x01,0xc0,0x05,0xb0,0x01,0x80,0x01,0x80,0x03,0xe1,0x05,0x82,0x03,0x80,0x05,0x90,0x01,0xc0,0x01,0x80,0x03,0x80,0x01,0x80,0x05,0xe0,0xa3,0xc2,0x01,0x80,0x05,0xc0,0x01,0x80,0x01,0xc0,0x83,0xc0,0x01,0x80,0x07,0xc0,0x07,0x80,0x01,0x80,0x01,0xa0,0x03,0xc0,0x01,0xc0,0x01,0xc0,0x03,0xc0,0x03,0xe1,0x06,0xe0,0x12,0xc0,0x07,0x60,0x42,0xe0,0x42,0x42,0x01,0xc1,0x43,0x50,0x03,0x46,0x22,0x40,0x22,0x70,0x42,0x40,0x06,0xc0,0x02,0x62,0x82,0x40,0x02,0x80,0x02,0x02,0x08,0x00,0x04,0x14,0x44,0x40,0x1a,0x24,0x01,0x00,0x00,0x40,0x07,0x44,0x00,0xa0,0x22,0x01,0x42,0x80,0x40,0x20,0x07,0x20,0x22,0x90,0x40,0x00,0x26,0x18,0x08,0x08,0x18,0x1a,0x10,0x18,0x1c,0x08,0x10,0x1c,0x18,0x18,0x18,0x28,0x30,0x18,0x38,0x00,0x18,0x08,0x10,0x08,0x10,0x50,0x10,0x48,0x18,0x18,0x3a,0x18,0x18,0x18,0x30,0x18,0x08,0x38,0x18,0x18,0x10,0x18,0x18,0x18,0x18,0x10,0x08,0x08,0x1c,0x18,0x08,0x08,0x00,0x18,0x18,0x10,0x38,0x20,0x18,0x10,0x10,0x1c,0x00,0x00,0x18,0x00,0x40,0x04,0x04,0x40,0x00,0x28,0x44,0x02,0x1a,0x7a,0x00,0x00,0x00,0x10,0x04,0x00,0x02,0x00,0x40,0x00,0x00,0x00,0x04,0x48,0x00,0x00,0x00,0x00,0x00,0x22,0x60,0x04,0x04,0x02,0x02,0x00,0x02,0x02,0x26,0x40,0x00,0x00,0x44,0x00,0x02,0x40,0x04,0x00,0x44,0x80,0x00,0x00,0x20,0x40,0x00,0x40,0x04,0x60,0x20,0x20,0x60,0x26,0x00,0x00,0x00,0x08,0x00,0x00,0x00,0x00,0x00,0x00,0x10,0x00,0x00,0x00,0x00,0x00,0x00,0x00,0x00,0x00,0x00,0x00,0x00,0x08,0x00,0x00,0x00,0x00,0x00,0x00,0x00,0x00,0x00};
