#define x_width 256
#define x_height 256
static char x_bits[] = {
0xff,0xff,0xff,0xff,0xff,0xff,0xff,0xff,0xff,0xff,0xff,0xff,0xff,0xff,0xff,0xff,0xff,0xff,0xff,0xff,0xff,0xff,0xff,0xff,0xff,0xff,0xff,0xff,0xff,0xff,0xff,0xff,0xff,0xff,0xff,0xff,0xff,0xff,0xff,0xfb,0xff,0xff,0xff,0xff,0xf7,0xff,0xbf,0xff,0xff,0xfd,0xff,0xff,0xff,0xff,0xff,0xff,0xff,0xff,0xff,0xff,0xff,0xf7,0xff,0xff,0xff,0xff,0xff,0xff,0xff,0xff,0xff,0xff,0xff,0xff,0xff,0xff,0xff,0xff,0xff,0xff,0xff,0xff,0xff,0xff,0xff,0xff,0xff,0xff,0xff,0xff,0xff,0xff,0xff,0xff,0xff,0xff,0xff,0xff,0xff,0xff,0xff,0xff,0xff,0xff,0xff,0xff,0xff,0xff,0xff,0xff,0xff,0xff,0xff,0xff,0xff,0xff,0xff,0xff,0xfe,0xff,0xff,0xff,0xef,0xff,0xff,0xff,0xff,0xff,0xcf,0x9f,0x7f,0xfe,0xfc,0xf3,0xe7,0x9f,0x3f,0xff,0xfc,0xf9,0xe3,0xcf,0x1f,0x7f,0xfe,0xf8,0xf3,0xc7,0x9f,0x3f,0xfe,0xfc,0xf9,0xe7,0xcf,0x3f,0x7f,0xfe,0xf9,0xf3,0xcf,0x9f,0x7f,0xfe,0xfc,0xf3,0xe7,0x9f,0x3f,0xff,0xfc,0xf9,0xe3,0xcf,0x1f,0x7f,0xfe,0xf8,0xf3,0xc7,0x9f,0x3f,0xff,0xfc,0xf9,0xe7,0xcf,0x3f,0x7f,0xfe,0xf9,0xf3,0xff,0xff,0xff,0xff,0xff,0xff,0xff,0xff,0xff,0xff,0xff,0xff,0xff,0xff,0xff,0xff,0xff,0xff,0xff,0xff,0xff,0xff,0xff,0xff,0xff,0xff,0xff,0xff,0xff,0xff,0xff,0xff,0xff,0xff,0xff,0xff,0xff,0xff,0xff,0xff,0xff,0xff,0xff,0xff,0xff,0xff,0xff,0xff,0xff,0xff,0xff,0xff,0xff,0xff,0xff,0xff,0xff,0xff,0xff,0xff,0xff,0xff,0xff,0xff,0xff,0xff,0xff,0xff,0xff,0xff,0xff,0xff,0xff,0xff,0xff,0xff,0xff,0xff,0xff,0xff,0xff,0xff,0xff,0xff,0xff,0xff,0xff,0xff,0xff,0xff,0xff,0xff,0xff,0xff,0xff,0xff,0xff,0xff,0xff,0xff,0xff,0xff,0xff,0xff,0xff,0xff,0xff,0xff,0xff,0xff,0xff,0xff,0xff,0xff,0xff,0xff,0xff,0xff,0xff,0xff,0xff,0xff,0xff,0xff,0xff,0xff,0xff,0xff,0xff,0x03,0xfc,0xff,0x3f,0x80,0xff,0xff,0x07,0xf8,0xff,0x7f,0x00,0xff,0xff,0x0f,0xf0,0xff,0xff,0x00,0xfe,0xff,0x1f,0xe0,0xff,0xff,0x01,0xfc,0xff,0x3f,0xc0,0xff,0xff,0x03,0xfc,0xff,0x3f,0x80,0xff,0xff,0x07,0xf8,0xff,0x7f,0x00,0xff,0xff,0x0f,0xf0,0xff,0xff,0x00,0xfe,0xff,0x1f,0xe0,0xff,0xff,0x01,0xfc,0xff,0x3f,0xc0,0xff,0xff,0x03,0xfc,0xff,0x3f,0x80,0xff,0xff,0x07,0xf8,0xff,0x7f,0x00,0xff,0xff,0x0f,0xf0,0xff,0xff,0x00,0xfe,0xff,0x1f,0xe0,0xff,0xff,0x01,0xfc,0xff,0x3f,0xc0,0xff,0xcf,0x03,0x78,0xfe,0x3c,0x80,0xe7,0x9f,0x07,0xf8,0xfc,0x79,0x00,0xcf,0x1f,0x0f,0xf0,0xf8,0xf3,0x00,0x9e,0x3f,0x1e,0xe0,0xf9,0xe7,0x01,0x3c,0x7f,0x3e,0xc0,0xf3,0xcf,0x03,0x78,0xfe,0x3c,0x80,0xe7,0x9f,0x07,0x78,0xfc,0x79,0x00,0xcf,0x1f,0x0f,0xf0,0xf8,0xf3,0x00,0x9e,0x3f,0x1f,0xe0,0xf9,0xe7,0x01,0x3c,0x7f,0x3e,0xc0,0xf3,0xff,0x03,0xfc,0xff,0x3f,0x80,0xff,0xff,0x07,0xf8,0xff,0x7f,0x00,0xff,0xff,0x0f,0xf0,0xff,0xff,0x00,0xfe,0xff,0x1f,0xe0,0xff,0xff,0x01,0xfc,0xff,0x3f,0xc0,0xff,0xff,0x03,0xfc,0xff,0x3f,0x80,0xff,0xff,0x07,0xf8,0xff,0x7f,0x00,0xff,0xff,0x0f,0xf0,0xff,0xff,0x00,0xfe,0xff,0x1f,0xe0,0xff,0xff,0x01,0xfc,0xff,0x3f,0xc0,0xff,0xff,0x03,0xfc,0xff,0x3f,0x80,0xff,0xff,0x07,0xf8,0xff,0x7f,0x00,0xff,0xff,0x0f,0xf0,0xff,0xff,0x00,0xfe,0xff,0x1f,0xe0,0xff,0xff,0x01,0xfc,0xff,0x3f,0xc0,0xff,0xff,0xcf,0xff,0xff,0xff,0xf7,0xff,0xff,0xef,0xff,0xff,0xff,0x8f,0xff,0xff,0xef,0xff,0xff,0xff,0xfc,0xff,0xff,0xdf,0xfa,0xff,0xff,0xfd,0xfe,0xff,0x3f,0xdf,0xff,0xff,0xff,0xff,0xff,0xff,0xff,0xff,0xff,0xff,0xff,0xff,0xff,0xff,0xff,0xff,0xff,0xff,0xff,0xff,0xff,0xff,0xff,0xff,0xff,0xff,0xff,0xff,0xff,0xff,0xff,0xff,0xff,0xff,0xff,0xff,0xff,0x7f,0xff,0xff,0xff,0xff,0xff,0xff,0xff,0xff,0xff,0xff,0xff,0xff,0xfd,0xff,0xef,0xff,0xff,0xff,0xff,0xff,0xff,0xff,0xff,0xff,0xff,0xff,0xff,0xff,0xff,0xff,0xff,0xff,0xff,0xff,0xff,0xff,0xff,0xff,0xff,0xff,0xff,0xff,0xff,0xff,0xff,0xff,0xff,0xff,0xff,0xff,0xff,0xff,0xff,0xff,0xff,0xff,0xff,0xff,0xff,0xff,0xff,0xff,0xff,0xff,0xff,0xff,0xff,0xff,0xff,0xff,0xff,0xff,0xff,0xff,0xff,0xff,0xff,0xff,0xff,0xff,0xff,0xff,0xff,0xf7,0xff,0xff,0xff,0xff,0xff,0xff,0xff,0xcf,0x9f,0x7f,0xfe,0xfc,0xf3,0xe7,0x9f,0x3f,0xff,0xfc,0xf9,0xe3,0xcf,0x1f,0x7f,0xfe,0xf8,0xf3,0xc7,0x9f,0x3f,0xff,0xfc,0xf9,0xe7,0x8f,0x3f,0x7f,0xfe,0xf9,0xf3,0xcf,0x9f,0x7f,0xfe,0xfc,0xf3,0xe7,0x9f,0x3f,0xff,0xfc,0xf9,0xe3,0xcf,0x1f,0x7f,0xfe,0xf8,0xf3,0xc7,0x9f,0x3f,0xff,0xfc,0xf9,0xe7,0xcf,0x3f,0x7f,0xfe,0xf9,0xf3,0xff,0xff,0xff,0xff,0xff,0xff,0xff,0xff,0xff,0xff,0xff,0xff,0xff,0xff,0xff,0xff,0xff,0xff,0xff,0xff,0xff,0xff,0xff,0xff,0xff,0xff,0xff,0xff,0xff,0xff,0xff,0xff,0xff,0xff,0xff,0xff,0xff,0xff,0xff,0xff,0xff,0xff,0xff,0xff,0xff,0xff,0xff,0xff,0xff,0xff,0xff,0xff,0xff,0xff,0xff,0xff,0xff,0xff,0xff,0xff,0xff,0xff,0xff,0xff,0xff,0xff,0xff,0xff,0xff,0xff,0xff,0xff,0xff,0xff,0xff,0xff,0xff,0xff,0xff,0xff,0xff,0xff,0xff,0xff,0xff,0xff,0xff,0xff,0xff,0xff,0xff,0xff,0xff,0xff,0xff,0xff,0xff,0xff,0xff,0xff,0xff,0xff,0xff,0xff,0xff,0xff,0xff,0xff,0xff,0xff,0xff,0xff,0xff,0xff,0xff,0xff,0xff,0xff,0xff,0xff,0xff,0xff,0xff,0xff,0xff,0xff,0xff,0xff,0xff,0xff,0xff,0x1f,0x00,0x00,0x00,0xff,0xff,0xff,0xff,0xff,0xff,0xff,0x03,0x00,0x00,0xc0,0xff,0xff,0xff,0xff,0xff,0xff,0xff,0x00,0x00,0x00,0xf8,0xff,0xff,0xff,0xff,0xff,0xff,0x1f,0x00,0x00,0x00,0xff,0xff,0xff,0xff,0xff,0xff,0xff,0x03,0x00,0x00,0xc0,0xff,0xff,0xff,0xff,0xff,0xff,0xff,0x00,0x00,0x00,0xf8,0xff,0xff,0xff,0xff,0xff,0xff,0x1f,0x00,0x00,0x00,0xff,0xff,0xff,0xff,0xff,0xff,0xff,0x03,0x00,0x00,0xc0,0xff,0xff,0xff,0xff,0xff,0xff,0xff,0x00,0x00,0x00,0xf8,0xff,0xff,0xff,0xcf,0x9f,0x7f,0x1e,0x00,0x00,0x00,0x9f,0x3f,0x7f,0xfc,0xf9,0xe3,0xcf,0x03,0x00,0x00,0xc0,0xf3,0xc7,0x9f,0x3f,0xfe,0xfc,0xf9,0x00,0x00,0x00,0x78,0xfe,0xf9,0xf3,0xcf,0x9f,0x7f,0x1e,0x00,0x00,0x00,0x9f,0x3f,0x7f,0xfc,0xf9,0xe3,0xcf,0x03,0x00,0x00,0xc0,0xf3,0xc7,0x9f,0x3f,0xfe,0xfc,0xf9,0x00,0x00,0x00,0x78,0xfe,0xf9,0xf3,0xff,0xff,0xff,0x1f,0x00,0x00,0x00,0xff,0xff,0xff,0xff,0xff,0xff,0xff,0x03,0x00,0x00,0xc0,0xff,0xff,0xff,0xff,0xff,0xff,0xff,0x00,0x00,0x00,0xf8,0xff,0xff,0xff,0xff,0xff,0xff,0x1f,0x00,0x00,0x00,0xff,0xff,0xff,0xff,0xff,0xff,0xff,0x03,0x00,0x00,0xc0,0xff,0xff,0xff,0xff,0xff,0xff,0xff,0x00,0x00,0x00,0xf8,0xff,0xff,0xff,0xff,0xff,0xff,0x1f,0x00,0x00,0x00,0xfe,0xff,0xff,0xff,0xff,0xff,0xff,0x03,0x00,0x00,0xc0,0xff,0xff,0xff,0xff,0xff,0xff,0xff,0x00,0x00,0x00,0xf8,0xff,0xff,0xff,0xff,0xff,0xff,0x1f,0x00,0x00,0x00,0xff,0xff,0xff,0xff,0xff,0xff,0xff,0x03,0x00,0x00,0xc0,0xff,0xff,0xff,0xff,0xff,0xff,0xff,0x00,0x00,0x00,0xf8,0xff,0xff,0xff,0xff,0x03,0xf8,0x1f,0x00,0x00,0x00,0xff,0x07,0xf8,0xff,0x7f,0x00,0xff,0x03,0x00,0x00,0xc0,0xff,0x00,0xfe,0xff,0x1f,0xe0,0xff,0x00,0x00,0x00,0xf8,0x3f,0xc0,0xff,0xff,0x03,0xe8,0x1f,0x00,0x00,0x00,0xff,0x07,0xf8,0xfe,0x7f,0x00,0xff,0x03,0x00,0x00,0xc0,0xff,0x00,0xfe,0xff,0x1f,0xe0,0xdf,0x00,0x00,0x00,0xf8,0x3f,0xc0,0xff,0xff,0x03,0xfc,0x1f,0x00,0x00,0x00,0xff,0x07,0xf8,0xff,0x7f,0x00,0xff,0x03,0x00,0x00,0xc0,0xff,0x00,0xfe,0xff,0x1f,0xe0,0xff,0x00,0x00,0x00,0xf8,0x3f,0xc0,0xff,0xff,0x03,0xfc,0x1f,0x00,0x00,0x00,0xff,0x07,0xf8,0xff,0x7f,0x00,0xff,0x03,0x00,0x00,0xc0,0xff,0x00,0xde,0xff,0x1f,0xe0,0xff,0x00,0x00,0x00,0xf8,0x3f,0xc0,0xff,0xcf,0x03,0x7c,0x1e,0x00,0x00,0x00,0x9f,0x07,0xf0,0xfc,0x79,0x00,0xcf,0x03,0x00,0x00,0xc0,0xf3,0x00,0x9e,0x3f,0x1f,0xe0,0xf9,0x00,0x00,0x00,0x78,0x1e,0xc0,0xf3,0xcf,0x03,0x7c,0x1e,0x00,0x00,0x00,0x9f,0x07,0x78,0xfc,0x79,0x00,0xcf,0x03,0x00,0x00,0xc0,0xf3,0x00,0x9e,0x3f,0x1e,0xe0,0xf9,0x00,0x00,0x00,0x78,0x3e,0xc0,0xf3,0xff,0x03,0xfc,0x1f,0x00,0x00,0x00,0xff,0x07,0xf8,0xff,0x7f,0x00,0xff,0x03,0x00,0x00,0xc0,0xff,0x00,0xfe,0xff,0x1f,0xe0,0xff,0x00,0x00,0x00,0xf8,0x3f,0xc0,0xff,0xff,0x03,0xf8,0x1f,0x00,0x00,0x00,0xff,0x07,0xf8,0xff,0x7f,0x00,0xff,0x03,0x00,0x00,0xc0,0xff,0x00,0xfe,0xff,0x1f,0xe0,0xff,0x00,0x00,0x00,0xf8,0x3f,0xc0,0xff,0xff,0x03,0xf8,0x1f,0x00,0x00,0x00,0xff,0x07,0xf8,0xff,0x7f,0x00,0xff,0x03,0x00,0x00,0xc0,0xff,0x00,0xfe,0xff,0x1f,0xe0,0xff,0x00,0x00,0x00,0xf8,0x3f,0xc0,0xff,0xff,0xff,0xff,0x1f,0x00,0x00,0x00,0xff,0xff,0xff,0xff,0xff,0xff,0xff,0x03,0x00,0x00,0xc0,0xff,0xff,0xff,0xff,0xff,0xff,0xff,0x00,0x00,0x00,0xf8,0xff,0xff,0xff,0xff,0xff,0xff,0x1f,0x00,0x00,0x00,0xff,0xff,0xff,0xff,0xff,0xff,0xff,0x03,0x00,0x00,0xc0,0xff,0xff,0xff,0xff,0xff,0xff,0xff,0x00,0x00,0x00,0xf8,0xff,0xff,0xff,0xff,0xff,0xff,0x1f,0x00,0x00,0x00,0xff,0xff,0xff,0xff,0xff,0xff,0xff,0x03,0x00,0x00,0xc0,0xff,0xff,0xff,0xff,0xff,0xff,0xff,0x00,0x00,0x00,0xf8,0xff,0xff,0xff,0xff,0xff,0xff,0x1f,0x00,0x00,0x00,0xff,0xff,0xff,0xff,0xff,0xff,0xff,0x03,0x00,0x00,0xc0,0xff,0xff,0xff,0xff,0xff,0xff,0xff,0x00,0x00,0x00,0xf8,0xff,0xff,0xff,0xcf,0x9f,0x7f,0x1e,0x00,0x00,0x00,0x9f,0x3f,0x7f,0xfc,0xf9,0xe3,0xcf,0x03,0x00,0x00,0xc0,0xf3,0xc7,0x9f,0x3f,0xfe,0xfc,0xf9,0x00,0x00,0x00,0x78,0xfe,0xf9,0xf3,0xcf,0x9f,0x7f,0x1e,0x00,0x00,0x00,0x9f,0x3f,0xff,0xfc,0xf9,0xe3,0xcf,0x03,0x00,0x00,0xc0,0xf3,0xc7,0x9f,0x3f,0xfe,0xfc,0xf9,0x00,0x00,0x00,0x78,0xfe,0xf9,0xf3,0xff,0xff,0xff,0x1f,0x00,0x00,0x00,0xff,0xff,0xff,0xff,0xff,0xff,0xff,0x03,0x00,0x00,0xc0,0xff,0xff,0xff,0xff,0xff,0xff,0xff,0x00,0x00,0x00,0xf8,0xff,0xff,0xff,0xff,0xff,0xff,0x1f,0x00,0x00,0x00,0xff,0xff,0xff,0xff,0xff,0xff,0xff,0x03,0x00,0x00,0xc0,0xff,0xff,0xff,0xff,0xff,0xff,0xff,0x00,0x00,0x00,0xf8,0xff,0xff,0xff,0xff,0xff,0xff,0x1f,0x00,0x00,0x00,0xff,0xff,0xff,0xff,0xff,0xff,0xff,0x03,0x00,0x00,0xc0,0xff,0xff,0xff,0xff,0xff,0xff,0xff,0x00,0x00,0x00,0xf8,0xf7,0xff,0xff,0xff,0xff,0xff,0xff,0xbf,0xff,0xff,0xff,0xff,0xff,0xff,0xff,0xff,0xff,0xff,0xff,0xff,0xff,0xff,0xff,0xff,0xff,0xff,0xff,0xff,0xff,0xff,0xff,0xff,0xff,0xff,0xff,0xff,0xff,0xff,0xff,0xff,0xff,0xff,0xff,0xff,0xff,0xff,0xff,0xff,0xff,0xff,0xff,0xff,0xff,0xff,0xff,0xff,0xff,0xff,0xff,0xff,0xff,0xff,0xff,0xff,0xff,0xff,0xff,0xff,0xff,0xff,0xff,0xff,0xff,0xff,0xfb,0xff,0xff,0xff,0xff,0xff,0xff,0xbf,0xff,0xff,0xfd,0xff,0xef,0xff,0xff,0xff,0xff,0xff,0xff,0xff,0xfe,0xff,0xff,0xff,0xff,0xff,0xff,0xff,0xff,0xff,0xff,0xff,0xff,0xff,0xff,0xff,0xff,0xff,0xff,0xff,0xff,0xff,0xff,0xff,0xff,0xff,0xff,0xff,0xff,0xff,0xff,0xff,0xff,0xff,0xff,0xff,0xff,0xef,0xdf,0xff,0xfe,0xff,0xff,0xff,0xff,0xbf,0xff,0xff,0xfd,0xff,0xff,0xbf,0xff,0xfe,0xff,0xf7,0xff,0xff,0x7f,0xff,0xfd,0xff,0xef,0xff,0xff,0xff,0xff,0xfb,0xff,0xcf,0x9f,0x7f,0xfe,0xfc,0xf3,0xe7,0x9f,0x3f,0x7f,0xfc,0xf9,0xe3,0xcf,0x1f,0x7f,0xfe,0xf8,0xf3,0xc7,0x9f,0x3f,0xff,0xfc,0xf1,0xe7,0xcf,0x3f,0x7f,0xfe,0xf9,0xf3,0xcf,0x9f,0x7f,0xfe,0xfc,0xf3,0xe7,0x9f,0x3f,0xff,0xfc,0xf9,0xe3,0xcf,0x1f,0x7f,0xfe,0xf8,0xf3,0xc7,0x9f,0x3f,0xff,0xfc,0xf1,0xe7,0xcf,0x3f,0x7f,0xfe,0xf9,0xf3,0xff,0xff,0xff,0xff,0xff,0xff,0xff,0xff,0xff,0xff,0xff,0xff,0xff,0xff,0xff,0xff,0xff,0xff,0xff,0xff,0xff,0xff,0xff,0xff,0xff,0xff,0xff,0xff,0xff,0xff,0xff,0xff,0xff,0xff,0xff,0xff,0xff,0xff,0xff,0xff,0xff,0xff,0xff,0xff,0xff,0xff,0xff,0xff,0xff,0xff,0xff,0xff,0xff,0xff,0xff,0xff,0xff,0xff,0xff,0xff,0xff,0xff,0xff,0xff,0xff,0xff,0xff,0xff,0xff,0xff,0xff,0xff,0xff,0xff,0xff,0xff,0xff,0xff,0xff,0xff,0xff,0xff,0xff,0xff,0xff,0xff,0xff,0xff,0xff,0xff,0xff,0xff,0xff,0xff,0xff,0xff,0xff,0xff,0xff,0xff,0xff,0xff,0xff,0xff,0xff,0xff,0xff,0xff,0xff,0xff,0xff,0xff,0xff,0xff,0xff,0xff,0xff,0xff,0xff,0xff,0xff,0xff,0xff,0xff,0xff,0xff,0xff,0xff,0xff,0x03,0xf8,0xff,0x3f,0x80,0xff,0xff,0x07,0xf8,0xff,0x7f,0x00,0xff,0xff,0x0f,0xf0,0xff,0xff,0x00,0xfe,0xff,0x1f,0xe0,0xff,0xff,0x01,0xfc,0xff,0x3f,0xc0,0xff,0xff,0x03,0xfc,0xff,0x3f,0x80,0xff,0xff,0x07,0xf8,0xff,0x7f,0x00,0xff,0xff,0x0f,0xf0,0xff,0xff,0x00,0xfe,0xff,0x1f,0xe0,0xff,0xff,0x01,0xfc,0xff,0x3f,0xc0,0xff,0xff,0x03,0xfc,0xff,0x3f,0x80,0xff,0xff,0x07,0xf8,0xff,0x7f,0x00,0xff,0xff,0x0f,0xf0,0xff,0xff,0x00,0xfe,0xff,0x1f,0xe0,0xff,0xff,0x01,0xfc,0xff,0x3f,0xc0,0xff,0xcf,0x03,0x7c,0xfe,0x3c,0x80,0xe7,0x9f,0x07,0x78,0xfc,0x79,0x00,0xcf,0x1f,0x0f,0xf0,0xf8,0xf3,0x00,0x9e,0x3f,0x1e,0xe0,0xf9,0xe7,0x01,0x3c,0x7f,0x3e,0xc0,0xf3,0xcf,0x03,0x7c,0xfe,0x3c,0x80,0xe7,0x9f,0x07,0x78,0xfc,0x79,0x00,0xcf,0x1f,0x0f,0xf0,0xf8,0xf3,0x00,0x9e,0x3f,0x1e,0xe0,0xf9,0xe7,0x01,0x3c,0x7f,0x3e,0xc0,0xf3,0xff,0x03,0xf8,0xff,0x3f,0x80,0xff,0xff,0x07,0xf8,0xff,0x7f,0x00,0xff,0xff,0x0f,0xf0,0xff,0xff,0x00,0xfe,0xff,0x1f,0xe0,0xff,0xff,0x01,0xfc,0xff,0x3f,0xc0,0xff,0xff,0x03,0xfc,0xff,0x3f,0x80,0xff,0xff,0x07,0xf8,0xff,0x7f,0x00,0xff,0xff,0x0f,0xf0,0xff,0xff,0x00,0xfe,0xff,0x1f,0xe0,0xff,0xff,0x01,0xfc,0xff,0x3f,0xc0,0xff,0xff,0x03,0xfc,0xff,0x3f,0x80,0xff,0xff,0x07,0xf8,0xff,0x7f,0x00,0xff,0xff,0x0f,0xf0,0xff,0xff,0x00,0xfe,0xff,0x1f,0xe0,0xff,0xff,0x01,0xfc,0xff,0x1f,0xc0,0xff,0xff,0xff,0xff,0xff,0xff,0xff,0xff,0xff,0xff,0xff,0xff,0xff,0xff,0xff,0xff,0xff,0xff,0xff,0xff,0xff,0xff,0xff,0xff,0xff,0xff,0xff,0xff,0xff,0xff,0xff,0xff,0xff,0xff,0xff,0xff,0xff,0xff,0xff,0xff,0xff,0xff,0xff,0xff,0xff,0xff,0xff,0xff,0xff,0xff,0xff,0xff,0xff,0xff,0xff,0xff,0xff,0xff,0xff,0xff,0xff,0xff,0xff,0xff,0xff,0xff,0xff,0xff,0xff,0xff,0xff,0xff,0xfb,0xff,0xff,0xff,0xff,0xff,0xff,0xff,0xff,0xff,0xff,0xff,0xff,0xff,0xff,0xff,0xff,0xff,0xff,0xdf,0xff,0xff,0xff,0xff,0xff,0xff,0xff,0xff,0xff,0xff,0xff,0xff,0xff,0xff,0xff,0xff,0xff,0xff,0xff,0xff,0xff,0xff,0xff,0xff,0xff,0xff,0xff,0xff,0xff,0xff,0xff,0xff,0xff,0xff,0xff,0xff,0xff,0xef,0xdf,0xff,0xfe,0xfc,0xfb,0xff,0xbf,0xbf,0x7f,0xfd,0xfd,0xe3,0xcf,0xff,0xff,0xfe,0xfc,0xf7,0xff,0xdf,0xff,0xfe,0xfd,0xf3,0xf7,0xcf,0x7f,0x7f,0xff,0xfb,0xf3,0xcf,0x9f,0x7f,0xfe,0xfc,0xf3,0xe7,0x9f,0x3f,0x5f,0xfc,0xf9,0xe3,0xcf,0x1f,0x7f,0xfe,0xf8,0xf3,0xc7,0x9f,0x3f,0xfe,0xfc,0xf9,0xe7,0xcf,0x3f,0x7f,0xfe,0xf9,0xf3,0xcf,0x9f,0x7f,0xfe,0xfc,0xf3,0xe7,0x9f,0x3f,0x7f,0xfc,0xf9,0xe3,0xcf,0x1f,0x7f,0xfe,0xf8,0xf3,0xc7,0x9f,0x3f,0xfe,0xfc,0xf9,0xe7,0xcf,0x3f,0x7f,0xfe,0xf9,0xf3,0xff,0xff,0xff,0xff,0xff,0xff,0xff,0xff,0xff,0xff,0xff,0xff,0xff,0xff,0xff,0xff,0xff,0xff,0xff,0xff,0xff,0xff,0xff,0xff,0xff,0xff,0xff,0xff,0xff,0xff,0xff,0xff,0xff,0xff,0xff,0xff,0xff,0xff,0xff,0xff,0xff,0xff,0xff,0xff,0xff,0xff,0xff,0xff,0xff,0xff,0xff,0xff,0xff,0xff,0xff,0xff,0xff,0xff,0xff,0xff,0xff,0xff,0xff,0xff,0xff,0xff,0xff,0xff,0xff,0xff,0xff,0xff,0xff,0xff,0xff,0xff,0xff,0xff,0xff,0xff,0xff,0xff,0xff,0xff,0xff,0xff,0xff,0xff,0xff,0xff,0xff,0xff,0xff,0xff,0xff,0xff,0xff,0xff,0xff,0xff,0xff,0xff,0xff,0xff,0xff,0xff,0xff,0xff,0xff,0xff,0xff,0xff,0xff,0xff,0xff,0xff,0xff,0xff,0xff,0xff,0xff,0xff,0xff,0xff,0xff,0xff,0xff,0xff,0xff,0xff,0xff,0xff,0xff,0xff,0xff,0xff,0xff,0xff,0x3f,0x00,0x00,0x00,0x00,0x00,0x00,0x00,0x00,0x00,0x00,0xfc,0xff,0xff,0xff,0xff,0xff,0xff,0xff,0xff,0xff,0xff,0xff,0xff,0xff,0xff,0xff,0xff,0xff,0xff,0xff,0xff,0x3f,0x00,0x00,0x00,0x00,0x00,0x00,0x00,0x00,0x00,0x00,0xfc,0xff,0xff,0xff,0xff,0xff,0xff,0xff,0xff,0xff,0xff,0xff,0xff,0xff,0xff,0xff,0xff,0xff,0xff,0xff,0xff,0x3f,0x00,0x00,0x00,0x00,0x00,0x00,0x00,0x00,0x00,0x00,0xfc,0xff,0xff,0xff,0xff,0xff,0xff,0xff,0xff,0xff,0xff,0xcf,0x9f,0x7f,0xfe,0xfc,0xf3,0xe7,0x9f,0x3f,0xff,0x3c,0x00,0x00,0x00,0x00,0x00,0x00,0x00,0x00,0x00,0x00,0x3c,0xfe,0xfc,0xf9,0xe7,0xcf,0x3f,0x7f,0xfe,0xf9,0xf3,0xcf,0x9f,0x7f,0xfe,0xfc,0xf3,0xe7,0x9f,0x3f,0x7f,0x3c,0x00,0x00,0x00,0x00,0x00,0x00,0x00,0x00,0x00,0x00,0x3c,0xff,0xfc,0xf9,0xe7,0xcf,0x3f,0x7f,0xfe,0xf9,0xf3,0xff,0xff,0xff,0xff,0xff,0xff,0xff,0xff,0xff,0xff,0x3f,0x00,0x00,0x00,0x00,0x00,0x00,0x00,0x00,0x00,0x00,0xfc,0xff,0xff,0xff,0xff,0xff,0xff,0xff,0xff,0xff,0xff,0xff,0xff,0xff,0xff,0xff,0xff,0xff,0xff,0xff,0xff,0x3f,0x00,0x00,0x00,0x00,0x00,0x00,0x00,0x00,0x00,0x00,0xfc,0xff,0xff,0xff,0xff,0xff,0xff,0xff,0xff,0xff,0xff,0xff,0xff,0xff,0xff,0xff,0xff,0xff,0xff,0xff,0xff,0x3f,0x00,0x00,0x00,0x00,0x00,0x00,0x00,0x00,0x00,0x00,0xfc,0xff,0xff,0xff,0xff,0xff,0xff,0xff,0xff,0xff,0xff,0xff,0xff,0xff,0xff,0xff,0xff,0xff,0xff,0xff,0xff,0x3f,0x00,0x00,0x00,0x00,0x00,0x00,0x00,0x00,0x00,0x00,0xfc,0xff,0xff,0xff,0xff,0xff,0xff,0xff,0xff,0xff,0xff,0xff,0x03,0xf8,0xff,0x3f,0x80,0xff,0xff,0x07,0xf8,0x3f,0x00,0x00,0x00,0x00,0x00,0x00,0x00,0x00,0x00,0x00,0xfc,0x1f,0xe0,0xff,0xff,0x01,0xfc,0xff,0x1f,0xc0,0xff,0xff,0x03,0xfc,0xff,0x3f,0x80,0xff,0xff,0x07,0xf8,0x3f,0x00,0x00,0x00,0x00,0x00,0x00,0x00,0x00,0x00,0x00,0xfc,0x1f,0xe0,0xff,0xff,0x01,0xfc,0xff,0x1f,0xc0,0xff,0xff,0x03,0xfc,0xff,0x3f,0x80,0xff,0xff,0x07,0xf8,0x3f,0x00,0x00,0x00,0x00,0x00,0x00,0x00,0x00,0x00,0x00,0xfc,0x1f,0xe0,0xff,0xff,0x01,0xfc,0xff,0x1f,0xc0,0xff,0xcf,0x03,0x7c,0xfe,0x3c,0x80,0xe7,0x9f,0x07,0x78,0x3c,0x00,0x00,0x00,0x00,0x00,0x00,0x00,0x00,0x00,0x00,0x3c,0x1e,0xe0,0xf1,0xe7,0x01,0x3c,0x7f,0x3e,0xc0,0xf3,0xcf,0x03,0x6c,0xfe,0x3c,0x80,0xe7,0x9b,0x07,0xf8,0x3c,0x00,0x00,0x00,0x00,0x00,0x00,0x00,0x00,0x00,0x00,0x3c,0x1f,0xe0,0xf9,0xe7,0x01,0x3c,0x7f,0x3e,0xc0,0xb3,0xcf,0x03,0x78,0xfe,0x3c,0x80,0xe7,0x9f,0x07,0xf8,0x3c,0x00,0x00,0x00,0x00,0x00,0x00,0x00,0x00,0x00,0x00,0x3c,0x1e,0xe0,0xf9,0xe7,0x01,0x3c,0x7f,0x3e,0xc0,0xf3,0xff,0x03,0xfc,0xff,0x3f,0x80,0xff,0xff,0x07,0xf8,0x3f,0x00,0x00,0x00,0x00,0x00,0x00,0x00,0x00,0x00,0x00,0xfc,0x1f,0xe0,0xff,0xff,0x01,0xfc,0xff,0x3f,0xc0,0xff,0xff,0x03,0xfc,0xff,0x3f,0x80,0xff,0xff,0x07,0xf8,0x3f,0x00,0x00,0x00,0x00,0x00,0x00,0x00,0x00,0x00,0x00,0xfc,0x1f,0xe0,0xff,0xff,0x01,0xfc,0xff,0x1f,0xc0,0xff,0xff,0x03,0xf8,0xff,0x3f,0x80,0xff,0xff,0x07,0xf8,0x3f,0x00,0x00,0x00,0x00,0x00,0x00,0x00,0x00,0x00,0x00,0xfc,0x1f,0xe0,0xff,0xff,0x01,0xfc,0xff,0x3f,0xc0,0xff,0xff,0xff,0xff,0xff,0xff,0xff,0xff,0xff,0xff,0xff,0x3f,0x00,0x00,0x00,0x00,0x00,0x00,0x00,0x00,0x00,0x00,0xfc,0xff,0xff,0xff,0xff,0xff,0xff,0xff,0xff,0xff,0xff,0xff,0xff,0xff,0xff,0xff,0xff,0xff,0xff,0xff,0xff,0x3f,0x00,0x00,0x00,0x00,0x00,0x00,0x00,0x00,0x00,0x00,0xfc,0xff,0xff,0xff,0xff,0xff,0xff,0xff,0xff,0xff,0xff,0xff,0xff,0xff,0xff,0xff,0xff,0xff,0xff,0xff,0xff,0x3f,0x00,0x00,0x00,0x00,0x00,0x00,0x00,0x00,0x00,0x00,0xfc,0xff,0xff,0xff,0xff,0xff,0xff,0xff,0xff,0xff,0xff,0xff,0xff,0xff,0xff,0xff,0xff,0xff,0xff,0xff,0xff,0x3f,0x00,0x00,0x00,0x00,0x00,0x00,0x00,0x00,0x00,0x00,0xfc,0xff,0xff,0xff,0xff,0xff,0xff,0xff,0xff,0xff,0xff,0xcf,0x9f,0x7f,0xfe,0xfc,0xf3,0xe7,0x9f,0x3f,0xff,0x3c,0x00,0x00,0x00,0x00,0x00,0x00,0x00,0x00,0x00,0x00,0x3c,0xff,0xfc,0xf9,0xe7,0xcf,0x3f,0x7f,0xfe,0xf9,0xf3,0xcf,0x9f,0x7f,0xfe,0xfc,0xf3,0xe7,0x9f,0x3f,0x7f,0x3c,0x00,0x00,0x00,0x00,0x00,0x00,0x00,0x00,0x00,0x00,0x3c,0xfe,0xfc,0xf9,0xe7,0xcf,0x3f,0x7f,0xfe,0xf9,0xf3,0xff,0xff,0xff,0xff,0xff,0xff,0xff,0xff,0xff,0xff,0x3f,0x00,0x00,0x00,0x00,0x00,0x00,0x00,0x00,0x00,0x00,0xfc,0xff,0xff,0xff,0xff,0xff,0xff,0xff,0xff,0xff,0xff,0xff,0xff,0xff,0xff,0xff,0xff,0xff,0xff,0xff,0xff,0x3f,0x00,0x00,0x00,0x00,0x00,0x00,0x00,0x00,0x00,0x00,0xfc,0xff,0xff,0xff,0xff,0xff,0xff,0xff,0xff,0xff,0xff,0xff,0xff,0xff,0xff,0xff,0xff,0xff,0xff,0xff,0xff,0x3f,0x00,0x00,0x00,0x00,0x00,0x00,0x00,0x00,0x00,0x00,0xfc,0xff,0xff,0xff,0xff,0xff,0xff,0xff,0xff,0xff,0xff,0xff,0xff,0xff,0xff,0xff,0xff,0xff,0xff,0xff,0xff,0x3f,0x00,0x00,0x00,0x00,0x00,0x00,0x00,0x00,0x00,0x00,0xfc,0xff,0xff,0xff,0xff,0xff,0xff,0xff,0xff,0xff,0xff,0xff,0xff,0xff,0x1f,0x00,0x00,0x00,0xff,0xff,0xff,0x3f,0x00,0x00,0x00,0x00,0x00,0x00,0x00,0x00,0x00,0x00,0xfc,0xff,0xff,0xff,0x00,0x00,0x00,0xf8,0xff,0xff,0xff,0xff,0xff,0xff,0x1f,0x00,0x00,0x00,0xff,0xff,0xff,0x3f,0x00,0x00,0x00,0x00,0x00,0x00,0x00,0x00,0x00,0x00,0xfc,0xff,0xff,0xff,0x00,0x00,0x00,0xf8,0xff,0xff,0xff,0xff,0xff,0xff,0x1f,0x00,0x00,0x00,0xff,0xff,0xff,0x3f,0x00,0x00,0x00,0x00,0x00,0x00,0x00,0x00,0x00,0x00,0xfc,0xff,0xff,0xff,0x00,0x00,0x00,0xf8,0xff,0xff,0xff,0xcf,0x9f,0x7f,0x1e,0x00,0x00,0x00,0x9f,0x3f,0x7f,0x3c,0x00,0x00,0x00,0x00,0x00,0x00,0x00,0x00,0x00,0x00,0x3c,0xfe,0xfc,0xf9,0x00,0x00,0x00,0x78,0xfe,0xf9,0xf3,0xcf,0x9f,0x6f,0x1e,0x00,0x00,0x00,0x9b,0x3f,0x7f,0x3c,0x00,0x00,0x00,0x00,0x00,0x00,0x00,0x00,0x00,0x00,0x3c,0xfa,0xfc,0xf9,0x00,0x00,0x00,0x78,0xfe,0xf9,0xf3,0xcf,0x9f,0x7f,0x1e,0x00,0x00,0x00,0x8f,0x3f,0x7f,0x3c,0x00,0x00,0x00,0x00,0x00,0x00,0x00,0x00,0x00,0x00,0x3c,0xff,0xfc,0xf9,0x00,0x00,0x00,0x78,0xfe,0xf9,0xf3,0xff,0xff,0xff,0x1f,0x00,0x00,0x00,0xff,0xff,0xff,0x3f,0x00,0x00,0x00,0x00,0x00,0x00,0x00,0x00,0x00,0x00,0xfc,0xff,0xff,0xff,0x00,0x00,0x00,0xf8,0xff,0xff,0xff,0xff,0xff,0xff,0x1f,0x00,0x00,0x00,0xff,0xff,0xff,0x3f,0x00,0x00,0x00,0x00,0x00,0x00,0x00,0x00,0x00,0x00,0xfc,0xff,0xff,0xff,0x00,0x00,0x00,0xf8,0xff,0xff,0xff,0xff,0xff,0xff,0x1f,0x00,0x00,0x00,0xff,0xff,0xff,0x3f,0x00,0x00,0x00,0x00,0x00,0x00,0x00,0x00,0x00,0x00,0xfc,0xff,0xff,0xff,0x00,0x00,0x00,0xf8,0xff,0xff,0xff,0xff,0xff,0xff,0x1f,0x00,0x00,0x00,0xff,0xff,0xff,0x3f,0x00,0x00,0x00,0x00,0x00,0x00,0x00,0x00,0x00,0x00,0xfc,0xff,0xff,0xff,0x00,0x00,0x00,0xf8,0xff,0xff,0xff,0xff,0x03,0xfc,0x1f,0x00,0x00,0x00,0xff,0x07,0xf8,0x3f,0x00,0x00,0x00,0x00,0x00,0x00,0x00,0x00,0x00,0x00,0xfc,0x1f,0xe0,0xff,0x00,0x00,0x00,0xf8,0x3f,0xc0,0xff,0xff,0x03,0xf8,0x1f,0x00,0x00,0x00,0xff,0x07,0xf8,0x3f,0x00,0x00,0x00,0x00,0x00,0x00,0x00,0x00,0x00,0x00,0xfc,0x1f,0xe0,0xff,0x00,0x00,0x00,0xf8,0x3f,0xc0,0xff,0xff,0x03,0xfc,0x1f,0x00,0x00,0x00,0xff,0x07,0xf8,0x3f,0x00,0x00,0x00,0x00,0x00,0x00,0x00,0x00,0x00,0x00,0xfc,0x1f,0xe0,0xff,0x00,0x00,0x00,0xf8,0x1f,0xc0,0xff,0xcf,0x03,0x7c,0x1e,0x00,0x00,0x00,0x9f,0x07,0x78,0x3c,0x00,0x00,0x00,0x00,0x00,0x00,0x00,0x00,0x00,0x00,0x3c,0x1f,0xe0,0xf1,0x00,0x00,0x00,0x78,0x3e,0xc0,0xf3,0xcf,0x03,0x7c,0x1e,0x00,0x00,0x00,0x9e,0x07,0x78,0x3c,0x00,0x00,0x00,0x00,0x00,0x00,0x00,0x00,0x00,0x00,0x3c,0x1e,0xe0,0xf1,0x00,0x00,0x00,0x78,0x3e,0xc0,0xf3,0xff,0x03,0xfc,0x1f,0x00,0x00,0x00,0xff,0x07,0xf8,0x3f,0x00,0x00,0x00,0x00,0x00,0x00,0x00,0x00,0x00,0x00,0xfc,0x1f,0xe0,0xff,0x00,0x00,0x00,0xf8,0x3f,0xc0,0xff,0xff,0x03,0xfc,0x1f,0x00,0x00,0x00,0xff,0x07,0xf8,0x3f,0x00,0x00,0x00,0x00,0x00,0x00,0x00,0x00,0x00,0x00,0xfc,0x1f,0xe0,0xff,0x00,0x00,0x00,0xf8,0x3f,0xc0,0xff,0xff,0x03,0xfc,0x1f,0x00,0x00,0x00,0xff,0x07,0xf8,0x3f,0x00,0x00,0x00,0x00,0x00,0x00,0x00,0x00,0x00,0x00,0xfc,0x1f,0xe0,0xff,0x00,0x00,0x00,0xf8,0x1f,0xc0,0xff,0xff,0xff,0xff,0x1f,0x00,0x00,0x00,0xff,0xff,0xff,0x3f,0x00,0x00,0x00,0x00,0x00,0x00,0x00,0x00,0x00,0x00,0xfc,0xff,0xff,0xff,0x00,0x00,0x00,0xf8,0xff,0xff,0xff,0xff,0xff,0xff,0x1f,0x00,0x00,0x00,0xff,0xff,0xff,0x3f,0x00,0x00,0x00,0x00,0x00,0x00,0x00,0x00,0x00,0x00,0xfc,0xff,0xff,0xff,0x00,0x00,0x00,0xf8,0xff,0xff,0xff,0xff,0xff,0xff,0x1f,0x00,0x00,0x00,0xff,0xff,0xff,0x3f,0x00,0x00,0x00,0x00,0x00,0x00,0x00,0x00,0x00,0x00,0xfc,0xff,0xff,0xff,0x00,0x00,0x00,0xf8,0xff,0xff,0xff,0xff,0xff,0xff,0x1f,0x00,0x00,0x00,0xff,0xff,0xff,0x3f,0x00,0x00,0x00,0x00,0x00,0x00,0x00,0x00,0x00,0x00,0xfc,0xff,0xff,0xff,0x00,0x00,0x00,0xf8,0xff,0xff,0xff,0xcf,0x9f,0x7f,0x1e,0x00,0x00,0x00,0x9f,0x3f,0x7f,0x3c,0x00,0x00,0x00,0x00,0x00,0x00,0x00,0x00,0x00,0x00,0x3c,0xfe,0xfc,0xf1,0x00,0x00,0x00,0x78,0xfe,0xf9,0xf3,0xcf,0x9f,0x6f,0x1e,0x00,0x00,0x00,0x9b,0x3f,0xff,0x3c,0x00,0x00,0x00,0x00,0x00,0x00,0x00,0x00,0x00,0x00,0x3c,0xff,0xfc,0xd1,0x00,0x00,0x00,0x78,0xf6,0xf9,0xe3,0xcf,0x9f,0x7f,0x1e,0x00,0x00,0x00,0x9f,0x3f,0x7f,0x3c,0x00,0x00,0x00,0x00,0x00,0x00,0x00,0x00,0x00,0x00,0x3c,0xff,0xfc,0xf9,0x00,0x00,0x00,0x78,0xfe,0xf9,0xf3,0xff,0xff,0xff,0x1f,0x00,0x00,0x00,0xff,0xff,0xff,0x3f,0x00,0x00,0x00,0x00,0x00,0x00,0x00,0x00,0x00,0x00,0xfc,0xff,0xff,0xff,0x00,0x00,0x00,0xf8,0xff,0xff,0xff,0xff,0xff,0xff,0x1f,0x00,0x00,0x00,0xff,0xff,0xff,0x3f,0x00,0x00,0x00,0x00,0x00,0x00,0x00,0x00,0x00,0x00,0xfc,0xff,0xff,0xff,0x00,0x00,0x00,0xf8,0xff,0xff,0xff,0xff,0xff,0xff,0x1f,0x00,0x00,0x00,0xff,0xff,0xff,0x3f,0x00,0x00,0x00,0x00,0x00,0x00,0x00,0x00,0x00,0x00,0xfc,0xff,0xff,0xff,0x00,0x00,0x00,0xf8,0xff,0xff,0xff,0xff,0xff,0xff,0xff,0xff,0xff,0xff,0xff,0xff,0xff,0x3f,0x00,0x00,0x00,0x00,0x00,0x00,0x00,0x00,0x00,0x00,0xfc,0xff,0xff,0xff,0xff,0xff,0xff,0xff,0xff,0xff,0xff,0xff,0xff,0xff,0xff,0xff,0xff,0xff,0xff,0xff,0xff,0x3f,0x00,0x00,0x00,0x00,0x00,0x00,0x00,0x00,0x00,0x00,0xfc,0xff,0xff,0xff,0xff,0xff,0xff,0xff,0xff,0xff,0xff,0xff,0xff,0xff,0xff,0xff,0xff,0xff,0xff,0xff,0xff,0x3f,0x00,0x00,0x00,0x00,0x00,0x00,0x00,0x00,0x00,0x00,0xfc,0xff,0xff,0xff,0xff,0xff,0xff,0xff,0xff,0xff,0xff,0xff,0xff,0xff,0xff,0xff,0xff,0xff,0xff,0xff,0xff,0x3f,0x00,0x00,0x00,0x00,0x00,0x00,0x00,0x00,0x00,0x00,0xfc,0xff,0xff,0xff,0xff,0xff,0xff,0xff,0xff,0xff,0xff,0xcf,0x9f,0x7f,0xfe,0xfc,0xf3,0xe7,0x9f,0x3f,0xff,0x3c,0x00,0x00,0x00,0x00,0x00,0x00,0x00,0x00,0x00,0x00,0x3c,0xff,0xfc,0xf9,0xe7,0xcf,0x3f,0x7f,0xfe,0xf9,0xf3,0xcf,0x9f,0x7f,0xfe,0xfc,0xf3,0xe7,0x9f,0x3f,0xff,0x3c,0x00,0x00,0x00,0x00,0x00,0x00,0x00,0x00,0x00,0x00,0x3c,0xfe,0xfc,0xf9,0xe7,0xcf,0x3f,0x7f,0xfe,0xf9,0xf3,0xff,0xff,0xff,0xff,0xff,0xff,0xff,0xff,0xff,0xff,0x3f,0x00,0x00,0x00,0x00,0x00,0x00,0x00,0x00,0x00,0x00,0xfc,0xff,0xff,0xff,0xff,0xff,0xff,0xff,0xff,0xff,0xff,0xff,0xff,0xff,0xff,0xff,0xff,0xff,0xff,0xff,0xff,0x3f,0x00,0x00,0x00,0x00,0x00,0x00,0x00,0x00,0x00,0x00,0xfc,0xff,0xff,0xff,0xff,0xff,0xff,0xff,0xff,0xff,0xff,0xff,0xff,0xff,0xff,0xff,0xff,0xff,0xff,0xff,0xff,0x3f,0x00,0x00,0x00,0x00,0x00,0x00,0x00,0x00,0x00,0x00,0xfc,0xff,0xff,0xff,0xff,0xff,0xff,0xff,0xff,0xff,0xff,0xff,0xff,0xff,0xff,0xff,0xff,0xff,0xff,0xff,0xff,0x3f,0x00,0x00,0x00,0x00,0x00,0x00,0x00,0x00,0x00,0x00,0xfc,0xff,0xff,0xff,0xff,0xff,0xff,0xff,0xff,0xff,0xff,0xff,0x03,0xfc,0xff,0x3f,0x80,0xff,0xff,0x07,0xf8,0x3f,0x00,0x00,0x00,0x00,0x00,0x00,0x00,0x00,0x00,0x00,0xfc,0x1f,0xe0,0xff,0xff,0x01,0xfc,0xff,0x3f,0xc0,0xff,0xff,0x03,0xfc,0xff,0x3f,0x80,0xff,0xff,0x07,0xf8,0x3f,0x00,0x00,0x00,0x00,0x00,0x00,0x00,0x00,0x00,0x00,0xfc,0x1f,0xe0,0xff,0xff,0x01,0xfc,0xff,0x1f,0xc0,0xff,0xff,0x03,0xfc,0xff,0x3f,0x80,0xff,0xff,0x07,0xf8,0x3f,0x00,0x00,0x00,0x00,0x00,0x00,0x00,0x00,0x00,0x00,0xfc,0x1f,0xe0,0xff,0xff,0x01,0xfc,0xff,0x3f,0xc0,0xff,0xcf,0x03,0x78,0xfe,0x3c,0x80,0xe7,0x9f,0x07,0xf8,0x3c,0x00,0x00,0x00,0x00,0x00,0x00,0x00,0x00,0x00,0x00,0x3c,0x1e,0xe0,0xf9,0xe7,0x01,0x3c,0x7f,0x3e,0xc0,0xf3,0xcf,0x03,0x3c,0xfe,0x3c,0x80,0xe7,0x8f,0x07,0x78,0x3c,0x00,0x00,0x00,0x00,0x00,0x00,0x00,0x00,0x00,0x00,0x3c,0x1e,0xe0,0xf9,0xe7,0x01,0x3c,0x7f,0x3e,0xc0,0xf3,0xcf,0x03,0x7c,0xfe,0x3c,0x80,0xe7,0x9f,0x07,0x78,0x3c,0x00,0x00,0x00,0x00,0x00,0x00,0x00,0x00,0x00,0x00,0x3c,0x1e,0xe0,0xf9,0xe7,0x01,0x3c,0x7f,0x3e,0xc0,0xf3,0xff,0x03,0xfc,0xff,0x3f,0x80,0xff,0xff,0x07,0xf8,0x3f,0x00,0x00,0x00,0x00,0x00,0x00,0x00,0x00,0x00,0x00,0xfc,0x1f,0xe0,0xff,0xff,0x01,0xfc,0xff,0x3f,0xc0,0xff,0xff,0x03,0xfc,0xff,0x3f,0x80,0xff,0xff,0x07,0xf8,0x3f,0x00,0x00,0x00,0x00,0x00,0x00,0x00,0x00,0x00,0x00,0xfc,0x1f,0xe0,0xff,0xff,0x01,0xfc,0xff,0x3f,0xc0,0xff,0xff,0x03,0xfc,0xff,0x3f,0x80,0xff,0xff,0x07,0xf8,0x3f,0x00,0x00,0x00,0x00,0x00,0x00,0x00,0x00,0x00,0x00,0xfc,0x1f,0xe0,0xff,0xff,0x01,0xfc,0xff,0x1f,0xc0,0xff,0xff,0xff,0xff,0xff,0xff,0xff,0xff,0xff,0xff,0xff,0x3f,0x00,0x00,0x00,0x00,0x00,0x00,0x00,0x00,0x00,0x00,0xfc,0xff,0xff,0xff,0xff,0xff,0xff,0xff,0xff,0xff,0xff,0xff,0xff,0xff,0xff,0xff,0xff,0xff,0xff,0xff,0xff,0x3f,0x00,0x00,0x00,0x00,0x00,0x00,0x00,0x00,0x00,0x00,0xfc,0xff,0xff,0xff,0xff,0xff,0xff,0xff,0xff,0xff,0xff,0xff,0xff,0xff,0xff,0xff,0xff,0xff,0xff,0xff,0xff,0x3f,0x00,0x00,0x00,0x00,0x00,0x00,0x00,0x00,0x00,0x00,0xfc,0xff,0xff,0xff,0xff,0xff,0xff,0xff,0xff,0xff,0xff,0xff,0xff,0xff,0xff,0xff,0xff,0xff,0xff,0xff,0xff,0x3f,0x00,0x00,0x00,0x00,0x00,0x00,0x00,0x00,0x00,0x00,0xfc,0xff,0xff,0xff,0xff,0xff,0xff,0xff,0xff,0xff,0xff,0xcf,0x1f,0x7f,0xfe,0xfc,0xf3,0xe7,0x9f,0x3f,0x7f,0x3c,0x00,0x00,0x00,0x00,0x00,0x00,0x00,0x00,0x00,0x00,0x3c,0xff,0xfc,0xf9,0xe7,0xcf,0x3f,0x7f,0xfe,0xf9,0xf3,0xcf,0x9f,0x7f,0xfe,0xfc,0xf3,0xe7,0x9f,0x3f,0x7f,0x3c,0x00,0x00,0x00,0x00,0x00,0x00,0x00,0x00,0x00,0x00,0x3c,0xff,0xfc,0xf1,0xe7,0xcf,0x3f,0x7f,0xfe,0xf9,0xf3,0xff,0xff,0xff,0xff,0xff,0xff,0xff,0xff,0xff,0xff,0x3f,0x00,0x00,0x00,0x00,0x00,0x00,0x00,0x00,0x00,0x00,0xfc,0xff,0xff,0xff,0xff,0xff,0xff,0xff,0xff,0xff,0xff,0xff,0xff,0xff,0xff,0xff,0xff,0xff,0xff,0xff,0xff,0x3f,0x00,0x00,0x00,0x00,0x00,0x00,0x00,0x00,0x00,0x00,0xfc,0xff,0xff,0xff,0xff,0xff,0xff,0xff,0xff,0xff,0xff,0xff,0xff,0xff,0xff,0xff,0xff,0xff,0xff,0xff,0xff,0x3f,0x00,0x00,0x00,0x00,0x00,0x00,0x00,0x00,0x00,0x00,0xfc,0xff,0xff,0xff,0xff,0xff,0xff,0xff,0xff,0xff,0xff,0xff,0xff,0xff,0xff,0xff,0xff,0xff,0xff,0xff,0xff,0xff,0xff,0xff,0xff,0xff,0xff,0xff,0xff,0xff,0xff,0xff,0xff,0xff,0xff,0xff,0xff,0xff,0xff,0xff,0xff,0xff,0xff,0xff,0xff,0xff,0xff,0xff,0xff,0xff,0xff,0xff,0xff,0xff,0xff,0xff,0xff,0xff,0xff,0xff,0xff,0xff,0xff,0xff,0xff,0xff,0xff,0xff,0xff,0xff,0xff,0xff,0xff,0xff,0xff,0xff,0xff,0xff,0xff,0xff,0xff,0xff,0xff,0xff,0xff,0xff,0xff,0xff,0xff,0xff,0xff,0xff,0xff,0xff,0xff,0xff,0xff,0xff,0xff,0xff,0xff,0xff,0xff,0xff,0xff,0xff,0xff,0xff,0xff,0xff,0xff,0xff,0xff,0xff,0xff,0xff,0xff,0xff,0xff,0xff,0xff,0xff,0xff,0xff,0xff,0xff,0xff,0xff,0xff,0xff,0xff,0xff,0xff,0xff,0xff,0xff,0xff,0xff,0xff,0xcf,0x9f,0x7f,0xfe,0xfc,0xf3,0xe7,0x9f,0x3f,0xff,0xfc,0xf9,0xe3,0xcf,0x1f,0x7f,0xfe,0xf8,0xf3,0xc7,0x9f,0x3f,0xff,0xfc,0xf9,0xe7,0xcf,0x3f,0x7f,0xfe,0xf9,0xf3,0xcf,0x9f,0x7f,0xfe,0xfc,0xf3,0xe7,0x9f,0x3f,0x7f,0xfc,0xf9,0xe3,0xcf,0x1f,0x7f,0xfe,0xf8,0xf3,0xc7,0x9f,0x3f,0xfe,0xfc,0xf9,0xe7,0xcf,0x3f,0x7f,0xfe,0xf9,0xf3,0xcf,0xdf,0x7f,0xff,0xfc,0xff,0xef,0x9f,0x7f,0xff,0xfc,0xf9,0xe3,0xef,0x7f,0x7f,0xfe,0xf9,0xfb,0xd7,0x9f,0x7f,0xff,0xff,0xfb,0xe7,0xdf,0xbf,0x7f,0xfe,0xfd,0xff,0xff,0xff,0xff,0xff,0xff,0xff,0xff,0xff,0xff,0xff,0xff,0xff,0xff,0xff,0xff,0xff,0xff,0xff,0xff,0xff,0xff,0xff,0xff,0xff,0xff,0xff,0xff,0xff,0xff,0xff,0xff,0xff,0xff,0xff,0xff,0xff,0xff,0xff,0xff,0xfb,0xff,0xff,0xff,0xff,0xff,0xff,0xff,0xff,0xff,0xff,0xff,0xff,0xff,0xff,0xff,0xff,0xff,0xff,0xff,0xff,0xff,0xff,0xff,0xff,0xff,0xff,0xff,0xff,0xff,0xff,0xff,0xff,0xff,0xff,0xff,0xff,0xff,0xff,0xff,0xff,0xff,0xff,0xff,0xff,0xff,0xff,0xff,0xff,0xff,0xff,0xff,0xff,0xff,0xff,0xff,0xff,0xff,0xff,0xff,0xff,0xff,0xff,0xff,0xff,0xff,0xff,0xff,0xff,0xbf,0xff,0xff,0xff,0xff,0xff,0xff,0xff,0xff,0xff,0xff,0xff,0xff,0xff,0xff,0xff,0xff,0xff,0xff,0xff,0xff,0x03,0xf8,0xff,0x3f,0x80,0xff,0xff,0x07,0xf8,0xff,0x7f,0x00,0xff,0xff,0x0f,0xf0,0xff,0xff,0x00,0xfe,0xff,0x1f,0xe0,0xff,0xff,0x01,0xfc,0xff,0x3f,0xc0,0xff,0xff,0x03,0xfc,0xff,0x3f,0x80,0xff,0xff,0x07,0xf8,0xff,0x7f,0x00,0xff,0xff,0x0f,0xf0,0xff,0xff,0x00,0xfe,0xff,0x1f,0xe0,0xff,0xff,0x01,0xfc,0xff,0x3f,0xc0,0xff,0xff,0x03,0xfc,0xff,0x3f,0x80,0xff,0xff,0x07,0xf8,0xff,0x7f,0x00,0xff,0xff,0x0f,0xf0,0xff,0xff,0x00,0xfe,0xff,0x1f,0xe0,0xff,0xff,0x01,0xfc,0xff,0x3f,0xc0,0xff,0xcf,0x03,0x7c,0xfe,0x3c,0x80,0xe7,0x9f,0x07,0xf8,0xfc,0x79,0x00,0xcf,0x1f,0x0f,0xf0,0xf8,0xf3,0x00,0x9e,0x3f,0x1e,0xe0,0xf9,0xe7,0x01,0x3c,0x7f,0x3e,0xc0,0xf3,0xcf,0x03,0x7c,0xfe,0x3c,0x80,0xe7,0x8f,0x07,0x78,0xfc,0x79,0x00,0xcf,0x1f,0x0f,0xf0,0xf8,0xf3,0x00,0x9e,0x3f,0x1e,0xe0,0xf9,0xe7,0x01,0x3c,0x7f,0x1e,0xc0,0xf3,0xff,0x03,0xf8,0xff,0x3f,0x80,0xff,0xff,0x07,0xf8,0xff,0x7f,0x00,0xff,0xff,0x0f,0xf0,0xff,0xff,0x00,0xfe,0xff,0x1f,0xe0,0xff,0xff,0x01,0xfc,0xff,0x3f,0xc0,0xff,0xff,0x03,0xfc,0xff,0x3f,0x80,0xff,0xff,0x07,0xf8,0xff,0x7f,0x00,0xff,0xff,0x0f,0xf0,0xff,0xff,0x00,0xfe,0xff,0x1f,0xe0,0xff,0xff,0x01,0xfc,0xff,0x3f,0xc0,0xff,0xff,0x03,0xf8,0xff,0x3f,0x80,0xff,0xff,0x07,0xf8,0xff,0x7f,0x00,0xff,0xff,0x0f,0xf0,0xff,0xff,0x00,0xfe,0xff,0x1f,0xe0,0xff,0xff,0x01,0xfc,0xff,0x3f,0xc0,0xff,0xff,0xff,0xff,0xff,0xff,0xff,0xff,0xff,0xff,0xff,0xff,0xff,0xff,0xff,0xff,0xff,0xff,0xff,0xff,0xff,0xff,0xff,0xff,0xff,0xff,0xff,0xff,0xff,0xff,0xff,0xff,0xff,0xff,0xff,0xff,0xff,0xff,0xff,0xff,0xff,0xff,0xff,0xff,0xff,0xff,0xff,0xff,0xff,0xff,0xff,0xff,0xff,0xff,0xff,0xff,0xff,0xff,0xff,0xff,0xff,0xff,0xff,0xff,0xff,0xff,0xff,0xff,0xff,0xff,0xff,0xff,0xff,0xff,0xff,0xff,0xff,0xff,0xff,0xff,0xff,0xff,0xff,0xff,0xff,0xff,0xff,0xff,0xff,0xff,0xff,0xff,0xff,0xff,0xff,0xff,0xff,0xff,0xff,0xff,0xff,0xff,0xff,0xff,0xff,0xff,0xff,0xff,0xff,0xff,0xff,0xff,0xff,0xff,0xff,0xff,0xff,0xff,0xff,0xff,0xff,0xff,0xff,0xff,0xff,0xff,0xff,0xff,0xff,0xcf,0x9f,0x7f,0xfe,0xfc,0xf3,0xe7,0x9f,0x3f,0x7f,0xfc,0xf9,0xe3,0xcf,0x1f,0x7f,0xfe,0xf8,0xf3,0xc7,0x9f,0x3f,0xff,0xfc,0xf9,0xe7,0xcf,0x3f,0x7f,0xfe,0xf9,0xf3,0xcf,0x9f,0x7f,0xfe,0xfc,0xf3,0xe7,0x9f,0x3f,0x7f,0xfc,0xf9,0xe3,0xcf,0x1f,0x7f,0xfe,0xf8,0xf3,0xc7,0x9f,0x3f,0xfe,0xfc,0xf1,0xe7,0xcf,0x3f,0x7f,0xfe,0xf9,0xf3,0xdf,0xff,0xff,0xff,0xff,0xff,0xff,0xff,0xff,0xff,0xff,0xff,0xfb,0xff,0xff,0xff,0xff,0xfe,0xff,0xff,0xff,0xff,0xff,0xfe,0xff,0xe7,0xff,0x7f,0xff,0xff,0xff,0xff,0xff,0xff,0xff,0xff,0xff,0xff,0xff,0xff,0xff,0xff,0xff,0xff,0xff,0xff,0xff,0xff,0xff,0xff,0xff,0xff,0xff,0xff,0xff,0xff,0xff,0xff,0xff,0xff,0xff,0xff,0xff,0xff,0xff,0xff,0xef,0xff,0xff,0xff,0xff,0xff,0xff,0xff,0xfe,0xff,0xf7,0xff,0xbf,0xff,0xff,0xfd,0xff,0xef,0xff,0xff,0xff,0xff,0xff,0xff,0xff,0xfe,0xff,0xf7,0xff,0xff,0xff,0xff,0xff,0xff,0xff,0xff,0xff,0xff,0xff,0xff,0xff,0xff,0xff,0xff,0xff,0xff,0xff,0xff,0xff,0xff,0xff,0xff,0xff,0xff,0xff,0xff,0xff,0xff,0xff,0xff,0xff,0xff,0xff,0xff,0xff,0xff,0xff,0xff,0xff,0xff,0xff,0xff,0xff,0xff,0xff,0xff,0xff,0xff,0xff,0xff,0xff,0xff,0xff,0xff,0xff,0xff,0xff,0xff,0xff,0xff,0xff,0xff,0xff,0xff,0xff,0xff,0xff,0x1f,0x00,0x00,0x00,0xff,0xff,0xff,0xff,0xff,0xff,0xff,0x03,0x00,0x00,0xc0,0xff,0xff,0xff,0xff,0xff,0xff,0xff,0x00,0x00,0x00,0xf8,0xff,0xff,0xff,0xff,0xff,0xff,0x1f,0x00,0x00,0x00,0xff,0xff,0xff,0xff,0xff,0xff,0xff,0x03,0x00,0x00,0xc0,0xff,0xff,0xff,0xff,0xff,0xff,0xff,0x00,0x00,0x00,0xf8,0xff,0xff,0xff,0xff,0xff,0xff,0x1f,0x00,0x00,0x00,0xff,0xff,0xff,0xff,0xff,0xff,0xff,0x03,0x00,0x00,0xc0,0xff,0xff,0xff,0xff,0xff,0xff,0xff,0x00,0x00,0x00,0xf8,0xff,0xff,0xff,0xcf,0x9f,0x7f,0x1e,0x00,0x00,0x00,0x9f,0x3f,0xff,0xfc,0xf9,0xe3,0xcf,0x03,0x00,0x00,0xc0,0xf3,0xc7,0x9f,0x3f,0xff,0xfc,0xf1,0x00,0x00,0x00,0x78,0xfe,0xf9,0xf3,0xcf,0x9f,0x7f,0x1e,0x00,0x00,0x00,0x9f,0x3f,0xff,0xfc,0xf9,0xe3,0xcf,0x03,0x00,0x00,0xc0,0xf3,0xc7,0x9f,0x3f,0xfe,0xfc,0xf9,0x00,0x00,0x00,0x78,0xfe,0xf9,0xf3,0xff,0xff,0xff,0x1f,0x00,0x00,0x00,0xff,0xff,0xff,0xff,0xff,0xff,0xff,0x03,0x00,0x00,0xc0,0xff,0xff,0xff,0xff,0xff,0xff,0xff,0x00,0x00,0x00,0xf8,0xff,0xff,0xff,0xff,0xff,0xff,0x1f,0x00,0x00,0x00,0xff,0xff,0xff,0xff,0xff,0xff,0xff,0x03,0x00,0x00,0xc0,0xff,0xff,0xff,0xff,0xff,0xff,0xff,0x00,0x00,0x00,0xf8,0xff,0xff,0xff,0xff,0xff,0xff,0x1f,0x00,0x00,0x00,0xff,0xff,0xff,0xff,0xff,0xff,0xff,0x03,0x00,0x00,0xc0,0xff,0xff,0xff,0xff,0xff,0xff,0xff,0x00,0x00,0x00,0xf8,0xff,0xff,0xff,0xff,0xff,0xff,0x1f,0x00,0x00,0x00,0xff,0xff,0xff,0xff,0xff,0xff,0xff,0x03,0x00,0x00,0xc0,0xff,0xff,0xff,0xff,0xff,0xff,0xff,0x00,0x00,0x00,0xf8,0xff,0xff,0xff,0xff,0x03,0xfc,0x1f,0x00,0x00,0x00,0xff,0x07,0xf8,0xff,0x7f,0x00,0xff,0x03,0x00,0x00,0xc0,0xff,0x00,0xfe,0xff,0x1f,0xe0,0xff,0x00,0x00,0x00,0xf8,0x3f,0xc0,0xff,0xff,0x03,0xfc,0x1f,0x00,0x00,0x00,0xff,0x07,0xf8,0xff,0x7f,0x00,0xff,0x03,0x00,0x00,0xc0,0xff,0x00,0xfe,0xff,0x1f,0xe0,0xff,0x00,0x00,0x00,0xf8,0x3f,0xc0,0xff,0xff,0x03,0xf8,0x1f,0x00,0x00,0x00,0xff,0x07,0xf8,0xff,0x7f,0x00,0xff,0x03,0x00,0x00,0xc0,0xff,0x00,0xfe,0xff,0x1f,0xe0,0xff,0x00,0x00,0x00,0xf8,0x3f,0xc0,0xff,0xcf,0x03,0x7c,0x1e,0x00,0x00,0x00,0x9f,0x07,0x78,0xfc,0x79,0x00,0xcf,0x03,0x00,0x00,0xc0,0xf3,0x00,0x9e,0x3f,0x1e,0xe0,0xf9,0x00,0x00,0x00,0x78,0x3e,0xc0,0xf3,0xcf,0x03,0x78,0x1e,0x00,0x00,0x00,0x9f,0x07,0x78,0xfc,0x79,0x00,0xcf,0x03,0x00,0x00,0xc0,0xf3,0x00,0x9e,0x3f,0x0e,0xe0,0xf1,0x00,0x00,0x00,0x78,0x1e,0xc0,0xf3,0xff,0x03,0xfc,0x1f,0x00,0x00,0x00,0xff,0x07,0xf8,0xfd,0x7f,0x00,0xff,0x03,0x00,0x00,0xc0,0xff,0x00,0xfe,0x7f,0x1f,0xe0,0xff,0x00,0x00,0x00,0xf8,0x3f,0xc0,0xff,0xff,0x03,0xfc,0x1f,0x00,0x00,0x00,0xff,0x07,0xf8,0xff,0x7f,0x00,0xff,0x03,0x00,0x00,0xc0,0xff,0x00,0xfe,0xff,0x1f,0xe0,0xff,0x00,0x00,0x00,0xf8,0x1f,0xc0,0xff,0xff,0x03,0xfc,0x1f,0x00,0x00,0x00,0xfb,0x07,0xf8,0xff,0x7f,0x00,0xff,0x03,0x00,0x00,0xc0,0xff,0x00,0xfe,0xff,0x1b,0xe0,0xdf,0x00,0x00,0x00,0xf8,0x37,0xc0,0xbf,0xff,0x03,0xfc,0x1f,0x00,0x00,0x00,0xff,0x07,0xf8,0xff,0x7f,0x00,0xff,0x03,0x00,0x00,0xc0,0xff,0x00,0xfe,0xff,0x1f,0xe0,0xff,0x00,0x00,0x00,0xf8,0x3f,0xc0,0xff,0xff,0xff,0xff,0x1f,0x00,0x00,0x00,0xff,0xff,0xff,0xff,0xff,0xff,0xff,0x03,0x00,0x00,0xc0,0xff,0xff,0xff,0xff,0xff,0xff,0xff,0x00,0x00,0x00,0xf8,0xff,0xff,0xff,0xff,0xff,0xff,0x1f,0x00,0x00,0x00,0xfb,0xff,0xff,0xff,0xff,0xff,0xff,0x03,0x00,0x00,0xc0,0xff,0xff,0xff,0xff,0xff,0xff,0xff,0x00,0x00,0x00,0xf8,0xff,0xff,0xff,0xff,0xff,0xff,0x1f,0x00,0x00,0x00,0xff,0xff,0xff,0xff,0xff,0xff,0xff,0x03,0x00,0x00,0xc0,0xff,0xff,0xff,0xff,0xff,0xff,0xff,0x00,0x00,0x00,0xf8,0xff,0xff,0xff,0xff,0xff,0xff,0x1f,0x00,0x00,0x00,0xff,0xff,0xff,0xff,0xff,0xff,0xff,0x03,0x00,0x00,0xc0,0xff,0xff,0xff,0xff,0xff,0xff,0xff,0x00,0x00,0x00,0xf8,0xff,0xff,0xff,0xcf,0x9f,0x7f,0x1e,0x00,0x00,0x00,0x9f,0x3f,0xff,0xfc,0xf9,0xe3,0xcf,0x03,0x00,0x00,0xc0,0xf3,0xc7,0x9f,0x3f,0xff,0xfc,0xf9,0x00,0x00,0x00,0x78,0xfe,0xf9,0xf3,0xcf,0x9f,0x7f,0x1e,0x00,0x00,0x00,0x9f,0x3f,0x7f,0xfc,0xf9,0xe3,0xcf,0x03,0x00,0x00,0xc0,0xf3,0xc7,0x9f,0x3f,0xff,0xfc,0xf9,0x00,0x00,0x00,0x78,0xfe,0xf9,0xf3,0xff,0xff,0xff,0x1f,0x00,0x00,0x00,0xff,0xff,0xff,0xff,0xff,0xff,0xff,0x03,0x00,0x00,0xc0,0xff,0xff,0xff,0xff,0xff,0xff,0xff,0x00,0x00,0x00,0xf8,0xff,0xff,0xff,0xff,0xff,0xff,0x1f,0x00,0x00,0x00,0xff,0xff,0xff,0xff,0xff,0xff,0xff,0x03,0x00,0x00,0xc0,0xff,0xff,0xff,0xff,0xff,0xff,0xff,0x00,0x00,0x00,0xf8,0xff,0xff,0xff,0xff,0xff,0xff,0x1f,0x00,0x00,0x00,0xff,0xff,0xff,0xff,0xff,0xff,0xff,0x03,0x00,0x00,0xc0,0xff,0xff,0xff,0xff,0xff,0xff,0xff,0x00,0x00,0x00,0xf8,0xff,0xff,0xff,0xff,0xff,0xff,0xff,0xff,0xff,0xff,0xff,0xff,0xff,0xff,0xff,0xff,0xff,0xff,0xff,0xff,0xff,0xff,0xff,0xff,0xff,0xff,0xff,0xff,0xff,0xff,0xff,0xff,0xff,0xff,0xff,0xff,0xff,0xff,0xff,0xff,0xff,0xff,0xff,0xff,0xff,0xff,0xff,0xff,0xff,0xff,0xff,0xff,0xff,0xff,0xff,0xff,0xff,0xff,0xff,0xff,0xff,0xff,0xff,0xff,0xff,0xff,0xff,0xff,0xff,0xff,0xff,0xff,0xff,0xff,0xff,0xff,0xff,0xff,0xff,0xff,0xff,0xff,0xff,0xff,0xff,0xff,0xff,0xff,0xff,0xff,0xff,0xff,0xff,0xff,0xff,0xff,0xff,0xff,0xff,0xff,0xff,0xff,0xff,0xff,0xff,0xff,0xff,0xff,0xff,0xff,0xff,0xff,0xff,0xff,0xff,0xff,0xff,0xff,0xff,0xff,0xff,0xff,0xff,0xff,0xff,0xff,0xff,0xff,0xff,0xff,0xff,0xcf,0x9f,0x7f,0xfe,0xfc,0xf3,0xe7,0x9f,0x3f,0xff,0xfc,0xf9,0xe3,0xcf,0x1f,0x7f,0xfe,0xf8,0xf3,0xc7,0x9f,0x3f,0xfe,0xfc,0xf9,0xe7,0xcf,0x3f,0x7f,0xfe,0xf9,0xf3,0xcf,0x9f,0x7f,0xfe,0xfc,0xf3,0xe7,0x9f,0x3f,0xff,0xfc,0xf9,0xe3,0xcf,0x1f,0x7f,0xfe,0xf8,0xf3,0xc7,0x9f,0x3f,0xfe,0xfc,0xf9,0xe7,0xcf,0x3f,0x7f,0xfe,0xf9,0xf3,0xff,0xff,0xff,0xff,0xff,0xff,0xff,0xff,0xff,0xff,0xff,0xff,0xff,0xff,0xff,0xff,0xff,0xff,0xff,0xff,0xff,0xff,0xff,0xff,0xff,0xff,0xff,0xff,0xff,0xfe,0xff,0xff,0xff,0xff,0xff,0xff,0xff,0xff,0xff,0xff,0xff,0xff,0xff,0xff,0xff,0xff,0xff,0xff,0xff,0xff,0xff,0xff,0xff,0xff,0xff,0xff,0xff,0xff,0xff,0xff,0xff,0xff,0xff,0xff,0xff,0xff,0xff,0xff,0x7f,0xff,0xff,0xfb,0xff,0xff,0xff,0xff,0xff,0xff,0xbf,0xff,0xff,0xfd,0xff,0xff,0xff,0xff,0xfb,0xff,0xff,0xff,0xff,0xfe,0xff,0xff,0xff,0xff,0xff,0xff,0xff,0xff,0xff,0xff,0xff,0xff,0xff,0xff,0xff,0xff,0xff,0xff,0xff,0xff,0xff,0xff,0xff,0xff,0xff,0xff,0xff,0xff,0xff,0xff,0xff,0xff,0xff,0xff,0xff,0xff,0xff,0xff,0xfc,0xff,0xbf,0xbf,0xff,0xff,0xf7,0xff,0xff,0xff,0xd7,0xff,0xff,0xbf,0xf2,0xff,0xff,0xff,0xff,0xff,0xbf,0xfd,0xff,0xff,0xff,0xfe,0xff,0xff,0xdf,0xff,0xff,0x03,0xfc,0xff,0x3f,0x80,0xff,0xff,0x07,0xf8,0xff,0x7f,0x00,0xff,0xff,0x0f,0xf0,0xff,0xff,0x00,0xfe,0xff,0x1f,0xe0,0xff,0xff,0x01,0xfc,0xff,0x3f,0xc0,0xff,0xff,0x03,0xfc,0xff,0x3f,0x80,0xff,0xff,0x07,0xf8,0xff,0x7f,0x00,0xff,0xff,0x0f,0xf0,0xff,0xff,0x00,0xfe,0xff,0x1f,0xe0,0xff,0xff,0x01,0xfc,0xff,0x1f,0xc0,0xff,0xff,0x03,0xfc,0xff,0x3f,0x80,0xff,0xff,0x07,0xf8,0xff,0x7f,0x00,0xff,0xff,0x0f,0xf0,0xff,0xff,0x00,0xfe,0xff,0x1f,0xe0,0xff,0xff,0x01,0xfc,0xff,0x3f,0xc0,0xff,0xcf,0x03,0x7c,0xfe,0x3c,0x80,0xe7,0x9f,0x07,0x78,0xfc,0x79,0x00,0xcf,0x1f,0x0f,0xf0,0xf8,0xf3,0x00,0x9e,0x3f,0x1e,0xe0,0xf9,0xe7,0x01,0x3c,0x7f,0x3e,0xc0,0xf3,0xcf,0x03,0x7c,0xfe,0x3c,0x80,0xe7,0x9f,0x07,0x78,0xfc,0x79,0x00,0xcf,0x1f,0x0f,0xf0,0xf8,0xf3,0x00,0x9e,0x3f,0x1f,0xe0,0xf9,0xe7,0x01,0x3c,0x7f,0x3e,0xc0,0xf3,0xff,0x03,0xf8,0xff,0x3f,0x80,0xff,0xff,0x07,0xf8,0xff,0x7f,0x00,0xff,0xff,0x0f,0xf0,0xff,0xff,0x00,0xfe,0xff,0x1f,0xe0,0xff,0xff,0x01,0xfc,0xff,0x1f,0xc0,0xff,0xff,0x03,0xfc,0xff,0x3f,0x80,0xff,0xff,0x07,0xf8,0xff,0x7f,0x00,0xff,0xff,0x0f,0xf0,0xff,0xff,0x00,0xfe,0xff,0x1f,0xe0,0xff,0xff,0x01,0xfc,0xff,0x1f,0xc0,0xff,0xff,0x03,0xfc,0xff,0x3f,0x80,0xff,0xff,0x07,0xf8,0xff,0x7f,0x00,0xff,0xff,0x0f,0xf0,0xff,0xff,0x00,0xfe,0xff,0x1f,0xe0,0xff,0xff,0x01,0xfc,0xff,0x1f,0xc0,0xff,0xff,0xff,0xff,0xff,0xff,0xff,0xff,0xff,0xff,0xff,0xff,0xff,0xff,0xff,0xff,0xff,0xff,0xff,0xff,0xff,0xff,0xff,0xff,0xff,0xff,0xff,0xff,0xff,0xff,0xff,0xff,0xff,0xff,0xff,0xff,0xff,0xff,0xff,0xff,0xff,0xff,0xff,0xff,0xff,0xff,0xff,0xff,0xff,0xff,0xff,0xff,0xff,0xff,0xff,0xff,0xff,0xff,0xff,0xff,0xff,0xff,0xff,0xff,0xff,0xff,0xff,0xff,0xff,0xff,0xff,0xff,0xff,0xff,0xff,0xff,0xff,0xff,0xff,0xff,0xff,0xff,0xff,0xff,0xff,0xff,0xff,0xff,0xff,0xff,0xff,0xff,0xff,0xff,0xff,0xff,0xff,0xff,0xff,0xff,0xff,0xff,0xff,0xff,0xff,0xff,0xff,0xff,0xff,0xff,0xff,0xff,0xff,0xff,0xff,0xff,0xff,0xff,0xff,0xff,0xff,0xff,0xff,0xff,0xff,0xff,0xff,0xff,0xff,0xcf,0x9f,0x7f,0xfe,0xfc,0xf3,0xe7,0x8f,0x3f,0xff,0xfc,0xf9,0xe3,0xcf,0x1f,0x7f,0xfe,0xf8,0xf3,0xc7,0x9f,0x3f,0xff,0xfc,0xf9,0xe7,0xcf,0x3f,0x7f,0xfe,0xf9,0xf3,0xcf,0x9f,0x7f,0xfe,0xfc,0xf3,0xe7,0x9f,0x3f,0xff,0xfc,0xf9,0xe3,0xcf,0x1f,0x7f,0xfe,0xf8,0xf3,0xc7,0x9f,0x3f,0xff,0xfc,0xf9,0xe7,0xcf,0x3f,0x7f,0xfe,0xf9,0xf3,0xff,0xff,0xff,0xff,0xff,0xff,0xff,0xff,0xff,0xff,0xff,0xff,0xff,0xff,0xff,0xff,0xff,0xff,0xff,0xff,0xff,0xff,0xff,0xff,0xff,0xff,0xff,0xff,0xff,0xff,0xff,0xff,0xff,0xff,0xff,0xff,0xff,0xff,0xff,0xff,0xff,0xff,0xff,0xff,0xff,0xff,0xff,0xff,0xff,0xff,0xff,0xff,0xff,0xff,0xff,0xff,0xff,0xff,0xff,0xff,0xff,0xff,0xff,0xff,0xff,0xff,0xff,0xff,0xff,0xff,0xff,0xff,0xff,0xff,0xff,0xdf,0xff,0xff,0xff,0xff,0xff,0xff,0xff,0xff,0xff,0xff,0xff,0xff,0xdf,0xff,0xff,0xff,0xff,0xff,0xff,0xff,0xff,0xff,0xff,0xff,0xff,0xff,0xff,0xff,0xff,0xff,0xff,0xff,0xff,0xff,0xff,0xff,0xff,0xff,0xff,0xff,0xff,0xff,0xff,0xff,0xff,0xff,0xff,0xff,0xff,0xff,0xff,0xff};
