#define x_width 256
#define x_height 256
static char x_bits[] = {
0x00,0x00,0x00,0x00,0x00,0x00,0x00,0x00,0x00,0x00,0x00,0x00,0x00,0x00,0x00,0x80,0x01,0x00,0x00,0x00,0x00,0x00,0x00,0x00,0x00,0x00,0x00,0x00,0x00,0x00,0x00,0x00,0x00,0x00,0x00,0x00,0x00,0x00,0x00,0x00,0x00,0x00,0x00,0x00,0x00,0x00,0x00,0x80,0x01,0x00,0x00,0x00,0x00,0x00,0x00,0x00,0x00,0x00,0x00,0x00,0x00,0x00,0x00,0x00,0x00,0x00,0x00,0x00,0x00,0x00,0x00,0x00,0x00,0x00,0x00,0x00,0x00,0x00,0x00,0x80,0x01,0x00,0x00,0x00,0x00,0x00,0x00,0x00,0x00,0x00,0x00,0x00,0x00,0x00,0x00,0x00,0x00,0x00,0x00,0x00,0x00,0x00,0x00,0x00,0x00,0x00,0x00,0x00,0x00,0x00,0x00,0x80,0x01,0x00,0x00,0x00,0x00,0x00,0x00,0x00,0x00,0x00,0x00,0x00,0x00,0x00,0x00,0x00,0x00,0x00,0x00,0x00,0x00,0x00,0x00,0x00,0x00,0x00,0x00,0x00,0x00,0x00,0x00,0x80,0x01,0x00,0x00,0x00,0x00,0x00,0x00,0x00,0x00,0x00,0x00,0x00,0x00,0x00,0x00,0x00,0x00,0x00,0x00,0x00,0x00,0x00,0x00,0x00,0x00,0x00,0x00,0x00,0x00,0x00,0x00,0x80,0x01,0x00,0x00,0x00,0x00,0x00,0x00,0x00,0x00,0x00,0x00,0x00,0x00,0x00,0x00,0x00,0x00,0x00,0x00,0x00,0x00,0x00,0x00,0x00,0x00,0x00,0x00,0x00,0x00,0x00,0x00,0x80,0x01,0x00,0x00,0x00,0x00,0x00,0x00,0x00,0x00,0x00,0x00,0x00,0x00,0x00,0x00,0x00,0x00,0x00,0x00,0x00,0x00,0x00,0x00,0x00,0x00,0x00,0x00,0x00,0x00,0x00,0x00,0x80,0x01,0x00,0x00,0x00,0x00,0x00,0x00,0x00,0x00,0x00,0x00,0x00,0x00,0x00,0x00,0x00,0x00,0x00,0x00,0x00,0x00,0x00,0x00,0x00,0x00,0x00,0x00,0x00,0x00,0x00,0x00,0x80,0x01,0x00,0x00,0x00,0x00,0x00,0x00,0x00,0x00,0x00,0x00,0x00,0x00,0x00,0x00,0x00,0x00,0x00,0x00,0x00,0x00,0x00,0x00,0x00,0x00,0x00,0x00,0x00,0x00,0x00,0x00,0xb0,0x0d,0x00,0x00,0x00,0x00,0x00,0x00,0x00,0x00,0x00,0x00,0x00,0x00,0x00,0x00,0x00,0x00,0x00,0x00,0x00,0x00,0x00,0x00,0x00,0x00,0x00,0x00,0x00,0x00,0x00,0x00,0xb0,0x0d,0x00,0x00,0x00,0x00,0x00,0x00,0x00,0x00,0x00,0x00,0x00,0x00,0x00,0x00,0x00,0x00,0x00,0x00,0x00,0x00,0x00,0x00,0x00,0x00,0x00,0x00,0x00,0x00,0x00,0x00,0xb0,0x0d,0x00,0x00,0x00,0x00,0x00,0x00,0x00,0x00,0x00,0x00,0x00,0x00,0x00,0x00,0x00,0x00,0x00,0x00,0x00,0x00,0x00,0x00,0x00,0x00,0x00,0x00,0x00,0x00,0x00,0x00,0xb0,0x0d,0x00,0x00,0x00,0x00,0x00,0x00,0x00,0x00,0x00,0x00,0x00,0x00,0x00,0x00,0x00,0x00,0x00,0x00,0x00,0x00,0x00,0x00,0x00,0x00,0x00,0x00,0x00,0x00,0x00,0x00,0xb0,0x0d,0x00,0x00,0x00,0x00,0x00,0x00,0x00,0x00,0x00,0x00,0x00,0x00,0x00,0x00,0x00,0x00,0x00,0x00,0x00,0x00,0x00,0x00,0x00,0x00,0x00,0x00,0x00,0x00,0x00,0x00,0xb0,0x05,0x00,0x00,0x00,0x00,0x00,0x00,0x00,0x00,0x00,0x00,0x00,0x00,0x00,0x00,0x00,0x00,0x00,0x00,0x00,0x00,0x00,0x00,0x00,0x00,0x00,0x00,0x00,0x00,0x00,0x00,0xf0,0x0f,0x00,0x00,0x00,0x00,0x00,0x00,0x00,0x00,0x00,0x00,0x00,0x00,0x00,0x00,0x00,0x00,0x00,0x00,0x00,0x00,0x00,0x00,0x00,0x00,0x00,0x00,0x00,0x00,0x00,0x00,0xf0,0x0f,0x00,0x00,0x00,0x00,0x00,0x00,0x00,0x00,0x00,0x00,0x00,0x00,0x00,0x00,0x00,0x00,0x00,0x00,0x00,0x00,0x00,0x00,0x00,0x00,0x00,0x00,0x00,0x00,0x00,0x00,0xf0,0x0f,0x00,0x00,0x00,0x00,0x00,0x00,0x00,0x00,0x00,0x00,0x00,0x00,0x00,0x00,0x00,0x00,0x00,0x00,0x00,0x00,0x00,0x00,0x00,0x00,0x00,0x00,0x00,0x00,0x20,0x08,0xf0,0x0f,0x00,0x04,0x00,0x00,0x00,0x00,0x00,0x00,0x00,0x00,0x00,0x00,0x00,0x00,0x00,0x00,0x00,0x00,0x00,0x00,0x00,0x00,0x00,0x00,0x00,0x00,0x00,0x00,0x40,0x08,0xe0,0x07,0x10,0x06,0x00,0x00,0x00,0x00,0x00,0x00,0x00,0x00,0x00,0x00,0x00,0x00,0x00,0x00,0x00,0x00,0x00,0x00,0x00,0x00,0x00,0x00,0x00,0x00,0x00,0x00,0xc0,0x08,0xe0,0x07,0x30,0x03,0x00,0x00,0x00,0x00,0x00,0x00,0x00,0x00,0x00,0x00,0x00,0x00,0x00,0x00,0x00,0x00,0x00,0x00,0x00,0x00,0x00,0x00,0x00,0x00,0x00,0x00,0xc0,0x0d,0xe0,0x07,0xb0,0x03,0x00,0x00,0x00,0x00,0x00,0x00,0x00,0x00,0x00,0x00,0x00,0x00,0x00,0x00,0x00,0x00,0x00,0x00,0x00,0x00,0x00,0x00,0x00,0x00,0x00,0x00,0x80,0x0d,0xe0,0x07,0xb0,0x01,0x00,0x00,0x00,0x00,0x00,0x00,0x00,0x00,0x00,0x00,0x00,0x00,0x00,0x00,0x00,0x00,0x00,0x00,0x00,0x00,0x00,0x00,0x00,0x00,0x00,0x00,0xc0,0x1d,0xe0,0x07,0xb8,0x03,0x00,0x00,0x00,0x00,0x00,0x00,0x00,0x00,0x00,0x00,0x00,0x00,0x00,0x00,0x00,0x00,0x00,0x00,0x00,0x00,0x00,0x00,0x00,0x00,0x00,0x00,0x80,0x3b,0xe0,0x07,0xdc,0x01,0x00,0x00,0x00,0x00,0x00,0x00,0x00,0x00,0x00,0x00,0x00,0x00,0x00,0x00,0x00,0x00,0x00,0x00,0x00,0x00,0x00,0x00,0x00,0x00,0x00,0x00,0x80,0x3b,0xe0,0x07,0xc8,0x01,0x00,0x00,0x00,0x00,0x00,0x00,0x00,0x00,0x00,0x00,0x00,0x00,0x00,0x00,0x00,0x00,0x00,0x00,0x00,0x00,0x00,0x00,0x00,0x00,0x00,0x00,0x00,0x33,0xe0,0x07,0xfc,0x01,0x00,0x00,0x00,0x00,0x00,0x00,0x00,0x00,0x00,0x00,0x00,0x00,0x00,0x00,0x00,0x00,0x00,0x00,0x00,0x00,0x00,0x00,0x00,0x00,0x00,0x00,0x00,0x3f,0xf8,0x1f,0xfc,0x00,0x00,0x00,0x00,0x00,0x00,0x00,0x00,0x00,0x00,0x00,0x00,0x00,0x00,0x00,0x00,0x00,0x00,0x00,0x00,0x00,0x00,0x00,0x00,0x00,0x00,0x00,0x00,0x3f,0xf8,0x1f,0xfc,0x00,0x00,0x00,0x00,0x00,0x00,0x00,0x00,0x00,0x00,0x00,0x00,0x00,0x00,0x00,0x00,0x00,0x00,0x00,0x00,0x00,0x00,0x00,0x00,0x00,0x00,0x00,0x00,0x3e,0xf8,0x1f,0x7c,0x00,0x00,0x00,0x00,0x00,0x00,0x00,0x00,0x00,0x00,0x00,0x00,0x00,0x00,0x00,0x00,0x00,0x00,0x00,0x00,0x00,0x00,0x00,0x00,0x00,0x00,0x00,0xc0,0x7e,0xf9,0x9f,0x7e,0x03,0x00,0x00,0x00,0x00,0x00,0x00,0x00,0x00,0x00,0x00,0x00,0x00,0x00,0x00,0x00,0x00,0x00,0x00,0x00,0x00,0x00,0x00,0x00,0x00,0x00,0x00,0xe0,0x7f,0xff,0xbf,0x7e,0x07,0x00,0x00,0x00,0x00,0x00,0x00,0x00,0x00,0x00,0x00,0x00,0x00,0x00,0x00,0x00,0x00,0x00,0x00,0x00,0x00,0x00,0x00,0x00,0x00,0x00,0x00,0xc0,0xff,0xff,0xff,0xff,0x03,0x00,0x00,0x00,0x00,0x00,0x00,0x00,0x00,0x00,0x00,0x00,0x00,0x00,0x00,0x00,0x00,0x00,0x00,0x00,0x00,0x00,0x00,0x00,0x00,0x00,0x00,0xc0,0xff,0xff,0xff,0xfb,0x03,0x00,0x00,0x00,0x00,0x00,0x00,0x00,0x00,0x00,0x00,0x00,0x00,0x00,0x00,0x00,0x00,0x00,0x00,0x00,0x00,0x00,0x00,0x00,0x00,0x00,0x00,0x00,0xff,0xff,0xff,0xff,0x01,0x00,0x00,0x00,0x00,0x00,0x00,0x00,0x00,0x00,0x00,0x00,0x00,0x00,0x00,0x00,0x00,0x00,0x00,0x00,0x00,0x00,0x00,0x00,0x00,0x00,0x00,0x00,0xff,0xff,0xff,0xff,0x00,0x00,0x00,0x00,0x00,0x00,0x00,0x00,0x00,0x00,0x00,0x00,0x00,0x00,0x00,0x00,0x00,0x00,0x00,0x00,0x00,0x00,0x00,0x00,0x00,0x00,0x00,0x80,0xff,0xff,0xff,0xff,0x01,0x00,0x00,0x00,0x00,0x00,0x00,0x00,0x00,0x00,0x00,0x00,0x00,0x00,0x00,0x00,0x00,0x00,0x60,0x00,0x00,0x80,0x00,0x00,0x00,0x00,0x00,0x00,0xff,0xe7,0xe7,0xff,0x00,0x00,0x00,0x00,0x00,0x00,0x01,0x00,0x00,0x04,0x00,0x00,0x00,0x00,0x00,0x00,0x00,0x00,0xc0,0x00,0x00,0x80,0x01,0x00,0x00,0x00,0x00,0x00,0xfc,0xe7,0xe7,0x3f,0x00,0x00,0x00,0x00,0x00,0x00,0x01,0x00,0x00,0x07,0x00,0x00,0x00,0x00,0x00,0x00,0x00,0x00,0x80,0x01,0x00,0x00,0x01,0x00,0x00,0x00,0x00,0x00,0xfc,0xe7,0xe7,0x3f,0x00,0x00,0x00,0x00,0x00,0x80,0x01,0x00,0x80,0x03,0x00,0x00,0x00,0x00,0x00,0x00,0x00,0x00,0x80,0x03,0x00,0x80,0x01,0x00,0x00,0x00,0x00,0x00,0xf8,0xe7,0xe7,0x1f,0x00,0x00,0x00,0x00,0x00,0x80,0x01,0x00,0xc0,0x01,0x00,0x00,0x00,0x00,0x00,0x00,0x00,0x00,0x00,0x47,0x00,0x90,0x07,0x00,0x00,0x00,0x00,0x00,0xf8,0xe5,0xe7,0x1f,0x00,0x00,0x00,0x00,0x00,0xc0,0x09,0x00,0xe3,0x00,0x00,0x00,0x00,0x00,0x00,0x00,0x00,0x00,0x00,0xce,0x00,0x70,0x07,0x00,0x00,0x00,0x00,0x00,0xf8,0xef,0xf7,0x1f,0x00,0x00,0x00,0x00,0x00,0xe0,0x0c,0x00,0x73,0x00,0x00,0x00,0x00,0x00,0x00,0x00,0x00,0x00,0x00,0xdc,0x01,0x60,0x07,0x00,0x00,0x00,0x00,0x00,0xf8,0xef,0xe7,0x1f,0x00,0x00,0x00,0x00,0x00,0xe0,0x0e,0x80,0x3b,0x00,0x00,0x00,0x00,0x00,0x00,0x00,0x00,0x00,0x00,0xb8,0x03,0xe0,0x0e,0x00,0x00,0x00,0x00,0x00,0xf8,0xef,0xf7,0x1f,0x00,0x00,0x00,0x00,0x00,0x70,0x07,0xc0,0x1d,0x00,0x00,0x00,0x00,0x00,0x00,0x00,0x00,0x00,0x00,0x70,0x07,0xc0,0x0e,0x00,0x00,0x00,0x00,0x00,0xfc,0xff,0xff,0x3f,0x00,0x00,0x00,0x00,0x00,0x30,0x03,0xe0,0x0e,0x00,0x00,0x00,0x00,0x00,0x00,0x00,0x00,0x00,0x00,0xee,0x0f,0xc0,0xdc,0x00,0x00,0x00,0x00,0x00,0xfc,0xff,0xdf,0x3f,0x00,0x00,0x00,0x00,0x00,0x3a,0x03,0xf0,0x77,0x00,0x00,0x00,0x00,0x00,0x00,0x00,0x00,0x00,0x00,0xdc,0x1f,0x00,0x9f,0x01,0x00,0x00,0x00,0x00,0xf8,0xff,0xff,0x1f,0x00,0x00,0x00,0x00,0x80,0xf9,0x03,0xf8,0x3b,0x00,0x00,0x00,0x00,0x00,0x00,0x00,0x00,0x00,0x00,0xf8,0x1f,0x80,0xbf,0x03,0x00,0x00,0x00,0x00,0xf8,0xfb,0xff,0x1e,0x00,0x00,0x00,0x00,0xc0,0xfd,0x01,0xf8,0x1f,0x00,0x00,0x00,0x00,0x00,0x00,0x00,0x00,0x00,0x00,0xf0,0x3f,0x00,0xfe,0x03,0x00,0x00,0x00,0x00,0xf8,0xfe,0xff,0x1f,0x00,0x00,0x00,0x00,0x80,0xfe,0x00,0xfc,0x0f,0x00,0x00,0x00,0x00,0x00,0x00,0x00,0x00,0x00,0x00,0xe0,0x7f,0x00,0xfe,0x03,0x00,0x00,0x00,0x00,0xe8,0xff,0xff,0x1f,0x00,0x00,0x00,0x00,0xc0,0x7f,0x00,0xfe,0x07,0x00,0x00,0x00,0x00,0x00,0x00,0x00,0x00,0x00,0x00,0xc0,0xff,0x00,0xfe,0x07,0x00,0x00,0x00,0x00,0xb8,0xff,0xff,0x1d,0x00,0x00,0x00,0x00,0xc0,0x7f,0x00,0xff,0x03,0x00,0x00,0x00,0x00,0x00,0x00,0x00,0x00,0x00,0x00,0x80,0xff,0x01,0xe4,0x07,0x00,0x00,0x00,0x00,0x2c,0xff,0xff,0x35,0x00,0x00,0x00,0x00,0xe0,0x7f,0x80,0xff,0x01,0x00,0x00,0x00,0x00,0x00,0x00,0x00,0x00,0x00,0x00,0x00,0xfe,0x13,0xe4,0x07,0x00,0x00,0x00,0x00,0x3e,0xbf,0xfd,0x78,0x00,0x00,0x00,0x00,0xc0,0x3f,0xc8,0x7f,0x00,0x00,0x00,0x00,0x00,0x00,0x00,0x00,0x00,0x00,0x00,0x00,0xfc,0x1f,0xef,0x07,0x00,0x00,0x00,0x04,0x1e,0xbe,0xfd,0x78,0x20,0x00,0x00,0x00,0xa0,0xbf,0xf8,0x3f,0x00,0x00,0x00,0x00,0x00,0x00,0x00,0x00,0x00,0x00,0x00,0x00,0xf8,0x3f,0xee,0x07,0x00,0x00,0x00,0x3c,0x1e,0x9f,0xfd,0x78,0x3c,0x00,0x00,0x00,0x60,0x77,0xfc,0x1f,0x00,0x00,0x00,0x00,0x00,0x00,0x00,0x00,0x00,0x00,0x00,0x00,0xf0,0xff,0xff,0x0f,0x00,0x00,0x00,0x3c,0x3e,0xff,0xff,0x7c,0x3c,0x00,0x00,0x00,0xa0,0xff,0xff,0x0f,0x00,0x00,0x00,0x00,0x00,0x00,0x00,0x00,0x00,0x00,0x00,0x00,0xe0,0xff,0xff,0x0f,0x00,0x00,0x00,0xfc,0xff,0xbf,0xff,0xff,0x3f,0x00,0x00,0x00,0xd0,0xff,0xff,0x07,0x00,0x00,0x00,0x00,0x00,0x00,0x00,0x00,0x00,0x00,0x00,0x00,0xc0,0xff,0xfd,0x1f,0x00,0x00,0x00,0xf8,0xff,0xef,0xf7,0xff,0x1f,0x00,0x00,0x00,0xf8,0xbf,0xff,0x03,0x00,0x00,0x00,0x00,0x00,0x00,0x00,0x00,0x00,0x00,0x00,0x00,0xc0,0xff,0xff,0x1f,0x00,0x00,0x00,0xf0,0xfd,0xe7,0xe7,0xff,0x0f,0x00,0x00,0x00,0xe8,0xff,0xff,0x03,0x00,0x00,0x00,0x00,0x00,0x00,0x00,0x00,0x00,0x00,0x00,0x0e,0xe0,0xff,0xff,0xef,0x00,0x08,0x00,0xf0,0xff,0xef,0xf7,0xff,0x0f,0x00,0x10,0x00,0xff,0xff,0xff,0x07,0x70,0x00,0x00,0x00,0x00,0x00,0x00,0x00,0x00,0x00,0x00,0x18,0x80,0xff,0xe3,0xff,0x00,0x08,0x00,0xf0,0xff,0xef,0xf7,0xff,0x1f,0x00,0x18,0x00,0x5f,0xc7,0xff,0x01,0x38,0x00,0x00,0x00,0x00,0x00,0x00,0x00,0x00,0x00,0x00,0xf8,0x00,0xff,0x47,0xff,0x00,0x38,0x00,0xff,0x7f,0xbf,0xff,0xff,0xff,0x00,0x3c,0x00,0xf7,0xe2,0xff,0x00,0x1f,0x00,0x00,0x00,0x00,0x00,0x00,0x00,0x00,0x00,0xc0,0xf3,0x01,0x7f,0xcf,0xff,0x03,0x3c,0xc0,0xff,0xff,0xff,0xff,0xff,0xff,0x03,0x3c,0xc0,0xff,0xf3,0xff,0x00,0xcf,0x07,0x00,0x00,0x00,0x00,0x00,0x00,0x00,0x00,0xc0,0x8f,0x63,0xff,0x9f,0xfb,0x2f,0x3c,0xd4,0xff,0xff,0xff,0xff,0xff,0xff,0x2b,0x3c,0xf4,0x7f,0xf9,0xff,0xc6,0xf1,0x03,0x00,0x00,0x00,0x00,0x00,0x00,0x00,0x00,0x00,0x9e,0x97,0xfb,0x1f,0xdf,0x7b,0x38,0x1e,0xff,0xff,0xff,0xff,0xff,0xff,0x78,0x38,0x9c,0xfb,0xfc,0xdf,0xfb,0x78,0x00,0x00,0x00,0x00,0x00,0x00,0x00,0x00,0x00,0x00,0xfe,0xff,0xdf,0x7f,0xdb,0x7e,0x38,0x1f,0xf8,0xff,0xcf,0xf7,0xff,0x1f,0xf8,0x7c,0x7e,0xdd,0xfe,0xfb,0xff,0x7f,0x00,0x00,0x00,0x00,0x00,0x00,0x00,0x00,0x00,0x00,0xf0,0xef,0x9e,0xff,0xe7,0xf8,0xff,0x1f,0xf0,0xff,0xcf,0xf7,0xff,0x0f,0xf8,0xff,0x3f,0xc3,0xff,0xf9,0xf3,0x0f,0x00,0x00,0x00,0x00,0x00,0x00,0x00,0x00,0x00,0x00,0x80,0x3f,0x1f,0xff,0x77,0xf1,0xef,0x0f,0xf0,0xff,0xcf,0xe7,0xbf,0x0f,0xf0,0xff,0x1f,0xe9,0xff,0xf8,0xf8,0x03,0x00,0x00,0x00,0x00,0x00,0x00,0x00,0x00,0x00,0x00,0x00,0x7f,0x3f,0xfe,0xff,0xe1,0xf9,0x07,0xf8,0xff,0xef,0xf7,0xff,0x1f,0xe0,0xff,0x07,0xfd,0x7f,0xbc,0xff,0x00,0x00,0x00,0x00,0x00,0x00,0x00,0x00,0x00,0x00,0x00,0x00,0xfe,0x7f,0xfc,0xff,0xe1,0xff,0x07,0xfc,0xff,0xff,0xff,0xff,0x3f,0xe0,0xff,0x87,0xfe,0x3f,0xff,0x7f,0x02,0x00,0x00,0x00,0x00,0x00,0x00,0x00,0x00,0x00,0x00,0xc0,0xdd,0x9f,0xf9,0xff,0xe3,0xff,0x47,0x3c,0x3e,0xff,0xfd,0x7c,0x3c,0xf2,0xff,0x87,0xff,0xdf,0xfd,0xff,0x03,0x00,0x00,0x00,0x00,0x00,0x00,0x00,0x00,0x00,0x00,0x80,0x7f,0x9f,0xff,0xff,0xdf,0xff,0x7f,0x3c,0x1e,0xbe,0xf9,0x78,0x3c,0xf6,0xff,0x5e,0xff,0xff,0xff,0xff,0x01,0x00,0x00,0x00,0x00,0x00,0x00,0x00,0x00,0x00,0x00,0x00,0x9d,0xfe,0xff,0xf7,0x3f,0xff,0xff,0x05,0x1e,0xbf,0xf9,0x78,0xa8,0xff,0xff,0xff,0xff,0x9f,0xff,0xff,0x00,0x00,0x00,0x00,0x00,0x00,0x00,0x00,0x00,0x00,0x00,0x00,0xe0,0x55,0xf3,0xef,0x9e,0xff,0xff,0x00,0x1e,0xbf,0xfd,0x7c,0x00,0xff,0xfb,0xff,0xf7,0x5f,0xff,0x1f,0x00,0x00,0x00,0x00,0x00,0x00,0x00,0x00,0x00,0x00,0x00,0x00,0x00,0x7e,0xc6,0xdf,0x3f,0xfd,0x7e,0x00,0xac,0xbf,0xfb,0x35,0x00,0x76,0xf7,0xfe,0xf9,0xf7,0xff,0x01,0x00,0x00,0x00,0x00,0x00,0x00,0x00,0x00,0x00,0x00,0x00,0x00,0x00,0xbc,0xe6,0xbb,0xf9,0xff,0x07,0x00,0xa8,0xbf,0xff,0x1c,0x00,0xe0,0x7f,0x9f,0xdd,0xff,0x3f,0x00,0x00,0x00,0x00,0x00,0x00,0x00,0x00,0x00,0x00,0x00,0x00,0x00,0x00,0xf0,0x81,0x77,0xf9,0xf7,0x07,0x00,0xf8,0xbf,0xff,0x17,0x00,0xc0,0xcf,0xcf,0xee,0xb7,0x0f,0x00,0x00,0x00,0x00,0x00,0x00,0x00,0x00,0x00,0x00,0x00,0x00,0x00,0x00,0xf0,0xcb,0xe7,0xe3,0xfd,0x07,0x00,0x78,0xf8,0xff,0x1f,0x00,0xe0,0xd7,0xc7,0xd7,0xff,0x0f,0x00,0x00,0x00,0x00,0x00,0x00,0x00,0x00,0x00,0x00,0x00,0x00,0x00,0x00,0xd0,0xcf,0xdf,0xff,0xef,0x1f,0x00,0x78,0xf3,0xdf,0x1f,0x00,0xf8,0xff,0xff,0xff,0xff,0x0f,0x00,0x00,0x00,0x00,0x00,0x00,0x00,0x00,0x00,0x00,0x00,0x00,0x00,0x00,0x80,0xc3,0xfe,0xf7,0x6f,0x1f,0x00,0x78,0xf9,0xff,0x1f,0x00,0xf8,0xf6,0xff,0xff,0xcf,0x03,0x00,0x00,0x00,0x00,0x00,0x00,0x00,0x00,0x00,0x00,0x00,0x00,0x00,0x00,0x80,0x85,0xef,0x3f,0x3f,0x1e,0x00,0xfc,0xff,0xff,0x1f,0x00,0x78,0xfc,0xff,0xf3,0xe1,0x01,0x00,0x00,0x00,0x00,0x00,0x00,0x00,0x00,0x00,0x00,0x00,0x00,0x00,0x00,0x00,0x0d,0x8f,0x2e,0x1c,0x1e,0x00,0xfc,0xf7,0xff,0x3f,0x00,0x38,0x3c,0xf4,0xf1,0xa0,0x00,0x00,0x00,0x00,0x00,0x00,0x00,0x00,0x00,0x00,0x00,0x00,0x00,0x00,0x00,0x00,0x1f,0x8f,0xff,0x3c,0x2c,0x00,0xf8,0xeb,0xf7,0x1f,0x00,0x3c,0x3c,0xfd,0x7d,0xf0,0x00,0x00,0x00,0x00,0x00,0x00,0x00,0x00,0x00,0x00,0x00,0x00,0x00,0x00,0x00,0x00,0x9e,0x17,0xfb,0xbf,0x60,0x00,0xf8,0x6e,0xb7,0x1f,0x00,0x16,0xbc,0xdf,0xed,0x78,0x00,0x00,0x00,0x00,0x00,0x00,0x00,0x00,0x00,0x00,0x00,0x00,0x00,0x00,0x00,0x00,0xff,0xff,0xff,0x7f,0xfd,0x00,0xf8,0xef,0xe3,0x1f,0x80,0xff,0xdf,0xfd,0xdf,0xff,0x00,0x00,0x00,0x00,0x00,0x00,0x00,0x00,0x00,0x00,0x00,0x00,0x00,0x00,0x00,0x00,0xfc,0xff,0xf3,0x68,0xfe,0x03,0xf8,0xe7,0xe7,0x17,0x80,0xff,0xff,0x9f,0xff,0x7f,0x00,0x00,0x00,0x00,0x00,0x00,0x00,0x00,0x00,0x00,0x00,0x00,0x00,0x00,0x00,0x00,0xf8,0xf6,0xb1,0xf1,0xe0,0x03,0xf8,0xe7,0xe7,0x1f,0x00,0xcf,0x9d,0x9f,0x9f,0x1f,0x00,0x00,0x00,0x00,0x00,0x00,0x00,0x00,0x00,0x00,0x00,0x00,0x00,0x00,0x00,0x00,0xf8,0xff,0x71,0x6b,0xac,0x02,0xfc,0xe7,0xe7,0x3f,0xe0,0x17,0x97,0xcd,0xff,0x1f,0x00,0x00,0x00,0x00,0x00,0x00,0x00,0x00,0x00,0x00,0x00,0x00,0x00,0x00,0x00,0x40,0xfc,0xbf,0x61,0xe6,0xab,0x0f,0xfc,0xe3,0xe7,0x3f,0xf0,0x9f,0xcf,0xce,0xfd,0x3f,0x00,0x00,0x00,0x00,0x00,0x00,0x00,0x00,0x00,0x00,0x00,0x00,0x00,0x00,0x00,0xc0,0xff,0xbf,0x4f,0xfc,0x9f,0x36,0xff,0xe3,0xe7,0x7f,0xfc,0xd1,0x77,0xfe,0xbf,0xbb,0x03,0x00,0x00,0x00,0x00,0x00,0x00,0x00,0x00,0x00,0x00,0x00,0x00,0x00,0x00,0xf0,0xff,0x77,0x7d,0xf9,0x3d,0xfd,0xff,0xff,0xff,0xff,0xff,0x9d,0x3f,0xfe,0xf9,0xff,0x0f,0x00,0x00,0x00,0x00,0x00,0x00,0x00,0x00,0x00,0x00,0x00,0x00,0x00,0x00,0xe0,0xff,0xb7,0xff,0xeb,0xe7,0xbf,0xff,0xff,0xff,0xff,0xfd,0xef,0xff,0xff,0xef,0xff,0x03,0x00,0x00,0x00,0x00,0x00,0x00,0x00,0x00,0x00,0x00,0x00,0x00,0x00,0x00,0xc0,0xfd,0xfb,0xfb,0xff,0xb7,0xff,0xbf,0xff,0xff,0xff,0xfe,0xfd,0xff,0xff,0xff,0xff,0x03,0x00,0x00,0x00,0x00,0x00,0x00,0x00,0x00,0x00,0x00,0x00,0x00,0x00,0x00,0x00,0xf8,0xef,0x51,0xff,0xf3,0xfe,0xff,0xf7,0xef,0xff,0xff,0xe7,0xfe,0x8f,0xff,0x1f,0x00,0x00,0x00,0x00,0x00,0x00,0x00,0x00,0x00,0x00,0x00,0x00,0x00,0x00,0x00,0x00,0xf8,0xff,0xa1,0x3e,0xc3,0xff,0xff,0xff,0xff,0xff,0xff,0x33,0xff,0x8b,0xff,0x3f,0x00,0x00,0x00,0x00,0x00,0x00,0x00,0x00,0x00,0x00,0x00,0x00,0x00,0x00,0x00,0x00,0xfc,0xf7,0x60,0xf8,0x03,0xdf,0x7f,0xff,0xff,0xfe,0x7b,0x98,0x7d,0x87,0xef,0x3f,0x00,0x00,0x00,0x00,0x00,0x00,0x00,0x00,0x00,0x00,0x00,0x00,0x00,0x00,0x00,0x00,0xfe,0xf5,0x83,0xc4,0x10,0xfb,0xff,0xf9,0x8f,0x7f,0x5f,0xa8,0x6f,0xe0,0xff,0x7f,0x00,0x00,0x00,0x00,0x00,0x00,0x00,0x00,0x00,0x00,0x00,0x00,0x00,0x00,0x00,0x00,0xff,0xff,0x6f,0x37,0x68,0xfe,0xff,0xf7,0xef,0xff,0x3f,0x3e,0xbd,0xf2,0xff,0xff,0x00,0x00,0x00,0x00,0x00,0x00,0x00,0x00,0x00,0x00,0x00,0x00,0x00,0x00,0x00,0x00,0x1e,0x83,0x7f,0x26,0xf5,0x9b,0xff,0xff,0xff,0xff,0xde,0x3f,0xfc,0xff,0xf1,0x79,0x00,0x00,0x00,0x00,0x00,0x00,0x00,0x00,0x00,0x00,0x00,0x00,0x00,0x00,0x00,0x00,0x0b,0x86,0x6f,0x3a,0xbe,0xf5,0x3f,0xfe,0x3d,0xfe,0xef,0x5f,0x7e,0xe7,0xf0,0xf0,0x00,0x00,0x00,0x00,0x00,0x00,0x00,0x00,0x00,0x00,0x00,0x00,0x00,0x00,0x00,0x00,0x80,0x07,0xf8,0x33,0xc4,0x9f,0xff,0xf8,0x1f,0xff,0xf9,0x3b,0xde,0x1f,0xf0,0x00,0x00,0x00,0x00,0x00,0x00,0x00,0x00,0x00,0x00,0x00,0x00,0x00,0x00,0x00,0x00,0x80,0x81,0x0b,0xf0,0xd3,0xb8,0xbf,0xfb,0xe1,0x85,0xdf,0xfd,0x37,0x4b,0x0f,0xf0,0x81,0x01,0x00,0x00,0x00,0x00,0x00,0x00,0x00,0x00,0x00,0x00,0x00,0x00,0x00,0x00,0x80,0x01,0x06,0xa0,0xb7,0xf8,0xba,0x59,0xe6,0xc7,0xdc,0x79,0x1f,0xcf,0x07,0x60,0x80,0x01,0x00,0x00,0x00,0x00,0x00,0x00,0x00,0x00,0x00,0x00,0x00,0x00,0x00,0x00,0xc0,0x03,0x02,0x60,0xff,0x28,0xff,0x19,0xe6,0x47,0x98,0xe7,0xdf,0xfd,0x07,0x40,0xc0,0x03,0x00,0x00,0x00,0x00,0x00,0x00,0x00,0x00,0x00,0x00,0x00,0x00,0x00,0x00,0xc0,0x03,0x00,0x00,0xf7,0xff,0xff,0x09,0xe8,0x15,0xb0,0xff,0xff,0xef,0x03,0x00,0xc0,0x03,0x00,0x00,0x00,0x00,0x00,0x00,0x00,0x00,0x00,0x00,0x00,0x00,0x00,0xc0,0xc3,0xc3,0x03,0x00,0xbb,0xf0,0xf7,0x09,0xe0,0x07,0xb0,0xff,0xe3,0x7f,0x00,0xc0,0xc3,0xc3,0x03,0x00,0x00,0x00,0x00,0x00,0x00,0x00,0x00,0x00,0x00,0x00,0x00,0x80,0xe7,0xe7,0x01,0x00,0xee,0xef,0xde,0x08,0xe0,0x07,0x10,0xdf,0xf7,0x5f,0x00,0x80,0xe7,0xe7,0x01,0x00,0x00,0x00,0x00,0x00,0x00,0x00,0x00,0x00,0x00,0x00,0x00,0x80,0xff,0xff,0x03,0x00,0xfc,0xfe,0xfc,0x09,0xe0,0x07,0x90,0xff,0xff,0x2d,0x00,0x80,0xff,0xff,0x03,0x00,0x00,0x00,0x00,0x00,0x00,0x00,0x00,0x0c,0x80,0x00,0x00,0x80,0xff,0xff,0x01,0x00,0xec,0xde,0xf7,0x01,0xf0,0x07,0xd0,0xee,0xfb,0x3f,0x00,0x80,0xff,0xff,0x01,0x00,0x00,0x01,0x20,0x00,0x00,0x00,0x00,0xb8,0xc0,0x03,0x00,0x00,0xfe,0x7f,0x00,0x00,0xf0,0x17,0xff,0x02,0xf0,0x07,0xc0,0xff,0xe8,0x0f,0x00,0x00,0xfe,0x7f,0x00,0x00,0xc0,0x03,0x1d,0x00,0x00,0x00,0x00,0xf0,0xc3,0x17,0x00,0x00,0xfe,0x7f,0x00,0x00,0xd8,0xf7,0xff,0x07,0xf0,0x0f,0xf0,0xff,0xef,0x1f,0x00,0x00,0xfe,0x7f,0x00,0x00,0xf8,0xc3,0x0f,0x00,0x00,0x00,0x00,0xe0,0x0f,0x3f,0x00,0x00,0xee,0x7f,0x00,0x00,0xf8,0xf7,0x77,0x0f,0xe0,0x0f,0xfc,0xef,0xff,0x3f,0x00,0x00,0xfe,0x7f,0x00,0x00,0xfc,0xf9,0x07,0x00,0x00,0x00,0x00,0x00,0xff,0x3f,0x00,0x60,0xff,0xef,0x07,0x00,0xfc,0x7f,0xc0,0x7f,0xa0,0x0d,0xee,0x06,0xff,0x3f,0x00,0xe0,0xff,0xff,0x07,0x00,0xfc,0xff,0x00,0x00,0x00,0x00,0x00,0xe0,0xf8,0xff,0x20,0xf0,0xff,0xff,0x0f,0x04,0xf7,0x3f,0x86,0xbf,0xb0,0x0d,0xff,0xf1,0xfc,0xff,0x60,0xf0,0xff,0xff,0x0f,0x06,0xff,0x1f,0x0f,0x00,0x00,0x00,0x00,0xf8,0xff,0xff,0xff,0xff,0xff,0xff,0xff,0xef,0xfb,0xbf,0x9f,0xff,0xb1,0x8d,0xff,0xf8,0xff,0xff,0xff,0xff,0xff,0xff,0xff,0xff,0xff,0xff,0x3f,0x00,0x00,0x00,0x00,0x80,0xff,0xff,0xff,0xef,0xff,0xff,0xc7,0x3f,0xff,0xff,0x01,0xbf,0x91,0xcd,0x7f,0x80,0xff,0xff,0xff,0xef,0xff,0xff,0xf7,0xff,0xff,0xff,0x01,0x00,0x00,0x00,0x00,0x00,0xf8,0xfc,0xff,0x1f,0xdf,0xeb,0xf8,0xff,0xff,0xff,0x00,0x7f,0xb7,0xed,0x7e,0x00,0xfe,0xff,0xff,0x3f,0xff,0xff,0xfc,0xff,0xff,0xff,0x00,0x00,0x00,0x00,0x00,0x00,0xc0,0xfb,0xff,0x07,0xee,0x77,0xe0,0xfd,0xff,0x7f,0x00,0xee,0x9c,0x7d,0x77,0x00,0xf7,0xfb,0xff,0x07,0xfe,0x7f,0xe0,0xff,0xff,0x03,0x00,0x00,0x00,0x00,0x00,0x00,0x00,0xff,0xff,0x16,0xbe,0x7f,0x78,0xff,0xff,0xee,0x00,0xdc,0x80,0xa1,0x3b,0x00,0x76,0xff,0xff,0x1f,0xfe,0x7f,0xf8,0xff,0xff,0x00,0x00,0x00,0x00,0x00,0x00,0x00,0xc0,0xff,0xff,0x7f,0xff,0xff,0xaf,0xfd,0xff,0xcd,0x00,0x98,0x83,0xc1,0x1d,0x00,0xf3,0xff,0xff,0xff,0xff,0xff,0xff,0xff,0xff,0x03,0x00,0x00,0x00,0x00,0x00,0x00,0x80,0xff,0xfd,0xfb,0xff,0xff,0x07,0xff,0xff,0x8d,0x01,0x70,0x87,0xe1,0x0e,0x80,0xbb,0xff,0xff,0xfd,0xff,0xff,0xff,0xff,0xff,0x01,0x00,0x00,0x00,0x00,0x00,0x00,0x80,0xff,0xbf,0xfe,0xff,0xff,0xff,0xf7,0xfd,0x1d,0x01,0xe0,0x8e,0x71,0x07,0x80,0xb9,0xbf,0xff,0xff,0xff,0xff,0xff,0xff,0xff,0x01,0x00,0x00,0x00,0x00,0x00,0x00,0xf8,0x1f,0xfc,0xff,0xfb,0xe7,0x7f,0x1f,0x98,0x39,0x03,0xc0,0x9c,0x39,0x02,0xc0,0xfc,0x1f,0xfc,0xff,0xff,0xef,0xff,0x3f,0xfc,0x1f,0x00,0x00,0x00,0x00,0xbe,0x07,0xf8,0x1f,0xe0,0xff,0xc3,0xc3,0xff,0x0f,0xf8,0x3f,0xc0,0x79,0xb8,0x1d,0xbe,0x07,0xfc,0x1f,0xe0,0xff,0xc3,0xe3,0xff,0x07,0xf8,0x1f,0xe0,0x7f,0x00,0x00,0xfe,0xff,0xff,0xff,0xff,0xff,0xff,0x7f,0xc4,0xdf,0xff,0xfb,0xef,0x7f,0xb0,0x0f,0xfe,0xff,0xff,0xff,0xff,0xff,0xdf,0xff,0xff,0xff,0xff,0xff,0xff,0x7f,0x00,0x00,0x80,0xff,0xff,0xff,0xff,0x1f,0xff,0x7f,0xf8,0xff,0xf9,0xaf,0xff,0x01,0xe0,0x07,0x80,0xff,0xff,0xff,0xff,0x0f,0xff,0xff,0xf8,0xff,0xff,0xff,0xff,0x01,0x00,0xff,0xff,0xff,0xff,0xff,0xff,0xff,0xff,0xff,0xff,0xbf,0xdb,0xff,0xff,0xff,0xff,0xff,0xff,0xff,0xff,0xff,0xff,0xff,0xff,0xff,0xff,0xff,0xff,0xff,0xff,0xff,0xff,0xff,0xff,0xff,0xff,0xff,0xff,0xff,0xff,0xff,0xe3,0xbf,0xff,0xff,0xff,0xff,0xff,0xff,0xff,0xff,0xff,0xff,0xff,0xff,0xff,0xff,0xff,0xff,0xff,0xff,0xff,0xff,0xff,0x00,0x80,0xff,0xff,0xff,0xff,0x1f,0xfc,0x5d,0xc0,0xdf,0xfe,0xff,0xff,0x01,0xe0,0x07,0x80,0xff,0xff,0xff,0xff,0x1f,0xff,0xff,0xf8,0xff,0xff,0xff,0xff,0x01,0x00,0x00,0xfe,0xff,0xff,0xff,0xff,0x7f,0xee,0xf3,0xf6,0xbf,0xff,0xff,0xff,0x7f,0xf0,0x0f,0xfe,0xff,0xff,0xff,0xff,0xff,0xff,0xff,0xff,0xff,0xff,0xff,0xff,0x7f,0x00,0x00,0xbe,0x07,0xf8,0x1f,0xe0,0xff,0xc3,0x03,0xff,0x07,0xf8,0x3f,0xc0,0x7c,0xb8,0x1d,0xfe,0x03,0xfc,0x1f,0xf0,0xff,0xc7,0xc3,0xff,0x07,0xf8,0x1f,0xe0,0x7f,0x00,0x00,0x00,0x00,0xf8,0x3f,0x78,0xff,0x93,0xcb,0x6f,0x12,0xb8,0x39,0x02,0x40,0x9c,0x39,0x02,0xc0,0xfc,0x3f,0xfc,0xff,0xf7,0xff,0xff,0x3f,0xfc,0x1f,0x00,0x00,0x00,0x00,0x00,0x00,0x80,0xbf,0x7f,0xfa,0xf7,0xff,0x17,0xf4,0xf9,0x9d,0x01,0xe0,0x8e,0x71,0x07,0x80,0xb9,0xff,0xff,0xff,0xff,0xff,0xff,0xff,0xff,0x01,0x00,0x00,0x00,0x00,0x00,0x00,0x00,0xff,0x7d,0xf1,0xff,0xff,0xbb,0xaf,0xfb,0xdd,0x01,0x30,0x87,0xe1,0x0e,0x80,0xb9,0xff,0xff,0xff,0xff,0xff,0xff,0xff,0xff,0x01,0x00,0x00,0x00,0x00,0x00,0x00,0xc0,0xff,0xef,0x70,0xff,0xef,0xae,0xf9,0xff,0xcf,0x00,0xb8,0x83,0xc1,0x1d,0x00,0xf7,0xff,0xff,0xff,0xff,0xff,0xff,0xff,0xff,0x03,0x00,0x00,0x00,0x00,0x00,0x00,0x00,0xff,0x7f,0x0e,0xbe,0x7f,0x78,0xee,0xff,0xee,0x00,0xdc,0x85,0xa1,0x3b,0x00,0x76,0xff,0xff,0x1f,0xfe,0x7f,0xf8,0xff,0xff,0x00,0x00,0x00,0x00,0x00,0x00,0x00,0xc0,0xbf,0xff,0x07,0xfe,0x7b,0xe0,0xff,0xdf,0xef,0x00,0xee,0xbe,0x3d,0x7f,0x00,0xfe,0xff,0xff,0x07,0xfe,0x7f,0xe0,0xff,0xff,0x03,0x00,0x00,0x00,0x00,0x00,0x00,0xff,0xff,0xff,0x0f,0xf7,0xff,0xf8,0xf3,0xff,0x7f,0x00,0x7c,0xb7,0xed,0x7e,0x00,0xff,0xff,0xff,0x3f,0xff,0xff,0xf8,0xff,0xff,0xff,0x00,0x00,0x00,0x00,0x00,0x80,0xff,0xff,0xff,0xe7,0xff,0xed,0xc7,0xbf,0xff,0xff,0x00,0xfe,0xb3,0xcd,0xfd,0x80,0xff,0xff,0xff,0xef,0xff,0xff,0xf7,0xff,0xff,0xff,0x01,0x00,0x00,0x00,0x00,0xfc,0xfb,0xff,0xff,0xff,0xff,0xff,0xff,0xff,0xf3,0xff,0x1f,0xff,0xb1,0x8d,0xff,0xfd,0xff,0xff,0xff,0xff,0xff,0xff,0xff,0xff,0xff,0xff,0x3f,0x00,0x00,0x00,0x00,0xe0,0xf8,0xff,0x60,0xf0,0xff,0xff,0x0f,0x06,0xff,0x3f,0x84,0xff,0xb0,0x0d,0xff,0xf1,0xfc,0xff,0x60,0xf0,0xff,0xff,0x0f,0x86,0xff,0x3f,0x0f,0x00,0x00,0x00,0x00,0x00,0xff,0x0f,0x00,0xe0,0xff,0xff,0x07,0x00,0xfc,0x7f,0xc0,0x7e,0xa0,0x05,0xfe,0x07,0xff,0x3f,0x00,0xe0,0xff,0xff,0x07,0x00,0xfc,0xff,0x00,0x00,0x00,0x00,0x00,0xe0,0x9f,0x1f,0x00,0x00,0xfe,0x77,0x00,0x00,0xf8,0xff,0xf7,0x3f,0xf0,0x0f,0xf0,0xef,0xff,0x3f,0x00,0x00,0xfe,0x7f,0x00,0x00,0xfc,0xf8,0x07,0x00,0x00,0x00,0x00,0xf0,0x83,0x07,0x00,0x00,0xfe,0x7f,0x00,0x00,0xf8,0xff,0xff,0x0d,0xf0,0x0f,0xe0,0xff,0xef,0x1f,0x00,0x00,0xfe,0x7f,0x00,0x00,0xf8,0xe3,0x0f,0x00,0x00,0x00,0x00,0xb8,0xc0,0x03,0x00,0x00,0xfe,0x7f,0x00,0x00,0xf8,0x17,0xff,0x03,0xf0,0x0f,0xc0,0xff,0xf8,0x1f,0x00,0x00,0xfe,0x7f,0x00,0x00,0xc0,0x03,0x1d,0x00,0x00,0x00,0x00,0x04,0x00,0x00,0x00,0x80,0xff,0xff,0x01,0x00,0xfc,0xde,0xf7,0x0b,0xe0,0x0f,0xc0,0xff,0xfb,0x3f,0x00,0x80,0xff,0xff,0x01,0x00,0x00,0x01,0x30,0x00,0x00,0x00,0x00,0x00,0x00,0x00,0x00,0xc0,0xff,0xff,0x01,0x00,0xfe,0xfe,0xff,0x09,0xc0,0x07,0x90,0xff,0xff,0x3f,0x00,0xc0,0xff,0xff,0x01,0x00,0x00,0x00,0x00,0x00,0x00,0x00,0x00,0x00,0x00,0x00,0x00,0x80,0xe7,0xe7,0x01,0x00,0xfa,0xef,0xff,0x0c,0xe0,0x07,0x10,0x7f,0xf7,0x7f,0x00,0x80,0xe7,0xe7,0x01,0x00,0x00,0x00,0x00,0x00,0x00,0x00,0x00,0x00,0x00,0x00,0x00,0xc0,0xc3,0xc3,0x03,0x00,0xfe,0x77,0xff,0x0d,0xe0,0x07,0xb0,0xff,0xef,0xff,0x00,0xc0,0xc3,0xc3,0x03,0x00,0x00,0x00,0x00,0x00,0x00,0x00,0x00,0x00,0x00,0x00,0x00,0x00,0xc0,0x03,0x00,0xc0,0xf7,0x2f,0xff,0x0d,0xe8,0x17,0xb0,0xff,0xff,0xff,0x00,0x00,0xc0,0x03,0x00,0x00,0x00,0x00,0x00,0x00,0x00,0x00,0x00,0x00,0x00,0x00,0x00,0x00,0xc0,0x03,0x02,0xc0,0xff,0x7a,0xd7,0x19,0xee,0x77,0xb8,0xff,0x5f,0xff,0x02,0x40,0xc0,0x03,0x00,0x00,0x00,0x00,0x00,0x00,0x00,0x00,0x00,0x00,0x00,0x00,0x00,0x00,0x80,0x01,0x06,0xe0,0xff,0xf8,0x9f,0xb9,0xe7,0xe7,0x9b,0xfd,0x1f,0xff,0x07,0x60,0x80,0x01,0x00,0x00,0x00,0x00,0x00,0x00,0x00,0x00,0x00,0x00,0x00,0x00,0x00,0x00,0x80,0x81,0x0f,0xf0,0xdb,0xec,0xbf,0xfb,0xa1,0xc7,0xdf,0xfd,0x3f,0xfb,0x0f,0xf0,0x81,0x01,0x00,0x00,0x00,0x00,0x00,0x00,0x00,0x00,0x00,0x00,0x00,0x00,0x00,0x00,0x00,0x00,0x0f,0xf8,0x7f,0xdc,0x9f,0x7b,0xf8,0x1f,0xdf,0xf9,0x3b,0xd6,0x1f,0xf0,0x01,0x00,0x00,0x00,0x00,0x00,0x00,0x00,0x00,0x00,0x00,0x00,0x00,0x00,0x00,0x00,0x00,0x0f,0x8f,0x77,0x6c,0xfe,0xf7,0x7f,0xbc,0x7f,0xfc,0xef,0xfd,0xfe,0xf7,0xe1,0xf0,0x00,0x00,0x00,0x00,0x00,0x00,0x00,0x00,0x00,0x00,0x00,0x00,0x00,0x00,0x00,0x00,0x9e,0x8f,0x5f,0x2d,0xf6,0x7b,0xff,0xff,0xff,0xff,0xdd,0xff,0x75,0xfe,0xf1,0x79,0x00,0x00,0x00,0x00,0x00,0x00,0x00,0x00,0x00,0x00,0x00,0x00,0x00,0x00,0x00,0x00,0xff,0xff,0x4f,0xdd,0x78,0xfe,0xff,0xff,0xff,0xff,0x7f,0xfe,0x8d,0xf7,0xff,0xff,0x00,0x00,0x00,0x00,0x00,0x00,0x00,0x00,0x00,0x00,0x00,0x00,0x00,0x00,0x00,0x00,0xfe,0xff,0x67,0xfc,0x1a,0xfe,0xff,0xf9,0x8f,0xff,0xff,0xfc,0x4f,0xe7,0xff,0x7f,0x00,0x00,0x00,0x00,0x00,0x00,0x00,0x00,0x00,0x00,0x00,0x00,0x00,0x00,0x00,0x00,0xfc,0xf7,0xa1,0xfe,0x1f,0xde,0x7f,0xff,0xff,0xfe,0xff,0xb0,0xff,0x8f,0xef,0x3f,0x00,0x00,0x00,0x00,0x00,0x00,0x00,0x00,0x00,0x00,0x00,0x00,0x00,0x00,0x00,0x00,0xf8,0xef,0xb1,0xff,0x87,0xff,0xff,0xff,0xff,0xff,0xff,0xe3,0xff,0x87,0xff,0x1f,0x00,0x00,0x00,0x00,0x00,0x00,0x00,0x00,0x00,0x00,0x00,0x00,0x00,0x00,0x00,0x00,0xf8,0xff,0xf1,0xff,0xe3,0xef,0xff,0xff,0xef,0xff,0xff,0xef,0xff,0x8f,0xff,0x1f,0x00,0x00,0x00,0x00,0x00,0x00,0x00,0x00,0x00,0x00,0x00,0x00,0x00,0x00,0x00,0x80,0xff,0xff,0xff,0xff,0xaf,0x7d,0xff,0xf7,0xff,0xfd,0xff,0xfd,0xff,0xff,0xff,0xff,0x03,0x00,0x00,0x00,0x00,0x00,0x00,0x00,0x00,0x00,0x00,0x00,0x00,0x00,0x00,0xe0,0xef,0xbf,0xff,0xfd,0xd7,0xff,0xff,0xff,0xff,0xff,0xff,0xef,0xff,0xff,0xed,0xff,0x07,0x00,0x00,0x00,0x00,0x00,0x00,0x00,0x00,0x00,0x00,0x00,0x00,0x00,0x00,0xf0,0xff,0xff,0x7f,0xfc,0xf9,0xff,0xff,0xff,0xff,0xff,0xff,0xff,0xbf,0xff,0xff,0xff,0x0f,0x00,0x00,0x00,0x00,0x00,0x00,0x00,0x00,0x00,0x00,0x00,0x00,0x00,0x00,0xc0,0xdf,0xff,0x7f,0xf0,0x4f,0x3b,0xf6,0xef,0xe7,0xff,0xfc,0xfd,0x3f,0xfa,0xff,0xff,0x03,0x00,0x00,0x00,0x00,0x00,0x00,0x00,0x00,0x00,0x00,0x00,0x00,0x00,0x00,0x00,0xdc,0xb7,0x77,0xf3,0xff,0x0e,0xfc,0xe7,0xc7,0x3f,0xf0,0xbf,0xe7,0xc6,0xff,0x3f,0x02,0x00,0x00,0x00,0x00,0x00,0x00,0x00,0x00,0x00,0x00,0x00,0x00,0x00,0x00,0x00,0xf8,0xff,0xb3,0x7b,0xe4,0x07,0xfc,0xe7,0xe7,0x3f,0xc0,0x2f,0xdf,0x8f,0xff,0x1f,0x00,0x00,0x00,0x00,0x00,0x00,0x00,0x00,0x00,0x00,0x00,0x00,0x00,0x00,0x00,0x00,0xf8,0xf7,0xf9,0xb1,0xf4,0x03,0xf8,0xe7,0xe7,0x1f,0xc0,0xbf,0x9f,0xdf,0xef,0x1f,0x00,0x00,0x00,0x00,0x00,0x00,0x00,0x00,0x00,0x00,0x00,0x00,0x00,0x00,0x00,0x00,0xfe,0xfd,0xf9,0xbb,0xfd,0x01,0xe8,0xe7,0xe7,0x1f,0xc0,0xff,0xfe,0xcf,0xff,0x7f,0x00,0x00,0x00,0x00,0x00,0x00,0x00,0x00,0x00,0x00,0x00,0x00,0x00,0x00,0x00,0x00,0xff,0xfa,0xff,0xfb,0xfd,0x00,0xf8,0xe7,0xe4,0x1f,0x80,0xff,0xff,0xff,0xff,0xff,0x00,0x00,0x00,0x00,0x00,0x00,0x00,0x00,0x00,0x00,0x00,0x00,0x00,0x00,0x00,0x00,0x9e,0xfe,0x7b,0x7d,0x68,0x00,0xf8,0x6f,0xf7,0x1f,0x00,0x16,0xff,0xdf,0xf9,0x79,0x00,0x00,0x00,0x00,0x00,0x00,0x00,0x00,0x00,0x00,0x00,0x00,0x00,0x00,0x00,0x00,0x0f,0x9f,0x3f,0x3c,0x3c,0x00,0xf8,0xfb,0xf7,0x1f,0x00,0x34,0x3e,0xff,0xfd,0xf8,0x00,0x00,0x00,0x00,0x00,0x00,0x00,0x00,0x00,0x00,0x00,0x00,0x00,0x00,0x00,0x00,0x0d,0xcf,0x2f,0x3c,0x1e,0x00,0xfc,0xff,0x7f,0x3f,0x00,0x78,0x7c,0xf4,0xf3,0xb0,0x00,0x00,0x00,0x00,0x00,0x00,0x00,0x00,0x00,0x00,0x00,0x00,0x00,0x00,0x00,0x80,0xc7,0xef,0x7f,0x3d,0x1e,0x00,0xf8,0xff,0xff,0x1f,0x00,0x78,0xfc,0xfe,0xf7,0xe1,0x01,0x00,0x00,0x00,0x00,0x00,0x00,0x00,0x00,0x00,0x00,0x00,0x00,0x00,0x00,0xc0,0xf3,0x7f,0xff,0xff,0x1e,0x00,0xf8,0xff,0xdf,0x1f,0x00,0xf8,0xff,0xff,0xff,0xc7,0x03,0x00,0x00,0x00,0x00,0x00,0x00,0x00,0x00,0x00,0x00,0x00,0x00,0x00,0x00,0xf0,0xff,0xdf,0xff,0xff,0x1f,0x00,0xf8,0xff,0xdf,0x1f,0x00,0xf8,0xff,0xff,0xff,0xff,0x0f,0x00,0x00,0x00,0x00,0x00,0x00,0x00,0x00,0x00,0x00,0x00,0x00,0x00,0x00,0xf0,0xff,0xef,0xe3,0xeb,0x07,0x00,0xf8,0xfe,0xbf,0x1f,0x00,0xe0,0xbf,0xe7,0xe7,0xd7,0x0f,0x00,0x00,0x00,0x00,0x00,0x00,0x00,0x00,0x00,0x00,0x00,0x00,0x00,0x00,0xf0,0xdd,0x77,0xeb,0xff,0x07,0x00,0xe8,0xfd,0xdd,0x1f,0x00,0xe0,0xff,0xdf,0xef,0x67,0x0f,0x00,0x00,0x00,0x00,0x00,0x00,0x00,0x00,0x00,0x00,0x00,0x00,0x00,0x00,0xfc,0xff,0xbb,0xf9,0xff,0x07,0x00,0xb8,0xfd,0xff,0x15,0x00,0xe0,0xff,0x9f,0xdd,0xff,0x3d,0x00,0x00,0x00,0x00,0x00,0x00,0x00,0x00,0x00,0x00,0x00,0x00,0x00,0x00,0xff,0xcf,0x9f,0x7f,0xe7,0x4e,0x00,0xac,0xfd,0xfd,0x35,0x00,0x7e,0xff,0xff,0xfb,0xcf,0xff,0x00,0x00,0x00,0x00,0x00,0x00,0x00,0x00,0x00,0x00,0x00,0x00,0x00,0xf8,0xff,0xfb,0xef,0xff,0xff,0xff,0x00,0x3e,0xbf,0xfd,0x78,0x00,0xff,0xff,0xff,0xf7,0xef,0xbf,0x1f,0x00,0x00,0x00,0x00,0x00,0x00,0x00,0x00,0x00,0x00,0x00,0x00,0xff,0xff,0xfd,0xff,0x7f,0xff,0xfd,0x05,0x1e,0x9f,0xfd,0x78,0xa0,0xff,0xff,0xff,0xff,0xff,0x7f,0xff,0x00,0x00,0x00,0x00,0x00,0x00,0x00,0x00,0x00,0x00,0x00,0x80,0xbf,0xff,0xff,0xff,0xff,0xff,0x6f,0x3c,0x1e,0xbf,0xfd,0x78,0x3c,0xfe,0xff,0xff,0xff,0x7f,0xff,0xff,0x01,0x00,0x00,0x00,0x00,0x00,0x00,0x00,0x00,0x00,0x00,0xc0,0xff,0xbf,0xf9,0xff,0xf3,0xff,0x6f,0x3c,0x3e,0x9f,0xf5,0x7c,0x3c,0xf2,0xff,0xe7,0xff,0xdf,0xdd,0xff,0x01,0x00,0x00,0x00,0x00,0x00,0x00,0x00,0x00,0x00,0x00,0x40,0xfe,0xff,0xfc,0xff,0xe1,0xff,0x07,0xfc,0xff,0xff,0xff,0xff,0x3f,0xe0,0xff,0xc7,0xff,0x3f,0xff,0x7f,0x03,0x00,0x00,0x00,0x00,0x00,0x00,0x00,0x00,0x00,0x00,0x00,0xff,0x3f,0xfe,0x7f,0xe1,0xff,0x07,0xf8,0xff,0xff,0xe7,0xff,0x1f,0xe0,0xff,0x87,0xff,0x7f,0xfc,0xff,0x00,0x00,0x00,0x00,0x00,0x00,0x00,0x00,0x00,0x00,0x00,0xc0,0x4f,0x1f,0xff,0x07,0xf8,0xff,0x0f,0xf0,0xff,0xe7,0xf7,0xff,0x0f,0xf0,0xff,0x9f,0xff,0xff,0xf8,0xff,0x03,0x00,0x00,0x00,0x00,0x00,0x00,0x00,0x00,0x00,0x00,0xf0,0xff,0x9f,0xff,0xc7,0xfc,0xff,0x1f,0xf0,0xbf,0xef,0xe7,0xff,0x0f,0xf8,0xff,0x3f,0xff,0xff,0xf9,0xff,0x0f,0x00,0x00,0x00,0x00,0x00,0x00,0x00,0x00,0x00,0x00,0xfe,0xff,0xdf,0x7f,0x95,0x7e,0x3e,0x1f,0xf8,0xff,0xef,0xf3,0xff,0x1f,0xf8,0x7d,0x7e,0xff,0xfe,0xff,0xff,0x7f,0x00,0x00,0x00,0x00,0x00,0x00,0x00,0x00,0x00,0x00,0x9f,0xdf,0xfb,0xbf,0xdf,0x3b,0x3c,0x1e,0xff,0xff,0xff,0xff,0xff,0xff,0x78,0x3c,0xde,0xff,0xfd,0xdf,0xfb,0xfd,0x00,0x00,0x00,0x00,0x00,0x00,0x00,0x00,0x00,0xc0,0x8f,0x61,0xff,0x9f,0xff,0x2f,0x3c,0xd4,0xff,0xff,0xff,0xff,0xff,0xff,0x2b,0x3c,0xf4,0xff,0xf9,0xff,0xc6,0xf3,0x03,0x00,0x00,0x00,0x00,0x00,0x00,0x00,0x00,0xe0,0xf3,0x01,0xff,0xcf,0xfb,0x03,0x3c,0xc0,0xff,0xff,0xff,0xff,0xff,0xff,0x03,0x3c,0xc0,0xff,0xf3,0xff,0x80,0xcf,0x07,0x00,0x00,0x00,0x00,0x00,0x00,0x00,0x00,0x00,0xfc,0x00,0xff,0x47,0xef,0x00,0x3e,0x00,0xff,0xff,0xff,0xff,0xfe,0xff,0x00,0x3c,0x80,0xff,0xe2,0xff,0x00,0x1f,0x00,0x00,0x00,0x00,0x00,0x00,0x00,0x00,0x00,0x00,0x1c,0x80,0xff,0x63,0xfd,0x00,0x08,0x00,0xf8,0xff,0xef,0xe3,0xff,0x1f,0x00,0x18,0x00,0xff,0xc7,0xff,0x01,0x38,0x00,0x00,0x00,0x00,0x00,0x00,0x00,0x00,0x00,0x00,0x0e,0xe0,0xff,0xff,0xff,0x00,0x08,0x00,0xf0,0xff,0xef,0xf7,0xff,0x0f,0x00,0x10,0x00,0xff,0xff,0xff,0x07,0x70,0x00,0x00,0x00,0x00,0x00,0x00,0x00,0x00,0x00,0x00,0x00,0xc0,0xff,0xff,0x1f,0x00,0x00,0x00,0xf0,0xff,0xef,0xe7,0xfb,0x0f,0x00,0x00,0x00,0xf8,0xff,0xff,0x03,0x00,0x00,0x00,0x00,0x00,0x00,0x00,0x00,0x00,0x00,0x00,0x00,0xc0,0xff,0xfd,0x1f,0x00,0x00,0x00,0xf8,0xff,0xe7,0xf7,0xff,0x1f,0x00,0x00,0x00,0xf8,0xbf,0xff,0x03,0x00,0x00,0x00,0x00,0x00,0x00,0x00,0x00,0x00,0x00,0x00,0x00,0xe0,0xff,0xff,0x0f,0x00,0x00,0x00,0xfc,0xff,0xff,0xff,0xff,0x3f,0x00,0x00,0x00,0xf0,0xff,0xff,0x07,0x00,0x00,0x00,0x00,0x00,0x00,0x00,0x00,0x00,0x00,0x00,0x00,0xf0,0xff,0xff,0x05,0x00,0x00,0x00,0x3c,0x3e,0xff,0xfd,0x7c,0x3c,0x00,0x00,0x00,0xf0,0xff,0xff,0x0f,0x00,0x00,0x00,0x00,0x00,0x00,0x00,0x00,0x00,0x00,0x00,0x00,0xf8,0x3f,0xee,0x06,0x00,0x00,0x00,0x3c,0x1e,0xbf,0xf9,0x78,0x3c,0x00,0x00,0x00,0xf0,0xff,0xfc,0x1f,0x00,0x00,0x00,0x00,0x00,0x00,0x00,0x00,0x00,0x00,0x00,0x00,0xfc,0x1f,0xef,0x03,0x00,0x00,0x00,0x04,0x1e,0xbf,0xfd,0x78,0x28,0x00,0x00,0x00,0xe0,0xff,0xf8,0x3f,0x00,0x00,0x00,0x00,0x00,0x00,0x00,0x00,0x00,0x00,0x00,0x00,0xfe,0x13,0xfc,0x07,0x00,0x00,0x00,0x00,0x1e,0xbf,0xfd,0x7c,0x00,0x00,0x00,0x00,0xe0,0xbf,0xc8,0x7f,0x00,0x00,0x00,0x00,0x00,0x00,0x00,0x00,0x00,0x00,0x00,0x80,0xff,0x01,0xfe,0x07,0x00,0x00,0x00,0x00,0xac,0xff,0xff,0x30,0x00,0x00,0x00,0x00,0xe0,0x7f,0x80,0xff,0x01,0x00,0x00,0x00,0x00,0x00,0x00,0x00,0x00,0x00,0x00,0xc0,0xff,0x00,0xfe,0x07,0x00,0x00,0x00,0x00,0xb8,0xff,0xff,0x15,0x00,0x00,0x00,0x00,0xe0,0x7f,0x00,0xff,0x03,0x00,0x00,0x00,0x00,0x00,0x00,0x00,0x00,0x00,0x00,0xe0,0x7f,0x00,0xfe,0x03,0x00,0x00,0x00,0x00,0xf8,0xff,0xbf,0x1f,0x00,0x00,0x00,0x00,0xc0,0x7f,0x00,0xfe,0x07,0x00,0x00,0x00,0x00,0x00,0x00,0x00,0x00,0x00,0x00,0xf0,0x3f,0x00,0xff,0x01,0x00,0x00,0x00,0x00,0xf8,0xff,0x3f,0x1f,0x00,0x00,0x00,0x00,0xc0,0xff,0x00,0xfc,0x0f,0x00,0x00,0x00,0x00,0x00,0x00,0x00,0x00,0x00,0x00,0xf8,0x1f,0x80,0xbf,0x01,0x00,0x00,0x00,0x00,0x78,0xff,0xff,0x1f,0x00,0x00,0x00,0x00,0xc0,0xfd,0x01,0xf8,0x1f,0x00,0x00,0x00,0x00,0x00,0x00,0x00,0x00,0x00,0x00,0xdc,0x1f,0xc0,0x9f,0x01,0x00,0x00,0x00,0x00,0xf8,0xff,0xff,0x1f,0x00,0x00,0x00,0x00,0x80,0xf9,0x03,0xf8,0x3b,0x00,0x00,0x00,0x00,0x00,0x00,0x00,0x00,0x00,0x00,0xee,0x0f,0xc0,0x9c,0x00,0x00,0x00,0x00,0x00,0xfc,0xff,0xff,0x3f,0x00,0x00,0x00,0x00,0x00,0xbb,0x03,0xf0,0x77,0x00,0x00,0x00,0x00,0x00,0x00,0x00,0x00,0x00,0x00,0x70,0x07,0xc0,0x0c,0x00,0x00,0x00,0x00,0x00,0xfc,0xff,0xdf,0x3f,0x00,0x00,0x00,0x00,0x00,0x30,0x03,0xe0,0x0e,0x00,0x00,0x00,0x00,0x00,0x00,0x00,0x00,0x00,0x00,0xb8,0x03,0xe0,0x0e,0x00,0x00,0x00,0x00,0x00,0xf8,0xef,0x77,0x1f,0x00,0x00,0x00,0x00,0x00,0x70,0x07,0xc0,0x1d,0x00,0x00,0x00,0x00,0x00,0x00,0x00,0x00,0x00,0x00,0xdc,0x01,0x70,0x07,0x00,0x00,0x00,0x00,0x00,0xf8,0xef,0xf7,0x1f,0x00,0x00,0x00,0x00,0x00,0xe0,0x0e,0x80,0x3b,0x00,0x00,0x00,0x00,0x00,0x00,0x00,0x00,0x00,0x00,0xce,0x00,0x10,0x07,0x00,0x00,0x00,0x00,0x00,0xf8,0xef,0xf7,0x1f,0x00,0x00,0x00,0x00,0x00,0xe0,0x0e,0x00,0x73,0x00,0x00,0x00,0x00,0x00,0x00,0x00,0x00,0x00,0x00,0x47,0x00,0x90,0x07,0x00,0x00,0x00,0x00,0x00,0xf8,0xe7,0xa7,0x1f,0x00,0x00,0x00,0x00,0x00,0xe0,0x09,0x00,0xe3,0x00,0x00,0x00,0x00,0x00,0x00,0x00,0x00,0x00,0x80,0x03,0x00,0x80,0x01,0x00,0x00,0x00,0x00,0x00,0xf8,0xe7,0xe7,0x1f,0x00,0x00,0x00,0x00,0x00,0xc0,0x01,0x00,0xc0,0x01,0x00,0x00,0x00,0x00,0x00,0x00,0x00,0x00,0xc0,0x01,0x00,0x80,0x01,0x00,0x00,0x00,0x00,0x00,0xfc,0xe7,0xe7,0x3f,0x00,0x00,0x00,0x00,0x00,0x80,0x01,0x00,0x80,0x03,0x00,0x00,0x00,0x00,0x00,0x00,0x00,0x00,0xe0,0x00,0x00,0x80,0x01,0x00,0x00,0x00,0x00,0x00,0xfc,0xe7,0xe7,0x3f,0x00,0x00,0x00,0x00,0x00,0x80,0x01,0x00,0x00,0x03,0x00,0x00,0x00,0x00,0x00,0x00,0x00,0x00,0x20,0x00,0x00,0x80,0x00,0x00,0x00,0x00,0x00,0x00,0xff,0xe7,0xf7,0x7f,0x00,0x00,0x00,0x00,0x00,0x00,0x01,0x00,0x00,0x06,0x00,0x00,0x00,0x00,0x00,0x00,0x00,0x00,0x00,0x00,0x00,0x00,0x00,0x00,0x00,0x00,0x00,0x80,0xff,0xff,0xff,0xff,0x00,0x00,0x00,0x00,0x00,0x00,0x00,0x00,0x00,0x00,0x00,0x00,0x00,0x00,0x00,0x00,0x00,0x00,0x00,0x00,0x00,0x00,0x00,0x00,0x00,0x00,0x00,0x80,0xff,0xff,0xff,0xff,0x01,0x00,0x00,0x00,0x00,0x00,0x00,0x00,0x00,0x00,0x00,0x00,0x00,0x00,0x00,0x00,0x00,0x00,0x00,0x00,0x00,0x00,0x00,0x00,0x00,0x00,0x00,0x80,0xff,0xff,0xff,0xff,0x01,0x00,0x00,0x00,0x00,0x00,0x00,0x00,0x00,0x00,0x00,0x00,0x00,0x00,0x00,0x00,0x00,0x00,0x00,0x00,0x00,0x00,0x00,0x00,0x00,0x00,0x00,0xc0,0xff,0xff,0xff,0xff,0x03,0x00,0x00,0x00,0x00,0x00,0x00,0x00,0x00,0x00,0x00,0x00,0x00,0x00,0x00,0x00,0x00,0x00,0x00,0x00,0x00,0x00,0x00,0x00,0x00,0x00,0x00,0xc0,0xff,0xff,0xff,0xff,0x03,0x00,0x00,0x00,0x00,0x00,0x00,0x00,0x00,0x00,0x00,0x00,0x00,0x00,0x00,0x00,0x00,0x00,0x00,0x00,0x00,0x00,0x00,0x00,0x00,0x00,0x00,0xe0,0x7e,0xff,0xff,0xfe,0x03,0x00,0x00,0x00,0x00,0x00,0x00,0x00,0x00,0x00,0x00,0x00,0x00,0x00,0x00,0x00,0x00,0x00,0x00,0x00,0x00,0x00,0x00,0x00,0x00,0x00,0x00,0xc0,0x7e,0xf9,0x9f,0x7e,0x03,0x00,0x00,0x00,0x00,0x00,0x00,0x00,0x00,0x00,0x00,0x00,0x00,0x00,0x00,0x00,0x00,0x00,0x00,0x00,0x00,0x00,0x00,0x00,0x00,0x00,0x00,0x00,0x3e,0xf8,0x1f,0x7c,0x00,0x00,0x00,0x00,0x00,0x00,0x00,0x00,0x00,0x00,0x00,0x00,0x00,0x00,0x00,0x00,0x00,0x00,0x00,0x00,0x00,0x00,0x00,0x00,0x00,0x00,0x00,0x00,0x3f,0xf8,0x1f,0xfc,0x00,0x00,0x00,0x00,0x00,0x00,0x00,0x00,0x00,0x00,0x00,0x00,0x00,0x00,0x00,0x00,0x00,0x00,0x00,0x00,0x00,0x00,0x00,0x00,0x00,0x00,0x00,0x00,0x3f,0xf8,0x1f,0xfc,0x00,0x00,0x00,0x00,0x00,0x00,0x00,0x00,0x00,0x00,0x00,0x00,0x00,0x00,0x00,0x00,0x00,0x00,0x00,0x00,0x00,0x00,0x00,0x00,0x00,0x00,0x00,0x80,0x3f,0xe0,0x07,0xdc,0x00,0x00,0x00,0x00,0x00,0x00,0x00,0x00,0x00,0x00,0x00,0x00,0x00,0x00,0x00,0x00,0x00,0x00,0x00,0x00,0x00,0x00,0x00,0x00,0x00,0x00,0x00,0x80,0x1b,0xe0,0x07,0xdc,0x01,0x00,0x00,0x00,0x00,0x00,0x00,0x00,0x00,0x00,0x00,0x00,0x00,0x00,0x00,0x00,0x00,0x00,0x00,0x00,0x00,0x00,0x00,0x00,0x00,0x00,0x00,0x80,0x1b,0xe0,0x07,0xdc,0x01,0x00,0x00,0x00,0x00,0x00,0x00,0x00,0x00,0x00,0x00,0x00,0x00,0x00,0x00,0x00,0x00,0x00,0x00,0x00,0x00,0x00,0x00,0x00,0x00,0x00,0x00,0xc0,0x1d,0xe0,0x07,0xb8,0x03,0x00,0x00,0x00,0x00,0x00,0x00,0x00,0x00,0x00,0x00,0x00,0x00,0x00,0x00,0x00,0x00,0x00,0x00,0x00,0x00,0x00,0x00,0x00,0x00,0x00,0x00,0x80,0x0d,0xe0,0x07,0xb0,0x01,0x00,0x00,0x00,0x00,0x00,0x00,0x00,0x00,0x00,0x00,0x00,0x00,0x00,0x00,0x00,0x00,0x00,0x00,0x00,0x00,0x00,0x00,0x00,0x00,0x00,0x00,0xc0,0x0d,0xe0,0x07,0xb0,0x03,0x00,0x00,0x00,0x00,0x00,0x00,0x00,0x00,0x00,0x00,0x00,0x00,0x00,0x00,0x00,0x00,0x00,0x00,0x00,0x00,0x00,0x00,0x00,0x00,0x00,0x00,0xc0,0x0c,0xe0,0x07,0x10,0x03,0x00,0x00,0x00,0x00,0x00,0x00,0x00,0x00,0x00,0x00,0x00,0x00,0x00,0x00,0x00,0x00,0x00,0x00,0x00,0x00,0x00,0x00,0x00,0x00,0x00,0x00,0x60,0x08,0xe0,0x07,0x10,0x02,0x00,0x00,0x00,0x00,0x00,0x00,0x00,0x00,0x00,0x00,0x00,0x00,0x00,0x00,0x00,0x00,0x00,0x00,0x00,0x00,0x00,0x00,0x00,0x00,0x00,0x00,0x20,0x08,0xf0,0x0f,0x00,0x04,0x00,0x00,0x00,0x00,0x00,0x00,0x00,0x00,0x00,0x00,0x00,0x00,0x00,0x00,0x00,0x00,0x00,0x00,0x00,0x00,0x00,0x00,0x00,0x00,0x00,0x00,0x00,0x00,0xf0,0x0f,0x00,0x00,0x00,0x00,0x00,0x00,0x00,0x00,0x00,0x00,0x00,0x00,0x00,0x00,0x00,0x00,0x00,0x00,0x00,0x00,0x00,0x00,0x00,0x00,0x00,0x00,0x00,0x00,0x00,0x00,0xf0,0x0f,0x00,0x00,0x00,0x00,0x00,0x00,0x00,0x00,0x00,0x00,0x00,0x00,0x00,0x00,0x00,0x00,0x00,0x00,0x00,0x00,0x00,0x00,0x00,0x00,0x00,0x00,0x00,0x00,0x00,0x00,0xf0,0x0f,0x00,0x00,0x00,0x00,0x00,0x00,0x00,0x00,0x00,0x00,0x00,0x00,0x00,0x00,0x00,0x00,0x00,0x00,0x00,0x00,0x00,0x00,0x00,0x00,0x00,0x00,0x00,0x00,0x00,0x00,0xa0,0x05,0x00,0x00,0x00,0x00,0x00,0x00,0x00,0x00,0x00,0x00,0x00,0x00,0x00,0x00,0x00,0x00,0x00,0x00,0x00,0x00,0x00,0x00,0x00,0x00,0x00,0x00,0x00,0x00,0x00,0x00,0xb0,0x0d,0x00,0x00,0x00,0x00,0x00,0x00,0x00,0x00,0x00,0x00,0x00,0x00,0x00,0x00,0x00,0x00,0x00,0x00,0x00,0x00,0x00,0x00,0x00,0x00,0x00,0x00,0x00,0x00,0x00,0x00,0xb0,0x0d,0x00,0x00,0x00,0x00,0x00,0x00,0x00,0x00,0x00,0x00,0x00,0x00,0x00,0x00,0x00,0x00,0x00,0x00,0x00,0x00,0x00,0x00,0x00,0x00,0x00,0x00,0x00,0x00,0x00,0x00,0xb0,0x0d,0x00,0x00,0x00,0x00,0x00,0x00,0x00,0x00,0x00,0x00,0x00,0x00,0x00,0x00,0x00,0x00,0x00,0x00,0x00,0x00,0x00,0x00,0x00,0x00,0x00,0x00,0x00,0x00,0x00,0x00,0xb0,0x0d,0x00,0x00,0x00,0x00,0x00,0x00,0x00,0x00,0x00,0x00,0x00,0x00,0x00,0x00,0x00,0x00,0x00,0x00,0x00,0x00,0x00,0x00,0x00,0x00,0x00,0x00,0x00,0x00,0x00,0x00,0xb0,0x0d,0x00,0x00,0x00,0x00,0x00,0x00,0x00,0x00,0x00,0x00,0x00,0x00,0x00,0x00,0x00,0x00,0x00,0x00,0x00,0x00,0x00,0x00,0x00,0x00,0x00,0x00,0x00,0x00,0x00,0x00,0x80,0x01,0x00,0x00,0x00,0x00,0x00,0x00,0x00,0x00,0x00,0x00,0x00,0x00,0x00,0x00,0x00,0x00,0x00,0x00,0x00,0x00,0x00,0x00,0x00,0x00,0x00,0x00,0x00,0x00,0x00,0x00,0x80,0x01,0x00,0x00,0x00,0x00,0x00,0x00,0x00,0x00,0x00,0x00,0x00,0x00,0x00,0x00,0x00,0x00,0x00,0x00,0x00,0x00,0x00,0x00,0x00,0x00,0x00,0x00,0x00,0x00,0x00,0x00,0x80,0x01,0x00,0x00,0x00,0x00,0x00,0x00,0x00,0x00,0x00,0x00,0x00,0x00,0x00,0x00,0x00,0x00,0x00,0x00,0x00,0x00,0x00,0x00,0x00,0x00,0x00,0x00,0x00,0x00,0x00,0x00,0x80,0x01,0x00,0x00,0x00,0x00,0x00,0x00,0x00,0x00,0x00,0x00,0x00,0x00,0x00,0x00,0x00,0x00,0x00,0x00,0x00,0x00,0x00,0x00,0x00,0x00,0x00,0x00,0x00,0x00,0x00,0x00,0x80,0x01,0x00,0x00,0x00,0x00,0x00,0x00,0x00,0x00,0x00,0x00,0x00,0x00,0x00,0x00,0x00,0x00,0x00,0x00,0x00,0x00,0x00,0x00,0x00,0x00,0x00,0x00,0x00,0x00,0x00,0x00,0x80,0x01,0x00,0x00,0x00,0x00,0x00,0x00,0x00,0x00,0x00,0x00,0x00,0x00,0x00,0x00,0x00,0x00,0x00,0x00,0x00,0x00,0x00,0x00,0x00,0x00,0x00,0x00,0x00,0x00,0x00,0x00,0x80,0x01,0x00,0x00,0x00,0x00,0x00,0x00,0x00,0x00,0x00,0x00,0x00,0x00,0x00,0x00,0x00,0x00,0x00,0x00,0x00,0x00,0x00,0x00,0x00,0x00,0x00,0x00,0x00,0x00,0x00,0x00,0x80,0x01,0x00,0x00,0x00,0x00,0x00,0x00,0x00,0x00,0x00,0x00,0x00,0x00,0x00,0x00,0x00,0x00,0x00,0x00,0x00,0x00,0x00,0x00,0x00,0x00,0x00,0x00,0x00,0x00,0x00,0x00,0x80,0x01,0x00,0x00,0x00,0x00,0x00,0x00,0x00,0x00,0x00,0x00,0x00,0x00,0x00,0x00,0x00};
