#define x_width 256
#define x_height 256
static char x_bits[] = {
0x00,0x00,0x00,0x00,0x00,0x00,0x00,0x00,0x00,0x00,0x00,0x00,0x00,0x00,0x00,0x00,0x00,0x00,0x00,0x00,0x00,0x00,0x00,0x00,0x00,0x00,0x00,0x00,0x00,0x00,0x00,0x00,0x00,0x00,0x00,0x00,0x00,0x00,0x00,0x00,0x00,0x00,0x00,0x00,0x00,0x00,0x00,0x00,0x00,0x00,0x00,0x00,0x00,0x00,0x00,0x00,0x00,0x00,0x00,0x00,0x00,0x00,0x00,0x00,0x00,0x00,0x00,0x00,0x00,0x00,0x00,0x00,0x00,0x00,0x00,0x00,0x00,0x00,0x00,0x00,0x00,0x00,0x00,0x00,0x00,0x00,0x00,0x00,0x00,0x00,0x00,0x00,0x00,0x00,0x00,0x00,0x00,0x00,0x00,0x00,0x00,0x00,0x00,0x00,0x00,0x00,0x00,0x00,0x00,0x00,0x00,0x00,0x00,0x00,0x00,0x00,0x00,0x00,0x00,0x00,0x00,0x00,0x00,0x00,0x00,0x00,0x00,0x00,0x00,0x00,0x00,0x00,0x00,0x00,0x00,0x00,0x00,0x00,0x00,0x00,0x00,0x00,0x00,0x00,0x00,0x00,0x00,0x00,0x00,0x00,0x00,0x00,0x00,0x00,0x00,0x00,0x00,0x00,0x00,0x00,0x00,0x00,0x00,0x00,0x00,0x00,0x00,0x00,0x00,0x00,0x00,0x00,0x00,0x00,0x00,0x00,0x00,0x00,0x00,0x00,0x00,0x00,0x00,0x00,0x00,0x00,0x00,0x00,0x00,0x00,0x00,0x00,0x00,0x00,0x00,0x00,0x00,0x00,0x00,0x00,0x00,0x00,0x00,0x00,0x00,0x00,0x00,0x00,0x00,0x00,0x00,0x00,0x00,0x00,0x00,0x00,0x00,0x00,0x00,0x00,0x00,0x00,0x00,0x00,0x00,0x00,0x00,0x00,0x00,0x00,0x00,0x00,0x00,0x00,0x00,0x00,0x00,0x00,0x00,0x00,0x00,0x00,0x00,0x00,0x00,0x00,0x00,0x00,0x00,0x00,0x00,0x00,0x00,0x00,0x00,0x00,0x00,0x00,0x00,0x00,0x00,0x00,0x00,0x00,0x00,0x00,0x00,0x00,0x00,0x00,0x00,0x00,0x00,0x00,0x00,0x00,0x00,0x00,0x00,0x00,0x00,0x00,0x00,0x00,0x00,0x00,0x00,0x00,0x00,0x00,0x00,0x00,0x00,0x00,0x00,0x00,0x00,0x00,0x00,0x00,0x00,0x00,0x00,0x00,0x00,0x00,0x00,0x00,0x00,0x00,0x00,0x00,0x00,0x00,0x00,0x00,0x00,0x00,0x00,0x00,0x00,0x00,0x00,0x00,0x00,0x00,0x00,0x00,0x00,0x00,0x00,0x00,0x00,0x00,0x00,0x00,0x00,0x00,0x00,0x00,0x00,0x00,0x00,0x00,0x00,0x00,0x00,0x00,0x00,0x00,0x00,0x00,0x00,0x00,0x00,0x00,0x00,0x00,0x00,0x00,0x00,0x00,0x00,0x00,0x00,0x00,0x00,0x00,0x00,0x00,0x00,0x00,0x00,0x00,0x00,0x00,0x00,0x00,0x00,0x00,0x00,0x00,0x00,0x00,0x00,0x00,0x00,0x00,0x00,0x00,0x00,0x00,0x00,0x00,0x00,0x00,0x00,0x00,0x00,0x00,0x00,0x00,0x00,0x00,0x00,0x00,0x00,0x00,0x00,0x00,0x00,0x00,0x00,0x00,0x00,0x00,0x00,0x00,0x00,0x00,0x00,0x00,0x00,0x00,0x00,0x00,0x00,0x00,0x00,0x00,0x00,0x00,0x00,0x00,0x00,0x00,0x00,0x00,0x00,0x00,0x00,0x00,0x00,0x00,0x00,0x00,0x00,0x00,0x00,0x00,0x00,0x00,0x00,0x00,0x00,0x00,0x00,0x00,0x00,0x00,0x00,0x00,0x00,0x00,0x00,0x00,0x00,0x00,0x00,0x00,0x00,0x00,0x00,0x00,0x00,0x00,0x00,0x00,0x00,0x00,0x00,0x00,0x00,0x00,0x00,0x00,0x00,0x00,0x00,0x00,0x00,0x00,0x00,0x00,0x00,0x00,0x00,0x00,0x00,0x00,0x00,0x00,0x00,0x00,0x00,0x00,0x00,0x00,0x00,0x00,0x00,0x00,0x00,0x00,0x00,0x00,0x00,0x00,0x00,0x00,0x00,0x00,0x00,0x00,0x00,0x00,0x00,0x00,0x00,0x00,0x00,0x00,0x00,0x00,0x00,0x00,0x00,0x00,0x00,0x00,0x00,0x00,0x00,0x00,0x00,0x00,0x00,0x00,0x00,0x00,0x00,0x00,0x00,0x00,0x00,0x00,0x00,0x00,0x00,0x00,0x00,0x00,0x00,0x00,0x00,0x00,0x00,0x00,0x00,0x00,0x00,0x00,0x00,0x00,0x00,0x00,0x00,0x00,0x00,0x00,0x00,0x00,0x00,0x00,0x00,0x00,0x00,0x00,0x00,0x00,0x00,0x00,0x00,0x00,0x00,0x00,0x00,0x00,0x00,0x00,0x00,0x00,0x00,0x00,0x00,0x00,0x00,0x00,0x00,0x00,0x00,0x00,0x00,0x00,0x00,0x00,0x00,0x00,0x00,0x00,0x00,0x00,0x00,0x00,0x00,0x00,0x00,0x00,0x00,0x00,0x00,0x00,0x00,0x00,0x00,0x00,0x00,0x00,0x00,0x00,0x00,0x00,0x00,0x00,0x00,0x00,0x00,0x00,0x00,0x00,0x00,0x00,0x00,0x00,0x00,0x00,0x00,0x00,0x00,0x00,0x00,0x00,0x00,0x00,0x00,0x00,0x00,0x00,0x00,0x00,0x00,0x00,0x00,0x00,0x00,0x00,0x00,0x00,0x00,0x00,0x00,0x00,0x00,0x00,0x00,0x00,0x00,0x00,0x00,0x00,0x00,0x00,0x00,0x00,0x00,0x00,0x00,0x00,0x00,0x00,0x00,0x00,0x00,0x00,0x00,0x00,0x00,0x00,0x00,0x00,0x00,0x00,0x00,0x00,0x00,0x00,0x00,0x00,0x00,0x00,0x00,0x00,0x00,0x00,0x00,0x00,0x00,0x00,0x00,0x00,0x00,0x00,0x00,0x00,0x00,0x00,0x00,0x00,0x00,0x00,0x00,0x00,0x00,0x00,0x00,0x00,0x00,0x00,0x00,0x00,0x00,0x00,0x00,0x00,0x00,0x00,0x00,0x00,0x00,0x00,0x00,0x00,0x00,0x00,0x00,0x00,0x00,0x00,0x00,0x00,0x00,0x00,0x00,0x00,0x00,0x00,0x00,0x00,0x00,0x00,0x00,0x00,0x00,0x00,0x00,0x00,0x00,0x00,0x00,0x00,0x00,0x00,0x00,0x00,0x00,0x00,0x00,0x00,0x00,0x00,0x00,0x00,0x00,0x00,0x00,0x00,0x00,0x00,0x00,0x00,0x00,0x00,0x00,0x00,0x00,0x00,0x00,0x00,0x00,0x00,0x00,0x00,0x00,0x00,0x00,0x00,0x00,0x00,0x00,0x00,0x00,0x00,0x00,0x00,0x00,0x00,0x00,0x00,0x00,0x00,0x00,0x00,0x00,0x00,0x00,0x00,0x00,0x00,0x00,0x00,0x00,0x00,0x00,0x00,0x00,0x00,0x00,0x00,0x00,0x00,0x00,0x00,0x00,0x00,0x00,0x00,0x00,0x00,0x00,0x00,0x00,0x00,0x00,0x00,0x00,0x00,0x00,0x00,0x00,0x00,0x00,0x00,0x00,0x00,0x00,0x00,0x00,0x00,0x00,0x00,0x00,0x00,0x00,0x00,0x00,0x00,0x00,0x00,0x00,0x00,0x00,0x00,0x00,0x00,0x00,0x00,0x00,0x00,0x00,0x00,0x00,0x00,0x00,0x00,0x00,0x00,0x00,0x00,0x00,0x00,0x00,0x00,0x00,0x00,0x00,0x00,0x00,0x00,0x00,0x00,0x00,0x00,0x00,0x00,0x00,0x00,0x00,0x00,0x00,0x00,0x00,0x00,0x00,0x00,0x00,0x00,0x00,0x00,0x00,0x00,0x00,0x00,0x00,0x00,0x00,0x00,0x00,0x00,0x00,0x00,0x00,0x00,0x00,0x00,0x00,0x00,0x00,0x00,0x00,0x00,0x00,0x00,0x00,0x00,0x00,0x00,0x00,0x00,0x00,0x00,0x00,0x00,0x00,0x00,0x00,0x00,0x00,0x00,0x00,0x00,0x00,0x00,0x00,0x00,0x00,0x00,0x00,0x00,0x00,0x00,0x00,0x00,0x00,0x00,0x00,0x00,0x00,0x00,0x00,0x00,0x00,0x00,0x00,0x00,0x00,0x00,0x00,0x00,0x00,0x00,0x00,0x00,0x00,0x00,0x00,0x00,0x00,0x00,0x00,0x00,0x00,0x00,0x00,0x00,0x00,0x00,0x00,0x00,0x00,0x00,0x00,0x00,0x00,0x00,0x00,0x00,0x00,0x00,0x00,0x00,0x00,0x00,0x00,0x00,0x00,0x00,0x00,0x00,0x00,0x00,0x00,0x00,0x00,0x00,0x00,0x00,0x00,0x00,0x00,0x00,0x00,0x00,0x00,0x00,0x00,0x00,0x00,0x00,0x00,0x00,0x00,0x00,0x00,0x00,0x00,0x00,0x00,0x00,0x00,0x00,0x00,0x00,0x00,0x00,0x00,0x00,0x00,0x00,0x00,0x00,0x00,0x00,0x00,0x00,0x00,0x00,0x00,0x00,0x00,0x00,0x00,0x00,0x00,0x00,0x00,0x00,0x00,0x00,0x00,0x00,0x00,0x00,0x00,0x00,0x00,0x00,0x00,0x00,0x00,0x00,0x00,0x00,0x00,0x00,0x00,0x00,0x00,0x00,0x00,0x00,0x00,0x00,0x00,0x00,0x00,0x00,0x00,0x00,0x00,0x00,0x00,0x00,0x00,0x00,0x00,0x00,0x00,0x00,0x00,0x00,0x00,0x00,0x00,0x00,0x00,0x00,0x00,0x00,0x00,0x00,0x00,0x00,0x00,0x00,0x00,0x00,0x00,0x00,0x00,0x00,0x00,0x00,0x00,0x00,0x00,0x00,0x00,0x00,0x00,0x00,0x00,0x00,0x00,0x00,0x00,0x00,0x00,0x00,0x00,0x00,0x00,0x00,0x00,0x00,0x00,0x00,0x00,0x00,0x00,0x00,0x00,0x00,0x00,0x00,0x00,0x00,0x00,0x00,0x00,0x00,0x00,0x00,0x00,0x00,0x00,0x00,0x00,0x00,0x00,0x00,0x00,0x00,0x00,0x00,0x00,0x00,0x00,0x00,0x00,0x00,0x00,0x00,0x00,0x00,0x00,0x00,0x00,0x00,0x00,0x00,0x00,0x00,0x00,0x00,0x00,0x00,0x00,0x00,0x00,0x00,0x00,0x00,0x00,0x00,0x00,0x00,0x00,0x00,0x00,0x00,0x00,0x00,0x00,0x00,0x00,0x00,0x00,0x00,0x00,0x00,0x00,0x00,0x00,0x00,0x00,0x00,0x00,0x00,0x00,0x00,0x00,0x00,0x00,0x00,0x00,0x00,0x00,0x00,0x00,0x00,0x00,0x00,0x00,0x00,0x00,0x00,0x00,0x00,0x00,0x00,0x00,0x00,0x00,0x00,0x00,0x00,0x00,0x00,0x00,0x00,0x00,0x00,0x00,0x00,0x00,0x00,0x00,0x00,0x00,0x00,0x00,0x00,0x00,0x00,0x00,0x00,0x00,0x00,0x00,0x00,0x00,0x00,0x00,0x00,0x00,0x00,0x00,0x00,0x00,0x00,0x00,0x00,0x00,0x00,0x00,0x00,0x00,0x00,0x00,0x00,0x00,0x00,0x00,0x00,0x00,0x00,0x00,0x00,0x00,0x00,0x00,0x00,0x00,0x00,0x00,0x00,0x00,0x00,0x00,0x00,0x00,0x00,0x00,0x00,0x00,0x00,0x00,0x00,0x00,0x00,0x00,0x00,0x00,0x00,0x00,0x00,0x00,0x00,0x00,0x00,0x00,0x00,0x00,0x00,0x00,0x00,0x00,0x00,0x00,0x00,0x00,0x00,0x00,0x00,0x00,0x00,0x00,0x00,0x00,0x00,0x00,0x00,0x00,0x00,0x00,0x00,0x00,0x00,0x00,0x00,0x00,0x00,0x00,0x00,0x00,0x00,0x00,0x00,0x00,0x00,0x00,0x00,0x00,0x00,0x00,0x00,0x00,0x00,0x00,0x00,0x00,0x00,0x00,0x00,0x00,0x00,0x00,0x00,0x00,0x00,0x00,0x00,0x00,0x00,0x00,0x00,0x00,0x00,0x00,0x00,0x00,0x00,0x00,0x00,0x00,0x00,0x00,0x00,0x00,0x00,0x00,0x00,0x00,0x00,0x00,0x00,0x00,0x00,0x00,0x00,0x00,0x00,0x00,0x00,0x00,0x00,0x00,0x00,0x00,0x00,0x00,0x00,0x00,0x00,0x00,0x00,0x00,0x00,0x00,0x00,0x00,0x00,0x00,0x00,0x00,0x00,0x00,0x00,0x00,0x00,0x00,0x00,0x00,0x00,0x00,0x00,0x00,0x00,0x00,0x00,0x00,0x00,0x00,0x00,0x00,0x00,0x00,0x00,0x00,0x00,0x00,0x00,0x00,0x00,0x00,0x00,0x00,0x00,0x00,0x00,0x00,0x00,0x00,0x00,0x00,0x00,0x00,0x00,0x00,0x00,0x00,0x00,0x00,0x00,0x00,0x00,0x00,0x00,0x00,0x00,0x00,0x00,0x00,0x00,0x00,0x00,0x00,0x00,0x00,0x00,0x00,0x00,0x00,0x00,0x00,0x00,0x00,0x00,0x00,0x00,0x00,0x00,0x00,0x00,0x00,0x00,0x00,0x00,0x00,0x00,0x00,0x00,0x00,0x00,0x00,0x00,0x00,0x00,0x00,0x00,0x00,0x00,0x00,0x00,0x00,0x00,0x00,0x00,0x00,0x00,0x00,0x00,0x00,0x00,0x00,0x00,0x00,0x00,0x00,0x00,0x00,0x00,0x00,0x00,0x00,0x00,0x00,0x00,0x00,0x00,0x00,0x00,0x00,0x00,0x00,0x00,0x00,0x00,0x00,0x00,0x00,0x00,0x00,0x00,0x00,0x00,0x00,0x00,0x00,0x00,0x00,0x00,0x00,0x00,0x00,0x00,0x00,0x00,0x00,0x00,0x00,0x00,0x00,0x00,0x00,0x00,0x00,0x00,0x00,0x00,0x00,0x00,0x00,0x00,0x00,0x00,0x00,0x00,0x00,0x00,0x00,0x00,0x00,0x00,0x00,0x00,0x00,0x00,0x00,0x00,0x00,0x00,0x00,0x00,0x00,0x00,0x00,0x00,0x00,0x00,0x00,0x00,0x00,0x00,0x00,0x00,0x00,0x00,0x00,0x00,0x00,0x00,0x00,0x00,0x00,0x00,0x00,0x00,0x00,0x00,0x00,0x00,0x00,0x00,0x00,0x00,0x00,0x00,0x00,0x00,0x00,0x00,0x00,0x00,0x00,0x00,0x00,0x00,0x00,0x00,0x00,0x00,0x00,0x00,0x00,0x00,0x00,0x00,0x00,0x00,0x00,0x00,0x00,0x00,0x00,0x00,0x00,0x00,0x00,0x00,0x00,0x00,0x00,0x00,0x00,0x00,0x00,0x00,0x00,0x00,0x00,0x00,0x00,0x00,0x00,0x00,0x00,0x00,0x00,0x00,0x00,0x00,0x00,0x00,0x00,0x00,0x00,0x00,0x00,0x00,0x00,0x00,0x00,0x00,0x00,0x00,0x00,0x00,0x00,0x00,0x00,0x00,0x00,0x00,0x00,0x00,0x00,0x00,0x00,0x00,0x00,0x00,0x00,0x00,0x00,0x00,0x00,0x00,0x00,0x00,0x00,0x00,0x00,0x00,0x00,0x00,0x00,0x00,0x00,0x00,0x00,0x00,0x00,0x00,0x00,0x00,0x00,0x00,0x00,0x00,0x00,0x00,0x00,0x00,0x00,0x00,0x00,0x00,0x00,0x00,0x00,0x00,0x00,0x00,0x00,0x00,0x00,0x00,0x00,0x00,0x00,0x00,0x00,0x00,0x00,0x00,0x00,0x00,0x00,0x00,0x00,0x00,0x00,0x00,0x00,0x00,0x00,0x00,0x00,0x00,0x00,0x00,0x00,0x00,0x00,0x00,0x00,0x00,0x00,0x00,0x00,0x00,0x00,0x00,0x00,0x00,0x00,0x00,0x00,0x00,0x00,0x00,0x00,0x00,0x00,0x00,0x00,0x00,0x00,0x00,0x00,0x00,0x00,0x00,0x00,0x00,0x00,0x00,0x00,0x00,0x00,0x00,0x00,0x00,0x00,0x00,0x00,0x00,0x00,0x00,0x00,0x00,0x00,0x00,0x00,0x00,0x00,0x00,0x00,0x00,0x00,0x00,0x00,0x00,0x00,0x00,0x00,0x00,0x00,0x00,0x00,0x00,0x00,0x00,0x00,0x00,0x00,0x00,0x00,0x00,0x00,0x00,0x00,0x00,0x00,0x00,0x00,0x00,0x00,0x00,0x00,0x00,0x00,0x00,0x00,0x00,0x00,0x00,0x00,0x00,0x00,0x00,0x00,0x00,0x00,0x00,0x00,0x00,0x00,0x00,0x00,0x00,0x00,0x00,0x00,0x00,0x00,0x00,0x00,0x00,0x00,0x00,0x00,0x00,0x00,0x00,0x00,0x00,0x00,0x00,0x00,0x00,0x00,0x00,0x00,0x00,0x00,0x00,0x00,0x00,0x00,0x00,0x00,0x00,0x00,0x00,0x00,0x00,0x00,0x00,0x00,0x00,0x00,0x00,0x00,0x00,0x00,0x00,0x00,0x00,0x00,0x00,0x00,0x00,0x00,0x80,0xff,0xff,0xff,0xff,0xff,0xff,0xff,0xff,0xff,0xff,0xff,0xff,0xff,0xff,0xff,0xff,0x01,0x00,0x00,0x00,0x00,0x00,0x00,0x00,0x00,0x00,0x00,0x00,0x00,0x00,0x00,0xc0,0xff,0xff,0xff,0xff,0xff,0xff,0xff,0xff,0xff,0xff,0xff,0xff,0xff,0xff,0xff,0xff,0x03,0x00,0x00,0x00,0x00,0x00,0x00,0x00,0x00,0x00,0x00,0x00,0x00,0x00,0x00,0xe0,0xff,0xff,0xff,0xff,0xff,0xff,0xff,0xff,0xff,0xff,0xff,0xff,0xff,0xff,0xff,0xff,0x07,0x00,0x00,0x00,0x00,0x00,0x00,0x00,0x00,0x00,0x00,0x00,0x00,0x00,0x00,0xf0,0xfd,0xff,0xff,0xff,0xff,0xff,0xff,0xff,0xff,0xff,0xff,0xff,0xff,0xff,0xff,0xbf,0x0f,0x00,0x00,0x00,0x00,0x00,0x00,0x00,0x00,0x00,0x00,0x00,0x00,0x00,0x00,0xf8,0xfd,0xff,0xff,0xff,0xff,0xff,0xff,0xff,0xff,0xff,0xff,0xff,0xff,0xff,0xff,0xbf,0x1f,0x00,0x00,0x00,0x00,0x00,0x00,0x00,0x00,0x00,0x00,0x00,0x00,0x00,0x00,0xfc,0x73,0xfe,0x7f,0xfe,0x7f,0xfe,0x7f,0xfe,0x7f,0xfe,0x7f,0xfe,0x7f,0xfe,0x7f,0xce,0x3f,0x00,0x00,0x00,0x00,0x00,0x00,0x00,0x00,0x00,0x00,0x00,0x00,0x00,0x00,0xfe,0x73,0xfe,0x7f,0xfe,0x7f,0xfe,0x7f,0xfe,0x7f,0xfe,0x7f,0xfe,0x7f,0xfe,0x7f,0xce,0x7f,0x00,0x00,0x00,0x00,0x00,0x00,0x00,0x00,0x00,0x00,0x00,0x00,0x00,0x00,0xff,0xf3,0xff,0xff,0xff,0xff,0xff,0xff,0xff,0xff,0xff,0xff,0xff,0xff,0xff,0xff,0xcf,0xff,0x00,0x00,0x00,0x00,0x00,0x00,0x00,0x00,0x00,0x00,0x00,0x00,0x00,0x80,0xff,0xf3,0xff,0xff,0xff,0xff,0xff,0xff,0xff,0xff,0xff,0xff,0xff,0xff,0xff,0xff,0xcf,0xff,0x01,0x00,0x00,0x00,0x00,0x00,0x00,0x00,0x00,0x00,0x00,0x00,0x00,0xc0,0xff,0xe3,0xe7,0xe7,0xff,0xff,0xe7,0xe7,0xff,0xff,0xe7,0xe7,0xff,0xff,0xe7,0xe7,0xc7,0xff,0x03,0x00,0x00,0x00,0x00,0x00,0x00,0x00,0x00,0x00,0x00,0x00,0x00,0xe0,0xff,0x07,0x1f,0xf8,0xff,0xff,0x1f,0xf8,0xff,0xff,0x1f,0xf8,0xff,0xff,0x1f,0xf8,0xe0,0xff,0x07,0x00,0x00,0x00,0x00,0x00,0x00,0x00,0x00,0x00,0x00,0x00,0x00,0xf0,0xbf,0x0f,0x1f,0xf8,0xff,0xff,0x1f,0xf8,0xff,0xff,0x1f,0xf8,0xff,0xff,0x1f,0xf8,0xf0,0xfd,0x0f,0x00,0x00,0x00,0x00,0x00,0x00,0x00,0x00,0x00,0x00,0x00,0x00,0xf8,0xbf,0x0f,0x1f,0xf8,0xff,0xff,0x1f,0xf8,0xff,0xff,0x1f,0xf8,0xff,0xff,0x1f,0xf8,0xf0,0xfd,0x1f,0x00,0x00,0x00,0x00,0x00,0x00,0x00,0x00,0x00,0x00,0x00,0x00,0xfc,0x1f,0x0e,0x1f,0xfc,0x7f,0xfe,0x3f,0xfc,0x7f,0xfe,0x3f,0xfc,0x7f,0xfe,0x3f,0xf8,0x70,0xf8,0x3f,0x00,0x00,0x00,0x00,0x00,0x00,0x00,0x00,0x00,0x00,0x00,0x00,0xfe,0x07,0x0e,0x07,0xfe,0x77,0xee,0x7f,0xfe,0x77,0xee,0x7f,0xfe,0x77,0xee,0x7f,0xe0,0x70,0xe0,0x7f,0x00,0x00,0x00,0x00,0x00,0x00,0x00,0x00,0x00,0x00,0x00,0x00,0xff,0x9f,0x0f,0xdf,0xff,0xff,0xff,0xff,0xff,0xff,0xff,0xff,0xff,0xff,0xff,0xff,0xfb,0xf0,0xf9,0xff,0x00,0x00,0x00,0x00,0x00,0x00,0x00,0x00,0x00,0x00,0x00,0x80,0xff,0xff,0x0f,0xdf,0xff,0xff,0xff,0xff,0xff,0xff,0xff,0xff,0xff,0xff,0xff,0xff,0xfb,0xf0,0xff,0xff,0x01,0x00,0x00,0x00,0x00,0x00,0x00,0x00,0x00,0x00,0x00,0xc0,0xff,0xff,0x07,0xfe,0xff,0xff,0xff,0xff,0xff,0xff,0xff,0xff,0xff,0xff,0xff,0xff,0x7f,0xe0,0xff,0xff,0x03,0x00,0x00,0x00,0x00,0x00,0x00,0x00,0x00,0x00,0x00,0xe0,0xff,0xff,0x07,0xfc,0x3f,0xfc,0x3f,0xfc,0xff,0xff,0xff,0xff,0x3f,0xfc,0x3f,0xfc,0x3f,0xe0,0xff,0xff,0x07,0x00,0x00,0x00,0x00,0x00,0x00,0x00,0x00,0x00,0x00,0xf0,0xff,0xff,0x0f,0xf8,0x1f,0xf8,0x1f,0xf8,0xff,0xff,0xff,0xff,0x1f,0xf8,0x1f,0xf8,0x1f,0xf0,0xff,0xff,0x0f,0x00,0x00,0x00,0x00,0x00,0x00,0x00,0x00,0x00,0x00,0xf8,0xff,0xbf,0x1f,0x00,0xff,0x01,0x80,0xff,0xff,0xff,0xff,0xff,0xff,0x01,0x80,0xff,0x00,0xf8,0xfd,0xff,0x1f,0x00,0x00,0x00,0x00,0x00,0x00,0x00,0x00,0x00,0x00,0xfc,0xff,0xcf,0x3f,0x00,0xff,0x03,0xc0,0xff,0xff,0xff,0xff,0xff,0xff,0x03,0xc0,0xff,0x00,0xfc,0xf3,0xff,0x3f,0x00,0x00,0x00,0x00,0x00,0x00,0x00,0x00,0x00,0x00,0xfe,0xff,0xcf,0x7f,0x00,0xff,0x03,0xc0,0xff,0xff,0xff,0xff,0xff,0xff,0x03,0xc0,0xff,0x00,0xfe,0xf3,0xff,0x7f,0x00,0x00,0x00,0x00,0x00,0x00,0x00,0x00,0x00,0x00,0xff,0xff,0xcf,0xff,0x00,0x9f,0x03,0xc0,0xff,0xff,0xff,0xff,0xff,0xff,0x03,0xc0,0xf9,0x00,0xff,0xf3,0xff,0xff,0x00,0x00,0x00,0x00,0x00,0x00,0x00,0x00,0x00,0x80,0xff,0xff,0xcf,0xff,0x00,0x9f,0x03,0xc0,0xff,0xff,0xff,0xff,0xff,0xff,0x03,0xc0,0xf9,0x00,0xff,0xf3,0xff,0xff,0x01,0x00,0x00,0x00,0x00,0x00,0x00,0x00,0x00,0xc0,0xff,0xff,0x87,0xe7,0x00,0xff,0x03,0xc0,0xff,0xff,0xe7,0xe7,0xff,0xff,0x03,0xc0,0xff,0x00,0xe7,0xe1,0xff,0xff,0x03,0x00,0x00,0x00,0x00,0x00,0x00,0x00,0x00,0xe0,0xff,0xff,0x03,0xf8,0x00,0xff,0x03,0xe0,0xff,0xff,0x1f,0xf8,0xff,0xff,0x07,0xc0,0xff,0x00,0x1f,0xc0,0xff,0xff,0x07,0x00,0x00,0x00,0x00,0x00,0x00,0x00,0x00,0xf0,0xbf,0xff,0x01,0xf8,0x00,0xff,0x01,0xf0,0xff,0xff,0x1f,0xf8,0xff,0xff,0x0f,0x80,0xff,0x00,0x1f,0x80,0xff,0xfd,0x0f,0x00,0x00,0x00,0x00,0x00,0x00,0x00,0x00,0xf8,0xbf,0x1f,0x00,0xf8,0x00,0x1f,0x00,0xf8,0xff,0x1f,0x1f,0xf8,0xf8,0xff,0x1f,0x00,0xf8,0x00,0x1f,0x00,0xf8,0xfd,0x1f,0x00,0x00,0x00,0x00,0x00,0x00,0x00,0x00,0xfc,0x1f,0x1f,0x00,0xf8,0x00,0x1f,0x00,0xfc,0xff,0x1f,0x1f,0xf8,0xf8,0xff,0x3f,0x00,0xf8,0x00,0x1f,0x00,0xf8,0xf8,0x3f,0x00,0x00,0x00,0x00,0x00,0x00,0x00,0x00,0xfe,0x07,0xef,0x81,0xe7,0x00,0xe7,0xe1,0xff,0xe7,0xef,0xe7,0xe7,0xf7,0xe7,0xff,0x87,0xe7,0x00,0xe7,0x81,0xf7,0xe0,0x7f,0x00,0x00,0x00,0x00,0x00,0x00,0x00,0x00,0xff,0x9f,0xff,0xc3,0xff,0x00,0xff,0xf3,0xff,0xff,0xff,0xff,0xff,0xff,0xff,0xff,0xcf,0xff,0x00,0xff,0xc3,0xff,0xf9,0xff,0x00,0x00,0x00,0x00,0x00,0x00,0x00,0x80,0xff,0xff,0xff,0xff,0xff,0x00,0xff,0xf3,0xff,0xff,0xff,0xff,0xff,0xff,0xff,0xff,0xcf,0xff,0x00,0xff,0xff,0xff,0xff,0xff,0x01,0x00,0x00,0x00,0x00,0x00,0x00,0xc0,0xff,0xff,0xff,0xff,0x7f,0x00,0xfe,0x73,0xef,0xff,0xff,0xff,0xff,0xff,0xff,0xf7,0xce,0x7f,0x00,0xfe,0xff,0xff,0xff,0xff,0x03,0x00,0x00,0x00,0x00,0x00,0x00,0xe0,0xff,0xff,0xff,0xff,0x3f,0x00,0xfc,0x73,0xdf,0xff,0xff,0xff,0xff,0xff,0xff,0xfb,0xce,0x3f,0x00,0xfc,0xff,0xff,0xff,0xff,0x07,0x00,0x00,0x00,0x00,0x00,0x00,0xf0,0xff,0xff,0xff,0xbf,0x1f,0x00,0xf8,0xfd,0xbf,0xff,0xf9,0xfd,0xbf,0x9f,0xff,0xfd,0xbf,0x1f,0x00,0xf8,0xfd,0xff,0xff,0xff,0x0f,0x00,0x00,0x00,0x00,0x00,0x00,0xf8,0xff,0xff,0xff,0xbf,0x1f,0x00,0xf0,0xfd,0xff,0x0f,0xf0,0xfd,0xbf,0x0f,0xf0,0xff,0xbf,0x0f,0x00,0xf8,0xfd,0xff,0xff,0xff,0x1f,0x00,0x00,0x00,0x00,0x00,0x00,0xfc,0xff,0xff,0xff,0xff,0x3f,0x00,0xe0,0xff,0xff,0x07,0xe0,0xff,0xff,0x07,0xe0,0xff,0xff,0x07,0x00,0xfc,0xff,0xff,0xff,0xff,0x3f,0x00,0x00,0x00,0x00,0x00,0x00,0xfe,0xff,0xff,0xff,0xff,0x7f,0x00,0xc0,0xff,0xff,0x03,0xc0,0xff,0xff,0x03,0xc0,0xff,0xff,0x03,0x00,0xfe,0xff,0xff,0xff,0xff,0x7f,0x00,0x00,0x00,0x00,0x00,0x00,0xff,0xff,0xff,0xff,0xff,0xff,0x00,0x80,0xff,0xff,0x03,0x80,0xff,0xff,0x01,0xc0,0xff,0xff,0x01,0x00,0xff,0xff,0xff,0xff,0xff,0xff,0x00,0x00,0x00,0x00,0x00,0x80,0xff,0xff,0xff,0xff,0xcf,0xff,0x01,0x00,0x00,0x9f,0xff,0x01,0x00,0x00,0x80,0xff,0xf9,0x00,0x00,0x80,0xff,0xf3,0xff,0xff,0xff,0xff,0x01,0x00,0x00,0x00,0x00,0xc0,0xff,0xff,0xff,0xe7,0xc7,0xff,0x03,0x00,0x00,0xff,0xff,0x03,0x00,0x00,0xc0,0xff,0xff,0x00,0x00,0xc0,0xff,0xe3,0xe7,0xff,0xff,0xff,0x03,0x00,0x00,0x00,0x00,0xe0,0xff,0xff,0xff,0xff,0xe0,0xff,0x07,0x00,0x00,0xff,0xff,0x07,0x00,0x00,0xe0,0xff,0xff,0x00,0x00,0xe0,0xff,0x07,0xff,0xff,0xff,0xff,0x07,0x00,0x00,0x00,0x00,0xf0,0xbf,0xff,0xbf,0xff,0xf0,0xfd,0x0f,0x00,0x00,0xff,0xbd,0x0f,0x00,0x00,0xf0,0xbd,0xff,0x00,0x00,0xf0,0xbf,0x0f,0xff,0xfd,0xff,0xfd,0x0f,0x00,0x00,0x00,0x00,0xf8,0xbf,0xff,0xbf,0xff,0xf0,0xfd,0x1f,0x00,0x00,0xff,0xbd,0x0f,0x00,0x00,0xf0,0xbd,0xff,0x00,0x00,0xf8,0xbf,0x0f,0xff,0xfd,0xff,0xfd,0x1f,0x00,0x00,0x00,0x00,0xfc,0x1f,0xff,0x1f,0xfe,0x70,0xf8,0x3f,0x00,0x00,0xff,0x03,0x0e,0x00,0x00,0x70,0xc0,0xff,0x00,0x00,0xfc,0x1f,0x0e,0x7f,0xf8,0xff,0xf8,0x3f,0x00,0x00,0x00,0x00,0xfe,0x07,0xff,0x87,0xef,0x70,0xe0,0x7f,0x00,0x00,0xff,0x83,0x0f,0x00,0x00,0xf0,0xc1,0xff,0x00,0x00,0xfe,0x07,0x0e,0xf7,0xe1,0xff,0xe0,0x7f,0x00,0x00,0x00,0x00,0xff,0x9f,0xff,0xdf,0xff,0xf0,0xf9,0xff,0x00,0x00,0xff,0x83,0x0f,0x00,0x00,0xf0,0xc1,0xff,0x00,0x00,0xff,0x9f,0x0f,0xff,0xfb,0xff,0xf9,0xff,0x00,0x00,0x00,0x80,0xff,0xff,0xff,0xdf,0xff,0xf0,0xf9,0xff,0x00,0x00,0xff,0x83,0x0f,0x00,0x00,0xf0,0xc1,0xff,0x00,0x00,0xff,0x9f,0x0f,0xff,0xfb,0xff,0xff,0xff,0x01,0x00,0x00,0xc0,0xff,0xff,0xff,0xff,0x7f,0xe0,0xff,0xe7,0x00,0x00,0xff,0x83,0x0f,0x00,0x00,0xf0,0xc1,0xff,0x00,0x00,0xe7,0xff,0x07,0xfe,0xff,0xff,0xff,0xff,0x03,0x00,0x00,0xe0,0xff,0xff,0xff,0xff,0x3f,0xc0,0x3f,0xf8,0x00,0x00,0xff,0x03,0x0e,0x00,0x00,0x70,0xc0,0xff,0x00,0x00,0x1f,0xfc,0x03,0xfc,0xff,0xff,0xff,0xff,0x07,0x00,0x00,0xf0,0xff,0xff,0xff,0xfd,0x1f,0x80,0x1f,0xf8,0x00,0x00,0xff,0xbd,0x0f,0x00,0x00,0xf0,0xbd,0xff,0x00,0x00,0x1f,0xf8,0x01,0xf8,0xbf,0xff,0xff,0xff,0x0f,0x00,0x00,0xf8,0xff,0xbf,0xff,0xbd,0x0f,0x00,0x80,0xff,0x00,0x00,0xff,0xbd,0x0f,0x00,0x00,0xf0,0xbd,0xff,0x00,0x00,0xff,0x01,0x00,0xf0,0xbd,0xff,0xfd,0xff,0x1f,0x00,0x00,0xfc,0xff,0xcf,0xff,0xff,0x07,0x00,0xc0,0xff,0x00,0x00,0xff,0xff,0x07,0x00,0x00,0xe0,0xff,0xff,0x00,0x00,0xff,0x03,0x00,0xe0,0xff,0xff,0xf3,0xff,0x3f,0x00,0x00,0xfe,0xff,0xcf,0xff,0xff,0x03,0x00,0xc0,0xff,0x00,0x00,0xff,0xff,0x03,0x00,0x00,0xc0,0xff,0xff,0x00,0x00,0xff,0x03,0x00,0xc0,0xff,0xff,0xf3,0xff,0x7f,0x00,0x00,0xff,0xff,0xcf,0xff,0xff,0x01,0x00,0xc0,0xf9,0x00,0x00,0x9f,0xff,0x01,0x00,0x00,0x80,0xff,0xf9,0x00,0x00,0x9f,0x03,0x00,0x80,0xff,0xff,0xf3,0xff,0xff,0x00,0x80,0xff,0xff,0xcf,0xff,0x03,0x00,0x00,0xc0,0xf9,0x00,0x00,0x9f,0x03,0x00,0x00,0x00,0x00,0xc0,0xf9,0x00,0x00,0x9f,0x03,0x00,0x00,0xc0,0xff,0xf3,0xff,0xff,0x01,0xc0,0xff,0xff,0x87,0xff,0x03,0x00,0x00,0xc0,0xff,0x00,0x00,0xff,0x03,0x00,0x00,0x00,0x00,0xc0,0xff,0x00,0x00,0xff,0x03,0x00,0x00,0xc0,0xff,0xe1,0xff,0xff,0x03,0xe0,0xff,0xff,0x03,0xff,0x03,0x00,0x00,0xc0,0xff,0x00,0x00,0xff,0x03,0x00,0x00,0x00,0x00,0xc0,0xff,0x00,0x00,0xff,0x03,0x00,0x00,0xc0,0xff,0xc0,0xff,0xff,0x07,0xf0,0xbf,0xff,0x01,0xff,0x01,0x00,0x00,0x80,0xff,0x00,0x00,0xff,0x01,0x00,0x00,0x00,0x00,0x80,0xff,0x00,0x00,0xff,0x01,0x00,0x00,0x80,0xff,0x80,0xff,0xfd,0x0f,0xf8,0xbf,0x1f,0x00,0xff,0xf8,0x01,0x80,0x1f,0xf8,0x00,0x00,0x1f,0xf8,0x01,0xf8,0x1f,0x80,0x1f,0xf8,0x00,0x00,0x1f,0xf8,0x01,0x80,0x1f,0xff,0x00,0xf8,0xfd,0x1f,0xfc,0x1f,0x1f,0x00,0xff,0xfc,0x03,0xc0,0x3f,0xf8,0x00,0x00,0x1f,0xfc,0x03,0xfc,0x3f,0xc0,0x3f,0xf8,0x00,0x00,0x1f,0xfc,0x03,0xc0,0x3f,0xff,0x00,0xf8,0xf8,0x3f,0xfe,0x07,0xef,0x81,0xe7,0xff,0x07,0xe0,0xff,0xe7,0x00,0x00,0xe7,0xff,0x07,0xfe,0x7f,0xe0,0xff,0xe7,0x00,0x00,0xe7,0xff,0x07,0xe0,0xff,0xe7,0x81,0xf7,0xe0,0x7f,0xff,0x9f,0xff,0xc3,0xff,0x9f,0x0f,0xf0,0xf9,0xff,0x00,0x00,0xff,0x9f,0x0f,0xdf,0xfb,0xf0,0xf9,0xff,0x00,0x00,0xff,0x9f,0x0f,0xf0,0xf9,0xff,0xc3,0xff,0xf9,0xff,0xff,0x9f,0xff,0xc3,0xff,0x9f,0x0f,0xf0,0xf9,0xff,0x00,0x00,0xff,0x9f,0x0f,0xdf,0xfb,0xf0,0xf9,0xff,0x00,0x00,0xff,0x9f,0x0f,0xf0,0xf9,0xff,0xc3,0xff,0xf9,0xff,0xe7,0xff,0xff,0xc3,0xff,0x07,0x0e,0x70,0xe0,0x7f,0x00,0x00,0xfe,0x07,0x0e,0x07,0xe0,0x70,0xe0,0x7f,0x00,0x00,0xfe,0x07,0x0e,0x70,0xe0,0xff,0xc3,0xff,0xff,0xe7,0x1f,0xfc,0xff,0xc3,0xff,0x1f,0x0e,0x70,0xf8,0x3f,0x00,0x00,0xfc,0x1f,0x0e,0x1f,0xf8,0x70,0xf8,0x3f,0x00,0x00,0xfc,0x1f,0x0e,0x70,0xf8,0xff,0xc3,0xff,0x3f,0xf8,0x1f,0xf8,0xf9,0xbd,0xff,0xbf,0x0f,0xf0,0xfd,0x1f,0x00,0x00,0xf8,0xbf,0x0f,0x1f,0xf8,0xf0,0xfd,0x1f,0x00,0x00,0xf8,0xbf,0x0f,0xf0,0xfd,0xff,0xbd,0x9f,0x1f,0xf8,0xff,0x01,0xf0,0xbd,0xff,0xbf,0x0f,0xf0,0xfd,0x0f,0x00,0x00,0xf0,0xbf,0x0f,0x1f,0xf8,0xf0,0xfd,0x0f,0x00,0x00,0xf0,0xbf,0x0f,0xf0,0xfd,0xff,0xbd,0x0f,0x80,0xff,0xff,0x03,0xe0,0xff,0xe7,0xff,0x07,0xe0,0xff,0x07,0x00,0x00,0xe0,0xff,0x07,0x1f,0xf8,0xe0,0xff,0x07,0x00,0x00,0xe0,0xff,0x07,0xe0,0xff,0xe7,0xff,0x07,0xc0,0xff,0xff,0x03,0xc0,0xff,0xc3,0xff,0xe3,0xc7,0xff,0x03,0x00,0x00,0xc0,0xff,0xe3,0xe7,0xe7,0xc7,0xff,0x03,0x00,0x00,0xc0,0xff,0xe3,0xc7,0xff,0xc3,0xff,0x03,0xc0,0xff,0x9f,0x03,0x80,0xff,0x81,0xff,0xf3,0xcf,0xff,0x01,0x00,0x00,0x80,0xff,0xf3,0xff,0xff,0xcf,0xff,0x01,0x00,0x00,0x80,0xff,0xf3,0xcf,0xff,0x81,0xff,0x01,0xc0,0xf9,0x9f,0xff,0x01,0x00,0x00,0xff,0xf3,0xcf,0xff,0x00,0x00,0x00,0x00,0xff,0xf3,0xff,0xff,0xcf,0xff,0x00,0x00,0x00,0x00,0xff,0xf3,0xcf,0xff,0x00,0x00,0x80,0xff,0xf9,0xff,0xff,0x03,0x00,0x00,0xfe,0x73,0xce,0x7f,0x00,0x00,0x00,0x00,0xfe,0x73,0xfe,0x7f,0xce,0x7f,0x00,0x00,0x00,0x00,0xfe,0x73,0xce,0x7f,0x00,0x00,0xc0,0xff,0xff,0xff,0xff,0x07,0x00,0x00,0xfc,0x73,0xce,0x3f,0x00,0x00,0x00,0x00,0xfc,0x73,0xfe,0x7f,0xce,0x3f,0x00,0x00,0x00,0x00,0xfc,0x73,0xce,0x3f,0x00,0x00,0xe0,0xff,0xff,0xff,0xbd,0x0f,0x00,0x00,0xf8,0xfd,0xbf,0x1f,0x00,0x00,0x00,0x00,0xf8,0xfd,0xff,0xff,0xbf,0x1f,0x00,0x00,0x00,0x00,0xf8,0xfd,0xbf,0x1f,0x00,0x00,0xf0,0xbd,0xff,0xff,0xbd,0x0f,0x00,0x00,0xf0,0xfd,0xbf,0x0f,0x00,0x00,0x00,0x00,0xf0,0xfd,0xff,0xff,0xbf,0x0f,0x00,0x00,0x00,0x00,0xf0,0xfd,0xbf,0x0f,0x00,0x00,0xf0,0xbd,0xff,0xff,0x03,0x0e,0x00,0x00,0xe0,0xff,0xff,0x07,0x00,0x00,0x00,0x00,0xe0,0xff,0xff,0xff,0xff,0x07,0x00,0x00,0x00,0x00,0xe0,0xff,0xff,0x07,0x00,0x00,0x70,0xc0,0xff,0xff,0x83,0x0f,0x00,0x00,0xc0,0xff,0xff,0x03,0x00,0x00,0x00,0x00,0xc0,0xff,0xff,0xff,0xff,0x03,0x00,0x00,0x00,0x00,0xc0,0xff,0xff,0x03,0x00,0x00,0xf0,0xc1,0xff,0xff,0x83,0x0f,0x00,0x00,0x80,0xff,0xff,0x01,0x00,0x00,0x00,0x00,0x80,0xff,0xff,0xff,0xff,0x01,0x00,0x00,0x00,0x00,0x80,0xff,0xff,0x01,0x00,0x00,0xf0,0xc1,0xff,0xff,0x83,0xff,0xff,0x01,0x00,0x00,0x00,0x00,0x00,0x00,0x00,0x00,0x00,0x00,0x00,0x00,0x00,0x00,0x00,0x00,0x00,0x00,0x00,0x00,0x00,0x00,0x80,0xff,0xff,0xc1,0xff,0xff,0xc3,0xff,0xff,0x03,0x00,0x00,0x00,0x00,0x00,0x00,0x00,0x00,0x00,0x00,0x00,0x00,0x00,0x00,0x00,0x00,0x00,0x00,0x00,0x00,0x00,0x00,0xc0,0xff,0xff,0xc3,0xff,0xff,0xe3,0xff,0xff,0x07,0x00,0x00,0x00,0x00,0x00,0x00,0x00,0x00,0x00,0x00,0x00,0x00,0x00,0x00,0x00,0x00,0x00,0x00,0x00,0x00,0x00,0x00,0xe0,0xff,0xff,0xc7,0xff,0xff,0xfd,0xff,0xbf,0x0f,0x00,0x00,0x00,0x00,0x00,0x00,0x00,0x00,0x00,0x00,0x00,0x00,0x00,0x00,0x00,0x00,0x00,0x00,0x00,0x00,0x00,0x00,0xf0,0xfd,0xff,0xbf,0xff,0xff,0xfd,0xff,0xbf,0x1f,0x00,0x00,0x00,0x00,0x00,0x00,0x00,0x00,0x00,0x00,0x00,0x00,0x00,0x00,0x00,0x00,0x00,0x00,0x00,0x00,0x00,0x00,0xf8,0xfd,0xff,0xbf,0xff,0xff,0xff,0x77,0xce,0x3f,0x00,0x00,0x00,0x00,0x00,0x00,0x00,0x00,0x00,0x00,0x00,0x00,0x00,0x00,0x00,0x00,0x00,0x00,0x00,0x00,0x00,0x00,0xfc,0x73,0xee,0xff,0xff,0xff,0xff,0x73,0xce,0x7f,0x00,0x00,0x00,0x00,0x00,0x00,0x00,0x00,0x00,0x00,0x00,0x00,0x00,0x00,0x00,0x00,0x00,0x00,0x00,0x00,0x00,0x00,0xfe,0x73,0xce,0xff,0xff,0x9f,0xff,0xf3,0xcf,0xff,0x00,0x00,0x00,0x00,0x00,0x00,0x00,0x00,0x00,0x00,0x00,0x00,0x00,0x00,0x00,0x00,0x00,0x00,0x00,0x00,0x00,0x00,0xff,0xf3,0xcf,0xff,0xf9,0x9f,0xff,0xf3,0xcf,0xff,0x00,0x00,0x00,0x00,0x00,0x00,0x00,0x00,0x00,0x00,0x00,0x00,0x00,0x00,0x00,0x00,0x00,0x00,0x00,0x00,0x00,0x00,0xff,0xf3,0xcf,0xff,0xf9,0xff,0xff,0xe3,0x87,0xe7,0x00,0x00,0x00,0x00,0x00,0x00,0x00,0x00,0x00,0x00,0x00,0x00,0x00,0x00,0x00,0x00,0x00,0x00,0x00,0x00,0x00,0x00,0xe7,0xe1,0xc7,0xff,0xff,0xff,0xff,0x07,0x00,0xf8,0x00,0x00,0x00,0x00,0x00,0x00,0x00,0x00,0x00,0x00,0x00,0x00,0x00,0x00,0x00,0x00,0x00,0x00,0x00,0x00,0x00,0x00,0x1f,0x00,0xe0,0xff,0xff,0xff,0xbf,0x0f,0x00,0xf8,0x00,0x00,0x00,0x00,0x00,0x00,0x00,0x00,0x00,0x00,0x00,0x00,0x00,0x00,0x00,0x00,0x00,0x00,0x00,0x00,0x00,0x00,0x1f,0x00,0xf0,0xfd,0xff,0xff,0xff,0x0f,0x80,0xff,0x00,0x00,0x00,0x00,0x00,0x00,0x00,0x00,0x00,0x00,0x00,0x00,0x00,0x00,0x00,0x00,0x00,0x00,0x00,0x00,0x00,0x00,0xff,0x01,0xf0,0xff,0xff,0xff,0xff,0x0f,0xc0,0xff,0x00,0x00,0x00,0x00,0x00,0x00,0x00,0x00,0x00,0x00,0x00,0x00,0x00,0x00,0x00,0x00,0x00,0x00,0x00,0x00,0x00,0x00,0xff,0x03,0xf0,0xff,0xff,0xff,0xff,0x0f,0xc0,0xff,0x00,0x00,0x00,0x00,0x00,0x00,0x00,0x00,0x00,0x00,0x00,0x00,0x00,0x00,0x00,0x00,0x00,0x00,0x00,0x00,0x00,0x00,0xff,0x03,0xf0,0xff,0xff,0xff,0x9f,0x0f,0xc0,0xf9,0x00,0x00,0x00,0x00,0x00,0x00,0x00,0x00,0x00,0x00,0x00,0x00,0x00,0x00,0x00,0x00,0x00,0x00,0x00,0x00,0x00,0x00,0x9f,0x03,0xf0,0xf9,0xff,0xff,0x9f,0x0f,0xc0,0xf9,0x00,0x00,0x00,0x00,0x00,0x00,0x00,0x00,0x00,0x00,0x00,0x00,0x00,0x00,0x00,0x00,0x00,0x00,0x00,0x00,0x00,0x00,0x9f,0x03,0xf0,0xf9,0xff,0xff,0xff,0x0f,0xc0,0xff,0x00,0x00,0x00,0x00,0x00,0x00,0x00,0x00,0x00,0x00,0x00,0x00,0x00,0x00,0x00,0x00,0x00,0x00,0x00,0x00,0x00,0x00,0xff,0x03,0xf0,0xff,0xff,0xff,0xff,0x0f,0xc0,0xff,0x00,0x00,0x00,0x00,0x00,0x00,0x00,0x00,0x00,0x00,0x00,0x00,0x00,0x00,0x00,0x00,0x00,0x00,0x00,0x00,0x00,0x00,0xff,0x03,0xf0,0xff,0xff,0xff,0xff,0x0f,0x80,0xff,0x00,0x00,0x00,0x00,0x00,0x00,0x00,0x00,0x00,0x00,0x00,0x00,0x00,0x00,0x00,0x00,0x00,0x00,0x00,0x00,0x00,0x00,0xff,0x01,0xf0,0xff,0xff,0xff,0xbf,0x0f,0x00,0xf8,0x00,0x00,0x00,0x00,0x00,0x00,0x00,0x00,0x00,0x00,0x00,0x00,0x00,0x00,0x00,0x00,0x00,0x00,0x00,0x00,0x00,0x00,0x1f,0x00,0xf0,0xfd,0xff,0xff,0xff,0x07,0x00,0xf8,0x00,0x00,0x00,0x00,0x00,0x00,0x00,0x00,0x00,0x00,0x00,0x00,0x00,0x00,0x00,0x00,0x00,0x00,0x00,0x00,0x00,0x00,0x1f,0x00,0xe0,0xff,0xff,0xff,0xff,0xe3,0x87,0xe7,0x00,0x00,0x00,0x00,0x00,0x00,0x00,0x00,0x00,0x00,0x00,0x00,0x00,0x00,0x00,0x00,0x00,0x00,0x00,0x00,0x00,0x00,0xe7,0xe1,0xc7,0xff,0xff,0x9f,0xff,0xf3,0xcf,0xff,0x00,0x00,0x00,0x00,0x00,0x00,0x00,0x00,0x00,0x00,0x00,0x00,0x00,0x00,0x00,0x00,0x00,0x00,0x00,0x00,0x00,0x00,0xff,0xf3,0xcf,0xff,0xf9,0x9f,0xff,0xf3,0xcf,0xff,0x00,0x00,0x00,0x00,0x00,0x00,0x00,0x00,0x00,0x00,0x00,0x00,0x00,0x00,0x00,0x00,0x00,0x00,0x00,0x00,0x00,0x00,0xff,0xf3,0xcf,0xff,0xf9,0xff,0xff,0x73,0xce,0x7f,0x00,0x00,0x00,0x00,0x00,0x00,0x00,0x00,0x00,0x00,0x00,0x00,0x00,0x00,0x00,0x00,0x00,0x00,0x00,0x00,0x00,0x00,0xfe,0x73,0xce,0xff,0xff,0xff,0xff,0x77,0xce,0x3f,0x00,0x00,0x00,0x00,0x00,0x00,0x00,0x00,0x00,0x00,0x00,0x00,0x00,0x00,0x00,0x00,0x00,0x00,0x00,0x00,0x00,0x00,0xfc,0x73,0xee,0xff,0xff,0xff,0xfd,0xff,0xbf,0x1f,0x00,0x00,0x00,0x00,0x00,0x00,0x00,0x00,0x00,0x00,0x00,0x00,0x00,0x00,0x00,0x00,0x00,0x00,0x00,0x00,0x00,0x00,0xf8,0xfd,0xff,0xbf,0xff,0xff,0xfd,0xff,0xbf,0x0f,0x00,0x00,0x00,0x00,0x00,0x00,0x00,0x00,0x00,0x00,0x00,0x00,0x00,0x00,0x00,0x00,0x00,0x00,0x00,0x00,0x00,0x00,0xf0,0xfd,0xff,0xbf,0xff,0xff,0xe3,0xff,0xff,0x07,0x00,0x00,0x00,0x00,0x00,0x00,0x00,0x00,0x00,0x00,0x00,0x00,0x00,0x00,0x00,0x00,0x00,0x00,0x00,0x00,0x00,0x00,0xe0,0xff,0xff,0xc7,0xff,0xff,0xc3,0xff,0xff,0x03,0x00,0x00,0x00,0x00,0x00,0x00,0x00,0x00,0x00,0x00,0x00,0x00,0x00,0x00,0x00,0x00,0x00,0x00,0x00,0x00,0x00,0x00,0xc0,0xff,0xff,0xc3,0xff,0xff,0x83,0xff,0xff,0x01,0x00,0x00,0x00,0x00,0x00,0x00,0x00,0x00,0x00,0x00,0x00,0x00,0x00,0x00,0x00,0x00,0x00,0x00,0x00,0x00,0x00,0x00,0x80,0xff,0xff,0xc1,0xff,0xff,0x83,0x0f,0x00,0x00,0x00,0x00,0x00,0x00,0x00,0x00,0x00,0x00,0x00,0x00,0x00,0x00,0x00,0x00,0x00,0x00,0x00,0x00,0x00,0x00,0x00,0x00,0x00,0x00,0xf0,0xc1,0xff,0xff,0x83,0x0f,0x00,0x00,0x00,0x00,0x00,0x00,0x00,0x00,0x00,0x00,0x00,0x00,0x00,0x00,0x00,0x00,0x00,0x00,0x00,0x00,0x00,0x00,0x00,0x00,0x00,0x00,0xf0,0xc1,0xff,0xff,0x03,0x0e,0x00,0x00,0x00,0x00,0x00,0x00,0x00,0x00,0x00,0x00,0x00,0x00,0x00,0x00,0x00,0x00,0x00,0x00,0x00,0x00,0x00,0x00,0x00,0x00,0x00,0x00,0x70,0xc0,0xff,0xff,0xbd,0x0f,0x00,0x00,0x00,0x00,0x00,0x00,0x00,0x00,0x00,0x00,0x00,0x00,0x00,0x00,0x00,0x00,0x00,0x00,0x00,0x00,0x00,0x00,0x00,0x00,0x00,0x00,0xf0,0xbd,0xff,0xff,0xbd,0x0f,0x00,0x00,0x00,0x00,0x00,0x00,0x00,0x00,0x00,0x00,0x00,0x00,0x00,0x00,0x00,0x00,0x00,0x00,0x00,0x00,0x00,0x00,0x00,0x00,0x00,0x00,0xf0,0xbd,0xff,0xff,0xff,0x07,0x00,0x00,0x00,0x00,0x00,0x00,0x00,0x00,0x00,0x00,0x00,0x00,0x00,0x00,0x00,0x00,0x00,0x00,0x00,0x00,0x00,0x00,0x00,0x00,0x00,0x00,0xe0,0xff,0xff,0xff,0xff,0x03,0x00,0x00,0x00,0x00,0x00,0x00,0x00,0x00,0x00,0x00,0x00,0x00,0x00,0x00,0x00,0x00,0x00,0x00,0x00,0x00,0x00,0x00,0x00,0x00,0x00,0x00,0xc0,0xff,0xff,0x9f,0xff,0x01,0x00,0x00,0x00,0x00,0x00,0x00,0x00,0x00,0x00,0x00,0x00,0x00,0x00,0x00,0x00,0x00,0x00,0x00,0x00,0x00,0x00,0x00,0x00,0x00,0x00,0x00,0x80,0xff,0xf9,0x9f,0x03,0x80,0xff,0x01,0x00,0x00,0x80,0xff,0x01,0x00,0x00,0x00,0x00,0x00,0x00,0x00,0x00,0x00,0x00,0x00,0x00,0x80,0xff,0x01,0x00,0x00,0x80,0xff,0x01,0xc0,0xf9,0xff,0x03,0xc0,0xff,0x03,0x00,0x00,0xc0,0xff,0x03,0x00,0x00,0x00,0x00,0x00,0x00,0x00,0x00,0x00,0x00,0x00,0x00,0xc0,0xff,0x03,0x00,0x00,0xc0,0xff,0x03,0xc0,0xff,0xff,0x03,0xe0,0xff,0x07,0x00,0x00,0xe0,0xff,0x07,0x00,0x00,0x00,0x00,0x00,0x00,0x00,0x00,0x00,0x00,0x00,0x00,0xe0,0xff,0x07,0x00,0x00,0xe0,0xff,0x07,0xc0,0xff,0xff,0x01,0xf0,0xbd,0x0f,0x00,0x00,0xf0,0xbd,0x0f,0x00,0x00,0x00,0x00,0x00,0x00,0x00,0x00,0x00,0x00,0x00,0x00,0xf0,0xbd,0x0f,0x00,0x00,0xf0,0xbd,0x0f,0x80,0xff,0x1f,0xf8,0xf9,0xbd,0x1f,0x00,0x00,0xf0,0xbd,0x1f,0x00,0x00,0x00,0x00,0x00,0x00,0x00,0x00,0x00,0x00,0x00,0x00,0xf8,0xbd,0x0f,0x00,0x00,0xf8,0xbd,0x9f,0x1f,0xf8,0x1f,0xfc,0xff,0xc3,0x3f,0x00,0x00,0x70,0xc0,0x3f,0x00,0x00,0x00,0x00,0x00,0x00,0x00,0x00,0x00,0x00,0x00,0x00,0xfc,0x03,0x0e,0x00,0x00,0xfc,0xc3,0xff,0x3f,0xf8,0xe7,0xff,0xff,0xc3,0x7f,0x00,0x00,0x70,0xc0,0x7f,0x00,0x00,0x00,0x00,0x00,0x00,0x00,0x00,0x00,0x00,0x00,0x00,0xfe,0x03,0x0e,0x00,0x00,0xfe,0xc3,0xff,0xff,0xe7,0xff,0x9f,0xff,0xc3,0xff,0x00,0x00,0xf0,0xc1,0xff,0x00,0x00,0x00,0x00,0x00,0x00,0x00,0x00,0x00,0x00,0x00,0x00,0xff,0x83,0x0f,0x00,0x00,0xff,0xc3,0xff,0xf9,0xff,0xff,0x9f,0xff,0xc3,0xff,0x00,0x00,0xf0,0xc1,0xff,0x00,0x00,0x00,0x00,0x00,0x00,0x00,0x00,0x00,0x00,0x00,0x00,0xff,0x83,0x0f,0x00,0x00,0xff,0xc3,0xff,0xf9,0xff,0xfe,0x07,0xef,0x81,0xe7,0x00,0x00,0xe0,0x81,0xe7,0x00,0x00,0x00,0x00,0x00,0x00,0x00,0x00,0x00,0x00,0x00,0x00,0xe7,0x81,0x07,0x00,0x00,0xe7,0x81,0xf7,0xe0,0x7f,0xfc,0x1f,0x1f,0x00,0xf8,0x00,0x00,0x00,0x00,0xf8,0x00,0x00,0x00,0x00,0x00,0x00,0x00,0x00,0x00,0x00,0x00,0x00,0x1f,0x00,0x00,0x00,0x00,0x1f,0x00,0xf8,0xf8,0x3f,0xf8,0xbf,0x1f,0x00,0xf8,0x00,0x00,0x00,0x00,0xf8,0x00,0x00,0x00,0x00,0x00,0x00,0x00,0x00,0x00,0x00,0x00,0x00,0x1f,0x00,0x00,0x00,0x00,0x1f,0x00,0xf8,0xfd,0x1f,0xf0,0xbf,0xff,0x01,0xf8,0x00,0x00,0x00,0x80,0xff,0x00,0x00,0x00,0x00,0x00,0x00,0x00,0x00,0x00,0x00,0x00,0x00,0xff,0x01,0x00,0x00,0x00,0x1f,0x80,0xff,0xfd,0x0f,0xe0,0xff,0xff,0x03,0xf8,0x00,0x00,0x00,0xc0,0xff,0x00,0x00,0x00,0x00,0x00,0x00,0x00,0x00,0x00,0x00,0x00,0x00,0xff,0x03,0x00,0x00,0x00,0x1f,0xc0,0xff,0xff,0x07,0xc0,0xff,0xff,0x87,0xe7,0x00,0x00,0x00,0xc0,0xff,0x00,0x00,0x00,0x00,0x00,0x00,0x00,0x00,0x00,0x00,0x00,0x00,0xff,0x03,0x00,0x00,0x00,0xe7,0xe1,0xff,0xff,0x03,0x80,0xff,0xff,0xcf,0xff,0x00,0x00,0x00,0xc0,0xf9,0x00,0x00,0x00,0x00,0x00,0x00,0x00,0x00,0x00,0x00,0x00,0x00,0x9f,0x03,0x00,0x00,0x00,0xff,0xf3,0xff,0xff,0x01,0x00,0xff,0xff,0xcf,0xff,0x00,0x00,0x00,0xc0,0xf9,0x00,0x00,0x00,0x00,0x00,0x00,0x00,0x00,0x00,0x00,0x00,0x00,0x9f,0x03,0x00,0x00,0x00,0xff,0xf3,0xff,0xff,0x00,0x00,0xfe,0xff,0xcf,0x7f,0x00,0x00,0x00,0xc0,0xff,0x00,0x00,0x00,0x00,0x00,0x00,0x00,0x00,0x00,0x00,0x00,0x00,0xff,0x03,0x00,0x00,0x00,0xfe,0xf3,0xff,0x7f,0x00,0x00,0xfc,0xff,0xcf,0x3f,0x00,0x00,0x00,0xc0,0xff,0x00,0x00,0x00,0x00,0x00,0x00,0x00,0x00,0x00,0x00,0x00,0x00,0xff,0x03,0x00,0x00,0x00,0xfc,0xf3,0xff,0x3f,0x00,0x00,0xf8,0xff,0xbf,0x1f,0x00,0x00,0x00,0x80,0xff,0x00,0x00,0x00,0x00,0x00,0x00,0x00,0x00,0x00,0x00,0x00,0x00,0xff,0x01,0x00,0x00,0x00,0xf8,0xfd,0xff,0x1f,0x00,0x00,0xf0,0xff,0xff,0x0f,0xf8,0x1f,0x80,0x1f,0xf8,0x00,0x00,0x00,0x00,0x00,0x00,0x00,0x00,0x00,0x00,0x00,0x00,0x1f,0xf8,0x01,0xf8,0x1f,0xf0,0xff,0xff,0x0f,0x00,0x00,0xe0,0xff,0xff,0x07,0xfc,0x3f,0xc0,0x3f,0xf8,0x00,0x00,0x00,0x00,0x00,0x00,0x00,0x00,0x00,0x00,0x00,0x00,0x1f,0xfc,0x03,0xfc,0x3f,0xe0,0xff,0xff,0x07,0x00,0x00,0xc0,0xff,0xff,0x07,0xfe,0x7f,0xe0,0xff,0xe7,0x00,0x00,0x00,0x00,0x00,0x00,0x00,0x00,0x00,0x00,0x00,0x00,0xe7,0xff,0x07,0xfe,0x7f,0xe0,0xff,0xff,0x03,0x00,0x00,0x80,0xff,0xff,0x0f,0xdf,0xfb,0xf0,0xf9,0xff,0x00,0x00,0x00,0x00,0x00,0x00,0x00,0x00,0x00,0x00,0x00,0x00,0xff,0x9f,0x0f,0xdf,0xfb,0xf0,0xff,0xff,0x01,0x00,0x00,0x00,0xff,0x9f,0x0f,0xdf,0xfb,0xf0,0xf9,0xff,0x00,0x00,0x00,0x00,0x00,0x00,0x00,0x00,0x00,0x00,0x00,0x00,0xff,0x9f,0x0f,0xdf,0xfb,0xf0,0xf9,0xff,0x00,0x00,0x00,0x00,0xfe,0x07,0x0e,0x07,0xe0,0x70,0xe0,0x7f,0x00,0x00,0x00,0x00,0x00,0x00,0x00,0x00,0x00,0x00,0x00,0x00,0xfe,0x07,0x0e,0x07,0xe0,0x70,0xe0,0x7f,0x00,0x00,0x00,0x00,0xfc,0x1f,0x0e,0x1f,0xf8,0x70,0xf8,0x3f,0x00,0x00,0x00,0x00,0x00,0x00,0x00,0x00,0x00,0x00,0x00,0x00,0xfc,0x1f,0x0e,0x1f,0xf8,0x70,0xf8,0x3f,0x00,0x00,0x00,0x00,0xf8,0xbf,0x0f,0x1f,0xf8,0xf0,0xfd,0x1f,0x00,0x00,0x00,0x00,0x00,0x00,0x00,0x00,0x00,0x00,0x00,0x00,0xf8,0xbf,0x0f,0x1f,0xf8,0xf0,0xfd,0x1f,0x00,0x00,0x00,0x00,0xf0,0xbf,0x0f,0x1f,0xf8,0xf0,0xfd,0x0f,0x00,0x00,0x00,0x00,0x00,0x00,0x00,0x00,0x00,0x00,0x00,0x00,0xf0,0xbf,0x0f,0x1f,0xf8,0xf0,0xfd,0x0f,0x00,0x00,0x00,0x00,0xe0,0xff,0x07,0x1f,0xf8,0xe0,0xff,0x07,0x00,0x00,0x00,0x00,0x00,0x00,0x00,0x00,0x00,0x00,0x00,0x00,0xe0,0xff,0x07,0x1f,0xf8,0xe0,0xff,0x07,0x00,0x00,0x00,0x00,0xc0,0xff,0xe3,0xe7,0xe7,0xc7,0xff,0x03,0x00,0x00,0x00,0x00,0x00,0x00,0x00,0x00,0x00,0x00,0x00,0x00,0xc0,0xff,0xe3,0xe7,0xe7,0xc7,0xff,0x03,0x00,0x00,0x00,0x00,0x80,0xff,0xf3,0xff,0xff,0xcf,0xff,0x01,0x00,0x00,0x00,0x00,0x00,0x00,0x00,0x00,0x00,0x00,0x00,0x00,0x80,0xff,0xf3,0xff,0xff,0xcf,0xff,0x01,0x00,0x00,0x00,0x00,0x00,0xff,0xf3,0xff,0xff,0xcf,0xff,0x00,0x00,0x00,0x00,0x00,0x00,0x00,0x00,0x00,0x00,0x00,0x00,0x00,0x00,0xff,0xf3,0xff,0xff,0xcf,0xff,0x00,0x00,0x00,0x00,0x00,0x00,0xfe,0x73,0xfe,0x7f,0xce,0x7f,0x00,0x00,0x00,0x00,0x00,0x00,0x00,0x00,0x00,0x00,0x00,0x00,0x00,0x00,0xfe,0x73,0xfe,0x7f,0xce,0x7f,0x00,0x00,0x00,0x00,0x00,0x00,0xfc,0x73,0xfe,0x7f,0xce,0x3f,0x00,0x00,0x00,0x00,0x00,0x00,0x00,0x00,0x00,0x00,0x00,0x00,0x00,0x00,0xfc,0x73,0xfe,0x7f,0xce,0x3f,0x00,0x00,0x00,0x00,0x00,0x00,0xf8,0xfd,0xff,0xff,0xbf,0x1f,0x00,0x00,0x00,0x00,0x00,0x00,0x00,0x00,0x00,0x00,0x00,0x00,0x00,0x00,0xf8,0xfd,0xff,0xff,0xbf,0x1f,0x00,0x00,0x00,0x00,0x00,0x00,0xf0,0xfd,0xff,0xff,0xbf,0x0f,0x00,0x00,0x00,0x00,0x00,0x00,0x00,0x00,0x00,0x00,0x00,0x00,0x00,0x00,0xf0,0xfd,0xff,0xff,0xbf,0x0f,0x00,0x00,0x00,0x00,0x00,0x00,0xe0,0xff,0xff,0xff,0xff,0x07,0x00,0x00,0x00,0x00,0x00,0x00,0x00,0x00,0x00,0x00,0x00,0x00,0x00,0x00,0xe0,0xff,0xff,0xff,0xff,0x07,0x00,0x00,0x00,0x00,0x00,0x00,0xc0,0xff,0xff,0xff,0xff,0x03,0x00,0x00,0x00,0x00,0x00,0x00,0x00,0x00,0x00,0x00,0x00,0x00,0x00,0x00,0xc0,0xff,0xff,0xff,0xff,0x03,0x00,0x00,0x00,0x00,0x00,0x00,0x80,0xff,0xff,0xff,0xff,0x01,0x00,0x00,0x00,0x00,0x00,0x00,0x00,0x00,0x00,0x00,0x00,0x00,0x00,0x00,0x80,0xff,0xff,0xff,0xff,0x01,0x00,0x00,0x00,0x00,0x00,0x00,0x00,0x00,0x00,0x00,0x00,0x00,0x00,0x00,0x00,0x00,0x00,0x00,0x00,0x00,0x00,0x00,0x00,0x00,0x00,0x00,0x00,0x00,0x00,0x00,0x00,0x00,0x00,0x00,0x00,0x00,0x00,0x00,0x00,0x00,0x00,0x00,0x00,0x00,0x00,0x00,0x00,0x00,0x00,0x00,0x00,0x00,0x00,0x00,0x00,0x00,0x00,0x00,0x00,0x00,0x00,0x00,0x00,0x00,0x00,0x00,0x00,0x00,0x00,0x00,0x00,0x00,0x00,0x00,0x00,0x00,0x00,0x00,0x00,0x00,0x00,0x00,0x00,0x00,0x00,0x00,0x00,0x00,0x00,0x00,0x00,0x00,0x00,0x00,0x00,0x00,0x00,0x00,0x00,0x00,0x00,0x00,0x00,0x00,0x00,0x00,0x00,0x00,0x00,0x00,0x00,0x00,0x00,0x00,0x00,0x00,0x00,0x00,0x00,0x00,0x00,0x00,0x00,0x00,0x00,0x00,0x00,0x00,0x00,0x00,0x00,0x00,0x00,0x00,0x00,0x00,0x00,0x00,0x00,0x00,0x00,0x00,0x00,0x00,0x00,0x00,0x00,0x00,0x00,0x00,0x00,0x00,0x00,0x00,0x00,0x00,0x00,0x00,0x00,0x00,0x00,0x00,0x00,0x00,0x00,0x00,0x00,0x00,0x00,0x00,0x00,0x00,0x00,0x00,0x00,0x00,0x00,0x00,0x00,0x00,0x00,0x00,0x00,0x00,0x00,0x00,0x00,0x00,0x00,0x00,0x00,0x00,0x00,0x00,0x00,0x00,0x00,0x00,0x00,0x00,0x00,0x00,0x00,0x00,0x00,0x00,0x00,0x00,0x00,0x00,0x00,0x00,0x00,0x00,0x00,0x00,0x00,0x00,0x00,0x00,0x00,0x00,0x00,0x00,0x00,0x00,0x00,0x00,0x00,0x00,0x00,0x00,0x00,0x00,0x00,0x00,0x00,0x00,0x00,0x00,0x00,0x00,0x00,0x00,0x00,0x00,0x00,0x00,0x00,0x00,0x00,0x00,0x00,0x00,0x00,0x00,0x00,0x00,0x00,0x00,0x00,0x00,0x00,0x00,0x00,0x00,0x00,0x00,0x00,0x00,0x00,0x00,0x00,0x00,0x00,0x00,0x00,0x00,0x00,0x00,0x00,0x00,0x00,0x00,0x00,0x00,0x00,0x00,0x00,0x00,0x00,0x00,0x00,0x00,0x00,0x00,0x00,0x00,0x00,0x00,0x00,0x00,0x00,0x00,0x00,0x00,0x00,0x00,0x00,0x00,0x00,0x00,0x00,0x00,0x00,0x00,0x00,0x00,0x00,0x00,0x00,0x00,0x00,0x00,0x00,0x00,0x00,0x00,0x00,0x00,0x00,0x00,0x00,0x00,0x00,0x00,0x00,0x00,0x00,0x00,0x00,0x00,0x00,0x00,0x00,0x00,0x00,0x00,0x00,0x00,0x00,0x00,0x00,0x00,0x00,0x00,0x00,0x00,0x00,0x00,0x00,0x00,0x00,0x00,0x00,0x00,0x00,0x00,0x00,0x00,0x00,0x00,0x00,0x00,0x00,0x00,0x00,0x00,0x00,0x00,0x00,0x00,0x00,0x00,0x00,0x00,0x00,0x00,0x00,0x00,0x00,0x00,0x00,0x00,0x00,0x00,0x00,0x00,0x00,0x00,0x00,0x00,0x00,0x00,0x00,0x00,0x00,0x00,0x00,0x00,0x00,0x00,0x00,0x00,0x00,0x00,0x00,0x00,0x00,0x00,0x00,0x00,0x00,0x00,0x00,0x00,0x00,0x00,0x00,0x00,0x00,0x00,0x00,0x00,0x00,0x00,0x00,0x00,0x00,0x00,0x00,0x00,0x00,0x00,0x00,0x00,0x00,0x00,0x00,0x00,0x00,0x00,0x00,0x00,0x00,0x00,0x00,0x00,0x00,0x00,0x00,0x00,0x00,0x00,0x00,0x00,0x00,0x00,0x00,0x00,0x00,0x00,0x00,0x00,0x00,0x00,0x00,0x00,0x00,0x00,0x00,0x00,0x00,0x00,0x00,0x00,0x00,0x00,0x00,0x00,0x00,0x00,0x00,0x00,0x00,0x00,0x00,0x00,0x00,0x00,0x00,0x00,0x00,0x00,0x00,0x00,0x00,0x00,0x00,0x00,0x00,0x00,0x00,0x00,0x00,0x00,0x00,0x00,0x00,0x00,0x00,0x00,0x00,0x00,0x00,0x00,0x00,0x00,0x00,0x00,0x00,0x00,0x00,0x00,0x00,0x00,0x00,0x00,0x00,0x00,0x00,0x00,0x00,0x00,0x00,0x00,0x00,0x00,0x00,0x00,0x00,0x00,0x00,0x00,0x00,0x00,0x00,0x00,0x00,0x00,0x00,0x00,0x00,0x00,0x00,0x00,0x00,0x00,0x00,0x00,0x00,0x00,0x00,0x00,0x00,0x00,0x00,0x00,0x00,0x00,0x00,0x00,0x00,0x00,0x00,0x00,0x00,0x00,0x00,0x00,0x00,0x00,0x00,0x00,0x00,0x00,0x00,0x00,0x00,0x00,0x00,0x00,0x00,0x00,0x00,0x00,0x00,0x00,0x00,0x00,0x00,0x00,0x00,0x00,0x00,0x00,0x00,0x00,0x00,0x00,0x00,0x00,0x00,0x00,0x00,0x00,0x00,0x00,0x00,0x00,0x00,0x00,0x00,0x00,0x00,0x00,0x00,0x00,0x00,0x00,0x00,0x00,0x00,0x00,0x00,0x00,0x00,0x00,0x00,0x00,0x00,0x00,0x00,0x00,0x00,0x00,0x00,0x00,0x00,0x00,0x00,0x00,0x00,0x00,0x00,0x00,0x00,0x00,0x00,0x00,0x00,0x00,0x00,0x00,0x00,0x00,0x00,0x00,0x00,0x00,0x00,0x00,0x00,0x00,0x00,0x00,0x00,0x00,0x00,0x00,0x00,0x00,0x00,0x00,0x00,0x00,0x00,0x00,0x00,0x00,0x00,0x00,0x00,0x00,0x00,0x00,0x00,0x00,0x00,0x00,0x00,0x00,0x00,0x00,0x00,0x00,0x00,0x00,0x00,0x00,0x00,0x00,0x00,0x00,0x00,0x00,0x00,0x00,0x00,0x00,0x00,0x00,0x00,0x00,0x00,0x00,0x00,0x00,0x00,0x00,0x00,0x00,0x00,0x00,0x00,0x00,0x00,0x00,0x00,0x00,0x00,0x00,0x00,0x00,0x00,0x00,0x00,0x00,0x00,0x00,0x00,0x00,0x00,0x00,0x00,0x00,0x00,0x00,0x00,0x00,0x00,0x00,0x00,0x00,0x00,0x00,0x00,0x00,0x00,0x00,0x00,0x00,0x00,0x00,0x00,0x00,0x00,0x00,0x00,0x00,0x00,0x00,0x00,0x00,0x00,0x00,0x00,0x00,0x00,0x00,0x00,0x00,0x00,0x00,0x00,0x00,0x00,0x00,0x00,0x00,0x00,0x00,0x00,0x00,0x00,0x00,0x00,0x00,0x00,0x00,0x00,0x00,0x00,0x00,0x00,0x00,0x00,0x00,0x00,0x00,0x00,0x00,0x00,0x00,0x00,0x00,0x00,0x00,0x00,0x00,0x00,0x00,0x00,0x00,0x00,0x00,0x00,0x00,0x00,0x00,0x00,0x00,0x00,0x00,0x00,0x00,0x00,0x00,0x00,0x00,0x00,0x00,0x00,0x00,0x00,0x00,0x00,0x00,0x00,0x00,0x00,0x00,0x00,0x00,0x00,0x00,0x00,0x00,0x00,0x00,0x00,0x00,0x00,0x00,0x00,0x00,0x00,0x00,0x00,0x00,0x00,0x00,0x00,0x00,0x00,0x00,0x00,0x00,0x00,0x00,0x00,0x00,0x00,0x00,0x00,0x00,0x00,0x00,0x00,0x00,0x00,0x00,0x00,0x00,0x00,0x00,0x00,0x00,0x00,0x00,0x00,0x00,0x00,0x00,0x00,0x00,0x00,0x00,0x00,0x00,0x00,0x00,0x00,0x00,0x00,0x00,0x00,0x00,0x00,0x00,0x00,0x00,0x00,0x00,0x00,0x00,0x00,0x00,0x00,0x00,0x00,0x00,0x00,0x00,0x00,0x00,0x00,0x00,0x00,0x00,0x00,0x00,0x00,0x00,0x00,0x00,0x00,0x00,0x00,0x00,0x00,0x00,0x00,0x00,0x00,0x00,0x00,0x00,0x00,0x00,0x00,0x00,0x00,0x00,0x00,0x00,0x00,0x00,0x00,0x00,0x00,0x00,0x00,0x00,0x00,0x00,0x00,0x00,0x00,0x00,0x00,0x00,0x00,0x00,0x00,0x00,0x00,0x00,0x00,0x00,0x00,0x00,0x00,0x00,0x00,0x00,0x00,0x00,0x00,0x00,0x00,0x00,0x00,0x00,0x00,0x00,0x00};
