#define x_width 256
#define x_height 256
static char x_bits[] = {
0x00,0x00,0x00,0x00,0x00,0x00,0x00,0x00,0x00,0x00,0x00,0x00,0x00,0x00,0x00,0x80,0x01,0x00,0x00,0x00,0x00,0x00,0x00,0x00,0x00,0x00,0x00,0x00,0x00,0x00,0x00,0x00,0x00,0x00,0x00,0x00,0x00,0x00,0x00,0x00,0x00,0x00,0x00,0x00,0x00,0x00,0x00,0x80,0x01,0x00,0x00,0x00,0x00,0x00,0x00,0x00,0x00,0x00,0x00,0x00,0x00,0x00,0x00,0x00,0x00,0x00,0x00,0x00,0x00,0x00,0x00,0x00,0x00,0x00,0x00,0x00,0x00,0x00,0x00,0xc0,0x03,0x00,0x00,0x00,0x00,0x00,0x00,0x00,0x00,0x00,0x00,0x00,0x00,0x00,0x00,0x00,0x00,0x00,0x00,0x00,0x00,0x00,0x00,0x00,0x00,0x00,0x00,0x00,0x00,0x00,0x00,0xc0,0x03,0x00,0x00,0x00,0x00,0x00,0x00,0x00,0x00,0x00,0x00,0x00,0x00,0x00,0x00,0x00,0x00,0x00,0x00,0x00,0x00,0x00,0x00,0x00,0x00,0x00,0x00,0x00,0x00,0x00,0x00,0xe0,0x07,0x00,0x00,0x00,0x00,0x00,0x00,0x00,0x00,0x00,0x00,0x00,0x00,0x00,0x00,0x00,0x00,0x00,0x00,0x00,0x00,0x00,0x00,0x00,0x00,0x00,0x00,0x00,0x00,0x00,0x00,0xe0,0x07,0x00,0x00,0x00,0x00,0x00,0x00,0x00,0x00,0x00,0x00,0x00,0x00,0x00,0x00,0x00,0x00,0x00,0x00,0x00,0x00,0x00,0x00,0x00,0x00,0x00,0x00,0x00,0x00,0x00,0x00,0xf0,0x0f,0x00,0x00,0x00,0x00,0x00,0x00,0x00,0x00,0x00,0x00,0x00,0x00,0x00,0x00,0x00,0x00,0x00,0x00,0x00,0x00,0x00,0x00,0x00,0x00,0x00,0x00,0x00,0x00,0x00,0x00,0xf0,0x0f,0x00,0x00,0x00,0x00,0x00,0x00,0x00,0x00,0x00,0x00,0x00,0x00,0x00,0x00,0x00,0x00,0x00,0x00,0x00,0x00,0x00,0x00,0x00,0x00,0x00,0x00,0x00,0x00,0x00,0x00,0x98,0x19,0x00,0x00,0x00,0x00,0x00,0x00,0x00,0x00,0x00,0x00,0x00,0x00,0x00,0x00,0x00,0x00,0x00,0x00,0x00,0x00,0x00,0x00,0x00,0x00,0x00,0x00,0x00,0x00,0x00,0x00,0x98,0x19,0x00,0x00,0x00,0x00,0x00,0x00,0x00,0x00,0x00,0x00,0x00,0x00,0x00,0x00,0x00,0x00,0x00,0x00,0x00,0x00,0x00,0x00,0x00,0x00,0x00,0x00,0x00,0x00,0x00,0x00,0xfc,0x3f,0x00,0x00,0x00,0x00,0x00,0x00,0x00,0x00,0x00,0x00,0x00,0x00,0x00,0x00,0x00,0x00,0x00,0x00,0x00,0x00,0x00,0x00,0x00,0x00,0x00,0x00,0x00,0x00,0x00,0x00,0xfc,0x3f,0x00,0x00,0x00,0x00,0x00,0x00,0x00,0x00,0x00,0x00,0x00,0x00,0x00,0x00,0x00,0x00,0x00,0x00,0x00,0x00,0x00,0x00,0x00,0x00,0x00,0x00,0x00,0x00,0x00,0x00,0x7e,0x7e,0x00,0x00,0x00,0x00,0x00,0x00,0x00,0x00,0x00,0x00,0x00,0x00,0x00,0x00,0x00,0x00,0x00,0x00,0x00,0x00,0x00,0x00,0x00,0x00,0x00,0x00,0x00,0x00,0x00,0x00,0x7e,0x7e,0x00,0x00,0x00,0x00,0x00,0x00,0x00,0x00,0x00,0x00,0x00,0x00,0x00,0x00,0x00,0x00,0x00,0x00,0x00,0x00,0x00,0x00,0x00,0x00,0x00,0x00,0x00,0x00,0x00,0x00,0xff,0xff,0x00,0x00,0x00,0x00,0x00,0x00,0x00,0x00,0x00,0x00,0x00,0x00,0x00,0x00,0x00,0x00,0x00,0x00,0x00,0x00,0x00,0x00,0x00,0x00,0x00,0x00,0x00,0x00,0x00,0x00,0xff,0xff,0x00,0x00,0x00,0x00,0x00,0x00,0x00,0x00,0x00,0x00,0x00,0x00,0x00,0x00,0x00,0x00,0x00,0x00,0x00,0x00,0x00,0x00,0x00,0x00,0x00,0x00,0x00,0x00,0x00,0x80,0x81,0x81,0x01,0x00,0x00,0x00,0x00,0x00,0x00,0x00,0x00,0x00,0x00,0x00,0x00,0x00,0x00,0x00,0x00,0x00,0x00,0x00,0x00,0x00,0x00,0x00,0x00,0x00,0x00,0x00,0x00,0x80,0x81,0x81,0x01,0x00,0x00,0x00,0x00,0x00,0x00,0x00,0x00,0x00,0x00,0x00,0x00,0x00,0x00,0x00,0x00,0x00,0x00,0x00,0x00,0x00,0x00,0x00,0x00,0x00,0x00,0x00,0x00,0xc0,0xc3,0xc3,0x03,0x00,0x00,0x00,0x00,0x00,0x00,0x00,0x00,0x00,0x00,0x00,0x00,0x00,0x00,0x00,0x00,0x00,0x00,0x00,0x00,0x00,0x00,0x00,0x00,0x00,0x00,0x00,0x00,0xc0,0xc3,0xc3,0x03,0x00,0x00,0x00,0x00,0x00,0x00,0x00,0x00,0x00,0x00,0x00,0x00,0x00,0x00,0x00,0x00,0x00,0x00,0x00,0x00,0x00,0x00,0x00,0x00,0x00,0x00,0x00,0x00,0xe0,0xe7,0xe7,0x07,0x00,0x00,0x00,0x00,0x00,0x00,0x00,0x00,0x00,0x00,0x00,0x00,0x00,0x00,0x00,0x00,0x00,0x00,0x00,0x00,0x00,0x00,0x00,0x00,0x00,0x00,0x00,0x00,0xe0,0xe7,0xe7,0x07,0x00,0x00,0x00,0x00,0x00,0x00,0x00,0x00,0x00,0x00,0x00,0x00,0x00,0x00,0x00,0x00,0x00,0x00,0x00,0x00,0x00,0x00,0x00,0x00,0x00,0x00,0x00,0x00,0xf0,0xff,0xff,0x0f,0x00,0x00,0x00,0x00,0x00,0x00,0x00,0x00,0x00,0x00,0x00,0x00,0x00,0x00,0x00,0x00,0x00,0x00,0x00,0x00,0x00,0x00,0x00,0x00,0x00,0x00,0x00,0x00,0xf0,0xff,0xff,0x0f,0x00,0x00,0x00,0x00,0x00,0x00,0x00,0x00,0x00,0x00,0x00,0x00,0x00,0x00,0x00,0x00,0x00,0x00,0x00,0x00,0x00,0x00,0x00,0x00,0x00,0x00,0x00,0x00,0x98,0x19,0x98,0x19,0x00,0x00,0x00,0x00,0x00,0x00,0x00,0x00,0x00,0x00,0x00,0x00,0x00,0x00,0x00,0x00,0x00,0x00,0x00,0x00,0x00,0x00,0x00,0x00,0x00,0x00,0x00,0x00,0x98,0x19,0x98,0x19,0x00,0x00,0x00,0x00,0x00,0x00,0x00,0x00,0x00,0x00,0x00,0x00,0x00,0x00,0x00,0x00,0x00,0x00,0x00,0x00,0x00,0x00,0x00,0x00,0x00,0x00,0x00,0x00,0xfc,0x3f,0xfc,0x3f,0x00,0x00,0x00,0x00,0x00,0x00,0x00,0x00,0x00,0x00,0x00,0x00,0x00,0x00,0x00,0x00,0x00,0x00,0x00,0x00,0x00,0x00,0x00,0x00,0x00,0x00,0x00,0x00,0xfc,0x3f,0xfc,0x3f,0x00,0x00,0x00,0x00,0x00,0x00,0x00,0x00,0x00,0x00,0x00,0x00,0x00,0x00,0x00,0x00,0x00,0x00,0x00,0x00,0x00,0x00,0x00,0x00,0x00,0x00,0x00,0x00,0x7e,0x7e,0x7e,0x7e,0x00,0x00,0x00,0x00,0x00,0x00,0x00,0x00,0x00,0x00,0x00,0x00,0x00,0x00,0x00,0x00,0x00,0x00,0x00,0x00,0x00,0x00,0x00,0x00,0x00,0x00,0x00,0x00,0x7e,0x7e,0x7e,0x7e,0x00,0x00,0x00,0x00,0x00,0x00,0x00,0x00,0x00,0x00,0x00,0x00,0x00,0x00,0x00,0x00,0x00,0x00,0x00,0x00,0x00,0x00,0x00,0x00,0x00,0x00,0x00,0x00,0xff,0xff,0xff,0xff,0x00,0x00,0x00,0x00,0x00,0x00,0x00,0x00,0x00,0x00,0x00,0x00,0x00,0x00,0x00,0x00,0x00,0x00,0x00,0x00,0x00,0x00,0x00,0x00,0x00,0x00,0x00,0x00,0xff,0xff,0xff,0xff,0x00,0x00,0x00,0x00,0x00,0x00,0x00,0x00,0x00,0x00,0x00,0x00,0x00,0x00,0x00,0x00,0x00,0x00,0x00,0x00,0x00,0x00,0x00,0x00,0x00,0x00,0x00,0x80,0x01,0x80,0x01,0x80,0x01,0x00,0x00,0x00,0x00,0x00,0x00,0x00,0x00,0x00,0x00,0x00,0x00,0x00,0x00,0x00,0x00,0x00,0x00,0x00,0x00,0x00,0x00,0x00,0x00,0x00,0x00,0x80,0x01,0x80,0x01,0x80,0x01,0x00,0x00,0x00,0x00,0x00,0x00,0x00,0x00,0x00,0x00,0x00,0x00,0x00,0x00,0x00,0x00,0x00,0x00,0x00,0x00,0x00,0x00,0x00,0x00,0x00,0x00,0xc0,0x03,0xc0,0x03,0xc0,0x03,0x00,0x00,0x00,0x00,0x00,0x00,0x00,0x00,0x00,0x00,0x00,0x00,0x00,0x00,0x00,0x00,0x00,0x00,0x00,0x00,0x00,0x00,0x00,0x00,0x00,0x00,0xc0,0x03,0xc0,0x03,0xc0,0x03,0x00,0x00,0x00,0x00,0x00,0x00,0x00,0x00,0x00,0x00,0x00,0x00,0x00,0x00,0x00,0x00,0x00,0x00,0x00,0x00,0x00,0x00,0x00,0x00,0x00,0x00,0xe0,0x07,0xe0,0x07,0xe0,0x07,0x00,0x00,0x00,0x00,0x00,0x00,0x00,0x00,0x00,0x00,0x00,0x00,0x00,0x00,0x00,0x00,0x00,0x00,0x00,0x00,0x00,0x00,0x00,0x00,0x00,0x00,0xe0,0x07,0xe0,0x07,0xe0,0x07,0x00,0x00,0x00,0x00,0x00,0x00,0x00,0x00,0x00,0x00,0x00,0x00,0x00,0x00,0x00,0x00,0x00,0x00,0x00,0x00,0x00,0x00,0x00,0x00,0x00,0x00,0xf0,0x0f,0xf0,0x0f,0xf0,0x0f,0x00,0x00,0x00,0x00,0x00,0x00,0x00,0x00,0x00,0x00,0x00,0x00,0x00,0x00,0x00,0x00,0x00,0x00,0x00,0x00,0x00,0x00,0x00,0x00,0x00,0x00,0xf0,0x0f,0xf0,0x0f,0xf0,0x0f,0x00,0x00,0x00,0x00,0x00,0x00,0x00,0x00,0x00,0x00,0x00,0x00,0x00,0x00,0x00,0x00,0x00,0x00,0x00,0x00,0x00,0x00,0x00,0x00,0x00,0x00,0x98,0x19,0x98,0x19,0x98,0x19,0x00,0x00,0x00,0x00,0x00,0x00,0x00,0x00,0x00,0x00,0x00,0x00,0x00,0x00,0x00,0x00,0x00,0x00,0x00,0x00,0x00,0x00,0x00,0x00,0x00,0x00,0x98,0x19,0x98,0x19,0x98,0x19,0x00,0x00,0x00,0x00,0x00,0x00,0x00,0x00,0x00,0x00,0x00,0x00,0x00,0x00,0x00,0x00,0x00,0x00,0x00,0x00,0x00,0x00,0x00,0x00,0x00,0x00,0xfc,0x3f,0xfc,0x3f,0xfc,0x3f,0x00,0x00,0x00,0x00,0x00,0x00,0x00,0x00,0x00,0x00,0x00,0x00,0x00,0x00,0x00,0x00,0x00,0x00,0x00,0x00,0x00,0x00,0x00,0x00,0x00,0x00,0xfc,0x3f,0xfc,0x3f,0xfc,0x3f,0x00,0x00,0x00,0x00,0x00,0x00,0x00,0x00,0x00,0x00,0x00,0x00,0x00,0x00,0x00,0x00,0x00,0x00,0x00,0x00,0x00,0x00,0x00,0x00,0x00,0x00,0x7e,0x7e,0x7e,0x7e,0x7e,0x7e,0x00,0x00,0x00,0x00,0x00,0x00,0x00,0x00,0x00,0x00,0x00,0x00,0x00,0x00,0x00,0x00,0x00,0x00,0x00,0x00,0x00,0x00,0x00,0x00,0x00,0x00,0x7e,0x7e,0x7e,0x7e,0x7e,0x7e,0x00,0x00,0x00,0x00,0x00,0x00,0x00,0x00,0x00,0x00,0x00,0x00,0x00,0x00,0x00,0x00,0x00,0x00,0x00,0x00,0x00,0x00,0x00,0x00,0x00,0x00,0xff,0xff,0xff,0xff,0xff,0xff,0x00,0x00,0x00,0x00,0x00,0x00,0x00,0x00,0x00,0x00,0x00,0x00,0x00,0x00,0x00,0x00,0x00,0x00,0x00,0x00,0x00,0x00,0x00,0x00,0x00,0x00,0xff,0xff,0xff,0xff,0xff,0xff,0x00,0x00,0x00,0x00,0x00,0x00,0x00,0x00,0x00,0x00,0x00,0x00,0x00,0x00,0x00,0x00,0x00,0x00,0x00,0x00,0x00,0x00,0x00,0x00,0x00,0x80,0x81,0x81,0x01,0x80,0x81,0x81,0x01,0x00,0x00,0x00,0x00,0x00,0x00,0x00,0x00,0x00,0x00,0x00,0x00,0x00,0x00,0x00,0x00,0x00,0x00,0x00,0x00,0x00,0x00,0x00,0x00,0x80,0x81,0x81,0x01,0x80,0x81,0x81,0x01,0x00,0x00,0x00,0x00,0x00,0x00,0x00,0x00,0x00,0x00,0x00,0x00,0x00,0x00,0x00,0x00,0x00,0x00,0x00,0x00,0x00,0x00,0x00,0x00,0xc0,0xc3,0xc3,0x03,0xc0,0xc3,0xc3,0x03,0x00,0x00,0x00,0x00,0x00,0x00,0x00,0x00,0x00,0x00,0x00,0x00,0x00,0x00,0x00,0x00,0x00,0x00,0x00,0x00,0x00,0x00,0x00,0x00,0xc0,0xc3,0xc3,0x03,0xc0,0xc3,0xc3,0x03,0x00,0x00,0x00,0x00,0x00,0x00,0x00,0x00,0x00,0x00,0x00,0x00,0x00,0x00,0x00,0x00,0x00,0x00,0x00,0x00,0x00,0x00,0x00,0x00,0xe0,0xe7,0xe7,0x07,0xe0,0xe7,0xe7,0x07,0x00,0x00,0x00,0x00,0x00,0x00,0x00,0x00,0x00,0x00,0x00,0x00,0x00,0x00,0x00,0x00,0x00,0x00,0x00,0x00,0x00,0x00,0x00,0x00,0xe0,0xe7,0xe7,0x07,0xe0,0xe7,0xe7,0x07,0x00,0x00,0x00,0x00,0x00,0x00,0x00,0x00,0x00,0x00,0x00,0x00,0x00,0x00,0x00,0x00,0x00,0x00,0x00,0x00,0x00,0x00,0x00,0x00,0xf0,0xff,0xff,0x0f,0xf0,0xff,0xff,0x0f,0x00,0x00,0x00,0x00,0x00,0x00,0x00,0x00,0x00,0x00,0x00,0x00,0x00,0x00,0x00,0x00,0x00,0x00,0x00,0x00,0x00,0x00,0x00,0x00,0xf0,0xff,0xff,0x0f,0xf0,0xff,0xff,0x0f,0x00,0x00,0x00,0x00,0x00,0x00,0x00,0x00,0x00,0x00,0x00,0x00,0x00,0x00,0x00,0x00,0x00,0x00,0x00,0x00,0x00,0x00,0x00,0x00,0x98,0x19,0x98,0x19,0x98,0x19,0x98,0x19,0x00,0x00,0x00,0x00,0x00,0x00,0x00,0x00,0x00,0x00,0x00,0x00,0x00,0x00,0x00,0x00,0x00,0x00,0x00,0x00,0x00,0x00,0x00,0x00,0x98,0x19,0x98,0x19,0x98,0x19,0x98,0x19,0x00,0x00,0x00,0x00,0x00,0x00,0x00,0x00,0x00,0x00,0x00,0x00,0x00,0x00,0x00,0x00,0x00,0x00,0x00,0x00,0x00,0x00,0x00,0x00,0xfc,0x3f,0xfc,0x3f,0xfc,0x3f,0xfc,0x3f,0x00,0x00,0x00,0x00,0x00,0x00,0x00,0x00,0x00,0x00,0x00,0x00,0x00,0x00,0x00,0x00,0x00,0x00,0x00,0x00,0x00,0x00,0x00,0x00,0xfc,0x3f,0xfc,0x3f,0xfc,0x3f,0xfc,0x3f,0x00,0x00,0x00,0x00,0x00,0x00,0x00,0x00,0x00,0x00,0x00,0x00,0x00,0x00,0x00,0x00,0x00,0x00,0x00,0x00,0x00,0x00,0x00,0x00,0x7e,0x7e,0x7e,0x7e,0x7e,0x7e,0x7e,0x7e,0x00,0x00,0x00,0x00,0x00,0x00,0x00,0x00,0x00,0x00,0x00,0x00,0x00,0x00,0x00,0x00,0x00,0x00,0x00,0x00,0x00,0x00,0x00,0x00,0x7e,0x7e,0x7e,0x7e,0x7e,0x7e,0x7e,0x7e,0x00,0x00,0x00,0x00,0x00,0x00,0x00,0x00,0x00,0x00,0x00,0x00,0x00,0x00,0x00,0x00,0x00,0x00,0x00,0x00,0x00,0x00,0x00,0x00,0xff,0xff,0xff,0xff,0xff,0xff,0xff,0xff,0x00,0x00,0x00,0x00,0x00,0x00,0x00,0x00,0x00,0x00,0x00,0x00,0x00,0x00,0x00,0x00,0x00,0x00,0x00,0x00,0x00,0x00,0x00,0x00,0xff,0xff,0xff,0xff,0xff,0xff,0xff,0xff,0x00,0x00,0x00,0x00,0x00,0x00,0x00,0x00,0x00,0x00,0x00,0x00,0x00,0x00,0x00,0x00,0x00,0x00,0x00,0x00,0x00,0x00,0x00,0x80,0x01,0x00,0x00,0x80,0x01,0x00,0x00,0x80,0x01,0x00,0x00,0x00,0x00,0x00,0x00,0x00,0x00,0x00,0x00,0x00,0x00,0x00,0x00,0x00,0x00,0x00,0x00,0x00,0x00,0x00,0x00,0x80,0x01,0x00,0x00,0x80,0x01,0x00,0x00,0x80,0x01,0x00,0x00,0x00,0x00,0x00,0x00,0x00,0x00,0x00,0x00,0x00,0x00,0x00,0x00,0x00,0x00,0x00,0x00,0x00,0x00,0x00,0x00,0xc0,0x03,0x00,0x00,0xc0,0x03,0x00,0x00,0xc0,0x03,0x00,0x00,0x00,0x00,0x00,0x00,0x00,0x00,0x00,0x00,0x00,0x00,0x00,0x00,0x00,0x00,0x00,0x00,0x00,0x00,0x00,0x00,0xc0,0x03,0x00,0x00,0xc0,0x03,0x00,0x00,0xc0,0x03,0x00,0x00,0x00,0x00,0x00,0x00,0x00,0x00,0x00,0x00,0x00,0x00,0x00,0x00,0x00,0x00,0x00,0x00,0x00,0x00,0x00,0x00,0xe0,0x07,0x00,0x00,0xe0,0x07,0x00,0x00,0xe0,0x07,0x00,0x00,0x00,0x00,0x00,0x00,0x00,0x00,0x00,0x00,0x00,0x00,0x00,0x00,0x00,0x00,0x00,0x00,0x00,0x00,0x00,0x00,0xe0,0x07,0x00,0x00,0xe0,0x07,0x00,0x00,0xe0,0x07,0x00,0x00,0x00,0x00,0x00,0x00,0x00,0x00,0x00,0x00,0x00,0x00,0x00,0x00,0x00,0x00,0x00,0x00,0x00,0x00,0x00,0x00,0xf0,0x0f,0x00,0x00,0xf0,0x0f,0x00,0x00,0xf0,0x0f,0x00,0x00,0x00,0x00,0x00,0x00,0x00,0x00,0x00,0x00,0x00,0x00,0x00,0x00,0x00,0x00,0x00,0x00,0x00,0x00,0x00,0x00,0xf0,0x0f,0x00,0x00,0xf0,0x0f,0x00,0x00,0xf0,0x0f,0x00,0x00,0x00,0x00,0x00,0x00,0x00,0x00,0x00,0x00,0x00,0x00,0x00,0x00,0x00,0x00,0x00,0x00,0x00,0x00,0x00,0x00,0x98,0x19,0x00,0x00,0x98,0x19,0x00,0x00,0x98,0x19,0x00,0x00,0x00,0x00,0x00,0x00,0x00,0x00,0x00,0x00,0x00,0x00,0x00,0x00,0x00,0x00,0x00,0x00,0x00,0x00,0x00,0x00,0x98,0x19,0x00,0x00,0x98,0x19,0x00,0x00,0x98,0x19,0x00,0x00,0x00,0x00,0x00,0x00,0x00,0x00,0x00,0x00,0x00,0x00,0x00,0x00,0x00,0x00,0x00,0x00,0x00,0x00,0x00,0x00,0xfc,0x3f,0x00,0x00,0xfc,0x3f,0x00,0x00,0xfc,0x3f,0x00,0x00,0x00,0x00,0x00,0x00,0x00,0x00,0x00,0x00,0x00,0x00,0x00,0x00,0x00,0x00,0x00,0x00,0x00,0x00,0x00,0x00,0xfc,0x3f,0x00,0x00,0xfc,0x3f,0x00,0x00,0xfc,0x3f,0x00,0x00,0x00,0x00,0x00,0x00,0x00,0x00,0x00,0x00,0x00,0x00,0x00,0x00,0x00,0x00,0x00,0x00,0x00,0x00,0x00,0x00,0x7e,0x7e,0x00,0x00,0x7e,0x7e,0x00,0x00,0x7e,0x7e,0x00,0x00,0x00,0x00,0x00,0x00,0x00,0x00,0x00,0x00,0x00,0x00,0x00,0x00,0x00,0x00,0x00,0x00,0x00,0x00,0x00,0x00,0x7e,0x7e,0x00,0x00,0x7e,0x7e,0x00,0x00,0x7e,0x7e,0x00,0x00,0x00,0x00,0x00,0x00,0x00,0x00,0x00,0x00,0x00,0x00,0x00,0x00,0x00,0x00,0x00,0x00,0x00,0x00,0x00,0x00,0xff,0xff,0x00,0x00,0xff,0xff,0x00,0x00,0xff,0xff,0x00,0x00,0x00,0x00,0x00,0x00,0x00,0x00,0x00,0x00,0x00,0x00,0x00,0x00,0x00,0x00,0x00,0x00,0x00,0x00,0x00,0x00,0xff,0xff,0x00,0x00,0xff,0xff,0x00,0x00,0xff,0xff,0x00,0x00,0x00,0x00,0x00,0x00,0x00,0x00,0x00,0x00,0x00,0x00,0x00,0x00,0x00,0x00,0x00,0x00,0x00,0x00,0x00,0x80,0x81,0x81,0x01,0x80,0x81,0x81,0x01,0x80,0x81,0x81,0x01,0x00,0x00,0x00,0x00,0x00,0x00,0x00,0x00,0x00,0x00,0x00,0x00,0x00,0x00,0x00,0x00,0x00,0x00,0x00,0x00,0x80,0x81,0x81,0x01,0x80,0x81,0x81,0x01,0x80,0x81,0x81,0x01,0x00,0x00,0x00,0x00,0x00,0x00,0x00,0x00,0x00,0x00,0x00,0x00,0x00,0x00,0x00,0x00,0x00,0x00,0x00,0x00,0xc0,0xc3,0xc3,0x03,0xc0,0xc3,0xc3,0x03,0xc0,0xc3,0xc3,0x03,0x00,0x00,0x00,0x00,0x00,0x00,0x00,0x00,0x00,0x00,0x00,0x00,0x00,0x00,0x00,0x00,0x00,0x00,0x00,0x00,0xc0,0xc3,0xc3,0x03,0xc0,0xc3,0xc3,0x03,0xc0,0xc3,0xc3,0x03,0x00,0x00,0x00,0x00,0x00,0x00,0x00,0x00,0x00,0x00,0x00,0x00,0x00,0x00,0x00,0x00,0x00,0x00,0x00,0x00,0xe0,0xe7,0xe7,0x07,0xe0,0xe7,0xe7,0x07,0xe0,0xe7,0xe7,0x07,0x00,0x00,0x00,0x00,0x00,0x00,0x00,0x00,0x00,0x00,0x00,0x00,0x00,0x00,0x00,0x00,0x00,0x00,0x00,0x00,0xe0,0xe7,0xe7,0x07,0xe0,0xe7,0xe7,0x07,0xe0,0xe7,0xe7,0x07,0x00,0x00,0x00,0x00,0x00,0x00,0x00,0x00,0x00,0x00,0x00,0x00,0x00,0x00,0x00,0x00,0x00,0x00,0x00,0x00,0xf0,0xff,0xff,0x0f,0xf0,0xff,0xff,0x0f,0xf0,0xff,0xff,0x0f,0x00,0x00,0x00,0x00,0x00,0x00,0x00,0x00,0x00,0x00,0x00,0x00,0x00,0x00,0x00,0x00,0x00,0x00,0x00,0x00,0xf0,0xff,0xff,0x0f,0xf0,0xff,0xff,0x0f,0xf0,0xff,0xff,0x0f,0x00,0x00,0x00,0x00,0x00,0x00,0x00,0x00,0x00,0x00,0x00,0x00,0x00,0x00,0x00,0x00,0x00,0x00,0x00,0x00,0x98,0x19,0x98,0x19,0x98,0x19,0x98,0x19,0x98,0x19,0x98,0x19,0x00,0x00,0x00,0x00,0x00,0x00,0x00,0x00,0x00,0x00,0x00,0x00,0x00,0x00,0x00,0x00,0x00,0x00,0x00,0x00,0x98,0x19,0x98,0x19,0x98,0x19,0x98,0x19,0x98,0x19,0x98,0x19,0x00,0x00,0x00,0x00,0x00,0x00,0x00,0x00,0x00,0x00,0x00,0x00,0x00,0x00,0x00,0x00,0x00,0x00,0x00,0x00,0xfc,0x3f,0xfc,0x3f,0xfc,0x3f,0xfc,0x3f,0xfc,0x3f,0xfc,0x3f,0x00,0x00,0x00,0x00,0x00,0x00,0x00,0x00,0x00,0x00,0x00,0x00,0x00,0x00,0x00,0x00,0x00,0x00,0x00,0x00,0xfc,0x3f,0xfc,0x3f,0xfc,0x3f,0xfc,0x3f,0xfc,0x3f,0xfc,0x3f,0x00,0x00,0x00,0x00,0x00,0x00,0x00,0x00,0x00,0x00,0x00,0x00,0x00,0x00,0x00,0x00,0x00,0x00,0x00,0x00,0x7e,0x7e,0x7e,0x7e,0x7e,0x7e,0x7e,0x7e,0x7e,0x7e,0x7e,0x7e,0x00,0x00,0x00,0x00,0x00,0x00,0x00,0x00,0x00,0x00,0x00,0x00,0x00,0x00,0x00,0x00,0x00,0x00,0x00,0x00,0x7e,0x7e,0x7e,0x7e,0x7e,0x7e,0x7e,0x7e,0x7e,0x7e,0x7e,0x7e,0x00,0x00,0x00,0x00,0x00,0x00,0x00,0x00,0x00,0x00,0x00,0x00,0x00,0x00,0x00,0x00,0x00,0x00,0x00,0x00,0xff,0xff,0xff,0xff,0xff,0xff,0xff,0xff,0xff,0xff,0xff,0xff,0x00,0x00,0x00,0x00,0x00,0x00,0x00,0x00,0x00,0x00,0x00,0x00,0x00,0x00,0x00,0x00,0x00,0x00,0x00,0x00,0xff,0xff,0xff,0xff,0xff,0xff,0xff,0xff,0xff,0xff,0xff,0xff,0x00,0x00,0x00,0x00,0x00,0x00,0x00,0x00,0x00,0x00,0x00,0x00,0x00,0x00,0x00,0x00,0x00,0x00,0x00,0x80,0x01,0x80,0x01,0x80,0x01,0x00,0x00,0x80,0x01,0x80,0x01,0x80,0x01,0x00,0x00,0x00,0x00,0x00,0x00,0x00,0x00,0x00,0x00,0x00,0x00,0x00,0x00,0x00,0x00,0x00,0x00,0x80,0x01,0x80,0x01,0x80,0x01,0x00,0x00,0x80,0x01,0x80,0x01,0x80,0x01,0x00,0x00,0x00,0x00,0x00,0x00,0x00,0x00,0x00,0x00,0x00,0x00,0x00,0x00,0x00,0x00,0x00,0x00,0xc0,0x03,0xc0,0x03,0xc0,0x03,0x00,0x00,0xc0,0x03,0xc0,0x03,0xc0,0x03,0x00,0x00,0x00,0x00,0x00,0x00,0x00,0x00,0x00,0x00,0x00,0x00,0x00,0x00,0x00,0x00,0x00,0x00,0xc0,0x03,0xc0,0x03,0xc0,0x03,0x00,0x00,0xc0,0x03,0xc0,0x03,0xc0,0x03,0x00,0x00,0x00,0x00,0x00,0x00,0x00,0x00,0x00,0x00,0x00,0x00,0x00,0x00,0x00,0x00,0x00,0x00,0xe0,0x07,0xe0,0x07,0xe0,0x07,0x00,0x00,0xe0,0x07,0xe0,0x07,0xe0,0x07,0x00,0x00,0x00,0x00,0x00,0x00,0x00,0x00,0x00,0x00,0x00,0x00,0x00,0x00,0x00,0x00,0x00,0x00,0xe0,0x07,0xe0,0x07,0xe0,0x07,0x00,0x00,0xe0,0x07,0xe0,0x07,0xe0,0x07,0x00,0x00,0x00,0x00,0x00,0x00,0x00,0x00,0x00,0x00,0x00,0x00,0x00,0x00,0x00,0x00,0x00,0x00,0xf0,0x0f,0xf0,0x0f,0xf0,0x0f,0x00,0x00,0xf0,0x0f,0xf0,0x0f,0xf0,0x0f,0x00,0x00,0x00,0x00,0x00,0x00,0x00,0x00,0x00,0x00,0x00,0x00,0x00,0x00,0x00,0x00,0x00,0x00,0xf0,0x0f,0xf0,0x0f,0xf0,0x0f,0x00,0x00,0xf0,0x0f,0xf0,0x0f,0xf0,0x0f,0x00,0x00,0x00,0x00,0x00,0x00,0x00,0x00,0x00,0x00,0x00,0x00,0x00,0x00,0x00,0x00,0x00,0x00,0x98,0x19,0x98,0x19,0x98,0x19,0x00,0x00,0x98,0x19,0x98,0x19,0x98,0x19,0x00,0x00,0x00,0x00,0x00,0x00,0x00,0x00,0x00,0x00,0x00,0x00,0x00,0x00,0x00,0x00,0x00,0x00,0x98,0x19,0x98,0x19,0x98,0x19,0x00,0x00,0x98,0x19,0x98,0x19,0x98,0x19,0x00,0x00,0x00,0x00,0x00,0x00,0x00,0x00,0x00,0x00,0x00,0x00,0x00,0x00,0x00,0x00,0x00,0x00,0xfc,0x3f,0xfc,0x3f,0xfc,0x3f,0x00,0x00,0xfc,0x3f,0xfc,0x3f,0xfc,0x3f,0x00,0x00,0x00,0x00,0x00,0x00,0x00,0x00,0x00,0x00,0x00,0x00,0x00,0x00,0x00,0x00,0x00,0x00,0xfc,0x3f,0xfc,0x3f,0xfc,0x3f,0x00,0x00,0xfc,0x3f,0xfc,0x3f,0xfc,0x3f,0x00,0x00,0x00,0x00,0x00,0x00,0x00,0x00,0x00,0x00,0x00,0x00,0x00,0x00,0x00,0x00,0x00,0x00,0x7e,0x7e,0x7e,0x7e,0x7e,0x7e,0x00,0x00,0x7e,0x7e,0x7e,0x7e,0x7e,0x7e,0x00,0x00,0x00,0x00,0x00,0x00,0x00,0x00,0x00,0x00,0x00,0x00,0x00,0x00,0x00,0x00,0x00,0x00,0x7e,0x7e,0x7e,0x7e,0x7e,0x7e,0x00,0x00,0x7e,0x7e,0x7e,0x7e,0x7e,0x7e,0x00,0x00,0x00,0x00,0x00,0x00,0x00,0x00,0x00,0x00,0x00,0x00,0x00,0x00,0x00,0x00,0x00,0x00,0xff,0xff,0xff,0xff,0xff,0xff,0x00,0x00,0xff,0xff,0xff,0xff,0xff,0xff,0x00,0x00,0x00,0x00,0x00,0x00,0x00,0x00,0x00,0x00,0x00,0x00,0x00,0x00,0x00,0x00,0x00,0x00,0xff,0xff,0xff,0xff,0xff,0xff,0x00,0x00,0xff,0xff,0xff,0xff,0xff,0xff,0x00,0x00,0x00,0x00,0x00,0x00,0x00,0x00,0x00,0x00,0x00,0x00,0x00,0x00,0x00,0x00,0x00,0x80,0x81,0x81,0x01,0x80,0x81,0x81,0x01,0x80,0x81,0x81,0x01,0x80,0x81,0x81,0x01,0x00,0x00,0x00,0x00,0x00,0x00,0x00,0x00,0x00,0x00,0x00,0x00,0x00,0x00,0x00,0x00,0x80,0x81,0x81,0x01,0x80,0x81,0x81,0x01,0x80,0x81,0x81,0x01,0x80,0x81,0x81,0x01,0x00,0x00,0x00,0x00,0x00,0x00,0x00,0x00,0x00,0x00,0x00,0x00,0x00,0x00,0x00,0x00,0xc0,0xc3,0xc3,0x03,0xc0,0xc3,0xc3,0x03,0xc0,0xc3,0xc3,0x03,0xc0,0xc3,0xc3,0x03,0x00,0x00,0x00,0x00,0x00,0x00,0x00,0x00,0x00,0x00,0x00,0x00,0x00,0x00,0x00,0x00,0xc0,0xc3,0xc3,0x03,0xc0,0xc3,0xc3,0x03,0xc0,0xc3,0xc3,0x03,0xc0,0xc3,0xc3,0x03,0x00,0x00,0x00,0x00,0x00,0x00,0x00,0x00,0x00,0x00,0x00,0x00,0x00,0x00,0x00,0x00,0xe0,0xe7,0xe7,0x07,0xe0,0xe7,0xe7,0x07,0xe0,0xe7,0xe7,0x07,0xe0,0xe7,0xe7,0x07,0x00,0x00,0x00,0x00,0x00,0x00,0x00,0x00,0x00,0x00,0x00,0x00,0x00,0x00,0x00,0x00,0xe0,0xe7,0xe7,0x07,0xe0,0xe7,0xe7,0x07,0xe0,0xe7,0xe7,0x07,0xe0,0xe7,0xe7,0x07,0x00,0x00,0x00,0x00,0x00,0x00,0x00,0x00,0x00,0x00,0x00,0x00,0x00,0x00,0x00,0x00,0xf0,0xff,0xff,0x0f,0xf0,0xff,0xff,0x0f,0xf0,0xff,0xff,0x0f,0xf0,0xff,0xff,0x0f,0x00,0x00,0x00,0x00,0x00,0x00,0x00,0x00,0x00,0x00,0x00,0x00,0x00,0x00,0x00,0x00,0xf0,0xff,0xff,0x0f,0xf0,0xff,0xff,0x0f,0xf0,0xff,0xff,0x0f,0xf0,0xff,0xff,0x0f,0x00,0x00,0x00,0x00,0x00,0x00,0x00,0x00,0x00,0x00,0x00,0x00,0x00,0x00,0x00,0x00,0x98,0x19,0x98,0x19,0x98,0x19,0x98,0x19,0x98,0x19,0x98,0x19,0x98,0x19,0x98,0x19,0x00,0x00,0x00,0x00,0x00,0x00,0x00,0x00,0x00,0x00,0x00,0x00,0x00,0x00,0x00,0x00,0x98,0x19,0x98,0x19,0x98,0x19,0x98,0x19,0x98,0x19,0x98,0x19,0x98,0x19,0x98,0x19,0x00,0x00,0x00,0x00,0x00,0x00,0x00,0x00,0x00,0x00,0x00,0x00,0x00,0x00,0x00,0x00,0xfc,0x3f,0xfc,0x3f,0xfc,0x3f,0xfc,0x3f,0xfc,0x3f,0xfc,0x3f,0xfc,0x3f,0xfc,0x3f,0x00,0x00,0x00,0x00,0x00,0x00,0x00,0x00,0x00,0x00,0x00,0x00,0x00,0x00,0x00,0x00,0xfc,0x3f,0xfc,0x3f,0xfc,0x3f,0xfc,0x3f,0xfc,0x3f,0xfc,0x3f,0xfc,0x3f,0xfc,0x3f,0x00,0x00,0x00,0x00,0x00,0x00,0x00,0x00,0x00,0x00,0x00,0x00,0x00,0x00,0x00,0x00,0x7e,0x7e,0x7e,0x7e,0x7e,0x7e,0x7e,0x7e,0x7e,0x7e,0x7e,0x7e,0x7e,0x7e,0x7e,0x7e,0x00,0x00,0x00,0x00,0x00,0x00,0x00,0x00,0x00,0x00,0x00,0x00,0x00,0x00,0x00,0x00,0x7e,0x7e,0x7e,0x7e,0x7e,0x7e,0x7e,0x7e,0x7e,0x7e,0x7e,0x7e,0x7e,0x7e,0x7e,0x7e,0x00,0x00,0x00,0x00,0x00,0x00,0x00,0x00,0x00,0x00,0x00,0x00,0x00,0x00,0x00,0x00,0xff,0xff,0xff,0xff,0xff,0xff,0xff,0xff,0xff,0xff,0xff,0xff,0xff,0xff,0xff,0xff,0x00,0x00,0x00,0x00,0x00,0x00,0x00,0x00,0x00,0x00,0x00,0x00,0x00,0x00,0x00,0x00,0xff,0xff,0xff,0xff,0xff,0xff,0xff,0xff,0xff,0xff,0xff,0xff,0xff,0xff,0xff,0xff,0x00,0x00,0x00,0x00,0x00,0x00,0x00,0x00,0x00,0x00,0x00,0x00,0x00,0x00,0x00,0x80,0x01,0x00,0x00,0x00,0x00,0x00,0x00,0x80,0x01,0x00,0x00,0x00,0x00,0x00,0x00,0x80,0x01,0x00,0x00,0x00,0x00,0x00,0x00,0x00,0x00,0x00,0x00,0x00,0x00,0x00,0x00,0x80,0x01,0x00,0x00,0x00,0x00,0x00,0x00,0x80,0x01,0x00,0x00,0x00,0x00,0x00,0x00,0x80,0x01,0x00,0x00,0x00,0x00,0x00,0x00,0x00,0x00,0x00,0x00,0x00,0x00,0x00,0x00,0xc0,0x03,0x00,0x00,0x00,0x00,0x00,0x00,0xc0,0x03,0x00,0x00,0x00,0x00,0x00,0x00,0xc0,0x03,0x00,0x00,0x00,0x00,0x00,0x00,0x00,0x00,0x00,0x00,0x00,0x00,0x00,0x00,0xc0,0x03,0x00,0x00,0x00,0x00,0x00,0x00,0xc0,0x03,0x00,0x00,0x00,0x00,0x00,0x00,0xc0,0x03,0x00,0x00,0x00,0x00,0x00,0x00,0x00,0x00,0x00,0x00,0x00,0x00,0x00,0x00,0xe0,0x07,0x00,0x00,0x00,0x00,0x00,0x00,0xe0,0x07,0x00,0x00,0x00,0x00,0x00,0x00,0xe0,0x07,0x00,0x00,0x00,0x00,0x00,0x00,0x00,0x00,0x00,0x00,0x00,0x00,0x00,0x00,0xe0,0x07,0x00,0x00,0x00,0x00,0x00,0x00,0xe0,0x07,0x00,0x00,0x00,0x00,0x00,0x00,0xe0,0x07,0x00,0x00,0x00,0x00,0x00,0x00,0x00,0x00,0x00,0x00,0x00,0x00,0x00,0x00,0xf0,0x0f,0x00,0x00,0x00,0x00,0x00,0x00,0xf0,0x0f,0x00,0x00,0x00,0x00,0x00,0x00,0xf0,0x0f,0x00,0x00,0x00,0x00,0x00,0x00,0x00,0x00,0x00,0x00,0x00,0x00,0x00,0x00,0xf0,0x0f,0x00,0x00,0x00,0x00,0x00,0x00,0xf0,0x0f,0x00,0x00,0x00,0x00,0x00,0x00,0xf0,0x0f,0x00,0x00,0x00,0x00,0x00,0x00,0x00,0x00,0x00,0x00,0x00,0x00,0x00,0x00,0x98,0x19,0x00,0x00,0x00,0x00,0x00,0x00,0x98,0x19,0x00,0x00,0x00,0x00,0x00,0x00,0x98,0x19,0x00,0x00,0x00,0x00,0x00,0x00,0x00,0x00,0x00,0x00,0x00,0x00,0x00,0x00,0x98,0x19,0x00,0x00,0x00,0x00,0x00,0x00,0x98,0x19,0x00,0x00,0x00,0x00,0x00,0x00,0x98,0x19,0x00,0x00,0x00,0x00,0x00,0x00,0x00,0x00,0x00,0x00,0x00,0x00,0x00,0x00,0xfc,0x3f,0x00,0x00,0x00,0x00,0x00,0x00,0xfc,0x3f,0x00,0x00,0x00,0x00,0x00,0x00,0xfc,0x3f,0x00,0x00,0x00,0x00,0x00,0x00,0x00,0x00,0x00,0x00,0x00,0x00,0x00,0x00,0xfc,0x3f,0x00,0x00,0x00,0x00,0x00,0x00,0xfc,0x3f,0x00,0x00,0x00,0x00,0x00,0x00,0xfc,0x3f,0x00,0x00,0x00,0x00,0x00,0x00,0x00,0x00,0x00,0x00,0x00,0x00,0x00,0x00,0x7e,0x7e,0x00,0x00,0x00,0x00,0x00,0x00,0x7e,0x7e,0x00,0x00,0x00,0x00,0x00,0x00,0x7e,0x7e,0x00,0x00,0x00,0x00,0x00,0x00,0x00,0x00,0x00,0x00,0x00,0x00,0x00,0x00,0x7e,0x7e,0x00,0x00,0x00,0x00,0x00,0x00,0x7e,0x7e,0x00,0x00,0x00,0x00,0x00,0x00,0x7e,0x7e,0x00,0x00,0x00,0x00,0x00,0x00,0x00,0x00,0x00,0x00,0x00,0x00,0x00,0x00,0xff,0xff,0x00,0x00,0x00,0x00,0x00,0x00,0xff,0xff,0x00,0x00,0x00,0x00,0x00,0x00,0xff,0xff,0x00,0x00,0x00,0x00,0x00,0x00,0x00,0x00,0x00,0x00,0x00,0x00,0x00,0x00,0xff,0xff,0x00,0x00,0x00,0x00,0x00,0x00,0xff,0xff,0x00,0x00,0x00,0x00,0x00,0x00,0xff,0xff,0x00,0x00,0x00,0x00,0x00,0x00,0x00,0x00,0x00,0x00,0x00,0x00,0x00,0x80,0x81,0x81,0x01,0x00,0x00,0x00,0x00,0x80,0x81,0x81,0x01,0x00,0x00,0x00,0x00,0x80,0x81,0x81,0x01,0x00,0x00,0x00,0x00,0x00,0x00,0x00,0x00,0x00,0x00,0x00,0x00,0x80,0x81,0x81,0x01,0x00,0x00,0x00,0x00,0x80,0x81,0x81,0x01,0x00,0x00,0x00,0x00,0x80,0x81,0x81,0x01,0x00,0x00,0x00,0x00,0x00,0x00,0x00,0x00,0x00,0x00,0x00,0x00,0xc0,0xc3,0xc3,0x03,0x00,0x00,0x00,0x00,0xc0,0xc3,0xc3,0x03,0x00,0x00,0x00,0x00,0xc0,0xc3,0xc3,0x03,0x00,0x00,0x00,0x00,0x00,0x00,0x00,0x00,0x00,0x00,0x00,0x00,0xc0,0xc3,0xc3,0x03,0x00,0x00,0x00,0x00,0xc0,0xc3,0xc3,0x03,0x00,0x00,0x00,0x00,0xc0,0xc3,0xc3,0x03,0x00,0x00,0x00,0x00,0x00,0x00,0x00,0x00,0x00,0x00,0x00,0x00,0xe0,0xe7,0xe7,0x07,0x00,0x00,0x00,0x00,0xe0,0xe7,0xe7,0x07,0x00,0x00,0x00,0x00,0xe0,0xe7,0xe7,0x07,0x00,0x00,0x00,0x00,0x00,0x00,0x00,0x00,0x00,0x00,0x00,0x00,0xe0,0xe7,0xe7,0x07,0x00,0x00,0x00,0x00,0xe0,0xe7,0xe7,0x07,0x00,0x00,0x00,0x00,0xe0,0xe7,0xe7,0x07,0x00,0x00,0x00,0x00,0x00,0x00,0x00,0x00,0x00,0x00,0x00,0x00,0xf0,0xff,0xff,0x0f,0x00,0x00,0x00,0x00,0xf0,0xff,0xff,0x0f,0x00,0x00,0x00,0x00,0xf0,0xff,0xff,0x0f,0x00,0x00,0x00,0x00,0x00,0x00,0x00,0x00,0x00,0x00,0x00,0x00,0xf0,0xff,0xff,0x0f,0x00,0x00,0x00,0x00,0xf0,0xff,0xff,0x0f,0x00,0x00,0x00,0x00,0xf0,0xff,0xff,0x0f,0x00,0x00,0x00,0x00,0x00,0x00,0x00,0x00,0x00,0x00,0x00,0x00,0x98,0x19,0x98,0x19,0x00,0x00,0x00,0x00,0x98,0x19,0x98,0x19,0x00,0x00,0x00,0x00,0x98,0x19,0x98,0x19,0x00,0x00,0x00,0x00,0x00,0x00,0x00,0x00,0x00,0x00,0x00,0x00,0x98,0x19,0x98,0x19,0x00,0x00,0x00,0x00,0x98,0x19,0x98,0x19,0x00,0x00,0x00,0x00,0x98,0x19,0x98,0x19,0x00,0x00,0x00,0x00,0x00,0x00,0x00,0x00,0x00,0x00,0x00,0x00,0xfc,0x3f,0xfc,0x3f,0x00,0x00,0x00,0x00,0xfc,0x3f,0xfc,0x3f,0x00,0x00,0x00,0x00,0xfc,0x3f,0xfc,0x3f,0x00,0x00,0x00,0x00,0x00,0x00,0x00,0x00,0x00,0x00,0x00,0x00,0xfc,0x3f,0xfc,0x3f,0x00,0x00,0x00,0x00,0xfc,0x3f,0xfc,0x3f,0x00,0x00,0x00,0x00,0xfc,0x3f,0xfc,0x3f,0x00,0x00,0x00,0x00,0x00,0x00,0x00,0x00,0x00,0x00,0x00,0x00,0x7e,0x7e,0x7e,0x7e,0x00,0x00,0x00,0x00,0x7e,0x7e,0x7e,0x7e,0x00,0x00,0x00,0x00,0x7e,0x7e,0x7e,0x7e,0x00,0x00,0x00,0x00,0x00,0x00,0x00,0x00,0x00,0x00,0x00,0x00,0x7e,0x7e,0x7e,0x7e,0x00,0x00,0x00,0x00,0x7e,0x7e,0x7e,0x7e,0x00,0x00,0x00,0x00,0x7e,0x7e,0x7e,0x7e,0x00,0x00,0x00,0x00,0x00,0x00,0x00,0x00,0x00,0x00,0x00,0x00,0xff,0xff,0xff,0xff,0x00,0x00,0x00,0x00,0xff,0xff,0xff,0xff,0x00,0x00,0x00,0x00,0xff,0xff,0xff,0xff,0x00,0x00,0x00,0x00,0x00,0x00,0x00,0x00,0x00,0x00,0x00,0x00,0xff,0xff,0xff,0xff,0x00,0x00,0x00,0x00,0xff,0xff,0xff,0xff,0x00,0x00,0x00,0x00,0xff,0xff,0xff,0xff,0x00,0x00,0x00,0x00,0x00,0x00,0x00,0x00,0x00,0x00,0x00,0x80,0x01,0x80,0x01,0x80,0x01,0x00,0x00,0x80,0x01,0x80,0x01,0x80,0x01,0x00,0x00,0x80,0x01,0x80,0x01,0x80,0x01,0x00,0x00,0x00,0x00,0x00,0x00,0x00,0x00,0x00,0x00,0x80,0x01,0x80,0x01,0x80,0x01,0x00,0x00,0x80,0x01,0x80,0x01,0x80,0x01,0x00,0x00,0x80,0x01,0x80,0x01,0x80,0x01,0x00,0x00,0x00,0x00,0x00,0x00,0x00,0x00,0x00,0x00,0xc0,0x03,0xc0,0x03,0xc0,0x03,0x00,0x00,0xc0,0x03,0xc0,0x03,0xc0,0x03,0x00,0x00,0xc0,0x03,0xc0,0x03,0xc0,0x03,0x00,0x00,0x00,0x00,0x00,0x00,0x00,0x00,0x00,0x00,0xc0,0x03,0xc0,0x03,0xc0,0x03,0x00,0x00,0xc0,0x03,0xc0,0x03,0xc0,0x03,0x00,0x00,0xc0,0x03,0xc0,0x03,0xc0,0x03,0x00,0x00,0x00,0x00,0x00,0x00,0x00,0x00,0x00,0x00,0xe0,0x07,0xe0,0x07,0xe0,0x07,0x00,0x00,0xe0,0x07,0xe0,0x07,0xe0,0x07,0x00,0x00,0xe0,0x07,0xe0,0x07,0xe0,0x07,0x00,0x00,0x00,0x00,0x00,0x00,0x00,0x00,0x00,0x00,0xe0,0x07,0xe0,0x07,0xe0,0x07,0x00,0x00,0xe0,0x07,0xe0,0x07,0xe0,0x07,0x00,0x00,0xe0,0x07,0xe0,0x07,0xe0,0x07,0x00,0x00,0x00,0x00,0x00,0x00,0x00,0x00,0x00,0x00,0xf0,0x0f,0xf0,0x0f,0xf0,0x0f,0x00,0x00,0xf0,0x0f,0xf0,0x0f,0xf0,0x0f,0x00,0x00,0xf0,0x0f,0xf0,0x0f,0xf0,0x0f,0x00,0x00,0x00,0x00,0x00,0x00,0x00,0x00,0x00,0x00,0xf0,0x0f,0xf0,0x0f,0xf0,0x0f,0x00,0x00,0xf0,0x0f,0xf0,0x0f,0xf0,0x0f,0x00,0x00,0xf0,0x0f,0xf0,0x0f,0xf0,0x0f,0x00,0x00,0x00,0x00,0x00,0x00,0x00,0x00,0x00,0x00,0x98,0x19,0x98,0x19,0x98,0x19,0x00,0x00,0x98,0x19,0x98,0x19,0x98,0x19,0x00,0x00,0x98,0x19,0x98,0x19,0x98,0x19,0x00,0x00,0x00,0x00,0x00,0x00,0x00,0x00,0x00,0x00,0x98,0x19,0x98,0x19,0x98,0x19,0x00,0x00,0x98,0x19,0x98,0x19,0x98,0x19,0x00,0x00,0x98,0x19,0x98,0x19,0x98,0x19,0x00,0x00,0x00,0x00,0x00,0x00,0x00,0x00,0x00,0x00,0xfc,0x3f,0xfc,0x3f,0xfc,0x3f,0x00,0x00,0xfc,0x3f,0xfc,0x3f,0xfc,0x3f,0x00,0x00,0xfc,0x3f,0xfc,0x3f,0xfc,0x3f,0x00,0x00,0x00,0x00,0x00,0x00,0x00,0x00,0x00,0x00,0xfc,0x3f,0xfc,0x3f,0xfc,0x3f,0x00,0x00,0xfc,0x3f,0xfc,0x3f,0xfc,0x3f,0x00,0x00,0xfc,0x3f,0xfc,0x3f,0xfc,0x3f,0x00,0x00,0x00,0x00,0x00,0x00,0x00,0x00,0x00,0x00,0x7e,0x7e,0x7e,0x7e,0x7e,0x7e,0x00,0x00,0x7e,0x7e,0x7e,0x7e,0x7e,0x7e,0x00,0x00,0x7e,0x7e,0x7e,0x7e,0x7e,0x7e,0x00,0x00,0x00,0x00,0x00,0x00,0x00,0x00,0x00,0x00,0x7e,0x7e,0x7e,0x7e,0x7e,0x7e,0x00,0x00,0x7e,0x7e,0x7e,0x7e,0x7e,0x7e,0x00,0x00,0x7e,0x7e,0x7e,0x7e,0x7e,0x7e,0x00,0x00,0x00,0x00,0x00,0x00,0x00,0x00,0x00,0x00,0xff,0xff,0xff,0xff,0xff,0xff,0x00,0x00,0xff,0xff,0xff,0xff,0xff,0xff,0x00,0x00,0xff,0xff,0xff,0xff,0xff,0xff,0x00,0x00,0x00,0x00,0x00,0x00,0x00,0x00,0x00,0x00,0xff,0xff,0xff,0xff,0xff,0xff,0x00,0x00,0xff,0xff,0xff,0xff,0xff,0xff,0x00,0x00,0xff,0xff,0xff,0xff,0xff,0xff,0x00,0x00,0x00,0x00,0x00,0x00,0x00,0x00,0x00,0x80,0x81,0x81,0x01,0x80,0x81,0x81,0x01,0x80,0x81,0x81,0x01,0x80,0x81,0x81,0x01,0x80,0x81,0x81,0x01,0x80,0x81,0x81,0x01,0x00,0x00,0x00,0x00,0x00,0x00,0x00,0x00,0x80,0x81,0x81,0x01,0x80,0x81,0x81,0x01,0x80,0x81,0x81,0x01,0x80,0x81,0x81,0x01,0x80,0x81,0x81,0x01,0x80,0x81,0x81,0x01,0x00,0x00,0x00,0x00,0x00,0x00,0x00,0x00,0xc0,0xc3,0xc3,0x03,0xc0,0xc3,0xc3,0x03,0xc0,0xc3,0xc3,0x03,0xc0,0xc3,0xc3,0x03,0xc0,0xc3,0xc3,0x03,0xc0,0xc3,0xc3,0x03,0x00,0x00,0x00,0x00,0x00,0x00,0x00,0x00,0xc0,0xc3,0xc3,0x03,0xc0,0xc3,0xc3,0x03,0xc0,0xc3,0xc3,0x03,0xc0,0xc3,0xc3,0x03,0xc0,0xc3,0xc3,0x03,0xc0,0xc3,0xc3,0x03,0x00,0x00,0x00,0x00,0x00,0x00,0x00,0x00,0xe0,0xe7,0xe7,0x07,0xe0,0xe7,0xe7,0x07,0xe0,0xe7,0xe7,0x07,0xe0,0xe7,0xe7,0x07,0xe0,0xe7,0xe7,0x07,0xe0,0xe7,0xe7,0x07,0x00,0x00,0x00,0x00,0x00,0x00,0x00,0x00,0xe0,0xe7,0xe7,0x07,0xe0,0xe7,0xe7,0x07,0xe0,0xe7,0xe7,0x07,0xe0,0xe7,0xe7,0x07,0xe0,0xe7,0xe7,0x07,0xe0,0xe7,0xe7,0x07,0x00,0x00,0x00,0x00,0x00,0x00,0x00,0x00,0xf0,0xff,0xff,0x0f,0xf0,0xff,0xff,0x0f,0xf0,0xff,0xff,0x0f,0xf0,0xff,0xff,0x0f,0xf0,0xff,0xff,0x0f,0xf0,0xff,0xff,0x0f,0x00,0x00,0x00,0x00,0x00,0x00,0x00,0x00,0xf0,0xff,0xff,0x0f,0xf0,0xff,0xff,0x0f,0xf0,0xff,0xff,0x0f,0xf0,0xff,0xff,0x0f,0xf0,0xff,0xff,0x0f,0xf0,0xff,0xff,0x0f,0x00,0x00,0x00,0x00,0x00,0x00,0x00,0x00,0x98,0x19,0x98,0x19,0x98,0x19,0x98,0x19,0x98,0x19,0x98,0x19,0x98,0x19,0x98,0x19,0x98,0x19,0x98,0x19,0x98,0x19,0x98,0x19,0x00,0x00,0x00,0x00,0x00,0x00,0x00,0x00,0x98,0x19,0x98,0x19,0x98,0x19,0x98,0x19,0x98,0x19,0x98,0x19,0x98,0x19,0x98,0x19,0x98,0x19,0x98,0x19,0x98,0x19,0x98,0x19,0x00,0x00,0x00,0x00,0x00,0x00,0x00,0x00,0xfc,0x3f,0xfc,0x3f,0xfc,0x3f,0xfc,0x3f,0xfc,0x3f,0xfc,0x3f,0xfc,0x3f,0xfc,0x3f,0xfc,0x3f,0xfc,0x3f,0xfc,0x3f,0xfc,0x3f,0x00,0x00,0x00,0x00,0x00,0x00,0x00,0x00,0xfc,0x3f,0xfc,0x3f,0xfc,0x3f,0xfc,0x3f,0xfc,0x3f,0xfc,0x3f,0xfc,0x3f,0xfc,0x3f,0xfc,0x3f,0xfc,0x3f,0xfc,0x3f,0xfc,0x3f,0x00,0x00,0x00,0x00,0x00,0x00,0x00,0x00,0x7e,0x7e,0x7e,0x7e,0x7e,0x7e,0x7e,0x7e,0x7e,0x7e,0x7e,0x7e,0x7e,0x7e,0x7e,0x7e,0x7e,0x7e,0x7e,0x7e,0x7e,0x7e,0x7e,0x7e,0x00,0x00,0x00,0x00,0x00,0x00,0x00,0x00,0x7e,0x7e,0x7e,0x7e,0x7e,0x7e,0x7e,0x7e,0x7e,0x7e,0x7e,0x7e,0x7e,0x7e,0x7e,0x7e,0x7e,0x7e,0x7e,0x7e,0x7e,0x7e,0x7e,0x7e,0x00,0x00,0x00,0x00,0x00,0x00,0x00,0x00,0xff,0xff,0xff,0xff,0xff,0xff,0xff,0xff,0xff,0xff,0xff,0xff,0xff,0xff,0xff,0xff,0xff,0xff,0xff,0xff,0xff,0xff,0xff,0xff,0x00,0x00,0x00,0x00,0x00,0x00,0x00,0x00,0xff,0xff,0xff,0xff,0xff,0xff,0xff,0xff,0xff,0xff,0xff,0xff,0xff,0xff,0xff,0xff,0xff,0xff,0xff,0xff,0xff,0xff,0xff,0xff,0x00,0x00,0x00,0x00,0x00,0x00,0x00,0x80,0x01,0x00,0x00,0x80,0x01,0x00,0x00,0x80,0x01,0x00,0x00,0x00,0x00,0x00,0x00,0x80,0x01,0x00,0x00,0x80,0x01,0x00,0x00,0x80,0x01,0x00,0x00,0x00,0x00,0x00,0x00,0x80,0x01,0x00,0x00,0x80,0x01,0x00,0x00,0x80,0x01,0x00,0x00,0x00,0x00,0x00,0x00,0x80,0x01,0x00,0x00,0x80,0x01,0x00,0x00,0x80,0x01,0x00,0x00,0x00,0x00,0x00,0x00,0xc0,0x03,0x00,0x00,0xc0,0x03,0x00,0x00,0xc0,0x03,0x00,0x00,0x00,0x00,0x00,0x00,0xc0,0x03,0x00,0x00,0xc0,0x03,0x00,0x00,0xc0,0x03,0x00,0x00,0x00,0x00,0x00,0x00,0xc0,0x03,0x00,0x00,0xc0,0x03,0x00,0x00,0xc0,0x03,0x00,0x00,0x00,0x00,0x00,0x00,0xc0,0x03,0x00,0x00,0xc0,0x03,0x00,0x00,0xc0,0x03,0x00,0x00,0x00,0x00,0x00,0x00,0xe0,0x07,0x00,0x00,0xe0,0x07,0x00,0x00,0xe0,0x07,0x00,0x00,0x00,0x00,0x00,0x00,0xe0,0x07,0x00,0x00,0xe0,0x07,0x00,0x00,0xe0,0x07,0x00,0x00,0x00,0x00,0x00,0x00,0xe0,0x07,0x00,0x00,0xe0,0x07,0x00,0x00,0xe0,0x07,0x00,0x00,0x00,0x00,0x00,0x00,0xe0,0x07,0x00,0x00,0xe0,0x07,0x00,0x00,0xe0,0x07,0x00,0x00,0x00,0x00,0x00,0x00,0xf0,0x0f,0x00,0x00,0xf0,0x0f,0x00,0x00,0xf0,0x0f,0x00,0x00,0x00,0x00,0x00,0x00,0xf0,0x0f,0x00,0x00,0xf0,0x0f,0x00,0x00,0xf0,0x0f,0x00,0x00,0x00,0x00,0x00,0x00,0xf0,0x0f,0x00,0x00,0xf0,0x0f,0x00,0x00,0xf0,0x0f,0x00,0x00,0x00,0x00,0x00,0x00,0xf0,0x0f,0x00,0x00,0xf0,0x0f,0x00,0x00,0xf0,0x0f,0x00,0x00,0x00,0x00,0x00,0x00,0x98,0x19,0x00,0x00,0x98,0x19,0x00,0x00,0x98,0x19,0x00,0x00,0x00,0x00,0x00,0x00,0x98,0x19,0x00,0x00,0x98,0x19,0x00,0x00,0x98,0x19,0x00,0x00,0x00,0x00,0x00,0x00,0x98,0x19,0x00,0x00,0x98,0x19,0x00,0x00,0x98,0x19,0x00,0x00,0x00,0x00,0x00,0x00,0x98,0x19,0x00,0x00,0x98,0x19,0x00,0x00,0x98,0x19,0x00,0x00,0x00,0x00,0x00,0x00,0xfc,0x3f,0x00,0x00,0xfc,0x3f,0x00,0x00,0xfc,0x3f,0x00,0x00,0x00,0x00,0x00,0x00,0xfc,0x3f,0x00,0x00,0xfc,0x3f,0x00,0x00,0xfc,0x3f,0x00,0x00,0x00,0x00,0x00,0x00,0xfc,0x3f,0x00,0x00,0xfc,0x3f,0x00,0x00,0xfc,0x3f,0x00,0x00,0x00,0x00,0x00,0x00,0xfc,0x3f,0x00,0x00,0xfc,0x3f,0x00,0x00,0xfc,0x3f,0x00,0x00,0x00,0x00,0x00,0x00,0x7e,0x7e,0x00,0x00,0x7e,0x7e,0x00,0x00,0x7e,0x7e,0x00,0x00,0x00,0x00,0x00,0x00,0x7e,0x7e,0x00,0x00,0x7e,0x7e,0x00,0x00,0x7e,0x7e,0x00,0x00,0x00,0x00,0x00,0x00,0x7e,0x7e,0x00,0x00,0x7e,0x7e,0x00,0x00,0x7e,0x7e,0x00,0x00,0x00,0x00,0x00,0x00,0x7e,0x7e,0x00,0x00,0x7e,0x7e,0x00,0x00,0x7e,0x7e,0x00,0x00,0x00,0x00,0x00,0x00,0xff,0xff,0x00,0x00,0xff,0xff,0x00,0x00,0xff,0xff,0x00,0x00,0x00,0x00,0x00,0x00,0xff,0xff,0x00,0x00,0xff,0xff,0x00,0x00,0xff,0xff,0x00,0x00,0x00,0x00,0x00,0x00,0xff,0xff,0x00,0x00,0xff,0xff,0x00,0x00,0xff,0xff,0x00,0x00,0x00,0x00,0x00,0x00,0xff,0xff,0x00,0x00,0xff,0xff,0x00,0x00,0xff,0xff,0x00,0x00,0x00,0x00,0x00,0x80,0x81,0x81,0x01,0x80,0x81,0x81,0x01,0x80,0x81,0x81,0x01,0x00,0x00,0x00,0x00,0x80,0x81,0x81,0x01,0x80,0x81,0x81,0x01,0x80,0x81,0x81,0x01,0x00,0x00,0x00,0x00,0x80,0x81,0x81,0x01,0x80,0x81,0x81,0x01,0x80,0x81,0x81,0x01,0x00,0x00,0x00,0x00,0x80,0x81,0x81,0x01,0x80,0x81,0x81,0x01,0x80,0x81,0x81,0x01,0x00,0x00,0x00,0x00,0xc0,0xc3,0xc3,0x03,0xc0,0xc3,0xc3,0x03,0xc0,0xc3,0xc3,0x03,0x00,0x00,0x00,0x00,0xc0,0xc3,0xc3,0x03,0xc0,0xc3,0xc3,0x03,0xc0,0xc3,0xc3,0x03,0x00,0x00,0x00,0x00,0xc0,0xc3,0xc3,0x03,0xc0,0xc3,0xc3,0x03,0xc0,0xc3,0xc3,0x03,0x00,0x00,0x00,0x00,0xc0,0xc3,0xc3,0x03,0xc0,0xc3,0xc3,0x03,0xc0,0xc3,0xc3,0x03,0x00,0x00,0x00,0x00,0xe0,0xe7,0xe7,0x07,0xe0,0xe7,0xe7,0x07,0xe0,0xe7,0xe7,0x07,0x00,0x00,0x00,0x00,0xe0,0xe7,0xe7,0x07,0xe0,0xe7,0xe7,0x07,0xe0,0xe7,0xe7,0x07,0x00,0x00,0x00,0x00,0xe0,0xe7,0xe7,0x07,0xe0,0xe7,0xe7,0x07,0xe0,0xe7,0xe7,0x07,0x00,0x00,0x00,0x00,0xe0,0xe7,0xe7,0x07,0xe0,0xe7,0xe7,0x07,0xe0,0xe7,0xe7,0x07,0x00,0x00,0x00,0x00,0xf0,0xff,0xff,0x0f,0xf0,0xff,0xff,0x0f,0xf0,0xff,0xff,0x0f,0x00,0x00,0x00,0x00,0xf0,0xff,0xff,0x0f,0xf0,0xff,0xff,0x0f,0xf0,0xff,0xff,0x0f,0x00,0x00,0x00,0x00,0xf0,0xff,0xff,0x0f,0xf0,0xff,0xff,0x0f,0xf0,0xff,0xff,0x0f,0x00,0x00,0x00,0x00,0xf0,0xff,0xff,0x0f,0xf0,0xff,0xff,0x0f,0xf0,0xff,0xff,0x0f,0x00,0x00,0x00,0x00,0x98,0x19,0x98,0x19,0x98,0x19,0x98,0x19,0x98,0x19,0x98,0x19,0x00,0x00,0x00,0x00,0x98,0x19,0x98,0x19,0x98,0x19,0x98,0x19,0x98,0x19,0x98,0x19,0x00,0x00,0x00,0x00,0x98,0x19,0x98,0x19,0x98,0x19,0x98,0x19,0x98,0x19,0x98,0x19,0x00,0x00,0x00,0x00,0x98,0x19,0x98,0x19,0x98,0x19,0x98,0x19,0x98,0x19,0x98,0x19,0x00,0x00,0x00,0x00,0xfc,0x3f,0xfc,0x3f,0xfc,0x3f,0xfc,0x3f,0xfc,0x3f,0xfc,0x3f,0x00,0x00,0x00,0x00,0xfc,0x3f,0xfc,0x3f,0xfc,0x3f,0xfc,0x3f,0xfc,0x3f,0xfc,0x3f,0x00,0x00,0x00,0x00,0xfc,0x3f,0xfc,0x3f,0xfc,0x3f,0xfc,0x3f,0xfc,0x3f,0xfc,0x3f,0x00,0x00,0x00,0x00,0xfc,0x3f,0xfc,0x3f,0xfc,0x3f,0xfc,0x3f,0xfc,0x3f,0xfc,0x3f,0x00,0x00,0x00,0x00,0x7e,0x7e,0x7e,0x7e,0x7e,0x7e,0x7e,0x7e,0x7e,0x7e,0x7e,0x7e,0x00,0x00,0x00,0x00,0x7e,0x7e,0x7e,0x7e,0x7e,0x7e,0x7e,0x7e,0x7e,0x7e,0x7e,0x7e,0x00,0x00,0x00,0x00,0x7e,0x7e,0x7e,0x7e,0x7e,0x7e,0x7e,0x7e,0x7e,0x7e,0x7e,0x7e,0x00,0x00,0x00,0x00,0x7e,0x7e,0x7e,0x7e,0x7e,0x7e,0x7e,0x7e,0x7e,0x7e,0x7e,0x7e,0x00,0x00,0x00,0x00,0xff,0xff,0xff,0xff,0xff,0xff,0xff,0xff,0xff,0xff,0xff,0xff,0x00,0x00,0x00,0x00,0xff,0xff,0xff,0xff,0xff,0xff,0xff,0xff,0xff,0xff,0xff,0xff,0x00,0x00,0x00,0x00,0xff,0xff,0xff,0xff,0xff,0xff,0xff,0xff,0xff,0xff,0xff,0xff,0x00,0x00,0x00,0x00,0xff,0xff,0xff,0xff,0xff,0xff,0xff,0xff,0xff,0xff,0xff,0xff,0x00,0x00,0x00,0x80,0x01,0x80,0x01,0x80,0x01,0x00,0x00,0x80,0x01,0x80,0x01,0x80,0x01,0x00,0x00,0x80,0x01,0x80,0x01,0x80,0x01,0x00,0x00,0x80,0x01,0x80,0x01,0x80,0x01,0x00,0x00,0x80,0x01,0x80,0x01,0x80,0x01,0x00,0x00,0x80,0x01,0x80,0x01,0x80,0x01,0x00,0x00,0x80,0x01,0x80,0x01,0x80,0x01,0x00,0x00,0x80,0x01,0x80,0x01,0x80,0x01,0x00,0x00,0xc0,0x03,0xc0,0x03,0xc0,0x03,0x00,0x00,0xc0,0x03,0xc0,0x03,0xc0,0x03,0x00,0x00,0xc0,0x03,0xc0,0x03,0xc0,0x03,0x00,0x00,0xc0,0x03,0xc0,0x03,0xc0,0x03,0x00,0x00,0xc0,0x03,0xc0,0x03,0xc0,0x03,0x00,0x00,0xc0,0x03,0xc0,0x03,0xc0,0x03,0x00,0x00,0xc0,0x03,0xc0,0x03,0xc0,0x03,0x00,0x00,0xc0,0x03,0xc0,0x03,0xc0,0x03,0x00,0x00,0xe0,0x07,0xe0,0x07,0xe0,0x07,0x00,0x00,0xe0,0x07,0xe0,0x07,0xe0,0x07,0x00,0x00,0xe0,0x07,0xe0,0x07,0xe0,0x07,0x00,0x00,0xe0,0x07,0xe0,0x07,0xe0,0x07,0x00,0x00,0xe0,0x07,0xe0,0x07,0xe0,0x07,0x00,0x00,0xe0,0x07,0xe0,0x07,0xe0,0x07,0x00,0x00,0xe0,0x07,0xe0,0x07,0xe0,0x07,0x00,0x00,0xe0,0x07,0xe0,0x07,0xe0,0x07,0x00,0x00,0xf0,0x0f,0xf0,0x0f,0xf0,0x0f,0x00,0x00,0xf0,0x0f,0xf0,0x0f,0xf0,0x0f,0x00,0x00,0xf0,0x0f,0xf0,0x0f,0xf0,0x0f,0x00,0x00,0xf0,0x0f,0xf0,0x0f,0xf0,0x0f,0x00,0x00,0xf0,0x0f,0xf0,0x0f,0xf0,0x0f,0x00,0x00,0xf0,0x0f,0xf0,0x0f,0xf0,0x0f,0x00,0x00,0xf0,0x0f,0xf0,0x0f,0xf0,0x0f,0x00,0x00,0xf0,0x0f,0xf0,0x0f,0xf0,0x0f,0x00,0x00,0x98,0x19,0x98,0x19,0x98,0x19,0x00,0x00,0x98,0x19,0x98,0x19,0x98,0x19,0x00,0x00,0x98,0x19,0x98,0x19,0x98,0x19,0x00,0x00,0x98,0x19,0x98,0x19,0x98,0x19,0x00,0x00,0x98,0x19,0x98,0x19,0x98,0x19,0x00,0x00,0x98,0x19,0x98,0x19,0x98,0x19,0x00,0x00,0x98,0x19,0x98,0x19,0x98,0x19,0x00,0x00,0x98,0x19,0x98,0x19,0x98,0x19,0x00,0x00,0xfc,0x3f,0xfc,0x3f,0xfc,0x3f,0x00,0x00,0xfc,0x3f,0xfc,0x3f,0xfc,0x3f,0x00,0x00,0xfc,0x3f,0xfc,0x3f,0xfc,0x3f,0x00,0x00,0xfc,0x3f,0xfc,0x3f,0xfc,0x3f,0x00,0x00,0xfc,0x3f,0xfc,0x3f,0xfc,0x3f,0x00,0x00,0xfc,0x3f,0xfc,0x3f,0xfc,0x3f,0x00,0x00,0xfc,0x3f,0xfc,0x3f,0xfc,0x3f,0x00,0x00,0xfc,0x3f,0xfc,0x3f,0xfc,0x3f,0x00,0x00,0x7e,0x7e,0x7e,0x7e,0x7e,0x7e,0x00,0x00,0x7e,0x7e,0x7e,0x7e,0x7e,0x7e,0x00,0x00,0x7e,0x7e,0x7e,0x7e,0x7e,0x7e,0x00,0x00,0x7e,0x7e,0x7e,0x7e,0x7e,0x7e,0x00,0x00,0x7e,0x7e,0x7e,0x7e,0x7e,0x7e,0x00,0x00,0x7e,0x7e,0x7e,0x7e,0x7e,0x7e,0x00,0x00,0x7e,0x7e,0x7e,0x7e,0x7e,0x7e,0x00,0x00,0x7e,0x7e,0x7e,0x7e,0x7e,0x7e,0x00,0x00,0xff,0xff,0xff,0xff,0xff,0xff,0x00,0x00,0xff,0xff,0xff,0xff,0xff,0xff,0x00,0x00,0xff,0xff,0xff,0xff,0xff,0xff,0x00,0x00,0xff,0xff,0xff,0xff,0xff,0xff,0x00,0x00,0xff,0xff,0xff,0xff,0xff,0xff,0x00,0x00,0xff,0xff,0xff,0xff,0xff,0xff,0x00,0x00,0xff,0xff,0xff,0xff,0xff,0xff,0x00,0x00,0xff,0xff,0xff,0xff,0xff,0xff,0x00,0x80,0x81,0x81,0x01,0x80,0x81,0x81,0x01,0x80,0x81,0x81,0x01,0x80,0x81,0x81,0x01,0x80,0x81,0x81,0x01,0x80,0x81,0x81,0x01,0x80,0x81,0x81,0x01,0x80,0x81,0x81,0x01,0x80,0x81,0x81,0x01,0x80,0x81,0x81,0x01,0x80,0x81,0x81,0x01,0x80,0x81,0x81,0x01,0x80,0x81,0x81,0x01,0x80,0x81,0x81,0x01,0x80,0x81,0x81,0x01,0x80,0x81,0x81,0x01,0xc0,0xc3,0xc3,0x03,0xc0,0xc3,0xc3,0x03,0xc0,0xc3,0xc3,0x03,0xc0,0xc3,0xc3,0x03,0xc0,0xc3,0xc3,0x03,0xc0,0xc3,0xc3,0x03,0xc0,0xc3,0xc3,0x03,0xc0,0xc3,0xc3,0x03,0xc0,0xc3,0xc3,0x03,0xc0,0xc3,0xc3,0x03,0xc0,0xc3,0xc3,0x03,0xc0,0xc3,0xc3,0x03,0xc0,0xc3,0xc3,0x03,0xc0,0xc3,0xc3,0x03,0xc0,0xc3,0xc3,0x03,0xc0,0xc3,0xc3,0x03,0xe0,0xe7,0xe7,0x07,0xe0,0xe7,0xe7,0x07,0xe0,0xe7,0xe7,0x07,0xe0,0xe7,0xe7,0x07,0xe0,0xe7,0xe7,0x07,0xe0,0xe7,0xe7,0x07,0xe0,0xe7,0xe7,0x07,0xe0,0xe7,0xe7,0x07,0xe0,0xe7,0xe7,0x07,0xe0,0xe7,0xe7,0x07,0xe0,0xe7,0xe7,0x07,0xe0,0xe7,0xe7,0x07,0xe0,0xe7,0xe7,0x07,0xe0,0xe7,0xe7,0x07,0xe0,0xe7,0xe7,0x07,0xe0,0xe7,0xe7,0x07,0xf0,0xff,0xff,0x0f,0xf0,0xff,0xff,0x0f,0xf0,0xff,0xff,0x0f,0xf0,0xff,0xff,0x0f,0xf0,0xff,0xff,0x0f,0xf0,0xff,0xff,0x0f,0xf0,0xff,0xff,0x0f,0xf0,0xff,0xff,0x0f,0xf0,0xff,0xff,0x0f,0xf0,0xff,0xff,0x0f,0xf0,0xff,0xff,0x0f,0xf0,0xff,0xff,0x0f,0xf0,0xff,0xff,0x0f,0xf0,0xff,0xff,0x0f,0xf0,0xff,0xff,0x0f,0xf0,0xff,0xff,0x0f,0x98,0x19,0x98,0x19,0x98,0x19,0x98,0x19,0x98,0x19,0x98,0x19,0x98,0x19,0x98,0x19,0x98,0x19,0x98,0x19,0x98,0x19,0x98,0x19,0x98,0x19,0x98,0x19,0x98,0x19,0x98,0x19,0x98,0x19,0x98,0x19,0x98,0x19,0x98,0x19,0x98,0x19,0x98,0x19,0x98,0x19,0x98,0x19,0x98,0x19,0x98,0x19,0x98,0x19,0x98,0x19,0x98,0x19,0x98,0x19,0x98,0x19,0x98,0x19,0xfc,0x3f,0xfc,0x3f,0xfc,0x3f,0xfc,0x3f,0xfc,0x3f,0xfc,0x3f,0xfc,0x3f,0xfc,0x3f,0xfc,0x3f,0xfc,0x3f,0xfc,0x3f,0xfc,0x3f,0xfc,0x3f,0xfc,0x3f,0xfc,0x3f,0xfc,0x3f,0xfc,0x3f,0xfc,0x3f,0xfc,0x3f,0xfc,0x3f,0xfc,0x3f,0xfc,0x3f,0xfc,0x3f,0xfc,0x3f,0xfc,0x3f,0xfc,0x3f,0xfc,0x3f,0xfc,0x3f,0xfc,0x3f,0xfc,0x3f,0xfc,0x3f,0xfc,0x3f,0x7e,0x7e,0x7e,0x7e,0x7e,0x7e,0x7e,0x7e,0x7e,0x7e,0x7e,0x7e,0x7e,0x7e,0x7e,0x7e,0x7e,0x7e,0x7e,0x7e,0x7e,0x7e,0x7e,0x7e,0x7e,0x7e,0x7e,0x7e,0x7e,0x7e,0x7e,0x7e,0x7e,0x7e,0x7e,0x7e,0x7e,0x7e,0x7e,0x7e,0x7e,0x7e,0x7e,0x7e,0x7e,0x7e,0x7e,0x7e,0x7e,0x7e,0x7e,0x7e,0x7e,0x7e,0x7e,0x7e,0x7e,0x7e,0x7e,0x7e,0x7e,0x7e,0x7e,0x7e,0xff,0xff,0x7f,0xff,0xff,0xff,0xff,0xff,0xff,0xff,0xff,0xff,0xff,0xff,0xff,0xff,0xff,0xff,0xff,0xff,0xff,0xff,0xff,0xff,0xff,0xff,0xff,0xff,0xff,0xff,0xff,0xff,0xff,0xff,0xff,0xff,0xff,0xff,0xff,0xff,0xff,0xff,0xff,0xff,0xff,0xff,0xff,0xff,0xff,0xff,0xff,0xff,0xff,0xff,0xff,0xff,0xff,0xff,0xff,0xff,0xff,0xff,0xff,0xff};
