#define x_width 256
#define x_height 256
static char x_bits[] = {
0x00,0x00,0x00,0x00,0x00,0x00,0x00,0x00,0x00,0x00,0x00,0x00,0x00,0x00,0x00,0x00,0x00,0x00,0x00,0x00,0x00,0x00,0x00,0x00,0x00,0x00,0x00,0x00,0x00,0x00,0x00,0x00,0x00,0x00,0x00,0x00,0x00,0x00,0x00,0x00,0x00,0x00,0x00,0x00,0x00,0x00,0x00,0x00,0x00,0x00,0x00,0x00,0x00,0x00,0x00,0x00,0x00,0x00,0x00,0x00,0x00,0x00,0x00,0x00,0x00,0x00,0x00,0x00,0x00,0x00,0x00,0x00,0x00,0x00,0x00,0x00,0x00,0x00,0x00,0x00,0x00,0x00,0x00,0x00,0x00,0x00,0x00,0x00,0x00,0x00,0x00,0x00,0x00,0x00,0x00,0x00,0x00,0x00,0x00,0x00,0x00,0x00,0x00,0x00,0x00,0x00,0x00,0x00,0x00,0x00,0x00,0x00,0x00,0x00,0x00,0x00,0x00,0x00,0x00,0x00,0x00,0x00,0x00,0x00,0x00,0x00,0x00,0x00,0x00,0x00,0x00,0x00,0x00,0x00,0x00,0x00,0x00,0x00,0x00,0x00,0x00,0x00,0x00,0x00,0x00,0x00,0x00,0x00,0x00,0x00,0x00,0x00,0x00,0x00,0x00,0x00,0x00,0x00,0x00,0x00,0x00,0x00,0x00,0x00,0x00,0x00,0x00,0x00,0x00,0x00,0x00,0x00,0x00,0x00,0x00,0x00,0x00,0x00,0x00,0x00,0x00,0x00,0x00,0x00,0x00,0x00,0x00,0x00,0x00,0x00,0x00,0x00,0x00,0x00,0x00,0x00,0x00,0x00,0x00,0x00,0x00,0x00,0x00,0x00,0x00,0x00,0x00,0x00,0x00,0x00,0x00,0x00,0x00,0x00,0x00,0x00,0x00,0x00,0x00,0x00,0x00,0x00,0x00,0x00,0x00,0x00,0x00,0x00,0x00,0x00,0x00,0x00,0x00,0x00,0x00,0x00,0x00,0x00,0x00,0x00,0x00,0x00,0x00,0x00,0x00,0x00,0x00,0x00,0x00,0x00,0x00,0x00,0x00,0x00,0x00,0x00,0x00,0x00,0x00,0x00,0x00,0x00,0x00,0x00,0x00,0x00,0x00,0x00,0x00,0x00,0x00,0x00,0x00,0x00,0x00,0x00,0x00,0x00,0x00,0x00,0x00,0x00,0x00,0x00,0x00,0x00,0x00,0x00,0x00,0x00,0x00,0x00,0x00,0x00,0x00,0x00,0x00,0x00,0x00,0x00,0x00,0x00,0x00,0x00,0x00,0x00,0x00,0x00,0x00,0x00,0x00,0x00,0x00,0x00,0x00,0x00,0x00,0x00,0x00,0x00,0x00,0x00,0x00,0x00,0x00,0x00,0x00,0x00,0x00,0x00,0x00,0x00,0x00,0x00,0x00,0x00,0x00,0x00,0x00,0x00,0x00,0x00,0x00,0x00,0x00,0x00,0x00,0x00,0x00,0x00,0x00,0x00,0x00,0x00,0x00,0x00,0x00,0x00,0x00,0x00,0x00,0x00,0x00,0x00,0x00,0x00,0x00,0x00,0x00,0x00,0x00,0x00,0x00,0x00,0x00,0x00,0x00,0x00,0x00,0x00,0x00,0x00,0x00,0x00,0x00,0x00,0x00,0x00,0x00,0x00,0x00,0x00,0x00,0x00,0x00,0x00,0x00,0x00,0x00,0x00,0x00,0x00,0x00,0x00,0x00,0x00,0x00,0x00,0x00,0x00,0x00,0x00,0x00,0x00,0x00,0x00,0x00,0x00,0x00,0x00,0x00,0x00,0x00,0x00,0x00,0x00,0x00,0x00,0x00,0x00,0x00,0x00,0x00,0x00,0x00,0x00,0x00,0x00,0x00,0x00,0x00,0x00,0x00,0x00,0x00,0x00,0x00,0x00,0x00,0x00,0x00,0x00,0x00,0x00,0x00,0x00,0x00,0x00,0x00,0x00,0x00,0x00,0x00,0x00,0x00,0x00,0x00,0x00,0x00,0x00,0x00,0x00,0x00,0x00,0x00,0x00,0x00,0x00,0x00,0x00,0x00,0x00,0x00,0x00,0x00,0x00,0x00,0x00,0x00,0x00,0x00,0x00,0x00,0x00,0x00,0x00,0x00,0x00,0x00,0x00,0x00,0x00,0x00,0x00,0x00,0x00,0x00,0x00,0x00,0x00,0x00,0x00,0x00,0x00,0x00,0x00,0x00,0x00,0x00,0x00,0x00,0x00,0x00,0x00,0x00,0x00,0x00,0x00,0x00,0x00,0x00,0x00,0x00,0x00,0x00,0x00,0x00,0x00,0x00,0x00,0x00,0x00,0x00,0x00,0x00,0x00,0x00,0x00,0x00,0x00,0x00,0x00,0x00,0x00,0x00,0x00,0x00,0x00,0x00,0x00,0x00,0x00,0x00,0x00,0x00,0x00,0x00,0x00,0x00,0x00,0x00,0x00,0x00,0x00,0x00,0x00,0x00,0x00,0x00,0x00,0x00,0x00,0x00,0x00,0x00,0x00,0x00,0x00,0x00,0x00,0x00,0x00,0x00,0x00,0x00,0x00,0x00,0x00,0x00,0x00,0x00,0x00,0x00,0x00,0x00,0x00,0x00,0x00,0x00,0x00,0x00,0x00,0x00,0x00,0x00,0x00,0x00,0x00,0x00,0x00,0x00,0x00,0x00,0x00,0x00,0x00,0x00,0x00,0x00,0x00,0x00,0x00,0x00,0x00,0x00,0x00,0x00,0x00,0x00,0x00,0x00,0x00,0x00,0x00,0x00,0x00,0x00,0x00,0x00,0x00,0x00,0x00,0x00,0x00,0x00,0x00,0x00,0x00,0x00,0x00,0x00,0x00,0x00,0x00,0x00,0x00,0x00,0x00,0x00,0x00,0x00,0x00,0x00,0x00,0x00,0x00,0x00,0x00,0x00,0x00,0x00,0x00,0x00,0x00,0x00,0x00,0x00,0x00,0x00,0x00,0x00,0x00,0x00,0x00,0x00,0x00,0x00,0x00,0x00,0x00,0x00,0x00,0x00,0x00,0x00,0x00,0x00,0x00,0x00,0x00,0x00,0x00,0x00,0x00,0x00,0x00,0x00,0x00,0x00,0x00,0x00,0x00,0x00,0x00,0x00,0x00,0x00,0x00,0x00,0x00,0x00,0x00,0x00,0x00,0x00,0x00,0x00,0x00,0x00,0x00,0x00,0x00,0x00,0x00,0x00,0x00,0x00,0x00,0x00,0x00,0x00,0x00,0x00,0x00,0x00,0x00,0x00,0x00,0x00,0x00,0x00,0x00,0x00,0x00,0x00,0x00,0x00,0x00,0x00,0x00,0x00,0x00,0x00,0x00,0x00,0x00,0x00,0x00,0x00,0x00,0x00,0x00,0x00,0x00,0x00,0x00,0x00,0x00,0x00,0x00,0x00,0x00,0x00,0x00,0x00,0x00,0x00,0x00,0x00,0x00,0x00,0x00,0x00,0x00,0x00,0x00,0x00,0x00,0x00,0x00,0x00,0x00,0x00,0x00,0x00,0x00,0x00,0x00,0x00,0x00,0x00,0x00,0x00,0x00,0x00,0x00,0x00,0x00,0x00,0x00,0x00,0x00,0x00,0x00,0x00,0x00,0x00,0x00,0x00,0x00,0x00,0x00,0x00,0x00,0x00,0x00,0x00,0x00,0x00,0x00,0x00,0x00,0x00,0x00,0x00,0x00,0x00,0x00,0x00,0x00,0x00,0x00,0x00,0x00,0x00,0x00,0x00,0x00,0x00,0x00,0x00,0x00,0x00,0x00,0x00,0x00,0x00,0x00,0x00,0x00,0x00,0x00,0x00,0x00,0x00,0x00,0x00,0x00,0x00,0x00,0x00,0x00,0x00,0x00,0x00,0x00,0x00,0x00,0x00,0x00,0x00,0x00,0x00,0x00,0x00,0x00,0x00,0x00,0x00,0x00,0x00,0x00,0x00,0x00,0x00,0x00,0x00,0x00,0x00,0x00,0x00,0x00,0x00,0x00,0x00,0x00,0x00,0x00,0x00,0x00,0x00,0x00,0x00,0x00,0x00,0x00,0x00,0x00,0x00,0x00,0x00,0x00,0x00,0x00,0x00,0x00,0x00,0x00,0x00,0x00,0x00,0x00,0x00,0x00,0x00,0x00,0x00,0x00,0x00,0x00,0x00,0x00,0x00,0x00,0x00,0x00,0x00,0x00,0x00,0x00,0x00,0x00,0x00,0x00,0x00,0x00,0x00,0x00,0x00,0x00,0x00,0x00,0x00,0x00,0x00,0x00,0x00,0x00,0x00,0x00,0x00,0x00,0x00,0x00,0x00,0x00,0x00,0x00,0x00,0x00,0x00,0x00,0x00,0x00,0x00,0x00,0x00,0x00,0x00,0x00,0x00,0x00,0x00,0x00,0x00,0x00,0x00,0x00,0x00,0x00,0x00,0x00,0x00,0x00,0x00,0x00,0x00,0x00,0x00,0x00,0x00,0x00,0x00,0x00,0x00,0x00,0x00,0x00,0x00,0x00,0x00,0x00,0x00,0x00,0x00,0x00,0x00,0x00,0x00,0x00,0x00,0x00,0x00,0x00,0x00,0x00,0x00,0x00,0x00,0x00,0x00,0x00,0x00,0x00,0x00,0x00,0x00,0x00,0x00,0x00,0x00,0x00,0x00,0x00,0x00,0x00,0x00,0x00,0x00,0x00,0x00,0x00,0x00,0x00,0x00,0x00,0x00,0x00,0x00,0x00,0x00,0x00,0x00,0x00,0x00,0x00,0x00,0x00,0x00,0x00,0x00,0x00,0x00,0x00,0x00,0x00,0x00,0x00,0x00,0x00,0x00,0x00,0x00,0x00,0x00,0x00,0x00,0x00,0x00,0x00,0x00,0x00,0x00,0x00,0x00,0x00,0x00,0x00,0x00,0x00,0x00,0x00,0x00,0x00,0x00,0x00,0x00,0x00,0x00,0x00,0x00,0x00,0x00,0x00,0x00,0x00,0x00,0x00,0x00,0x00,0x00,0x00,0x00,0x00,0x00,0x00,0x00,0x00,0x00,0x00,0x00,0x00,0x00,0x00,0x00,0x00,0x00,0x00,0x00,0x00,0x00,0x00,0x00,0x00,0x00,0x00,0x00,0x00,0x00,0x00,0x00,0x00,0x00,0x00,0x00,0x00,0x00,0x00,0x00,0x00,0x00,0x00,0x00,0x00,0x00,0x00,0x00,0x00,0x00,0x00,0x00,0x00,0x00,0x00,0x00,0x00,0x00,0x00,0x00,0x00,0x00,0x00,0x00,0x00,0x00,0x00,0x00,0x00,0x00,0x00,0x00,0x00,0x00,0x00,0x00,0x00,0x00,0x00,0x00,0x00,0x00,0x00,0x00,0x00,0x00,0x00,0x00,0x00,0x00,0x00,0x00,0x00,0x00,0x00,0x00,0x00,0x00,0x00,0x00,0x00,0x00,0x00,0x00,0x00,0x00,0x00,0x00,0x00,0x00,0x00,0x00,0x00,0x00,0x00,0x00,0x00,0x00,0x00,0x00,0x00,0x00,0x00,0x00,0x00,0x00,0x00,0x00,0x00,0x00,0x00,0x00,0x00,0x00,0x00,0x00,0x00,0x00,0x00,0x00,0x00,0x00,0x00,0x00,0x00,0x00,0x00,0x00,0x00,0x00,0x00,0x00,0x00,0x00,0x00,0x00,0x00,0x00,0x00,0x00,0x00,0x00,0x00,0x00,0x00,0x00,0x00,0x00,0x00,0x00,0x00,0x00,0x00,0x00,0x00,0x00,0x00,0x00,0x00,0x00,0x00,0x00,0x00,0x00,0x00,0x00,0x00,0x00,0x00,0x00,0x00,0x00,0x00,0x00,0x00,0x00,0x00,0x00,0x00,0x00,0x00,0x00,0x00,0x00,0x00,0x00,0x00,0x00,0x00,0x00,0x00,0x00,0x00,0x00,0x00,0x00,0x00,0x00,0x00,0x00,0x00,0x00,0x00,0x00,0x00,0x00,0x00,0x00,0x00,0x00,0x00,0x00,0x00,0x00,0x00,0x00,0x00,0x00,0x00,0x00,0x00,0x00,0x00,0x00,0x00,0x00,0x00,0x00,0x00,0x00,0x00,0x00,0x00,0x00,0x00,0x00,0x00,0x00,0x00,0x00,0x00,0x00,0x00,0x00,0x00,0x00,0x00,0x00,0x00,0x00,0x00,0x00,0x00,0x00,0x00,0x00,0x00,0x00,0x00,0x00,0x00,0x00,0x00,0x00,0x00,0x00,0x00,0x00,0x00,0x00,0x00,0x00,0x00,0x00,0x00,0x00,0x00,0x00,0x00,0x00,0x00,0x00,0x00,0x00,0x00,0x00,0x00,0x00,0x00,0x00,0x00,0x00,0x00,0x00,0x00,0x00,0x00,0x00,0x00,0x00,0x00,0x00,0x00,0x00,0x00,0x00,0x00,0x00,0x00,0x00,0x00,0x00,0x00,0x00,0x00,0x00,0x00,0x00,0x00,0x00,0x00,0x00,0x00,0x00,0x00,0x00,0x00,0x00,0x00,0x00,0x00,0x00,0x00,0x00,0x00,0x00,0x00,0x00,0x00,0x00,0x00,0x00,0x00,0x00,0x00,0x00,0x00,0x00,0x00,0x00,0x00,0x00,0x00,0x00,0x00,0x00,0x00,0x00,0x00,0x00,0x00,0x00,0x00,0x00,0x00,0x00,0x00,0x00,0x00,0x00,0x00,0x00,0x00,0x00,0x00,0x00,0x00,0x00,0x00,0x00,0x00,0x00,0x00,0x00,0x00,0x00,0x00,0x00,0x00,0x00,0x00,0x00,0x00,0x00,0x00,0x00,0x00,0x00,0x00,0x00,0x00,0x00,0x00,0x00,0x00,0x00,0x00,0x00,0x00,0x00,0x00,0x00,0x00,0x00,0x00,0x00,0x00,0x00,0x00,0x00,0x00,0x00,0x00,0x00,0x00,0x00,0x00,0x00,0x00,0x00,0x00,0x00,0x00,0x00,0x00,0x00,0x00,0x00,0x00,0x00,0x00,0x00,0x00,0x00,0x00,0x00,0x00,0x00,0x00,0x00,0x00,0x00,0x00,0x00,0x00,0x00,0x00,0x00,0x00,0x00,0x00,0x00,0x00,0x00,0x00,0x00,0x00,0x00,0x00,0x00,0x00,0x00,0x00,0x00,0x00,0x00,0x00,0x00,0x00,0x00,0x00,0x00,0x00,0x00,0x00,0x00,0x00,0x00,0x00,0x00,0x00,0x00,0x00,0x00,0x00,0x00,0x00,0x00,0x00,0x00,0x00,0x00,0x00,0x00,0x00,0x00,0x00,0x00,0x00,0x00,0x00,0x00,0x00,0x00,0x00,0x00,0x00,0x00,0x00,0x00,0x00,0x00,0x00,0x00,0x00,0x00,0x00,0x00,0x00,0x00,0x00,0x00,0x00,0x00,0x00,0x00,0x00,0x00,0x00,0x00,0x00,0x00,0x00,0x00,0x00,0x00,0x00,0x00,0x00,0x00,0x00,0x00,0x00,0x00,0x00,0x00,0x00,0x00,0x00,0x00,0x00,0x00,0x00,0x00,0x00,0x00,0x00,0x00,0x00,0x00,0x00,0x00,0x00,0x00,0x00,0x00,0x00,0x00,0x00,0x00,0x00,0x00,0x00,0x00,0x00,0x00,0x00,0x00,0x00,0x00,0x00,0x00,0x00,0x00,0x00,0x00,0x00,0x00,0x00,0x00,0x00,0x00,0x00,0x00,0x00,0x00,0x00,0x00,0x00,0x00,0x00,0x00,0x00,0x00,0x00,0x00,0x00,0x00,0x00,0x00,0x00,0x00,0x00,0x00,0x00,0x00,0x00,0x00,0x00,0x00,0x00,0x00,0x00,0x00,0x00,0x00,0x00,0x00,0x00,0x00,0x00,0x00,0x00,0x00,0x00,0x00,0x00,0x00,0x00,0x00,0x00,0x00,0x00,0x00,0x00,0x00,0x00,0x00,0x00,0x00,0x00,0x00,0x00,0x00,0x00,0x00,0x00,0x00,0x00,0x00,0x00,0x00,0x00,0x00,0x00,0x00,0x00,0x00,0x00,0x00,0x00,0x00,0x00,0x00,0x00,0x00,0x00,0x00,0x00,0x00,0x00,0x00,0x00,0x00,0x00,0x00,0x00,0x00,0x00,0x00,0x00,0x00,0x00,0x00,0x00,0x00,0x00,0x00,0x00,0x00,0x00,0x00,0x00,0x00,0x00,0x00,0x00,0x00,0x00,0x00,0x00,0x00,0x00,0x00,0x00,0x00,0x00,0x00,0x00,0x00,0x00,0x00,0x00,0x00,0x00,0x00,0x00,0x00,0x00,0x00,0x00,0x00,0x00,0x00,0x00,0x00,0x00,0x00,0x00,0x00,0x00,0x00,0x00,0x00,0x00,0x00,0x00,0x00,0x00,0x00,0x00,0x00,0x00,0x00,0x00,0x00,0x00,0x00,0x00,0x00,0x00,0x00,0x00,0x00,0x00,0x00,0x00,0x00,0x00,0x00,0x00,0x00,0x00,0x00,0x00,0x00,0x00,0x00,0x00,0x00,0x00,0x00,0x00,0x00,0x00,0x00,0x00,0x00,0x00,0x00,0x00,0x00,0x00,0x00,0x00,0x00,0x00,0x00,0x00,0x00,0x00,0x00,0x00,0x00,0x00,0x00,0x00,0x00,0x00,0x00,0x00,0x00,0x00,0x00,0x00,0x00,0x00,0x00,0x00,0x00,0x00,0x00,0x00,0x00,0x00,0x00,0x00,0x00,0x00,0x00,0x00,0x00,0x00,0x00,0x00,0x00,0x00,0x00,0x00,0x00,0x00,0x00,0x00,0x00,0x00,0x00,0x00,0x00,0x00,0x00,0x00,0x00,0x00,0x00,0x00,0x00,0x00,0x00,0x00,0x00,0x00,0x00,0x00,0x00,0x00,0x00,0x00,0x00,0x00,0x00,0x00,0x00,0x00,0x00,0x00,0x00,0x00,0x00,0x00,0x00,0x00,0x00,0x00,0x00,0x00,0x00,0x00,0x00,0x00,0x00,0x00,0x00,0x00,0x00,0x00,0x00,0x00,0x00,0x00,0x00,0x00,0x00,0x00,0x00,0x00,0x00,0x00,0x00,0x00,0x00,0x00,0x00,0x00,0x00,0x00,0x00,0x00,0x00,0x00,0x00,0x00,0x00,0x00,0x00,0x00,0x00,0x00,0x00,0x00,0x00,0x00,0x00,0x00,0x00,0x00,0x00,0x00,0x00,0x00,0x00,0x00,0x00,0x00,0x00,0x00,0x00,0x00,0x00,0x00,0x00,0x00,0x00,0x00,0x00,0x00,0x00,0x00,0x00,0x00,0x00,0x00,0x00,0x00,0x00,0x00,0x00,0x00,0x00,0x00,0x00,0x00,0x00,0x00,0x00,0x00,0x00,0x00,0x00,0x00,0x00,0x00,0x00,0x00,0x00,0x00,0x00,0x00,0x00,0x00,0x00,0x00,0x00,0x00,0x00,0x00,0x00,0x00,0x00,0x00,0x00,0x00,0x00,0x00,0x00,0x00,0x00,0x00,0x00,0x00,0x00,0x00,0x00,0x00,0x00,0x00,0x00,0x00,0x00,0x00,0x00,0x00,0x00,0x00,0x00,0x00,0x00,0x00,0x00,0x00,0x00,0x00,0x00,0x00,0x00,0x00,0x00,0x00,0x00,0x00,0x00,0x00,0x00,0x00,0x00,0x00,0x00,0x00,0x00,0x00,0x00,0x00,0x00,0x00,0x00,0x00,0x00,0x00,0x00,0x00,0x00,0x00,0x00,0x00,0x00,0x00,0x00,0x00,0x00,0x00,0x00,0x00,0x00,0x00,0x00,0x00,0x00,0x00,0x00,0x00,0x00,0x00,0x00,0x00,0x00,0x00,0x00,0x00,0x00,0x00,0x00,0x00,0x00,0x00,0x00,0x00,0x00,0x00,0x00,0x00,0x00,0x00,0x00,0x00,0x00,0x00,0x00,0x00,0x00,0x00,0x00,0x00,0x00,0x00,0x00,0x00,0x00,0x00,0x00,0x00,0x00,0x00,0x00,0x00,0x00,0x00,0x00,0x00,0x00,0x00,0x00,0x00,0x00,0x00,0x00,0x00,0x00,0x00,0x00,0x00,0x00,0x00,0x00,0x00,0x00,0x00,0x00,0x00,0x00,0x00,0x00,0x00,0x00,0x00,0x00,0x00,0x00,0x00,0x00,0x00,0x00,0x00,0x00,0x00,0x00,0x00,0x00,0x00,0x00,0x00,0x00,0x00,0x00,0x00,0x00,0x00,0x00,0x00,0x00,0x00,0x00,0x00,0x00,0x00,0x00,0x00,0x00,0x00,0x00,0x00,0x00,0x00,0x00,0x00,0x00,0x00,0x00,0x00,0x00,0x00,0x00,0x00,0x00,0x00,0x00,0x00,0x00,0x00,0x00,0x00,0x00,0x00,0x00,0x00,0x00,0x00,0x00,0x00,0x00,0x00,0x00,0x00,0x00,0x00,0x00,0x00,0x00,0x00,0x00,0x00,0x00,0x00,0x00,0x00,0x00,0x00,0x00,0x00,0x00,0x00,0x00,0x00,0x00,0x00,0x00,0x00,0x00,0x00,0x00,0x00,0x00,0x00,0x00,0x00,0x00,0x00,0x00,0x00,0x00,0x00,0x00,0x00,0x00,0x00,0x00,0x00,0x00,0x00,0x00,0x00,0x00,0x00,0x00,0x00,0x00,0x00,0x00,0x00,0x00,0x00,0x00,0x00,0x00,0x00,0x00,0x00,0x00,0x00,0x00,0x00,0x00,0x00,0x00,0x00,0x00,0x00,0x00,0x00,0x00,0x00,0x00,0x00,0x00,0x00,0x00,0x00,0x00,0x00,0x00,0x00,0x00,0x00,0x00,0x00,0x00,0x00,0x00,0x00,0x00,0x00,0x00,0x00,0x00,0x00,0x00,0x00,0x00,0x00,0x00,0x00,0x00,0x00,0x00,0x00,0x00,0x00,0x00,0x00,0x00,0x00,0x00,0x00,0x00,0x00,0x00,0x00,0x00,0x00,0x00,0x00,0x00,0x00,0x00,0x00,0x00,0x00,0x00,0x00,0x00,0x00,0x00,0x00,0x00,0x00,0x00,0x00,0x00,0x00,0x00,0x00,0x00,0x00,0x00,0x00,0x00,0x00,0x00,0x00,0x00,0x00,0x00,0x00,0x00,0x00,0x00,0x00,0x00,0x00,0x00,0x00,0x00,0x00,0x00,0x00,0x00,0x00,0x00,0x00,0x00,0x00,0x00,0x00,0x00,0x00,0x00,0x00,0x00,0x00,0x00,0x00,0x00,0x00,0x00,0x00,0x00,0x00,0x00,0x00,0x00,0x00,0x00,0x00,0x00,0x00,0x00,0x00,0x00,0x00,0x00,0x00,0x00,0x00,0x00,0x00,0x00,0x00,0x00,0x00,0x00,0x00,0x00,0x00,0x00,0x00,0x00,0x00,0x00,0xf8,0x03,0xe0,0x07,0x00,0x00,0x00,0x77,0xdc,0x1d,0x00,0x00,0x00,0x00,0x00,0x77,0xdc,0x1d,0x00,0x00,0xc0,0x39,0xe6,0x0e,0x00,0x00,0xe0,0x8e,0xbb,0x03,0x00,0x00,0xf8,0x03,0xe0,0x07,0x00,0x00,0x00,0x77,0xdc,0x1d,0x00,0x00,0x00,0x00,0x00,0x77,0xdc,0x1d,0x00,0x00,0xc0,0x39,0xe6,0x0e,0x00,0x00,0xe0,0x8e,0xbb,0x03,0x00,0x00,0xf8,0x03,0xe0,0x07,0x00,0x00,0x00,0x77,0xdc,0x1d,0x00,0x00,0x00,0x00,0x00,0x77,0xdc,0x1d,0x00,0x00,0xc0,0x39,0x66,0x0e,0x00,0x00,0xe0,0x8e,0xbb,0x03,0x00,0x00,0xf8,0x03,0xe0,0x07,0x00,0x00,0x00,0x73,0xdc,0x1d,0x00,0x00,0x00,0x00,0x00,0x73,0xdc,0x1d,0x00,0x00,0x80,0x39,0x66,0x0e,0x00,0x00,0x60,0x8e,0xbb,0x03,0x00,0x00,0xf8,0xb7,0xff,0x07,0x00,0x00,0x00,0x70,0xdc,0x1d,0x00,0x00,0x00,0x00,0x00,0x70,0xdc,0x1d,0x00,0x00,0x00,0x38,0xe6,0x0e,0x00,0x00,0x00,0x8e,0xbb,0x03,0x00,0x00,0xe0,0xb6,0xdf,0x03,0x00,0x00,0x00,0x77,0xdc,0x1d,0x00,0x00,0x00,0x00,0x00,0x77,0xdc,0x1d,0x00,0x00,0xc0,0x39,0xe6,0x0e,0x00,0x00,0xe0,0x8e,0xbb,0x03,0x00,0x00,0xf8,0xff,0xff,0x07,0x00,0x00,0x00,0xff,0xef,0x0e,0x00,0x00,0x00,0x00,0x00,0xff,0xef,0x0e,0x00,0x00,0xc0,0xff,0x77,0x07,0x00,0x00,0xe0,0xff,0xdd,0x01,0x00,0x00,0xf8,0xff,0xfe,0x07,0x00,0x00,0x00,0xff,0xef,0x0e,0x00,0x00,0x00,0x00,0x00,0xff,0xef,0x0e,0x00,0x00,0xc0,0xff,0x77,0x07,0x00,0x00,0xe0,0xff,0xdd,0x01,0x00,0x00,0xf8,0xff,0xfe,0x07,0x00,0x00,0x00,0xfb,0xef,0x0e,0x00,0x00,0x00,0x00,0x00,0xfb,0xef,0x0e,0x00,0x00,0x80,0xff,0x77,0x07,0x00,0x00,0x60,0xff,0xdd,0x01,0x00,0x00,0x00,0xfe,0x1e,0x00,0x00,0x00,0x00,0xff,0xef,0x0e,0x00,0x00,0x00,0x00,0x00,0xff,0xef,0x0e,0x00,0x00,0xc0,0xff,0x77,0x07,0x00,0x00,0xe0,0xff,0xdd,0x01,0x00,0x00,0x00,0xfe,0x1e,0x00,0x00,0x00,0x00,0xff,0xef,0x0e,0x00,0x00,0x00,0x00,0x00,0xff,0xeb,0x0e,0x00,0x00,0xc0,0xff,0x77,0x07,0x00,0x00,0xe0,0xff,0xdd,0x01,0x00,0x00,0x00,0xfe,0x1f,0x00,0x00,0x00,0x00,0xff,0xef,0x0e,0x00,0x00,0x00,0x00,0x00,0xff,0xef,0x0e,0x00,0x00,0xc0,0xff,0x77,0x07,0x00,0x00,0xe0,0xff,0xdd,0x01,0x00,0x00,0x00,0xb6,0x1f,0x00,0x00,0x00,0x00,0xdb,0xc6,0x0c,0x00,0x00,0x00,0x00,0x00,0xdb,0xc6,0x0c,0x00,0x00,0x80,0x6d,0x33,0x03,0x00,0x00,0x60,0x9b,0x99,0x01,0x00,0x00,0x00,0xb6,0x1f,0x00,0x00,0x00,0x00,0xfb,0xef,0x0e,0x00,0x00,0x00,0x00,0x00,0xfb,0xef,0x0e,0x00,0x00,0x80,0xff,0x77,0x07,0x00,0x00,0x60,0xff,0xdd,0x01,0x00,0x00,0x00,0x00,0x00,0x00,0x00,0x00,0x00,0xfb,0xef,0x0e,0x00,0x00,0x00,0x00,0x00,0xfb,0xef,0x0e,0x00,0x00,0x80,0xff,0x77,0x07,0x00,0x00,0x60,0xff,0xdd,0x01,0x00,0x00,0x00,0x00,0x00,0x00,0x00,0x00,0x00,0xdf,0xc6,0x0c,0x00,0x00,0x00,0x00,0x00,0xdf,0xc6,0x0c,0x00,0x00,0xc0,0x6d,0x33,0x03,0x00,0x00,0xe0,0x9b,0x99,0x01,0x00,0x00,0x00,0x00,0x00,0x00,0x00,0x00,0x00,0xff,0xef,0x0e,0x00,0x00,0x00,0x00,0x00,0xff,0xef,0x0e,0x00,0x00,0xc0,0xff,0x77,0x07,0x00,0x00,0xe0,0xff,0xdd,0x01,0x00,0x00,0x00,0x00,0x00,0x00,0x00,0x00,0x00,0xff,0xff,0x1f,0x00,0x00,0x00,0x00,0x00,0xff,0xff,0x1f,0x00,0x00,0xc0,0x7f,0xf7,0x0f,0x00,0x00,0xe0,0xbf,0xbf,0x03,0x00,0x00,0x00,0x00,0x00,0x00,0x00,0x00,0x00,0x73,0xdc,0x1d,0x00,0x00,0x00,0x00,0x00,0x73,0xdc,0x1d,0x00,0x00,0x80,0x39,0xe6,0x0e,0x00,0x00,0x60,0x8e,0xbb,0x03,0x00,0x00,0xf8,0x03,0xe0,0x07,0x00,0x00,0x00,0x73,0xdc,0x1d,0x00,0x00,0x00,0x00,0x00,0x73,0xdc,0x1d,0x00,0x00,0x80,0x39,0x66,0x0e,0x00,0x00,0x60,0x8e,0xbb,0x03,0x00,0x00,0xf8,0x03,0xe0,0x07,0x00,0x00,0x00,0x77,0xdc,0x1d,0x00,0x00,0x00,0x00,0x00,0x77,0xdc,0x1d,0x00,0x00,0xc0,0x39,0x66,0x0e,0x00,0x00,0xe0,0x8e,0xbb,0x03,0x00,0x00,0xf8,0x03,0xe0,0x07,0x00,0x00,0x00,0x77,0xdc,0x1d,0x00,0x00,0x00,0x00,0x00,0x77,0xdc,0x1d,0x00,0x00,0xc0,0x39,0xe6,0x0e,0x00,0x00,0xe0,0x8e,0xbb,0x03,0x00,0x00,0xf8,0xb7,0xff,0x07,0x00,0x00,0x00,0x77,0xdc,0x1d,0x00,0x00,0x00,0x00,0x00,0x77,0xdc,0x1d,0x00,0x00,0xc0,0x39,0xe6,0x0e,0x00,0x00,0xe0,0x8e,0xbb,0x03,0x00,0x00,0xf8,0xb7,0xff,0x07,0xc0,0x1f,0x00,0x3f,0x00,0x7e,0x00,0xfc,0x01,0xf0,0x03,0xe0,0x0f,0x00,0x00,0xfc,0x01,0xf0,0x03,0x00,0x00,0x7e,0x00,0xfc,0x01,0x00,0x00,0x00,0xf8,0xb7,0xff,0x07,0xc0,0x1f,0x00,0x3f,0x00,0x7e,0x00,0xfc,0x01,0xf0,0x03,0xe0,0x0f,0x00,0x00,0xfc,0x01,0xf0,0x03,0x00,0x00,0x7e,0x00,0xfc,0x01,0x00,0x00,0x00,0xf8,0xff,0xff,0x07,0xc0,0xff,0xfd,0x3f,0x00,0xfe,0xe7,0xff,0x01,0xf0,0x3f,0xff,0x0f,0x00,0x00,0xfc,0xdb,0xfb,0x03,0x00,0x00,0xfe,0xe7,0xff,0x01,0x00,0x00,0x00,0xf8,0xff,0xfe,0x07,0xc0,0xff,0xff,0x3f,0x00,0xfe,0xff,0xff,0x01,0xf0,0xff,0xff,0x0f,0x00,0x00,0xfc,0xff,0xff,0x03,0x00,0x00,0xfe,0xff,0xff,0x01,0x00,0x00,0x00,0xf8,0xff,0xfe,0x07,0xc0,0xff,0xff,0x3f,0x00,0xfe,0xff,0xfe,0x01,0xf0,0xff,0xf7,0x0f,0x00,0x00,0xfc,0xff,0xff,0x03,0x00,0x00,0xfe,0xff,0xfe,0x01,0x00,0x00,0x00,0x00,0xfe,0x1e,0x00,0x00,0xf0,0xff,0x00,0x00,0x80,0xff,0x07,0x00,0x00,0xfc,0x3f,0x00,0x00,0x00,0x00,0xff,0x1f,0x00,0x00,0x00,0x80,0xff,0x07,0x00,0x00,0x00,0x00,0x00,0xfe,0x1f,0x00,0x00,0xf0,0xfd,0x00,0x00,0x80,0xe7,0x07,0x00,0x00,0x3c,0x3f,0x00,0x00,0x00,0x00,0xdb,0x1b,0x00,0x00,0x00,0x80,0xe7,0x07,0x00,0x00,0x00,0x00,0x00,0xb6,0x1f,0x00,0x00,0x00,0x00,0x00,0x00,0x00,0x00,0x00,0x00,0x00,0x00,0x00,0x00,0x00,0x00,0x00,0x00,0x00,0x00,0x00,0x00,0x00,0x00,0x00,0x00,0x00,0x00,0x00,0x00,0xb6,0x1f,0x00,0x00,0x00,0x00,0x00,0x00,0x00,0x00,0x00,0x00,0x00,0x00,0x00,0x00,0x00,0x00,0x00,0x00,0x00,0x00,0x00,0x00,0x00,0x00,0x00,0x00,0x00,0x00,0x00,0x00,0x94,0x15,0x00,0xc0,0x1f,0x00,0x3f,0x00,0x7e,0x00,0xfc,0x01,0xf0,0x03,0xe0,0x0f,0x00,0x00,0xfc,0x01,0xf0,0x03,0x00,0x00,0x7e,0x00,0xfc,0x01,0x00,0x00,0x00,0x00,0x00,0x00,0x00,0xc0,0x1f,0x00,0x3f,0x00,0x7e,0x00,0xfc,0x01,0xf0,0x03,0xe0,0x0f,0x00,0x00,0xfc,0x01,0xf0,0x03,0x00,0x00,0x7e,0x00,0xfc,0x01,0x00,0x00,0x00,0x00,0x00,0x00,0x00,0xc0,0xff,0xfd,0x3f,0x00,0xfe,0xe7,0xff,0x01,0xf0,0x3f,0xff,0x0f,0x00,0x00,0xfc,0xdb,0xfb,0x03,0x00,0x00,0xfe,0xe7,0xff,0x01,0x00,0x00,0x00,0x00,0x00,0x00,0x00,0xc0,0xff,0xff,0x3f,0x00,0xfe,0xff,0xff,0x01,0xf0,0xff,0xff,0x0f,0x00,0x00,0xfc,0xff,0xff,0x03,0x00,0x00,0xfe,0xff,0xff,0x01,0x00,0x00,0x00,0x00,0x00,0x00,0x00,0xc0,0xff,0xff,0x3f,0x00,0xfe,0xff,0xfe,0x01,0xf0,0xff,0xf7,0x0f,0x00,0x00,0xfc,0xff,0xff,0x03,0x00,0x00,0xfe,0xff,0xfe,0x01,0x00,0x00,0x00,0x98,0x03,0x60,0x06,0x00,0xf0,0xff,0x00,0x00,0x80,0xff,0x07,0x00,0x00,0xfc,0x3f,0x00,0x00,0x00,0x00,0xff,0x1f,0x00,0x00,0x00,0x80,0xff,0x07,0x00,0x00,0x00,0x00,0xf8,0x03,0xe0,0x07,0x00,0xf0,0xfd,0x00,0x00,0x80,0xe7,0x07,0x00,0x00,0x3c,0x3f,0x00,0x00,0x00,0x00,0xdb,0x1b,0x00,0x00,0x00,0x80,0xe7,0x07,0x00,0x00,0x00,0x00,0xf8,0x03,0xe0,0x07,0x00,0x80,0xbd,0x00,0x00,0x80,0xe4,0x05,0x00,0x00,0x30,0x3f,0x00,0x00,0x00,0x00,0xda,0x1a,0x00,0x00,0x00,0x00,0xe5,0x07,0x00,0x00,0x00,0x00,0xf8,0x03,0xe0,0x07,0x00,0x00,0x00,0x00,0x00,0x00,0x00,0x00,0x00,0x00,0x00,0x00,0x00,0x00,0x00,0x00,0x00,0x00,0x00,0x00,0x00,0x00,0x00,0x00,0x00,0x00,0x00,0x00,0xf8,0xb7,0xff,0x07,0xc0,0x1c,0x00,0x33,0x00,0x66,0x00,0x9c,0x01,0x30,0x03,0xe0,0x0c,0x00,0x00,0x9c,0x01,0x30,0x03,0x00,0x00,0x66,0x00,0x9c,0x01,0x00,0x00,0x00,0xe0,0xb6,0xdf,0x03,0xc0,0x1f,0x00,0x3f,0x00,0x7e,0x00,0xfc,0x01,0xf0,0x03,0xe0,0x0f,0x00,0x00,0xfc,0x01,0xf0,0x03,0x00,0x00,0x7e,0x00,0xfc,0x01,0x00,0x00,0x00,0xf8,0xff,0xff,0x07,0xc0,0xff,0xfd,0x3f,0x00,0xfe,0xe7,0xff,0x01,0xf0,0x3f,0xff,0x0f,0x00,0x00,0xfc,0xdb,0xfb,0x03,0x00,0x00,0xfe,0xe7,0xff,0x01,0x00,0x00,0x00,0xf8,0xff,0xfe,0x07,0xc0,0xff,0xff,0x3f,0x00,0xfe,0xff,0xff,0x01,0xf0,0xff,0xff,0x0f,0x00,0x00,0xfc,0xff,0xff,0x03,0x00,0x00,0xfe,0xff,0xff,0x01,0x00,0x00,0x00,0xf8,0xff,0xfe,0x07,0xc0,0xff,0xff,0x3f,0x00,0xfe,0xff,0xfe,0x01,0xf0,0xff,0xf7,0x0f,0x00,0x00,0xfc,0xff,0xff,0x03,0x00,0x00,0xfe,0xff,0xfe,0x01,0x00,0x00,0x00,0x00,0xfe,0x1e,0x00,0x00,0xf0,0xff,0x00,0x00,0x80,0xff,0x06,0x00,0x00,0xfc,0x37,0x00,0x00,0x00,0x00,0xff,0x0f,0x00,0x00,0x00,0x80,0xff,0x06,0x00,0x00,0x00,0x00,0x00,0xfe,0x1e,0x00,0x00,0xf0,0xff,0x00,0x00,0x80,0xff,0x07,0x00,0x00,0xfc,0x3f,0x00,0x00,0x00,0x00,0xff,0x1f,0x00,0x00,0x00,0x80,0xff,0x07,0x00,0x00,0x00,0x00,0x00,0xfe,0x1f,0x00,0x00,0xf0,0xfd,0x00,0x00,0x80,0xe7,0x07,0x00,0x00,0x3c,0x3f,0x00,0x00,0x00,0x00,0xdb,0x1b,0x00,0x00,0x00,0x80,0xe7,0x07,0x00,0x00,0x00,0x00,0x00,0xb6,0x1f,0x00,0x00,0x00,0x00,0x00,0x00,0x00,0x00,0x00,0x00,0x00,0x00,0x00,0x00,0x00,0x00,0x00,0x00,0x00,0x00,0x00,0x00,0x00,0x00,0x00,0x00,0x00,0x00,0x00,0x00,0xb6,0x1f,0x00,0x00,0xf0,0xfd,0x00,0x00,0x80,0xe7,0x07,0x00,0x00,0x3c,0x3f,0x00,0x00,0x00,0x00,0xdb,0x1b,0x00,0x00,0x00,0x80,0xe7,0x07,0x00,0x00,0x00,0x00,0x00,0x00,0x00,0x00,0x00,0xf0,0xff,0x00,0x00,0x80,0xff,0x07,0x00,0x00,0xfc,0x3f,0x00,0x00,0x00,0x00,0xff,0x1f,0x00,0x00,0x00,0x80,0xff,0x07,0x00,0x00,0x00,0x00,0x00,0x00,0x00,0x00,0x00,0xf0,0xff,0x00,0x00,0x80,0xff,0x06,0x00,0x00,0xfc,0x37,0x00,0x00,0x00,0x00,0xff,0x0f,0x00,0x00,0x00,0x80,0xff,0x06,0x00,0x00,0x00,0x00,0x00,0x00,0x00,0x00,0x00,0xf0,0xff,0x00,0x00,0x80,0xff,0x06,0x00,0x00,0xfc,0x37,0x00,0x00,0x00,0x00,0xff,0x0f,0x00,0x00,0x00,0x80,0xff,0x06,0x00,0x00,0x00,0x00,0x00,0x00,0x00,0x00,0xc0,0xff,0xff,0x3f,0x00,0xfe,0xff,0xff,0x01,0xf0,0xff,0xff,0x0f,0x00,0x00,0xfc,0xff,0xff,0x03,0x00,0x00,0xfe,0xff,0xff,0x01,0x00,0x00,0x00,0x00,0xb6,0x1f,0x00,0xc0,0xff,0xfd,0x3f,0x00,0xfe,0xe7,0xff,0x01,0xf0,0x3f,0xff,0x0f,0x00,0x00,0xfc,0xdb,0xfb,0x03,0x00,0x00,0xfe,0xe7,0xff,0x01,0x00,0x00,0x00,0x00,0xb6,0x1f,0x00,0xc0,0x1f,0x00,0x3f,0x00,0x7e,0x00,0xfc,0x01,0xf0,0x03,0xe0,0x0f,0x00,0x00,0xfc,0x01,0xf0,0x03,0x00,0x00,0x7e,0x00,0xfc,0x01,0x00,0x00,0x00,0x00,0xfe,0x1f,0x00,0xc0,0xff,0xfd,0x3f,0x00,0xfe,0xe7,0xff,0x01,0xf0,0x3f,0xff,0x0f,0x00,0x00,0xfc,0xdb,0xfb,0x03,0x00,0x00,0xfe,0xe7,0xff,0x01,0x00,0x00,0x00,0x00,0xfe,0x1e,0x00,0xc0,0xff,0xff,0x3f,0x00,0xfe,0xff,0xff,0x01,0xf0,0xff,0xff,0x0f,0x00,0x00,0xfc,0xff,0xff,0x03,0x00,0x00,0xfe,0xff,0xff,0x01,0x00,0x00,0x00,0x00,0xfe,0x1e,0x00,0x00,0xf0,0xff,0x00,0x00,0x80,0xff,0x06,0x00,0x00,0xfc,0x37,0x00,0x00,0x00,0x00,0xff,0x0f,0x00,0x00,0x00,0x80,0xff,0x06,0x00,0x00,0x00,0x00,0x00,0xfe,0x1e,0x00,0x00,0xf0,0xff,0x00,0x00,0x80,0xff,0x06,0x00,0x00,0xfc,0x37,0x00,0x00,0x00,0x00,0xff,0x0f,0x00,0x00,0x00,0x80,0xff,0x06,0x00,0x00,0x00,0x00,0x00,0xfe,0x1e,0x00,0x00,0xf0,0xff,0x00,0x00,0x80,0xff,0x07,0x00,0x00,0xfc,0x3f,0x00,0x00,0x00,0x00,0xff,0x1f,0x00,0x00,0x00,0x80,0xff,0x07,0x00,0x00,0x00,0x00,0x00,0xfe,0x1f,0x00,0x00,0xf0,0xfd,0x00,0x00,0x80,0xe7,0x07,0x00,0x00,0x3c,0x3f,0x00,0x00,0x00,0x00,0xdb,0x1b,0x00,0x00,0x00,0x80,0xe7,0x07,0x00,0x00,0x00,0x00,0xf8,0xb7,0xff,0x07,0x00,0x00,0x00,0x00,0x00,0x00,0x00,0x00,0x00,0x00,0x00,0x00,0x00,0x00,0x00,0x00,0x00,0x00,0x00,0x00,0x00,0x00,0x00,0x00,0x00,0x00,0x00,0x00,0xf8,0xb7,0xff,0x07,0xc0,0x39,0xdc,0x39,0x00,0xce,0xe1,0xce,0x01,0x70,0x0e,0x77,0x0e,0x00,0x00,0x3c,0xc7,0xb9,0x03,0x00,0x00,0xce,0xe1,0xce,0x01,0x00,0x00,0x00,0xf8,0x03,0xe0,0x07,0xc0,0xfd,0xfe,0x3d,0x00,0xfe,0xff,0xef,0x01,0xf0,0xff,0x7f,0x0f,0x00,0x00,0xfc,0xff,0xfd,0x03,0x00,0x00,0xfe,0xff,0xef,0x01,0x00,0x00,0x00,0xf8,0x03,0xe0,0x07,0xc0,0xfd,0xee,0x1c,0x00,0xfe,0x7f,0xe7,0x00,0xf0,0xff,0x3b,0x07,0x00,0x00,0xfc,0xff,0xdc,0x01,0x00,0x00,0xfe,0x7f,0xe7,0x00,0x00,0x00,0x00,0xf8,0x03,0xe0,0x07,0xc0,0xfd,0xee,0x1c,0x00,0xfe,0x7f,0xe7,0x00,0xf0,0xff,0x3b,0x07,0x00,0x00,0xfc,0xff,0xdc,0x01,0x00,0x00,0xfe,0x7f,0xe7,0x00,0x00,0x00,0x00,0xf8,0x03,0xe0,0x07,0xc0,0xfd,0xfe,0x3d,0x00,0xee,0xf7,0xef,0x01,0x70,0xbf,0x7f,0x0f,0x00,0x00,0xfc,0xdf,0xbd,0x03,0x00,0x00,0xee,0xf7,0xee,0x01,0x00,0x00,0x00,0xf8,0xb7,0xff,0x07,0xc0,0x39,0xdc,0x39,0x00,0xce,0xe1,0xce,0x01,0x70,0x0e,0x77,0x0e,0x00,0x00,0x38,0xc7,0xb9,0x03,0x00,0x00,0xce,0xe1,0xce,0x01,0x00,0x00,0x00,0xf8,0xb7,0xff,0x07,0x00,0x00,0x00,0x77,0xdc,0x1d,0x00,0x00,0x00,0x00,0x00,0x77,0xdc,0x1d,0x00,0x00,0xc0,0x39,0xe6,0x0e,0x00,0x00,0xe0,0x8e,0xbb,0x03,0x00,0x00,0xf8,0xff,0xff,0x07,0x00,0x00,0x00,0x77,0xdc,0x1d,0x00,0x00,0x00,0x00,0x00,0x77,0xdc,0x1d,0x00,0x00,0xc0,0x39,0xe6,0x0e,0x00,0x00,0xe0,0x8e,0xbb,0x03,0x00,0x00,0x00,0xfe,0x1e,0x00,0x00,0x00,0x00,0x77,0xdc,0x1d,0x00,0x00,0x00,0x00,0x00,0x77,0xdc,0x1d,0x00,0x00,0xc0,0x39,0x66,0x0e,0x00,0x00,0xe0,0x8e,0xbb,0x03,0x00,0x00,0x00,0xfe,0x1e,0x00,0x00,0x00,0x00,0x73,0xdc,0x1d,0x00,0x00,0x00,0x00,0x00,0x73,0xdc,0x1d,0x00,0x00,0x80,0x39,0x66,0x0e,0x00,0x00,0x60,0x8e,0xbb,0x03,0x00,0x00,0x00,0xfe,0x1e,0x00,0x00,0x00,0x00,0x77,0xdc,0x1d,0x00,0x00,0x00,0x00,0x00,0x77,0xdc,0x1d,0x00,0x00,0xc0,0x39,0xe6,0x0e,0x00,0x00,0xe0,0x8e,0xbb,0x03,0x00,0x00,0x00,0xfe,0x1e,0x00,0x00,0x00,0x00,0xff,0xff,0x1f,0x00,0x00,0x00,0x00,0x00,0xff,0xff,0x1f,0x00,0x00,0xc0,0xff,0xf7,0x0f,0x00,0x00,0xe0,0xff,0xff,0x03,0x00,0x00,0x00,0xfe,0x1f,0x00,0x00,0x00,0x00,0xff,0xef,0x0e,0x00,0x00,0x00,0x00,0x00,0xff,0xef,0x0e,0x00,0x00,0xc0,0xff,0x77,0x07,0x00,0x00,0xe0,0xff,0xdd,0x01,0x00,0x00,0x00,0xb6,0x1f,0x00,0x00,0x00,0x00,0xdb,0xc6,0x0c,0x00,0x00,0x00,0x00,0x00,0xdb,0xc6,0x0c,0x00,0x00,0x80,0x6d,0x33,0x03,0x00,0x00,0x60,0x9b,0x99,0x01,0x00,0x00,0x00,0xb6,0x1f,0x00,0x00,0x00,0x00,0xfb,0xef,0x0e,0x00,0x00,0x00,0x00,0x00,0xfb,0xef,0x0e,0x00,0x00,0x80,0xff,0x77,0x07,0x00,0x00,0x40,0xff,0xdd,0x01,0x00,0x00,0x00,0x00,0x00,0x00,0x00,0x00,0x00,0xff,0xef,0x0e,0x00,0x00,0x00,0x00,0x00,0xff,0xef,0x0e,0x00,0x00,0xc0,0x7f,0x77,0x07,0x00,0x00,0xe0,0xff,0xdd,0x01,0x00,0x00,0x00,0x00,0x00,0x00,0x00,0x00,0x00,0xff,0xef,0x0e,0x00,0x00,0x00,0x00,0x00,0xff,0xef,0x0e,0x00,0x00,0xc0,0xff,0x77,0x07,0x00,0x00,0xe0,0xff,0xdd,0x01,0x00,0x00,0x00,0x00,0x00,0x00,0x00,0x00,0x00,0xff,0xef,0x0e,0x00,0x00,0x00,0x00,0x00,0xff,0xef,0x0e,0x00,0x00,0xc0,0xff,0x77,0x07,0x00,0x00,0xe0,0xff,0xdd,0x01,0x00,0x00,0x00,0x00,0x00,0x00,0x00,0x00,0x00,0xdb,0xc6,0x0c,0x00,0x00,0x00,0x00,0x00,0xdb,0xc6,0x0c,0x00,0x00,0x80,0x6d,0x33,0x03,0x00,0x00,0x60,0x9b,0x99,0x01,0x00,0x00,0x38,0x87,0x3b,0x07,0x00,0x00,0x00,0xfb,0xef,0x0e,0x00,0x00,0x00,0x00,0x00,0xfb,0xef,0x0e,0x00,0x00,0x80,0xff,0x77,0x07,0x00,0x00,0x60,0xff,0xdd,0x01,0x00,0x00,0x38,0x87,0x3b,0x07,0x00,0x00,0x00,0xfb,0xef,0x0e,0x00,0x00,0x00,0x00,0x00,0xfb,0xef,0x0e,0x00,0x00,0x80,0xff,0x77,0x07,0x00,0x00,0x60,0xff,0xdd,0x01,0x00,0x00,0xb8,0xdf,0xbf,0x07,0x00,0x00,0x00,0xff,0xef,0x0e,0x00,0x00,0x00,0x00,0x00,0xff,0xef,0x0e,0x00,0x00,0xc0,0xff,0x77,0x07,0x00,0x00,0xe0,0xff,0xdd,0x01,0x00,0x00,0xb8,0xdf,0xbd,0x03,0x00,0x00,0x00,0xff,0xef,0x0e,0x00,0x00,0x00,0x00,0x00,0xff,0xef,0x0e,0x00,0x00,0xc0,0xff,0x77,0x07,0x00,0x00,0xe0,0xff,0xdd,0x01,0x00,0x00,0xb8,0xdf,0xbd,0x03,0x00,0x00,0x00,0x77,0xdc,0x1d,0x00,0x00,0x00,0x00,0x00,0x77,0xdc,0x1d,0x00,0x00,0xc0,0x39,0xe6,0x0e,0x00,0x00,0xe0,0x8e,0xbb,0x03,0x00,0x00,0xb0,0xdf,0x9d,0x03,0x00,0x00,0x00,0x73,0xdc,0x1d,0x00,0x00,0x00,0x00,0x00,0x73,0xdc,0x1d,0x00,0x00,0x80,0x39,0xe6,0x0e,0x00,0x00,0x60,0x8e,0xbb,0x03,0x00,0x00,0xb8,0xdf,0xbd,0x03,0x00,0x00,0x00,0x73,0xdc,0x1d,0x00,0x00,0x00,0x00,0x00,0x73,0xdc,0x1d,0x00,0x00,0x80,0x39,0x66,0x0e,0x00,0x00,0x60,0x8e,0xbb,0x03,0x00,0x00,0xb8,0xdf,0xbb,0x07,0x00,0x00,0x00,0x77,0xdc,0x1d,0x00,0x00,0x00,0x00,0x00,0x77,0xdc,0x1d,0x00,0x00,0xc0,0x39,0x66,0x0e,0x00,0x00,0xe0,0x8e,0xbb,0x03,0x00,0x00,0x38,0x87,0x3b,0x07,0x00,0x00,0x00,0x73,0xdc,0x1d,0x00,0x00,0x00,0x00,0x00,0x73,0xdc,0x1d,0x00,0x00,0xc0,0x39,0xe6,0x0e,0x00,0x00,0xe0,0x8e,0xbb,0x03,0x00,0x00,0x38,0x87,0x33,0x07,0x00,0x00,0x00,0x77,0xdc,0x1d,0x00,0x00,0x00,0x00,0x00,0x77,0xdc,0x1d,0x00,0x00,0xc0,0x39,0xe6,0x0e,0x00,0x00,0xe0,0x8e,0xbb,0x03,0x00,0x00,0x00,0x00,0x00,0x00,0x00,0x00,0x00,0x00,0x00,0x00,0x00,0x00,0x00,0x00,0x00,0x00,0x00,0x00,0x00,0x00,0x00,0x00,0x00,0x00,0x00,0x00,0x00,0x00,0x00,0x00,0x00,0x00,0x00,0x00,0x00,0x00,0x00,0x00,0x00,0x00,0x00,0x00,0x00,0x00,0x00,0x00,0x00,0x00,0x00,0x00,0x00,0x00,0x00,0x00,0x00,0x00,0x00,0x00,0x00,0x00,0x00,0x00,0x00,0x00,0x00,0x00,0x00,0x00,0x00,0x00,0x00,0x00,0x00,0x00,0x00,0x00,0x00,0x00,0x00,0x00,0x00,0x00,0x00,0x00,0x00,0x00,0x00,0x00,0x00,0x00,0x00,0x00,0x00,0x00,0x00,0x00,0x00,0x00,0x00,0x00,0x00,0x00,0x00,0x00,0x00,0x00,0x00,0x00,0x00,0x00,0x00,0x00,0x00,0x00,0x00,0x00,0x00,0x00,0x00,0x00,0x00,0x00,0x00,0x00,0x00,0x00,0x00,0x00,0x00,0x00,0x00,0x00,0x00,0x00,0x00,0x00,0x00,0x00,0x00,0x00,0x00,0x00,0x00,0x00,0x00,0x00,0x00,0x00,0x00,0x00,0x00,0x00,0x00,0x00,0x00,0x00,0x00,0x00,0x00,0x00,0x00,0x00,0x00,0x00,0x00,0x00,0x00,0x00,0x00,0x00,0x00,0x00,0x00,0x00,0x00,0x00,0x00,0x00,0x00,0x00,0x00,0x00,0x00,0x00,0x00,0x00,0x00,0x00,0x00,0x00,0x00,0x00,0x00,0x00,0x00,0x00,0x00,0x00,0x00,0x00,0x00,0x00,0x00,0x00,0x00,0x00,0x00,0x00,0x00,0x00,0x00,0x00,0x00,0x00,0x00,0x00,0x00,0x00,0x00,0x00,0x00,0x00,0x00,0x00,0x00,0x00,0x00,0x00,0x00,0x00,0x00,0x00,0x00,0x00,0x00,0x00,0x00,0x00,0x00,0x00,0x00,0x00,0x00,0x00,0x00,0x00,0x00,0x00,0x00,0x00,0x00,0x00,0x00,0x00,0x00,0x00,0x00,0x00,0x00,0x00,0x00,0x00,0x00,0x00,0x00,0x00,0x00,0x00,0x00,0x00,0x00,0x00,0x00,0x00,0x00,0x00,0x00,0x00,0x00,0x00,0x00,0x00,0x00,0x00,0x00,0x00,0x00,0x00,0x00,0x00,0x00,0x00,0x00,0x00,0x00,0x00,0x00,0x00,0x00,0x00,0x00,0x00,0x00,0x00,0x00,0x00,0x00,0x00,0x00,0x00,0x00,0x00,0x00,0x00,0x00,0x00,0x00,0x00,0x00,0x00,0x00,0x00,0x00,0x00,0x00,0x00,0x00,0x00,0x00,0x00,0x00,0x00,0x00,0x00,0x00,0x00,0x00,0x00,0x00,0x00,0x00,0x00,0x00,0x00,0x00,0x00,0x00,0x00,0x00,0x00,0x00,0x00,0x00,0x00,0x00,0x00,0x00,0x00,0x00,0x00,0x00,0x00,0x00,0x00,0x00,0x00,0x00,0x00,0x00,0x00,0x00,0x00,0x00,0x00,0x00,0x00,0x00,0x00,0x00,0x00,0x00,0x00,0x00,0x00,0x00,0x00,0x00,0x00,0x00,0x00,0x00,0x00,0x00,0x00,0x00,0x00,0x00,0x00,0x00,0x00,0x00,0x00,0x00,0x00,0x00,0x00,0x00,0x00,0x00,0x00,0x00,0x00,0x00,0x00,0x00,0x00,0x00,0x00,0x00,0x00,0x00,0x00,0x00,0x00,0x00,0x00,0x00,0x00,0x00,0x00,0x00,0x00,0x00,0x00,0x00,0x00,0x00,0x00,0x00,0x00,0x00,0x00,0x00,0x00,0x00,0x00,0x00,0x00,0x00,0x00,0x00,0x00,0x00,0x00,0x00,0x00,0x00,0x00,0x00,0x00,0x00,0x00,0x00,0x00,0x00,0x00,0x00,0x00,0x00,0x00,0x00,0x00,0x00,0x00,0x00,0x00,0x00,0x00,0x00,0x00,0x00,0x00,0x00,0x00,0x00,0x00,0x00,0x00,0x00,0x00,0x00,0x00,0x00,0x00,0x00,0x00,0x00,0x00,0x00,0x00,0x00,0x00,0x00,0x00,0x00,0x00,0x00,0x00,0x00,0x00,0x00,0x00,0x00,0x00,0x00,0x00,0x00,0x00,0x00,0x00,0x00,0x00,0x00,0x00,0x00,0x00,0x00,0x00,0x00,0x00,0x00,0x00,0x00,0x00,0x00,0x00,0x00,0x00,0x00,0x00,0x00,0x00,0x00,0x00,0x00,0x00,0x00,0x00,0x00,0x00,0x00,0x00,0x00,0x00,0x00,0x00,0x00,0x00,0x00,0x00,0x00,0x00,0x00,0x00,0x00,0x00,0x00,0x00,0x00,0x00,0x00,0x00,0x00,0x00,0x00,0x00,0x00,0x00,0x00,0x00,0x00,0x00,0x00,0x00,0x00,0x00,0x00,0x00,0x00,0x00,0x00,0x00,0x00,0x00,0x00,0x00,0x00,0x00,0x00,0x00,0x00,0x00,0x00,0x00,0x00,0x00,0x00,0x00,0x00,0x00,0x00,0x00,0x00,0x00,0x00,0x00,0x00,0x00,0x00,0x00,0x00,0x00,0x00,0x00,0x00,0x00,0x00,0x00,0x00,0x00,0x00,0x00,0x00,0x00,0x00,0x00,0x00,0x00,0x00,0x00,0x00,0x00,0x00,0x00,0x00,0x00,0x00,0x00,0x00,0x00,0x00,0x00,0x00,0x00,0x00,0x00,0x00,0x00,0x00,0x00,0x00,0x00,0x00,0x00,0x00,0x00,0x00,0x00,0x00,0x00,0x00,0x00,0x00,0x00,0x00,0x00,0x00,0x00,0x00,0x00,0x00,0x00,0x00,0x00,0x00,0x00,0x00,0x00,0x00,0x00,0x00,0x00,0x00,0x00,0x00,0x00,0x00,0x00,0x00,0x00,0x00,0x00,0x00,0x00,0x00,0x00,0x00,0x00,0x00,0x00,0x00,0x00,0x00,0x00,0x00,0x00,0x00,0x00,0x00,0x00,0x00,0x00,0x00,0x00,0x00,0x00,0x00,0x00,0x00,0x00,0x00,0x00,0x00,0x00,0x00,0x00,0x00,0x00,0x00,0x00,0x00,0x00,0x00,0x00,0x00,0x00,0x00,0x00,0x00,0x00,0x00,0x00,0x00,0x00,0x00,0x00,0x00,0x00,0x00,0x00,0x00,0x00,0x00,0x00,0x00,0x00,0x00,0x00,0x00,0x00,0x00,0x00,0x00,0x00,0x00,0x00,0x00,0x00,0x00,0x00,0x00,0x00,0x00,0x00,0x00,0x00,0x00,0x00,0x00,0x00,0x00,0x00,0x00,0x00,0x00,0x00,0x00,0x00,0x00,0x00,0x00,0x00,0x00,0x00,0x00,0x00,0x00,0x00,0x00,0x00,0x00,0x00,0x00,0x00,0x00,0x00,0x00,0x00,0x00,0x00,0x00,0x00,0x00,0x00,0x00,0x00,0x00,0x00,0x00,0x00,0x00,0x00,0x00,0x00,0x00,0x00,0x00,0x00,0x00,0x00,0x00,0x00,0x00,0x00,0x00,0x00,0x00,0x00,0x00,0x00,0x00,0x00,0x00,0x00,0x00,0x00,0x00,0x00,0x00,0x00,0x00,0x00,0x00,0x00,0x00,0x00,0x00,0x00,0x00,0x00,0x00,0x00,0x00,0x00,0x00,0x00,0x00,0x00,0x00,0x00,0x00,0x00,0x00,0x00,0x00,0x00,0x00,0x00,0x00,0x00,0x00,0x00,0x00,0x00,0x00,0x00,0x00,0x00,0x00,0x00,0x00,0x00,0x00,0x00,0x00,0x00,0x00,0x00,0x00,0x00,0x00,0x00,0x00,0x00,0x00,0x00,0x00,0x00,0x00,0x00,0x00,0x00,0x00,0x00,0x00,0x00,0x00,0x00,0x00,0x00,0x00,0x00,0x00,0x00,0x00,0x00,0x00,0x00,0x00,0x00,0x00,0x00,0x00,0x00,0x00,0x00,0x00,0x00,0x00,0x00,0x00,0x00,0x00,0x00,0x00,0x00,0x00,0x00,0x00,0x00,0x00,0x00,0x00,0x00,0x00,0x00,0x00,0x00,0x00,0x00,0x00,0x00,0x00,0x00,0x00,0x00,0x00,0x00,0x00,0x00,0x00,0x00,0x00,0x00,0x00,0x00,0x00,0x00,0x00,0x00,0x00,0x00,0x00,0x00,0x00,0x00,0x00,0x00,0x00,0x00,0x00,0x00,0x00,0x00,0x00,0x00,0x00,0x00,0x00,0x00,0x00,0x00,0x00,0x00,0x00,0x00,0x00,0x00,0x00,0x00,0x00,0x00,0x00,0x00,0x00,0x00,0x00,0x00,0x00,0x00,0x00,0x00,0x00,0x00,0x00,0x00,0x00,0x00,0x00,0x00,0x00,0x00,0x00,0x00,0x00,0x00,0x00,0x00,0x00,0x00,0x00,0x00,0x00,0x00,0x00,0x00,0x00,0x00,0x00,0x00,0x00,0x00,0x00,0x00,0x00,0x00,0x00,0x00,0x00,0x00,0x00,0x00,0x00,0x00,0x00,0x00,0x00,0x00,0x00,0x00,0x00,0x00,0x00,0x00,0x00,0x00,0x00,0x00,0x00,0x00,0x00,0x00,0x00,0x00,0x00,0x00,0x00,0x00,0x00,0x00,0x00,0x00,0x00,0x00,0x00,0x00,0x00,0x00,0x00,0x00,0x00,0x00,0x00,0x00,0x00,0x00,0x00,0x00,0x00,0x00,0x00,0x00,0x00,0x00,0x00,0x00,0x00,0x00,0x00,0x00,0x00,0x00,0x00,0x00,0x00,0x00,0x00,0x00,0x00,0x00,0x00,0x00,0x00,0x00,0x00,0x00,0x00,0x00,0x00,0x00,0x00,0x00,0x00,0x00,0x00,0x00,0x00,0x00,0x00,0x00,0x00,0x00,0x00,0x00,0x00,0x00,0x00,0x00,0x00,0x00,0x00,0x00,0x00,0x00,0x00,0x00,0x00,0x00,0x00,0x00,0x00,0x00,0x00,0x00,0x00,0x00,0x00,0x00,0x00,0x00,0x00,0x00,0x00,0x00,0x00,0x00,0x00,0x00,0x00,0x00,0x00,0x00,0x00,0x00,0x00,0x00,0x00,0x00,0x00,0x00,0x00,0x00,0x00,0x00,0x00,0x00,0x00,0x00,0x00,0x00,0x00,0x00,0x00,0x00,0x00,0x00,0x00,0x00,0x00,0x00,0x00,0x00,0x00,0x00,0x00,0x00,0x00,0x00,0x00,0x00,0x00,0x00,0x00,0x00,0x00,0x00,0x00,0x00,0x00,0x00,0x00,0x00,0x00,0x00,0x00,0x00,0x00,0x00,0x00,0x00,0x00,0x00,0x00,0x00,0x00,0x00,0x00,0x00,0x00,0x00,0x00,0x00,0x00,0x00,0x00,0x00,0x00,0x00,0x00,0x00,0x00,0x00,0x00,0x00,0x00,0x00,0x00,0x00,0x00,0x00,0x00,0x00,0x00,0x00,0x00,0x00,0x00,0x00,0x00,0x00,0x00,0x00,0x00,0x00,0x00,0x00,0x00,0x00,0x00,0x00,0x00,0x00,0x00,0x00,0x00,0x00,0x00,0x00,0x00,0x00,0x00,0x00,0x00,0x00,0x00,0x00,0x00,0x00,0x00,0x00,0x00,0x00,0x00,0x00,0x00,0x00,0x00,0x00,0x00,0x00,0x00,0x00,0x00,0x00,0x00,0x00,0x00,0x00,0x00,0x00,0x00,0x00,0x00,0x00,0x00,0x00,0x00,0x00,0x00,0x00,0x00,0x00,0x00,0x00,0x00,0x00,0x00,0x00,0x00,0x00,0x00,0x00,0x00,0x00,0x00,0x00,0x00,0x00,0x00,0x00,0x00,0x00,0x00,0x00,0x00,0x00,0x00,0x00,0x00,0x00,0x00,0x00,0x00,0x00,0x00,0x00,0x00,0x00,0x00,0x00,0x00,0x00,0x00,0x00,0x00,0x00,0x00,0x00,0x00,0x00,0x00,0x00,0x00,0x00,0x00,0x00,0x00,0x00,0x00,0x00,0x00,0x00,0x00,0x00,0x00,0x00,0x00,0x00,0x00,0x00,0x00,0x00,0x00,0x00,0x00,0x00,0x00,0x00,0x00,0x00,0x00,0x00,0x00,0x00,0x00,0x00,0x00,0x00,0x00,0x00,0x00,0x00,0x00,0x00,0x00,0x00,0x00,0x00,0x00,0x00,0x00,0x00,0x00,0x00,0x00,0x00,0x00,0x00,0x00,0x00,0x00,0x00,0x00,0x00,0x00,0x00,0x00,0x00,0x00,0x00,0x00,0x00,0x00,0x00,0x00,0x00,0x00,0x00,0x00,0x00,0x00,0x00,0x00,0x00,0x00,0x00,0x00,0x00,0x00,0x00,0x00,0x00,0x00,0x00,0x00,0x00,0x00,0x00,0x00,0x00,0x00,0x00,0x00,0x00,0x00,0x00,0x00,0x00,0x00,0x00,0x00,0x00,0x00,0x00,0x00,0x00,0x00,0x00,0x00,0x00,0x00,0x00,0x00,0x00,0x00,0x00,0x00,0x00,0x00,0x00,0x00,0x00,0x00,0x00,0x00,0x00,0x00,0x00,0x00,0x00,0x00,0x00,0x00,0x00,0x00,0x00,0x00,0x00,0x00,0x00,0x00,0x00,0x00,0x00,0x00,0x00,0x00,0x00,0x00,0x00,0x00,0x00,0x00,0x00,0x00,0x00,0x00,0x00,0x00,0x00,0x00,0x00,0x00,0x00,0x00,0x00,0x00,0x00,0x00,0x00,0x00,0x00,0x00,0x00,0x00,0x00,0x00,0x00,0x00,0x00,0x00,0x00,0x00,0x00,0x00,0x00,0x00,0x00,0x00,0x00,0x00,0x00,0x00,0x00,0x00,0x00,0x00,0x00,0x00,0x00,0x00,0x00,0x00,0x00,0x00,0x00,0x00,0x00,0x00,0x00,0x00,0x00,0x00,0x00,0x00,0x00,0x00,0x00,0x00,0x00,0x00,0x00,0x00,0x00,0x00,0x00,0x00,0x00,0x00,0x00,0x00,0x00,0x00,0x00,0x00,0x00,0x00,0x00,0x00,0x00,0x00,0x00,0x00,0x00,0x00,0x00,0x00,0x00,0x00,0x00,0x00,0x00,0x00,0x00,0x00,0x00,0x00,0x00,0x00,0x00,0x00,0x00,0x00,0x00,0x00,0x00,0x00,0x00,0x00,0x00,0x00,0x00,0x00,0x00,0x00,0x00,0x00,0x00,0x00,0x00,0x00,0x00,0x00,0x00,0x00,0x00,0x00,0x00,0x00,0x00,0x00,0x00,0x00,0x00,0x00,0x00,0x00,0x00,0x00,0x00,0x00,0x00,0x00,0x00,0x00,0x00,0x00,0x00,0x00,0x00,0x00,0x00,0x00,0x00,0x00,0x00,0x00,0x00,0x00,0x00,0x00,0x00,0x00,0x00,0x00,0x00,0x00,0x00,0x00,0x00,0x00,0x00,0x00,0x00,0x00,0x00,0x00,0x00,0x00,0x00,0x00,0x00,0x00,0x00,0x00,0x00,0x00,0x00,0x00,0x00,0x00,0x00,0x00,0x00,0x00,0x00,0x00,0x00,0x00,0x00,0x00,0x00,0x00,0x00,0x00,0x00,0x00,0x00,0x00,0x00,0x00,0x00,0x00,0x00,0x00,0x00,0x00,0x00,0x00,0x00,0x00,0x00,0x00,0x00,0x00,0x00,0x00,0x00,0x00,0x00,0x00,0x00,0x00,0x00,0x00,0x00,0x00,0x00,0x00,0x00,0x00,0x00,0x00,0x00,0x00,0x00,0x00,0x00,0x00,0x00,0x00,0x00,0x00,0x00,0x00,0x00,0x00,0x00,0x00,0x00,0x00,0x00,0x00,0x00,0x00,0x00,0x00,0x00,0x00,0x00,0x00,0x00,0x00,0x00,0x00,0x00,0x00,0x00,0x00,0x00,0x00,0x00,0x00,0x00,0x00,0x00,0x00,0x00,0x00,0x00,0x00,0x00,0x00,0x00,0x00,0x00,0x00,0x00,0x00,0x00,0x00,0x00,0x00,0x00,0x00,0x00,0x00,0x00,0x00,0x00,0x00,0x00,0x00,0x00,0x00,0x00,0x00,0x00,0x00,0x00,0x00,0x00,0x00,0x00,0x00,0x00,0x00,0x00,0x00,0x00,0x00,0x00,0x00,0x00,0x00,0x00,0x00,0x00,0x00,0x00,0x00,0x00,0x00,0x00,0x00,0x00,0x00,0x00,0x00,0x00,0x00,0x00,0x00,0x00,0x00,0x00,0x00,0x00,0x00,0x00,0x00,0x00,0x00,0x00,0x00,0x00,0x00,0x00,0x00,0x00,0x00,0x00,0x00,0x00,0x00,0x00,0x00,0x00,0x00,0x00,0x00,0x00,0x00,0x00,0x00,0x00,0x00,0x00,0x00,0x00,0x00,0x00,0x00,0x00,0x00,0x00,0x00,0x00,0x00,0x00,0x00,0x00,0x00,0x00,0x00,0x00,0x00,0x00,0x00,0x00,0x00,0x00,0x00,0x00,0x00,0x00,0x00,0x00,0x00,0x00,0x00,0x00,0x00,0x00,0x00,0x00,0x00,0x00,0x00,0x00,0x00,0x00,0x00,0x00,0x00,0x00,0x00,0x00,0x00,0x00,0x00,0x00,0x00,0x00,0x00,0x00,0x00,0x00,0x00,0x00,0x00,0x00,0x00,0x00,0x00,0x00,0x00,0x00,0x00,0x00,0x00,0x00,0x00,0x00,0x00,0x00,0x00,0x00,0x00,0x00,0x00,0x00,0x00,0x00,0x00,0x00,0x00,0x00,0x00,0x00,0x00,0x00,0x00,0x00,0x00,0x00,0x00,0x00,0x00,0x00,0x00,0x00,0x00,0x00,0x00,0x00,0x00,0x00,0x00,0x00,0x00,0x00,0x00,0x00,0x00,0x00,0x00,0x00,0x00,0x00,0x00,0x00,0x00,0x00,0x00,0x00,0x00,0x00,0x00,0x00,0x00,0x00,0x00,0x00,0x00,0x00,0x00,0x00,0x00,0x00,0x00,0x00,0x00,0x00,0x00,0x00,0x00,0x00,0x00,0x00,0x00,0x00,0x00,0x00,0x00,0x00,0x00,0x00,0x00,0x00,0x00,0x00,0x00,0x00,0x00,0x00,0x00,0x00,0x00,0x00,0x00,0x00,0x00,0x00,0x00,0x00,0x00,0x00,0x00,0x00,0x00,0x00,0x00,0x00,0x00,0x00,0x00,0x00,0x00,0x00,0x00,0x00,0x00,0x00,0x00,0x00,0x00,0x00,0x00,0x00,0x00,0x00,0x00,0x00,0x00,0x00,0x00,0x00,0x00,0x00,0x00,0x00,0x00,0x00,0x00,0x00,0x00,0x00,0x00,0x00,0x00,0x00,0x00,0x00,0x00,0x00,0x00,0x00,0x00,0x00,0x00,0x00,0x00,0x00,0x00,0x00,0x00,0x00,0x00,0x00,0x00,0x00,0x00,0x00,0x00,0x00,0x00,0x00,0x00,0x00,0x00,0x00,0x00,0x00,0x00,0x00,0x00,0x00,0x00,0x00,0x00,0x00,0x00,0x00,0x00,0x00,0x00,0x00,0x00,0x00,0x00,0x00,0x00,0x00,0x00,0x00,0x00,0x00,0x00,0x00,0x00,0x00,0x00,0x00,0x00,0x00,0x00,0x00,0x00,0x00,0x00,0x00,0x00,0x00,0x00,0x00,0x00,0x00,0x00,0x00,0x00,0x00,0x00,0x00,0x00,0x00,0x00,0x00,0x00,0x00,0x00,0x00,0x00,0x00,0x00,0x00,0x00,0x00,0x00,0x00,0x00,0x00,0x00,0x00,0x00,0x00,0x00,0x00,0x00,0x00,0x00,0x00,0x00,0x00,0x00,0x00,0x00,0x00,0x00,0x00,0x00,0x00,0x00,0x00,0x00,0x00,0x00,0x00,0x00,0x00,0x00,0x00,0x00,0x00,0x00,0x00,0x00,0x00,0x00,0x00,0x00,0x00,0x00,0x00,0x00,0x00,0x00,0x00,0x00,0x00,0x00,0x00,0x00,0x00,0x00,0x00,0x00,0x00,0x00,0x00,0x00,0x00,0x00,0x00,0x00,0x00,0x00,0x00,0x00,0x00,0x00,0x00,0x00,0x00,0x00,0x00,0x00,0x00,0x00,0x00,0x00,0x00,0x00,0x00,0x00,0x00,0x00,0x00,0x00,0x00,0x00,0x00,0x00,0x00,0x00,0x00,0x00,0x00,0x00,0x00,0x00,0x00,0x00,0x00,0x00,0x00,0x00,0x00,0x00,0x00,0x00,0x00,0x00,0x00,0x00,0x00,0x00,0x00,0x00,0x00,0x00,0x00,0x00,0x00,0x00,0x00,0x00,0x00,0x00,0x00,0x00,0x00,0x00,0x00,0x00,0x00,0x00,0x00,0x00,0x00,0x00,0x00,0x00,0x00,0x00,0x00,0x00,0x00,0x00,0x00,0x00,0x00,0x00,0x00,0x00,0x00,0x00,0x00,0x00,0x00,0x00,0x00,0x00,0x00,0x00,0x00,0x00,0x00,0x00,0x00,0x00,0x00,0x00,0x00,0x00,0x00,0x00,0x00,0x00,0x00,0x00,0x00,0x00,0x00,0x00,0x00,0x00,0x00,0x00,0x00,0x00,0x00,0x00,0x00,0x00,0x00,0x00,0x00,0x00,0x00,0x00,0x00,0x00,0x00,0x00,0x00,0x00,0x00,0x00,0x00,0x00,0x00,0x00,0x00,0x00,0x00,0x00,0x00,0x00,0x00,0x00,0x00,0x00,0x00,0x00,0x00,0x00,0x00,0x00,0x00,0x00,0x00,0x00,0x00,0x00,0x00,0x00,0x00,0x00,0x00,0x00,0x00,0x00,0x00,0x00,0x00,0x00,0x00,0x00,0x00,0x00,0x00,0x00,0x00,0x00,0x00,0x00,0x00,0x00,0x00,0x00,0x00,0x00,0x00,0x00,0x00,0x00,0x00,0x00,0x00,0x00,0x00,0x00,0x00,0x00,0x00,0x00,0x00,0x00,0x00,0x00,0x00,0x00,0x00,0x00,0x00,0x00,0x00,0x00,0x00,0x00,0x00,0x00,0x00,0x00,0x00,0x00,0x00,0x00,0x00,0x00};
