#define x_width 256
#define x_height 256
static char x_bits[] = {
0xff,0xff,0xff,0xff,0xff,0xff,0xff,0xff,0xff,0xff,0xff,0xff,0xff,0xff,0xff,0xff,0xff,0xff,0xff,0xff,0xff,0xff,0xff,0xff,0xff,0xff,0xff,0xff,0xff,0xff,0xff,0xff,0xff,0xff,0xff,0xff,0xff,0xff,0xff,0xff,0xff,0xff,0xff,0xff,0xff,0xff,0xff,0xff,0xff,0xff,0xff,0xff,0xff,0xff,0xff,0xff,0xff,0xff,0xff,0xff,0xff,0xff,0xff,0xff,0xff,0xff,0xff,0xff,0x7f,0xff,0xff,0xff,0xff,0xff,0xff,0xff,0xff,0xff,0xbf,0xff,0xff,0xfd,0xff,0xff,0xff,0xff,0xff,0xff,0xdf,0xff,0xff,0xfe,0xff,0xff,0xff,0xff,0xff,0xff,0x7f,0xff,0x7f,0xff,0xff,0xfb,0xff,0xdf,0xff,0xff,0xff,0xff,0xbf,0xff,0xff,0xfd,0xff,0xff,0xff,0x7f,0xff,0xff,0xff,0xff,0xff,0xfe,0xff,0xff,0xff,0xff,0x01,0x07,0x0c,0x38,0x70,0xc0,0x81,0x03,0x0e,0x1c,0x70,0xe0,0x80,0x03,0x07,0x1c,0x38,0xe0,0xc0,0x01,0x07,0x0e,0x38,0x70,0xc0,0x81,0x03,0x0e,0x1c,0x70,0xe0,0x80,0x03,0x07,0x1e,0x38,0x70,0xc0,0x81,0x03,0x0e,0x1c,0x70,0xe0,0x80,0x03,0x07,0x1c,0x38,0xe0,0xc0,0x01,0x07,0x0e,0x38,0x70,0xc0,0x81,0x03,0x0e,0x1c,0x78,0xe0,0xc0,0xcf,0x9f,0x7f,0xfe,0x7c,0xf3,0xe7,0x9b,0x3f,0xff,0xfc,0xf9,0xe3,0xcf,0x1f,0x7f,0xfe,0xf8,0xf3,0xc7,0x9f,0x3f,0xfe,0xfc,0xd1,0xe7,0xcf,0x3e,0x7f,0xf6,0xf9,0xf3,0xcf,0x9f,0x6f,0xfe,0x7c,0xf3,0xe7,0x9b,0x3f,0xdf,0xfc,0xf9,0xe3,0xcf,0x1f,0x7f,0xfe,0xf8,0xf3,0xc7,0x9f,0x3f,0xfa,0xfc,0xd9,0xe7,0xcf,0x3e,0x7f,0xf6,0xf9,0xb3,0xcf,0x9f,0x7f,0xfe,0xfc,0xf3,0xe7,0x9f,0x3f,0x7f,0xfc,0xf9,0xe3,0xcf,0x1f,0x7f,0xfe,0xf8,0xf3,0xc7,0x9f,0x3f,0xff,0xfc,0xf9,0xe7,0xcf,0x3f,0x7f,0xfe,0xf9,0xf3,0xcf,0x9f,0x7f,0xfe,0xfc,0xf3,0xe7,0x9f,0x3f,0xff,0xfc,0xf9,0xe3,0xcf,0x1f,0x7f,0xfe,0xf8,0xf3,0xc7,0x9f,0x3f,0xfe,0xfc,0xf9,0xe7,0xcf,0x3f,0x7f,0xfe,0xf9,0xf3,0x0f,0x00,0x00,0xfe,0x00,0x00,0xe0,0x1f,0x00,0x00,0xfc,0x01,0x00,0xc0,0x1f,0x00,0x00,0xf8,0x03,0x00,0x80,0x3f,0x00,0x00,0xf8,0x07,0x00,0x00,0x7f,0x00,0x00,0xf0,0x0f,0x00,0x00,0xfe,0x00,0x00,0xe0,0x1b,0x00,0x00,0xfc,0x01,0x00,0xc0,0x1f,0x00,0x00,0xf8,0x03,0x00,0x80,0x3f,0x00,0x00,0xd8,0x07,0x00,0x00,0x7f,0x00,0x00,0xf0,0x0f,0x00,0x00,0xfe,0x00,0x00,0xe0,0x1b,0x00,0x00,0xfc,0x01,0x00,0xc0,0x1f,0x00,0x00,0xf8,0x03,0x00,0x80,0x3f,0x00,0x00,0xf8,0x07,0x00,0x00,0x7f,0x00,0x00,0xf0,0x03,0x00,0x00,0x38,0x00,0x00,0x80,0x03,0x00,0x00,0x70,0x00,0x00,0x00,0x07,0x00,0x00,0xe0,0x00,0x00,0x00,0x0e,0x00,0x00,0xc0,0x01,0x00,0x00,0x1c,0x00,0x00,0xc0,0x03,0x00,0x00,0x38,0x00,0x00,0x80,0x03,0x00,0x00,0x70,0x00,0x00,0x00,0x07,0x00,0x00,0xe0,0x00,0x00,0x00,0x0e,0x00,0x00,0xc0,0x01,0x00,0x00,0x1c,0x00,0x00,0xc0,0x0f,0x00,0x00,0xfe,0x00,0x00,0xe0,0x0b,0x00,0x00,0xfc,0x01,0x00,0xc0,0x1f,0x00,0x00,0xf8,0x03,0x00,0x80,0x3f,0x00,0x00,0xd0,0x07,0x00,0x00,0x7f,0x00,0x00,0xf0,0x0f,0x00,0x00,0xfe,0x00,0x00,0xe0,0x1f,0x00,0x00,0xfc,0x01,0x00,0xc0,0x1f,0x00,0x00,0xf8,0x03,0x00,0x80,0x3f,0x00,0x00,0xd8,0x07,0x00,0x00,0x7f,0x00,0x00,0xf0,0x0f,0x00,0x00,0xfe,0x00,0x00,0xe0,0x1f,0x00,0x00,0xfc,0x01,0x00,0xc0,0x1f,0x00,0x00,0xf8,0x03,0x00,0x80,0x3f,0x00,0x00,0xf8,0x07,0x00,0x00,0x7f,0x00,0x00,0xf0,0xcf,0x01,0x38,0xfe,0x38,0x80,0xe7,0x9f,0x07,0x70,0xfc,0x79,0x00,0xcf,0x1f,0x0f,0xf0,0xf8,0xf3,0x00,0x8e,0x3f,0x0e,0xc0,0xf9,0xe7,0x01,0x1c,0x7f,0x18,0xc0,0xf3,0xcf,0x03,0x3c,0xfe,0x3c,0x80,0xe7,0x9f,0x07,0x78,0xfc,0x79,0x00,0xcf,0x1f,0x0f,0xf0,0xf8,0xf3,0x00,0x9e,0x3f,0x1f,0xe0,0xf1,0xe7,0x01,0x3c,0x7f,0x3e,0xc0,0xf3,0x4d,0x02,0x7c,0xfe,0x3c,0x80,0xe7,0x9f,0x05,0xf8,0xfc,0x79,0x00,0xcf,0x1f,0x0f,0xf0,0xf8,0xf3,0x00,0x9e,0x37,0x1f,0x60,0xf9,0xe7,0x01,0x3c,0x7f,0x3e,0x40,0xf2,0xcf,0x03,0x6c,0xfe,0x3c,0x80,0xe7,0x9f,0x07,0xf8,0xfc,0x79,0x00,0xcf,0x1f,0x0f,0xf0,0xf8,0xf3,0x00,0x9e,0x3f,0x1b,0xe0,0xf9,0xe7,0x01,0x3c,0x7f,0x36,0xc0,0xf3,0xc7,0x03,0x3c,0xfe,0x3c,0x80,0xe7,0x8b,0x07,0x58,0xfc,0x79,0x00,0xcf,0x1f,0x0f,0xf0,0xf8,0xf1,0x00,0x9e,0x2f,0x1a,0xe0,0xd1,0xe7,0x01,0x3c,0x1f,0x3c,0xc0,0xf2,0x01,0x03,0x0c,0x38,0x30,0x80,0x81,0x03,0x06,0x18,0x70,0x60,0x00,0x03,0x07,0x0c,0x30,0xe0,0xc0,0x00,0x06,0x0e,0x18,0x60,0xc0,0x81,0x01,0x0c,0x1c,0x30,0xc0,0x80,0x03,0x03,0x1c,0x38,0x30,0x80,0x81,0x03,0x06,0x18,0x70,0x60,0x00,0x03,0x07,0x0c,0x30,0xe0,0xc0,0x00,0x06,0x0e,0x18,0x60,0xc0,0x81,0x01,0x0c,0x1c,0x30,0xc0,0xc0,0xff,0x03,0xfc,0xff,0x3f,0x80,0xff,0xfb,0x07,0xf8,0xff,0x7f,0x00,0xff,0xbf,0x0f,0xf0,0xfd,0xff,0x00,0xfe,0xff,0x1f,0xe0,0xdf,0xff,0x01,0xfc,0xff,0x37,0xc0,0xff,0x7f,0x03,0xec,0xf7,0x3f,0x80,0xff,0xfb,0x06,0xd8,0xff,0x7f,0x00,0xff,0xbf,0x0f,0xf0,0xfd,0xff,0x00,0xfe,0xff,0x1b,0x60,0xdf,0xff,0x01,0xfc,0xff,0x3f,0xc0,0xff,0xff,0x03,0xfc,0xff,0x3f,0x80,0xff,0xff,0x07,0xf8,0xff,0x7f,0x00,0xff,0xff,0x0f,0xf0,0xff,0xff,0x00,0xfe,0xff,0x1f,0xe0,0xff,0xff,0x01,0xfc,0xff,0x3f,0xc0,0xff,0xff,0x03,0xfc,0xff,0x3f,0x80,0xff,0xff,0x07,0xf8,0xff,0x7f,0x00,0xff,0xff,0x0f,0xf0,0xff,0xff,0x00,0xfe,0xff,0x1f,0xe0,0xff,0xff,0x01,0xfc,0xff,0x3f,0xc0,0xff,0xff,0x03,0x00,0x00,0x00,0x00,0x00,0x00,0x00,0xf8,0xff,0x7f,0x00,0x00,0x00,0x00,0x00,0x00,0x00,0x00,0xfe,0xff,0x1f,0x00,0x00,0x00,0x00,0x00,0x00,0x00,0xc0,0xff,0xff,0x03,0x00,0x00,0x00,0x00,0x00,0x00,0x00,0xf8,0xff,0x7f,0x00,0x00,0x00,0x00,0x00,0x00,0x00,0x00,0xfe,0xff,0x1b,0x00,0x00,0x00,0x00,0x00,0x00,0x00,0xc0,0xff,0xff,0x03,0x00,0x00,0x00,0x00,0x00,0x00,0x00,0xf8,0xff,0x7f,0x00,0x00,0x00,0x00,0x00,0x00,0x00,0x00,0xfe,0xff,0x1f,0x00,0x00,0x00,0x00,0x00,0x00,0x00,0xc0,0xff,0x03,0x03,0x00,0x00,0x00,0x00,0x00,0x00,0x00,0x18,0x70,0x60,0x00,0x00,0x00,0x00,0x00,0x00,0x00,0x00,0x06,0x0e,0x18,0x00,0x00,0x00,0x00,0x00,0x00,0x00,0xc0,0xc0,0x03,0x03,0x00,0x00,0x00,0x00,0x00,0x00,0x00,0x18,0x70,0x60,0x00,0x00,0x00,0x00,0x00,0x00,0x00,0x00,0x06,0x0e,0x18,0x00,0x00,0x00,0x00,0x00,0x00,0x00,0xc0,0xc0,0xcf,0x03,0x00,0x00,0x00,0x00,0x00,0x00,0x00,0xf8,0xfc,0x79,0x00,0x00,0x00,0x00,0x00,0x00,0x00,0x00,0x9e,0x3f,0x1b,0x00,0x00,0x00,0x00,0x00,0x00,0x00,0xc0,0xf3,0xcf,0x03,0x00,0x00,0x00,0x00,0x00,0x00,0x00,0xf8,0xfc,0x79,0x00,0x00,0x00,0x00,0x00,0x00,0x00,0x00,0x9e,0x3f,0x1f,0x00,0x00,0x00,0x00,0x00,0x00,0x00,0xc0,0xf3,0xcf,0x03,0x00,0x00,0x00,0x00,0x00,0x00,0x00,0xf8,0xfc,0x79,0x00,0x00,0x00,0x00,0x00,0x00,0x00,0x00,0x9e,0x3f,0x1f,0x00,0x00,0x00,0x00,0x00,0x00,0x00,0xc0,0xf3,0xcf,0x03,0x00,0x00,0x00,0x00,0x00,0x00,0x00,0xf8,0xfc,0x79,0x00,0x00,0x00,0x00,0x00,0x00,0x00,0x00,0x9e,0x3f,0x1f,0x00,0x00,0x00,0x00,0x00,0x00,0x00,0xc0,0xf3,0x0f,0x00,0x00,0x00,0x00,0x00,0x00,0x00,0x00,0x00,0xfc,0x01,0x00,0x00,0x00,0x00,0x00,0x00,0x00,0x00,0x80,0x3f,0x00,0x00,0x00,0x00,0x00,0x00,0x00,0x00,0x00,0xf0,0x0d,0x00,0x00,0x00,0x00,0x00,0x00,0x00,0x00,0x00,0x34,0x01,0x00,0x00,0x00,0x00,0x00,0x00,0x00,0x00,0x80,0x2c,0x00,0x00,0x00,0x00,0x00,0x00,0x00,0x00,0x00,0xb0,0x0f,0x00,0x00,0x00,0x00,0x00,0x00,0x00,0x00,0x00,0xfc,0x01,0x00,0x00,0x00,0x00,0x00,0x00,0x00,0x00,0x80,0x3f,0x00,0x00,0x00,0x00,0x00,0x00,0x00,0x00,0x00,0xf0,0x0f,0x00,0x00,0x00,0x00,0x00,0x00,0x00,0x00,0x00,0xfc,0x01,0x00,0x00,0x00,0x00,0x00,0x00,0x00,0x00,0x80,0x3f,0x00,0x00,0x00,0x00,0x00,0x00,0x00,0x00,0x00,0xe0,0x03,0x00,0x00,0x00,0x00,0x00,0x00,0x00,0x00,0x00,0x70,0x00,0x00,0x00,0x00,0x00,0x00,0x00,0x00,0x00,0x00,0x0e,0x00,0x00,0x00,0x00,0x00,0x00,0x00,0x00,0x00,0xc0,0x03,0x00,0x00,0x00,0x00,0x00,0x00,0x00,0x00,0x00,0x70,0x00,0x00,0x00,0x00,0x00,0x00,0x00,0x00,0x00,0x00,0x0e,0x00,0x00,0x00,0x00,0x00,0x00,0x00,0x00,0x00,0xc0,0x0f,0x00,0x00,0x00,0x00,0x00,0x00,0x00,0x00,0x00,0xfc,0x01,0x00,0x00,0x00,0x00,0x00,0x00,0x00,0x00,0x80,0x3f,0x00,0x00,0x00,0x00,0x00,0x00,0x00,0x00,0x00,0xf0,0x0f,0x00,0x00,0x00,0x00,0x00,0x00,0x00,0x00,0x00,0xfc,0x01,0x00,0x00,0x00,0x00,0x00,0x00,0x00,0x00,0x80,0x3f,0x00,0x00,0x00,0x00,0x00,0x00,0x00,0x00,0x00,0xf0,0x0f,0x00,0x00,0x00,0x00,0x00,0x00,0x00,0x00,0x00,0xfc,0x01,0x00,0x00,0x00,0x00,0x00,0x00,0x00,0x00,0x80,0x3f,0x00,0x00,0x00,0x00,0x00,0x00,0x00,0x00,0x00,0xf0,0xcf,0x03,0x00,0x00,0x00,0x00,0x00,0x00,0x00,0xf8,0xfc,0x79,0x00,0x00,0x00,0x00,0x00,0x00,0x00,0x00,0x9e,0x3f,0x1e,0x00,0x00,0x00,0x00,0x00,0x00,0x00,0xc0,0xf3,0xcf,0x03,0x00,0x00,0x00,0x00,0x00,0x00,0x00,0xf8,0xfc,0x79,0x00,0x00,0x00,0x00,0x00,0x00,0x00,0x00,0x9e,0x3f,0x1f,0x00,0x00,0x00,0x00,0x00,0x00,0x00,0xc0,0xf3,0xcf,0x03,0x00,0x00,0x00,0x00,0x00,0x00,0x00,0xf8,0xfc,0x79,0x00,0x00,0x00,0x00,0x00,0x00,0x00,0x00,0x9e,0x3f,0x1f,0x00,0x00,0x00,0x00,0x00,0x00,0x00,0xc0,0xf3,0xcf,0x03,0x00,0x00,0x00,0x00,0x00,0x00,0x00,0xf8,0xfc,0x79,0x00,0x00,0x00,0x00,0x00,0x00,0x00,0x00,0x9e,0x3f,0x1f,0x00,0x00,0x00,0x00,0x00,0x00,0x00,0xc0,0xf3,0x03,0x03,0x00,0x00,0x00,0x00,0x00,0x00,0x00,0x18,0x70,0x60,0x00,0x00,0x00,0x00,0x00,0x00,0x00,0x00,0x06,0x0e,0x18,0x00,0x00,0x00,0x00,0x00,0x00,0x00,0xc0,0xc0,0x03,0x03,0x00,0x00,0x00,0x00,0x00,0x00,0x00,0x18,0x70,0x60,0x00,0x00,0x00,0x00,0x00,0x00,0x00,0x00,0x06,0x0e,0x18,0x00,0x00,0x00,0x00,0x00,0x00,0x00,0xc0,0xc0,0xff,0x03,0x00,0x00,0x00,0x00,0x00,0x00,0x00,0xf8,0xff,0x7f,0x00,0x00,0x00,0x00,0x00,0x00,0x00,0x00,0xfe,0xff,0x1f,0x00,0x00,0x00,0x00,0x00,0x00,0x00,0xc0,0xff,0xff,0x03,0x00,0x00,0x00,0x00,0x00,0x00,0x00,0xf8,0xff,0x7f,0x00,0x00,0x00,0x00,0x00,0x00,0x00,0x00,0xfe,0xff,0x1f,0x00,0x00,0x00,0x00,0x00,0x00,0x00,0xc0,0xff,0xff,0x03,0x00,0x00,0x00,0x00,0x00,0x00,0x00,0xf8,0xff,0x7f,0x00,0x00,0x00,0x00,0x00,0x00,0x00,0x00,0xfe,0xff,0x1f,0x00,0x00,0x00,0x00,0x00,0x00,0x00,0xc0,0xff,0xff,0x03,0xf8,0x1f,0x00,0x00,0x00,0xfe,0x07,0xf8,0xff,0x7f,0x00,0xff,0x03,0x00,0x00,0xc0,0xff,0x00,0xfe,0xff,0x1f,0xc0,0x7f,0x00,0x00,0x00,0xf8,0x1f,0xc0,0xff,0xff,0x03,0xfc,0x1f,0x00,0x00,0x00,0xff,0x07,0xf8,0xff,0x7f,0x00,0xff,0x03,0x00,0x00,0xc0,0xff,0x00,0xfe,0xff,0x1f,0xe0,0xff,0x00,0x00,0x00,0xf8,0x3f,0xc0,0xff,0x6d,0x02,0xec,0x13,0x00,0x00,0x00,0xdb,0x04,0xd8,0x26,0x5f,0x00,0x7d,0x02,0x00,0x00,0x40,0xdf,0x00,0xba,0x6f,0x1b,0x20,0xdb,0x00,0x00,0x00,0xe8,0x36,0x40,0xf6,0xff,0x03,0xfc,0x1f,0x00,0x00,0x00,0xfb,0x07,0xf8,0xff,0x7f,0x00,0xff,0x03,0x00,0x00,0xc0,0xff,0x00,0xfe,0xff,0x1f,0xe0,0xdf,0x00,0x00,0x00,0xf8,0x17,0xc0,0xff,0xff,0x03,0xfc,0x1b,0x00,0x00,0x00,0xfb,0x06,0xd8,0xfe,0x7f,0x00,0xff,0x03,0x00,0x00,0xc0,0xff,0x00,0xfe,0xef,0x1b,0xe0,0xdb,0x00,0x00,0x00,0xf8,0x3a,0xc0,0xf6,0x01,0x03,0x0c,0x18,0x00,0x00,0x00,0x03,0x06,0x18,0x70,0x60,0x00,0x03,0x03,0x00,0x00,0xc0,0xc0,0x00,0x06,0x0e,0x18,0x60,0xc0,0x00,0x00,0x00,0x18,0x30,0xc0,0xc0,0x03,0x03,0x1c,0x18,0x00,0x00,0x00,0x03,0x06,0x18,0x70,0x60,0x00,0x03,0x03,0x00,0x00,0xc0,0xc0,0x00,0x06,0x0e,0x18,0x60,0xc0,0x00,0x00,0x00,0x18,0x38,0xc0,0xc0,0xcf,0x03,0x6c,0x1e,0x00,0x00,0x00,0x9f,0x07,0x78,0xfc,0x79,0x00,0xcf,0x03,0x00,0x00,0xc0,0xf3,0x00,0x9e,0x3f,0x1e,0xe0,0xf9,0x00,0x00,0x00,0x78,0x3e,0xc0,0xf3,0xcd,0x02,0x6c,0x1a,0x00,0x00,0x00,0x9b,0x07,0xf8,0xfc,0x79,0x00,0xcf,0x03,0x00,0x00,0xc0,0xf3,0x00,0x9e,0x3f,0x1b,0x20,0xd9,0x00,0x00,0x00,0x78,0x3e,0xc0,0xf3,0xcf,0x03,0x7c,0x1e,0x00,0x00,0x00,0x9f,0x07,0xf8,0xfc,0x79,0x00,0xcf,0x03,0x00,0x00,0xc0,0xf3,0x00,0x9e,0x3f,0x1e,0xe0,0xf9,0x00,0x00,0x00,0x78,0x1e,0xc0,0xf3,0xcf,0x03,0x38,0x1e,0x00,0x00,0x00,0x9f,0x07,0x78,0xfc,0x79,0x00,0xcf,0x03,0x00,0x00,0xc0,0xf3,0x00,0x9e,0x3f,0x0e,0xc0,0xf9,0x00,0x00,0x00,0x78,0x1c,0xc0,0xf3,0x0f,0x00,0x00,0x1e,0x00,0x00,0x00,0x1f,0x00,0x00,0xfc,0x01,0x00,0xc0,0x03,0x00,0x00,0xc0,0x03,0x00,0x80,0x3f,0x00,0x00,0xf8,0x00,0x00,0x00,0x78,0x00,0x00,0xf0,0x0d,0x00,0x00,0x1e,0x00,0x00,0x00,0x1b,0x00,0x00,0xfc,0x01,0x00,0xc0,0x03,0x00,0x00,0xc0,0x03,0x00,0x80,0x3f,0x00,0x00,0xd8,0x00,0x00,0x00,0x78,0x00,0x00,0xf0,0x0f,0x00,0x00,0x1e,0x00,0x00,0x00,0x1f,0x00,0x00,0xfc,0x01,0x00,0xc0,0x03,0x00,0x00,0xc0,0x03,0x00,0x80,0x3f,0x00,0x00,0xf8,0x00,0x00,0x00,0x78,0x00,0x00,0xf0,0x03,0x00,0x00,0x18,0x00,0x00,0x00,0x03,0x00,0x00,0x70,0x00,0x00,0x00,0x03,0x00,0x00,0xc0,0x00,0x00,0x00,0x0e,0x00,0x00,0xc0,0x00,0x00,0x00,0x18,0x00,0x00,0xc0,0x03,0x00,0x00,0x18,0x00,0x00,0x00,0x03,0x00,0x00,0x70,0x00,0x00,0x00,0x03,0x00,0x00,0xc0,0x00,0x00,0x00,0x0e,0x00,0x00,0xc0,0x00,0x00,0x00,0x18,0x00,0x00,0xc0,0x0f,0x00,0x00,0x1e,0x00,0x00,0x00,0x1b,0x00,0x00,0xfc,0x01,0x00,0xc0,0x03,0x00,0x00,0xc0,0x03,0x00,0x80,0x3f,0x00,0x00,0xd0,0x00,0x00,0x00,0x78,0x00,0x00,0xf0,0x0f,0x00,0x00,0x1e,0x00,0x00,0x00,0x1b,0x00,0x00,0xfc,0x01,0x00,0xc0,0x03,0x00,0x00,0xc0,0x03,0x00,0x80,0x3f,0x00,0x00,0xd8,0x00,0x00,0x00,0x78,0x00,0x00,0xf0,0x0f,0x00,0x00,0x1e,0x00,0x00,0x00,0x1f,0x00,0x00,0xfc,0x01,0x00,0xc0,0x03,0x00,0x00,0xc0,0x03,0x00,0x80,0x3f,0x00,0x00,0xf8,0x00,0x00,0x00,0x78,0x00,0x00,0xf0,0xcf,0x9f,0x3f,0x1e,0x00,0x00,0x00,0x9f,0x1f,0x7f,0xfc,0xf9,0xe3,0xcf,0x03,0x00,0x00,0xc0,0xf3,0xc7,0x9f,0x3f,0xfe,0xfc,0xf9,0x00,0x00,0x00,0x78,0xfc,0xf9,0xf3,0xcf,0x9f,0x7f,0x1e,0x00,0x00,0x00,0x9f,0x3f,0xff,0xfc,0xf9,0xe3,0xcf,0x03,0x00,0x00,0xc0,0xf3,0xc7,0x9f,0x3f,0xff,0xfc,0xf9,0x00,0x00,0x00,0x78,0xfe,0xf9,0xf3,0x4d,0x9e,0x6d,0x1e,0x00,0x00,0x00,0x9b,0x3d,0xdb,0xf4,0xf9,0xe3,0xcd,0x03,0x00,0x00,0xc0,0xd3,0xc7,0x9f,0x2f,0xfb,0xbc,0xd9,0x00,0x00,0x00,0x58,0xf6,0xf9,0xf2,0x4f,0x9f,0x2f,0x1e,0x00,0x00,0x00,0x9f,0x3f,0x7f,0xfc,0xf9,0xe3,0xcf,0x03,0x00,0x00,0xc0,0xf3,0xc7,0x9f,0x3f,0xff,0xfc,0xf9,0x00,0x00,0x00,0x78,0xfe,0xf9,0xf3,0x47,0x1f,0x1e,0x18,0x00,0x00,0x00,0x8b,0x3e,0x5d,0xf4,0xf1,0xe2,0xcf,0x03,0x00,0x00,0xc0,0xf3,0x47,0x9f,0x1f,0xf8,0x7c,0xc1,0x00,0x00,0x00,0x78,0xfc,0xf8,0xc3,0x01,0x06,0x1e,0x18,0x00,0x00,0x00,0x03,0x0e,0x1c,0x70,0xe0,0x80,0x03,0x03,0x00,0x00,0xc0,0xc0,0x01,0x07,0x0e,0x38,0x70,0xc0,0x00,0x00,0x00,0x18,0x30,0xe0,0x80,0x03,0x07,0x1e,0x18,0x00,0x00,0x00,0x03,0x0e,0x1c,0x70,0xe0,0x80,0x03,0x03,0x00,0x00,0xc0,0xc0,0x01,0x07,0x0e,0x38,0x70,0xc0,0x00,0x00,0x00,0x18,0x78,0xe0,0xc0,0xff,0xff,0xff,0x1f,0x00,0x00,0x00,0xfb,0xff,0xdf,0xff,0xff,0xff,0xff,0x03,0x00,0x00,0xc0,0xff,0xff,0xff,0xff,0xff,0xff,0xdf,0x00,0x00,0x00,0xf8,0xff,0xff,0xbf,0xef,0xff,0xed,0x1f,0x00,0x00,0x00,0xdb,0xef,0xff,0xf7,0xff,0xfe,0xff,0x03,0x00,0x00,0xc0,0xff,0xff,0xfb,0xef,0xfb,0xff,0xdf,0x00,0x00,0x00,0xc8,0xf7,0x7f,0xbe,0xff,0xff,0xff,0x1f,0x00,0x00,0x00,0xff,0xff,0xff,0xff,0xff,0xff,0xff,0x03,0x00,0x00,0xc0,0xff,0xff,0xff,0xff,0xff,0xff,0xff,0x00,0x00,0x00,0xf8,0xff,0xff,0xff,0xff,0xff,0xff,0x1f,0x00,0x00,0x00,0xfe,0xff,0xff,0xff,0xff,0xff,0xff,0x03,0x00,0x00,0xc0,0xff,0xff,0xff,0xff,0xff,0xff,0xff,0x00,0x00,0x00,0xf8,0xff,0xff,0xff,0xff,0xff,0xff,0x1f,0x00,0x00,0x00,0x00,0x00,0x00,0x00,0x00,0x00,0x00,0x00,0x00,0x00,0x00,0x00,0x00,0x00,0x00,0x00,0x00,0x00,0x00,0x00,0x00,0xf8,0xff,0xff,0xff,0xff,0xff,0xff,0x1f,0x00,0x00,0x00,0x00,0x00,0x00,0x00,0x00,0x00,0x00,0x00,0x00,0x00,0x00,0x00,0x00,0x00,0x00,0x00,0x00,0x00,0x00,0x00,0x00,0xf8,0xf7,0xff,0xff,0xff,0xff,0xff,0x1f,0x00,0x00,0x00,0x00,0x00,0x00,0x00,0x00,0x00,0x00,0x00,0x00,0x00,0x00,0x00,0x00,0x00,0x00,0x00,0x00,0x00,0x00,0x00,0x00,0xf8,0xff,0xff,0xff,0x03,0x07,0x1e,0x18,0x00,0x00,0x00,0x00,0x00,0x00,0x00,0x00,0x00,0x00,0x00,0x00,0x00,0x00,0x00,0x00,0x00,0x00,0x00,0x00,0x00,0x00,0x00,0x00,0x18,0x78,0xe0,0xc0,0x03,0x07,0x1e,0x18,0x00,0x00,0x00,0x00,0x00,0x00,0x00,0x00,0x00,0x00,0x00,0x00,0x00,0x00,0x00,0x00,0x00,0x00,0x00,0x00,0x00,0x00,0x00,0x00,0x18,0x70,0xe0,0xc0,0xcf,0x9f,0x7f,0x1e,0x00,0x00,0x00,0x00,0x00,0x00,0x00,0x00,0x00,0x00,0x00,0x00,0x00,0x00,0x00,0x00,0x00,0x00,0x00,0x00,0x00,0x00,0x00,0x00,0x78,0xfe,0xf9,0xf3,0xcf,0x9f,0x7f,0x1e,0x00,0x00,0x00,0x00,0x00,0x00,0x00,0x00,0x00,0x00,0x00,0x00,0x00,0x00,0x00,0x00,0x00,0x00,0x00,0x00,0x00,0x00,0x00,0x00,0x78,0xfe,0xf9,0xf3,0xcf,0x9f,0x7f,0x1e,0x00,0x00,0x00,0x00,0x00,0x00,0x00,0x00,0x00,0x00,0x00,0x00,0x00,0x00,0x00,0x00,0x00,0x00,0x00,0x00,0x00,0x00,0x00,0x00,0x78,0xfe,0xf9,0xf3,0xcf,0x9f,0x7f,0x1e,0x00,0x00,0x00,0x00,0x00,0x00,0x00,0x00,0x00,0x00,0x00,0x00,0x00,0x00,0x00,0x00,0x00,0x00,0x00,0x00,0x00,0x00,0x00,0x00,0x78,0xfe,0xf9,0xf3,0x0f,0x00,0x00,0x1e,0x00,0x00,0x00,0x00,0x00,0x00,0x00,0x00,0x00,0x00,0x00,0x00,0x00,0x00,0x00,0x00,0x00,0x00,0x00,0x00,0x00,0x00,0x00,0x00,0x78,0x00,0x00,0xf0,0x0f,0x00,0x00,0x1e,0x00,0x00,0x00,0x00,0x00,0x00,0x00,0x00,0x00,0x00,0x00,0x00,0x00,0x00,0x00,0x00,0x00,0x00,0x00,0x00,0x00,0x00,0x00,0x00,0x78,0x00,0x00,0xb0,0x0f,0x00,0x00,0x1e,0x00,0x00,0x00,0x00,0x00,0x00,0x00,0x00,0x00,0x00,0x00,0x00,0x00,0x00,0x00,0x00,0x00,0x00,0x00,0x00,0x00,0x00,0x00,0x00,0x78,0x00,0x00,0xf0,0x03,0x00,0x00,0x18,0x00,0x00,0x00,0x00,0x00,0x00,0x00,0x00,0x00,0x00,0x00,0x00,0x00,0x00,0x00,0x00,0x00,0x00,0x00,0x00,0x00,0x00,0x00,0x00,0x18,0x00,0x00,0xc0,0x01,0x00,0x00,0x18,0x00,0x00,0x00,0x00,0x00,0x00,0x00,0x00,0x00,0x00,0x00,0x00,0x00,0x00,0x00,0x00,0x00,0x00,0x00,0x00,0x00,0x00,0x00,0x00,0x18,0x00,0x00,0xc0,0x03,0x00,0x00,0x18,0x00,0x00,0x00,0x00,0x00,0x00,0x00,0x00,0x00,0x00,0x00,0x00,0x00,0x00,0x00,0x00,0x00,0x00,0x00,0x00,0x00,0x00,0x00,0x00,0x18,0x00,0x00,0xc0,0x0f,0x00,0x00,0x1e,0x00,0x00,0x00,0x00,0x00,0x00,0x00,0x00,0x00,0x00,0x00,0x00,0x00,0x00,0x00,0x00,0x00,0x00,0x00,0x00,0x00,0x00,0x00,0x00,0x78,0x00,0x00,0xf0,0x0f,0x00,0x00,0x1e,0x00,0x00,0x00,0x00,0x00,0x00,0x00,0x00,0x00,0x00,0x00,0x00,0x00,0x00,0x00,0x00,0x00,0x00,0x00,0x00,0x00,0x00,0x00,0x00,0x78,0x00,0x00,0xf0,0x0f,0x00,0x00,0x1e,0x00,0x00,0x00,0x00,0x00,0x00,0x00,0x00,0x00,0x00,0x00,0x00,0x00,0x00,0x00,0x00,0x00,0x00,0x00,0x00,0x00,0x00,0x00,0x00,0x78,0x00,0x00,0xf0,0xcf,0x03,0x7c,0x1e,0x00,0x00,0x00,0x00,0x00,0x00,0x00,0x00,0x00,0x00,0x00,0x00,0x00,0x00,0x00,0x00,0x00,0x00,0x00,0x00,0x00,0x00,0x00,0x00,0x78,0x3e,0xc0,0xf3,0xcf,0x03,0x7c,0x1e,0x00,0x00,0x00,0x00,0x00,0x00,0x00,0x00,0x00,0x00,0x00,0x00,0x00,0x00,0x00,0x00,0x00,0x00,0x00,0x00,0x00,0x00,0x00,0x00,0x78,0x3e,0xc0,0xf3,0xcf,0x03,0x7c,0x1e,0x00,0x00,0x00,0x00,0x00,0x00,0x00,0x00,0x00,0x00,0x00,0x00,0x00,0x00,0x00,0x00,0x00,0x00,0x00,0x00,0x00,0x00,0x00,0x00,0x78,0x3e,0xc0,0xf3,0xcf,0x03,0x7c,0x1e,0x00,0x00,0x00,0x00,0x00,0x00,0x00,0x00,0x00,0x00,0x00,0x00,0x00,0x00,0x00,0x00,0x00,0x00,0x00,0x00,0x00,0x00,0x00,0x00,0x78,0x3e,0xc0,0xf3,0x03,0x03,0x1c,0x18,0x00,0x00,0x00,0x00,0x00,0x00,0x00,0x00,0x00,0x00,0x00,0x00,0x00,0x00,0x00,0x00,0x00,0x00,0x00,0x00,0x00,0x00,0x00,0x00,0x18,0x38,0xc0,0xc0,0x03,0x03,0x1c,0x18,0x00,0x00,0x00,0x00,0x00,0x00,0x00,0x00,0x00,0x00,0x00,0x00,0x00,0x00,0x00,0x00,0x00,0x00,0x00,0x00,0x00,0x00,0x00,0x00,0x18,0x38,0xc0,0xc0,0xff,0x03,0xfc,0x1f,0x00,0x00,0x00,0x00,0x00,0x00,0x00,0x00,0x00,0x00,0x00,0x00,0x00,0x00,0x00,0x00,0x00,0x00,0x00,0x00,0x00,0x00,0x00,0x00,0xf8,0x3f,0xc0,0xff,0xff,0x03,0xfc,0x1f,0x00,0x00,0x00,0x00,0x00,0x00,0x00,0x00,0x00,0x00,0x00,0x00,0x00,0x00,0x00,0x00,0x00,0x00,0x00,0x00,0x00,0x00,0x00,0x00,0xf8,0x3f,0xc0,0xff,0xff,0x03,0xfc,0x1f,0x00,0x00,0x00,0x00,0x00,0x00,0x00,0x00,0x00,0x00,0x00,0x00,0x00,0x00,0x00,0x00,0x00,0x00,0x00,0x00,0x00,0x00,0x00,0x00,0xf8,0x3f,0xc0,0xff,0xff,0x03,0xfc,0x1f,0x00,0x00,0x00,0x00,0x00,0x00,0x00,0x00,0x00,0x00,0x00,0x00,0x00,0x00,0x00,0x00,0x00,0x00,0x00,0x00,0x00,0x00,0x00,0x00,0xf8,0x3f,0xc0,0xff,0xff,0x03,0x00,0x00,0x00,0x00,0x00,0x00,0x00,0x00,0x00,0x00,0x00,0x00,0x00,0x00,0x00,0x00,0x00,0x00,0x00,0x00,0x00,0x00,0x00,0x00,0x00,0x00,0x00,0x00,0xc0,0xff,0xfd,0x03,0x00,0x00,0x00,0x00,0x00,0x00,0x00,0x00,0x00,0x00,0x00,0x00,0x00,0x00,0x00,0x00,0x00,0x00,0x00,0x00,0x00,0x00,0x00,0x00,0x00,0x00,0x00,0x00,0xc0,0xff,0xff,0x03,0x00,0x00,0x00,0x00,0x00,0x00,0x00,0x00,0x00,0x00,0x00,0x00,0x00,0x00,0x00,0x00,0x00,0x00,0x00,0x00,0x00,0x00,0x00,0x00,0x00,0x00,0x00,0x00,0xc0,0xff,0x03,0x03,0x00,0x00,0x00,0x00,0x00,0x00,0x00,0x00,0x00,0x00,0x00,0x00,0x00,0x00,0x00,0x00,0x00,0x00,0x00,0x00,0x00,0x00,0x00,0x00,0x00,0x00,0x00,0x00,0xc0,0xc0,0x01,0x02,0x00,0x00,0x00,0x00,0x00,0x00,0x00,0x00,0x00,0x00,0x00,0x00,0x00,0x00,0x00,0x00,0x00,0x00,0x00,0x00,0x00,0x00,0x00,0x00,0x00,0x00,0x00,0x00,0x40,0x80,0x03,0x03,0x00,0x00,0x00,0x00,0x00,0x00,0x00,0x00,0x00,0x00,0x00,0x00,0x00,0x00,0x00,0x00,0x00,0x00,0x00,0x00,0x00,0x00,0x00,0x00,0x00,0x00,0x00,0x00,0xc0,0xc0,0xcf,0x03,0x00,0x00,0x00,0x00,0x00,0x00,0x00,0x00,0x00,0x00,0x00,0x00,0x00,0x00,0x00,0x00,0x00,0x00,0x00,0x00,0x00,0x00,0x00,0x00,0x00,0x00,0x00,0x00,0xc0,0xf3,0xcd,0x03,0x00,0x00,0x00,0x00,0x00,0x00,0x00,0x00,0x00,0x00,0x00,0x00,0x00,0x00,0x00,0x00,0x00,0x00,0x00,0x00,0x00,0x00,0x00,0x00,0x00,0x00,0x00,0x00,0xc0,0xf3,0xcf,0x03,0x00,0x00,0x00,0x00,0x00,0x00,0x00,0x00,0x00,0x00,0x00,0x00,0x00,0x00,0x00,0x00,0x00,0x00,0x00,0x00,0x00,0x00,0x00,0x00,0x00,0x00,0x00,0x00,0xc0,0xf3,0xcf,0x03,0x00,0x00,0x00,0x00,0x00,0x00,0x00,0x00,0x00,0x00,0x00,0x00,0x00,0x00,0x00,0x00,0x00,0x00,0x00,0x00,0x00,0x00,0x00,0x00,0x00,0x00,0x00,0x00,0xc0,0xf3,0x0f,0x00,0x00,0x00,0x00,0x00,0x00,0x00,0x00,0x00,0x00,0x00,0x00,0x00,0x00,0x00,0x00,0x00,0x00,0x00,0x00,0x00,0x00,0x00,0x00,0x00,0x00,0x00,0x00,0x00,0x00,0xf0,0x0f,0x00,0x00,0x00,0x00,0x00,0x00,0x00,0x00,0x00,0x00,0x00,0x00,0x00,0x00,0x00,0x00,0x00,0x00,0x00,0x00,0x00,0x00,0x00,0x00,0x00,0x00,0x00,0x00,0x00,0x00,0xf0,0x0f,0x00,0x00,0x00,0x00,0x00,0x00,0x00,0x00,0x00,0x00,0x00,0x00,0x00,0x00,0x00,0x00,0x00,0x00,0x00,0x00,0x00,0x00,0x00,0x00,0x00,0x00,0x00,0x00,0x00,0x00,0xf0,0x03,0x00,0x00,0x00,0x00,0x00,0x00,0x00,0x00,0x00,0x00,0x00,0x00,0x00,0x00,0x00,0x00,0x00,0x00,0x00,0x00,0x00,0x00,0x00,0x00,0x00,0x00,0x00,0x00,0x00,0x00,0xc0,0x03,0x00,0x00,0x00,0x00,0x00,0x00,0x00,0x00,0x00,0x00,0x00,0x00,0x00,0x00,0x00,0x00,0x00,0x00,0x00,0x00,0x00,0x00,0x00,0x00,0x00,0x00,0x00,0x00,0x00,0x00,0xc0,0x0f,0x00,0x00,0x00,0x00,0x00,0x00,0x00,0x00,0x00,0x00,0x00,0x00,0x00,0x00,0x00,0x00,0x00,0x00,0x00,0x00,0x00,0x00,0x00,0x00,0x00,0x00,0x00,0x00,0x00,0x00,0xf0,0x0f,0x00,0x00,0x00,0x00,0x00,0x00,0x00,0x00,0x00,0x00,0x00,0x00,0x00,0x00,0x00,0x00,0x00,0x00,0x00,0x00,0x00,0x00,0x00,0x00,0x00,0x00,0x00,0x00,0x00,0x00,0xf0,0x0f,0x00,0x00,0x00,0x00,0x00,0x00,0x00,0x00,0x00,0x00,0x00,0x00,0x00,0x00,0x00,0x00,0x00,0x00,0x00,0x00,0x00,0x00,0x00,0x00,0x00,0x00,0x00,0x00,0x00,0x00,0xf0,0xcf,0x03,0x00,0x00,0x00,0x00,0x00,0x00,0x00,0x00,0x00,0x00,0x00,0x00,0x00,0x00,0x00,0x00,0x00,0x00,0x00,0x00,0x00,0x00,0x00,0x00,0x00,0x00,0x00,0x00,0xc0,0xf3,0xcf,0x03,0x00,0x00,0x00,0x00,0x00,0x00,0x00,0x00,0x00,0x00,0x00,0x00,0x00,0x00,0x00,0x00,0x00,0x00,0x00,0x00,0x00,0x00,0x00,0x00,0x00,0x00,0x00,0x00,0xc0,0xf3,0xcf,0x03,0x00,0x00,0x00,0x00,0x00,0x00,0x00,0x00,0x00,0x00,0x00,0x00,0x00,0x00,0x00,0x00,0x00,0x00,0x00,0x00,0x00,0x00,0x00,0x00,0x00,0x00,0x00,0x00,0xc0,0xf3,0xcf,0x03,0x00,0x00,0x00,0x00,0x00,0x00,0x00,0x00,0x00,0x00,0x00,0x00,0x00,0x00,0x00,0x00,0x00,0x00,0x00,0x00,0x00,0x00,0x00,0x00,0x00,0x00,0x00,0x00,0xc0,0xf3,0x03,0x03,0x00,0x00,0x00,0x00,0x00,0x00,0x00,0x00,0x00,0x00,0x00,0x00,0x00,0x00,0x00,0x00,0x00,0x00,0x00,0x00,0x00,0x00,0x00,0x00,0x00,0x00,0x00,0x00,0xc0,0xc0,0x01,0x02,0x00,0x00,0x00,0x00,0x00,0x00,0x00,0x00,0x00,0x00,0x00,0x00,0x00,0x00,0x00,0x00,0x00,0x00,0x00,0x00,0x00,0x00,0x00,0x00,0x00,0x00,0x00,0x00,0x40,0x80,0x03,0x03,0x00,0x00,0x00,0x00,0x00,0x00,0x00,0x00,0x00,0x00,0x00,0x00,0x00,0x00,0x00,0x00,0x00,0x00,0x00,0x00,0x00,0x00,0x00,0x00,0x00,0x00,0x00,0x00,0xc0,0xc0,0xff,0x03,0x00,0x00,0x00,0x00,0x00,0x00,0x00,0x00,0x00,0x00,0x00,0x00,0x00,0x00,0x00,0x00,0x00,0x00,0x00,0x00,0x00,0x00,0x00,0x00,0x00,0x00,0x00,0x00,0xc0,0xff,0xff,0x03,0x00,0x00,0x00,0x00,0x00,0x00,0x00,0x00,0x00,0x00,0x00,0x00,0x00,0x00,0x00,0x00,0x00,0x00,0x00,0x00,0x00,0x00,0x00,0x00,0x00,0x00,0x00,0x00,0xc0,0xff,0xff,0x03,0x00,0x00,0x00,0x00,0x00,0x00,0x00,0x00,0x00,0x00,0x00,0x00,0x00,0x00,0x00,0x00,0x00,0x00,0x00,0x00,0x00,0x00,0x00,0x00,0x00,0x00,0x00,0x00,0xc0,0xff,0xff,0x03,0xfc,0x1f,0x00,0x00,0x00,0x00,0x00,0x00,0x00,0x00,0x00,0x00,0x00,0x00,0x00,0x00,0x00,0x00,0x00,0x00,0x00,0x00,0x00,0x00,0x00,0x00,0xf8,0x3f,0xc0,0xff,0xff,0x03,0xfc,0x1f,0x00,0x00,0x00,0x00,0x00,0x00,0x00,0x00,0x00,0x00,0x00,0x00,0x00,0x00,0x00,0x00,0x00,0x00,0x00,0x00,0x00,0x00,0x00,0x00,0xf8,0x3f,0xc0,0xff,0xff,0x03,0xec,0x1f,0x00,0x00,0x00,0x00,0x00,0x00,0x00,0x00,0x00,0x00,0x00,0x00,0x00,0x00,0x00,0x00,0x00,0x00,0x00,0x00,0x00,0x00,0x00,0x00,0xf8,0x3f,0xc0,0xff,0xff,0x03,0xfc,0x1f,0x00,0x00,0x00,0x00,0x00,0x00,0x00,0x00,0x00,0x00,0x00,0x00,0x00,0x00,0x00,0x00,0x00,0x00,0x00,0x00,0x00,0x00,0x00,0x00,0xf8,0x3f,0xc0,0xff,0x03,0x03,0x1c,0x18,0x00,0x00,0x00,0x00,0x00,0x00,0x00,0x00,0x00,0x00,0x00,0x00,0x00,0x00,0x00,0x00,0x00,0x00,0x00,0x00,0x00,0x00,0x00,0x00,0x18,0x38,0xc0,0xc0,0x03,0x03,0x1c,0x18,0x00,0x00,0x00,0x00,0x00,0x00,0x00,0x00,0x00,0x00,0x00,0x00,0x00,0x00,0x00,0x00,0x00,0x00,0x00,0x00,0x00,0x00,0x00,0x00,0x18,0x38,0xc0,0xc0,0xcf,0x03,0x7c,0x1e,0x00,0x00,0x00,0x00,0x00,0x00,0x00,0x00,0x00,0x00,0x00,0x00,0x00,0x00,0x00,0x00,0x00,0x00,0x00,0x00,0x00,0x00,0x00,0x00,0x78,0x3e,0xc0,0xf3,0xcf,0x03,0x7c,0x1e,0x00,0x00,0x00,0x00,0x00,0x00,0x00,0x00,0x00,0x00,0x00,0x00,0x00,0x00,0x00,0x00,0x00,0x00,0x00,0x00,0x00,0x00,0x00,0x00,0x78,0x3e,0xc0,0xf3,0xcf,0x03,0x7c,0x1e,0x00,0x00,0x00,0x00,0x00,0x00,0x00,0x00,0x00,0x00,0x00,0x00,0x00,0x00,0x00,0x00,0x00,0x00,0x00,0x00,0x00,0x00,0x00,0x00,0x78,0x3e,0xc0,0xf3,0xcf,0x03,0x7c,0x1e,0x00,0x00,0x00,0x00,0x00,0x00,0x00,0x00,0x00,0x00,0x00,0x00,0x00,0x00,0x00,0x00,0x00,0x00,0x00,0x00,0x00,0x00,0x00,0x00,0x78,0x1e,0xc0,0xf3,0x0f,0x00,0x00,0x1e,0x00,0x00,0x00,0x00,0x00,0x00,0x00,0x00,0x00,0x00,0x00,0x00,0x00,0x00,0x00,0x00,0x00,0x00,0x00,0x00,0x00,0x00,0x00,0x00,0x78,0x00,0x00,0xf0,0x0f,0x00,0x00,0x1e,0x00,0x00,0x00,0x00,0x00,0x00,0x00,0x00,0x00,0x00,0x00,0x00,0x00,0x00,0x00,0x00,0x00,0x00,0x00,0x00,0x00,0x00,0x00,0x00,0x78,0x00,0x00,0xf0,0x0f,0x00,0x00,0x1e,0x00,0x00,0x00,0x00,0x00,0x00,0x00,0x00,0x00,0x00,0x00,0x00,0x00,0x00,0x00,0x00,0x00,0x00,0x00,0x00,0x00,0x00,0x00,0x00,0x78,0x00,0x00,0xf0,0x03,0x00,0x00,0x18,0x00,0x00,0x00,0x00,0x00,0x00,0x00,0x00,0x00,0x00,0x00,0x00,0x00,0x00,0x00,0x00,0x00,0x00,0x00,0x00,0x00,0x00,0x00,0x00,0x18,0x00,0x00,0xc0,0x01,0x00,0x00,0x18,0x00,0x00,0x00,0x00,0x00,0x00,0x00,0x00,0x00,0x00,0x00,0x00,0x00,0x00,0x00,0x00,0x00,0x00,0x00,0x00,0x00,0x00,0x00,0x00,0x18,0x00,0x00,0x80,0x03,0x00,0x00,0x18,0x00,0x00,0x00,0x00,0x00,0x00,0x00,0x00,0x00,0x00,0x00,0x00,0x00,0x00,0x00,0x00,0x00,0x00,0x00,0x00,0x00,0x00,0x00,0x00,0x18,0x00,0x00,0xc0,0x0f,0x00,0x00,0x1e,0x00,0x00,0x00,0x00,0x00,0x00,0x00,0x00,0x00,0x00,0x00,0x00,0x00,0x00,0x00,0x00,0x00,0x00,0x00,0x00,0x00,0x00,0x00,0x00,0x78,0x00,0x00,0xf0,0x0f,0x00,0x00,0x1e,0x00,0x00,0x00,0x00,0x00,0x00,0x00,0x00,0x00,0x00,0x00,0x00,0x00,0x00,0x00,0x00,0x00,0x00,0x00,0x00,0x00,0x00,0x00,0x00,0x78,0x00,0x00,0xf0,0x0f,0x00,0x00,0x1e,0x00,0x00,0x00,0x00,0x00,0x00,0x00,0x00,0x00,0x00,0x00,0x00,0x00,0x00,0x00,0x00,0x00,0x00,0x00,0x00,0x00,0x00,0x00,0x00,0x78,0x00,0x00,0xf0,0xcf,0x9f,0x7f,0x1e,0x00,0x00,0x00,0x00,0x00,0x00,0x00,0x00,0x00,0x00,0x00,0x00,0x00,0x00,0x00,0x00,0x00,0x00,0x00,0x00,0x00,0x00,0x00,0x00,0x78,0xfe,0xf9,0xf3,0xcf,0x9f,0x7f,0x1e,0x00,0x00,0x00,0x00,0x00,0x00,0x00,0x00,0x00,0x00,0x00,0x00,0x00,0x00,0x00,0x00,0x00,0x00,0x00,0x00,0x00,0x00,0x00,0x00,0x78,0xfe,0xf9,0xf3,0xcf,0x9f,0x7f,0x1e,0x00,0x00,0x00,0x00,0x00,0x00,0x00,0x00,0x00,0x00,0x00,0x00,0x00,0x00,0x00,0x00,0x00,0x00,0x00,0x00,0x00,0x00,0x00,0x00,0x78,0xfe,0xf9,0xf3,0xcf,0x9f,0x3f,0x1e,0x00,0x00,0x00,0x00,0x00,0x00,0x00,0x00,0x00,0x00,0x00,0x00,0x00,0x00,0x00,0x00,0x00,0x00,0x00,0x00,0x00,0x00,0x00,0x00,0x78,0xfe,0xf9,0xf3,0x03,0x07,0x1e,0x18,0x00,0x00,0x00,0x00,0x00,0x00,0x00,0x00,0x00,0x00,0x00,0x00,0x00,0x00,0x00,0x00,0x00,0x00,0x00,0x00,0x00,0x00,0x00,0x00,0x18,0x78,0xe0,0xc0,0x03,0x07,0x1e,0x18,0x00,0x00,0x00,0x00,0x00,0x00,0x00,0x00,0x00,0x00,0x00,0x00,0x00,0x00,0x00,0x00,0x00,0x00,0x00,0x00,0x00,0x00,0x00,0x00,0x18,0x78,0xe0,0xc0,0xff,0xff,0xff,0x1f,0x00,0x00,0x00,0x00,0x00,0x00,0x00,0x00,0x00,0x00,0x00,0x00,0x00,0x00,0x00,0x00,0x00,0x00,0x00,0x00,0x00,0x00,0x00,0x00,0xf8,0xff,0xff,0xff,0xff,0xff,0xff,0x1f,0x00,0x00,0x00,0x00,0x00,0x00,0x00,0x00,0x00,0x00,0x00,0x00,0x00,0x00,0x00,0x00,0x00,0x00,0x00,0x00,0x00,0x00,0x00,0x00,0xf8,0xff,0xff,0xff,0xff,0xff,0xff,0x1f,0x00,0x00,0x00,0x00,0x00,0x00,0x00,0x00,0x00,0x00,0x00,0x00,0x00,0x00,0x00,0x00,0x00,0x00,0x00,0x00,0x00,0x00,0x00,0x00,0xf8,0xff,0xff,0xff,0xff,0xff,0xff,0x1f,0x00,0x00,0x00,0xfe,0xff,0xff,0x3f,0x00,0x00,0x00,0x00,0x00,0x00,0x00,0x00,0x00,0x00,0xfc,0xff,0xff,0x7f,0x00,0x00,0x00,0xf8,0xff,0xff,0xff,0xff,0xff,0xff,0x1f,0x00,0x00,0x00,0xff,0xff,0xff,0x3f,0x00,0x00,0x00,0x00,0x00,0x00,0x00,0x00,0x00,0x00,0xfc,0xff,0xff,0xff,0x00,0x00,0x00,0xf8,0xff,0xff,0xff,0x7d,0xff,0xef,0x1f,0x00,0x00,0x00,0xfb,0xff,0xdf,0x3e,0x00,0x00,0x00,0x00,0x00,0x00,0x00,0x00,0x00,0x00,0xec,0xff,0x7f,0xdf,0x00,0x00,0x00,0xc8,0xf7,0xff,0xfe,0xff,0xff,0xff,0x1f,0x00,0x00,0x00,0xfb,0xff,0xdf,0x3f,0x00,0x00,0x00,0x00,0x00,0x00,0x00,0x00,0x00,0x00,0xfc,0xff,0xff,0xdf,0x00,0x00,0x00,0xf8,0xff,0xff,0xff,0x03,0x07,0x1e,0x18,0x00,0x00,0x00,0x03,0x0e,0x1c,0x30,0x00,0x00,0x00,0x00,0x00,0x00,0x00,0x00,0x00,0x00,0x0c,0x38,0x70,0xc0,0x00,0x00,0x00,0x18,0x78,0xe0,0xc0,0x01,0x07,0x0c,0x18,0x00,0x00,0x00,0x03,0x0e,0x1c,0x30,0x00,0x00,0x00,0x00,0x00,0x00,0x00,0x00,0x00,0x00,0x0c,0x38,0x70,0xc0,0x00,0x00,0x00,0x08,0x70,0xe0,0x80,0x07,0x9f,0x1f,0x1a,0x00,0x00,0x00,0x83,0x3f,0x5f,0x30,0x00,0x00,0x00,0x00,0x00,0x00,0x00,0x00,0x00,0x00,0x0c,0x7a,0x74,0xd1,0x00,0x00,0x00,0x18,0xfc,0xe9,0xf3,0xcf,0x9f,0x7f,0x1e,0x00,0x00,0x00,0x9b,0x3f,0xff,0x3c,0x00,0x00,0x00,0x00,0x00,0x00,0x00,0x00,0x00,0x00,0x3c,0xfe,0xfc,0x79,0x00,0x00,0x00,0x78,0xfc,0xf9,0xf3,0xcd,0x9f,0x6d,0x16,0x00,0x00,0x00,0x9b,0x3e,0xdb,0x3c,0x00,0x00,0x00,0x00,0x00,0x00,0x00,0x00,0x00,0x00,0x2c,0xfb,0x7c,0xd9,0x00,0x00,0x00,0x48,0xb6,0xf9,0xb3,0xcf,0x9f,0x7f,0x1e,0x00,0x00,0x00,0x9f,0x3f,0x7f,0x3c,0x00,0x00,0x00,0x00,0x00,0x00,0x00,0x00,0x00,0x00,0x3c,0xff,0xfc,0xf9,0x00,0x00,0x00,0x78,0xfe,0xf9,0xf3,0xcf,0x9f,0x3f,0x1e,0x00,0x00,0x00,0x9f,0x3f,0x7f,0x3c,0x00,0x00,0x00,0x00,0x00,0x00,0x00,0x00,0x00,0x00,0x3c,0xfe,0xfc,0xf9,0x00,0x00,0x00,0x78,0xfc,0xf9,0xf3,0x0f,0x00,0x00,0x1e,0x00,0x00,0x00,0x1f,0x00,0x00,0x3c,0x00,0x00,0x00,0x00,0x00,0x00,0x00,0x00,0x00,0x00,0x3c,0x00,0x00,0xf8,0x00,0x00,0x00,0x78,0x00,0x00,0xf0,0x0f,0x00,0x00,0x1e,0x00,0x00,0x00,0x1b,0x00,0x00,0x3c,0x00,0x00,0x00,0x00,0x00,0x00,0x00,0x00,0x00,0x00,0x3c,0x00,0x00,0xf8,0x00,0x00,0x00,0x78,0x00,0x00,0xb0,0x0f,0x00,0x00,0x1e,0x00,0x00,0x00,0x1f,0x00,0x00,0x3c,0x00,0x00,0x00,0x00,0x00,0x00,0x00,0x00,0x00,0x00,0x3c,0x00,0x00,0xd8,0x00,0x00,0x00,0x78,0x00,0x00,0xf0,0x03,0x00,0x00,0x18,0x00,0x00,0x00,0x03,0x00,0x00,0x30,0x00,0x00,0x00,0x00,0x00,0x00,0x00,0x00,0x00,0x00,0x0c,0x00,0x00,0xc0,0x00,0x00,0x00,0x18,0x00,0x00,0xc0,0x03,0x00,0x00,0x18,0x00,0x00,0x00,0x03,0x00,0x00,0x30,0x00,0x00,0x00,0x00,0x00,0x00,0x00,0x00,0x00,0x00,0x0c,0x00,0x00,0xc0,0x00,0x00,0x00,0x18,0x00,0x00,0xc0,0x0f,0x00,0x00,0x1e,0x00,0x00,0x00,0x1b,0x00,0x00,0x3c,0x00,0x00,0x00,0x00,0x00,0x00,0x00,0x00,0x00,0x00,0x3c,0x00,0x00,0xf8,0x00,0x00,0x00,0x78,0x00,0x00,0xf0,0x0f,0x00,0x00,0x1e,0x00,0x00,0x00,0x1b,0x00,0x00,0x3c,0x00,0x00,0x00,0x00,0x00,0x00,0x00,0x00,0x00,0x00,0x3c,0x00,0x00,0xf8,0x00,0x00,0x00,0x78,0x00,0x00,0xf0,0x0f,0x00,0x00,0x1e,0x00,0x00,0x00,0x1f,0x00,0x00,0x3c,0x00,0x00,0x00,0x00,0x00,0x00,0x00,0x00,0x00,0x00,0x3c,0x00,0x00,0xf8,0x00,0x00,0x00,0x78,0x00,0x00,0xf0,0xcf,0x03,0x7c,0x1e,0x00,0x00,0x00,0x9f,0x07,0xf8,0x3c,0x00,0x00,0x00,0x00,0x00,0x00,0x00,0x00,0x00,0x00,0x3c,0x1f,0xe0,0xf9,0x00,0x00,0x00,0x78,0x3c,0xc0,0xf3,0xcf,0x03,0x78,0x1e,0x00,0x00,0x00,0x9f,0x07,0xf8,0x3c,0x00,0x00,0x00,0x00,0x00,0x00,0x00,0x00,0x00,0x00,0x3c,0x1f,0xe0,0xf9,0x00,0x00,0x00,0x78,0x3e,0xc0,0xf3,0xcd,0x02,0x6c,0x1e,0x00,0x00,0x00,0x9f,0x07,0xd8,0x34,0x00,0x00,0x00,0x00,0x00,0x00,0x00,0x00,0x00,0x00,0x2c,0x1b,0x60,0xd9,0x00,0x00,0x00,0x68,0x36,0xc0,0xf2,0xcf,0x03,0x6c,0x1e,0x00,0x00,0x00,0x9b,0x07,0xd8,0x3c,0x00,0x00,0x00,0x00,0x00,0x00,0x00,0x00,0x00,0x00,0x3c,0x1e,0xe0,0xd9,0x00,0x00,0x00,0x78,0x3e,0xc0,0xf3,0x03,0x03,0x1c,0x18,0x00,0x00,0x00,0x03,0x06,0x18,0x30,0x00,0x00,0x00,0x00,0x00,0x00,0x00,0x00,0x00,0x00,0x0c,0x18,0x60,0xc0,0x00,0x00,0x00,0x18,0x38,0xc0,0xc0,0x03,0x03,0x1c,0x18,0x00,0x00,0x00,0x03,0x06,0x18,0x30,0x00,0x00,0x00,0x00,0x00,0x00,0x00,0x00,0x00,0x00,0x0c,0x18,0x60,0xc0,0x00,0x00,0x00,0x18,0x30,0xc0,0x80,0x7f,0x03,0xfc,0x1f,0x00,0x00,0x00,0xdb,0x07,0xd8,0x37,0x00,0x00,0x00,0x00,0x00,0x00,0x00,0x00,0x00,0x00,0x6c,0x1b,0x60,0xcf,0x00,0x00,0x00,0xf8,0x3f,0xc0,0xff,0xff,0x03,0xfc,0x1f,0x00,0x00,0x00,0xfb,0x07,0xf8,0x3f,0x00,0x00,0x00,0x00,0x00,0x00,0x00,0x00,0x00,0x00,0xfc,0x1f,0xe0,0xdf,0x00,0x00,0x00,0xf8,0x3f,0xc0,0xff,0x6d,0x02,0xec,0x13,0x00,0x00,0x00,0xfb,0x04,0xd8,0x36,0x00,0x00,0x00,0x00,0x00,0x00,0x00,0x00,0x00,0x00,0xe4,0x1b,0x20,0xdb,0x00,0x00,0x00,0xe8,0x37,0x40,0xb7,0xff,0x03,0xfc,0x1f,0x00,0x00,0x00,0xff,0x07,0xf8,0x3f,0x00,0x00,0x00,0x00,0x00,0x00,0x00,0x00,0x00,0x00,0xfc,0x1f,0xe0,0xff,0x00,0x00,0x00,0xf8,0x3f,0xc0,0xff,0xff,0x03,0xf8,0x0f,0x00,0x00,0x00,0xfe,0x07,0xf8,0x3f,0x00,0x00,0x00,0x00,0x00,0x00,0x00,0x00,0x00,0x00,0xfc,0x1f,0xe0,0x7f,0x00,0x00,0x00,0xf0,0x1f,0xc0,0xff,0xff,0x03,0x00,0x00,0x00,0x00,0x00,0x00,0x00,0xf8,0x3f,0x00,0x00,0x00,0x00,0x00,0x00,0x00,0x00,0x00,0x00,0xfc,0x1f,0x00,0x00,0x00,0x00,0x00,0x00,0x00,0xc0,0xff,0xff,0x03,0x00,0x00,0x00,0x00,0x00,0x00,0x00,0xf8,0x3f,0x00,0x00,0x00,0x00,0x00,0x00,0x00,0x00,0x00,0x00,0xfc,0x1f,0x00,0x00,0x00,0x00,0x00,0x00,0x00,0xc0,0xff,0xff,0x03,0x00,0x00,0x00,0x00,0x00,0x00,0x00,0xd8,0x3f,0x00,0x00,0x00,0x00,0x00,0x00,0x00,0x00,0x00,0x00,0xfc,0x1f,0x00,0x00,0x00,0x00,0x00,0x00,0x00,0xc0,0xff,0x03,0x03,0x00,0x00,0x00,0x00,0x00,0x00,0x00,0x18,0x30,0x00,0x00,0x00,0x00,0x00,0x00,0x00,0x00,0x00,0x00,0x0c,0x18,0x00,0x00,0x00,0x00,0x00,0x00,0x00,0xc0,0xc0,0x03,0x03,0x00,0x00,0x00,0x00,0x00,0x00,0x00,0x18,0x30,0x00,0x00,0x00,0x00,0x00,0x00,0x00,0x00,0x00,0x00,0x0c,0x18,0x00,0x00,0x00,0x00,0x00,0x00,0x00,0xc0,0xc0,0xcf,0x03,0x00,0x00,0x00,0x00,0x00,0x00,0x00,0x78,0x3c,0x00,0x00,0x00,0x00,0x00,0x00,0x00,0x00,0x00,0x00,0x3c,0x1e,0x00,0x00,0x00,0x00,0x00,0x00,0x00,0xc0,0xf3,0xcf,0x03,0x00,0x00,0x00,0x00,0x00,0x00,0x00,0xf8,0x3c,0x00,0x00,0x00,0x00,0x00,0x00,0x00,0x00,0x00,0x00,0x3c,0x1f,0x00,0x00,0x00,0x00,0x00,0x00,0x00,0xc0,0xf3,0xcf,0x03,0x00,0x00,0x00,0x00,0x00,0x00,0x00,0xf8,0x3c,0x00,0x00,0x00,0x00,0x00,0x00,0x00,0x00,0x00,0x00,0x3c,0x1f,0x00,0x00,0x00,0x00,0x00,0x00,0x00,0xc0,0xf3,0xcf,0x03,0x00,0x00,0x00,0x00,0x00,0x00,0x00,0xf8,0x3c,0x00,0x00,0x00,0x00,0x00,0x00,0x00,0x00,0x00,0x00,0x3c,0x1f,0x00,0x00,0x00,0x00,0x00,0x00,0x00,0xc0,0xf3,0x0f,0x00,0x00,0x00,0x00,0x00,0x00,0x00,0x00,0x00,0x3c,0x00,0x00,0x00,0x00,0x00,0x00,0x00,0x00,0x00,0x00,0x3c,0x00,0x00,0x00,0x00,0x00,0x00,0x00,0x00,0x00,0xf0,0x0f,0x00,0x00,0x00,0x00,0x00,0x00,0x00,0x00,0x00,0x3c,0x00,0x00,0x00,0x00,0x00,0x00,0x00,0x00,0x00,0x00,0x3c,0x00,0x00,0x00,0x00,0x00,0x00,0x00,0x00,0x00,0xf0,0x0f,0x00,0x00,0x00,0x00,0x00,0x00,0x00,0x00,0x00,0x3c,0x00,0x00,0x00,0x00,0x00,0x00,0x00,0x00,0x00,0x00,0x3c,0x00,0x00,0x00,0x00,0x00,0x00,0x00,0x00,0x00,0xf0,0x03,0x00,0x00,0x00,0x00,0x00,0x00,0x00,0x00,0x00,0x30,0x00,0x00,0x00,0x00,0x00,0x00,0x00,0x00,0x00,0x00,0x0c,0x00,0x00,0x00,0x00,0x00,0x00,0x00,0x00,0x00,0xc0,0x03,0x00,0x00,0x00,0x00,0x00,0x00,0x00,0x00,0x00,0x30,0x00,0x00,0x00,0x00,0x00,0x00,0x00,0x00,0x00,0x00,0x0c,0x00,0x00,0x00,0x00,0x00,0x00,0x00,0x00,0x00,0xc0,0x0f,0x00,0x00,0x00,0x00,0x00,0x00,0x00,0x00,0x00,0x3c,0x00,0x00,0x00,0x00,0x00,0x00,0x00,0x00,0x00,0x00,0x3c,0x00,0x00,0x00,0x00,0x00,0x00,0x00,0x00,0x00,0xf0,0x0f,0x00,0x00,0x00,0x00,0x00,0x00,0x00,0x00,0x00,0x3c,0x00,0x00,0x00,0x00,0x00,0x00,0x00,0x00,0x00,0x00,0x3c,0x00,0x00,0x00,0x00,0x00,0x00,0x00,0x00,0x00,0xf0,0x0d,0x00,0x00,0x00,0x00,0x00,0x00,0x00,0x00,0x00,0x34,0x00,0x00,0x00,0x00,0x00,0x00,0x00,0x00,0x00,0x00,0x2c,0x00,0x00,0x00,0x00,0x00,0x00,0x00,0x00,0x00,0xb0,0x0f,0x00,0x00,0x00,0x00,0x00,0x00,0x00,0x00,0x00,0x3c,0x00,0x00,0x00,0x00,0x00,0x00,0x00,0x00,0x00,0x00,0x3c,0x00,0x00,0x00,0x00,0x00,0x00,0x00,0x00,0x00,0xf0,0xcf,0x03,0x00,0x00,0x00,0x00,0x00,0x00,0x00,0xf8,0x3c,0x00,0x00,0x00,0x00,0x00,0x00,0x00,0x00,0x00,0x00,0x3c,0x1f,0x00,0x00,0x00,0x00,0x00,0x00,0x00,0xc0,0xf3,0xcf,0x03,0x00,0x00,0x00,0x00,0x00,0x00,0x00,0xf8,0x3c,0x00,0x00,0x00,0x00,0x00,0x00,0x00,0x00,0x00,0x00,0x3c,0x1f,0x00,0x00,0x00,0x00,0x00,0x00,0x00,0xc0,0xf3,0xcf,0x03,0x00,0x00,0x00,0x00,0x00,0x00,0x00,0x78,0x3c,0x00,0x00,0x00,0x00,0x00,0x00,0x00,0x00,0x00,0x00,0x3c,0x1e,0x00,0x00,0x00,0x00,0x00,0x00,0x00,0xc0,0xf3,0xcf,0x03,0x00,0x00,0x00,0x00,0x00,0x00,0x00,0xf8,0x3c,0x00,0x00,0x00,0x00,0x00,0x00,0x00,0x00,0x00,0x00,0x3c,0x1a,0x00,0x00,0x00,0x00,0x00,0x00,0x00,0xc0,0xf3,0x03,0x03,0x00,0x00,0x00,0x00,0x00,0x00,0x00,0x18,0x30,0x00,0x00,0x00,0x00,0x00,0x00,0x00,0x00,0x00,0x00,0x0c,0x18,0x00,0x00,0x00,0x00,0x00,0x00,0x00,0xc0,0xc0,0x03,0x03,0x00,0x00,0x00,0x00,0x00,0x00,0x00,0x18,0x30,0x00,0x00,0x00,0x00,0x00,0x00,0x00,0x00,0x00,0x00,0x0c,0x18,0x00,0x00,0x00,0x00,0x00,0x00,0x00,0xc0,0xc0,0xff,0x03,0x00,0x00,0x00,0x00,0x00,0x00,0x00,0xf8,0x3f,0x00,0x00,0x00,0x00,0x00,0x00,0x00,0x00,0x00,0x00,0xfc,0x1f,0x00,0x00,0x00,0x00,0x00,0x00,0x00,0xc0,0xff,0xfd,0x03,0x00,0x00,0x00,0x00,0x00,0x00,0x00,0xf8,0x3f,0x00,0x00,0x00,0x00,0x00,0x00,0x00,0x00,0x00,0x00,0xfc,0x1f,0x00,0x00,0x00,0x00,0x00,0x00,0x00,0xc0,0xff,0xff,0x03,0x00,0x00,0x00,0x00,0x00,0x00,0x00,0xf8,0x3f,0x00,0x00,0x00,0x00,0x00,0x00,0x00,0x00,0x00,0x00,0xfc,0x1f,0x00,0x00,0x00,0x00,0x00,0x00,0x00,0xc0,0xff,0xff,0x03,0xfc,0xff,0x3f,0x80,0xff,0xff,0x07,0xf8,0x3f,0x00,0x00,0x00,0x00,0x00,0x00,0x00,0x00,0x00,0x00,0xfc,0x1f,0xe0,0xff,0xff,0x01,0xfc,0xff,0x1f,0xc0,0xff,0xff,0x03,0xfc,0xff,0x3f,0x80,0xff,0xff,0x07,0xf8,0x3f,0x00,0x00,0x00,0x00,0x00,0x00,0x00,0x00,0x00,0x00,0xfc,0x1f,0xe0,0xff,0xff,0x01,0xfc,0xff,0x3f,0xc0,0xff,0xfd,0x03,0xec,0xff,0x3f,0x80,0xff,0xfb,0x07,0xd8,0x3f,0x00,0x00,0x00,0x00,0x00,0x00,0x00,0x00,0x00,0x00,0x7c,0x1b,0x60,0xdf,0xff,0x01,0xfc,0xff,0x37,0xc0,0xbe,0xff,0x03,0xfc,0xff,0x3f,0x80,0xff,0xfb,0x07,0xf8,0x3f,0x00,0x00,0x00,0x00,0x00,0x00,0x00,0x00,0x00,0x00,0xfc,0x1b,0xe0,0xff,0xff,0x01,0xfc,0xff,0x37,0xc0,0xbf,0x03,0x03,0x1c,0x38,0x30,0x80,0x81,0x03,0x06,0x18,0x30,0x00,0x00,0x00,0x00,0x00,0x00,0x00,0x00,0x00,0x00,0x0c,0x18,0x60,0xc0,0x81,0x01,0x0c,0x1c,0x38,0xc0,0xc0,0x01,0x03,0x1c,0x38,0x30,0x80,0x81,0x03,0x06,0x18,0x30,0x00,0x00,0x00,0x00,0x00,0x00,0x00,0x00,0x00,0x00,0x0c,0x18,0x60,0xc0,0x81,0x01,0x0c,0x1c,0x38,0xc0,0x80,0xcf,0x03,0x3c,0xfa,0x3c,0x80,0xe7,0x8b,0x06,0x58,0x3c,0x00,0x00,0x00,0x00,0x00,0x00,0x00,0x00,0x00,0x00,0x3c,0x1a,0xe0,0xd1,0xe7,0x01,0x3c,0x5f,0x3c,0xc0,0xf2,0xcd,0x03,0x7c,0xfe,0x3c,0x80,0xe7,0x9b,0x07,0xf8,0x3c,0x00,0x00,0x00,0x00,0x00,0x00,0x00,0x00,0x00,0x00,0x3c,0x1e,0xe0,0xd9,0xe7,0x01,0x3c,0x7f,0x3e,0xc0,0xb3,0xcd,0x03,0x7c,0xf6,0x3c,0x80,0xe6,0x9f,0x07,0xf8,0x34,0x00,0x00,0x00,0x00,0x00,0x00,0x00,0x00,0x00,0x00,0x3c,0x1f,0xe0,0xd9,0xe7,0x01,0x3c,0x7f,0x3e,0xc0,0xf2,0xcf,0x03,0x7c,0xfe,0x3c,0x80,0xe7,0x9f,0x07,0x78,0x3c,0x00,0x00,0x00,0x00,0x00,0x00,0x00,0x00,0x00,0x00,0x3c,0x1f,0xe0,0xf9,0xe7,0x01,0x3c,0x7f,0x1e,0xc0,0xf3,0xcf,0x03,0x38,0xfe,0x3c,0x80,0xe7,0x9f,0x07,0x78,0x3c,0x00,0x00,0x00,0x00,0x00,0x00,0x00,0x00,0x00,0x00,0x3c,0x0e,0xc0,0xf8,0xe7,0x01,0x3c,0x7f,0x1c,0xc0,0xf3,0x0f,0x00,0x00,0xfe,0x00,0x00,0xe0,0x1f,0x00,0x00,0x3c,0x00,0x00,0x00,0x00,0x00,0x00,0x00,0x00,0x00,0x00,0x3c,0x00,0x00,0xf8,0x07,0x00,0x00,0x7f,0x00,0x00,0xf0,0x0f,0x00,0x00,0xfe,0x00,0x00,0xe0,0x1f,0x00,0x00,0x3c,0x00,0x00,0x00,0x00,0x00,0x00,0x00,0x00,0x00,0x00,0x3c,0x00,0x00,0xf8,0x07,0x00,0x00,0x7f,0x00,0x00,0xf0,0x0f,0x00,0x00,0xfe,0x00,0x00,0xe0,0x1f,0x00,0x00,0x3c,0x00,0x00,0x00,0x00,0x00,0x00,0x00,0x00,0x00,0x00,0x3c,0x00,0x00,0xd8,0x07,0x00,0x00,0x7f,0x00,0x00,0xf0,0x03,0x00,0x00,0x38,0x00,0x00,0x80,0x03,0x00,0x00,0x30,0x00,0x00,0x00,0x00,0x00,0x00,0x00,0x00,0x00,0x00,0x0c,0x00,0x00,0xc0,0x01,0x00,0x00,0x1c,0x00,0x00,0x80,0x03,0x00,0x00,0x38,0x00,0x00,0x80,0x03,0x00,0x00,0x30,0x00,0x00,0x00,0x00,0x00,0x00,0x00,0x00,0x00,0x00,0x0c,0x00,0x00,0xc0,0x01,0x00,0x00,0x1c,0x00,0x00,0xc0,0x0f,0x00,0x00,0xfe,0x00,0x00,0xe0,0x1f,0x00,0x00,0x3c,0x00,0x00,0x00,0x00,0x00,0x00,0x00,0x00,0x00,0x00,0x3c,0x00,0x00,0xf8,0x07,0x00,0x00,0x7f,0x00,0x00,0xf0,0x0f,0x00,0x00,0xfe,0x00,0x00,0xe0,0x1b,0x00,0x00,0x3c,0x00,0x00,0x00,0x00,0x00,0x00,0x00,0x00,0x00,0x00,0x3c,0x00,0x00,0xf8,0x07,0x00,0x00,0x7f,0x00,0x00,0xf0,0x0f,0x00,0x00,0xfe,0x00,0x00,0xe0,0x1f,0x00,0x00,0x3c,0x00,0x00,0x00,0x00,0x00,0x00,0x00,0x00,0x00,0x00,0x3c,0x00,0x00,0xf8,0x07,0x00,0x00,0x7f,0x00,0x00,0xf0,0xcf,0x9f,0x7f,0xfe,0xfc,0xf3,0xe7,0x9f,0x3f,0x7f,0x3c,0x00,0x00,0x00,0x00,0x00,0x00,0x00,0x00,0x00,0x00,0x3c,0xfe,0xfc,0xf9,0xe7,0xcf,0x3f,0x7f,0xfe,0xf9,0xf3,0xcf,0x9f,0x7f,0xfe,0xfc,0xf3,0xe7,0x9f,0x3f,0xff,0x3c,0x00,0x00,0x00,0x00,0x00,0x00,0x00,0x00,0x00,0x00,0x3c,0xff,0xfc,0xf9,0xe7,0xcf,0x3f,0x7f,0xfe,0xf9,0xf3,0xcf,0x9f,0x7f,0xfa,0x7c,0xf3,0xe7,0x9b,0x3d,0xff,0x3c,0x00,0x00,0x00,0x00,0x00,0x00,0x00,0x00,0x00,0x00,0x3c,0xff,0xfc,0xd9,0xe7,0xcf,0x3e,0x5f,0xfe,0xf9,0xb3,0xcf,0x9f,0x6f,0xfe,0x7c,0xf3,0xe7,0x8b,0x3f,0xff,0x3c,0x00,0x00,0x00,0x00,0x00,0x00,0x00,0x00,0x00,0x00,0x3c,0xff,0xfc,0xd9,0xe7,0xcf,0x3e,0x7f,0xf6,0xf9,0xf3,0x03,0x07,0x1e,0x38,0x70,0xc0,0x81,0x03,0x0e,0x1c,0x30,0x00,0x00,0x00,0x00,0x00,0x00,0x00,0x00,0x00,0x00,0x0c,0x38,0x70,0xc0,0x81,0x03,0x0e,0x1c,0x78,0xe0,0xc0,0x03,0x07,0x1e,0x38,0x70,0xc0,0x81,0x03,0x0e,0x1c,0x30,0x00,0x00,0x00,0x00,0x00,0x00,0x00,0x00,0x00,0x00,0x0c,0x38,0x70,0xc0,0x81,0x03,0x0e,0x1c,0x78,0xe0,0xc0,0x7f,0xff,0x7f,0xfb,0x7f,0xff,0xff,0xfb,0xff,0xdf,0x36,0x00,0x00,0x00,0x00,0x00,0x00,0x00,0x00,0x00,0x00,0x7c,0xff,0xff,0xdf,0xff,0xff,0xfe,0xdf,0xfe,0xff,0xff,0xff,0xff,0xff,0xff,0x7f,0xff,0xff,0xfb,0xff,0xff,0x3f,0x00,0x00,0x00,0x00,0x00,0x00,0x00,0x00,0x00,0x00,0xfc,0xff,0xff,0xff,0xff,0xff,0xfe,0xff,0xf7,0xff,0xff,0xff,0xff,0xff,0xff,0xff,0xff,0xff,0xff,0xfd,0xff,0x3f,0x00,0x00,0x00,0x00,0x00,0x00,0x00,0x00,0x00,0x00,0xfc,0xff,0xff,0xdf,0xff,0xff,0xff,0xff,0xff,0xff,0xfe,0xff,0xff,0xff,0xff,0xff,0xff,0xff,0xff,0xff,0xff,0x3f,0x00,0x00,0x00,0x00,0x00,0x00,0x00,0x00,0x00,0x00,0xfc,0xff,0xff,0xff,0xff,0xff,0xff,0xff,0xff,0xff,0xff};
