#define x_width 256
#define x_height 256
static char x_bits[] = {
0x00,0x00,0x00,0x00,0x00,0x00,0x00,0x00,0x00,0x00,0x00,0x00,0x00,0x00,0x00,0x00,0x00,0x00,0x00,0x00,0x00,0x00,0x00,0x00,0x00,0x00,0x00,0x00,0x00,0x00,0x00,0x00,0x00,0x00,0x00,0x00,0x00,0x00,0x00,0x00,0x00,0x00,0x00,0x00,0x00,0x00,0x00,0x00,0x00,0x00,0x00,0x00,0x00,0x00,0x00,0x00,0x00,0x00,0x00,0x00,0x00,0x00,0x00,0x00,0x00,0x00,0x00,0x00,0x00,0x00,0x00,0x00,0x00,0x00,0x00,0x00,0x00,0x00,0x00,0x00,0x00,0x00,0x00,0x00,0x00,0x00,0x00,0x00,0x00,0x00,0x00,0x00,0x00,0x00,0x00,0x00,0x00,0x00,0x00,0x00,0x00,0x00,0x00,0x00,0x00,0x00,0x00,0x00,0x00,0x00,0x00,0x00,0x00,0x00,0x00,0x00,0x00,0x00,0x00,0x00,0x00,0x00,0x00,0x00,0x00,0x00,0x00,0x00,0x00,0x00,0x00,0x00,0x00,0x00,0x00,0x00,0x00,0x00,0x00,0x00,0x00,0x00,0x00,0x00,0x00,0x00,0x00,0x00,0x00,0x00,0x00,0x00,0x00,0x00,0x00,0x00,0x00,0x00,0x00,0x00,0x00,0x00,0x00,0x00,0x00,0x00,0x00,0x00,0x00,0x00,0x00,0x00,0x00,0x00,0x00,0x00,0x00,0x00,0x00,0x00,0x00,0x00,0x00,0x00,0x00,0x00,0x00,0x00,0x00,0x00,0x00,0x00,0x00,0x00,0x00,0x00,0x00,0x00,0x00,0x00,0x00,0x00,0x00,0x00,0x00,0x00,0x00,0x00,0x00,0x00,0x00,0x00,0x00,0x00,0x00,0x00,0x00,0x00,0x00,0x00,0x00,0x00,0x00,0x00,0x00,0x00,0x00,0x00,0x00,0x00,0x00,0x00,0x00,0x00,0x00,0x00,0x00,0x00,0x00,0x00,0x00,0x00,0x00,0x00,0x00,0x00,0x00,0x00,0x00,0x00,0x00,0x00,0x00,0x00,0x00,0x00,0x00,0x00,0x00,0x00,0x00,0x00,0x00,0x00,0x00,0x00,0x00,0x00,0x00,0x00,0x00,0x00,0x00,0x00,0x00,0x00,0x00,0x00,0x00,0x00,0x00,0x00,0x00,0x00,0x00,0x00,0x00,0x00,0x00,0x00,0x00,0x00,0x00,0x00,0x00,0x00,0x00,0x00,0x00,0x00,0x00,0x00,0x00,0x00,0x00,0x00,0x00,0x00,0x00,0x00,0x00,0x00,0x00,0x00,0x00,0x00,0x00,0x00,0x00,0x00,0x00,0x00,0x00,0x00,0x00,0x00,0x00,0x00,0x00,0x00,0x00,0x00,0x00,0x00,0x00,0x00,0x00,0x00,0x00,0x00,0x00,0x00,0x00,0x00,0x00,0x00,0x00,0x00,0x00,0x00,0x00,0x00,0x00,0x00,0x00,0x00,0x00,0x00,0x00,0x00,0x00,0x00,0x00,0x00,0x00,0x00,0x00,0x00,0x00,0x00,0x00,0x00,0x00,0x00,0x00,0x00,0x00,0x00,0x00,0x00,0x00,0x00,0x00,0x00,0x00,0x00,0x00,0x00,0x00,0x00,0x00,0x00,0x00,0x00,0x00,0x00,0x00,0x00,0x00,0x00,0x00,0x00,0x00,0x00,0x00,0x00,0x00,0x00,0x00,0x00,0x00,0x00,0x00,0x00,0x00,0x00,0x00,0x00,0x00,0x00,0x00,0x00,0x00,0x00,0x00,0x00,0x00,0x00,0x00,0x00,0x00,0x00,0x00,0x00,0x00,0x00,0x00,0x00,0x00,0x00,0x00,0x00,0x00,0x00,0x00,0x00,0x00,0x00,0x00,0x00,0x00,0x00,0x00,0x00,0x00,0x00,0x00,0x00,0x00,0x00,0x00,0x00,0x00,0x00,0x00,0x00,0x00,0x00,0x00,0x00,0x00,0x00,0x00,0x00,0x00,0x00,0x00,0x00,0x00,0x00,0x00,0x00,0x00,0x00,0x00,0x00,0x00,0x00,0x00,0x00,0x00,0x00,0x00,0x00,0x00,0x00,0x00,0x00,0x00,0x00,0x00,0x00,0x00,0x00,0x00,0x00,0x00,0x00,0x00,0x00,0x00,0x00,0x00,0x00,0x00,0x00,0x00,0x00,0x00,0x00,0x00,0x00,0x00,0x00,0x00,0x00,0x00,0x00,0x00,0x00,0x00,0x00,0x00,0x00,0x00,0x00,0x00,0x00,0x00,0x00,0x00,0x00,0x00,0x00,0x00,0x00,0x00,0x00,0x00,0x00,0x00,0x00,0x00,0x00,0x00,0x00,0x00,0x00,0x00,0x00,0x00,0x00,0x00,0x00,0x00,0x00,0x00,0x00,0x00,0x00,0x00,0x00,0x00,0x00,0x00,0x00,0x00,0x00,0x00,0x00,0x00,0x00,0x00,0x00,0x00,0x00,0x00,0x00,0x00,0x00,0x00,0x00,0x00,0x00,0x00,0x00,0x00,0x00,0x00,0x00,0x00,0x00,0x00,0x00,0x00,0x00,0x00,0x00,0x00,0x00,0x00,0x00,0x00,0x00,0x00,0x00,0x00,0x00,0x00,0x00,0x00,0x00,0x00,0x00,0x00,0x00,0x00,0x00,0x00,0x00,0x00,0x00,0x00,0x00,0x00,0x00,0x00,0x00,0x00,0x00,0x00,0x00,0x00,0x00,0x00,0x00,0x00,0x00,0x00,0x00,0x00,0x00,0x00,0x00,0x00,0x00,0x00,0x00,0x00,0x00,0x00,0x00,0x00,0x00,0x00,0x00,0x00,0x00,0x00,0x00,0x00,0x00,0x00,0x00,0x00,0x00,0x00,0x00,0x00,0x00,0x00,0x00,0x00,0x00,0x00,0x00,0x00,0x00,0x00,0x00,0x00,0x00,0x00,0x00,0x00,0x00,0x00,0x00,0x00,0x00,0x00,0x00,0x00,0x00,0x00,0x00,0x00,0x00,0x00,0x00,0x00,0x00,0x00,0x00,0x00,0x00,0x00,0x00,0x00,0x00,0x00,0x00,0x00,0x00,0x00,0x00,0x00,0x00,0x00,0x00,0x00,0x00,0x00,0x00,0x00,0x00,0x00,0x00,0x00,0x00,0x00,0x00,0x00,0x00,0x00,0x00,0x00,0x00,0x00,0x00,0x00,0x00,0x00,0x00,0x00,0x00,0x00,0x00,0x00,0x00,0x00,0x00,0x00,0x00,0x00,0x00,0x00,0x00,0x00,0x00,0x00,0x00,0x00,0x00,0x00,0x00,0x00,0x00,0x00,0x00,0x00,0x00,0x00,0x00,0x00,0x00,0x00,0x00,0x00,0x00,0x00,0x00,0x00,0x00,0x00,0x00,0x00,0x00,0x00,0x00,0x00,0x00,0x00,0x00,0x00,0x00,0x00,0x00,0x00,0x00,0x00,0x00,0x00,0x00,0x00,0x00,0x00,0x00,0x00,0x00,0x00,0x00,0x00,0x00,0x00,0x00,0x00,0x00,0x00,0x00,0x00,0x00,0x00,0x00,0x00,0x00,0x00,0x00,0x00,0x00,0x00,0x00,0x00,0x00,0x00,0x00,0x00,0x00,0x00,0x00,0x00,0x00,0x00,0x00,0x00,0x00,0x00,0x00,0x00,0x00,0x00,0x00,0x00,0x00,0x00,0x00,0x00,0x00,0x00,0x00,0x00,0x00,0x00,0x00,0x00,0x00,0x00,0x00,0x1c,0x00,0x00,0x00,0x00,0x00,0x00,0x00,0x00,0x00,0x00,0x00,0x00,0x00,0x00,0x00,0x00,0x00,0x00,0x00,0x00,0x00,0x00,0x00,0x00,0x00,0x00,0x00,0x00,0x00,0x00,0x00,0x3e,0x00,0x00,0x00,0x00,0x00,0x00,0x00,0x00,0x00,0x00,0x00,0x00,0x00,0x00,0x00,0x00,0x00,0x00,0x00,0x00,0x00,0x00,0x00,0x00,0x00,0x00,0x00,0x00,0x00,0x00,0x80,0xfe,0x00,0x00,0x00,0x00,0x00,0x00,0x00,0x00,0x00,0x00,0x00,0x00,0x00,0x00,0x00,0x00,0x00,0x00,0x00,0x00,0x00,0x00,0x00,0x00,0x00,0x00,0x00,0x00,0x00,0x00,0xe0,0xff,0x01,0x00,0x00,0x00,0x00,0x00,0x00,0x00,0x00,0x00,0x00,0x00,0x00,0x00,0x00,0x00,0x00,0x00,0x00,0x00,0x00,0x00,0x00,0x00,0x00,0x00,0x00,0x00,0x00,0x00,0xe0,0xff,0x01,0x00,0x00,0x00,0x00,0x00,0x00,0x00,0x00,0x00,0x00,0x00,0x00,0x00,0x00,0x00,0x00,0x00,0x00,0x00,0x00,0x00,0x00,0x00,0x00,0x00,0x00,0x00,0x00,0x00,0xe0,0xf3,0x01,0x00,0x00,0x00,0x00,0x00,0x00,0x00,0x00,0x00,0x00,0x00,0x00,0x00,0x00,0x00,0x00,0x00,0x00,0x00,0x00,0x00,0x00,0x00,0x00,0x00,0x00,0x00,0x00,0x00,0xc6,0xe3,0x11,0x00,0x00,0x00,0x00,0x00,0x00,0x00,0x00,0x00,0x00,0x00,0x00,0x00,0x00,0x00,0x00,0x00,0x00,0x00,0x00,0x00,0x00,0x00,0x00,0x00,0x00,0x00,0x00,0x00,0x8f,0x7f,0x7c,0x00,0x00,0x00,0x00,0x00,0x00,0x00,0x00,0x00,0x00,0x00,0x00,0x00,0x00,0x00,0x00,0x00,0x00,0x00,0x00,0x00,0x00,0x00,0x00,0x00,0x00,0x00,0x00,0x80,0xdf,0xff,0x7c,0x00,0x00,0x00,0x00,0x00,0x00,0x00,0x00,0x00,0x00,0x00,0x00,0x00,0x00,0x00,0x00,0x00,0x00,0x00,0x00,0x00,0x00,0x00,0x00,0x00,0x00,0x00,0x00,0xe0,0xff,0xff,0xff,0x01,0x00,0x00,0x00,0x00,0x00,0x00,0x00,0x00,0x00,0x00,0x00,0x00,0x00,0x00,0x00,0x00,0x00,0x00,0x00,0x00,0x00,0x00,0x00,0x00,0x00,0x00,0x00,0xf0,0xff,0xff,0xff,0x07,0x00,0x00,0x00,0x00,0x00,0x00,0x00,0x00,0x00,0x00,0x00,0x00,0x00,0x00,0x00,0x00,0x00,0x00,0x00,0x00,0x00,0x00,0x00,0x00,0x00,0x00,0x00,0xf0,0xf9,0xf1,0xef,0x07,0x00,0x00,0x00,0x00,0x00,0x00,0x00,0x00,0x00,0x00,0x00,0x00,0x00,0x00,0x00,0x00,0x00,0x00,0x00,0x00,0x00,0x00,0x00,0x00,0x00,0x00,0x00,0xf0,0xf8,0x80,0xc7,0x03,0x00,0x00,0x00,0x00,0x00,0x00,0x00,0x00,0x00,0x00,0x00,0x00,0x00,0x00,0x00,0x00,0x00,0x00,0x00,0x00,0x00,0x00,0x00,0x00,0x00,0x00,0x00,0xf0,0x78,0x80,0xc7,0x03,0x00,0x00,0x00,0x00,0x00,0x00,0x00,0x00,0x00,0x00,0x00,0x00,0x00,0x00,0x00,0x00,0x00,0x00,0x00,0x00,0x00,0x00,0x00,0x00,0x00,0x00,0x00,0xe0,0x3f,0x00,0xef,0x01,0x00,0x00,0x00,0x00,0x00,0x00,0x00,0x00,0x00,0x00,0x00,0x00,0x00,0x00,0x00,0x00,0x00,0x00,0x00,0x00,0x00,0x00,0x00,0x00,0x00,0x00,0x00,0xe0,0x7f,0x00,0xff,0x01,0x00,0x00,0x00,0x00,0x00,0x00,0x00,0x00,0x00,0x00,0x00,0x00,0x00,0x00,0x00,0x00,0x00,0x00,0x00,0x00,0x00,0x00,0x00,0x00,0x00,0x00,0x00,0xe0,0x3f,0x00,0xff,0x01,0x00,0x00,0x00,0x00,0x00,0x00,0x00,0x00,0x00,0x00,0x00,0x00,0x00,0x00,0x00,0x00,0x00,0x00,0x00,0x00,0x00,0x00,0x00,0x00,0x00,0x00,0x04,0xc0,0x3f,0x00,0xef,0x01,0x08,0x00,0x00,0x00,0x00,0x00,0x00,0x00,0x00,0x00,0x00,0x00,0x00,0x00,0x00,0x00,0x00,0x00,0x00,0x00,0x00,0x00,0x00,0x00,0x00,0x00,0x1e,0x00,0xf8,0x80,0x07,0x00,0x3e,0x00,0x00,0x00,0x00,0x00,0x00,0x00,0x00,0x00,0x00,0x00,0x00,0x00,0x00,0x00,0x00,0x00,0x00,0x00,0x00,0x00,0x00,0x00,0x00,0x00,0x1f,0x00,0xf8,0xc0,0x0f,0x00,0x3e,0x00,0x00,0x00,0x00,0x00,0x00,0x00,0x00,0x00,0x00,0x00,0x00,0x00,0x00,0x00,0x00,0x00,0x00,0x00,0x00,0x00,0x00,0x00,0x00,0xc0,0xff,0x00,0xfe,0xf3,0x3f,0x80,0xff,0x00,0x00,0x00,0x00,0x00,0x00,0x00,0x00,0x00,0x00,0x00,0x00,0x00,0x00,0x00,0x00,0x00,0x00,0x00,0x00,0x00,0x00,0x00,0x00,0xe0,0xff,0x81,0xff,0xff,0x7f,0xe0,0xff,0x03,0x00,0x00,0x00,0x00,0x00,0x00,0x00,0x00,0x00,0x00,0x00,0x00,0x00,0x00,0x00,0x00,0x00,0x00,0x00,0x00,0x00,0x00,0x00,0xe0,0xf3,0x81,0xdf,0xff,0x6c,0xe0,0xe7,0x03,0x00,0x00,0x00,0x00,0x00,0x00,0x00,0x00,0x00,0x00,0x00,0x00,0x00,0x00,0x00,0x00,0x00,0x00,0x00,0x00,0x00,0x00,0x00,0xe0,0xf1,0x00,0x8f,0xff,0x7c,0xc0,0xe3,0x01,0x00,0x00,0x00,0x00,0x00,0x00,0x00,0x00,0x00,0x00,0x00,0x00,0x00,0x00,0x00,0x00,0x00,0x00,0x00,0x00,0x00,0x00,0x00,0xe3,0xf1,0x18,0x8f,0xff,0x7c,0xc4,0xe7,0x31,0x00,0x00,0x00,0x00,0x00,0x00,0x00,0x00,0x00,0x00,0x00,0x00,0x00,0x00,0x00,0x00,0x00,0x00,0x00,0x00,0x00,0x00,0x80,0xcf,0x7f,0x3c,0xfe,0xf3,0x3f,0x9f,0xff,0x78,0x00,0x00,0x00,0x00,0x00,0x00,0x00,0x00,0x00,0x00,0x00,0x00,0x00,0x00,0x00,0x00,0x00,0x00,0x00,0x00,0x00,0x00,0x80,0xcf,0xff,0x7e,0xfe,0xf3,0x3f,0x9f,0xff,0xfd,0x00,0x00,0x00,0x00,0x00,0x00,0x00,0x00,0x00,0x00,0x00,0x00,0x00,0x00,0x00,0x00,0x00,0x00,0x00,0x00,0x00,0x00,0xe0,0xff,0xff,0xff,0xff,0xf3,0xff,0xff,0xff,0xff,0x03,0x00,0x00,0x00,0x00,0x00,0x00,0x00,0x00,0x00,0x00,0x00,0x00,0x00,0x00,0x00,0x00,0x00,0x00,0x00,0x00,0x00,0xf8,0xff,0xff,0xff,0xdf,0xe3,0xff,0xff,0xff,0xff,0x07,0x00,0x00,0x00,0x00,0x00,0x00,0x00,0x00,0x00,0x00,0x00,0x00,0x00,0x00,0x00,0x00,0x00,0x00,0x00,0x00,0x00,0xf8,0x7c,0xc0,0xe6,0x03,0x00,0xf0,0xf9,0x80,0xcf,0x07,0x00,0x00,0x00,0x00,0x00,0x00,0x00,0x00,0x00,0x00,0x00,0x00,0x00,0x00,0x00,0x00,0x00,0x00,0x00,0x00,0x00,0xf0,0x78,0xc0,0xe7,0x03,0x00,0xe0,0xf1,0x80,0xcf,0x07,0x00,0x00,0x00,0x00,0x00,0x00,0x00,0x00,0x00,0x00,0x00,0x00,0x00,0x00,0x00,0x00,0x00,0x00,0x00,0x00,0x00,0xf0,0x7c,0x80,0xe7,0x03,0x00,0xe0,0xf9,0x80,0xcf,0x03,0x00,0x00,0x00,0x00,0x00,0x00,0x00,0x00,0x00,0x00,0x00,0x00,0x00,0x00,0x00,0x00,0x00,0x00,0x00,0x00,0x00,0xe0,0x3f,0x80,0xff,0x01,0x00,0xe0,0x7f,0x00,0xff,0x03,0x00,0x00,0x00,0x00,0x00,0x00,0x00,0x00,0x00,0x00,0x00,0x00,0x00,0x00,0x00,0x00,0x00,0x00,0x00,0x00,0x00,0xe0,0x3f,0x80,0xff,0x01,0x00,0xe0,0x6f,0x00,0xff,0x03,0x00,0x00,0x00,0x00,0x00,0x00,0x00,0x00,0x00,0x00,0x00,0x00,0x00,0x00,0x00,0x00,0x00,0x00,0x00,0x00,0x00,0xe0,0x3f,0x00,0xff,0x00,0x00,0xc0,0x7f,0x00,0xfe,0x01,0x00,0x00,0x00,0x00,0x00,0x00,0x00,0x00,0x00,0x00,0x00,0x00,0x00,0x00,0x00,0x00,0x00,0x00,0x00,0x00,0x00,0xe0,0x3d,0x80,0xff,0x00,0x00,0xc0,0x7b,0x00,0xff,0x01,0x00,0x00,0x00,0x00,0x00,0x00,0x00,0x00,0x00,0x00,0x00,0x00,0x00,0x00,0x00,0x00,0x00,0x00,0x00,0x00,0x00,0x00,0x78,0xc0,0x07,0x00,0x00,0x00,0xf8,0x80,0x0f,0x00,0x00,0x00,0x00,0x00,0x00,0x00,0x00,0x00,0x00,0x00,0x00,0x00,0x00,0x00,0x00,0x00,0x00,0x00,0x00,0x00,0x00,0x00,0xfc,0xc0,0x07,0x00,0x00,0x00,0xf8,0x81,0x0f,0x00,0x00,0x00,0x00,0x00,0x00,0x00,0x00,0x00,0x00,0x00,0x00,0x00,0x00,0x00,0x00,0x00,0x00,0x00,0x00,0x00,0x00,0x00,0xff,0xf3,0x1f,0x00,0x00,0x00,0xfe,0xe7,0x3f,0x00,0x00,0x00,0x00,0x00,0x00,0x00,0x00,0x00,0x00,0x00,0x00,0x00,0x00,0x00,0x00,0x00,0x00,0x00,0x00,0x00,0x00,0x80,0xff,0xff,0x7f,0x00,0x00,0x00,0xff,0xff,0xff,0x00,0x00,0x00,0x00,0x00,0x00,0x00,0x00,0x00,0x00,0x00,0x00,0x00,0x00,0x00,0x00,0x00,0x00,0x00,0x00,0x00,0x00,0x80,0xcf,0x7e,0x7c,0x00,0x00,0x00,0x9f,0xff,0xfc,0x00,0x00,0x00,0x00,0x00,0x00,0x00,0x00,0x00,0x00,0x00,0x00,0x00,0x00,0x00,0x00,0x00,0x00,0x00,0x00,0x00,0x00,0x80,0xcf,0x7f,0x3c,0x00,0x00,0x00,0x8f,0xff,0x78,0x00,0x00,0x00,0x00,0x00,0x00,0x00,0x00,0x00,0x00,0x00,0x00,0x00,0x00,0x00,0x00,0x00,0x00,0x00,0x00,0x00,0x00,0x80,0xcf,0xfb,0x3e,0x00,0x00,0x00,0x9f,0xf7,0x7c,0x00,0x00,0x00,0x00,0x00,0x00,0x00,0x00,0x00,0x00,0x00,0x00,0x00,0x00,0x00,0x00,0x00,0x00,0x00,0x00,0x00,0x00,0x00,0xff,0xf3,0x1f,0x00,0x00,0x00,0xfe,0xe7,0x3f,0x00,0x00,0x00,0x00,0x00,0x00,0x00,0x00,0x00,0x00,0x00,0x00,0x00,0x00,0x00,0x00,0x00,0x00,0x00,0x00,0x00,0x00,0x00,0xff,0xf3,0x1f,0x00,0x00,0x00,0xfe,0xe7,0x3f,0x00,0x00,0x00,0x00,0x00,0x00,0x00,0x00,0x00,0x00,0x00,0x00,0x00,0x00,0x00,0x00,0x00,0x00,0x00,0x00,0x00,0x00,0x00,0xfe,0xf1,0x1f,0x00,0x00,0x00,0xfe,0xe3,0x3f,0x00,0x00,0x00,0x00,0x00,0x00,0x00,0x00,0x00,0x00,0x00,0x00,0x00,0x00,0x00,0x00,0x00,0x00,0x00,0x0c,0x00,0x00,0x00,0xfe,0xf1,0x1e,0x00,0x00,0x00,0xfe,0xe3,0x3d,0x00,0x00,0x00,0x0c,0x00,0x00,0x00,0x00,0x00,0x00,0x00,0x00,0x00,0x00,0x00,0x00,0x00,0x00,0x00,0x3e,0x00,0x00,0x00,0x00,0x00,0x7c,0x00,0x00,0x00,0x1f,0x00,0x00,0x00,0x00,0x00,0x3e,0x00,0x00,0x00,0x00,0x00,0x00,0x00,0x00,0x00,0x00,0x00,0x00,0x00,0x00,0x00,0x3e,0x00,0x00,0x00,0x00,0x00,0x7e,0x00,0x00,0x00,0x1f,0x00,0x00,0x00,0x00,0x00,0x3e,0x00,0x00,0x00,0x00,0x00,0x00,0x00,0x00,0x00,0x00,0x00,0x00,0x00,0x00,0xc0,0xff,0x00,0x00,0x00,0x00,0x80,0xff,0x01,0x00,0xe0,0x7f,0x00,0x00,0x00,0x00,0xc0,0xff,0x00,0x00,0x00,0x00,0x00,0x00,0x00,0x00,0x00,0x00,0x00,0x00,0x00,0x00,0xe0,0xff,0x01,0x00,0x00,0x00,0xc0,0xff,0x03,0x00,0xf0,0xff,0x01,0x00,0x00,0x00,0xe0,0xff,0x01,0x00,0x00,0x00,0x00,0x00,0x00,0x00,0x00,0x00,0x00,0x00,0x00,0x00,0xe0,0xf3,0x01,0x00,0x00,0x00,0xc0,0xe6,0x03,0x00,0xf0,0xf9,0x00,0x00,0x00,0x00,0xe0,0xf3,0x01,0x00,0x00,0x00,0x00,0x00,0x00,0x00,0x00,0x00,0x00,0x00,0x00,0x00,0xe0,0xe3,0x01,0x00,0x00,0x00,0xc0,0xc7,0x03,0x00,0xe0,0xf1,0x00,0x00,0x00,0x00,0xe0,0xe3,0x01,0x00,0x00,0x00,0x00,0x00,0x00,0x00,0x00,0x00,0x00,0x00,0x00,0x00,0xc6,0xf3,0x39,0x00,0x00,0x00,0x8e,0xe7,0x73,0x00,0xe3,0xf9,0x1c,0x00,0x00,0x00,0xc6,0xf3,0x39,0x00,0x00,0x00,0x00,0x00,0x00,0x00,0x00,0x00,0x00,0x00,0x00,0x80,0xdf,0xff,0x7c,0x00,0x00,0x00,0x9f,0xff,0xf9,0xc0,0xef,0x7f,0x3e,0x00,0x00,0x80,0xdf,0xff,0x7c,0x00,0x00,0x00,0x00,0x00,0x00,0x00,0x00,0x00,0x00,0x00,0x00,0xc0,0xef,0xff,0x6f,0x01,0x00,0x80,0xdf,0xff,0xfb,0xe3,0xff,0xef,0xbf,0x00,0x00,0xc0,0xef,0xdf,0x6f,0x01,0x00,0x00,0x00,0x00,0x00,0x00,0x00,0x00,0x00,0x00,0x00,0xf0,0xff,0xff,0xff,0x03,0x00,0xe0,0xff,0xff,0xff,0xff,0xff,0xff,0xff,0x01,0x00,0xf0,0xff,0xff,0xff,0x03,0x00,0x00,0x00,0x00,0x00,0x00,0x00,0x00,0x00,0x00,0x00,0xf0,0xff,0xff,0xff,0x07,0x00,0xf0,0xff,0xff,0xff,0xff,0xff,0xfb,0xff,0x03,0x00,0xf0,0xff,0xff,0xff,0x07,0x00,0x00,0x00,0x00,0x00,0x00,0x00,0x00,0x00,0x00,0x00,0xf0,0xf9,0xc0,0xc7,0x07,0x00,0xe0,0xf3,0x81,0x8f,0xff,0x7c,0xc0,0xe7,0x03,0x00,0xf0,0xf9,0xc0,0xc7,0x07,0x00,0x00,0x00,0x00,0x00,0x00,0x00,0x00,0x00,0x00,0x00,0xf0,0xf8,0x80,0xc7,0x03,0x00,0xe0,0xf1,0x00,0x8f,0xff,0x7c,0xc0,0xe3,0x01,0x00,0xf0,0xf8,0x80,0xc7,0x03,0x00,0x00,0x00,0x00,0x00,0x00,0x00,0x00,0x00,0x00,0x00,0xf0,0x79,0x80,0xef,0x03,0x00,0xe0,0xf3,0x00,0xdf,0xf7,0x3c,0xc0,0xe7,0x01,0x00,0xe0,0x79,0x80,0xef,0x03,0x00,0x00,0x00,0x00,0x00,0x00,0x00,0x00,0x00,0x00,0x00,0xe0,0x7f,0x00,0xff,0x01,0x00,0xc0,0xff,0x00,0xfe,0xf3,0x3f,0x80,0xff,0x01,0x00,0xe0,0x7f,0x00,0xff,0x01,0x00,0x00,0x00,0x00,0x00,0x00,0x00,0x00,0x00,0x00,0x00,0xe0,0x7f,0x00,0xff,0x01,0x00,0xc0,0x7e,0x00,0xfe,0xf3,0x3f,0x80,0xff,0x00,0x00,0xe0,0x7f,0x00,0xff,0x01,0x00,0x00,0x00,0x00,0x00,0x00,0x00,0x00,0x00,0x00,0x00,0xe0,0x3f,0x00,0xef,0x01,0x00,0xc0,0x7f,0x00,0xfe,0xe3,0x1f,0x80,0xff,0x00,0x00,0xe0,0x3f,0x00,0xef,0x01,0x00,0x00,0x00,0x00,0x00,0x00,0x00,0x00,0x00,0x00,0x0c,0xc0,0x7f,0x00,0xef,0x01,0x1c,0x80,0xfb,0x00,0xde,0xe3,0x3f,0x80,0xf7,0x00,0x0e,0xc0,0x7f,0x00,0xef,0x01,0x1c,0x00,0x00,0x00,0x00,0x00,0x00,0x00,0x00,0x00,0x1f,0x00,0xf8,0xc0,0x0f,0x00,0x3e,0x00,0xf0,0x81,0x1f,0x00,0x7c,0xe0,0x07,0x00,0x1f,0x00,0xf8,0xc0,0x0f,0x00,0x3e,0x00,0x00,0x00,0x00,0x00,0x00,0x00,0x00,0x80,0x5f,0x00,0xda,0xe3,0x1f,0x00,0xbf,0x00,0xf4,0xc3,0x2f,0x00,0xef,0xe1,0x0f,0x80,0x5f,0x00,0xda,0xe3,0x1f,0x80,0xbf,0x00,0x00,0x00,0x00,0x00,0x00,0x00,0x00,0xe0,0xff,0x00,0xff,0xff,0x7f,0xc0,0xff,0x01,0xfe,0xff,0x7f,0x80,0xff,0xfb,0x3f,0xe0,0xff,0x00,0xff,0xff,0x3f,0xc0,0xff,0x01,0x00,0x00,0x00,0x00,0x00,0x00,0x00,0xe0,0xff,0x81,0xff,0xff,0x7f,0xe0,0xff,0x03,0xff,0xff,0xff,0xc0,0xff,0xff,0x3f,0xe0,0xff,0x81,0xff,0xff,0x7f,0xe0,0xff,0x03,0x00,0x00,0x00,0x00,0x00,0x00,0x00,0xe0,0xf3,0x81,0x8f,0xff,0x7c,0xc0,0xe7,0x03,0x9f,0xff,0xf9,0x80,0xc7,0x7f,0x3e,0xe0,0xf3,0x81,0x8f,0xff,0x7c,0xc0,0xe7,0x03,0x00,0x00,0x00,0x00,0x00,0x00,0x00,0xe0,0xf1,0x00,0x8f,0xff,0x7c,0xc0,0xe3,0x01,0x1e,0xff,0xf8,0x80,0xc7,0x7f,0x3c,0xe0,0xf1,0x00,0x8f,0xff,0x7c,0xc0,0xe3,0x01,0x00,0x00,0x00,0x00,0x00,0x00,0x00,0xe7,0xf3,0x18,0xdf,0xf7,0x3c,0xce,0xe7,0x31,0x9e,0xff,0x79,0x80,0xef,0x7b,0x3e,0xe7,0xf3,0x18,0xdf,0xf7,0x3c,0xce,0xe7,0x31,0x00,0x00,0x00,0x00,0x00,0x00,0x80,0xcf,0xff,0x7e,0xfe,0xf3,0x3f,0x9f,0xff,0xfd,0xfe,0xe7,0x7f,0x00,0xff,0xf9,0x9f,0xcf,0xff,0x7e,0xfe,0xf3,0x3f,0x9f,0xff,0xfd,0x00,0x00,0x00,0x00,0x00,0x00,0xe0,0xff,0x7e,0xfd,0xfe,0xf3,0xff,0xff,0xff,0x7a,0xfd,0xe6,0x7f,0x00,0xff,0xf9,0xff,0xff,0x7e,0xfd,0xfe,0xf3,0xff,0xff,0xff,0xfe,0x01,0x00,0x00,0x00,0x00,0x00,0xf8,0xff,0xff,0xff,0xff,0xe3,0xff,0xff,0xff,0xff,0xff,0xe7,0x3f,0x00,0xff,0xf1,0xff,0xff,0xff,0xff,0xff,0xe3,0xff,0xff,0xff,0xff,0x07,0x00,0x00,0x00,0x00,0x00,0xf8,0xff,0xfb,0xff,0xdf,0xe3,0xff,0xff,0xf7,0xff,0xbf,0xc3,0x3f,0x00,0xef,0xf1,0xff,0xff,0xfb,0xff,0xdf,0xe1,0xff,0xff,0xf7,0xff,0x07,0x00,0x00,0x00,0x00,0x00,0xf8,0x78,0xc0,0xe7,0x03,0x00,0xf0,0xf9,0x80,0xcf,0x07,0x00,0x00,0x00,0x00,0x00,0xf8,0x78,0xc0,0xe7,0x03,0x00,0xf0,0xf9,0x80,0xcf,0x07,0x00,0x00,0x00,0x00,0x00,0xf0,0x78,0xc0,0xc7,0x03,0x00,0xe0,0xf1,0x80,0xcf,0x07,0x00,0x00,0x00,0x00,0x00,0xf0,0x78,0xc0,0xc7,0x03,0x00,0xe0,0xf1,0x80,0xcf,0x07,0x00,0x00,0x00,0x00,0x00,0xe0,0x3d,0x00,0xff,0x00,0x00,0xc0,0x7f,0x00,0xfe,0x01,0x00,0x00,0x00,0x00,0x00,0xe0,0x1d,0x00,0xff,0x00,0x00,0xc0,0x7f,0x00,0xfe,0x01,0x00,0x00,0x00,0x00,0x00,0xe0,0x3f,0x80,0xff,0x01,0x00,0xe0,0x7f,0x00,0xff,0x03,0x00,0x00,0x00,0x00,0x00,0xe0,0x3f,0x80,0xff,0x01,0x00,0xe0,0x7f,0x00,0xff,0x03,0x00,0x00,0x00,0x00,0x00,0xe0,0x3f,0x80,0xff,0x01,0x00,0xc0,0x7f,0x00,0xff,0x03,0x00,0x00,0x00,0x00,0x00,0xe0,0x3f,0x80,0xff,0x01,0x00,0xc0,0x7f,0x00,0xff,0x03,0x00,0x00,0x00,0x00,0x00,0xe0,0x3f,0x00,0xff,0x00,0x00,0xc0,0x7f,0x00,0xfe,0x01,0x00,0x00,0x00,0x00,0x00,0xe0,0x3f,0x00,0xff,0x00,0x00,0xc0,0x7f,0x00,0xfe,0x01,0x00,0x00,0x00,0x00,0x00,0x80,0x35,0x80,0x2b,0x00,0x00,0x00,0x61,0x00,0x27,0x00,0x00,0x00,0x00,0x00,0x00,0x20,0x38,0x80,0x07,0x00,0x00,0x80,0x60,0x00,0x47,0x00,0x00,0x00,0x00,0x00,0x00,0x00,0xfc,0xc0,0x07,0x00,0x00,0x00,0xf8,0x81,0x0f,0x00,0x00,0x00,0x00,0x00,0x00,0x00,0xfc,0xc0,0x07,0x00,0x00,0x00,0xf8,0x81,0x0f,0x00,0x00,0x00,0x00,0x00,0x00,0x00,0x7a,0xf1,0x1e,0x00,0x00,0x00,0xfc,0xe2,0x3f,0x00,0x00,0x00,0x00,0x00,0x00,0x00,0x7a,0xf1,0x1f,0x00,0x00,0x00,0xfc,0xe2,0x3f,0x00,0x00,0x00,0x00,0x00,0x00,0x80,0xff,0xff,0x3f,0x00,0x00,0x00,0xff,0xff,0x7f,0x00,0x00,0x00,0x00,0x00,0x00,0x80,0xff,0xff,0x3f,0x00,0x00,0x00,0xff,0xff,0x7f,0x00,0x00,0x00,0x00,0x00,0x00,0x80,0xff,0xff,0x7f,0x00,0x00,0x00,0xff,0xff,0xff,0x00,0x00,0x00,0x00,0x00,0x00,0x80,0xff,0xff,0x7f,0x00,0x00,0x00,0xff,0xff,0xff,0x00,0x00,0x00,0x00,0x00,0x00,0x80,0xcf,0x7f,0x3c,0x00,0x00,0x00,0x9f,0xff,0x78,0x00,0x00,0x00,0x00,0x00,0x00,0x80,0xcf,0x7f,0x3c,0x00,0x00,0x00,0x9f,0xff,0x78,0x00,0x00,0x00,0x00,0x00,0x00,0x80,0xc7,0x7f,0x3c,0x00,0x00,0x00,0x8f,0xff,0x78,0x00,0x00,0x00,0x00,0x00,0x00,0x80,0xc7,0x7f,0x3c,0x00,0x00,0x00,0x8f,0xff,0x78,0x00,0x00,0x00,0x00,0x00,0x00,0x00,0xfe,0xf1,0x1e,0x00,0x00,0x00,0xfc,0xe3,0x3d,0x00,0x00,0x00,0x00,0x00,0x00,0x00,0xfe,0xf1,0x1e,0x00,0x00,0x00,0xfc,0xe3,0x3d,0x00,0x00,0x00,0x00,0x00,0x00,0x00,0xff,0xf3,0x1f,0x00,0x00,0x00,0xfe,0xe7,0x3f,0x00,0x00,0x00,0x00,0x00,0x00,0x00,0xff,0xf3,0x1f,0x00,0x00,0x00,0xfe,0xe7,0x3f,0x00,0x00,0x00,0x00,0x00,0x00,0x00,0xff,0xf3,0x1f,0x00,0x00,0x00,0xfe,0xe7,0x3f,0x00,0x00,0x00,0x00,0x00,0x00,0x00,0xff,0xf3,0x1f,0x00,0x00,0x00,0xfe,0xe7,0x3f,0x00,0x00,0x00,0x00,0x00,0x00,0x00,0xfe,0xf1,0x1e,0x00,0x00,0x00,0xfc,0xe3,0x3f,0x00,0x00,0x00,0x00,0x00,0x00,0x00,0xfe,0xf1,0x1e,0x00,0x00,0x00,0xfc,0xe3,0x3f,0x00,0x00,0x00,0x00,0x00,0x00,0x00,0x00,0x00,0x3c,0x00,0x00,0x00,0x0f,0x00,0x00,0x00,0x00,0x00,0x00,0x00,0x00,0x00,0x00,0x00,0x18,0x00,0x00,0x00,0x0f,0x00,0x00,0x00,0x00,0x00,0x00,0x00,0x00,0x00,0x00,0x00,0x7e,0x00,0x00,0x00,0x1f,0x00,0x00,0x00,0x00,0x00,0x00,0x00,0x00,0x00,0x00,0x00,0x7e,0x00,0x00,0x00,0x1f,0x00,0x00,0x00,0x00,0x00,0x00,0x00,0x00,0x00,0x00,0x80,0xfd,0x01,0x00,0xc0,0x7f,0x00,0x00,0x00,0x00,0x00,0x00,0x00,0x00,0x00,0x00,0x80,0xfd,0x01,0x00,0xc0,0x7f,0x00,0x00,0x00,0x00,0x00,0x00,0x00,0x00,0x00,0x00,0xc0,0xff,0x03,0x00,0xe0,0xff,0x00,0x00,0x00,0x00,0x00,0x00,0x00,0x00,0x00,0x00,0xc0,0xff,0x03,0x00,0xf0,0xff,0x00,0x00,0x00,0x00,0x00,0x00,0x00,0x00,0x00,0x00,0xc0,0xff,0x03,0x00,0xf0,0xff,0x01,0x00,0x00,0x00,0x00,0x00,0x00,0x00,0x00,0x00,0xc0,0xff,0x03,0x00,0xf0,0xff,0x01,0x00,0x00,0x00,0x00,0x00,0x00,0x00,0x00,0x00,0xc0,0xe7,0x03,0x00,0xf0,0xf9,0x00,0x00,0x00,0x00,0x00,0x00,0x00,0x00,0x00,0x00,0xc0,0xe7,0x03,0x00,0xf0,0xf9,0x00,0x00,0x00,0x00,0x00,0x00,0x00,0x00,0x00,0x00,0xc4,0xc7,0x23,0x00,0xe3,0xf1,0x08,0x00,0x00,0x00,0x00,0x00,0x00,0x00,0x00,0x00,0xc4,0xc7,0x23,0x00,0xe3,0xf1,0x08,0x00,0x00,0x00,0x00,0x00,0x00,0x00,0x00,0x00,0x1e,0xff,0xf8,0x80,0xc7,0x7f,0x3c,0x00,0x00,0x00,0x00,0x00,0x00,0x00,0x00,0x00,0x1e,0xff,0xf8,0x80,0xc7,0x7f,0x3e,0x00,0x00,0x00,0x00,0x00,0x00,0x00,0x00,0x00,0x9f,0xff,0xf9,0xc0,0xef,0x7f,0x3e,0x00,0x00,0x00,0x00,0x00,0x00,0x00,0x00,0x00,0x9f,0xff,0xf9,0xc0,0xef,0x7f,0x3e,0x00,0x00,0x00,0x00,0x00,0x00,0x00,0x00,0xc0,0xff,0xff,0xff,0xf3,0xff,0xff,0xff,0x00,0x00,0x00,0x00,0x00,0x00,0x00,0x00,0xc0,0xff,0xff,0xff,0xf3,0xff,0xff,0xff,0x01,0x00,0x00,0x00,0x00,0x00,0x00,0x00,0xf0,0xff,0xff,0xff,0xff,0xff,0xff,0xff,0x03,0x00,0x00,0x00,0x00,0x00,0x00,0x00,0xf0,0xff,0xff,0xff,0xff,0xff,0xff,0xff,0x03,0x00,0x00,0x00,0x00,0x00,0x00,0x00,0xe0,0xf3,0x81,0xdf,0xff,0x6c,0xe0,0xe7,0x03,0x00,0x00,0x00,0x00,0x00,0x00,0x00,0xe0,0xf3,0x81,0xdf,0xff,0x6c,0xe0,0xe7,0x03,0x00,0x00,0x00,0x00,0x00,0x00,0x00,0xe0,0xf1,0x00,0x8f,0xff,0x7c,0xc0,0xe3,0x01,0x00,0x00,0x00,0x00,0x00,0x00,0x00,0xe0,0xf1,0x00,0x8f,0xff,0x7c,0xc0,0xe3,0x01,0x00,0x00,0x00,0x00,0x00,0x00,0x00,0xe0,0xf3,0x00,0x8f,0xff,0x3c,0xc0,0xe3,0x01,0x00,0x00,0x00,0x00,0x00,0x00,0x00,0xe0,0xf3,0x00,0x8f,0xff,0x7c,0xc0,0xe3,0x01,0x00,0x00,0x00,0x00,0x00,0x00,0x00,0xc0,0x7f,0x00,0xfe,0xf3,0x3f,0x80,0xff,0x00,0x00,0x00,0x00,0x00,0x00,0x00,0x00,0xc0,0x7f,0x00,0xfe,0xf3,0x1f,0x80,0xff,0x00,0x00,0x00,0x00,0x00,0x00,0x00,0x00,0xc0,0xff,0x00,0xfe,0xf3,0x3f,0x80,0xff,0x01,0x00,0x00,0x00,0x00,0x00,0x00,0x00,0xc0,0xff,0x00,0xfe,0xf3,0x3f,0x80,0xff,0x01,0x00,0x00,0x00,0x00,0x00,0x00,0x00,0xc0,0x7f,0x00,0xfe,0xf3,0x3f,0x80,0xff,0x00,0x00,0x00,0x00,0x00,0x00,0x00,0x00,0xc0,0x7f,0x00,0xfe,0xf3,0x3f,0x80,0xff,0x00,0x00,0x00,0x00,0x00,0x00,0x00,0x00,0xc0,0x7f,0x00,0xde,0xe3,0x1f,0x80,0xff,0x00,0x00,0x00,0x00,0x00,0x00,0x00,0x00,0xc0,0x7f,0x00,0xde,0xe3,0x1f,0x80,0xff,0x00,0x00,0x00,0x00,0x00,0x00,0x00,0x00,0x00,0xf0,0x00,0x0f,0x00,0x7c,0xc0,0x03,0x00,0x00,0x00,0x00,0x00,0x00,0x00,0x00,0x00,0xf0,0x00,0x0f,0x00,0x7c,0xc0,0x03,0x00,0x00,0x00,0x00,0x00,0x00,0x00,0x00,0x00,0xf0,0x81,0x1f,0x00,0x7c,0xe0,0x07,0x00,0x00,0x00,0x00,0x00,0x00,0x00,0x00,0x00,0xf0,0x81,0x1f,0x00,0x7c,0xe0,0x07,0x00,0x00,0x00,0x00,0x00,0x00,0x00,0x00,0x00,0xfc,0xe7,0x7f,0x00,0xff,0xf9,0x1f,0x00,0x00,0x00,0x00,0x00,0x00,0x00,0x00,0x00,0xfe,0xe7,0x7f,0x00,0xff,0xf9,0x1f,0x00,0x00,0x00,0x00,0x00,0x00,0x00,0x00,0x00,0xff,0xff,0xff,0xc0,0xff,0xff,0x3f,0x00,0x00,0x00,0x00,0x00,0x00,0x00,0x00,0x00,0xff,0xff,0xff,0xc0,0xff,0xff,0x3f,0x00,0x00,0x00,0x00,0x00,0x00,0x00,0x00,0x00,0x9f,0xff,0xd9,0xc0,0xef,0x6f,0x3e,0x00,0x00,0x00,0x00,0x00,0x00,0x00,0x00,0x00,0x9f,0xff,0xd9,0xc0,0xef,0x6f,0x3e,0x00,0x00,0x00,0x00,0x00,0x00,0x00,0x00,0x00,0x1e,0xff,0xf8,0x80,0xc7,0x7f,0x3e,0x00,0x00,0x00,0x00,0x00,0x00,0x00,0x00,0x00,0x1e,0xff,0xf8,0x80,0xc7,0x7f,0x3e,0x00,0x00,0x00,0x00,0x00,0x00,0x00,0x00,0x00,0x1e,0xff,0x79,0x80,0xc7,0x7b,0x3e,0x00,0x00,0x00,0x00,0x00,0x00,0x00,0x00,0x00,0x9e,0xff,0x79,0x80,0xc7,0x7b,0x3e,0x00,0x00,0x00,0x00,0x00,0x00,0x00,0x00,0x00,0xfc,0xe7,0x7f,0x00,0xff,0xf9,0x1f,0x00,0x00,0x00,0x00,0x00,0x00,0x00,0x00,0x00,0xfc,0xe7,0x7f,0x00,0xff,0xf9,0x1f,0x00,0x00,0x00,0x00,0x00,0x00,0x00,0x00,0x00,0xfe,0xe7,0x7f,0x00,0xff,0xf9,0x1f,0x00,0x00,0x00,0x00,0x00,0x00,0x00,0x00,0x00,0xfe,0xe7,0x7f,0x00,0xff,0xf9,0x1f,0x00,0x00,0x00,0x00,0x00,0x00,0x00,0x00,0x00,0xfc,0xe7,0x3f,0x00,0xff,0xf9,0x1f,0x00,0x00,0x00,0x00,0x00,0x00,0x00,0x00,0x00,0xfc,0xe7,0x3f,0x00,0xff,0xf9,0x1f,0x00,0x00,0x00,0x00,0x00,0x00,0x00,0x00,0x00,0xfc,0xc7,0x3f,0x00,0xef,0xf1,0x0f,0x00,0x00,0x00,0x00,0x00,0x00,0x00,0x00,0x00,0xfc,0xc7,0x3f,0x00,0xef,0xf1,0x0f,0x00,0x00,0x00,0x00,0x00,0x00,0x00,0x00,0x00,0x00,0x00,0x00,0x00,0x00,0x00,0x3e,0x00,0x00,0x00,0x00,0x00,0x00,0x00,0x00,0x00,0x1e,0x00,0x00,0x00,0x00,0x00,0x00,0x00,0x00,0x00,0x00,0x00,0x00,0x00,0x00,0x00,0x00,0x00,0x00,0x00,0x00,0x00,0x3e,0x00,0x00,0x00,0x00,0x00,0x00,0x00,0x00,0x00,0x1f,0x00,0x00,0x00,0x00,0x00,0x00,0x00,0x00,0x00,0x00,0x00,0x00,0x00,0x00,0x00,0x00,0x00,0x00,0x00,0x00,0x80,0xff,0x01,0x00,0x00,0x00,0x00,0x00,0x00,0x00,0xc0,0xff,0x00,0x00,0x00,0x00,0x00,0x00,0x00,0x00,0x00,0x00,0x00,0x00,0x00,0x00,0x00,0x00,0x00,0x00,0x00,0x00,0xe0,0xff,0x03,0x00,0x00,0x00,0x00,0x00,0x00,0x00,0xf0,0xff,0x01,0x00,0x00,0x00,0x00,0x00,0x00,0x00,0x00,0x00,0x00,0x00,0x00,0x00,0x00,0x00,0x00,0x00,0x00,0x00,0xe0,0xe7,0x03,0x00,0x00,0x00,0x00,0x00,0x00,0x00,0xe0,0xf3,0x01,0x00,0x00,0x00,0x00,0x00,0x00,0x00,0x00,0x00,0x00,0x00,0x00,0x00,0x00,0x00,0x00,0x00,0x00,0x00,0xc0,0xe3,0x01,0x00,0x00,0x00,0x00,0x00,0x00,0x00,0xe0,0xf1,0x01,0x00,0x00,0x00,0x00,0x00,0x00,0x00,0x00,0x00,0x00,0x00,0x00,0x00,0x00,0x00,0x00,0x00,0x00,0x00,0xc6,0xe7,0x31,0x00,0x00,0x00,0x00,0x00,0x00,0x00,0xe3,0xf3,0x18,0x00,0x00,0x00,0x00,0x00,0x00,0x00,0x00,0x00,0x00,0x00,0x00,0x00,0x00,0x00,0x00,0x00,0x00,0x00,0x9f,0xff,0x78,0x00,0x00,0x00,0x00,0x00,0x00,0x80,0xcf,0x7f,0x7c,0x00,0x00,0x00,0x00,0x00,0x00,0x00,0x00,0x00,0x00,0x00,0x00,0x00,0x00,0x00,0x00,0x00,0x00,0x00,0x9f,0xff,0xfd,0x00,0x00,0x00,0x00,0x00,0x00,0x80,0xcf,0xff,0x7e,0x00,0x00,0x00,0x00,0x00,0x00,0x00,0x00,0x00,0x00,0x00,0x00,0x00,0x00,0x00,0x00,0x00,0x00,0xe0,0xff,0xff,0xff,0x03,0x00,0x00,0x00,0x00,0x00,0xe0,0xff,0xff,0xff,0x01,0x00,0x00,0x00,0x00,0x00,0x00,0x00,0x00,0x00,0x00,0x00,0x00,0x00,0x00,0x00,0x00,0x00,0xf0,0xff,0xf7,0xff,0x07,0x00,0x00,0x00,0x00,0x00,0xf8,0xff,0xff,0xff,0x03,0x00,0x00,0x00,0x00,0x00,0x00,0x00,0x00,0x00,0x00,0x00,0x00,0x00,0x00,0x00,0x00,0x00,0xf0,0xf9,0x80,0xcd,0x07,0x00,0x00,0x00,0x00,0x00,0xf8,0xfc,0xc0,0xe6,0x03,0x00,0x00,0x00,0x00,0x00,0x00,0x00,0x00,0x00,0x00,0x00,0x00,0x00,0x00,0x00,0x00,0x00,0xe0,0xf1,0x80,0xcf,0x07,0x00,0x00,0x00,0x00,0x00,0xf0,0x78,0xc0,0xe7,0x03,0x00,0x00,0x00,0x00,0x00,0x00,0x00,0x00,0x00,0x00,0x00,0x00,0x00,0x00,0x00,0x00,0x00,0xe0,0xf9,0x80,0xcf,0x03,0x00,0x00,0x00,0x00,0x00,0xf0,0x7d,0x80,0xe7,0x03,0x00,0x00,0x00,0x00,0x00,0x00,0x00,0x00,0x00,0x00,0x00,0x00,0x00,0x00,0x00,0x00,0x00,0xe0,0x7f,0x00,0xff,0x03,0x00,0x00,0x00,0x00,0x00,0xe0,0x3f,0x80,0xff,0x01,0x00,0x00,0x00,0x00,0x00,0x00,0x00,0x00,0x00,0x00,0x00,0x00,0x00,0x00,0x00,0x00,0x00,0xe0,0x6f,0x00,0xff,0x03,0x00,0x00,0x00,0x00,0x00,0xe0,0x3f,0x80,0xff,0x01,0x00,0x00,0x00,0x00,0x00,0x00,0x00,0x00,0x00,0x00,0x00,0x00,0x00,0x00,0x00,0x00,0x00,0xc0,0x7f,0x00,0xfe,0x01,0x00,0x00,0x00,0x00,0x00,0xe0,0x3f,0x00,0xff,0x00,0x00,0x00,0x00,0x00,0x00,0x00,0x00,0x00,0x00,0x00,0x00,0x00,0x00,0x00,0x00,0x00,0x0c,0xc0,0x7b,0x00,0xff,0x01,0x18,0x00,0x00,0x00,0x06,0xe0,0x3d,0x00,0xff,0x00,0x0c,0x00,0x00,0x00,0x00,0x00,0x00,0x00,0x00,0x00,0x00,0x00,0x00,0x00,0x00,0x00,0x3e,0x00,0xf8,0x80,0x0f,0x00,0x7c,0x00,0x00,0x00,0x1f,0x00,0x7c,0xc0,0x07,0x00,0x3e,0x00,0x00,0x00,0x00,0x00,0x00,0x00,0x00,0x00,0x00,0x00,0x00,0x00,0x00,0x00,0x3e,0x00,0xf8,0x81,0x0f,0x00,0x7e,0x00,0x00,0x00,0x1f,0x00,0xfc,0xc0,0x07,0x00,0x3e,0x00,0x00,0x00,0x00,0x00,0x00,0x00,0x00,0x00,0x00,0x00,0x00,0x00,0x00,0xc0,0xff,0x00,0xfe,0xe7,0x3f,0x80,0xff,0x01,0x00,0xe0,0x7f,0x00,0xff,0xf3,0x1f,0xc0,0xff,0x00,0x00,0x00,0x00,0x00,0x00,0x00,0x00,0x00,0x00,0x00,0x00,0x00,0x00,0xe0,0xff,0x01,0xff,0xff,0xff,0xc0,0xff,0x03,0x00,0xf0,0xff,0x81,0xff,0xff,0x7f,0xe0,0xff,0x01,0x00,0x00,0x00,0x00,0x00,0x00,0x00,0x00,0x00,0x00,0x00,0x00,0x00,0xe0,0xf3,0x01,0x9f,0xfd,0xfc,0xc0,0xe6,0x03,0x00,0xf0,0xf9,0x80,0xcf,0xfe,0x7c,0xe0,0xf3,0x01,0x00,0x00,0x00,0x00,0x00,0x00,0x00,0x00,0x00,0x00,0x00,0x00,0x00,0xe0,0xe3,0x01,0x8f,0xff,0x78,0xc0,0xc7,0x03,0x00,0xe0,0xf1,0x80,0xcf,0x7f,0x3c,0xe0,0xe3,0x01,0x00,0x00,0x00,0x00,0x00,0x00,0x00,0x00,0x00,0x00,0x00,0x00,0x00,0xc6,0xf3,0x39,0x9f,0xf7,0x7d,0x8e,0xe7,0x73,0x00,0xe3,0xf9,0x9c,0xcf,0xfb,0x3e,0xc6,0xf3,0x39,0x00,0x00,0x00,0x00,0x00,0x00,0x00,0x00,0x00,0x00,0x00,0x00,0x80,0xdf,0xff,0x7c,0xfe,0xe7,0x3f,0x9f,0xff,0xf9,0xc0,0xef,0x7f,0x3e,0xff,0xf3,0x9f,0xdf,0xff,0x7c,0x00,0x00,0x00,0x00,0x00,0x00,0x00,0x00,0x00,0x00,0x00,0x00,0xc0,0xff,0xdf,0xef,0xff,0xe7,0xbf,0xdf,0xff,0xdb,0xe3,0xff,0x6f,0xbf,0xff,0xf3,0xdf,0xef,0xff,0x6f,0x01,0x00,0x00,0x00,0x00,0x00,0x00,0x00,0x00,0x00,0x00,0x00,0xf0,0xff,0xff,0xff,0xff,0xe3,0xff,0xff,0xff,0xff,0xff,0xff,0xff,0xff,0xff,0xf1,0xfe,0xff,0xff,0xff,0x03,0x00,0x00,0x00,0x00,0x00,0x00,0x00,0x00,0x00,0x00,0x00,0xf0,0xff,0xff,0xff,0xff,0xe3,0xfd,0xff,0xff,0xff,0xff,0xff,0xfb,0xff,0xff,0xf1,0xfe,0xff,0xff,0xff,0x07,0x00,0x00,0x00,0x00,0x00,0x00,0x00,0x00,0x00,0x00,0x00,0xf0,0xf9,0xc0,0xc7,0x07,0x00,0xe0,0xf3,0x81,0x8f,0xff,0x7c,0xc0,0xe7,0x03,0x00,0xf0,0xf9,0x80,0xc7,0x07,0x00,0x00,0x00,0x00,0x00,0x00,0x00,0x00,0x00,0x00,0x00,0xf0,0xf8,0x80,0xc7,0x03,0x00,0xe0,0xf1,0x00,0x8f,0xff,0x7c,0xc0,0xe3,0x01,0x00,0xf0,0xf8,0x80,0xc7,0x03,0x00,0x00,0x00,0x00,0x00,0x00,0x00,0x00,0x00,0x00,0x00,0xf0,0x79,0x80,0xef,0x03,0x00,0xe0,0xf3,0x00,0xdf,0xf7,0x3c,0xc0,0xe7,0x01,0x00,0xf0,0x79,0x80,0xef,0x03,0x00,0x00,0x00,0x00,0x00,0x00,0x00,0x00,0x00,0x00,0x00,0xe0,0x7f,0x00,0xff,0x01,0x00,0xc0,0xff,0x00,0xfe,0xf3,0x3f,0x80,0xff,0x01,0x00,0xe0,0x7f,0x00,0xff,0x01,0x00,0x00,0x00,0x00,0x00,0x00,0x00,0x00,0x00,0x00,0x00,0xe0,0x7f,0x00,0xff,0x01,0x00,0xc0,0x7e,0x00,0xfe,0xf3,0x3f,0x80,0xff,0x00,0x00,0xe0,0x7f,0x00,0xff,0x01,0x00,0x00,0x00,0x00,0x00,0x00,0x00,0x00,0x00,0x00,0x00,0xe0,0x3f,0x00,0xff,0x01,0x00,0xc0,0x7f,0x00,0xde,0xe3,0x1f,0x80,0xff,0x00,0x00,0xe0,0x3f,0x00,0xef,0x01,0x00,0x00,0x00,0x00,0x00,0x00,0x00,0x00,0x00,0x00,0x00,0xc0,0x7f,0x00,0xef,0x01,0x00,0x80,0xfb,0x00,0xde,0xe3,0x3f,0x80,0xf7,0x00,0x00,0xc0,0x7f,0x00,0xef,0x01,0x00,0x00,0x00,0x00,0x00,0x00,0x00,0x00,0x00,0x00,0x00,0x00,0xf8,0xc0,0x0f,0x00,0x00,0x00,0xf0,0x81,0x1f,0x00,0x7c,0xe0,0x07,0x00,0x00,0x00,0xf8,0xc0,0x0f,0x00,0x00,0x00,0x00,0x00,0x00,0x00,0x00,0x00,0x00,0x00,0x00,0x00,0xda,0xe3,0x1f,0x00,0x00,0x00,0xf4,0xc3,0x2f,0x00,0xef,0xf1,0x0f,0x00,0x00,0x00,0xda,0xe3,0x1f,0x00,0x00,0x00,0x00,0x00,0x00,0x00,0x00,0x00,0x00,0x00,0x00,0x00,0xff,0xff,0x3f,0x00,0x00,0x00,0xfe,0xff,0x7f,0x80,0xff,0xfb,0x3f,0x00,0x00,0x00,0xff,0xff,0x7f,0x00,0x00,0x00,0x00,0x00,0x00,0x00,0x00,0x00,0x00,0x00,0x00,0x80,0xff,0xff,0x7f,0x00,0x00,0x00,0xff,0xff,0xff,0xc0,0xff,0xff,0x3f,0x00,0x00,0x80,0xff,0xff,0x7f,0x00,0x00,0x00,0x00,0x00,0x00,0x00,0x00,0x00,0x00,0x00,0x00,0x80,0x8f,0xff,0x7c,0x00,0x00,0x00,0x9f,0xff,0xf9,0xc0,0xc7,0x7f,0x3e,0x00,0x00,0x80,0xcf,0xff,0x7c,0x00,0x00,0x00,0x00,0x00,0x00,0x00,0x00,0x00,0x00,0x00,0x00,0x00,0x8f,0xff,0x7c,0x00,0x00,0x00,0x1e,0xff,0xf8,0x80,0xc7,0x7f,0x3e,0x00,0x00,0x00,0x8f,0xff,0x7c,0x00,0x00,0x00,0x00,0x00,0x00,0x00,0x00,0x00,0x00,0x00,0x00,0x00,0xdf,0xf7,0x3c,0x00,0x00,0x00,0x9e,0xff,0x79,0x80,0xef,0x7b,0x1e,0x00,0x00,0x00,0xdf,0xf7,0x3c,0x00,0x00,0x00,0x00,0x00,0x00,0x00,0x00,0x00,0x00,0x00,0x00,0x00,0xfe,0xf3,0x3f,0x00,0x00,0x00,0xfe,0xe7,0x7f,0x00,0xff,0xf9,0x1f,0x00,0x00,0x00,0xfe,0xf3,0x3f,0x00,0x00,0x00,0x00,0x00,0x00,0x00,0x00,0x00,0x00,0x00,0x00,0x00,0xfe,0xf3,0x3f,0x00,0x00,0x00,0xfc,0xe6,0x7f,0x00,0xff,0xf9,0x1f,0x00,0x00,0x00,0xfe,0xf3,0x3f,0x00,0x00,0x00,0x00,0x00,0x00,0x00,0x00,0x00,0x00,0x00,0x00,0x00,0xfe,0xe3,0x1f,0x00,0x00,0x00,0xfc,0xc7,0x3f,0x00,0xef,0xf1,0x0f,0x00,0x00,0x00,0xfe,0xe3,0x1f,0x00,0x00,0x00,0x00,0x00,0x00,0x00,0x00,0x00,0x00,0x00,0x00,0x00,0xde,0xe3,0x3f,0x00,0x00,0x00,0xbe,0xc3,0x3f,0x00,0xef,0xf1,0x1f,0x00,0x00,0x00,0xde,0xe3,0x1f,0x00,0x00,0x00,0x00,0x00,0x00,0x00,0x00,0x00,0x00,0x00,0x00,0x00,0x00,0x00,0x7c,0x00,0x00,0x00,0x1f,0x00,0x00,0x00,0x00,0x00,0x3e,0x00,0x00,0x80,0x1f,0x00,0x00,0x00,0x00,0x00,0x00,0x00,0x00,0x00,0x00,0x00,0x00,0x00,0x00,0x00,0x00,0x00,0x6f,0x01,0x00,0x80,0x5f,0x00,0x00,0x00,0x00,0x80,0xbf,0x00,0x00,0xc0,0x2f,0x00,0x00,0x00,0x00,0x00,0x00,0x00,0x00,0x00,0x00,0x00,0x00,0x00,0x00,0x00,0x00,0x80,0xff,0x03,0x00,0xe0,0xff,0x00,0x00,0x00,0x00,0xc0,0xff,0x01,0x00,0xf0,0x7f,0x00,0x00,0x00,0x00,0x00,0x00,0x00,0x00,0x00,0x00,0x00,0x00,0x00,0x00,0x00,0x00,0xc0,0xff,0x07,0x00,0xe0,0xff,0x01,0x00,0x00,0x00,0xe0,0xff,0x03,0x00,0xf0,0xff,0x00,0x00,0x00,0x00,0x00,0x00,0x00,0x00,0x00,0x00,0x00,0x00,0x00,0x00,0x00,0x00,0x80,0xc7,0x07,0x00,0xe0,0xf3,0x01,0x00,0x00,0x00,0xc0,0xe7,0x03,0x00,0xf0,0xf9,0x00,0x00,0x00,0x00,0x00,0x00,0x00,0x00,0x00,0x00,0x00,0x00,0x00,0x00,0x00,0x00,0x80,0xc7,0x03,0x00,0xe0,0xf1,0x00,0x00,0x00,0x00,0xc0,0xe3,0x01,0x00,0xf0,0xf8,0x00,0x00,0x00,0x00,0x00,0x00,0x00,0x00,0x00,0x00,0x00,0x00,0x00,0x00,0x00,0x00,0x9c,0xef,0x63,0x00,0xe7,0xf3,0x18,0x00,0x00,0x00,0xce,0xe7,0x31,0x80,0xe3,0x79,0x0c,0x00,0x00,0x00,0x00,0x00,0x00,0x00,0x00,0x00,0x00,0x00,0x00,0x00,0x00,0x00,0x3e,0xff,0xf9,0x81,0xcf,0xff,0x7e,0x00,0x00,0x00,0x9f,0xff,0xfd,0xc0,0xe7,0x7f,0x3e,0x00,0x00,0x00,0x00,0x00,0x00,0x00,0x00,0x00,0x00,0x00,0x00,0x00,0x00,0x80,0xfe,0xff,0xfd,0xe2,0xff,0xff,0xfd,0x00,0x00,0xc0,0xff,0xff,0xfe,0xf1,0xfe,0xff,0xfe,0x00,0x00,0x00,0x00,0x00,0x00,0x00,0x00,0x00,0x00,0x00,0x00,0x00,0x00,0xe0,0xff,0xef,0xff,0xff,0xff,0xff,0xff,0x03,0x00,0xe0,0xff,0xff,0xff,0xff,0xff,0xff,0xff,0x01,0x00,0x00,0x00,0x00,0x00,0x00,0x00,0x00,0x00,0x00,0x00,0x00,0x00,0xe0,0xff,0xef,0xff,0xff,0xff,0xfb,0xff,0x03,0x00,0xf0,0xff,0xf7,0xff,0xff,0xff,0xff,0xff,0x01,0x00,0x00,0x00,0x00,0x00,0x00,0x00,0x00,0x00,0x00,0x00,0x00,0x00,0xe0,0xf3,0x01,0x9f,0xff,0x78,0xc0,0xe7,0x03,0x00,0xf0,0xf9,0x80,0xcf,0x7f,0x3c,0xe0,0xf3,0x01,0x00,0x00,0x00,0x00,0x00,0x00,0x00,0x00,0x00,0x00,0x00,0x00,0x00,0xc0,0xe3,0x01,0x8f,0xff,0x78,0xc0,0xc7,0x03,0x00,0xe0,0xf1,0x80,0xc7,0x7f,0x3c,0xc0,0xe3,0x01,0x00,0x00,0x00,0x00,0x00,0x00,0x00,0x00,0x00,0x00,0x00,0x00,0x00,0x80,0x7f,0x00,0xfc,0xe3,0x3d,0x00,0xff,0x00,0x00,0xc0,0x7f,0x00,0xfe,0xf1,0x1e,0x80,0x7f,0x00,0x00,0x00,0x00,0x00,0x00,0x00,0x00,0x00,0x00,0x00,0x00,0x00,0x00,0xc0,0xff,0x00,0xfe,0xe7,0x3f,0x80,0xff,0x01,0x00,0xe0,0x7f,0x00,0xff,0xf3,0x1f,0xc0,0xff,0x00,0x00,0x00,0x00,0x00,0x00,0x00,0x00,0x00,0x00,0x00,0x00,0x00,0x00,0xc0,0xff,0x00,0xfe,0xe7,0x3f,0x80,0xff,0x01,0x00,0xc0,0x7f,0x00,0xff,0xf3,0x1f,0x80,0xff,0x00,0x00,0x00,0x00,0x00,0x00,0x00,0x00,0x00,0x00,0x00,0x00,0x00,0x00,0x80,0xff,0x00,0xfc,0xe3,0x3f,0x00,0xff,0x00,0x00,0xc0,0x7f,0x00,0xfe,0xf1,0x1e,0x80,0xff,0x00,0x00,0x00,0x00,0x00,0x00,0x00,0x00,0x00,0x00,0x00,0x00,0x00,0x00,0x00,0xf7,0x00,0x9e,0xc3,0x3d,0x80,0xf7,0x00,0x00,0xc0,0x7b,0x00,0xef,0xf1,0x1c,0xc0,0x77,0x00,0x00,0x00,0x00,0x00,0x00,0x00,0x00,0x00,0x00,0x00,0x00,0x00,0x00,0x00,0xf0,0x01,0x1f,0x00,0xfc,0xc0,0x07,0x00,0x00,0x00,0xf8,0x81,0x0f,0x00,0x7e,0xe0,0x03,0x00,0x00,0x00,0x00,0x00,0x00,0x00,0x00,0x00,0x00,0x00,0x00,0x00,0x00,0x00,0xfc,0xc5,0x7f,0x00,0x7b,0xf1,0x1e,0x00,0x00,0x00,0xfe,0xe3,0x3f,0x00,0xfd,0xf8,0x0f,0x00,0x00,0x00,0x00,0x00,0x00,0x00,0x00,0x00,0x00,0x00,0x00,0x00,0x00,0x00,0xfe,0xff,0xff,0x80,0xff,0xff,0x3f,0x00,0x00,0x00,0xff,0xff,0x7f,0xc0,0xff,0xff,0x1f,0x00,0x00,0x00,0x00,0x00,0x00,0x00,0x00,0x00,0x00,0x00,0x00,0x00,0x00,0x00,0xfe,0xff,0xff,0x81,0xff,0xff,0x7f,0x00,0x00,0x00,0xff,0xff,0xff,0xc0,0xff,0xff,0x3f,0x00,0x00,0x00,0x00,0x00,0x00,0x00,0x00,0x00,0x00,0x00,0x00,0x00,0x00,0x00,0x3e,0xff,0xf9,0x80,0xcf,0x7f,0x7c,0x00,0x00,0x00,0x9f,0xff,0x78,0xc0,0xe7,0x3f,0x3e,0x00,0x00,0x00,0x00,0x00,0x00,0x00,0x00,0x00,0x00,0x00,0x00,0x00,0x00,0x00,0x1e,0xef,0xf1,0x80,0xcf,0x7f,0x3c,0x00,0x00,0x00,0x8f,0xf7,0x78,0xc0,0xc7,0x3f,0x1e,0x00,0x00,0x00,0x00,0x00,0x00,0x00,0x00,0x00,0x00,0x00,0x00,0x00,0x00,0x00,0xf8,0xc7,0x7f,0x00,0xfe,0xf1,0x1e,0x00,0x00,0x00,0xfc,0xe3,0x3d,0x00,0xff,0x78,0x0f,0x00,0x00,0x00,0x00,0x00,0x00,0x00,0x00,0x00,0x00,0x00,0x00,0x00,0x00,0x00,0xfc,0xef,0x7f,0x00,0xff,0xf3,0x1f,0x00,0x00,0x00,0xfe,0xe7,0x3f,0x80,0xff,0xf9,0x1f,0x00,0x00,0x00,0x00,0x00,0x00,0x00,0x00,0x00,0x00,0x00,0x00,0x00,0x00,0x00,0xfc,0xc7,0x7f,0x00,0xff,0xf3,0x1f,0x00,0x00,0x00,0xfe,0xe7,0x3f,0x80,0xff,0xf9,0x0f,0x00,0x00,0x00,0x00,0x00,0x00,0x00,0x00,0x00,0x00,0x00,0x00,0x00,0x00,0x00,0xfc,0xc7,0x7f,0x00,0xfe,0xf1,0x1e,0x00,0x00,0x00,0xfc,0xe3,0x3f,0x00,0xff,0xf8,0x0f,0x00,0x00,0x00,0x00,0x00,0x00,0x00,0x00,0x00,0x00,0x00,0x00,0x00,0x00,0x00,0x00,0x00,0x00,0x00,0x00,0x00,0x00,0x00,0x00,0x00,0x00,0x00,0x00,0x00,0x00,0x00,0x00,0x00,0x00,0x00,0x00,0x00,0x00,0x00,0x00,0x00,0x00,0x00,0x00,0x00,0x00,0x00,0x00,0x00,0x00,0x00,0x00,0x00,0x00,0x00,0x00,0x00,0x00,0x00,0x00,0x00,0x00,0x00,0x00,0x00,0x00,0x00,0x00,0x00,0x00,0x00,0x00,0x00,0x00,0x00,0x00,0x00,0x00,0x00,0x00,0x00,0x00,0x00,0x00,0x00,0x00,0x00,0x00,0x00,0x00,0x00,0x00,0x00,0x00,0x00,0x00,0x00,0x00,0x00,0x00,0x00,0x00,0x00,0x00,0x00,0x00,0x00,0x00,0x00,0x00,0x00,0x00,0x00,0x00,0x00,0x00,0x00,0x00,0x00,0x00,0x00,0x00,0x00,0x00,0x00,0x00,0x00,0x00,0x00,0x00,0x00,0x00,0x00,0x00,0x00,0x00,0x00,0x00,0x00,0x00,0x00,0x00,0x00,0x00,0x00,0x00,0x00,0x00,0x00,0x00,0x00,0x00,0x00,0x00,0x00,0x00,0x00,0x00,0x00,0x00,0x00,0x00,0x00,0x00,0x00,0x00,0x00,0x00,0x00,0x00,0x00,0x00,0x00,0x00,0x00,0x00,0x00,0x00,0x00,0x00,0x00,0x00,0x00,0x00,0x00,0x00,0x00,0x00,0x00,0x00,0x00,0x00,0x00,0x00,0x00,0x00,0x00,0x00,0x00,0x00,0x00,0x00,0x00,0x00,0x00,0x00,0x00,0x00,0x00,0x00,0x00,0x00,0x00,0x00,0x00,0x00,0x00,0x00,0x00,0x00,0x00,0x00,0x00,0x00,0x00,0x00,0x00,0x00,0x00,0x00,0x00,0x00,0x00,0x00,0x00,0x00,0x00,0x00,0x00,0x00,0x00,0x00,0x00,0x00,0x00,0x00,0x00,0x00,0x00,0x00,0x00,0x00,0x00,0x00,0x00,0x00,0x00,0x00,0x00,0x00,0x00,0x00,0x00,0x00,0x00,0x00,0x00,0x00,0x00,0x00,0x00,0x00,0x00,0x00,0x00,0x00,0x00,0x00,0x00,0x00,0x00,0x00,0x00,0x00,0x00,0x00,0x00,0x00,0x00,0x00,0x00,0x00,0x00,0x00,0x00,0x00,0x00,0x00,0x00,0x00,0x00,0x00,0x00,0x00,0x00,0x00,0x00,0x00,0x00,0x00,0x00,0x00,0x00,0x00,0x00,0x00,0x00,0x00,0x00,0x00,0x00,0x00,0x00,0x00,0x00,0x00,0x00,0x00,0x00,0x00,0x00,0x00,0x00,0x00,0x00,0x00,0x00,0x00,0x00,0x00,0x00,0x00,0x00,0x00,0x00,0x00,0x00,0x00,0x00,0x00,0x00,0x00,0x00,0x00,0x00,0x00,0x00,0x00,0x00,0x00,0x00,0x00,0x00,0x00,0x00,0x00,0x00,0x00,0x00,0x00,0x00,0x00,0x00,0x00,0x00,0x00,0x00,0x00,0x00,0x00,0x00,0x00,0x00,0x00,0x00,0x00,0x00,0x00,0x00,0x00,0x00,0x00,0x00,0x00,0x00,0x00,0x00,0x00,0x00,0x00,0x00,0x00,0x00,0x00,0x00,0x00,0x00,0x00,0x00,0x00,0x00,0x00,0x00,0x00,0x00,0x00,0x00,0x00,0x00,0x00,0x00,0x00,0x00,0x00,0x00,0x00,0x00,0x00,0x00,0x00,0x00,0x00,0x00,0x00,0x00,0x00,0x00,0x00,0x00,0x00,0x00,0x00,0x00,0x00,0x00,0x00,0x00,0x00,0x00,0x00,0x00,0x00,0x00,0x00,0x00,0x00,0x00,0x00,0x00,0x00,0x00,0x00,0x00,0x00,0x00,0x00,0x00,0x00,0x00,0x00,0x00,0x00,0x00,0x00,0x00,0x00,0x00,0x00,0x00,0x00,0x00,0x00,0x00,0x00,0x00,0x00,0x00,0x00,0x00,0x00,0x00,0x00,0x00,0x00,0x00,0x00,0x00,0x00,0x00,0x00,0x00,0x00,0x00,0x00,0x00,0x00,0x00,0x00,0x00,0x00,0x00,0x00,0x00,0x00,0x00,0x00,0x00,0x00,0x00,0x00,0x00,0x00,0x00,0x00,0x00,0x00,0x00,0x00,0x00,0x00,0x00,0x00,0x00,0x00,0x00,0x00,0x00,0x00,0x00,0x00,0x00,0x00,0x00,0x00,0x00,0x00,0x00,0x00,0x00,0x00,0x00,0x00,0x00,0x00,0x00,0x00,0x00,0x00,0x00,0x00,0x00,0x00,0x00,0x00,0x00,0x00,0x00,0x00,0x00,0x00,0x00,0x00,0x00,0x00,0x00,0x00,0x00,0x00,0x00,0x00,0x00,0x00,0x00,0x00,0x00,0x00,0x00,0x00,0x00,0x00,0x00,0x00,0x00,0x00,0x00,0x00,0x00,0x00,0x00,0x00,0x00,0x00,0x00,0x00,0x00,0x00,0x00,0x00,0x00,0x00,0x00,0x00,0x00,0x00,0x00,0x00,0x00,0x00,0x00,0x00,0x00,0x00,0x00,0x00,0x00,0x00,0x00,0x00,0x00,0x00,0x00,0x00,0x00,0x00,0x00,0x00,0x00,0x00,0x00,0x00,0x00,0x00,0x00,0x00,0x00,0x00,0x00,0x00,0x00,0x00,0x00,0x00,0x00,0x00,0x00,0x00,0x00,0x00,0x00,0x00,0x00,0x00,0x00,0x00,0x00,0x00,0x00,0x00,0x00,0x00,0x00,0x00,0x00,0x00,0x00,0x00,0x00,0x00,0x00,0x00,0x00,0x00,0x00,0x00,0x00,0x00,0x00,0x00,0x00,0x00,0x00,0x00,0x00,0x00,0x00,0x00,0x00,0x00,0x00,0x00,0x00,0x00,0x00,0x00,0x00,0x00,0x00,0x00,0x00,0x00,0x00,0x00,0x00,0x00,0x00,0x00,0x00,0x00,0x00,0x00,0x00,0x00,0x00,0x00,0x00,0x00,0x00,0x00,0x00,0x00,0x00,0x00,0x00,0x00,0x00,0x00,0x00,0x00,0x00,0x00,0x00,0x00,0x00,0x00,0x00,0x00,0x00,0x00,0x00,0x00,0x00,0x00,0x00,0x00,0x00,0x00,0x00,0x00,0x00,0x00,0x00,0x00,0x00,0x00,0x00,0x00,0x00,0x00,0x00,0x00,0x00,0x00,0x00,0x00,0x00,0x00,0x00,0x00,0x00,0x00,0x00,0x00,0x00,0x00,0x00,0x00,0x00,0x00,0x00,0x00,0x00,0x00,0x00,0x00,0x00,0x00,0x00,0x00,0x00,0x00,0x00,0x00,0x00,0x00,0x00,0x00,0x00,0x00,0x00,0x00,0x00,0x00,0x00,0x00,0x00,0x00,0x00,0x00,0x00,0x00,0x00,0x00,0x00,0x00,0x00,0x00,0x00,0x00,0x00,0x00,0x00,0x00,0x00,0x00,0x00,0x00,0x00,0x00,0x00,0x00,0x00,0x00,0x00,0x00,0x00,0x00,0x00,0x00,0x00,0x00,0x00,0x00,0x00,0x00,0x00,0x00,0x00,0x00,0x00,0x00,0x00,0x00,0x00,0x00,0x00,0x00,0x00,0x00,0x00,0x00,0x00,0x00,0x00,0x00,0x00,0x00,0x00,0x00,0x00,0x00,0x00,0x00,0x00,0x00,0x00,0x00,0x00,0x00,0x00,0x00,0x00,0x00,0x00,0x00,0x00,0x00,0x00,0x00,0x00,0x00,0x00,0x00,0x00,0x00,0x00,0x00,0x00,0x00,0x00,0x00,0x00,0x00,0x00,0x00,0x00,0x00,0x00,0x00,0x00,0x00,0x00,0x00,0x00,0x00,0x00,0x00,0x00,0x00,0x00,0x00,0x00,0x00,0x00,0x00,0x00,0x00,0x00,0x00,0x00,0x00,0x00,0x00,0x00,0x00,0x00,0x00,0x00,0x00,0x00,0x00,0x00,0x00,0x00,0x00,0x00,0x00,0x00,0x00,0x00,0x00,0x00,0x00,0x00,0x00,0x00,0x00,0x00,0x00,0x00,0x00,0x00,0x00,0x00,0x00,0x00,0x00,0x00,0x00,0x00,0x00,0x00,0x00,0x00,0x00,0x00,0x00,0x00,0x00,0x00,0x00,0x00,0x00,0x00,0x00,0x00,0x00,0x00,0x00,0x00,0x00,0x00,0x00,0x00,0x00,0x00,0x00,0x00,0x00,0x00,0x00,0x00,0x00,0x00,0x00,0x00,0x00,0x00,0x00,0x00,0x00,0x00,0x00,0x00,0x00,0x00,0x00,0x00,0x00,0x00,0x00,0x00,0x00,0x00};
