#define x_width 256
#define x_height 256
static char x_bits[] = {
0x00,0x00,0x00,0x00,0x00,0x00,0x00,0x00,0x00,0x00,0x00,0x00,0x00,0x00,0x00,0x00,0x00,0x00,0x00,0x00,0x00,0x00,0x00,0x00,0x00,0x00,0x00,0x00,0x00,0x00,0x00,0x00,0x00,0x00,0x00,0x00,0x00,0x00,0x00,0x00,0x00,0x00,0x00,0x00,0x00,0x00,0x00,0x00,0x00,0x00,0x00,0x00,0x00,0x00,0x00,0x00,0x00,0x00,0x00,0x00,0x00,0x00,0x00,0x00,0x00,0x00,0x00,0x00,0x00,0x00,0x00,0x00,0x00,0x00,0x00,0x00,0x00,0x00,0x00,0x00,0x00,0x00,0x00,0x00,0x00,0x00,0x00,0x00,0x00,0x00,0x00,0x00,0x00,0x00,0x00,0x00,0x00,0x00,0x00,0x00,0x00,0x00,0x00,0x00,0x00,0x00,0x00,0x00,0x00,0x00,0x00,0x00,0x00,0x00,0x00,0x00,0x00,0x00,0x00,0x00,0x00,0x00,0x00,0x00,0x00,0x00,0x00,0x00,0x00,0x00,0x00,0x00,0x00,0x00,0x00,0x00,0x00,0x00,0x00,0x00,0x00,0x00,0x00,0x00,0x00,0x00,0x00,0x00,0x00,0x00,0x00,0x00,0x00,0x00,0x00,0x00,0x00,0x00,0x00,0x00,0x00,0x00,0x00,0x00,0x00,0x00,0x00,0x00,0x00,0x00,0x00,0x00,0x00,0x00,0x00,0x00,0x00,0x00,0x00,0x00,0x00,0x00,0x00,0x00,0x00,0x00,0x00,0x00,0x00,0x00,0x00,0x00,0x00,0x00,0x00,0x00,0x00,0x00,0x00,0x00,0x00,0x00,0x00,0x00,0x00,0x00,0x00,0x00,0x00,0x00,0x00,0x00,0x00,0x00,0x00,0x00,0x00,0x00,0x00,0x00,0x00,0x00,0x00,0x00,0x00,0x00,0x00,0x00,0x00,0x00,0x00,0x00,0x00,0x00,0x00,0x00,0x00,0x00,0x00,0x00,0x00,0x00,0x00,0x00,0x00,0x00,0x00,0x00,0x00,0x00,0x00,0x00,0x00,0x00,0x00,0x00,0x00,0x00,0x00,0x00,0x00,0x00,0x00,0x00,0x00,0x00,0x00,0x00,0x00,0x00,0x00,0x00,0x00,0x00,0x00,0x00,0x00,0x00,0x00,0x00,0x00,0x00,0x00,0x00,0x00,0x00,0x00,0x00,0x00,0x00,0x00,0x00,0x00,0x00,0x00,0x00,0x00,0x00,0x00,0x00,0x00,0x00,0x00,0x00,0x00,0x00,0x00,0x00,0x00,0x00,0x00,0x00,0x00,0x00,0x00,0x00,0x00,0x00,0x00,0x00,0x00,0x00,0x00,0x00,0x00,0x00,0x00,0x00,0x00,0x00,0x00,0x00,0x00,0x00,0x00,0x00,0x00,0x00,0x00,0x00,0x00,0x00,0x00,0x00,0x00,0x00,0x00,0x00,0x00,0x00,0x00,0x00,0x00,0x00,0x00,0x00,0x00,0x00,0x00,0x00,0x00,0x00,0x00,0x00,0x00,0x00,0x00,0x00,0x00,0x00,0x00,0x00,0x00,0x00,0x00,0x00,0x00,0x00,0x00,0x00,0x00,0x00,0x00,0x00,0x00,0x00,0x00,0x00,0x00,0x00,0x00,0x00,0x00,0x00,0x00,0x00,0x00,0x00,0x00,0x00,0x00,0x00,0x00,0x00,0x00,0x00,0x00,0x00,0x00,0x00,0x00,0x00,0x00,0x00,0x00,0x00,0x00,0x00,0x00,0x00,0x00,0x00,0x00,0x00,0x00,0x00,0x00,0x00,0x00,0x00,0x00,0x00,0x00,0x00,0x00,0x00,0x00,0x00,0x00,0x00,0x00,0x00,0x00,0x00,0x00,0x00,0x00,0x00,0x00,0x00,0x00,0x00,0x00,0x00,0x00,0x00,0x00,0x00,0x00,0x00,0x00,0x00,0x00,0x00,0x00,0x00,0x00,0x00,0x00,0x00,0x00,0x00,0x00,0x00,0x00,0x00,0x00,0x00,0x00,0x00,0x00,0x00,0x00,0x00,0x00,0x00,0x00,0x00,0x00,0x00,0x00,0x00,0x00,0x00,0x00,0x00,0x00,0x00,0x00,0x00,0x00,0x00,0x00,0x00,0x00,0x00,0x00,0x00,0x00,0x00,0x00,0x00,0x00,0x00,0x00,0x00,0x00,0x00,0x00,0x00,0x00,0x00,0x00,0x00,0x00,0x00,0x00,0x00,0x00,0x00,0x00,0x00,0x00,0x00,0x00,0x00,0x00,0x00,0x00,0x00,0x00,0x00,0x00,0x00,0x00,0x00,0x00,0x00,0x00,0x00,0x00,0x00,0x00,0x00,0x00,0x00,0x00,0x00,0x00,0x00,0x00,0x00,0x00,0x00,0x00,0x00,0x00,0x00,0x00,0x00,0x00,0x00,0x00,0x00,0x00,0x00,0x00,0x00,0x00,0x00,0x00,0x00,0x00,0x00,0x00,0x00,0x00,0x00,0x00,0x00,0x00,0x00,0x00,0x00,0x00,0x00,0x00,0x00,0x00,0x00,0x00,0x00,0x00,0x00,0x00,0x00,0x00,0x00,0x00,0x00,0x00,0x00,0x00,0x00,0x00,0x00,0x00,0x00,0x00,0x00,0x00,0x00,0x00,0x00,0x00,0x00,0x00,0x00,0x00,0x00,0x00,0x00,0x00,0x00,0x00,0x00,0x00,0x00,0x00,0x00,0x00,0x00,0x00,0x00,0x00,0x00,0x00,0x00,0x00,0x00,0x00,0x00,0x00,0x00,0x00,0x00,0x00,0x00,0x00,0x00,0x00,0x00,0x00,0x00,0x00,0x00,0x00,0x00,0x00,0x00,0x00,0x00,0x00,0x00,0x00,0x00,0x00,0x00,0x00,0x00,0x00,0x00,0x00,0x00,0x00,0x00,0x00,0x00,0x00,0x00,0x00,0x00,0x00,0x00,0x00,0x00,0x00,0x00,0x00,0x00,0x00,0x00,0x00,0x00,0x00,0x00,0x00,0x00,0x00,0x00,0x00,0x00,0x00,0x00,0x00,0x00,0x00,0x00,0x00,0x00,0x00,0x00,0x00,0x00,0x00,0x00,0x00,0x00,0x00,0x00,0x00,0x00,0x00,0x00,0x00,0x00,0x00,0x00,0x00,0x00,0x00,0x00,0x00,0x00,0x00,0x00,0x00,0x00,0x00,0x00,0x00,0x00,0x00,0x00,0x00,0x00,0x00,0x00,0x00,0x00,0x00,0x00,0x00,0x00,0x00,0x00,0x00,0x00,0x00,0x00,0x00,0x00,0x00,0x00,0x00,0x00,0x00,0x00,0x00,0x00,0x00,0x00,0x00,0x00,0x00,0x00,0x00,0x00,0x00,0x00,0x00,0x00,0x00,0x00,0x00,0x00,0x00,0x00,0x00,0x00,0x00,0x00,0x00,0x00,0x00,0x00,0x00,0x00,0x00,0x00,0x00,0x00,0x00,0x00,0x00,0x00,0x00,0x00,0x00,0x00,0x00,0x00,0x00,0x00,0x00,0x00,0x00,0x00,0x00,0x00,0x00,0x00,0x00,0x00,0x00,0x00,0x00,0x00,0x00,0x00,0x00,0x00,0x00,0x00,0x00,0x00,0x00,0x00,0x00,0x00,0x00,0x00,0x00,0x00,0x00,0x00,0x00,0x00,0x00,0x00,0x00,0x00,0x00,0x00,0x00,0x00,0x00,0x00,0x00,0x00,0x00,0x00,0x00,0x00,0x00,0x00,0x00,0x00,0x00,0x00,0x00,0x00,0x00,0x00,0x00,0x00,0x00,0x00,0x00,0x00,0x00,0x00,0x00,0x00,0x00,0x00,0x00,0x00,0x00,0x00,0x00,0x00,0x00,0x00,0x00,0x00,0x00,0x00,0x00,0x00,0x00,0x00,0x00,0x00,0x00,0x00,0x00,0x00,0x00,0x00,0x00,0x00,0x00,0x00,0x00,0x00,0x00,0x00,0x00,0x00,0x00,0x00,0x00,0x00,0x00,0x00,0x00,0x00,0x00,0x00,0x00,0x00,0x00,0x00,0x00,0x00,0x00,0x00,0x00,0x00,0x00,0x00,0x00,0x00,0x00,0x00,0x00,0x00,0x00,0x00,0x00,0x00,0x00,0x00,0x00,0x00,0x00,0x00,0x00,0x00,0x00,0x00,0x00,0x00,0x00,0x00,0x00,0x00,0x00,0x00,0x00,0x00,0x00,0x00,0x00,0x00,0x00,0x00,0x00,0x00,0x00,0x00,0x00,0x00,0x00,0x00,0x00,0x00,0x00,0x00,0x00,0x00,0x00,0x00,0x00,0x00,0x00,0x00,0x00,0x00,0x00,0x00,0x00,0x00,0x00,0x00,0x00,0x00,0x00,0x00,0x00,0x00,0x00,0x00,0x00,0x00,0x00,0x00,0x00,0x00,0x00,0x00,0x00,0x00,0x00,0x00,0x00,0x00,0x00,0x00,0x00,0x00,0x00,0x00,0x00,0x00,0x00,0x00,0x00,0x00,0x00,0x00,0x00,0x00,0x00,0x00,0x00,0x00,0x00,0x00,0x00,0x00,0x00,0x00,0x00,0x00,0x00,0x00,0x00,0x00,0x00,0x00,0x00,0x00,0x00,0x00,0x00,0x00,0x00,0x00,0x00,0x00,0x00,0x00,0x00,0x00,0x00,0x00,0x00,0x00,0x00,0x00,0x00,0x00,0x00,0x00,0x00,0x00,0x00,0x00,0x00,0x00,0x00,0x00,0x00,0x00,0x00,0x00,0x00,0x00,0x00,0x00,0x00,0x00,0x00,0x00,0x00,0x00,0x00,0x00,0x00,0x00,0x00,0x00,0x00,0x00,0x00,0x00,0x00,0x00,0x00,0x00,0x00,0x00,0x00,0x00,0x00,0x00,0x00,0x00,0x00,0x00,0x00,0x00,0x00,0x00,0x00,0x00,0x00,0x00,0x00,0x00,0x00,0x00,0x00,0x00,0x00,0x00,0x00,0x00,0x00,0x00,0x00,0x00,0x00,0x00,0x00,0x00,0x00,0x00,0x00,0x00,0x00,0x00,0x00,0x00,0x00,0x00,0x00,0x00,0x00,0x00,0x00,0x00,0x00,0x00,0x00,0x00,0x00,0x00,0x00,0x00,0x00,0x00,0x00,0x00,0x00,0x00,0x00,0x00,0x00,0x00,0x00,0x00,0x00,0x00,0x00,0x00,0x00,0x00,0x00,0x00,0x00,0x00,0x00,0x00,0x00,0x00,0x00,0x00,0x00,0x00,0x00,0x00,0x00,0x00,0x00,0x00,0x00,0x00,0x00,0x00,0x00,0x00,0x00,0x00,0x00,0x00,0x00,0x00,0x00,0x00,0x00,0x00,0x00,0x00,0x00,0x00,0x00,0x00,0x00,0x00,0x00,0x00,0x00,0x00,0x00,0x00,0x00,0x00,0x00,0x00,0x00,0x00,0x00,0x00,0x00,0x00,0x00,0x00,0x00,0x00,0x00,0x00,0x00,0x00,0x00,0x00,0x00,0x00,0x00,0x00,0x00,0x00,0x00,0x00,0x00,0x00,0x00,0x00,0x00,0x00,0x00,0x00,0x00,0x00,0x00,0x00,0x00,0x00,0x00,0x00,0x00,0x00,0x00,0x00,0x00,0x00,0x00,0x00,0x00,0x00,0x00,0x00,0x00,0x00,0x00,0x00,0x00,0x00,0x00,0x00,0x00,0x00,0x00,0x00,0x00,0x00,0x00,0x00,0x00,0x00,0x00,0x00,0x00,0x00,0x00,0x00,0x00,0x00,0x00,0x00,0x00,0x00,0x00,0x00,0x00,0x00,0x00,0x00,0x00,0x00,0x00,0x00,0x00,0x00,0x00,0x00,0x00,0x00,0x00,0x00,0x00,0x00,0x00,0x00,0x00,0x00,0x00,0x00,0x00,0x00,0x00,0x00,0x00,0x00,0x00,0x00,0x00,0x00,0x00,0x00,0x80,0x00,0x00,0x00,0x04,0x00,0x00,0x00,0x00,0x00,0x00,0x00,0x00,0x00,0x80,0x20,0x00,0x00,0x05,0x01,0x00,0x00,0x00,0x00,0x00,0x00,0x00,0x00,0x00,0x00,0x00,0x00,0x80,0x4c,0x00,0x00,0x40,0x06,0x00,0x00,0x00,0x00,0x00,0x00,0x00,0x00,0x80,0x22,0x00,0x00,0x30,0x00,0x00,0x00,0x00,0x00,0x00,0x00,0x00,0x00,0x00,0x00,0x00,0x00,0x60,0xed,0x00,0x00,0x7e,0x0f,0x00,0x00,0x00,0x00,0x00,0x00,0x00,0x00,0xf0,0x57,0x00,0x80,0xbb,0x03,0x00,0x00,0x00,0x00,0x00,0x00,0x00,0x00,0x00,0x00,0x00,0x00,0xc0,0x6d,0x02,0x00,0xe9,0x05,0x00,0x00,0x00,0x00,0x00,0x00,0x00,0x00,0xc0,0x37,0x00,0x00,0xf3,0x01,0x00,0x00,0x00,0x00,0x00,0x00,0x00,0x00,0x00,0x00,0x00,0x00,0xd0,0x1a,0x01,0x00,0xbd,0x06,0x00,0x00,0x00,0x00,0x00,0x00,0x00,0x00,0xc0,0x9d,0x00,0x00,0x58,0x08,0x00,0x00,0x00,0x00,0x00,0x00,0x00,0x00,0x00,0x00,0x00,0x00,0x10,0x1b,0x00,0x00,0xb2,0x01,0x00,0x00,0x00,0x00,0x00,0x00,0x00,0x00,0x80,0x0d,0x00,0x00,0xd8,0x00,0x00,0x00,0x00,0x00,0x00,0x00,0x00,0x00,0x00,0x00,0x00,0x00,0x80,0x7f,0x40,0x04,0xf8,0x03,0x00,0x00,0x00,0x00,0x00,0x00,0x00,0x00,0xc0,0x1f,0x20,0x03,0xfc,0x00,0x00,0x00,0x00,0x00,0x00,0x00,0x00,0x00,0x00,0x00,0x00,0x00,0x00,0x04,0xc0,0x0f,0x68,0x00,0x00,0x00,0x00,0x00,0x00,0x00,0x00,0x00,0x00,0x03,0xf0,0x03,0xb0,0x00,0x00,0x00,0x00,0x00,0x00,0x00,0x00,0x00,0x00,0x00,0x00,0x00,0x20,0x9f,0xe1,0x0f,0xf0,0x19,0x00,0x00,0x00,0x00,0x00,0x00,0x00,0x00,0xb0,0x4f,0xf0,0x07,0xd9,0x0e,0x00,0x00,0x00,0x00,0x00,0x00,0x00,0x00,0x00,0x00,0x00,0x00,0xf0,0xff,0xa1,0x07,0xff,0x1f,0x00,0x00,0x00,0x00,0x00,0x00,0x00,0x00,0xf8,0xff,0xf0,0x81,0xff,0x0f,0x00,0x00,0x00,0x00,0x00,0x00,0x00,0x00,0x00,0x00,0x00,0x00,0xf0,0xff,0xe3,0x0b,0xff,0x3f,0x00,0x00,0x00,0x00,0x00,0x00,0x00,0x00,0xf8,0xff,0xd0,0xc5,0xff,0x0f,0x00,0x00,0x00,0x00,0x00,0x00,0x00,0x00,0x00,0x00,0x00,0x00,0xe0,0xf1,0xe0,0x0f,0x1e,0x1f,0x00,0x00,0x00,0x00,0x00,0x00,0x00,0x00,0xf8,0x7c,0xf0,0x07,0x8f,0x07,0x00,0x00,0x00,0x00,0x00,0x00,0x00,0x00,0x00,0x00,0x00,0x00,0xc0,0xf1,0xf8,0x7f,0x0e,0x07,0x02,0x00,0x00,0x00,0x00,0x00,0x00,0x80,0x70,0x70,0x74,0x1f,0x87,0x03,0x00,0x00,0x00,0x00,0x00,0x00,0x00,0x00,0x00,0x00,0x00,0x00,0xc9,0xf1,0xfe,0xff,0x1e,0x36,0x01,0x00,0x00,0x00,0x00,0x00,0x00,0x80,0xe4,0x78,0x7f,0x7f,0x8e,0x9b,0x00,0x00,0x00,0x00,0x00,0x00,0x00,0x00,0x00,0x00,0x00,0xc0,0xe2,0xf1,0xfe,0xff,0x9f,0xbf,0x06,0x00,0x00,0x00,0x00,0x00,0x00,0xe0,0xfd,0xfc,0xff,0xff,0x8f,0x5b,0x01,0x00,0x00,0x00,0x00,0x00,0x00,0x00,0x00,0x00,0x00,0x40,0xdd,0xff,0xff,0xff,0xff,0x3f,0x01,0x00,0x00,0x00,0x00,0x00,0x00,0xd0,0xfe,0xff,0xff,0xff,0xef,0xbf,0x02,0x00,0x00,0x00,0x00,0x00,0x00,0x00,0x00,0x00,0x00,0x40,0xa7,0xff,0xfd,0x7f,0xfb,0xd9,0x07,0x00,0x00,0x00,0x00,0x00,0x00,0xd0,0xfb,0xff,0xfe,0xbf,0xfb,0x6f,0x02,0x00,0x00,0x00,0x00,0x00,0x00,0x00,0x00,0x00,0x00,0x00,0x76,0x9e,0x7d,0x78,0xeb,0xc8,0x00,0x00,0x00,0x00,0x00,0x00,0x00,0x00,0x9b,0xc7,0x3f,0xbc,0x79,0x66,0x00,0x00,0x00,0x00,0x00,0x00,0x00,0x00,0x00,0x00,0x00,0x00,0x7f,0xcc,0x1f,0xf8,0xe7,0xdc,0x01,0x00,0x00,0x00,0x00,0x00,0x00,0x80,0x3f,0xe6,0x0f,0xf8,0x33,0xfe,0x00,0x00,0x00,0x00,0x00,0x00,0x00,0x00,0x00,0x00,0x00,0x00,0x0a,0x9e,0x1f,0xe0,0xf3,0x80,0x00,0x00,0x00,0x00,0x00,0x00,0x00,0x00,0x24,0xcf,0x07,0xf8,0x71,0x50,0x00,0x00,0x00,0x00,0x00,0x00,0x00,0x00,0x00,0x00,0x00,0x00,0x34,0xc2,0x1f,0xf0,0x07,0x50,0x00,0x00,0x00,0x00,0x00,0x00,0x00,0x00,0x14,0xc0,0x0f,0xf0,0x01,0x38,0x00,0x00,0x00,0x00,0x00,0x00,0x00,0x00,0x00,0x00,0x00,0x00,0x18,0x00,0x0f,0xe0,0x07,0xf0,0x01,0x00,0x00,0x00,0x00,0x00,0x00,0x80,0x0f,0x80,0x0f,0xf0,0x01,0xd6,0x00,0x00,0x00,0x00,0x00,0x00,0x00,0x00,0x00,0x00,0x00,0x00,0x3e,0x80,0x1f,0xf0,0x07,0xe0,0x00,0x00,0x00,0x00,0x00,0x00,0x00,0x00,0x11,0xe0,0x0f,0xf8,0x01,0x14,0x00,0x00,0x00,0x00,0x00,0x00,0x00,0x00,0x00,0x00,0x00,0x00,0x20,0xc0,0x1f,0xf0,0x07,0x00,0x00,0x00,0x00,0x00,0x00,0x00,0x00,0x00,0x00,0xe0,0x0f,0xf8,0x03,0x00,0x00,0x00,0x00,0x00,0x00,0x00,0x00,0x00,0x00,0x00,0x00,0x00,0x00,0x90,0xfd,0x7c,0x03,0x00,0x00,0x00,0x00,0x00,0x00,0x00,0x00,0x00,0x00,0xe8,0x3f,0xbe,0x09,0x00,0x00,0x00,0x00,0x00,0x00,0x00,0x00,0x00,0x00,0x00,0x00,0x00,0x00,0xf8,0xff,0xff,0x3f,0x00,0x00,0x00,0x00,0x00,0x00,0x00,0x00,0x00,0x00,0xfc,0xfe,0xbf,0x1f,0x00,0x00,0x00,0x00,0x00,0x00,0x00,0x00,0x00,0x00,0x00,0x00,0x00,0x00,0xf8,0xff,0xff,0x3f,0x00,0x00,0x00,0xc0,0x0c,0x30,0x01,0x00,0x00,0x00,0xfc,0xff,0xff,0x1f,0x00,0x00,0x00,0x00,0x00,0x00,0x00,0x00,0x00,0x00,0x00,0x00,0x00,0x00,0xf0,0xff,0xff,0x1f,0x00,0x00,0x00,0xc0,0x0f,0xf0,0x03,0x00,0x00,0x00,0xf8,0xff,0xff,0x0f,0x00,0x00,0x00,0x00,0x00,0x00,0x00,0x00,0x00,0x00,0x00,0x00,0x00,0x00,0xe0,0xff,0xfe,0x0e,0x00,0x00,0x00,0xc0,0x1f,0xf8,0x07,0x00,0x00,0x00,0xb8,0x7f,0xff,0x0e,0x00,0x00,0x00,0x00,0x00,0x00,0x00,0x00,0x00,0x00,0x00,0x00,0x00,0x00,0xe0,0xf8,0x1e,0x1e,0x00,0x00,0x00,0xc0,0xcf,0xf3,0x03,0x00,0x00,0x00,0x78,0x7c,0x07,0x07,0x00,0x00,0x00,0x00,0x00,0x00,0x00,0x00,0x00,0x00,0x00,0x00,0x00,0x00,0x00,0xe0,0x0f,0x00,0x00,0x00,0x00,0xc0,0xcf,0xf3,0x03,0x00,0x00,0x00,0x00,0xf0,0x0f,0x00,0x00,0x00,0x00,0x00,0x00,0x00,0x00,0x00,0x00,0x00,0x00,0x00,0x00,0x00,0x00,0xa0,0x0f,0x00,0x00,0x00,0x00,0xe0,0xdf,0xfb,0x07,0x00,0x00,0x00,0x00,0xd0,0x05,0x00,0x00,0x00,0x00,0x00,0x00,0x00,0x00,0x00,0x00,0x00,0x00,0x00,0x00,0x00,0x00,0xc8,0x77,0x00,0x00,0x00,0x00,0xd8,0xff,0xf7,0x13,0x00,0x00,0x00,0x00,0xf6,0x11,0x00,0x00,0x00,0x00,0x00,0x00,0x00,0x00,0x00,0x00,0x00,0x00,0x00,0x00,0x00,0x00,0xfc,0x7f,0x00,0x00,0x00,0x00,0xf8,0xff,0xff,0x1f,0x00,0x00,0x00,0x00,0xfe,0x3f,0x00,0x00,0x00,0x00,0x00,0x00,0x00,0x00,0x00,0x00,0x00,0x00,0x00,0x00,0x36,0x80,0xfe,0xff,0x02,0x88,0x00,0x00,0xfc,0xff,0xff,0x3f,0x00,0x00,0x11,0x00,0xfe,0x3f,0x01,0x66,0x00,0x00,0x00,0x00,0x00,0x00,0x00,0x00,0x00,0x00,0x00,0x00,0x7f,0x80,0xff,0xfc,0x03,0xfc,0x00,0x00,0xf0,0xff,0xff,0x1f,0x00,0x00,0x3f,0xc0,0x3f,0xff,0x01,0x7e,0x00,0x00,0x00,0x00,0x00,0x00,0x00,0x00,0x00,0x00,0x00,0x00,0x7e,0xf0,0x7f,0xfc,0x07,0xfc,0x01,0x00,0x70,0x7b,0xfc,0x0e,0x00,0x80,0x3f,0xc0,0x3f,0xfe,0x03,0xfe,0x00,0x00,0x00,0x00,0x00,0x00,0x00,0x00,0x00,0x00,0x00,0x00,0x7f,0x4a,0x7f,0xfc,0xa9,0x78,0x00,0x00,0x70,0x38,0x1e,0x0e,0x00,0x00,0x1e,0x94,0x3f,0xfe,0x73,0x7c,0x00,0x00,0x00,0x00,0x00,0x00,0x00,0x00,0x00,0x00,0x00,0x00,0x7f,0xfe,0xff,0xfe,0xff,0xf4,0x01,0x00,0x40,0xfe,0x7f,0x00,0x00,0x80,0x2f,0xff,0x7f,0xff,0x7f,0xfe,0x00,0x00,0x00,0x00,0x00,0x00,0x00,0x00,0x00,0x00,0x00,0x00,0xff,0xfe,0xff,0xff,0xff,0xfc,0x01,0x00,0x00,0xfe,0x7f,0x00,0x00,0x80,0x3f,0xff,0xff,0xff,0x7b,0xff,0x00,0x00,0x00,0x00,0x00,0x00,0x00,0x00,0x00,0x00,0x00,0xe0,0x7f,0xff,0xff,0x6f,0xff,0xfd,0x05,0x00,0x00,0xfe,0x7f,0x00,0x00,0x20,0xbf,0xff,0xfe,0xbf,0xff,0xfe,0x03,0x00,0x00,0x00,0x00,0x00,0x00,0x00,0x00,0x00,0x00,0xe0,0xff,0xff,0xff,0x7f,0xff,0xdf,0x0f,0x00,0x00,0xec,0x37,0x00,0x00,0xf0,0xfb,0xff,0xfe,0xbf,0xff,0xef,0x07,0x00,0x00,0x00,0x00,0x00,0x00,0x00,0x00,0x00,0x00,0xe0,0xff,0xff,0xff,0xff,0xff,0xff,0x0f,0x00,0x00,0xe0,0x07,0x00,0x00,0xf0,0xff,0xff,0xff,0xff,0xff,0xff,0x07,0x00,0x00,0x00,0x00,0x00,0x00,0x00,0x00,0x00,0x00,0xe0,0xff,0xff,0xff,0xff,0xbf,0xff,0x0f,0x00,0x70,0xf8,0x1f,0x0a,0x00,0xe0,0xff,0xfd,0xff,0xff,0xdf,0xdf,0x07,0x00,0x00,0x00,0x00,0x00,0x00,0x00,0x00,0x00,0x00,0x80,0xfb,0xf1,0xff,0xf2,0x1f,0xbf,0x03,0x00,0xf0,0xfc,0x3f,0x0f,0x00,0xc0,0xfc,0xf8,0x1f,0xff,0x8f,0x9f,0x01,0x00,0x00,0x00,0x00,0x00,0x00,0x00,0x00,0x00,0x00,0x80,0xe3,0xf1,0x7e,0xbc,0x1f,0x8f,0x03,0x00,0xf0,0xff,0xff,0x0f,0x00,0xc0,0xf1,0xf8,0x1f,0x6e,0x8f,0xc7,0x03,0x00,0x00,0x00,0x00,0x00,0x00,0x00,0x00,0x00,0x00,0x80,0xf2,0xff,0x1b,0xa0,0xbf,0x9f,0x00,0x00,0xfc,0xff,0xff,0x3f,0x00,0x40,0xf8,0xfd,0x05,0xd4,0xdf,0x4f,0x01,0x00,0x00,0x00,0x00,0x00,0x00,0x00,0x00,0x00,0x00,0x00,0xf0,0xff,0x03,0x80,0xff,0x3f,0x00,0x00,0xfc,0xff,0xff,0x3f,0x00,0x00,0xf8,0xff,0x01,0xc0,0xff,0x1f,0x00,0x00,0x00,0x00,0x00,0x00,0x00,0x00,0x00,0x08,0x06,0x00,0xf0,0xff,0x03,0x80,0xff,0x1f,0x00,0x40,0xfc,0xff,0xff,0x3f,0x02,0x00,0xf8,0xff,0x01,0xc0,0xff,0x0f,0x00,0x20,0x10,0x00,0x00,0x00,0x00,0x00,0x00,0x88,0x02,0x00,0xf0,0xff,0x01,0x00,0xff,0x1f,0x00,0x40,0xfe,0x7f,0xfe,0x7f,0x04,0x00,0xf8,0xdf,0x00,0x80,0xff,0x0f,0x00,0x60,0x13,0x00,0x00,0x00,0x00,0x00,0x00,0xdc,0x0e,0x00,0xe0,0xef,0x00,0x00,0xfe,0x0e,0x00,0xf2,0xe6,0x3f,0xfc,0x6f,0x6f,0x00,0xf0,0x7f,0x00,0x00,0xf7,0x07,0x00,0x30,0x2b,0x00,0x00,0x00,0x00,0x00,0x00,0xe8,0x17,0x00,0xe0,0xff,0x01,0x00,0xff,0x0f,0x00,0xff,0xff,0x0f,0xf0,0xff,0xff,0x00,0xf0,0x7f,0x00,0x00,0xff,0x0b,0x00,0x7c,0x4f,0x00,0x00,0x00,0x00,0x00,0x00,0x38,0x0b,0x00,0xe0,0xff,0x00,0x00,0xbf,0x1f,0x80,0x7f,0xfb,0x1f,0xf0,0xff,0xff,0x00,0xf8,0xfd,0x00,0x80,0xff,0x0f,0x00,0x20,0x34,0x00,0x00,0x00,0x00,0x00,0x00,0xa0,0x13,0x00,0xf0,0xff,0x01,0x00,0xbf,0x1b,0x00,0x9e,0xfb,0x1f,0xf8,0xff,0x78,0x00,0xf8,0xfd,0x00,0x80,0xdf,0x0f,0x00,0xc0,0x0d,0x00,0x00,0x00,0x00,0x00,0x00,0xf8,0x07,0x48,0xe0,0xff,0x03,0x00,0xfd,0x1f,0x66,0xff,0xdf,0x0f,0xf0,0xff,0xff,0x26,0xf8,0xff,0x00,0x80,0xff,0x0f,0x01,0xe0,0x0f,0x00,0x00,0x00,0x00,0x00,0x00,0xc0,0x00,0xfc,0xe0,0xff,0x01,0x00,0xfe,0x0f,0xfe,0x7f,0xef,0x3f,0xfc,0xf7,0xff,0x7f,0xf0,0x7f,0x00,0x00,0xff,0x07,0x3f,0x00,0x01,0x00,0x00,0x00,0x00,0x00,0x00,0xe6,0x11,0xfe,0xe0,0xff,0x01,0x00,0xff,0x1f,0xfe,0xf7,0xdf,0x7f,0xfe,0xff,0xef,0x7f,0xf0,0xff,0x00,0x80,0xff,0x0f,0x7f,0x08,0x47,0x00,0x00,0x00,0x00,0x00,0x00,0xfe,0x1f,0x7a,0xf0,0xff,0x01,0x00,0xff,0x1f,0xfc,0xff,0xff,0xff,0xff,0xff,0xff,0x7f,0xf8,0xff,0x01,0x80,0xff,0x0f,0x1e,0xf8,0x7f,0x00,0x00,0x00,0x00,0x00,0x00,0xff,0x3f,0xbc,0xf0,0xff,0x03,0xa0,0xff,0x3f,0xfe,0xff,0xff,0xff,0xff,0xff,0xff,0x5f,0xf8,0xff,0x05,0xd0,0xff,0x0f,0x3f,0xfc,0xff,0x00,0x00,0x00,0x00,0x00,0x00,0x3d,0x0f,0xfe,0xe1,0xf9,0x1f,0xe0,0xbf,0x1f,0xfe,0xff,0xfd,0xff,0xff,0xdf,0xff,0xff,0xf8,0xfc,0x07,0xf8,0xef,0x87,0x7f,0x70,0x3e,0x04,0x00,0x00,0x00,0x00,0x10,0x1c,0x8e,0xee,0xe5,0xf1,0x2f,0xf0,0x1f,0x8f,0xef,0xef,0xf1,0xff,0xff,0x8f,0xf7,0xff,0xf3,0xf8,0x0f,0xfc,0x8f,0xe7,0x3f,0x71,0x38,0x08,0x00,0x00,0x00,0x00,0x80,0x1d,0xee,0xff,0xdf,0xf1,0xbf,0xda,0x1f,0xef,0xef,0xef,0xf1,0xff,0x7f,0x8f,0xf7,0xf7,0xff,0xf8,0xff,0xf5,0x8f,0xff,0xff,0x77,0xb8,0x11,0x00,0x00,0x00,0x00,0xb8,0x3d,0xef,0xff,0xff,0xf1,0xff,0xff,0x9f,0xff,0xff,0xff,0xff,0xfb,0xdf,0xdf,0xff,0xff,0xff,0xf9,0xff,0xfd,0x8f,0xdf,0xff,0x77,0xf8,0x15,0x00,0x00,0x00,0x00,0xb2,0xff,0xff,0xff,0xff,0xff,0xbf,0xff,0xff,0xff,0xff,0xff,0xff,0xf7,0xff,0xff,0xff,0xff,0xff,0xff,0xff,0xff,0xff,0xff,0xff,0xff,0xff,0x19,0x00,0x00,0x00,0x00,0x54,0xfe,0xff,0xff,0xf7,0xff,0xfd,0x7f,0xff,0xdf,0xff,0xff,0xff,0xfd,0xaf,0xff,0xff,0xff,0xfb,0xff,0xfe,0xbf,0xff,0xef,0xff,0xfd,0x6f,0x16,0x00,0x00,0x00,0x00,0xe0,0xe2,0xdb,0xc7,0x7f,0xff,0xfd,0xff,0xff,0xfd,0xc7,0xb7,0xdf,0xfe,0xbf,0xfb,0xed,0xd3,0xbf,0xff,0xff,0xbf,0xff,0xee,0xe2,0xdb,0x67,0x07,0x00,0x00,0x00,0x00,0xe0,0xc7,0xf8,0x03,0x7f,0xfe,0xff,0xff,0xff,0xfc,0xc1,0xff,0xdf,0xff,0xff,0xff,0xff,0x81,0x3f,0xff,0xff,0xff,0x3f,0xfe,0xe1,0x3f,0xf3,0x07,0x00,0x00,0x00,0x00,0x20,0xe1,0xf9,0x01,0x7e,0xfe,0xff,0xfe,0xff,0xfc,0x01,0xbf,0x3f,0xeb,0x87,0xfe,0xff,0x80,0x3f,0xff,0x7f,0xff,0x7f,0x7e,0x80,0x9f,0xa7,0x00,0x00,0x00,0x00,0x00,0x40,0x02,0xfc,0x01,0x7e,0xe0,0x7f,0xfc,0x87,0xfc,0x81,0xff,0x9f,0x07,0xe0,0xdc,0xff,0x80,0x3f,0xbd,0x3f,0xfe,0x36,0x7c,0x80,0x3f,0x80,0x01,0x00,0x00,0x00,0x00,0x20,0x01,0xf8,0x00,0x3f,0x60,0x7b,0xfc,0x1b,0x7c,0x01,0xff,0xff,0x03,0xc0,0xff,0xff,0x80,0x3e,0xf8,0x3f,0x7e,0x06,0x7e,0x00,0x0f,0x80,0x01,0x00,0x00,0x00,0x00,0x80,0x05,0xf8,0x01,0x7f,0x80,0xff,0xfe,0x03,0xfc,0x01,0xfd,0xff,0x03,0xe0,0xff,0xff,0x80,0x3f,0xc0,0x7f,0xff,0x01,0xfe,0x80,0x1f,0x80,0x03,0x00,0x00,0x00,0x00,0x00,0x02,0xfc,0x03,0x7f,0x00,0xfe,0xff,0x00,0xfc,0x81,0xff,0xff,0x00,0x80,0xff,0xff,0x81,0x3f,0x00,0xff,0x7f,0x00,0xfe,0xc0,0x3f,0x40,0x00,0x00,0x00,0x00,0x00,0x00,0x00,0xf9,0x45,0x77,0x03,0xfc,0x7f,0x80,0xfd,0xe5,0xff,0x67,0x00,0x00,0xee,0xff,0xf7,0xbb,0x00,0xfe,0x3f,0xc0,0xee,0xf0,0xdf,0x00,0x00,0x00,0x00,0x00,0x00,0x00,0x00,0xff,0xff,0xf7,0x03,0xcc,0x67,0x80,0xdf,0xff,0xf7,0x73,0x00,0x00,0xce,0xff,0xff,0xfb,0x01,0xf6,0x3b,0xc0,0xef,0xff,0xff,0x01,0x00,0x00,0x00,0x00,0x00,0x00,0x80,0xff,0xff,0xff,0x07,0xe0,0x0f,0xc0,0xff,0xff,0xff,0x03,0x00,0x00,0xc0,0xff,0xff,0xff,0x01,0xf0,0x07,0xe0,0xff,0xff,0xff,0x01,0x00,0x00,0x00,0x00,0x00,0x00,0x00,0xef,0xff,0xff,0x01,0xe0,0x0f,0x80,0xff,0xff,0xff,0x01,0x00,0x00,0xc0,0xff,0xff,0xff,0x00,0xf0,0x07,0x80,0xdf,0xff,0xfe,0x00,0x00,0x00,0x00,0x00,0x00,0x00,0x00,0x6e,0xef,0xd9,0x01,0xcc,0x2f,0x00,0xff,0xef,0xff,0x01,0x00,0x00,0x80,0xff,0xf7,0xff,0x00,0x76,0x13,0x80,0xbf,0xfb,0x76,0x00,0x00,0x00,0x00,0x00,0x00,0x00,0x00,0x1e,0xef,0xc3,0x01,0xfc,0x7e,0x00,0xff,0xef,0xff,0x01,0x00,0x00,0x00,0xff,0xff,0xfe,0x00,0x7e,0x3f,0x80,0xc3,0xf6,0x79,0x00,0x00,0x00,0x00,0x00,0x00,0x00,0x00,0x02,0xfe,0x41,0x00,0xf8,0xff,0x00,0xf4,0xff,0x3d,0x00,0x00,0x00,0x00,0xbd,0x7f,0x7f,0x00,0xfe,0x3f,0x00,0x80,0x7f,0x10,0x00,0x00,0x00,0x00,0x00,0x00,0x00,0x00,0x00,0x30,0x00,0x00,0xf8,0x3f,0x00,0xfc,0x3f,0x7f,0x00,0x00,0x00,0x00,0xfe,0xfd,0x3f,0x00,0xfe,0x1f,0x00,0x00,0x2d,0x00,0x00,0x00,0x00,0x00,0x00,0x00,0x00,0x00,0x80,0x78,0x06,0x00,0xb8,0x3b,0x00,0xdd,0x7e,0xb7,0x01,0x00,0x00,0x00,0xef,0x3e,0x3b,0x01,0xdc,0x1d,0x00,0x60,0x1e,0x01,0x00,0x00,0x00,0x00,0x00,0x00,0x00,0x00,0xc0,0xff,0x07,0x00,0x70,0x1c,0x80,0xff,0xff,0xff,0x03,0x00,0x00,0x80,0xee,0xff,0xfb,0x01,0x3c,0x1e,0x00,0xe0,0xff,0x01,0x00,0x00,0x00,0x00,0x00,0x00,0x00,0x00,0xc0,0xff,0x07,0x00,0x00,0x00,0x80,0xff,0xff,0xff,0x03,0x00,0x00,0xc0,0xff,0xff,0xff,0x01,0x20,0x00,0x00,0xf0,0xff,0x03,0x00,0x00,0x00,0x00,0x00,0x00,0x00,0x00,0x80,0xef,0x03,0x00,0x00,0x00,0x00,0xff,0xef,0xef,0x01,0x00,0x00,0x80,0xf7,0xf7,0xff,0x00,0x00,0x00,0x00,0xc0,0xf3,0x00,0x00,0x00,0x00,0x00,0x00,0x00,0x00,0x00,0x04,0x83,0x03,0x00,0x00,0x00,0x00,0xf7,0xc7,0xcf,0x00,0x00,0x00,0x80,0xf7,0xe3,0xed,0x00,0x00,0x00,0x00,0x80,0xc1,0x50,0x00,0x00,0x00,0x00,0x00,0x00,0x00,0x00,0x04,0x87,0x1b,0x00,0x00,0x00,0x00,0xb7,0xc7,0xeb,0x00,0x00,0x00,0x00,0xf6,0xe3,0xf5,0x00,0x00,0x00,0x00,0xd9,0xc1,0x06,0x00,0x00,0x00,0x00,0x00,0x00,0x00,0x00,0x6e,0xcf,0xdb,0x01,0x00,0x00,0x00,0xff,0xef,0xff,0x01,0x00,0x00,0x80,0xf7,0xf7,0xef,0x00,0x00,0x00,0x80,0xdb,0xf3,0x77,0x00,0x00,0x00,0x00,0x00,0x00,0x00,0x80,0xff,0xff,0x5f,0x00,0x00,0x00,0x00,0xfe,0xff,0xdf,0x01,0x00,0x00,0x80,0xfe,0xff,0x7f,0x01,0x00,0x00,0xc0,0xfd,0xff,0x3f,0x01,0x00,0x00,0x00,0x00,0x00,0x00,0x00,0xc0,0xff,0x65,0x00,0x00,0x00,0x80,0xdb,0xff,0x77,0x01,0x00,0x00,0x00,0xee,0xff,0x7b,0x01,0x00,0x00,0xc0,0x65,0x7f,0x29,0x00,0x00,0x00,0x00,0x00,0x00,0x00,0x00,0x98,0x79,0x34,0x00,0x00,0x00,0x00,0xdc,0x7e,0x37,0x00,0x00,0x00,0x00,0xcc,0x7e,0x3b,0x00,0x00,0x00,0x40,0x6e,0xbe,0x1b,0x00,0x00,0x00,0x00,0x00,0x00,0x00,0x00,0xfc,0x39,0x76,0x00,0x00,0x00,0x00,0xfc,0xff,0x7f,0x00,0x00,0x00,0x00,0xfe,0x7f,0x3f,0x00,0x00,0x00,0x00,0x7e,0x8e,0x1f,0x00,0x00,0x00,0x00,0x00,0x00,0x00,0x00,0x60,0x79,0x58,0x00,0x00,0x00,0x00,0x7e,0xfe,0xad,0x00,0x00,0x00,0x00,0x07,0xff,0xfc,0x00,0x00,0x00,0x00,0x02,0x9e,0x02,0x00,0x00,0x00,0x00,0x00,0x00,0x00,0x00,0x78,0x00,0x1c,0x00,0x00,0x00,0x00,0xff,0xff,0xff,0x01,0x00,0x00,0x80,0xef,0xff,0xff,0x00,0x00,0x00,0x00,0x38,0x14,0x0b,0x00,0x00,0x00,0x00,0x00,0x00,0x00,0x00,0x60,0x00,0x3c,0x00,0x00,0x00,0x00,0xff,0xef,0xff,0x01,0x00,0x00,0x80,0xff,0xff,0xff,0x00,0x00,0x00,0x00,0x3c,0x00,0x0c,0x00,0x00,0x00,0x00,0x00,0x00,0x00,0x00,0xd0,0x00,0x5a,0x00,0x00,0x00,0x80,0xff,0xff,0xff,0x03,0x00,0x00,0xc0,0xff,0xff,0xff,0x01,0x00,0x00,0x00,0x58,0x80,0x1e,0x00,0x00,0x00,0x00,0x00,0x00,0x00,0x00,0x00,0x00,0x22,0x00,0x00,0x00,0xc0,0xff,0xff,0xff,0x07,0x00,0x00,0xc0,0xff,0xff,0xff,0x03,0x00,0x00,0x00,0x00,0x00,0x00,0x00,0x00,0x00,0x00,0x00,0x00,0x00,0x00,0x00,0x00,0x00,0x00,0x00,0x00,0x80,0xff,0xff,0xff,0x63,0x00,0x00,0xce,0xff,0xff,0xff,0x01,0x00,0x00,0x00,0x00,0x00,0x00,0x00,0x00,0x00,0x00,0x00,0x00,0x00,0x00,0x00,0x00,0x00,0x00,0x00,0x00,0x80,0xfd,0xe7,0xff,0x77,0x00,0x00,0xe4,0xff,0xf7,0xbf,0x01,0x00,0x00,0x00,0x00,0x00,0x00,0x00,0x00,0x00,0x00,0x00,0x00,0x00,0x00,0x00,0x00,0x00,0x00,0x00,0x20,0x02,0xfc,0x81,0xff,0xff,0x04,0x00,0x6f,0xff,0xc1,0x3f,0xc0,0x04,0x00,0x00,0x00,0x00,0x00,0x00,0x00,0x00,0x00,0x00,0x00,0x00,0x00,0x00,0x00,0x00,0x00,0x00,0xe0,0x07,0xfc,0x01,0x7f,0xff,0x0f,0xf0,0xff,0xff,0x80,0x3f,0xc0,0x07,0x00,0x00,0x00,0x00,0x00,0x00,0x00,0x00,0x00,0x00,0x00,0x00,0x00,0x00,0x00,0x00,0x00,0x00,0xf0,0x07,0xfc,0x01,0x7f,0xfb,0x0f,0xf0,0xfd,0xff,0x80,0x3f,0xe0,0x0f,0x00,0x00,0x00,0x00,0x00,0x00,0x00,0x00,0x00,0x00,0x00,0x00,0x00,0x00,0x00,0x00,0x00,0x00,0xe0,0xa3,0xfc,0x01,0xff,0x9b,0x07,0xf0,0xf9,0xff,0x81,0x3f,0x87,0x07,0x00,0x00,0x00,0x00,0x00,0x00,0x00,0x00,0x00,0x00,0x00,0x00,0x00,0x00,0x00,0x00,0x00,0x00,0xf0,0xf7,0xfc,0x01,0xff,0x7f,0x6f,0xf6,0xff,0xff,0x80,0x3f,0xef,0x0f,0x00,0x00,0x00,0x00,0x00,0x00,0x00,0x00,0x00,0x00,0x00,0x00,0x00,0x00,0x00,0x00,0x00,0x00,0xf0,0xe7,0xfe,0xc3,0xff,0xef,0xff,0xff,0x7b,0xff,0xc3,0x3f,0xef,0x0f,0x00,0x00,0x00,0x00,0x00,0x00,0x00,0x00,0x00,0x00,0x00,0x00,0x00,0x00,0x00,0x00,0x00,0x00,0xf6,0xfb,0xff,0xe7,0xbf,0xff,0xfd,0xbf,0xfb,0xed,0xf3,0xff,0xff,0x2f,0x00,0x00,0x00,0x00,0x00,0x00,0x00,0x00,0x00,0x00,0x00,0x00,0x00,0x00,0x00,0x00,0x00,0x00,0x7e,0xff,0xdf,0xff,0xff,0xff,0xff,0xbf,0xff,0xff,0xff,0xff,0xff,0x7f,0x00,0x00,0x00,0x00,0x00,0x00,0x00,0x00,0x00,0x00,0x00,0x00,0x00,0x00,0x00,0x00,0x00,0x00,0xfe,0xff,0xff,0xff,0xff,0xff,0xff,0xff,0xff,0xff,0xff,0xff,0xff,0x7f,0x00,0x00,0x00,0x00,0x00,0x00,0x00,0x00,0x00,0x00,0x00,0x00,0x00,0x00,0x00,0x00,0x00,0x00,0xfc,0xbf,0xff,0xff,0xff,0xfb,0xfb,0xdf,0xdf,0xff,0xff,0xff,0xfd,0x3f,0x00,0x00,0x00,0x00,0x00,0x00,0x00,0x00,0x00,0x00,0x00,0x00,0x00,0x00,0x00,0x00,0x00,0x00,0xdc,0x1f,0xff,0xff,0xef,0xf1,0xff,0xff,0x8f,0xf7,0xff,0xff,0xf8,0x3f,0x00,0x00,0x00,0x00,0x00,0x00,0x00,0x00,0x00,0x00,0x00,0x00,0x00,0x00,0x00,0x00,0x00,0x00,0x3c,0x1e,0xcf,0xff,0xef,0xf1,0xff,0xff,0x8f,0xf7,0xf7,0xf3,0x78,0x1c,0x00,0x00,0x00,0x00,0x00,0x00,0x00,0x00,0x00,0x00,0x00,0x00,0x00,0x00,0x00,0x00,0x00,0x00,0x00,0xbf,0x1f,0xff,0xef,0xfd,0xff,0xff,0xff,0xff,0x7f,0xf8,0xfd,0x30,0x00,0x00,0x00,0x00,0x00,0x00,0x00,0x00,0x00,0x00,0x00,0x00,0x00,0x00,0x00,0x00,0x00,0x00,0x80,0xff,0x3f,0xfe,0xff,0xff,0xff,0xff,0xff,0xff,0x7f,0xfc,0xff,0x01,0x00,0x00,0x00,0x00,0x00,0x00,0x00,0x00,0x00,0x00,0x00,0x00,0x00,0x00,0x00,0x00,0x00,0x00,0x80,0xff,0x1f,0xfe,0xf7,0xff,0xfd,0xff,0xff,0xef,0x7f,0xf8,0xff,0x01,0x00,0x00,0x00,0x00,0x00,0x00,0x00,0x00,0x00,0x00,0x00,0x00,0x00,0x00,0x00,0x00,0x00,0x00,0x00,0xfb,0x19,0xfe,0xb7,0xdf,0x7f,0xbe,0xff,0xed,0x7f,0xf8,0xdf,0x00,0x00,0x00,0x00,0x00,0x00,0x00,0x00,0x00,0x00,0x00,0x00,0x00,0x00,0x00,0x00,0x00,0x00,0x00,0x00,0xf8,0x03,0xfe,0x7f,0xff,0x3f,0xfc,0xff,0xff,0x7e,0x40,0x1f,0x00,0x00,0x00,0x00,0x00,0x00,0x00,0x00,0x00,0x00,0x00,0x00,0x00,0x00,0x00,0x00,0x00,0x00,0x00,0x00,0xf8,0x03,0x6e,0xed,0xff,0x1f,0xf0,0xff,0xff,0x36,0xc0,0x1f,0x00,0x00,0x00,0x00,0x00,0x00,0x00,0x00,0x00,0x00,0x00,0x00,0x00,0x00,0x00,0x00,0x00,0x00,0x00,0x00,0xfb,0x09,0x00,0x9c,0xdf,0x1f,0xf8,0xff,0x79,0x00,0xd0,0xdd,0x00,0x00,0x00,0x00,0x00,0x00,0x00,0x00,0x00,0x00,0x00,0x00,0x00,0x00,0x00,0x00,0x00,0x00,0x00,0x00,0xbf,0x1f,0x00,0xfb,0xff,0x0f,0xf0,0xff,0xff,0x00,0xf8,0xfd,0x00,0x00,0x00,0x00,0x00,0x00,0x00,0x00,0x00,0x00,0x00,0x00,0x00,0x00,0x00,0x00,0x00,0x00,0x00,0x80,0xff,0x1f,0x00,0xff,0xff,0x1f,0xf0,0xff,0x7f,0x00,0xf8,0xff,0x01,0x00,0x00,0x00,0x00,0x00,0x00,0x00,0x00,0x00,0x00,0x00,0x00,0x00,0x00,0x00,0x00,0x00,0x00,0x00,0xfe,0x0f,0x00,0xe0,0xff,0x1f,0xfc,0xff,0x0f,0x00,0xf0,0x7f,0x00,0x00,0x00,0x00,0x00,0x00,0x00,0x00,0x00,0x00,0x00,0x00,0x00,0x00,0x00,0x00,0x00,0x00,0x00,0x00,0xee,0x07,0x00,0xe0,0xfe,0x7f,0xfe,0x7f,0x06,0x00,0xf0,0x7f,0x00,0x00,0x00,0x00,0x00,0x00,0x00,0x00,0x00,0x00,0x00,0x00,0x00,0x00,0x00,0x00,0x00,0x00,0x00,0x00,0x1e,0x0f,0x00,0xe0,0xf8,0xff,0xff,0x1f,0x07,0x00,0xe0,0x38,0x00,0x00,0x00,0x00,0x00,0x00,0x00,0x00,0x00,0x00,0x00,0x00,0x00,0x00,0x00,0x00,0x00,0x00,0x00,0x00,0x08,0x00,0x00,0x80,0xfc,0xff,0xff,0x3f,0x00,0x00,0x00,0x00,0x00,0x00,0x00,0x00,0x00,0x00,0x00,0x00,0x00,0x00,0x00,0x00,0x00,0x00,0x00,0x00,0x00,0x00,0x00,0x00,0x00,0x00,0x00,0x00,0xf8,0xff,0xff,0x1f,0x00,0x00,0x00,0x00,0x00,0x00,0x00,0x00,0x00,0x00,0x00,0x00,0x00,0x00,0x00,0x00,0x00,0x00,0x00,0x00,0x00,0x00,0x00,0x00,0x00,0x00,0x00,0x00,0x70,0xff,0xff,0x0e,0x00,0x00,0x00,0x00,0x00,0x00,0x00,0x00,0x00,0x00,0x00,0x00,0x00,0x00,0x00,0x00,0x00,0x00,0x00,0x00,0x00,0x00,0x00,0x00,0x00,0x00,0x00,0x00,0xf0,0xfc,0x1f,0x0f,0x00,0x00,0x00,0x00,0x00,0x00,0x00,0x00,0x00,0x00,0x00,0x00,0x00,0x00,0x00,0x00,0x00,0x00,0x00,0x00,0x00,0x00,0x00,0x00,0x00,0x00,0x00,0x00,0x10,0xf0,0x1f,0x08,0x00,0x00,0x00,0x00,0x00,0x00,0x00,0x00,0x00,0x00,0x00,0x00,0x00,0x00,0x00,0x00,0x00,0x00,0x00,0x00,0x00,0x00,0x00,0x00,0x00,0x00,0x00,0x00,0x00,0xe0,0x07,0x00,0x00,0x00,0x00,0x00,0x00,0x00,0x00,0x00,0x00,0x00,0x00,0x00,0x00,0x00,0x00,0x00,0x00,0x00,0x00,0x00,0x00,0x00,0x00,0x00,0x00,0x00,0x00,0x00,0x00,0xec,0x37,0x00,0x00,0x00,0x00,0x00,0x00,0x00,0x00,0x00,0x00,0x00,0x00,0x00,0x00,0x00,0x00,0x00,0x00,0x00,0x00,0x00,0x00,0x00,0x00,0x00,0x00,0x00,0x00,0x00,0x00,0xfe,0x3f,0x00,0x00,0x00,0x00,0x00,0x00,0x00,0x00,0x00,0x00,0x00,0x00,0x00,0x00,0x00,0x00,0x00,0x00,0x00,0x00,0x00,0x00,0x00,0x00,0x00,0x00,0x00,0x00,0x12,0x80,0xfe,0x7f,0x01,0x4c,0x00,0x00,0x00,0x00,0x00,0x00,0x00,0x00,0x00,0x00,0x00,0x00,0x00,0x00,0x00,0x00,0x00,0x00,0x00,0x00,0x00,0x00,0x00,0x00,0x00,0x00,0x3f,0xc0,0xff,0xff,0x03,0xfc,0x00,0x00,0x00,0x00,0x00,0x00,0x00,0x00,0x00,0x00,0x00,0x00,0x00,0x00,0x00,0x00,0x00,0x00,0x00,0x00,0x00,0x00,0x00,0x00,0x00,0x00,0x7f,0xf0,0x3f,0xfc,0x07,0xfe,0x00,0x00,0x00,0x00,0x00,0x00,0x00,0x00,0x00,0x00,0x00,0x00,0x00,0x00,0x00,0x00,0x00,0x00,0x00,0x00,0x00,0x00,0x00,0x00,0x00,0x00,0x1f,0xfe,0x7f,0xfe,0x7f,0x7c,0x00,0x00,0x00,0x00,0x00,0x00,0x00,0x00,0x00,0x00,0x00,0x00,0x00,0x00,0x00,0x00,0x00,0x00,0x00,0x00,0x00,0x00,0x00,0x00,0x00,0x00,0x7f,0xff,0xfb,0xff,0xff,0xfe,0x00,0x00,0x00,0x00,0x00,0x00,0x00,0x00,0x00,0x00,0x00,0x00,0x00,0x00,0x00,0x00,0x00,0x00,0x00,0x00,0x00,0x00,0x00,0x00,0x00,0x80,0x7f,0xff,0xff,0xff,0xff,0xfe,0x01,0x00,0x00,0x00,0x00,0x00,0x00,0x00,0x00,0x00,0x00,0x00,0x00,0x00,0x00,0x00,0x00,0x00,0x00,0x00,0x00,0x00,0x00,0x00,0x00,0x60,0xf7,0xff,0xff,0xbf,0xff,0xef,0x06,0x00,0x00,0x00,0x00,0x00,0x00,0x00,0x00,0x00,0x00,0x00,0x00,0x00,0x00,0x00,0x00,0x00,0x00,0x00,0x00,0x00,0x00,0x00,0x00,0xe0,0xff,0xff,0xff,0xff,0xff,0xef,0x07,0x00,0x00,0x00,0x00,0x00,0x00,0x00,0x00,0x00,0x00,0x00,0x00,0x00,0x00,0x00,0x00,0x00,0x00,0x00,0x00,0x00,0x00,0x00,0x00,0xf0,0xff,0xff,0xff,0xff,0xff,0xff,0x0f,0x00,0x00,0x00,0x00,0x00,0x00,0x00,0x00,0x00,0x00,0x00,0x00,0x00,0x00,0x00,0x00,0x00,0x00,0x00,0x00,0x00,0x00,0x00,0x00,0xc0,0xff,0xfb,0xff,0xff,0xdf,0xff,0x03,0x00,0x00,0x00,0x00,0x00,0x00,0x00,0x00,0x00,0x00,0x00,0x00,0x00,0x00,0x00,0x00,0x00,0x00,0x00,0x00,0x00,0x00,0x00,0x00,0x80,0xed,0xf1,0xbf,0xff,0x8f,0xb7,0x03,0x00,0x00,0x00,0x00,0x00,0x00,0x00,0x00,0x00,0x00,0x00,0x00,0x00,0x00,0x00,0x00,0x00,0x00,0x00,0x00,0x00,0x00,0x00,0x00,0xc0,0xe1,0xf1,0x3f,0xfc,0x8f,0x87,0x03,0x00,0x00,0x00,0x00,0x00,0x00,0x00,0x00,0x00,0x00,0x00,0x00,0x00,0x00,0x00,0x00,0x00,0x00,0x00,0x00,0x00,0x00,0x00,0x00,0x00,0xf8,0xf9,0x0f,0xf0,0x9f,0x9f,0x00,0x00,0x00,0x00,0x00,0x00,0x00,0x00,0x00,0x00,0x00,0x00,0x00,0x00,0x00,0x00,0x00,0x00,0x00,0x00,0x00,0x00,0x00,0x00,0x01,0x00,0xf8,0xff,0x05,0xa0,0xff,0x1f,0x00,0x00,0x00,0x00,0x00,0x00,0x00,0x00,0x00,0x00,0x00,0x00,0x00,0x00,0x00,0x00,0x00,0x00,0x00,0x00,0x00,0x00,0x00,0x08,0x06,0x00,0xf8,0xff,0x01,0x80,0xff,0x0f,0x00,0xe0,0x60,0x00,0x00,0x00,0x00,0x00,0x00,0x00,0x00,0x00,0x00,0x00,0x00,0x00,0x00,0x00,0x00,0x00,0x00,0x00,0x00,0xfc,0x06,0x00,0xb0,0xff,0x01,0x80,0xfb,0x0f,0x00,0x40,0x37,0x00,0x00,0x00,0x00,0x00,0x00,0x00,0x00,0x00,0x00,0x00,0x00,0x00,0x00,0x00,0x00,0x00,0x00,0x00,0x00,0xfe,0x0f,0x00,0xe0,0xff,0x00,0x00,0xff,0x07,0x00,0x70,0x7f,0x00,0x00,0x00,0x00,0x00,0x00,0x00,0x00,0x00,0x00,0x00,0x00,0x00,0x00,0x00,0x00,0x00,0x00,0x00,0x00,0xff,0x0f,0x00,0xf0,0xbf,0x00,0x00,0xff,0x0f,0x00,0xe0,0x7f,0x01,0x00,0x00,0x00,0x00,0x00,0x00,0x00,0x00,0x00,0x00,0x00,0x00,0x00,0x00,0x00,0x00,0x00,0x00,0x00,0xb6,0x0d,0x00,0xf0,0xfb,0x01,0x00,0xdf,0x0b,0x00,0xf0,0xed,0x00,0x00,0x00,0x00,0x00,0x00,0x00,0x00,0x00,0x00,0x00,0x00,0x00,0x00,0x00,0x00,0x00,0x00,0x00,0x00,0xb8,0x01,0x00,0xf0,0xff,0x01,0x80,0xff,0x0f,0x00,0x80,0x0d,0x00,0x00,0x00,0x00,0x00,0x00,0x00,0x00,0x00,0x00,0x00,0x00,0x00,0x00,0x00,0x00,0x00,0x00,0x00,0x00,0xf8,0x03,0x64,0xf8,0xff,0x01,0x80,0xff,0x1f,0x26,0xc0,0x1f,0x00,0x00,0x00,0x00,0x00,0x00,0x00,0x00,0x00,0x00,0x00,0x00,0x00,0x00,0x00,0x00,0x00,0x00,0x00,0x00,0x60,0x00,0x7e,0xe0,0xff,0x01,0x00,0xef,0x07,0x7f,0x00,0x07,0x00,0x00,0x00,0x00,0x00,0x00,0x00,0x00,0x00,0x00,0x00,0x00,0x00,0x00,0x00,0x00,0x00,0x00,0x00,0x00,0xf3,0x08,0xfe,0xf0,0xff,0x00,0x00,0xff,0x0f,0x7f,0x98,0x5f,0x00,0x00,0x00,0x00,0x00,0x00,0x00,0x00,0x00,0x00,0x00,0x00,0x00,0x00,0x00,0x00,0x00,0x00,0x00,0x00,0xff,0x1f,0x7e,0xf8,0xff,0x01,0x80,0xff,0x0f,0x3e,0xf8,0xff,0x00,0x00,0x00,0x00,0x00,0x00,0x00,0x00,0x00,0x00,0x00,0x00,0x00,0x00,0x00,0x00,0x00,0x00,0x00,0x80,0xff,0x1f,0xfa,0xf8,0xff,0x0d,0xb0,0xff,0x1f,0x7f,0xfc,0xff,0x01,0x00,0x00,0x00,0x00,0x00,0x00,0x00,0x00,0x00,0x00,0x00,0x00,0x00,0x00,0x00,0x00,0x00,0x00,0x10,0x1f,0x1f,0xff,0xf8,0xf9,0x0f,0xf0,0xbf,0x07,0x7f,0xf8,0xfc,0x00,0x00,0x00,0x00,0x00,0x00,0x00,0x00,0x00,0x00,0x00,0x00,0x00,0x00,0x00,0x00,0x00,0x00,0x00,0x10,0x1e,0xc7,0xff,0xe3,0xf0,0x1f,0xfc,0x8f,0xc7,0xf7,0xf1,0x38,0x18,0x00,0x00,0x00,0x00,0x00,0x00,0x00,0x00,0x00,0x00,0x00,0x00,0x00,0x00,0x00,0x00,0x00,0x00,0xc4,0x1e,0xff,0xef,0xef,0xf1,0xff,0xff,0x8f,0xf7,0xff,0xef,0x78,0x03,0x00,0x00,0x00,0x00,0x00,0x00,0x00,0x00,0x00,0x00,0x00,0x00,0x00,0x00,0x00,0x00,0x00,0x00,0xfc,0x9f,0xff,0xff,0xef,0xf9,0xff,0xff,0x9f,0xff,0xff,0xff,0xfc,0x3f,0x00,0x00,0x00,0x00,0x00,0x00,0x00,0x00,0x00,0x00,0x00,0x00,0x00,0x00,0x00,0x00,0x00,0x00,0xfc,0xff,0xff,0xff,0xff,0xff,0xff,0xff,0xff,0xff,0xff,0xff,0xff,0x5f,0x00,0x00,0x00,0x00,0x00,0x00,0x00,0x00,0x00,0x00,0x00,0x00,0x00,0x00,0x00,0x00,0x00,0x00,0x7a,0xff,0xdf,0xff,0xf7,0xff,0xff,0xff,0xff,0xef,0xff,0xfb,0xff,0x1e,0x00,0x00,0x00,0x00,0x00,0x00,0x00,0x00,0x00,0x00,0x00,0x00,0x00,0x00,0x00,0x00,0x00,0x00,0x60,0xf3,0xdd,0xc7,0xf7,0xff,0xff,0xff,0xff,0xec,0xe3,0xfb,0xdf,0x26,0x00,0x00,0x00,0x00,0x00,0x00,0x00,0x00,0x00,0x00,0x00,0x00,0x00,0x00,0x00,0x00,0x00,0x00,0xf0,0xe7,0xfc,0x01,0x7f,0xfe,0xff,0xff,0xff,0xfe,0xc1,0x3f,0xe7,0x0f,0x00,0x00,0x00,0x00,0x00,0x00,0x00,0x00,0x00,0x00,0x00,0x00,0x00,0x00,0x00,0x00,0x00,0x00,0x80,0xe5,0xfc,0x01,0x7f,0xff,0xff,0xfe,0xff,0xfc,0x00,0x3f,0x27,0x0b,0x00,0x00,0x00,0x00,0x00,0x00,0x00,0x00,0x00,0x00,0x00,0x00,0x00,0x00,0x00,0x00,0x00,0x00,0xe0,0xa1,0xfc,0x01,0x7f,0xf5,0x7f,0xfe,0x6f,0xfa,0x80,0x3f,0x80,0x03,0x00,0x00,0x00,0x00,0x00,0x00,0x00,0x00,0x00,0x00,0x00,0x00,0x00,0x00,0x00,0x00,0x00,0x00,0xa0,0x07,0xfc,0x00,0x7f,0xf0,0x3f,0xfc,0x0f,0xf8,0x80,0x3f,0xa0,0x07,0x00,0x00,0x00,0x00,0x00,0x00,0x00,0x00,0x00,0x00,0x00,0x00,0x00,0x00,0x00,0x00,0x00,0x00,0xe0,0x03,0xfc,0x01,0x3f,0xd0,0xff,0xff,0x0e,0xfe,0x80,0x3f,0x40,0x07,0x00,0x00,0x00,0x00,0x00,0x00,0x00,0x00,0x00,0x00,0x00,0x00,0x00,0x00,0x00,0x00,0x00,0x00,0x00,0x00,0xfc,0x81,0x7f,0x80,0xfe,0x7f,0x00,0xfe,0x81,0x7f,0x00,0x00,0x00,0x00,0x00,0x00,0x00,0x00,0x00,0x00,0x00,0x00,0x00,0x00,0x00,0x00,0x00,0x00,0x00,0x00,0x00,0x80,0xfd,0xef,0x7f,0x01,0xfe,0x7f,0x80,0xee,0xa3,0xbf,0x01,0x00,0x00,0x00,0x00,0x00,0x00,0x00,0x00,0x00,0x00,0x00,0x00,0x00,0x00,0x00,0x00,0x00,0x00,0x00,0x00,0x80,0xff,0xff,0xff,0x03,0xec,0x37,0xc0,0xff,0xff,0xff,0x03,0x00,0x00,0x00,0x00,0x00,0x00,0x00,0x00,0x00,0x00,0x00,0x00,0x00,0x00,0x00,0x00,0x00,0x00,0x00,0x00,0xc0,0xff,0xff,0xff,0x03,0xe0,0x07,0xc0,0xff,0xff,0xff,0x03,0x00,0x00,0x00,0x00,0x00,0x00,0x00,0x00,0x00,0x00,0x00,0x00,0x00,0x00,0x00,0x00,0x00,0x00,0x00,0x00,0x00,0xff,0xff,0xff,0x01,0xf0,0x0f,0x80,0xf7,0xff,0xff,0x00,0x00,0x00,0x00,0x00,0x00,0x00,0x00,0x00,0x00,0x00,0x00,0x00,0x00,0x00,0x00,0x00,0x00,0x00,0x00,0x00,0x00,0xff,0xff,0xef,0x00,0xfc,0x3f,0x80,0xf7,0xf7,0xff,0x00,0x00,0x00,0x00,0x00,0x00,0x00,0x00,0x00,0x00,0x00,0x00,0x00,0x00,0x00,0x00,0x00,0x00,0x00,0x00,0x00,0x00,0x8f,0xef,0xe1,0x00,0xfc,0x7f,0x00,0x87,0xf7,0xf1,0x00,0x00,0x00,0x00,0x00,0x00,0x00,0x00,0x00,0x00,0x00,0x00,0x00,0x00,0x00,0x00,0x00,0x00,0x00,0x00,0x00,0x00,0x06,0xfe,0x00,0x00,0xfe,0x7f,0x00,0x01,0x7f,0xc0,0x00,0x00,0x00,0x00,0x00,0x00,0x00,0x00,0x00,0x00,0x00,0x00,0x00,0x00,0x00,0x00,0x00,0x00,0x00,0x00,0x00,0x00,0x00,0x5a,0x00,0x00,0xfe,0x3f,0x00,0x00,0x1f,0x00,0x00,0x00,0x00,0x00,0x00,0x00,0x00,0x00,0x00,0x00,0x00,0x00,0x00,0x00,0x00,0x00,0x00,0x00,0x00,0x00,0x00,0x00,0xc0,0x7c,0x03,0x00,0xb8,0x1d,0x00,0x40,0x3e,0x03,0x00,0x00,0x00,0x00,0x00,0x00,0x00,0x00,0x00,0x00,0x00,0x00,0x00,0x00,0x00,0x00,0x00,0x00,0x00,0x00,0x00,0x00,0xc0,0xff,0x07,0x00,0x78,0x1c,0x00,0xe0,0xff,0x03,0x00,0x00,0x00,0x00,0x00,0x00,0x00,0x00,0x00,0x00,0x00,0x00,0x00,0x00,0x00,0x00,0x00,0x00,0x00,0x00,0x00,0x00,0xe0,0xff,0x07,0x00,0x28,0x14,0x00,0xe0,0xff,0x03,0x00,0x00,0x00,0x00,0x00,0x00,0x00,0x00,0x00,0x00,0x00,0x00,0x00,0x00,0x00,0x00,0x00,0x00,0x00,0x00,0x00,0x00,0x80,0xcf,0x03,0x00,0x00,0x00,0x00,0xc0,0xe7,0x03,0x00,0x00,0x00,0x00,0x00,0x00,0x00,0x00,0x00,0x00,0x00,0x00,0x00,0x00,0x00,0x00,0x00,0x00,0x00,0x00,0x00,0x00,0x87,0xc7,0xc1,0x00,0x00,0x00,0x00,0xc7,0xe3,0xc1,0x00,0x00,0x00,0x00,0x00,0x00,0x00,0x00,0x00,0x00,0x00,0x00,0x00,0x00,0x00,0x00,0x00,0x00,0x00,0x00,0x00,0x00,0xb3,0xc7,0xc9,0x00,0x00,0x00,0x00,0x94,0xa3,0xc4,0x00,0x00,0x00,0x00,0x00,0x00,0x00,0x00,0x00,0x00,0x00,0x00,0x00,0x00,0x00,0x00,0x00,0x00,0x00,0x00,0x00,0x00,0xff,0xe7,0xad,0x00,0x00,0x00,0x80,0xf7,0xe7,0xed,0x00,0x00,0x00,0x00,0x00,0x00,0x00,0x00,0x00,0x00,0x00,0x00,0x00,0x00,0x00,0x00,0x00,0x00,0x00,0x00,0x00,0x00,0xff,0xff,0xff,0x03,0x00,0x00,0x80,0xff,0xff,0x7f,0x01,0x00,0x00,0x00,0x00,0x00,0x00,0x00,0x00,0x00,0x00,0x00,0x00,0x00,0x00,0x00,0x00,0x00,0x00,0x00,0x00,0x00,0xdd,0xff,0xf6,0x03,0x00,0x00,0x80,0xef,0xff,0xdb,0x00,0x00,0x00,0x00,0x00,0x00,0x00,0x00,0x00,0x00,0x00,0x00,0x00,0x00,0x00,0x00,0x00,0x00,0x00,0x00,0x00,0x00,0xdc,0x7c,0x37,0x00,0x00,0x00,0x80,0xee,0x3c,0x1b,0x00,0x00,0x00,0x00,0x00,0x00,0x00,0x00,0x00,0x00,0x00,0x00,0x00,0x00,0x00,0x00,0x00,0x00,0x00,0x00,0x00,0x00,0xfc,0x39,0x7f,0x00,0x00,0x00,0x00,0xfe,0xbc,0x3f,0x00,0x00,0x00,0x00,0x00,0x00,0x00,0x00,0x00,0x00,0x00,0x00,0x00,0x00,0x00,0x00,0x00,0x00,0x00,0x00,0x00,0x00,0xb0,0x3c,0x3c,0x00,0x00,0x00,0x00,0xbc,0x3c,0x2c,0x00,0x00,0x00,0x00,0x00,0x00,0x00,0x00,0x00,0x00,0x00,0x00,0x00,0x00,0x00,0x00,0x00,0x00,0x00,0x00,0x00,0x00,0xf0,0x20,0x1f,0x00,0x00,0x00,0x00,0x78,0x14,0x0e,0x00,0x00,0x00,0x00,0x00,0x00,0x00,0x00,0x00,0x00,0x00,0x00,0x00,0x00,0x00,0x00,0x00,0x00,0x00,0x00,0x00,0x00,0x38,0x01,0x3f,0x00,0x00,0x00,0x00,0x78,0x00,0x0d,0x00,0x00,0x00,0x00,0x00,0x00,0x00,0x00,0x00,0x00,0x00,0x00,0x00,0x00,0x00,0x00,0x00,0x00,0x00,0x00,0x00,0x00,0xec,0x00,0x3a,0x00,0x00,0x00,0x00,0x5c,0x00,0x15,0x00,0x00,0x00,0x00,0x00,0x00,0x00,0x00,0x00,0x00,0x00,0x00,0x00,0x00,0x00,0x00,0x00,0x00,0x00,0x00,0x00,0x00,0x00,0x00,0x00,0x00,0x00,0x00,0x00,0x08,0x00,0x10,0x00,0x00,0x00,0x00,0x00,0x00,0x00,0x00,0x00,0x00,0x00,0x00,0x00,0x00,0x00,0x00,0x00,0x00,0x00,0x00,0x00,0x00,0x00,0x00,0x00,0x00,0x00,0x00,0x00,0x00,0x00,0x00,0x00,0x00,0x00,0x00,0x00,0x00,0x00,0x00,0x00,0x00,0x00,0x00,0x00,0x00,0x00,0x00,0x00,0x00,0x00,0x00,0x00,0x00,0x00,0x00,0x00,0x00,0x00,0x00,0x00,0x00,0x00,0x00,0x00,0x00,0x00,0x00,0x00,0x00,0x00,0x00,0x00,0x00,0x00,0x00,0x00,0x00,0x00,0x00,0x00,0x00,0x00,0x00,0x00,0x00,0x00,0x00,0x00,0x00,0x00,0x00,0x00,0x00,0x00,0x00,0x00,0x00,0x00,0x00,0x00,0x00,0x00,0x00,0x00,0x00,0x00,0x00,0x00,0x00,0x00,0x00,0x00,0x00,0x00,0x00,0x00,0x00,0x00,0x00,0x00,0x00,0x00,0x00,0x00,0x00,0x00,0x00,0x00,0x00,0x00,0x00,0x00,0x00,0x00,0x00,0x00,0x00,0x00,0x00,0x00,0x00,0x00,0x00,0x00,0x00,0x00,0x00,0x00,0x00,0x00,0x00,0x00,0x00,0x00,0x00,0x00,0x00,0x00,0x00,0x00,0x00,0x00,0x00,0x00,0x00,0x00,0x00,0x00,0x00,0x00,0x00,0x00,0x00,0x00,0x00,0x00,0x00,0x00,0x00,0x00,0x00,0x00,0x00,0x00,0x00,0x00,0x00,0x00,0x00,0x00,0x00,0x00,0x00,0x00,0x00,0x00,0x00,0x00,0x00,0x00,0x00,0x00,0x00,0x00,0x00,0x00,0x00,0x00,0x00,0x00,0x00,0x00,0x00,0x00,0x00,0x00,0x00,0x00,0x00,0x00,0x00,0x00,0x00,0x00,0x00,0x00,0x00,0x00,0x00,0x00,0x00,0x00,0x00,0x00,0x00,0x00,0x00,0x00,0x00,0x00,0x00,0x00,0x00,0x00,0x00,0x00,0x00,0x00,0x00,0x00,0x00,0x00,0x00,0x00,0x00,0x00,0x00,0x00,0x00,0x00,0x00,0x00,0x00,0x00,0x00,0x00,0x00,0x00,0x00,0x00,0x00,0x00,0x00,0x00,0x00,0x00,0x00,0x00,0x00,0x00,0x00,0x00,0x00,0x00,0x00,0x00,0x00,0x00,0x00,0x00,0x00,0x00,0x00,0x00,0x00,0x00,0x00,0x00,0x00,0x00,0x00,0x00,0x00,0x00,0x00,0x00,0x00,0x00,0x00,0x00,0x00,0x00,0x00,0x00,0x00,0x00,0x00,0x00,0x00,0x00,0x00,0x00,0x00,0x00,0x00,0x00,0x00,0x00,0x00,0x00,0x00,0x00,0x00,0x00,0x00,0x00,0x00,0x00,0x00,0x00,0x00,0x00,0x00,0x00,0x00,0x00,0x00,0x00,0x00,0x00,0x00,0x00,0x00,0x00,0x00,0x00,0x00,0x00,0x00,0x00,0x00,0x00,0x00,0x00,0x00,0x00,0x00,0x00,0x00,0x00,0x00,0x00,0x00,0x00,0x00,0x00,0x00,0x00,0x00,0x00,0x00,0x00,0x00,0x00,0x00,0x00,0x00,0x00,0x00,0x00,0x00,0x00,0x00,0x00,0x00,0x00,0x00,0x00,0x00,0x00,0x00,0x00,0x00,0x00,0x00,0x00,0x00,0x00,0x00,0x00,0x00,0x00,0x00,0x00,0x00,0x00,0x00,0x00,0x00,0x00,0x00,0x00,0x00,0x00,0x00,0x00,0x00,0x00,0x00,0x00,0x00,0x00,0x00,0x00,0x00,0x00,0x00,0x00,0x00,0x00,0x00,0x00,0x00,0x00,0x00,0x00,0x00,0x00,0x00,0x00,0x00,0x00,0x00,0x00,0x00,0x00,0x00,0x00,0x00,0x00,0x00,0x00,0x00,0x00,0x00,0x00,0x00,0x00,0x00,0x00,0x00,0x00,0x00,0x00,0x00,0x00,0x00,0x00,0x00,0x00,0x00,0x00,0x00,0x00,0x00,0x00,0x00,0x00,0x00,0x00,0x00,0x00,0x00,0x00,0x00,0x00,0x00,0x00,0x00,0x00,0x00,0x00,0x00,0x00,0x00,0x00,0x00,0x00,0x00,0x00,0x00,0x00,0x00,0x00,0x00,0x00,0x00,0x00,0x00,0x00,0x00,0x00,0x00,0x00,0x00,0x00,0x00,0x00,0x00,0x00,0x00,0x00,0x00,0x00,0x00,0x00,0x00,0x00,0x00,0x00,0x00,0x00,0x00,0x00,0x00,0x00,0x00,0x00,0x00,0x00,0x00,0x00,0x00,0x00,0x00,0x00,0x00,0x00,0x00,0x00,0x00,0x00,0x00,0x00,0x00,0x00,0x00,0x00,0x00,0x00,0x00,0x00,0x00,0x00,0x00,0x00,0x00,0x00,0x00,0x00,0x00,0x00,0x00,0x00,0x00,0x00,0x00,0x00,0x00,0x00,0x00,0x00,0x00,0x00,0x00,0x00,0x00,0x00,0x00,0x00,0x00,0x00,0x00,0x00,0x00,0x00,0x00,0x00,0x00,0x00,0x00,0x00,0x00,0x00,0x00,0x00,0x00,0x00,0x00,0x00,0x00,0x00,0x00,0x00,0x00,0x00,0x00,0x00,0x00,0x00,0x00,0x00,0x00,0x00,0x00,0x00,0x00,0x00,0x00,0x00,0x00,0x00,0x00,0x00,0x00,0x00,0x00,0x00,0x00,0x00,0x00,0x00,0x00,0x00,0x00,0x00,0x00,0x00,0x00,0x00,0x00,0x00,0x00,0x00,0x00,0x00,0x00,0x00,0x00,0x00,0x00,0x00,0x00,0x00,0x00,0x00,0x00,0x00,0x00,0x00,0x00,0x00};
