#define x_width 256
#define x_height 256
static char x_bits[] = {
0x00,0x00,0x00,0x00,0x00,0x00,0x00,0x00,0x00,0x00,0x00,0x00,0x00,0x00,0x00,0x00,0x00,0x00,0x00,0x00,0x00,0x00,0x00,0x00,0x00,0x00,0x00,0x00,0x00,0x00,0x00,0x00,0x00,0x00,0x00,0x00,0x00,0x00,0x00,0x00,0x00,0x00,0x00,0x00,0x00,0x00,0x00,0x00,0x00,0x00,0x00,0x00,0x00,0x00,0x00,0x00,0x00,0x00,0x00,0x00,0x00,0x00,0x00,0x00,0x00,0x00,0x00,0x00,0x00,0x00,0x00,0x00,0x00,0x00,0x00,0x00,0x00,0x00,0x00,0x00,0x00,0x00,0x00,0x00,0x00,0x00,0x00,0x00,0x00,0x00,0x00,0x00,0x00,0x00,0x00,0x00,0x00,0x00,0x00,0x00,0x00,0x00,0x00,0x00,0x00,0x00,0x00,0x00,0x00,0x00,0x00,0x00,0x00,0x00,0x00,0x00,0x00,0x00,0x00,0x00,0x00,0x00,0x00,0x00,0x00,0x00,0x00,0x00,0x00,0x00,0x00,0x00,0x00,0x00,0x00,0x00,0x00,0x00,0x00,0x00,0x00,0x00,0x00,0x00,0x00,0x00,0x00,0x00,0x00,0x00,0x00,0x00,0x00,0x00,0x00,0x00,0x00,0x00,0x00,0x00,0x00,0x00,0x00,0x00,0x00,0x00,0x00,0x00,0x00,0x00,0x00,0x00,0x00,0x00,0x00,0x00,0x00,0x00,0x00,0x00,0x00,0x00,0x00,0x00,0x00,0x00,0x00,0x00,0x00,0x00,0x00,0x00,0x00,0x00,0x00,0x00,0x00,0x00,0x00,0x00,0x00,0x00,0x00,0x00,0x00,0x00,0x00,0x00,0x00,0x00,0x00,0x00,0x00,0x00,0x00,0x00,0x00,0x00,0x00,0x00,0x00,0x00,0x00,0x00,0x00,0x00,0x00,0x00,0x00,0x00,0x00,0x00,0x00,0x00,0x00,0x00,0x00,0x00,0x00,0x00,0x00,0x00,0x00,0x00,0x00,0x00,0x00,0x00,0x00,0x00,0x00,0x00,0x00,0x00,0x00,0x00,0x00,0x00,0x00,0x00,0x00,0x00,0x00,0x00,0x00,0x00,0x00,0x00,0x00,0x00,0x00,0x00,0x00,0x00,0x00,0x00,0x00,0x00,0x00,0x00,0x00,0x00,0x00,0x00,0x00,0x00,0x00,0x00,0x00,0x00,0x00,0x00,0x00,0x00,0x00,0x00,0x00,0x00,0x00,0x03,0x00,0x00,0x00,0x00,0x00,0x00,0x00,0x00,0x00,0x00,0x00,0x00,0x00,0x00,0x00,0x00,0x00,0x00,0x00,0x00,0x00,0x00,0x00,0x00,0x00,0x00,0x00,0x00,0x00,0x00,0x80,0x1f,0x00,0x80,0x1f,0x00,0x00,0x00,0x00,0x00,0x00,0x00,0x00,0x00,0x00,0x00,0x00,0x00,0x00,0x00,0x00,0x00,0x00,0x00,0x00,0x00,0x00,0x00,0x00,0x00,0x00,0x00,0xa0,0xfb,0x00,0x80,0x7d,0x00,0x00,0x00,0x00,0x00,0x00,0x00,0x00,0x00,0x00,0x00,0x00,0x00,0x00,0x00,0x00,0x00,0x00,0x00,0x00,0x00,0x00,0x00,0x00,0x00,0x00,0x00,0xb0,0x7f,0x00,0xf8,0x7f,0x00,0x00,0x00,0x00,0x00,0x00,0x00,0x00,0x00,0x00,0x00,0x00,0x00,0x00,0x00,0x00,0x00,0x00,0x00,0x00,0x00,0x00,0x00,0x00,0x00,0x00,0x00,0xb8,0xff,0x01,0x98,0xff,0x01,0x00,0x00,0x00,0x00,0x00,0x00,0x00,0x00,0x00,0x00,0x00,0x00,0x00,0x00,0x00,0x00,0x00,0x00,0x00,0x00,0x00,0x00,0x00,0x00,0x00,0x00,0xf8,0xff,0x01,0xf8,0xfd,0x00,0x00,0x00,0x00,0x00,0x00,0x00,0x00,0x00,0x00,0x00,0x00,0x00,0x00,0x00,0x00,0x00,0x00,0x00,0x00,0x00,0x00,0x00,0x00,0x00,0x00,0x00,0xf8,0xff,0x03,0xf8,0xfe,0x01,0x00,0x00,0x00,0x00,0x00,0x00,0x00,0x00,0x00,0x00,0x00,0x00,0x00,0x00,0x00,0x00,0x00,0x00,0x00,0x00,0x00,0x00,0x00,0x00,0x00,0x00,0x77,0x8f,0x01,0x3b,0xcf,0x01,0x00,0x00,0x00,0x00,0x00,0x00,0x00,0x00,0x00,0x00,0x00,0x00,0x00,0x00,0x00,0x00,0x00,0x00,0x00,0x00,0x00,0x00,0x00,0x00,0x00,0x00,0xf7,0x87,0x83,0xf3,0xc7,0x01,0x00,0x00,0x00,0x00,0x00,0x00,0x00,0x00,0x00,0x00,0x00,0x00,0x00,0x00,0x00,0x00,0x00,0x00,0x00,0x00,0x00,0x00,0x00,0x00,0x00,0x80,0xff,0xc7,0x80,0xbf,0xa7,0x00,0x00,0x00,0x00,0x00,0x00,0x00,0x00,0x00,0x00,0x00,0x00,0x00,0x00,0x00,0x00,0x00,0x00,0x00,0x00,0x00,0x00,0x00,0x00,0x00,0x00,0x00,0x9f,0x07,0x80,0xff,0x03,0x00,0x3f,0x00,0x00,0x00,0x00,0x00,0x00,0x00,0x00,0x00,0x00,0x00,0x00,0x00,0x00,0x00,0x00,0x00,0x00,0x00,0x00,0x00,0x00,0x00,0x00,0x00,0xbf,0x07,0x80,0xcf,0x03,0x00,0xdb,0x01,0x00,0x00,0x00,0x00,0x00,0x00,0x00,0x00,0x00,0x00,0x00,0x00,0x00,0x00,0x00,0x00,0x00,0x00,0x00,0x00,0x00,0x00,0x00,0x00,0xbe,0x07,0x00,0xff,0x02,0xf0,0xff,0x00,0x00,0x00,0x00,0x00,0x00,0x00,0x00,0x00,0x00,0x00,0x00,0x00,0x00,0x00,0x00,0x00,0x00,0x00,0x00,0x00,0x00,0x00,0x00,0x00,0xbc,0x0f,0x00,0xfc,0x07,0x38,0xff,0x03,0x00,0x00,0x00,0x00,0x00,0x00,0x00,0x00,0x00,0x00,0x00,0x00,0x00,0x00,0x00,0x00,0x00,0x00,0x00,0x00,0x00,0x60,0x07,0x80,0xb9,0x0f,0x80,0xdc,0x0f,0xf0,0xfb,0x01,0x00,0x00,0x00,0x00,0x00,0x00,0x00,0x00,0x00,0x00,0x00,0x00,0x00,0x00,0x00,0x00,0x00,0x00,0x00,0x00,0x00,0x70,0x1b,0xc0,0x9c,0x1f,0xc0,0xdd,0x0f,0xf0,0xff,0x03,0x00,0x00,0x00,0x00,0x00,0x00,0x00,0x00,0x00,0x00,0x00,0x00,0x00,0x00,0x00,0x00,0x00,0x00,0x00,0x00,0x00,0xf6,0x1f,0xc0,0x1f,0x7f,0xe0,0x8f,0x3f,0xe6,0x8e,0x03,0x00,0x00,0x00,0x00,0x00,0x00,0x00,0x00,0x00,0x00,0x00,0x00,0x00,0x00,0x00,0x00,0x00,0x00,0x00,0x00,0x00,0xff,0x7f,0xc0,0x6f,0x7f,0xf3,0x8f,0x3f,0xf7,0x4f,0x03,0x00,0x00,0x00,0x00,0x00,0x00,0x00,0x00,0x00,0x00,0x00,0x00,0x00,0x00,0x00,0x00,0x00,0x00,0x00,0x00,0x00,0xff,0x7f,0xc0,0x7f,0xff,0xf7,0x1f,0xff,0x7f,0x0f,0x03,0x00,0x00,0x00,0x00,0x00,0x00,0x00,0x00,0x00,0x00,0x00,0x00,0x00,0x00,0x00,0x00,0x00,0x00,0x00,0x00,0x00,0xff,0x7f,0x80,0x7f,0xff,0xff,0x1f,0xcf,0xbf,0x07,0x00,0x00,0x00,0x00,0x00,0x00,0x00,0x00,0x00,0x00,0x00,0x00,0x00,0x00,0x00,0x00,0x00,0x00,0x00,0x00,0x00,0xe0,0xee,0x7b,0x00,0xff,0xfe,0x7d,0x1f,0xfe,0x9f,0x07,0x00,0x00,0x00,0x00,0x00,0x00,0x00,0x00,0x00,0x00,0x00,0x00,0x00,0x00,0x00,0x00,0x00,0x00,0x00,0x00,0x00,0xe0,0xfe,0x71,0x00,0x70,0xf8,0xfb,0x08,0xf8,0x9f,0x0d,0x00,0x00,0x00,0x00,0x00,0x00,0x00,0x00,0x00,0x00,0x00,0x00,0x00,0x00,0x00,0x00,0x00,0x00,0x00,0x00,0x00,0xe0,0xef,0x38,0x00,0x70,0xf8,0xff,0x0f,0xf8,0x99,0x0f,0x4c,0x00,0x00,0x00,0x00,0x00,0x00,0x00,0x00,0x00,0x00,0x00,0x00,0x00,0x00,0x00,0x00,0x00,0x00,0x00,0x00,0xe0,0xff,0x00,0x00,0x73,0xf0,0xff,0x0f,0xf0,0x8f,0x1f,0xec,0x00,0x00,0x00,0x00,0x00,0x00,0x00,0x00,0x00,0x00,0x00,0x00,0x00,0x00,0x00,0x00,0x00,0x00,0x00,0x00,0xe0,0xf3,0x00,0x80,0x7f,0x60,0xbf,0x3f,0xf0,0x0f,0x9f,0xee,0x03,0x00,0x00,0x00,0x00,0x00,0x00,0x00,0x00,0x00,0x00,0x00,0x00,0x00,0x00,0x00,0x00,0x00,0x00,0x00,0xc0,0xf7,0x00,0x80,0xbf,0x01,0x7e,0x3e,0x00,0x0f,0xff,0xfe,0x07,0x00,0x00,0x00,0x00,0x00,0x00,0x00,0x00,0x00,0x00,0x00,0x00,0x00,0x00,0x00,0x00,0x00,0x00,0x00,0x80,0xf7,0x01,0x80,0xff,0x01,0x78,0x00,0x00,0x0c,0xff,0xfe,0x07,0x00,0x00,0x00,0x00,0x00,0x00,0x00,0x00,0x00,0x00,0x00,0x00,0x00,0x00,0x00,0x00,0x00,0x00,0x00,0x30,0xf7,0x01,0x00,0xff,0x03,0x00,0x00,0x00,0x00,0xfe,0xff,0x07,0x00,0x00,0x00,0x00,0x00,0x00,0x00,0x00,0x00,0x00,0x00,0x00,0x00,0x00,0x00,0x00,0x00,0x00,0x00,0x38,0xf7,0x01,0x80,0xff,0x01,0x00,0x00,0x00,0x00,0xfe,0x7f,0x0f,0x00,0x00,0x00,0x00,0x00,0x00,0x00,0x00,0x00,0x00,0x00,0x00,0x00,0x00,0x00,0x00,0x00,0x00,0x00,0xf8,0xe3,0x07,0x80,0x3f,0x02,0x00,0x00,0x38,0x00,0xfc,0x3d,0x0e,0x00,0x00,0x00,0x00,0x00,0x00,0x00,0x00,0x00,0x00,0x00,0x00,0x00,0x00,0x00,0x00,0x00,0x00,0x00,0xf8,0xeb,0x0f,0xb8,0x0f,0x03,0x00,0x00,0x7e,0x01,0xf0,0x1e,0x06,0x00,0x00,0x00,0x00,0x00,0x00,0x00,0x00,0x00,0x00,0x00,0x00,0x00,0x00,0x00,0x00,0x00,0x00,0x00,0xf8,0xef,0xff,0xfe,0xff,0x1f,0x00,0x10,0xfc,0x03,0x30,0x1e,0x02,0x00,0x00,0x00,0x00,0x00,0x00,0x00,0x00,0x00,0x00,0x00,0x00,0x00,0x00,0x00,0x00,0x00,0x00,0x00,0xf0,0xcf,0xff,0xff,0xff,0x1f,0x80,0xff,0xfd,0xe7,0x20,0x1e,0x00,0x00,0x00,0x00,0x00,0x00,0x00,0x00,0x00,0x00,0x00,0x00,0x00,0x00,0x00,0x00,0x00,0x00,0x00,0x00,0xc0,0xdf,0xff,0xff,0xff,0x07,0xe0,0xff,0xd9,0xef,0x01,0x1e,0x00,0x00,0x00,0x00,0x00,0x00,0x00,0x00,0x00,0x00,0x00,0x00,0x00,0x00,0x00,0x00,0x00,0x00,0x00,0x00,0x00,0x1f,0x7f,0x9f,0xef,0x03,0xf0,0xff,0xff,0xef,0x07,0x16,0x00,0x00,0x00,0x00,0x00,0x00,0x00,0x00,0x00,0x00,0x00,0x00,0x00,0x00,0x00,0x00,0x00,0x00,0x00,0x00,0x00,0x1e,0x7f,0xbf,0x0f,0x00,0xf0,0xff,0xff,0xfc,0x07,0x7e,0x06,0x00,0x00,0x00,0x00,0x00,0x00,0x00,0x00,0x00,0x00,0x00,0x00,0x00,0x00,0x00,0x00,0x00,0x00,0x00,0xc0,0x4e,0xfe,0xff,0x3f,0x00,0xf0,0x1d,0xff,0xf8,0x07,0xfe,0x0f,0x00,0x00,0x00,0x00,0x00,0x00,0x00,0x00,0x00,0x00,0x00,0x00,0x00,0x00,0x00,0x00,0x00,0x00,0x00,0xe0,0xce,0xfc,0xff,0x3f,0x00,0xc0,0x1f,0x3e,0xfd,0x7e,0xfe,0x1f,0x00,0x00,0x00,0x00,0x00,0x00,0x00,0x00,0x00,0x00,0x00,0x00,0x00,0x00,0x00,0x00,0x00,0x00,0x00,0xf0,0xf7,0xc0,0xef,0x1f,0x00,0x80,0x3f,0x7c,0xfd,0x7e,0xfc,0x1f,0x00,0x00,0x00,0x00,0x00,0x00,0x00,0x00,0x00,0x00,0x00,0x00,0x00,0x00,0x00,0x00,0x00,0x00,0x00,0xf0,0xff,0x03,0x0f,0x00,0x00,0x9c,0x3f,0xfd,0xff,0xfc,0xbc,0x7f,0x00,0x00,0x00,0x00,0x00,0x00,0x00,0x00,0x00,0x00,0x00,0x00,0x00,0x00,0x00,0x00,0x00,0x00,0x00,0xe0,0xff,0x03,0x00,0x00,0xc0,0xff,0x8d,0x7e,0xff,0xfc,0x8c,0x7f,0x00,0x00,0x00,0x00,0x00,0x00,0x00,0x00,0x00,0x00,0x00,0x00,0x00,0x00,0x00,0x00,0x00,0x00,0x00,0xe0,0xff,0x03,0x00,0x00,0xe0,0xff,0xbd,0x3f,0xde,0xff,0xc0,0x77,0x00,0x00,0x00,0x00,0x00,0x00,0x00,0x00,0x00,0x00,0x00,0x00,0x00,0x00,0x00,0x00,0x00,0x00,0x00,0x80,0xcf,0x03,0x00,0x00,0xf8,0xff,0xff,0x1f,0x80,0xff,0xe0,0x31,0x00,0x00,0x00,0x00,0x00,0x00,0x00,0x00,0x00,0x00,0x00,0x00,0x00,0x00,0x00,0x00,0x00,0x00,0x00,0x00,0x84,0x07,0x00,0x00,0xfe,0xef,0x7b,0x0b,0x00,0xcf,0xe0,0x30,0x00,0x00,0x00,0x00,0x00,0x00,0x00,0x00,0x00,0x00,0x00,0x00,0x00,0x00,0x00,0x00,0x00,0x00,0x00,0x00,0x80,0x3b,0x00,0x00,0xbe,0x01,0x1f,0x00,0x00,0xc8,0xf3,0x18,0x00,0x00,0x00,0x00,0x00,0x00,0x00,0x00,0x00,0x00,0x00,0x00,0x00,0x00,0x00,0x00,0x00,0xe0,0x07,0x00,0x80,0x7b,0x00,0x00,0xff,0x01,0x3f,0x00,0x00,0xf8,0xf3,0x00,0x00,0x00,0x00,0x00,0x00,0x00,0x00,0x00,0x00,0x00,0x00,0x00,0x00,0x00,0x00,0x00,0x00,0x34,0x1b,0x00,0xb8,0x7f,0x00,0x00,0xef,0x07,0x3f,0x00,0x00,0xf8,0xf2,0x01,0x00,0x00,0x00,0x00,0x00,0x00,0x00,0x00,0x00,0x00,0x00,0x00,0x00,0x00,0x00,0x00,0x00,0xf6,0x1f,0x00,0xdc,0x7f,0x00,0x80,0xcf,0x6f,0x3f,0x00,0x00,0xe0,0xf3,0x06,0x00,0x00,0x00,0x00,0x00,0x00,0x00,0x00,0x00,0x00,0x00,0x00,0x00,0x00,0x00,0x00,0x00,0xf7,0x7f,0x00,0xfc,0x7f,0x00,0x80,0xff,0xef,0x1f,0x00,0x00,0x60,0xf3,0x07,0x00,0x00,0x00,0x00,0x00,0x00,0x00,0x00,0x00,0x00,0x00,0x00,0x00,0x00,0x00,0x00,0x00,0xff,0x7f,0x00,0xf8,0x9f,0x1f,0x80,0xff,0xc7,0x1f,0x00,0x00,0xa0,0x83,0x1f,0x00,0x00,0x00,0x00,0x00,0x00,0x00,0x00,0x00,0x00,0x00,0x00,0x00,0x00,0x00,0x00,0x00,0xff,0x6f,0x00,0xf8,0x8f,0x1f,0x00,0xf8,0xbb,0x05,0x00,0x00,0xe0,0xc3,0x0f,0x00,0x00,0x00,0x00,0x00,0x00,0x00,0x00,0x00,0x00,0x00,0x00,0x00,0x00,0x00,0x00,0xe0,0xfe,0x79,0x00,0xf8,0xcf,0x0f,0x00,0x70,0x7f,0x00,0x00,0x00,0xc0,0xf7,0x1f,0x00,0x00,0x00,0x00,0x00,0x00,0x00,0x00,0x00,0x00,0x00,0x00,0x00,0x00,0x00,0x00,0xe0,0xfe,0x21,0x00,0xf0,0xe1,0x07,0x00,0x18,0x7f,0x00,0x00,0x00,0xc0,0xfb,0x1c,0x00,0x00,0x00,0x00,0x00,0x00,0x00,0x00,0x00,0x00,0x00,0x00,0x00,0x00,0x00,0x00,0xe0,0xff,0x38,0x00,0xf0,0xff,0x07,0x80,0xff,0x3e,0x00,0x00,0xe0,0xa0,0x7b,0x1c,0x00,0x00,0x00,0x00,0x00,0x00,0x00,0x00,0x00,0x00,0x00,0x00,0x00,0x00,0x00,0x00,0xe0,0xf7,0x10,0x00,0xf0,0xff,0x03,0x80,0xff,0x79,0x00,0x00,0x30,0xe0,0x7d,0x0c,0x00,0x00,0x00,0x00,0x00,0x00,0x00,0x00,0x00,0x00,0x00,0x00,0x00,0x00,0x00,0x00,0xe0,0xf3,0x00,0x00,0xf0,0xff,0x00,0xc0,0xfb,0xff,0x00,0x00,0x60,0xf0,0x3d,0x00,0x00,0x00,0x00,0x00,0x00,0x00,0x00,0x00,0x00,0x00,0x00,0x00,0x00,0x00,0x00,0x00,0xc0,0xb7,0x00,0x00,0xfc,0xfd,0x00,0xf0,0xff,0xff,0x00,0x00,0x70,0xd0,0xe1,0x00,0x00,0x00,0x00,0x00,0x00,0x00,0x00,0x00,0x00,0x00,0x00,0x00,0x00,0x00,0x00,0x00,0x80,0xf7,0x01,0x00,0xff,0x0f,0x00,0xf8,0x1f,0xff,0x00,0x00,0x60,0xf4,0xfe,0x00,0x00,0x00,0x00,0x00,0x00,0x00,0x00,0x00,0x00,0x00,0x00,0x00,0x00,0x00,0x00,0x00,0x30,0xf7,0x01,0x80,0xff,0x7f,0x00,0xfc,0x07,0x7e,0x00,0x00,0xb0,0x3d,0xff,0x01,0x00,0x00,0x00,0x00,0x00,0x00,0x00,0x00,0x00,0x00,0x00,0x00,0x00,0x00,0x00,0x00,0x38,0xf7,0x01,0x80,0xff,0x7f,0x00,0xfc,0x03,0x7c,0x00,0x00,0xc0,0xbf,0xc7,0x00,0x00,0x00,0x00,0x00,0x00,0x00,0x00,0x00,0x00,0x00,0x00,0x00,0x00,0x00,0x00,0x00,0xf8,0xe3,0x0f,0x80,0x87,0x7b,0x00,0xfc,0x80,0x7c,0x00,0x00,0xc0,0xf3,0xc7,0x00,0x00,0x00,0x00,0x00,0x00,0x00,0x00,0x00,0x00,0x00,0x00,0x00,0x00,0x00,0x00,0x00,0xf8,0xe9,0x0f,0xfc,0x1f,0x7f,0x00,0xfe,0x80,0x3e,0x00,0x00,0xa0,0xff,0x67,0x00,0x00,0x00,0x00,0x00,0x00,0x00,0x00,0x00,0x00,0x00,0x00,0x00,0x00,0x00,0x00,0x00,0xf8,0xef,0xff,0xfc,0xff,0x3f,0x00,0xce,0xc6,0x3f,0x00,0x00,0x00,0x3f,0x07,0x00,0x00,0x00,0x00,0x00,0x00,0x00,0x00,0x00,0x00,0x00,0x00,0x00,0x00,0x00,0x00,0x00,0xf0,0xcf,0xff,0xff,0xff,0x1f,0x00,0xff,0x9f,0x3f,0x00,0x00,0x80,0x39,0x06,0x00,0x00,0x00,0x00,0x00,0x00,0x00,0x00,0x00,0x00,0x00,0x00,0x00,0x00,0x00,0x00,0x00,0xc0,0xdf,0xff,0x9f,0xff,0x07,0x80,0xdf,0x1f,0x0b,0x00,0x00,0x00,0x38,0x03,0x00,0x00,0x00,0x00,0x00,0x00,0x00,0x00,0x00,0x00,0x00,0x00,0x00,0x00,0x00,0x00,0x00,0x00,0x1e,0x7f,0x9f,0x6f,0x00,0xc0,0xd7,0x8f,0x01,0x00,0x00,0x00,0x18,0x00,0x00,0x00,0x00,0x00,0x00,0x00,0x00,0x00,0x00,0x00,0x00,0x00,0x00,0x00,0x00,0x00,0x00,0x00,0x1e,0x7e,0xff,0x1f,0x00,0xc0,0x87,0xe7,0x07,0x00,0x00,0x00,0x00,0x00,0x00,0x00,0x00,0x00,0x00,0x00,0x00,0x00,0x00,0x00,0x00,0x00,0x00,0x00,0x00,0x00,0x00,0x60,0x4e,0xfe,0xff,0x3f,0x00,0xc0,0xcf,0xff,0x07,0x00,0x00,0x00,0x00,0x00,0x00,0x00,0x00,0x00,0x00,0x00,0x00,0x00,0x00,0x00,0x00,0x00,0x00,0x00,0x00,0x00,0x00,0xe0,0xce,0xfc,0xff,0x3f,0x00,0xc0,0xff,0xff,0x03,0x00,0x00,0x00,0x00,0x00,0x00,0x00,0x00,0x00,0x00,0x00,0x00,0x00,0x00,0x00,0x00,0x00,0x00,0x00,0x00,0x00,0x00,0xf0,0xf7,0xc0,0xcf,0x1f,0x00,0x80,0xff,0xfd,0x05,0x00,0x00,0x00,0x00,0x00,0x00,0x00,0x00,0x00,0x00,0x00,0x00,0x00,0x00,0x00,0x00,0x00,0x00,0x00,0x00,0x00,0x00,0xe0,0xff,0x03,0x0f,0x00,0x00,0xc0,0xfb,0xf9,0x1f,0x00,0x00,0x00,0x00,0x00,0x00,0x00,0x00,0x00,0x00,0x00,0x00,0x00,0x00,0x00,0x00,0x00,0x00,0x00,0x00,0x00,0x00,0xe0,0xff,0x03,0x00,0x00,0x00,0xc0,0x23,0x80,0x3f,0x00,0x00,0x00,0x00,0x00,0x00,0x00,0x00,0x00,0x00,0x00,0x00,0x00,0x00,0x00,0x00,0x00,0x00,0x00,0x00,0x00,0x00,0xe0,0xff,0x23,0x00,0x00,0x00,0x80,0x01,0x5d,0x3f,0x00,0x00,0x00,0x00,0x00,0x00,0x00,0x00,0x00,0x00,0x00,0x00,0x00,0x00,0x00,0x00,0x00,0x00,0x00,0x00,0x00,0x00,0x80,0x8f,0x67,0x00,0x00,0x00,0x00,0xe0,0xff,0x0f,0x00,0x00,0x00,0x00,0x00,0x00,0x00,0x00,0x00,0x00,0x00,0x00,0x00,0x00,0x00,0x00,0x00,0x00,0x00,0x00,0x00,0x00,0x00,0x80,0xf7,0x03,0x00,0x00,0x00,0xe0,0xff,0x3f,0x00,0x00,0x00,0x00,0x00,0x00,0x00,0x00,0x00,0x00,0x00,0x00,0x00,0x00,0x00,0x00,0x00,0x00,0x00,0x00,0x00,0x00,0x00,0x80,0xfb,0x07,0x00,0x00,0x00,0xf8,0xff,0x7f,0x00,0x00,0x00,0x00,0x00,0x00,0x00,0x00,0x00,0x00,0x00,0x00,0x00,0x00,0x00,0x00,0x00,0x00,0x00,0x00,0x00,0x00,0x00,0x90,0xfb,0x07,0x00,0x00,0x00,0xfc,0xcf,0x7b,0x00,0x00,0x00,0x00,0x00,0x00,0x00,0x00,0x00,0x00,0x00,0x00,0x00,0x00,0x00,0x00,0x00,0x00,0x00,0x00,0x00,0x00,0x00,0xb8,0xff,0xdf,0x03,0x00,0x00,0xbe,0x01,0x1f,0x00,0x00,0x00,0x00,0x00,0x00,0x00,0x00,0x00,0x00,0x00,0x00,0x00,0x00,0x00,0x00,0x00,0x00,0x00,0x00,0x00,0x00,0x00,0xdc,0xff,0xdf,0x07,0x0c,0x00,0xfe,0x01,0x3f,0x00,0x00,0x00,0x00,0x00,0x00,0x00,0x00,0x00,0x00,0x00,0x00,0x00,0x00,0x00,0x00,0x00,0x00,0x00,0x00,0x00,0x00,0x00,0xfc,0x7f,0x9f,0x0f,0x0e,0x00,0xfc,0x00,0x3f,0x00,0x00,0x00,0x00,0x00,0x00,0x00,0x00,0x00,0x00,0x00,0x00,0x00,0x00,0x00,0x00,0x00,0x00,0x00,0x00,0x00,0x00,0x00,0xfc,0x1f,0xfc,0xcf,0x0e,0x00,0x7f,0x60,0x2f,0x00,0x00,0x00,0x00,0x00,0x00,0x00,0x00,0x00,0x00,0x00,0x00,0x00,0x00,0x00,0x00,0x00,0x00,0x00,0x00,0x00,0x00,0x00,0xf8,0x0f,0xfc,0xef,0x07,0x80,0x7f,0xe0,0x1f,0x00,0x00,0x00,0x00,0x00,0x00,0x00,0x00,0x00,0x00,0x00,0x00,0x00,0x00,0x00,0x00,0x00,0x00,0x00,0x00,0x00,0x00,0x00,0xe0,0x0f,0xfc,0xe1,0x07,0x80,0x73,0xe0,0x17,0x00,0x00,0x00,0x00,0x00,0x00,0x00,0x00,0x00,0x00,0x00,0x00,0x00,0x00,0x00,0x00,0x00,0x00,0x00,0x00,0x00,0x00,0x00,0x80,0x01,0xfc,0xe3,0x07,0xc0,0x37,0x80,0x07,0x00,0x00,0x00,0x00,0x00,0x00,0x00,0x00,0x00,0x00,0x00,0x00,0x00,0x00,0x00,0x00,0x00,0x00,0x00,0x00,0x00,0x00,0x00,0x00,0xc0,0xfd,0xe3,0x07,0xc0,0x1f,0x00,0x00,0x00,0x00,0x00,0x00,0x00,0x00,0x00,0x00,0x00,0x00,0x00,0x00,0x00,0x00,0x00,0x00,0x00,0x00,0x00,0x00,0x00,0x00,0x00,0x00,0xe0,0xfe,0xe3,0x07,0xc0,0x3f,0x0f,0x0f,0x00,0x00,0x00,0x00,0x00,0x00,0x00,0x00,0x00,0x00,0x00,0x00,0x00,0x00,0x00,0x00,0x00,0x00,0x00,0x00,0x00,0x00,0x00,0x00,0xe0,0xff,0xf3,0x03,0xc0,0xbf,0x9f,0x1f,0x00,0x00,0x00,0x00,0x00,0x00,0x00,0x00,0x00,0x00,0x00,0x00,0x00,0x00,0x00,0x00,0x00,0x00,0x00,0x00,0x00,0x00,0x00,0x00,0xe0,0xff,0xf8,0x01,0x80,0xff,0xdf,0x0f,0x00,0x00,0x00,0x00,0x00,0x00,0x00,0x00,0x00,0x00,0x00,0x00,0x00,0x00,0x00,0x00,0x00,0x00,0x00,0x00,0x00,0x00,0x00,0x00,0x80,0xff,0xf8,0x01,0x80,0xfb,0xc7,0xff,0x03,0x00,0x00,0x00,0x00,0x00,0x00,0x00,0x00,0x00,0x00,0x00,0x00,0x00,0x00,0x00,0x00,0x00,0x00,0x00,0x00,0x00,0x00,0x00,0x80,0xff,0xff,0x01,0xc0,0xfb,0xc7,0xe7,0x03,0x00,0x00,0x00,0x00,0x00,0x00,0x00,0x00,0x00,0x00,0x00,0x00,0x00,0x00,0x00,0x00,0x00,0x00,0x00,0x00,0x00,0x00,0x00,0x00,0xff,0x7f,0x00,0xc0,0xdf,0xff,0xff,0x03,0x00,0x00,0x00,0x00,0x00,0x00,0x00,0x00,0x00,0x00,0x00,0x00,0x00,0x00,0x00,0x00,0x00,0x00,0x00,0x00,0x00,0x00,0x00,0x00,0xfc,0x3f,0x00,0xc0,0xcf,0xff,0xff,0x00,0x00,0x00,0x00,0x00,0x00,0x00,0x00,0x00,0x00,0x00,0x00,0x00,0x00,0x00,0x00,0x00,0x00,0x00,0x00,0x00,0x00,0x00,0x00,0x00,0xfc,0x03,0x01,0xe0,0xcb,0xff,0xfd,0x0c,0x00,0x00,0x00,0x00,0x00,0x00,0x00,0x00,0x00,0x00,0x00,0x00,0x00,0x00,0x00,0x00,0x00,0x00,0x00,0x00,0x00,0x22,0x00,0x00,0xf8,0xff,0x03,0xc0,0xc3,0xf3,0xb1,0x1f,0x00,0x00,0x00,0x00,0x00,0x00,0x00,0x00,0x00,0x00,0x00,0x00,0x00,0x00,0x00,0x00,0x00,0x00,0x00,0x00,0x00,0x7f,0x00,0x00,0xf0,0xff,0x03,0xe0,0xc7,0x03,0x8c,0x1f,0x00,0x00,0x00,0x00,0x00,0x00,0x00,0x00,0x00,0x00,0x00,0x00,0x00,0x00,0x00,0x00,0x00,0x00,0x00,0x00,0x60,0xfb,0x01,0x00,0xf0,0xff,0x03,0xe0,0xff,0xc7,0x7f,0x17,0x00,0x00,0x00,0x00,0x00,0x00,0x00,0x00,0x00,0x00,0x00,0x00,0x00,0x00,0x00,0x00,0x00,0x00,0x00,0x00,0x60,0xff,0x01,0x00,0x78,0xcf,0x03,0xc0,0xff,0xe7,0xff,0x1e,0x00,0x00,0x00,0x00,0x00,0x00,0x00,0x00,0x00,0x00,0x00,0x00,0x00,0x00,0x00,0x00,0x00,0x00,0x00,0x00,0xf0,0xff,0x03,0x00,0x7e,0xff,0x03,0xe0,0xff,0xe1,0xff,0x3f,0x00,0x00,0x00,0x00,0x00,0x00,0x00,0x00,0x00,0x00,0x00,0x00,0x00,0x00,0x00,0x00,0x00,0x00,0x00,0x00,0xf0,0xff,0x03,0x00,0x7e,0xff,0x01,0xe0,0x33,0xf8,0xff,0x7f,0x00,0x00,0x00,0x00,0x00,0x00,0x00,0x00,0x00,0x00,0x00,0x00,0x00,0x00,0x00,0x00,0x00,0x00,0x00,0x00,0xf0,0xff,0x07,0x00,0x7f,0xfc,0x01,0xc0,0x0e,0xfe,0x87,0x6f,0x00,0x00,0x00,0x00,0x00,0x00,0x00,0x00,0x00,0x00,0x00,0x00,0x00,0x00,0x00,0x00,0x00,0x00,0x00,0x00,0xee,0x9e,0x03,0x00,0x1f,0x7e,0x00,0x80,0x0f,0xfe,0x81,0x1f,0x00,0x00,0x00,0x00,0x00,0x00,0x00,0x00,0x00,0x00,0x00,0x00,0x00,0x00,0x00,0x00,0x00,0x00,0x00,0x00,0xe6,0x0f,0x03,0x00,0x1f,0x7e,0x00,0x80,0x07,0xfe,0x01,0x3f,0x00,0x00,0x00,0x00,0x00,0x00,0x00,0x00,0x00,0x00,0x00,0x00,0x00,0x00,0x00,0x00,0x00,0x00,0x00,0x00,0xff,0x8f,0x02,0x00,0xff,0x7f,0x00,0x00,0x03,0x7e,0x40,0x3e,0x00,0x00,0x00,0x00,0x00,0x00,0x00,0x00,0x00,0x00,0x00,0x00,0x00,0x00,0x00,0x00,0x00,0x00,0x00,0x00,0x3e,0x0f,0x00,0x00,0xfe,0x1f,0x00,0x00,0x80,0x7f,0xa0,0x1f,0x00,0x00,0x00,0x00,0x00,0x00,0x00,0x00,0x00,0x00,0x00,0x00,0x00,0x00,0x00,0x00,0x00,0x00,0x00,0x00,0x7e,0x0f,0x00,0x00,0xff,0x0f,0x00,0x00,0x80,0x77,0xe0,0x1f,0x00,0x00,0x00,0x00,0x00,0x00,0x00,0x00,0x00,0x00,0x00,0x00,0x00,0x00,0x00,0x00,0x00,0x00,0x00,0x00,0x7c,0x0f,0x00,0xe0,0xff,0x01,0x00,0x00,0xc0,0x7f,0xc0,0x0f,0x00,0x00,0x00,0x00,0x00,0x00,0x00,0x00,0x00,0x00,0x00,0x00,0x00,0x00,0x00,0x00,0x00,0x00,0x00,0x00,0x78,0x0f,0x00,0xf0,0xff,0x00,0x00,0x00,0xc0,0x1f,0xc0,0xf3,0xf0,0x00,0x00,0x00,0x00,0x00,0x00,0x00,0x00,0x00,0x00,0x00,0x00,0x00,0x00,0x00,0x00,0x00,0x00,0x00,0x73,0x1f,0x00,0xf8,0xfd,0x07,0x00,0x00,0xc0,0x1f,0x00,0xf8,0xf8,0x00,0x00,0x00,0x00,0x00,0x00,0x00,0x00,0x00,0x00,0x00,0x00,0x00,0x00,0x00,0x00,0x00,0x00,0x80,0x39,0x3f,0x00,0x78,0xfd,0x07,0x00,0x00,0xc0,0x3f,0x00,0xfc,0xfd,0x01,0x00,0x00,0x00,0x00,0x00,0x00,0x00,0x00,0x00,0x00,0x00,0x00,0x00,0x00,0x00,0x00,0x00,0x80,0x3f,0xfe,0x00,0x79,0xfc,0x07,0x00,0x00,0x00,0x7f,0x00,0xfc,0xbc,0x3e,0x00,0x00,0x00,0x00,0x00,0x00,0x00,0x00,0x00,0x00,0x00,0x00,0x00,0x00,0x00,0x00,0x00,0x80,0xcf,0xfe,0xe6,0xff,0xf8,0x03,0x00,0x00,0x80,0x7f,0x30,0x7c,0x7c,0x3e,0x00,0x00,0x00,0x00,0x00,0x00,0x00,0x00,0x00,0x00,0x00,0x00,0x00,0x00,0x00,0x00,0x00,0x80,0xff,0xfe,0xef,0xff,0xff,0x03,0x00,0x00,0xc0,0x31,0xfc,0xfc,0xff,0x3f,0x00,0x00,0x00,0x00,0x00,0x00,0x00,0x00,0x00,0x00,0x00,0x00,0x00,0x00,0x00,0x00,0x00,0x00,0xff,0xfe,0xff,0xff,0xff,0x00,0x00,0x00,0xc0,0x39,0xfe,0xfc,0xef,0x3f,0x00,0x00,0x00,0x00,0x00,0x00,0x00,0x00,0x00,0x00,0x00,0x00,0x00,0x00,0x00,0x00,0x00,0x00,0xfe,0xf0,0xfb,0xf8,0x3f,0x00,0x00,0x00,0xc0,0x3f,0x7e,0xdc,0xdf,0xef,0x00,0x00,0x00,0x00,0x00,0x00,0x00,0x07,0x03,0x00,0x00,0x00,0x00,0x00,0x00,0x00,0x00,0x00,0xe0,0xf0,0xf7,0xf9,0x06,0x00,0x00,0x00,0xc0,0xff,0x3e,0x3c,0xdf,0xff,0x01,0x00,0x00,0x00,0x00,0x00,0x80,0x87,0x07,0x00,0x00,0x00,0x00,0x00,0x00,0x00,0x00,0x00,0xe0,0xf0,0xff,0xff,0x01,0x00,0x00,0x00,0xc0,0xff,0x7f,0x3c,0x40,0xfc,0x01,0x00,0x00,0x00,0x00,0x00,0x80,0xcf,0x0f,0x00,0x00,0x00,0x00,0x00,0x00,0x00,0x00,0x00,0xe6,0xe4,0xff,0xff,0x01,0x00,0x00,0x00,0xe0,0xff,0xff,0x7f,0xfc,0x7f,0x01,0x00,0x00,0x00,0x00,0x00,0xe0,0xef,0xcf,0x00,0x00,0x00,0x00,0x00,0x00,0x00,0x00,0x00,0xf7,0xcf,0xfc,0xff,0x01,0x00,0x60,0x00,0xc0,0xff,0xff,0x3f,0xfe,0xef,0x01,0x00,0x00,0x00,0x00,0x00,0xe0,0xe3,0xf3,0x01,0x00,0x00,0x00,0x00,0x00,0x00,0x00,0x00,0x7f,0x1f,0xfc,0xec,0x00,0x00,0x70,0x00,0xc0,0xde,0xff,0x1f,0xfe,0xff,0x03,0xe0,0xe0,0x00,0x00,0xc0,0xe7,0xe7,0xf3,0x01,0x00,0x00,0x00,0x00,0x00,0x00,0x00,0x00,0xff,0x1f,0xf0,0x00,0x00,0x00,0xf0,0x00,0x00,0xce,0x3f,0x83,0xff,0xff,0x03,0xf0,0xf1,0x00,0x00,0xc0,0xe7,0xff,0x7f,0x01,0x00,0x00,0x00,0x00,0x00,0x00,0x00,0x00,0xfe,0x3f,0x00,0x00,0x00,0x00,0xe0,0x00,0x00,0xdf,0xfc,0xe0,0x7f,0xfc,0x02,0xf8,0xf9,0x01,0x00,0xe0,0xc7,0xff,0x7f,0x00,0x00,0x00,0x00,0x00,0x00,0x00,0x00,0x00,0xfe,0x3f,0x07,0x00,0x00,0x1e,0x6e,0x00,0x00,0x7f,0xf8,0xe0,0x1f,0xf8,0x01,0x78,0xfd,0x19,0x00,0xf0,0xe3,0xfd,0xfe,0x0f,0x00,0x00,0x00,0x00,0x00,0x00,0x00,0x00,0x78,0x3c,0x1f,0x9c,0x01,0x7f,0xfe,0x01,0x00,0xff,0xf8,0xf3,0x0f,0xf0,0x03,0x78,0x7c,0x7e,0x00,0xf0,0xe1,0x31,0xd8,0x1f,0x00,0x00,0x00,0x00,0x00,0x00,0x00,0x00,0x00,0xb8,0x3f,0xfc,0x07,0x7f,0xfe,0x01,0x00,0xff,0xf8,0xf1,0x07,0xf0,0xfb,0xfc,0xfc,0x7f,0x00,0xf0,0xff,0x03,0xce,0x1f,0x00,0x00,0x00,0x00,0x00,0x00,0x00,0x00,0x00,0xb8,0x7f,0xf8,0x3f,0x7f,0xfe,0x01,0x00,0x3f,0xf8,0xf9,0x07,0xfa,0xf8,0xfc,0xff,0x7f,0x00,0xf0,0xff,0xe3,0xff,0x0b,0x00,0x00,0x00,0x00,0x00,0x00,0x00,0x00,0x80,0xf9,0xff,0xe8,0x3f,0x7e,0xfc,0x01,0x00,0x3e,0xfc,0x38,0x07,0xfe,0xfc,0xf8,0xdf,0x1f,0x00,0xe0,0xff,0xf0,0x7f,0x1f,0x00,0x00,0x00,0x00,0x00,0x00,0x00,0x00,0xc0,0xf9,0xff,0xfd,0x7f,0x6e,0xf8,0x01,0x00,0xfe,0xff,0xfc,0x07,0xfe,0xbc,0xbc,0x9f,0xff,0x01,0xf0,0xff,0xfc,0xff,0x1f,0x00,0x00,0x00,0x00,0x00,0x00,0x00,0x00,0xc0,0xff,0xf7,0xfd,0xff,0x2e,0xdc,0x01,0x00,0xfe,0x7f,0xfc,0x03,0x3c,0x3e,0x7c,0x06,0xfa,0x03,0xe0,0x03,0xfe,0xff,0x3f,0x00,0x00,0x00,0x00,0x00,0x00,0x00,0x00,0xc0,0xff,0xf1,0xfd,0xfe,0x7f,0xfc,0x00,0x00,0xfe,0x1f,0xfe,0x01,0x00,0xfe,0xff,0xc0,0xf9,0x83,0x83,0x07,0xcf,0xc0,0x3f,0x00,0x00,0x00,0x00,0x00,0x00,0x00,0x00,0xc0,0xff,0xe0,0xfd,0xf0,0xff,0xfc,0x00,0x00,0xbe,0x0f,0xfc,0x03,0x00,0xfe,0xff,0xfc,0xdf,0xc0,0xc7,0x1f,0xff,0x80,0x1f,0x00,0x00,0x00,0x00,0x00,0x00,0x00,0x00,0x80,0xff,0xe0,0x6d,0xf0,0xff,0xf8,0x01,0x00,0xfe,0x01,0xf0,0x03,0x00,0xfc,0x1f,0xfe,0xdf,0xe3,0xc7,0x1f,0xff,0x80,0x1f,0x00,0x00,0x00,0x00,0x00,0x00,0x00,0x00,0x00,0x1e,0xc0,0x1f,0xe0,0xff,0xfc,0x00,0x00,0xf8,0x0f,0xfc,0x03,0x00,0xfc,0x9f,0xdf,0xff,0xf7,0x85,0x1f,0x3f,0xa0,0x1f,0x00,0x00,0x00,0x00,0x00,0x00,0x00,0x00,0x00,0x00,0xcc,0x3d,0xc0,0x7f,0xfc,0x00,0x00,0xf8,0x0f,0x3c,0x03,0x00,0x7c,0xc0,0xff,0xbe,0xe7,0xc1,0xc7,0x3f,0x80,0x0f,0x00,0x00,0x00,0x00,0x00,0x00,0x00,0x00,0x00,0x00,0xde,0x3f,0xc0,0x1f,0x7c,0x00,0x00,0xf8,0x0f,0x9c,0x03,0xf0,0xf0,0xe0,0x1b,0xf0,0xf3,0xf3,0xc7,0x39,0xf0,0x0f,0x00,0x00,0x00,0x00,0x00,0x00,0x00,0x00,0x00,0x00,0xfe,0x3f,0xcc,0x3f,0x3f,0x0c,0x00,0x80,0x0f,0xfc,0x03,0xf8,0xf8,0xe3,0x1f,0xf0,0xf3,0xff,0xe7,0x1f,0xc0,0x03,0x00,0x00,0x00,0x00,0x00,0x00,0x00,0x00,0x00,0x00,0xfe,0x1f,0xce,0xff,0x3f,0x1e,0x00,0x80,0x07,0xfe,0x07,0xfc,0xf0,0xc3,0x0f,0xf0,0xe3,0xff,0xe3,0x0f,0x80,0x02,0x00,0x00,0x00,0x00,0x00,0x00,0x00,0x00,0x00,0x00,0xfe,0x07,0xfe,0xff,0x1f,0x1e,0x00,0x00,0x00,0xfe,0x0f,0xfc,0xf0,0xe3,0x07,0xf4,0xf2,0xff,0xe0,0x1f,0x00,0x00,0x00,0x00,0x00,0x00,0x00,0x00,0x00,0x00,0x00,0x00,0xfc,0x07,0xfe,0xff,0xe7,0x3f,0x00,0x00,0x00,0xfe,0x1f,0x3e,0xf8,0xf0,0x07,0xfe,0xf1,0x17,0xe0,0x1f,0x00,0x00,0x00,0x00,0x00,0x00,0x00,0x00,0x00,0x00,0x00,0x00,0xf0,0x02,0xfe,0xef,0xf7,0x3f,0x00,0x00,0x00,0xfe,0x1f,0xfe,0xfe,0x78,0x07,0xfc,0x41,0x1f,0xc0,0x3f,0x00,0x00,0x00,0x00,0x00,0x00,0x00,0x00,0x00,0x00,0x00,0x00,0xc0,0x00,0xfc,0x7f,0xf7,0x3f,0x00,0x00,0x00,0xec,0x1c,0xfe,0xff,0xfc,0x07,0x7c,0xc0,0x7f,0xc3,0x19,0x00,0x00,0x00,0x00,0x00,0x00,0x00,0x00,0x00,0x00,0x00,0x00,0x00,0x00,0xf0,0xfe,0x7f,0x3c,0x00,0x00,0x00,0xe4,0x1e,0xfc,0x3f,0xfc,0x03,0x10,0xc0,0xfb,0xe3,0x3c,0x00,0x00,0x00,0x00,0x00,0x00,0x00,0x00,0x00,0x00,0x00,0x00,0x00,0x00,0x00,0xfe,0x7f,0x1f,0x00,0x00,0x00,0x70,0xfc,0xfc,0x1f,0xfc,0x03,0x00,0x80,0xfd,0xe3,0x1e,0x00,0x00,0x00,0x00,0x00,0x00,0x00,0x00,0x00,0x00,0x00,0x00,0x00,0x00,0x00,0xde,0xfb,0x1f,0x00,0x00,0x00,0xf0,0xfa,0xff,0x01,0xfc,0x07,0x00,0x00,0xfc,0xe3,0x7f,0x00,0x00,0x00,0x00,0x00,0x00,0x00,0x00,0x00,0x00,0x00,0x00,0x00,0x00,0x00,0xe0,0xf7,0x1f,0x00,0x00,0x00,0x70,0xff,0xf7,0x03,0xf8,0x07,0x00,0x00,0xfc,0xe1,0x7f,0x00,0x00,0x00,0x00,0x00,0x00,0x00,0x00,0x00,0x00,0x00,0x00,0x00,0x00,0x00,0xe0,0xfd,0x0f,0x00,0x00,0x00,0xf0,0xff,0xff,0x5f,0x38,0x07,0x00,0x38,0xf0,0x63,0xff,0x00,0x00,0x00,0x00,0x00,0x00,0x00,0x00,0x00,0x00,0x00,0x00,0x00,0x00,0x00,0xc0,0xb8,0x1f,0x00,0x00,0x00,0xf0,0xff,0xff,0x7e,0xbc,0x03,0x00,0x7c,0xf0,0xf3,0xff,0x00,0x00,0x00,0x00,0x00,0x00,0x00,0x00,0x00,0x00,0x00,0x00,0x00,0x00,0x00,0xe0,0x81,0x1f,0x00,0x00,0x00,0xe0,0x76,0x86,0x7f,0x7c,0x03,0x00,0x7e,0xf8,0xe1,0xff,0x00,0x00,0x00,0x00,0x00,0x00,0x00,0x00,0x00,0x00,0x00,0x00,0x00,0x00,0x00,0xe0,0xc3,0x0f,0x00,0x00,0x00,0xe0,0x3f,0x87,0x7f,0xfc,0x0f,0x00,0x7f,0xf8,0xe0,0xcf,0x00,0x00,0x00,0x00,0x00,0x00,0x00,0x00,0x00,0x00,0x00,0x00,0x00,0x00,0x00,0xf8,0xc2,0x0f,0x00,0x00,0x00,0xe0,0x3f,0x03,0x3f,0xfc,0x0f,0x00,0x1f,0x7c,0x80,0xf7,0x04,0x00,0x00,0x00,0x00,0x00,0x00,0x00,0x00,0x00,0x00,0x00,0x00,0x00,0x00,0xf0,0xc0,0x07,0x00,0x00,0x00,0xe0,0x39,0x07,0x7e,0xfc,0x1f,0x00,0x3f,0x7e,0x80,0xc7,0x1f,0x00,0x00,0x00,0x00,0x00,0x00,0x00,0x00,0x00,0x00,0x00,0x00,0x00,0x00,0xf8,0xf0,0x03,0x00,0x00,0x00,0xc0,0xbb,0x0f,0x7e,0xfc,0x1f,0x00,0xff,0x7f,0x80,0xf7,0x1f,0x00,0x00,0x00,0x00,0x00,0x00,0x00,0x00,0x00,0x00,0x00,0x00,0x00,0x00,0xf8,0xff,0x03,0x00,0x00,0x00,0x80,0xf9,0x0f,0x3f,0xdc,0x1f,0x00,0xfe,0x3f,0x80,0xdf,0x3f,0x00,0x00,0x1f,0x00,0x00,0x00,0x00,0x00,0x00,0x00,0x00,0x00,0x00,0x00,0xf8,0xff,0x01,0x00,0x00,0x00,0x00,0xf8,0x07,0x3f,0xec,0x1d,0x00,0xff,0x0f,0x84,0xff,0x7f,0x00,0xc0,0x3f,0x00,0x00,0x00,0x00,0x00,0x00,0x00,0x00,0x00,0x00,0x00,0xf8,0x7f,0x00,0x00,0x00,0x00,0x00,0xf0,0x83,0x1f,0xe0,0xbc,0x01,0xdf,0x41,0x06,0xff,0x7f,0x7e,0xf0,0x7f,0x00,0x00,0x00,0x00,0x00,0x00,0x00,0x00,0x00,0x00,0x00,0xf8,0x7e,0x00,0x00,0x00,0x00,0x00,0xf0,0xc7,0x0f,0xe0,0xf8,0x03,0xf6,0xfe,0x0f,0xf7,0xfb,0xff,0xf0,0xff,0x00,0x00,0x00,0x00,0x00,0x00,0x00,0x00,0x00,0x00,0x00,0xf0,0x77,0x06,0x00,0x00,0x00,0x00,0xf0,0xff,0x0f,0xe0,0xfe,0x07,0xfc,0xff,0x0f,0xff,0xfb,0xff,0xf1,0xff,0x00,0x00,0x00,0x00,0x00,0x00,0x00,0x00,0xfc,0x00,0x00,0xe0,0xff,0x0f,0x00,0x00,0x00,0x00,0xe0,0xff,0x07,0xe0,0xff,0x0f,0xfc,0xff,0x0f,0xde,0xc1,0xff,0xed,0xef,0x00,0x00,0x00,0x00,0x00,0x00,0x00,0x00,0x6e,0x03,0x00,0xe0,0xff,0x0f,0x00,0x00,0x00,0x00,0xe0,0xff,0x01,0xe0,0xff,0x8f,0xfc,0xe7,0x0f,0xde,0xd3,0xff,0xef,0xf7,0x00,0x00,0x00,0x00,0x00,0x00,0x00,0xc0,0xff,0x03,0x00,0xc0,0xbf,0x0f,0x00,0x00,0x00,0x00,0xc0,0x2f,0x18,0xe0,0xff,0xcf,0xdf,0xff,0x1f,0xdc,0xbb,0xdf,0xff,0x67,0x00,0x00,0x00,0x00,0x00,0x00,0x00,0xc0,0xfe,0x0f,0x00,0xf8,0xfe,0x07,0x00,0x00,0x00,0x00,0xc0,0xfe,0x3f,0xe0,0x7f,0xfe,0xdf,0xfb,0x1f,0xc0,0xfb,0xdf,0xfd,0x07,0x00,0x00,0x00,0x00,0x00,0x00,0x00,0xe0,0xef,0x07,0x00,0xf8,0xfe,0x07,0x00,0x00,0x00,0x00,0x80,0xff,0x3f,0xc0,0x7f,0xdf,0x7f,0xf0,0x1f,0xc0,0xff,0x8e,0xfc,0x07,0x00,0x00,0x00,0x00,0x00,0x00,0x00,0xc0,0xff,0x0f,0x00,0xfe,0xfc,0x03,0x00,0x00,0x00,0x00,0x80,0xf7,0x3f,0xc0,0x7b,0xf8,0x7f,0xc0,0x1f,0x80,0xff,0x0f,0xf6,0x07,0x00,0x00,0x00,0x00,0x00,0x00,0x00,0xd8,0x7f,0x07,0x00,0x3c,0xf0,0x01,0x00,0x00,0x00,0x00,0x00,0xfb,0x3c,0xc0,0x7b,0xfe,0x7f,0x80,0x1f,0x80,0xff,0x1f,0xf7,0x0f,0x00,0x00,0x00,0x00,0x00,0x00,0x00,0x9c,0x3f,0x0e,0x00,0x3e,0xfc,0x00,0x00,0x00,0x00,0x00,0x00,0xf8,0x1f,0x00,0x7b,0xf6,0x7b,0xc0,0x1f,0x80,0xdf,0x1e,0x3f,0x3f,0x18,0x00,0x00,0x00,0x00,0x00,0x00,0xfc,0x1d,0x03,0x00,0xfe,0xff,0x00,0x00,0x00,0x00,0x00,0x00,0x78,0x0e,0x00,0xf8,0xff,0x33,0x80,0x0f,0x00,0xfe,0x3e,0x7f,0xff,0x3d,0x00,0x00,0x00,0x00,0x00,0x00,0xfc,0x1f,0x02,0x00,0xfe,0xff,0x00,0x00,0x00,0x00,0x00,0x00,0x00,0x0e,0x00,0xf0,0xdf,0xc1,0x81,0x1f,0x00,0xfe,0x7c,0x7e,0xff,0x3f,0x00,0x00,0x00,0x00,0x00,0x00,0x7c,0x1e,0x00,0x00,0xfc,0x1f,0x00,0x00,0x00,0x00,0x00,0x00,0x00,0x00,0x00,0xf0,0xff,0xe3,0xc3,0x1f,0x00,0xfc,0xfc,0xff,0xfe,0x3f,0x00,0x00,0x00,0x00,0x00,0x00,0xf8,0x1e,0x00,0x80,0xbf,0x1f,0x00,0x00,0x00,0x00,0x00,0x00,0x00,0x00,0x00,0xf0,0xff,0xf3,0xc3,0x0f,0x00,0xf8,0xfc,0xe7,0xfc,0x1f,0x00,0x00,0x00,0x00,0x00,0x00,0xe0,0x3e,0x00,0xe0,0xff,0x01,0x00,0x00,0x00,0x00,0x00,0x00,0x00,0x00,0x00,0xf0,0xfb,0xf3,0xc1,0x0f,0x00,0xf0,0xf0,0xef,0xf8,0xff,0x00,0x00,0x00,0x00,0x00,0x00,0xe6,0x3e,0x00,0xe0,0xf7,0x0f,0x00,0x18,0x00,0x00,0x00,0x00,0x00,0x00,0x00,0xc0,0xdf,0xff,0xe0,0x03,0x00,0x00,0xf0,0xef,0xf0,0xf7,0x01,0x00,0x00,0x00,0x00,0x00,0xe6,0x3e,0x00,0xf0,0xff,0x1f,0x00,0x7e,0x00,0x00,0x00,0x00,0x00,0x00,0x00,0x80,0x9f,0xff,0xf9,0xe3,0x01,0x00,0xe0,0xff,0x81,0xef,0x01,0x00,0x00,0x00,0x00,0x00,0x7f,0xfc,0x01,0xf0,0x71,0x0f,0x00,0xff,0x00,0x00,0x00,0x00,0x00,0x00,0x00,0x80,0x9f,0xff,0xff,0xe3,0x01,0x00,0xc0,0xff,0x01,0x0e,0x00,0x00,0x00,0x00,0x00,0x00,0x3f,0xfd,0x85,0xf7,0xe1,0x0f,0x80,0xff,0x00,0x00,0x00,0x00,0x00,0x00,0x00,0x00,0x9f,0xff,0xff,0xfd,0x03,0x00,0x00,0xfe,0x01,0x00,0x00,0x00,0x00,0x00,0x00,0x00,0xfe,0xf9,0x9f,0xff,0xff,0x07,0x80,0xff,0x00,0x00,0x00,0x00,0x00,0x00,0x00,0x00,0x1e,0xfe,0x7f,0xff,0x03,0x00,0x00,0x78,0x00,0x00,0x00,0x00,0x00,0x00,0x00,0x00,0xfe,0x79,0xff,0xff,0xff,0x03,0x80,0xff,0x00,0x00,0x00,0x00,0x00,0x00,0x00,0x00,0x00,0xfe,0x0f,0xff,0x03,0x00,0x00,0x00,0x00,0x00,0x00,0x00,0x00,0x00,0x00,0x00,0xf8,0xfb,0xff,0xff,0xff,0x00,0x00,0x1d,0x00,0x00,0x00,0x00,0x00,0x00,0x00,0x00,0x00,0xfc,0xff,0xcf,0x03,0x00,0x00,0x00,0x00,0x00,0x00,0x00,0x00,0x00,0x00,0x00,0xc0,0xe3,0xef,0xf3,0x7d,0x00,0x00,0xfc,0x03,0x00,0x00,0x00,0x00,0x00,0x00,0x00,0x00,0xf0,0xff,0xef,0x03,0x00,0x00,0x00,0x00,0x00,0x00,0x00,0x00,0x00,0x00,0x00,0xc0,0xc3,0xef,0xff,0x03,0xe0,0x39,0xfc,0x07,0x00,0x00,0x00,0x00,0x00,0x00,0x00,0x00,0xe0,0xfd,0xef,0x03,0x00,0x00,0x00,0x00,0x00,0x00,0x00,0x00,0x00,0x00,0x00,0xdc,0x8b,0xff,0xff,0x07,0xf0,0x7f,0xfc,0x0f,0x00,0x00,0x00,0x00,0x00,0x00,0x00,0x00,0xc0,0xbe,0xef,0x01,0x00,0x00,0x00,0x00,0x00,0x00,0x00,0x00,0x00,0x00,0x00,0xcc,0x99,0xff,0xff,0x07,0xf0,0xff,0xfb,0x0f,0x00,0x00,0x00,0x00,0x00,0x00,0x00,0x00,0x00,0xfe,0x07,0x00,0x00,0x00,0x00,0x00,0x00,0x00,0x00,0x00,0x00,0x00,0x00,0xfc,0x1f,0xf8,0xfd,0x03,0xfe,0xfd,0xd7,0x06,0x00,0x00,0x00,0x00,0x00,0x00,0x00,0x00,0x00,0xde,0x03,0x00,0x00,0x00,0x00,0x00,0x00,0x00,0x00,0x00,0x00,0x00,0x00,0xfc,0x7f,0xe0,0x01,0x80,0xff,0xff,0xe7,0x06,0x00,0x00,0x00,0x00,0x00,0x00,0x00,0x00,0x00,0x80,0x01,0x00,0x00,0x00,0x00,0x00,0x00,0x00,0x00,0x00,0x00,0x00,0x00,0xfc,0x7f,0x00,0x00,0x00,0xff,0xff,0xff,0x03,0x00,0x00,0x00,0x00,0x00,0x00,0x00,0x00,0x00,0x00,0x00,0x00,0x00,0x00,0x00,0x00,0x00,0x00,0x00,0x00,0x00,0x00,0x00,0xf8,0x7f,0x04,0x00,0x00,0xf6,0xff,0xdf,0x07,0x00,0x00,0x00,0x00,0x00,0x00,0x00,0x00,0x00,0x00,0x00,0x00,0x00,0x00,0x00,0x00,0x00,0x00,0x00,0x00,0x00,0x00,0x00,0xf0,0xf1,0x0c,0x00,0x02,0xfe,0x01,0xdf,0x0f,0x00,0x00,0x00,0x00,0x00,0x00,0x00,0x00,0x00,0x00,0x00,0x00,0x00,0x00,0x00,0x00,0x00,0x00,0x00,0x00,0x00,0x00,0x00,0x80,0xf0,0x7c,0xf8,0x0f,0xfe,0x01,0x9e,0x0f,0x00,0x00,0x00,0x00,0x00,0x00,0x00,0x00,0x00,0x00,0x00,0x00,0x00,0x00,0x00,0x00,0x00,0x00,0x00,0x00,0x00,0x00,0x00,0x00,0xf0,0xff,0xf0,0x3f,0xfe,0x01,0xfc,0x0f,0x00,0x00,0x00,0x00,0x00,0x00,0x00,0x00,0x00,0x00,0x00,0x00,0x00,0x00,0x00,0x00,0x00,0x00,0x00,0x00,0x00,0x00,0x00,0x00,0x72,0xff,0xf0,0xff,0xf8,0x01,0xfc,0x05,0x00,0x00,0x00,0x00,0x00,0x00,0x00,0x00,0x00,0x00,0x00,0x00,0x00,0x00,0x00,0x00,0x00,0x00,0x00,0x00,0x00,0x00,0x00,0x00,0xf7,0xff,0xf3,0xff,0xd8,0x00,0xfc,0x03,0x00,0x00,0x00,0x00,0x00,0x00,0x00,0x00,0x00,0x00,0x00,0x00,0x00,0x00,0x00,0x00,0x00,0x00,0x00,0x00,0x00,0x00,0x00,0x80,0xfb,0xff,0xf3,0xff,0x3c,0xc0,0xfd,0x03,0x00,0x00,0x00,0x00,0x00,0x00,0x00,0x00,0x00,0x00,0x00,0x00,0x00,0x00,0x00,0x00,0x00,0x00,0x00,0x00,0x00,0x00,0x00,0x80,0xff,0xef,0xf3,0xff,0x7f,0xc0,0xfd,0x03,0x00,0x00,0x00,0x00,0x00,0x00,0x00,0x00,0x00,0x00,0x00,0x00,0x00,0x00,0x00,0x00,0x00,0x00,0x00,0x00,0x00,0x00,0x00,0x00,0xff,0x83,0xff,0xf9,0xfb,0xe0,0x7f,0x03,0x00,0x00,0x00,0x00,0x00,0x00,0x00,0x00,0x00,0x00,0x00,0x00,0x00,0x00,0x00,0x00,0x00,0x00,0x00,0x00,0x00,0x00,0x00,0x00,0xff,0x83,0xff,0xe1,0xfb,0xc1,0xff,0x01,0x00,0x00,0x00,0x00,0x00,0x00,0x00,0x00,0x00,0x00,0x00,0x00,0x00,0x00,0x00,0x00,0x00,0x00,0x00,0x00,0x00,0x00,0x00,0x00,0xfe,0x01,0xbf,0x80,0xff,0xc1,0xff,0x00,0x00,0x00,0x00,0x00,0x00,0x00,0x00,0x00,0x00,0x00,0x00,0x00,0x00,0x00,0x00,0x00,0x00,0x00,0x00,0x00,0x00,0x00,0x00,0x00,0x38,0x90,0x7f,0x80,0xff,0x81,0xff,0x00,0x00,0x00,0x00,0x00,0x00,0x00,0x00,0x00,0x00,0x00,0x00,0x00,0x00,0x00,0x00,0x00,0x00,0x00,0x00,0x00,0x00,0x00,0x00,0x00,0x00,0xb8,0x7f,0x00,0x7f,0x00,0x1f,0x00,0x00,0x00,0x00,0x00,0x00,0x00,0x00,0x00,0x00,0x00,0x00,0x00,0x00,0x00,0x00,0x00,0x00,0x00,0x00,0x00,0x00,0x00,0x00,0x00,0x00,0x98,0x7f,0x90,0x7f,0x00,0x00,0x00,0x00,0x00,0x00,0x00,0x00,0x00,0x00,0x00,0x00,0x00,0x00,0x00,0x00,0x00,0x00,0x00,0x00,0x00,0x00,0x00,0x00,0x00,0x00,0x00,0x00,0xfc,0x7f,0xb8,0x7f,0x00,0x00,0x00,0x00,0x00,0x00,0x00,0x00,0x00,0x00,0x00,0x00,0x00,0x00,0x00,0x00,0x00,0x00,0x00,0x00,0x00,0x00,0x00,0x00,0x00,0x00,0x00,0x00,0xf8,0x1f,0xdc,0x7f,0x00,0x00,0x00,0x00,0x00,0x00,0x00,0x00,0x00,0x00,0x00,0x00,0x00,0x00,0x00,0x00,0x00,0x00,0x00,0x00,0x00,0x00,0x00,0x00,0x00,0x00,0x00,0x00,0xf8,0x1f,0xf8,0x7f,0x00,0x00,0x00,0x00,0x00,0x00,0x00,0x00,0x00,0x00,0x00,0x00,0x00,0x00,0x00,0x00,0x00,0x00,0x00,0x00,0x00,0x00,0x00,0x00,0x00,0x00,0x00,0x00,0xf0,0x0f,0xf8,0x1f,0x00,0x00,0x00,0x00,0x00,0x00,0x00,0x00,0x00,0x00,0x00,0x00,0x00,0x00,0x00,0x00,0x00,0x00,0x00,0x00,0x00,0x00,0x00,0x00,0x00,0x00,0x00,0x00,0xe0,0x03,0xf0,0x1f,0x00,0x00,0x00,0x00,0x00,0x00,0x00,0x00,0x00,0x00,0x00,0x00,0x00,0x00,0x00,0x00,0x00,0x00,0x00,0x00,0x00,0x00,0x00,0x00,0x00,0x00,0x00,0x00,0x00,0x00,0xe0,0x0b,0x00,0x00,0x00,0x00,0x00,0x00,0x00,0x00,0x00,0x00,0x00,0x00,0x00,0x00,0x00,0x00,0x00,0x00,0x00,0x00,0x00,0x00,0x00,0x00,0x00,0x00,0x00,0x00,0x00,0x00,0x80,0x01,0x00,0x00,0x00,0x00,0x00,0x00,0x00,0x00,0x00,0x00,0x00,0x00,0x00,0x00,0x00,0x00,0x00,0x00,0x00,0x00,0x00,0x00,0x00,0x00,0x00,0x00,0x00,0x00,0x00,0x00,0x00,0x00,0x00,0x00,0x00,0x00,0x00,0x00,0x00,0x00,0x00,0x00,0x00,0x00,0x00,0x00,0x00,0x00,0x00,0x00,0x00,0x00,0x00,0x00,0x00,0x00,0x00,0x00,0x00,0x00,0x00,0x00,0x00,0x00,0x00,0x00,0x00,0x00,0x00,0x00,0x00,0x00,0x00,0x00,0x00,0x00,0x00,0x00,0x00,0x00,0x00,0x00,0x00,0x00,0x00,0x00,0x00,0x00,0x00,0x00,0x00,0x00,0x00,0x00,0x00,0x00,0x00,0x00,0x00,0x00,0x00,0x00,0x00,0x00,0x00,0x00,0x00,0x00,0x00,0x00,0x00,0x00,0x00,0x00,0x00,0x00,0x00,0x00,0x00,0x00,0x00,0x00,0x00,0x00,0x00,0x00,0x00,0x00,0x00,0x00,0x00,0x00,0x00,0x00,0x00,0x00,0x00,0x00,0x00,0x00,0x00,0x00,0x00,0x00,0x00,0x00,0x00,0x00,0x00,0x00,0x00,0x00,0x00,0x00,0x00,0x00,0x00,0x00,0x00,0x00,0x00,0x00,0x00,0x00,0x00,0x00,0x00,0x00,0x00,0x00,0x00,0x00,0x00,0x00,0x00,0x00,0x00,0x00,0x00,0x00,0x00,0x00,0x00,0x00,0x00,0x00,0x00,0x00,0x00,0x00,0x00,0x00,0x00,0x00,0x00,0x00,0x00,0x00,0x00,0x00,0x00,0x00,0x00,0x00,0x00,0x00,0x00,0x00,0x00,0x00,0x00,0x00,0x00,0x00,0x00,0x00,0x00,0x00,0x00,0x00,0x00,0x00,0x00,0x00,0x00,0x00,0x00,0x00,0x00,0x00,0x00,0x00,0x00,0x00,0x00,0x00,0x00,0x00,0x00,0x00,0x00,0x00,0x00,0x00,0x00,0x00,0x00,0x00,0x00,0x00,0x00,0x00,0x00,0x00,0x00,0x00,0x00,0x00,0x00,0x00,0x00,0x00,0x00,0x00,0x00,0x00,0x00,0x00,0x00,0x00,0x00,0x00,0x00,0x00,0x00,0x00,0x00,0x00,0x00,0x00,0x00,0x00,0x00,0x00,0x00,0x00,0x00,0x00,0x00,0x00,0x00,0x00,0x00,0x00,0x00,0x00,0x00,0x00,0x00,0x00,0x00,0x00,0x00,0x00,0x00,0x00,0x00,0x00,0x00,0x00,0x00,0x00,0x00,0x00,0x00,0x00,0x00,0x00,0x00,0x00,0x00,0x00,0x00,0x00,0x00,0x00,0x00,0x00,0x00,0x00,0x00,0x00,0x00,0x00,0x00,0x00,0x00,0x00,0x00,0x00,0x00,0x00,0x00,0x00,0x00,0x00,0x00,0x00,0x00,0x00,0x00,0x00,0x00,0x00,0x00,0x00,0x00,0x00,0x00,0x00,0x00,0x00,0x00,0x00,0x00,0x00,0x00,0x00,0x00,0x00,0x00,0x00,0x00,0x00,0x00,0x00,0x00,0x00,0x00,0x00,0x00,0x00,0x00,0x00,0x00,0x00,0x00,0x00,0x00,0x00,0x00,0x00,0x00,0x00,0x00,0x00,0x00,0x00,0x00,0x00,0x00,0x00,0x00,0x00,0x00,0x00,0x00,0x00,0x00,0x00,0x00,0x00,0x00,0x00,0x00,0x00,0x00,0x00,0x00,0x00,0x00,0x00,0x00,0x00,0x00,0x00,0x00,0x00,0x00,0x00,0x00,0x00,0x00,0x00,0x00,0x00,0x00,0x00,0x00,0x00,0x00,0x00,0x00,0x00,0x00,0x00,0x00,0x00,0x00,0x00,0x00,0x00,0x00,0x00,0x00,0x00,0x00,0x00,0x00,0x00,0x00,0x00,0x00,0x00,0x00,0x00,0x00,0x00,0x00,0x00,0x00,0x00,0x00,0x00,0x00,0x00,0x00,0x00,0x00,0x00,0x00,0x00,0x00,0x00,0x00,0x00,0x00,0x00,0x00,0x00,0x00,0x00,0x00,0x00,0x00,0x00,0x00,0x00,0x00,0x00,0x00,0x00,0x00,0x00,0x00,0x00,0x00,0x00,0x00,0x00,0x00,0x00,0x00,0x00,0x00,0x00,0x00,0x00,0x00,0x00,0x00,0x00,0x00,0x00,0x00,0x00,0x00,0x00,0x00,0x00,0x00,0x00,0x00,0x00,0x00,0x00,0x00,0x00,0x00,0x00,0x00,0x00,0x00,0x00,0x00,0x00,0x00,0x00,0x00,0x00,0x00,0x00,0x00,0x00,0x00,0x00,0x00,0x00,0x00,0x00,0x00,0x00,0x00,0x00,0x00,0x00,0x00,0x00,0x00,0x00,0x00,0x00,0x00,0x00,0x00,0x00,0x00,0x00,0x00,0x00,0x00,0x00,0x00,0x00,0x00,0x00,0x00,0x00,0x00,0x00,0x00,0x00,0x00,0x00,0x00,0x00,0x00,0x00,0x00,0x00,0x00,0x00,0x00,0x00,0x00,0x00,0x00,0x00,0x00,0x00,0x00,0x00,0x00,0x00,0x00,0x00,0x00,0x00,0x00,0x00,0x00,0x00,0x00,0x00,0x00,0x00,0x00,0x00,0x00,0x00,0x00,0x00,0x00,0x00,0x00,0x00,0x00,0x00,0x00,0x00,0x00,0x00,0x00,0x00,0x00,0x00,0x00,0x00,0x00,0x00,0x00,0x00,0x00,0x00,0x00,0x00,0x00,0x00,0x00,0x00,0x00,0x00,0x00,0x00,0x00,0x00,0x00,0x00,0x00,0x00,0x00,0x00,0x00,0x00,0x00,0x00,0x00,0x00,0x00,0x00,0x00,0x00,0x00,0x00,0x00,0x00,0x00,0x00,0x00,0x00,0x00,0x00,0x00,0x00,0x00,0x00,0x00,0x00,0x00,0x00,0x00,0x00,0x00,0x00,0x00,0x00,0x00,0x00,0x00,0x00,0x00,0x00,0x00,0x00,0x00,0x00,0x00,0x00,0x00,0x00,0x00,0x00,0x00,0x00,0x00,0x00,0x00,0x00,0x00,0x00,0x00,0x00,0x00,0x00,0x00,0x00,0x00,0x00,0x00,0x00,0x00,0x00,0x00,0x00,0x00,0x00,0x00,0x00,0x00,0x00,0x00,0x00,0x00,0x00,0x00,0x00,0x00,0x00,0x00,0x00,0x00,0x00,0x00,0x00,0x00,0x00,0x00,0x00,0x00,0x00,0x00,0x00,0x00,0x00,0x00,0x00,0x00,0x00,0x00,0x00,0x00,0x00,0x00,0x00,0x00,0x00,0x00,0x00,0x00,0x00,0x00,0x00,0x00,0x00,0x00,0x00,0x00,0x00,0x00,0x00,0x00,0x00,0x00,0x00,0x00,0x00,0x00,0x00,0x00,0x00,0x00,0x00,0x00,0x00,0x00,0x00,0x00,0x00,0x00,0x00,0x00,0x00,0x00,0x00,0x00,0x00,0x00,0x00,0x00,0x00,0x00,0x00,0x00,0x00,0x00,0x00,0x00,0x00,0x00,0x00,0x00,0x00,0x00,0x00,0x00,0x00,0x00,0x00,0x00,0x00,0x00,0x00,0x00,0x00,0x00,0x00,0x00,0x00,0x00,0x00,0x00,0x00,0x00,0x00,0x00,0x00,0x00,0x00,0x00,0x00,0x00,0x00,0x00,0x00,0x00,0x00,0x00,0x00,0x00,0x00,0x00,0x00,0x00,0x00,0x00,0x00,0x00,0x00,0x00,0x00,0x00,0x00,0x00,0x00,0x00,0x00,0x00,0x00,0x00,0x00,0x00,0x00,0x00,0x00,0x00,0x00,0x00,0x00,0x00,0x00,0x00,0x00,0x00,0x00,0x00,0x00,0x00,0x00,0x00,0x00,0x00,0x00,0x00,0x00,0x00,0x00,0x00,0x00,0x00,0x00,0x00,0x00,0x00,0x00,0x00,0x00,0x00,0x00,0x00,0x00,0x00,0x00,0x00,0x00,0x00,0x00,0x00,0x00,0x00,0x00,0x00,0x00,0x00,0x00,0x00,0x00,0x00,0x00,0x00,0x00,0x00,0x00,0x00,0x00,0x00,0x00,0x00,0x00,0x00,0x00,0x00,0x00,0x00,0x00,0x00,0x00,0x00,0x00,0x00,0x00,0x00,0x00,0x00,0x00,0x00,0x00,0x00,0x00,0x00,0x00,0x00,0x00,0x00,0x00,0x00,0x00,0x00,0x00,0x00,0x00,0x00,0x00,0x00,0x00,0x00,0x00,0x00,0x00,0x00,0x00,0x00,0x00,0x00,0x00,0x00,0x00,0x00,0x00,0x00,0x00,0x00,0x00,0x00,0x00,0x00,0x00,0x00,0x00,0x00,0x00,0x00,0x00,0x00,0x00,0x00,0x00,0x00,0x00,0x00,0x00,0x00,0x00,0x00,0x00,0x00,0x00,0x00,0x00,0x00,0x00,0x00,0x00,0x00,0x00,0x00,0x00,0x00,0x00,0x00,0x00,0x00,0x00,0x00,0x00,0x00,0x00,0x00,0x00,0x00,0x00,0x00,0x00,0x00,0x00,0x00,0x00,0x00,0x00,0x00,0x00,0x00,0x00,0x00,0x00,0x00,0x00,0x00,0x00,0x00,0x00,0x00,0x00,0x00,0x00,0x00,0x00,0x00,0x00,0x00,0x00,0x00,0x00,0x00,0x00,0x00,0x00,0x00,0x00,0x00,0x00,0x00,0x00,0x00,0x00,0x00,0x00,0x00,0x00,0x00,0x00,0x00,0x00,0x00,0x00,0x00,0x00,0x00,0x00,0x00,0x00,0x00,0x00,0x00,0x00,0x00,0x00,0x00,0x00,0x00,0x00,0x00,0x00,0x00,0x00,0x00,0x00,0x00,0x00,0x00,0x00,0x00,0x00,0x00,0x00,0x00,0x00,0x00,0x00,0x00,0x00,0x00,0x00,0x00,0x00,0x00,0x00,0x00,0x00,0x00,0x00,0x00,0x00,0x00,0x00,0x00,0x00,0x00,0x00,0x00,0x00,0x00,0x00,0x00,0x00,0x00,0x00,0x00,0x00,0x00,0x00,0x00,0x00,0x00,0x00,0x00,0x00,0x00,0x00,0x00,0x00,0x00,0x00,0x00,0x00,0x00,0x00,0x00,0x00,0x00,0x00,0x00,0x00,0x00,0x00,0x00,0x00,0x00,0x00,0x00,0x00,0x00,0x00,0x00,0x00,0x00,0x00,0x00,0x00,0x00,0x00,0x00,0x00,0x00,0x00,0x00,0x00,0x00,0x00,0x00,0x00,0x00,0x00,0x00,0x00,0x00,0x00,0x00,0x00,0x00,0x00,0x00,0x00,0x00,0x00,0x00,0x00,0x00,0x00,0x00,0x00,0x00,0x00,0x00,0x00,0x00,0x00,0x00,0x00,0x00,0x00,0x00,0x00,0x00,0x00,0x00,0x00,0x00,0x00,0x00,0x00,0x00,0x00,0x00,0x00,0x00,0x00,0x00,0x00,0x00,0x00,0x00,0x00,0x00,0x00,0x00,0x00,0x00,0x00,0x00,0x00,0x00,0x00,0x00,0x00,0x00,0x00,0x00,0x00,0x00,0x00,0x00,0x00,0x00,0x00,0x00,0x00,0x00,0x00,0x00,0x00,0x00,0x00,0x00,0x00,0x00,0x00,0x00,0x00,0x00,0x00,0x00,0x00,0x00,0x00,0x00,0x00,0x00,0x00,0x00,0x00,0x00,0x00,0x00,0x00,0x00,0x00,0x00,0x00,0x00,0x00,0x00,0x00,0x00,0x00,0x00,0x00,0x00,0x00,0x00,0x00,0x00,0x00,0x00,0x00,0x00,0x00,0x00,0x00,0x00,0x00,0x00,0x00,0x00,0x00,0x00,0x00,0x00,0x00,0x00,0x00,0x00,0x00,0x00,0x00,0x00,0x00,0x00,0x00,0x00,0x00,0x00,0x00,0x00,0x00,0x00,0x00,0x00,0x00,0x00};
