#define x_width 256
#define x_height 256
static char x_bits[] = {
0x7f,0xfe,0x01,0xff,0xfc,0x01,0x00,0xe0,0x8f,0x3b,0xc0,0x9f,0x7f,0x00,0x00,0x00,0x00,0x00,0x00,0xfe,0xf9,0x03,0xdc,0xf1,0x07,0x00,0x80,0x3b,0xff,0x80,0x7f,0xfe,0x7f,0xfe,0x01,0xff,0xfc,0x01,0x00,0xe0,0x8f,0x3b,0xc0,0x9f,0x7f,0x00,0x00,0x00,0x00,0x00,0x00,0xfe,0xf9,0x03,0xdc,0xf1,0x07,0x00,0x80,0x3b,0xff,0x80,0x7f,0xfe,0x7f,0xfe,0x01,0xff,0xfc,0x01,0x00,0xe0,0x8f,0x3f,0xc0,0x9f,0x7f,0x00,0x00,0x00,0x00,0x00,0x00,0xfe,0xf9,0x03,0xfc,0xf1,0x07,0x00,0x80,0x3f,0xff,0x80,0x7f,0xfe,0x7f,0xfc,0x01,0xfe,0xfc,0x01,0x00,0xe0,0x0f,0x3f,0x40,0x1f,0x7f,0x00,0x00,0x00,0x00,0x00,0x00,0xfe,0xf1,0x02,0xfc,0xf1,0x07,0x00,0x80,0x3f,0xff,0x80,0x7f,0xfe,0x7f,0xfe,0x01,0xff,0xfc,0x01,0x00,0xe0,0x8f,0x3b,0xc0,0x9f,0x7f,0x00,0x00,0x00,0x00,0x00,0x00,0xfe,0xf9,0x03,0xdc,0x71,0x07,0x00,0x80,0x3f,0xff,0x80,0x7f,0xfe,0x7f,0xfe,0x01,0xff,0xdc,0x01,0x00,0xe0,0x8f,0x3b,0xc0,0x9f,0x7f,0x00,0x00,0x00,0x00,0x00,0x00,0xfe,0xf9,0x03,0xdc,0xf1,0x07,0x00,0x80,0x3f,0xff,0x80,0x7f,0xfe,0xff,0xff,0x01,0xff,0xff,0x01,0x00,0xe0,0xfe,0x3b,0xc0,0xff,0x7f,0x00,0x00,0x00,0x00,0x00,0x00,0xfe,0xff,0x03,0xdc,0xff,0x07,0x00,0x80,0xfb,0xff,0x80,0xff,0xff,0xc0,0x03,0x00,0x80,0x07,0x00,0x00,0x00,0xf8,0x00,0x00,0xf0,0x00,0x00,0x00,0x00,0x00,0x00,0x00,0x00,0x0f,0x00,0x00,0x0f,0x00,0x00,0x00,0xe0,0x01,0x00,0xc0,0x03,0xc0,0x03,0x00,0x80,0x07,0x00,0x00,0x00,0xf8,0x00,0x00,0xf0,0x00,0x00,0x00,0x00,0x00,0x00,0x00,0x00,0x0f,0x00,0x00,0x0f,0x00,0x00,0x00,0xe0,0x01,0x00,0xc0,0x03,0xf7,0xff,0x01,0xff,0xff,0x01,0x00,0xe0,0xff,0x3b,0xc0,0xfd,0x7f,0x00,0x00,0x00,0x00,0x00,0x00,0xfe,0xff,0x03,0xdc,0xff,0x07,0x00,0x80,0xff,0xff,0x80,0xff,0xef,0x7f,0xfe,0x01,0xff,0xdc,0x01,0x00,0xe0,0x8f,0x3b,0xc0,0x9f,0x7f,0x00,0x00,0x00,0x00,0x00,0x00,0xfe,0xf9,0x03,0xdc,0xf1,0x07,0x00,0x80,0x3f,0xff,0x80,0x7f,0xfe,0x77,0xfe,0x01,0xff,0xdc,0x01,0x00,0xe0,0x8e,0x3b,0xc0,0x9d,0x7f,0x00,0x00,0x00,0x00,0x00,0x00,0xfe,0xf9,0x03,0xdc,0xf1,0x07,0x00,0x80,0x3b,0xff,0x80,0x7f,0xfe,0x7f,0xfe,0x01,0xff,0xfc,0x01,0x00,0xe0,0x8f,0x3f,0xc0,0x9f,0x7f,0x00,0x00,0x00,0x00,0x00,0x00,0xfe,0xf9,0x03,0xfc,0xf1,0x07,0x00,0x80,0x3f,0xff,0x80,0x7f,0xfe,0x7f,0xfe,0x01,0xff,0xfc,0x01,0x00,0xe0,0x8f,0x3f,0xc0,0x9f,0x7f,0x00,0x00,0x00,0x00,0x00,0x00,0xfe,0xf9,0x03,0xfc,0xf1,0x07,0x00,0x80,0x3f,0xff,0x80,0x7f,0xfe,0x7f,0xfe,0x01,0xff,0xfc,0x01,0x00,0xe0,0x8e,0x3b,0xc0,0x9f,0x7f,0x00,0x00,0x00,0x00,0x00,0x00,0xfe,0xb9,0x03,0xdc,0xf1,0x07,0x00,0x80,0x3f,0xff,0x80,0x7f,0xfe,0x7f,0xfe,0x01,0xff,0xfc,0x01,0x00,0xe0,0x8f,0x3b,0xc0,0x9f,0x7f,0x00,0x00,0x00,0x00,0x00,0x00,0xfe,0xb9,0x03,0xdc,0xf1,0x07,0x00,0x80,0x3f,0xff,0x80,0x7f,0xfe,0x7f,0xfe,0xef,0xff,0xdc,0x01,0x00,0xe0,0x8f,0xfb,0xff,0x9f,0x7f,0x00,0x00,0x00,0x00,0x00,0x00,0xfe,0xf9,0xff,0xdf,0xf1,0x07,0x00,0x80,0x3f,0xff,0xf7,0x7f,0xfe,0x00,0x00,0xef,0x01,0x00,0x00,0x00,0x00,0x00,0xe0,0x7f,0x00,0x00,0x00,0x00,0x00,0x00,0x00,0x00,0x00,0x00,0xfc,0x07,0x00,0x00,0x00,0x00,0x00,0x80,0xf7,0x00,0x00,0x00,0x00,0xef,0x01,0x00,0x00,0x00,0x00,0x00,0xe0,0x3f,0x00,0x00,0x00,0x00,0x00,0x00,0x00,0x00,0x00,0x00,0xfc,0x07,0x00,0x00,0x00,0x00,0x00,0x80,0xf7,0x00,0x00,0x00,0x00,0xff,0x01,0x00,0x00,0x00,0x00,0x00,0xe0,0x7f,0x00,0x00,0x00,0x00,0x00,0x00,0x00,0x00,0x00,0x00,0xfe,0x07,0x00,0x00,0x00,0x00,0x00,0x80,0xff,0x00,0x00,0x00,0x00,0x38,0x00,0x00,0x00,0x00,0x00,0x00,0x00,0x06,0x00,0x00,0x00,0x00,0x00,0x00,0x00,0x00,0x00,0x00,0x60,0x00,0x00,0x00,0x00,0x00,0x00,0x00,0x1c,0x00,0x00,0x00,0x00,0xff,0x01,0x00,0x00,0x00,0x00,0x00,0xe0,0x7f,0x00,0x00,0x00,0x00,0x00,0x00,0x00,0x00,0x00,0x00,0xfe,0x07,0x00,0x00,0x00,0x00,0x00,0x80,0xff,0x00,0x00,0x00,0x00,0xef,0x01,0x00,0x00,0x00,0x00,0x00,0xe0,0x7f,0x00,0x00,0x00,0x00,0x00,0x00,0x00,0x00,0x00,0x00,0xfe,0x07,0x00,0x00,0x00,0x00,0x00,0x80,0xf7,0x00,0x00,0x00,0x00,0xef,0x01,0x00,0x00,0x00,0x00,0x00,0xe0,0x7f,0x00,0x00,0x00,0x00,0x00,0x00,0x00,0x00,0x00,0x00,0xfe,0x07,0x00,0x00,0x00,0x00,0x00,0x80,0xf7,0x00,0x00,0x7f,0xfe,0xef,0xff,0xfc,0x01,0x00,0xe0,0x8e,0xfb,0xff,0x9d,0x7f,0x00,0x00,0x00,0x00,0x00,0x00,0xfe,0xf9,0xff,0xdf,0xf1,0x07,0x00,0x80,0x3f,0xff,0xf7,0x7f,0xfe,0x7f,0xfe,0x01,0xff,0xdc,0x01,0x00,0xe0,0x8f,0x3b,0xc0,0x9f,0x7f,0x00,0x00,0x00,0x00,0x00,0x00,0xfe,0xf9,0x03,0xdc,0x71,0x07,0x00,0x80,0x3f,0xff,0x80,0x7f,0xfe,0x7f,0xfe,0x01,0xff,0xfc,0x01,0x00,0xe0,0x8f,0x3b,0xc0,0x9f,0x7f,0x00,0x00,0x00,0x00,0x00,0x00,0xfe,0xb9,0x03,0xdc,0xf1,0x07,0x00,0x80,0x3f,0xff,0x80,0x7f,0xfe,0x7f,0xfe,0x01,0xff,0xfc,0x01,0x00,0xe0,0x8f,0x3f,0xc0,0x9f,0x7f,0x00,0x00,0x00,0x00,0x00,0x00,0xfe,0xf9,0x03,0xfc,0xf1,0x07,0x00,0x80,0x3f,0xff,0x00,0x7f,0xfe,0x7f,0xfe,0x01,0xff,0xfc,0x01,0x00,0xe0,0x8f,0x3f,0xc0,0x9f,0x7f,0x00,0x00,0x00,0x00,0x00,0x00,0xfe,0xf9,0x03,0xfc,0xf1,0x07,0x00,0x80,0x3f,0xff,0x80,0x7f,0xfe,0x7f,0xfe,0x01,0xff,0xfc,0x01,0x00,0xe0,0x8f,0x3b,0xc0,0x9f,0x7f,0x00,0x00,0x00,0x00,0x00,0x00,0xfe,0xb9,0x03,0xdc,0xf1,0x07,0x00,0x80,0x3f,0xfe,0x80,0x7f,0xfe,0x7f,0xfe,0x01,0xff,0xfc,0x01,0x00,0xe0,0x8f,0x3b,0xc0,0x9f,0x7f,0x00,0x00,0x00,0x00,0x00,0x00,0xfe,0xf9,0x03,0xdc,0xf1,0x07,0x00,0x80,0x3f,0xff,0x80,0x7f,0xfe,0xff,0xff,0x00,0xff,0xff,0x01,0x00,0xe0,0xfe,0x3b,0xc0,0xff,0x77,0x00,0x00,0x00,0x00,0x00,0x00,0xfe,0xff,0x03,0xdc,0x7f,0x07,0x00,0x80,0xff,0xff,0x80,0xff,0xef,0xc0,0x03,0x00,0x80,0x07,0x00,0x00,0x00,0xf0,0x00,0x00,0xf0,0x00,0x00,0x00,0x00,0x00,0x00,0x00,0x00,0x0f,0x00,0x00,0x0f,0x00,0x00,0x00,0xe0,0x01,0x00,0xc0,0x03,0xc0,0x03,0x00,0x80,0x07,0x00,0x00,0x00,0xf8,0x00,0x00,0xf0,0x00,0x00,0x00,0x00,0x00,0x00,0x00,0x00,0x0f,0x00,0x00,0x0f,0x00,0x00,0x00,0xe0,0x01,0x00,0xc0,0x03,0xff,0xff,0x01,0xff,0xdf,0x01,0x00,0xe0,0xff,0x3b,0xc0,0xff,0x7f,0x00,0x00,0x00,0x00,0x00,0x00,0xfe,0xff,0x03,0xdc,0xff,0x07,0x00,0x80,0xfb,0xff,0x80,0xff,0xef,0x7f,0xfe,0x01,0xff,0xdc,0x01,0x00,0xe0,0x8f,0x3b,0xc0,0x9f,0x7f,0x00,0x00,0x00,0x00,0x00,0x00,0xfe,0xf9,0x03,0xdc,0x71,0x07,0x00,0x80,0x3f,0xff,0x80,0x7f,0xfe,0x7f,0xfe,0x01,0xff,0xfc,0x01,0x00,0xe0,0x8f,0x3b,0xc0,0x9f,0x7f,0x00,0x00,0x00,0x00,0x00,0x00,0xfe,0xf9,0x03,0xdc,0xf1,0x07,0x00,0x80,0x3f,0xff,0x80,0x7f,0xfe,0x3c,0xbc,0x00,0x7f,0x74,0x00,0x00,0xe0,0x07,0x2e,0xc0,0x0b,0x3c,0x00,0x00,0x00,0x00,0x00,0x00,0x7c,0xe0,0x00,0xfc,0xd1,0x07,0x00,0x80,0x36,0xbc,0x00,0x3d,0xbe,0x7f,0xfe,0x01,0xff,0xfc,0x01,0x00,0xe0,0x8f,0x3f,0xc0,0x9f,0x7f,0x00,0x00,0x00,0x00,0x00,0x00,0xfe,0xf9,0x03,0xfc,0xf1,0x07,0x00,0x80,0x3f,0xff,0x80,0x7f,0xfe,0x7f,0xfe,0x01,0xff,0xfc,0x01,0x00,0xe0,0x8f,0x3b,0xc0,0x9d,0x7f,0x00,0x00,0x00,0x00,0x00,0x00,0xfe,0xf9,0x03,0xdc,0xf1,0x07,0x00,0x80,0x3f,0xff,0x80,0x7f,0xfe,0x7f,0xfe,0x01,0xff,0xfc,0xcf,0xe3,0xfd,0x8f,0x3b,0xc0,0x9f,0x7f,0x00,0x00,0x00,0x00,0x00,0x00,0xfe,0xf9,0x03,0xdc,0xf1,0xbf,0xc7,0xff,0x3b,0xff,0x80,0x7f,0xfe,0x00,0x00,0x00,0x00,0x00,0xff,0xe3,0x3d,0x00,0x00,0x00,0x00,0x00,0x00,0x00,0x00,0x00,0x00,0x00,0x00,0x00,0x00,0x00,0x00,0xbc,0xc7,0xff,0x00,0x00,0x00,0x00,0x00,0x00,0x00,0x00,0x00,0x00,0xff,0xe3,0x3d,0x00,0x00,0x00,0x00,0x00,0x00,0x00,0x00,0x00,0x00,0x00,0x00,0x00,0x00,0x00,0x00,0xbc,0xc7,0xff,0x00,0x00,0x00,0x00,0x00,0x00,0x00,0x00,0x00,0x00,0xff,0xe3,0x3d,0x00,0x00,0x00,0x00,0x00,0x00,0x00,0x00,0x00,0x00,0x00,0x00,0x00,0x00,0x00,0x00,0xbc,0xc7,0xff,0x00,0x00,0x00,0x00,0x00,0x00,0x00,0x00,0x00,0x00,0xff,0xe3,0x3f,0x00,0x00,0x00,0x00,0x00,0x00,0x00,0x00,0x00,0x00,0x00,0x00,0x00,0x00,0x00,0x00,0xfc,0xc7,0xff,0x00,0x00,0x00,0x00,0x00,0x00,0x00,0x00,0x00,0x00,0xfe,0xe3,0x3f,0x00,0x00,0x00,0x00,0x00,0x00,0x00,0x00,0x00,0x00,0x00,0x00,0x00,0x00,0x00,0x00,0xfc,0xc7,0xff,0x00,0x00,0x00,0x00,0x00,0x00,0x00,0x00,0x00,0x00,0xff,0xe3,0x3d,0x00,0x00,0x00,0x00,0x00,0x00,0x00,0x00,0x00,0x00,0x00,0x00,0x00,0x00,0x00,0x00,0xbc,0xc7,0xff,0x00,0x00,0x00,0x00,0x00,0x00,0x00,0x00,0x00,0x00,0xff,0xe3,0x3d,0x00,0x00,0x00,0x00,0x00,0x00,0x00,0x00,0x00,0x00,0x00,0x00,0x00,0x00,0x00,0x00,0xbc,0xc7,0xff,0x00,0x00,0x00,0x00,0x00,0x00,0x00,0x00,0x00,0x00,0xff,0xe3,0x3d,0x00,0x00,0x00,0x00,0x00,0x00,0x00,0x00,0x00,0x00,0x00,0x00,0x00,0x00,0x00,0x00,0xbc,0xc7,0xff,0x00,0x00,0x00,0x00,0x00,0x00,0x00,0x00,0x00,0x00,0xff,0xff,0x3d,0x00,0x00,0x00,0x00,0x00,0x00,0x00,0x00,0x00,0x00,0x00,0x00,0x00,0x00,0x00,0x00,0xbc,0xff,0x7f,0x00,0x00,0x00,0x00,0x00,0x00,0x00,0x00,0x00,0x00,0x00,0x3e,0x00,0x00,0x00,0x00,0x00,0x00,0x00,0x00,0x00,0x00,0x00,0x00,0x00,0x00,0x00,0x00,0x00,0x00,0x7c,0x00,0x00,0x00,0x00,0x00,0x00,0x00,0x00,0x00,0x00,0x00,0x00,0x3e,0x00,0x00,0x00,0x00,0x00,0x00,0x00,0x00,0x00,0x00,0x00,0x00,0x00,0x00,0x00,0x00,0x00,0x00,0x7c,0x00,0x00,0x00,0x00,0x00,0x00,0x00,0x00,0x00,0x00,0x00,0x00,0x3e,0x00,0x00,0x00,0x00,0x00,0x00,0x00,0x00,0x00,0x00,0x00,0x00,0x00,0x00,0x00,0x00,0x00,0x00,0x7c,0x00,0x00,0x00,0x00,0x00,0x00,0x00,0x00,0x00,0x00,0x00,0xff,0xff,0x3d,0x00,0x00,0x00,0x00,0x00,0x00,0x00,0x00,0x00,0x00,0x00,0x00,0x00,0x00,0x00,0x00,0xbc,0xff,0xff,0x00,0x00,0x00,0x00,0x00,0x00,0x00,0x00,0x00,0x00,0xff,0xe3,0x3d,0x00,0x00,0x00,0x00,0x00,0x00,0x00,0x00,0x00,0x00,0x00,0x00,0x00,0x00,0x00,0x00,0xbc,0xc7,0xff,0x00,0x00,0x00,0x00,0x00,0x00,0x00,0x00,0x00,0x00,0xff,0xe3,0x3d,0x00,0x00,0x00,0x00,0x00,0x00,0x00,0x00,0x00,0x00,0x00,0x00,0x00,0x00,0x00,0x00,0xbc,0xc7,0xff,0x00,0x00,0x00,0x00,0x00,0x00,0x00,0x00,0x00,0x00,0xff,0xe3,0x3f,0x00,0x00,0x00,0x00,0x00,0x00,0x00,0x00,0x00,0x00,0x00,0x00,0x00,0x00,0x00,0x00,0xfc,0xc7,0xff,0x00,0x00,0x00,0x00,0x00,0x00,0x00,0x00,0x00,0x00,0x30,0x00,0x07,0x00,0x00,0x00,0x00,0x00,0x00,0x00,0x00,0x00,0x00,0x00,0x00,0x00,0x00,0x00,0x00,0xe0,0x00,0x0c,0x00,0x00,0x00,0x00,0x00,0x00,0x00,0x00,0x00,0x00,0xff,0xe3,0x3f,0x00,0x00,0x00,0x00,0x00,0x00,0x00,0x00,0x00,0x00,0x00,0x00,0x00,0x00,0x00,0x00,0xfc,0xc7,0xff,0x00,0x00,0x00,0x00,0x00,0x00,0x00,0x00,0x00,0x00,0xff,0xe3,0x3d,0x00,0x00,0x00,0x00,0x00,0x00,0x00,0x00,0x00,0x00,0x00,0x00,0x00,0x00,0x00,0x00,0xbc,0xc7,0xff,0x00,0x00,0x00,0x00,0x00,0x00,0x00,0x00,0x00,0x00,0xff,0xe3,0x3d,0x00,0x00,0x00,0x00,0x00,0x00,0x00,0x00,0x00,0x00,0x00,0x00,0x00,0x00,0x00,0x00,0xbc,0xc7,0xff,0x00,0x00,0x00,0x00,0x00,0x7f,0xfe,0x01,0xff,0xdc,0xff,0xe3,0xfd,0x8e,0x3b,0xc0,0x9d,0x7f,0x00,0x00,0x00,0x00,0x00,0x00,0xfe,0xf9,0x03,0xdc,0xf1,0xbf,0xc7,0xff,0x3f,0xff,0x80,0x7f,0xfe,0x7f,0xfe,0x01,0xff,0xfc,0x01,0x00,0xe0,0x8e,0x3b,0xc0,0x9d,0x7f,0x00,0x00,0x00,0x00,0x00,0x00,0xfe,0xf9,0x03,0xdc,0x71,0x07,0x00,0x80,0x3f,0xff,0x80,0x7f,0xfe,0x7f,0xfe,0x01,0xff,0xdc,0x01,0x00,0xe0,0x8f,0x3b,0xc0,0x9f,0x7f,0x00,0x00,0x00,0x00,0x00,0x00,0xfe,0xf9,0x03,0xdc,0xf1,0x07,0x00,0x80,0x3b,0xff,0x80,0x7f,0xee,0x7f,0xfe,0x01,0xff,0xfc,0x01,0x00,0x80,0x8f,0x3f,0xc0,0x07,0x7f,0x00,0x00,0x00,0x00,0x00,0x00,0xfa,0xf8,0x03,0x7c,0xf1,0x07,0x00,0x80,0x3f,0xff,0x00,0x7f,0xfc,0x7f,0xfe,0x01,0xff,0xfc,0x01,0x00,0xe0,0x8f,0x3f,0xc0,0x9f,0x7f,0x00,0x00,0x00,0x00,0x00,0x00,0xfe,0xf9,0x03,0xfc,0xf1,0x07,0x00,0x80,0x3f,0xff,0x80,0x7f,0xfe,0x7f,0xfe,0x01,0x7f,0xfc,0x01,0x00,0xe0,0x8f,0x3b,0xc0,0x9f,0x7f,0x00,0x00,0x00,0x00,0x00,0x00,0xfe,0xf9,0x03,0xdc,0x71,0x07,0x00,0x80,0x3f,0xff,0x80,0x7f,0xfe,0xff,0xfe,0x01,0xff,0xfe,0x01,0x00,0xe0,0xcf,0x3b,0xc0,0xff,0x7f,0x00,0x00,0x00,0x00,0x00,0x00,0xfe,0xff,0x03,0xdc,0xf9,0x07,0x00,0x80,0x7b,0xff,0x80,0xff,0xff,0xc0,0x03,0x00,0x80,0x07,0x00,0x00,0x00,0xf8,0x00,0x00,0xf0,0x00,0x00,0x00,0x00,0x00,0x00,0x00,0x00,0x0f,0x00,0x00,0x1f,0x00,0x00,0x00,0xe0,0x01,0x00,0xc0,0x03,0xc0,0x03,0x00,0x80,0x07,0x00,0x00,0x00,0xf0,0x00,0x00,0xf0,0x00,0x00,0x00,0x00,0x00,0x00,0x00,0x00,0x0f,0x00,0x00,0x1f,0x00,0x00,0x00,0xe0,0x01,0x00,0xc0,0x03,0xc0,0x03,0x00,0x80,0x07,0x00,0x00,0x00,0xf0,0x00,0x00,0xf0,0x00,0x00,0x00,0x00,0x00,0x00,0x00,0x00,0x0f,0x00,0x00,0x1f,0x00,0x00,0x00,0xe0,0x01,0x00,0xc0,0x03,0xf7,0xff,0x01,0xff,0xff,0x01,0x00,0xe0,0xff,0x3b,0xc0,0xff,0x7f,0x00,0x00,0x00,0x00,0x00,0x00,0xfe,0xbf,0x03,0xdc,0x7f,0x07,0x00,0x80,0xff,0xff,0x80,0xff,0xff,0x7f,0xfe,0x01,0xff,0xfc,0x01,0x00,0xe0,0x8f,0x3b,0xc0,0x9f,0x7f,0x00,0x00,0x00,0x00,0x00,0x00,0xfe,0xf9,0x03,0xdc,0x71,0x07,0x00,0x80,0x3f,0xff,0x80,0x7f,0xfe,0x7f,0xfe,0x01,0xff,0xfc,0x01,0x00,0xe0,0x8f,0x3f,0xc0,0x9f,0x7f,0x00,0x00,0x00,0x00,0x00,0x00,0xfe,0xf9,0x03,0xfc,0xf1,0x07,0x00,0x80,0x3f,0xff,0x80,0x7f,0xfe,0x0c,0x30,0x00,0x18,0x60,0x00,0x00,0x00,0x03,0x0e,0x00,0x03,0x0c,0x00,0x00,0x00,0x00,0x00,0x00,0x30,0xc0,0x00,0x70,0xc0,0x00,0x00,0x00,0x06,0x18,0x00,0x0c,0x30,0x7f,0xfe,0x01,0xff,0xfc,0x01,0x00,0xe0,0x8f,0x3f,0xc0,0x9f,0x7f,0x00,0x00,0x00,0x00,0x00,0x00,0xfe,0xf9,0x03,0xfc,0xf1,0x07,0x00,0x80,0x3f,0xff,0x80,0x7f,0xfe,0x7f,0xfe,0x01,0xff,0xdc,0x01,0x00,0xe0,0x8e,0x3b,0xc0,0x9d,0x7f,0x00,0x00,0x00,0x00,0x00,0x00,0xfe,0xf9,0x03,0xdc,0xf1,0x07,0x00,0x80,0x3f,0xff,0x80,0x7f,0xfe,0x7f,0xfe,0xef,0xff,0xfc,0x01,0x00,0xe0,0x8f,0xfb,0xff,0x9f,0x7f,0x00,0x00,0x00,0x00,0x00,0x00,0xfe,0xf9,0xff,0xdf,0xf1,0x07,0x00,0x80,0x3f,0xff,0xf7,0x7f,0xfe,0x00,0x00,0xef,0x01,0x00,0x00,0x00,0x00,0x00,0xe0,0x7f,0x00,0x00,0x00,0x00,0x00,0x00,0x00,0x00,0x00,0x00,0xfe,0x07,0x00,0x00,0x00,0x00,0x00,0x80,0xf7,0x00,0x00,0x00,0x00,0xef,0x01,0x00,0x00,0x00,0x00,0x00,0xe0,0x7f,0x00,0x00,0x00,0x00,0x00,0x00,0x00,0x00,0x00,0x00,0xfe,0x07,0x00,0x00,0x00,0x00,0x00,0x80,0xf7,0x00,0x00,0x00,0x00,0xef,0x01,0x00,0x00,0x00,0x00,0x00,0xe0,0x7f,0x00,0x00,0x00,0x00,0x00,0x00,0x00,0x00,0x00,0x00,0xfe,0x07,0x00,0x00,0x00,0x00,0x00,0x80,0xf7,0x00,0x00,0x00,0x00,0xff,0x01,0x00,0x00,0x00,0x00,0x00,0xe0,0x3f,0x00,0x00,0x00,0x00,0x00,0x00,0x00,0x00,0x00,0x00,0xfe,0x07,0x00,0x00,0x00,0x00,0x00,0x80,0xff,0x00,0x00,0x00,0x00,0xff,0x01,0x00,0x00,0x00,0x00,0x00,0xe0,0x7f,0x00,0x00,0x00,0x00,0x00,0x00,0x00,0x00,0x00,0x00,0xfe,0x07,0x00,0x00,0x00,0x00,0x00,0x80,0xff,0x00,0x00,0x00,0x00,0xef,0x01,0x00,0x00,0x00,0x00,0x00,0xe0,0x7f,0x00,0x00,0x00,0x00,0x00,0x00,0x00,0x00,0x00,0x00,0xfe,0x07,0x00,0x00,0x00,0x00,0x00,0x80,0xf7,0x00,0x00,0x00,0x00,0xef,0x01,0x00,0x00,0x00,0x00,0x00,0xe0,0x7f,0x00,0x00,0x00,0x00,0x00,0x00,0x00,0x00,0x00,0x00,0xfe,0x07,0x00,0x00,0x00,0x00,0x00,0x80,0xf7,0x00,0x00,0x00,0x00,0xef,0x01,0x00,0x00,0x00,0x00,0x00,0xe0,0x7f,0x00,0x00,0x00,0x00,0x00,0x00,0x00,0x00,0x00,0x00,0xfe,0x07,0x00,0x00,0x00,0x00,0x00,0x80,0xf7,0x00,0x00,0x7f,0xfe,0xef,0xff,0xdc,0x01,0x00,0xe0,0x8f,0xfb,0xeb,0x9f,0x7f,0x00,0x00,0x00,0x00,0x00,0x00,0xfe,0xf9,0xdf,0xdf,0xf1,0x07,0x00,0x80,0x3f,0xff,0xf1,0x7f,0xfe,0x7f,0xfe,0x01,0xff,0xfc,0x01,0x00,0xe0,0x8f,0x3b,0xc0,0x9f,0x7f,0x00,0x00,0x00,0x00,0x00,0x00,0xfe,0xf9,0x03,0xdc,0xf1,0x07,0x00,0x80,0x3b,0xff,0x80,0x7f,0xfe,0x7f,0xfe,0x01,0xff,0xfc,0x01,0x00,0xe0,0x8f,0x3f,0xc0,0x9f,0x7f,0x00,0x00,0x00,0x00,0x00,0x00,0xfe,0xf9,0x03,0xfc,0xf1,0x07,0x00,0x80,0x3f,0xff,0x80,0x7f,0xfe,0x5f,0xf6,0x01,0xff,0xfc,0x01,0x00,0xe0,0x8f,0x3f,0xc0,0x0f,0x7f,0x00,0x00,0x00,0x00,0x00,0x00,0xbe,0xe9,0x03,0xf4,0xf1,0x03,0x00,0x80,0x07,0xfe,0x80,0x6f,0xfe,0x7f,0xfe,0x01,0xff,0xdc,0x01,0x00,0xe0,0x8f,0x3b,0xc0,0x9f,0x7f,0x00,0x00,0x00,0x00,0x00,0x00,0xfe,0xf9,0x03,0xdc,0xf1,0x07,0x00,0x80,0x3f,0xff,0x80,0x7f,0xfe,0x7f,0xfe,0x01,0xff,0xfc,0x01,0x00,0xe0,0x8f,0x3b,0xc0,0x9f,0x7f,0x00,0x00,0x00,0x00,0x00,0x00,0xfe,0xf9,0x03,0xdc,0xf1,0x07,0x00,0x80,0x3b,0xff,0x80,0x7f,0xfe,0xff,0xff,0x01,0xff,0xff,0x01,0x00,0xe0,0xfe,0x3b,0xc0,0xfd,0x7f,0x00,0x00,0x00,0x00,0x00,0x00,0xfe,0xff,0x03,0xdc,0xff,0x07,0x00,0x80,0xfb,0xff,0x80,0xff,0xff,0xc0,0x03,0x00,0x80,0x07,0x00,0x00,0x00,0xf8,0x00,0x00,0xf0,0x00,0x00,0x00,0x00,0x00,0x00,0x00,0x00,0x0f,0x00,0x00,0x1f,0x00,0x00,0x00,0xe0,0x01,0x00,0xc0,0x03,0xc0,0x03,0x00,0x80,0x07,0x00,0x00,0x00,0xf8,0x00,0x00,0xf0,0x00,0x00,0x00,0x00,0x00,0x00,0x00,0x00,0x0f,0x00,0x00,0x1f,0x00,0x00,0x00,0xe0,0x01,0x00,0xc0,0x03,0xff,0xff,0x01,0xdf,0xdf,0x01,0x00,0xe0,0xff,0x3b,0xc0,0xff,0x7f,0x00,0x00,0x00,0x00,0x00,0x00,0xfe,0xbf,0x03,0xdc,0xff,0x07,0x00,0x80,0xff,0xff,0x80,0xff,0xff,0x7f,0xfe,0x01,0xff,0xfc,0x01,0x00,0xe0,0x8f,0x3b,0xc0,0x9f,0x7f,0x00,0x00,0x00,0x00,0x00,0x00,0xfe,0xf9,0x03,0xdc,0xf1,0x07,0x00,0x80,0x3f,0xff,0x80,0x7f,0xfe,0x7f,0xfe,0x01,0xff,0xfc,0x01,0x00,0xe0,0x8f,0x3b,0xc0,0x9f,0x7f,0x00,0x00,0x00,0x00,0x00,0x00,0xfe,0xf9,0x03,0xdc,0xf1,0x07,0x00,0x80,0x3b,0xff,0x80,0x7f,0xfe,0x7f,0xfe,0x01,0xff,0xfc,0x01,0x00,0xe0,0x8f,0x3f,0xc0,0x9f,0x7f,0x00,0x00,0x00,0x00,0x00,0x00,0xfe,0xf9,0x03,0xfc,0xf1,0x07,0x00,0x80,0x3f,0xff,0x80,0x7f,0xfe,0x7f,0xfe,0x01,0xff,0xfc,0x01,0x00,0xe0,0x8f,0x3f,0xc0,0x9f,0x7f,0x00,0x00,0x00,0x00,0x00,0x00,0xfe,0xf9,0x03,0xfc,0xf1,0x07,0x00,0x80,0x3f,0xff,0x80,0x7f,0xfe,0x7f,0xfe,0x01,0xff,0xfc,0x01,0x00,0xe0,0x8f,0x3b,0xc0,0x9f,0x7f,0x00,0x00,0x00,0x00,0x00,0x00,0xfe,0xf9,0x03,0xdc,0xf1,0x07,0x00,0x80,0x3b,0xff,0x80,0x7f,0xfe,0x7f,0xfe,0x01,0xff,0xfc,0x01,0x00,0xe0,0x8f,0x3b,0xc0,0x9f,0x7f,0x00,0x00,0x00,0x00,0x00,0x00,0xfe,0xf9,0x03,0xdc,0xf1,0x07,0x00,0x80,0x3f,0xff,0x80,0x7f,0xfe,0x7f,0xfe,0x01,0xff,0xdc,0x01,0x00,0xe0,0x8f,0x3b,0xc0,0x9f,0xff,0x7b,0xbc,0x07,0xe0,0x3d,0xde,0xff,0xf9,0x03,0xdc,0xf1,0x07,0x00,0x80,0x3f,0xff,0x80,0x7f,0xfe,0x00,0x00,0x00,0x00,0x00,0x00,0x00,0x00,0x00,0x00,0x00,0x00,0xc0,0x7b,0xbc,0x07,0xe0,0x3d,0xde,0x03,0x00,0x00,0x00,0x00,0x00,0x00,0x00,0x00,0x00,0x00,0x00,0x00,0x00,0x00,0x00,0x00,0x00,0x00,0x00,0x00,0x00,0x00,0x00,0x00,0xc0,0x7b,0xbc,0x07,0xe0,0x3d,0xde,0x03,0x00,0x00,0x00,0x00,0x00,0x00,0x00,0x00,0x00,0x00,0x00,0x00,0x00,0x00,0x00,0x00,0x00,0x00,0x00,0x00,0x00,0x00,0x00,0x00,0xc0,0x7f,0xfc,0x07,0xe0,0x3f,0xfe,0x03,0x00,0x00,0x00,0x00,0x00,0x00,0x00,0x00,0x00,0x00,0x00,0x00,0x00,0x00,0x00,0x00,0x00,0x00,0x00,0x00,0x00,0x00,0x00,0x00,0x00,0x0e,0xe0,0x00,0x00,0x07,0x70,0x00,0x00,0x00,0x00,0x00,0x00,0x00,0x00,0x00,0x00,0x00,0x00,0x00,0x00,0x00,0x00,0x00,0x00,0x00,0x00,0x00,0x00,0x00,0x00,0x00,0xc0,0x7f,0xfc,0x07,0xe0,0x3f,0xfe,0x03,0x00,0x00,0x00,0x00,0x00,0x00,0x00,0x00,0x00,0x00,0x00,0x00,0x00,0x00,0x00,0x00,0x00,0x00,0x00,0x00,0x00,0x00,0x00,0x00,0xc0,0x7b,0xbc,0x07,0xe0,0x3d,0xde,0x03,0x00,0x00,0x00,0x00,0x00,0x00,0x00,0x00,0x00,0x00,0x00,0x00,0x00,0x00,0x00,0x00,0x00,0x00,0x00,0x00,0x00,0x00,0x00,0x00,0xc0,0x7b,0xbc,0x07,0xe0,0x3d,0xde,0x03,0x00,0x00,0x00,0x00,0x00,0x00,0x00,0x00,0x00,0x00,0x00,0x00,0x00,0x00,0x00,0x00,0x00,0x00,0x00,0x00,0x00,0x00,0x00,0x00,0xc0,0xfb,0xbf,0x07,0xe0,0xfd,0xdf,0x03,0x00,0x00,0x00,0x00,0x00,0x00,0x00,0x00,0x00,0x00,0x00,0x00,0x00,0x00,0x00,0x00,0x00,0x00,0x00,0x00,0x00,0x00,0x00,0x00,0x00,0xc0,0x07,0x00,0x00,0xe0,0x03,0x00,0x00,0x00,0x00,0x00,0x00,0x00,0x00,0x00,0x00,0x00,0x00,0x00,0x00,0x00,0x00,0x00,0x00,0x00,0x00,0x00,0x00,0x00,0x00,0x00,0x00,0xc0,0x07,0x00,0x00,0xe0,0x03,0x00,0x00,0x00,0x00,0x00,0x00,0x00,0x00,0x00,0x00,0x00,0x00,0x00,0x00,0x00,0x00,0x00,0x00,0x00,0x00,0x00,0x00,0x00,0x00,0x00,0x00,0xc0,0x07,0x00,0x00,0xe0,0x03,0x00,0x00,0x00,0x00,0x00,0x00,0x00,0x00,0x00,0x00,0x00,0x00,0x00,0x00,0x00,0x00,0x00,0x00,0x00,0x00,0x00,0x00,0x00,0x00,0x00,0xc0,0xfb,0xbf,0x07,0xe0,0xfd,0xdf,0x03,0x00,0x00,0x00,0x00,0x00,0x00,0x00,0x00,0x00,0x00,0x00,0x00,0x00,0x00,0x00,0x00,0x00,0x00,0x00,0x00,0x00,0x00,0x00,0x00,0xc0,0x7b,0xbc,0x07,0xe0,0x3d,0xde,0x03,0x00,0x00,0x00,0x00,0x00,0x00,0x00,0x00,0x00,0x00,0x00,0x00,0x00,0x00,0x00,0x00,0x00,0x00,0x00,0x00,0x00,0x00,0x00,0x00,0xc0,0x7b,0xbc,0x07,0xe0,0x3d,0xde,0x03,0x00,0x00,0x00,0x00,0x00,0x00,0x00,0x00,0x00,0x00,0x00,0x00,0x00,0x00,0x00,0x00,0x00,0x00,0x00,0x00,0x00,0x00,0x00,0x00,0xc0,0x7f,0xfc,0x07,0xe0,0x3f,0xfe,0x03,0x00,0x00,0x00,0x00,0x00,0x00,0x00,0x00,0x00,0x00,0x00,0x00,0x00,0x00,0x00,0x00,0x00,0x00,0x00,0x00,0x00,0x00,0x00,0x00,0x00,0x0e,0xe0,0x00,0x00,0x07,0x70,0x00,0x00,0x00,0x00,0x00,0x00,0x00,0x00,0x00,0x00,0x00,0x00,0x00,0x00,0x00,0x00,0x00,0x00,0x00,0x00,0x00,0x00,0x00,0x00,0x00,0xc0,0x7f,0xfc,0x07,0xe0,0x3f,0xfe,0x03,0x00,0x00,0x00,0x00,0x00,0x00,0x00,0x00,0x00,0x00,0x00,0x00,0x00,0x00,0x00,0x00,0x00,0x00,0x00,0x00,0x00,0x00,0x00,0x00,0xc0,0x7b,0xbc,0x07,0xe0,0x3d,0xde,0x03,0x00,0x00,0x00,0x00,0x00,0x00,0x00,0x00,0x00,0x00,0x00,0x00,0x00,0x00,0x00,0x00,0x00,0x00,0x00,0x00,0x00,0x00,0x00,0x00,0xc0,0x7b,0xbc,0x07,0xe0,0x3d,0xde,0x03,0x00,0x00,0x00,0x00,0x00,0x00,0x00,0x00,0x00,0x00,0x00,0x00,0x00,0x00,0x00,0x00,0x00,0x00,0x00,0x00,0x00,0x00,0x00,0x00,0xc0,0x7b,0xbc,0x7f,0xfe,0x3d,0xde,0x03,0x00,0x00,0x00,0x00,0x00,0x00,0x00,0x00,0x00,0x00,0x00,0x00,0x00,0x00,0x00,0x00,0x00,0x00,0x00,0x00,0x00,0x00,0x00,0x00,0x00,0x00,0x00,0x7c,0x3e,0x00,0x00,0x00,0x00,0x00,0x00,0x00,0x00,0x00,0x00,0x00,0x00,0x00,0x00,0x00,0x00,0x00,0x00,0x00,0x00,0x00,0x00,0x00,0x00,0x00,0x00,0x00,0x00,0x00,0x00,0x7c,0x3e,0x00,0x00,0x00,0x00,0x00,0x00,0x00,0x00,0x00,0x00,0x00,0x00,0x00,0x00,0x00,0x00,0x00,0x00,0x00,0x00,0x00,0x00,0x00,0x00,0x00,0x00,0x00,0x00,0x00,0x00,0x7c,0x3e,0x00,0x00,0x00,0x00,0x00,0x00,0x00,0x00,0x00,0x00,0x00,0x00,0x00,0x00,0x00,0x00,0x00,0x00,0x00,0x00,0x00,0x00,0x00,0x00,0x00,0x00,0x00,0x00,0x00,0x00,0xfc,0x3f,0x00,0x00,0x00,0x00,0x00,0x00,0x00,0x00,0x00,0x00,0x00,0x00,0x00,0x00,0x00,0x00,0x00,0x00,0x00,0x00,0x00,0x00,0x00,0x00,0x00,0x00,0x00,0x00,0x00,0x00,0xc0,0x03,0x00,0x00,0x00,0x00,0x00,0x00,0x00,0x00,0x00,0x00,0x00,0x00,0x00,0x00,0x00,0x00,0x00,0x00,0x00,0x00,0x00,0x00,0x00,0x00,0x00,0x00,0x00,0x00,0x00,0x00,0xc0,0x03,0x00,0x00,0x00,0x00,0x00,0x00,0x00,0x00,0x00,0x00,0x00,0x00,0x00,0x00,0x00,0x00,0x00,0x00,0x00,0x00,0x00,0x00,0x00,0x00,0x00,0x00,0x00,0x00,0x00,0x00,0xfc,0x3f,0x00,0x00,0x00,0x00,0x00,0x00,0x00,0x00,0x00,0x00,0x00,0x00,0x00,0x00,0x00,0x00,0x00,0x00,0x00,0x00,0x00,0x00,0x00,0x00,0x00,0x00,0x00,0x00,0x00,0x00,0x7c,0x3e,0x00,0x00,0x00,0x00,0x00,0x00,0x00,0x00,0x00,0x00,0x00,0x00,0x00,0x00,0x00,0x00,0x00,0x00,0x00,0x00,0x00,0x00,0x00,0x00,0x00,0x00,0x00,0x00,0x00,0x00,0x7c,0x3e,0x00,0x00,0x00,0x00,0x00,0x00,0x00,0x00,0x00,0x00,0x00,0x00,0x00,0x00,0x00,0x00,0x00,0x00,0x00,0x00,0x00,0x00,0x00,0x00,0x00,0x00,0x00,0x00,0x00,0x00,0x7c,0x3e,0x00,0x00,0x00,0x00,0x00,0x00,0x00,0x00,0x00,0x00,0x00,0x00,0x00,0x00,0x00,0x00,0x00,0x00,0x00,0x00,0x00,0x00,0x00,0x00,0x00,0x00,0x00,0xc0,0x7b,0xbc,0x7f,0xfe,0x3d,0xde,0x03,0x00,0x00,0x00,0x00,0x00,0x00,0x00,0x00,0x00,0x00,0x00,0x00,0x00,0x00,0x00,0x00,0x00,0x00,0x00,0x00,0x00,0x00,0x00,0x00,0xc0,0x7b,0xbc,0x07,0xe0,0x3d,0xde,0x03,0x00,0x00,0x00,0x00,0x00,0x00,0x00,0x00,0x00,0x00,0x00,0x00,0x00,0x00,0x00,0x00,0x00,0x00,0x00,0x00,0x00,0x00,0x00,0x00,0xc0,0x7b,0xbc,0x07,0xe0,0x3d,0xde,0x03,0x00,0x00,0x00,0x00,0x00,0x00,0x00,0x00,0x00,0x00,0x00,0x00,0x00,0x00,0x00,0x00,0x00,0x00,0x00,0x00,0x00,0x00,0x00,0x00,0xc0,0x7f,0xfc,0x07,0xe0,0x3f,0xfe,0x03,0x00,0x00,0x00,0x00,0x00,0x00,0x00,0x00,0x00,0x00,0x00,0x00,0x00,0x00,0x00,0x00,0x00,0x00,0x00,0x00,0x00,0x00,0x00,0x00,0x00,0x0e,0xe0,0x00,0x00,0x07,0x70,0x00,0x00,0x00,0x00,0x00,0x00,0x00,0x00,0x00,0x00,0x00,0x00,0x00,0x00,0x00,0x00,0x00,0x00,0x00,0x00,0x00,0x00,0x00,0x00,0x00,0xc0,0x7f,0xfc,0x07,0xe0,0x3f,0xfe,0x03,0x00,0x00,0x00,0x00,0x00,0x00,0x00,0x00,0x00,0x00,0x00,0x00,0x00,0x00,0x00,0x00,0x00,0x00,0x00,0x00,0x00,0x00,0x00,0x00,0xc0,0x7b,0xbc,0x07,0xe0,0x3d,0xde,0x03,0x00,0x00,0x00,0x00,0x00,0x00,0x00,0x00,0x00,0x00,0x00,0x00,0x00,0x00,0x00,0x00,0x00,0x00,0x00,0x00,0x00,0x00,0x00,0x00,0xc0,0x7b,0xbc,0x07,0xe0,0x3d,0xde,0x03,0x00,0x00,0x00,0x00,0x00,0x00,0x00,0x00,0x00,0x00,0x00,0x00,0x00,0x00,0x00,0x00,0x00,0x00,0x00,0x00,0x00,0x00,0x00,0x00,0xc0,0xfb,0xbf,0x07,0xe0,0xfd,0xdf,0x03,0x00,0x00,0x00,0x00,0x00,0x00,0x00,0x00,0x00,0x00,0x00,0x00,0x00,0x00,0x00,0x00,0x00,0x00,0x00,0x00,0x00,0x00,0x00,0x00,0x00,0xc0,0x07,0x00,0x00,0xe0,0x03,0x00,0x00,0x00,0x00,0x00,0x00,0x00,0x00,0x00,0x00,0x00,0x00,0x00,0x00,0x00,0x00,0x00,0x00,0x00,0x00,0x00,0x00,0x00,0x00,0x00,0x00,0xc0,0x07,0x00,0x00,0xe0,0x03,0x00,0x00,0x00,0x00,0x00,0x00,0x00,0x00,0x00,0x00,0x00,0x00,0x00,0x00,0x00,0x00,0x00,0x00,0x00,0x00,0x00,0x00,0x00,0x00,0x00,0x00,0xc0,0x07,0x00,0x00,0xe0,0x03,0x00,0x00,0x00,0x00,0x00,0x00,0x00,0x00,0x00,0x00,0x00,0x00,0x00,0x00,0x00,0x00,0x00,0x00,0x00,0x00,0x00,0x00,0x00,0x00,0x00,0xc0,0xfb,0xbf,0x07,0xe0,0xfd,0xdf,0x03,0x00,0x00,0x00,0x00,0x00,0x00,0x00,0x00,0x00,0x00,0x00,0x00,0x00,0x00,0x00,0x00,0x00,0x00,0x00,0x00,0x00,0x00,0x00,0x00,0xc0,0x7b,0xbc,0x07,0xe0,0x3d,0xde,0x03,0x00,0x00,0x00,0x00,0x00,0x00,0x00,0x00,0x00,0x00,0x00,0x00,0x00,0x00,0x00,0x00,0x00,0x00,0x00,0x00,0x00,0x00,0x00,0x00,0xc0,0x7b,0xbc,0x07,0xe0,0x3d,0xde,0x03,0x00,0x00,0x00,0x00,0x00,0x00,0x00,0x00,0x00,0x00,0x00,0x00,0x00,0x00,0x00,0x00,0x00,0x00,0x00,0x00,0x00,0x00,0x00,0x00,0xc0,0x7f,0xfc,0x07,0xe0,0x3f,0xfe,0x03,0x00,0x00,0x00,0x00,0x00,0x00,0x00,0x00,0x00,0x00,0x00,0x00,0x00,0x00,0x00,0x00,0x00,0x00,0x00,0x00,0x00,0x00,0x00,0x00,0x00,0x0e,0xe0,0x00,0x00,0x07,0x70,0x00,0x00,0x00,0x00,0x00,0x00,0x00,0x00,0x00,0x00,0x00,0x00,0x00,0x00,0x00,0x00,0x00,0x00,0x00,0x00,0x00,0x00,0x00,0x00,0x00,0xc0,0x7f,0xfc,0x07,0xe0,0x3f,0xfe,0x03,0x00,0x00,0x00,0x00,0x00,0x00,0x00,0x00,0x00,0x00,0x00,0x00,0x00,0x00,0x00,0x00,0x00,0x00,0x00,0x00,0x00,0x00,0x00,0x00,0xc0,0x7b,0xbc,0x07,0xe0,0x3d,0xde,0x03,0x00,0x00,0x00,0x00,0x00,0x00,0x00,0x00,0x00,0x00,0x00,0x00,0x00,0x00,0x00,0x00,0x00,0x00,0x00,0x00,0x00,0x00,0x00,0x00,0xc0,0x7b,0xbc,0x07,0xe0,0x3d,0xde,0x03,0x00,0x00,0x00,0x00,0x00,0x00,0x00,0x00,0x00,0x00,0x00,0x00,0x7f,0xfe,0x01,0xff,0xdc,0x01,0x00,0xe0,0x8f,0x3b,0xc0,0x9f,0xff,0x7b,0xbc,0x07,0xe0,0x3d,0xde,0xff,0xf9,0x03,0xdc,0x71,0x07,0x00,0x80,0x3f,0xff,0x80,0x7f,0xee,0x7f,0xfe,0x01,0xff,0xfc,0x01,0x00,0xe0,0x8f,0x3b,0xc0,0x9f,0x7f,0x00,0x00,0x00,0x00,0x00,0x00,0xfe,0xf9,0x03,0xdc,0xf1,0x07,0x00,0x80,0x3f,0xff,0x80,0x7f,0xfe,0x7f,0xfe,0x01,0xff,0xdc,0x01,0x00,0xe0,0x8f,0x3b,0xc0,0x9f,0x7f,0x00,0x00,0x00,0x00,0x00,0x00,0xfe,0xf9,0x03,0xdc,0xf1,0x07,0x00,0x80,0x3f,0xff,0x80,0x7f,0xfe,0x7f,0xfe,0x01,0xff,0xfc,0x01,0x00,0xe0,0x8f,0x3f,0xc0,0x9f,0x7f,0x00,0x00,0x00,0x00,0x00,0x00,0xfe,0xf9,0x03,0xfc,0xf1,0x07,0x00,0x80,0x3f,0xfe,0x80,0x7f,0xfe,0x7f,0xfe,0x01,0xff,0xfc,0x01,0x00,0xe0,0x8f,0x3f,0xc0,0x9f,0x7f,0x00,0x00,0x00,0x00,0x00,0x00,0xfe,0xf9,0x03,0xfc,0xf1,0x07,0x00,0x80,0x3f,0xff,0x80,0x7f,0xfe,0x7f,0xfe,0x01,0xff,0xdc,0x01,0x00,0xe0,0x8f,0x3b,0xc0,0x9d,0x7f,0x00,0x00,0x00,0x00,0x00,0x00,0xfe,0xf9,0x03,0xdc,0xf1,0x07,0x00,0x80,0x3b,0xff,0x80,0x7f,0xfe,0x7f,0xfe,0x01,0xff,0xfc,0x01,0x00,0xe0,0x8f,0x3b,0xc0,0x9f,0x7f,0x00,0x00,0x00,0x00,0x00,0x00,0xfe,0xf9,0x03,0xdc,0xf1,0x07,0x00,0x80,0x3b,0xff,0x80,0x7f,0xfe,0xff,0xdf,0x01,0xff,0xff,0x01,0x00,0xe0,0xff,0x3b,0xc0,0xfd,0x7f,0x00,0x00,0x00,0x00,0x00,0x00,0xee,0xff,0x03,0xdc,0x7f,0x07,0x00,0x80,0xfb,0xff,0x80,0xff,0xff,0xc0,0x03,0x00,0x80,0x07,0x00,0x00,0x00,0xf0,0x00,0x00,0xf0,0x00,0x00,0x00,0x00,0x00,0x00,0x00,0x00,0x0f,0x00,0x00,0x0f,0x00,0x00,0x00,0xe0,0x01,0x00,0xc0,0x03,0xc0,0x03,0x00,0x80,0x07,0x00,0x00,0x00,0xf0,0x00,0x00,0xf0,0x00,0x00,0x00,0x00,0x00,0x00,0x00,0x00,0x0f,0x00,0x00,0x0f,0x00,0x00,0x00,0xe0,0x01,0x00,0xc0,0x03,0xff,0xff,0x01,0xff,0xff,0x01,0x00,0xe0,0xff,0x3b,0xc0,0xfd,0x7f,0x00,0x00,0x00,0x00,0x00,0x00,0xfe,0xff,0x03,0xdc,0x7f,0x07,0x00,0x80,0xff,0xff,0x80,0xff,0xff,0x7f,0xfe,0x01,0xff,0xdc,0x01,0x00,0xe0,0x8f,0x3b,0xc0,0x9f,0x7f,0x00,0x00,0x00,0x00,0x00,0x00,0xfe,0xf9,0x03,0xdc,0x71,0x07,0x00,0x80,0x3f,0xff,0x80,0x7f,0xfe,0x7f,0xfe,0x01,0xff,0xfc,0x01,0x00,0xe0,0x8f,0x3b,0xc0,0x9f,0x7f,0x00,0x00,0x00,0x00,0x00,0x00,0xfe,0xf9,0x03,0xdc,0xf1,0x07,0x00,0x80,0x3f,0xff,0x80,0x7f,0xfe,0x3f,0xfe,0x01,0x7d,0xfc,0x01,0x00,0x60,0x8f,0x3e,0x40,0x1f,0x7f,0x00,0x00,0x00,0x00,0x00,0x00,0xbe,0xf8,0x02,0xfc,0xf1,0x04,0x00,0x80,0x3f,0xbe,0x80,0x7f,0xfe,0x7f,0xfe,0x01,0xff,0xfc,0x01,0x00,0xe0,0x8f,0x3f,0xc0,0x9f,0x7f,0x00,0x00,0x00,0x00,0x00,0x00,0xfe,0xf8,0x03,0xfc,0xf1,0x07,0x00,0x80,0x3f,0xff,0x80,0x7f,0xfe,0x7f,0xfe,0x01,0xff,0xdc,0x01,0x00,0xe0,0x8f,0x3b,0xc0,0x9f,0x7f,0x00,0x00,0x00,0x00,0x00,0x00,0xfe,0xb9,0x03,0xdc,0xf1,0x07,0x00,0x80,0x3b,0xff,0x80,0x7f,0xfe,0x7f,0xfe,0xef,0xff,0xfc,0x01,0x00,0xe0,0x8f,0x7b,0xe8,0x9f,0x7f,0x00,0x00,0x00,0x00,0x00,0x00,0xfe,0xf9,0xbf,0xdf,0xf1,0x07,0x00,0x80,0x3f,0xff,0xf7,0x7f,0xfe,0x00,0x00,0xef,0x01,0x00,0x00,0x00,0x00,0x00,0xe0,0x7f,0x00,0x00,0x00,0x00,0x00,0x00,0x00,0x00,0x00,0x00,0xfe,0x07,0x00,0x00,0x00,0x00,0x00,0x80,0xf7,0x00,0x00,0x00,0x00,0xef,0x01,0x00,0x00,0x00,0x00,0x00,0xe0,0x7f,0x00,0x00,0x00,0x00,0x00,0x00,0x00,0x00,0x00,0x00,0xfe,0x07,0x00,0x00,0x00,0x00,0x00,0x80,0xf7,0x00,0x00,0x00,0x00,0xef,0x01,0x00,0x00,0x00,0x00,0x00,0xe0,0x7f,0x00,0x00,0x00,0x00,0x00,0x00,0x00,0x00,0x00,0x00,0xfe,0x07,0x00,0x00,0x00,0x00,0x00,0x80,0xf7,0x00,0x00,0x00,0x00,0xff,0x01,0x00,0x00,0x00,0x00,0x00,0xe0,0x7f,0x00,0x00,0x00,0x00,0x00,0x00,0x00,0x00,0x00,0x00,0xfe,0x07,0x00,0x00,0x00,0x00,0x00,0x80,0xff,0x00,0x00,0x00,0x00,0xff,0x01,0x00,0x00,0x00,0x00,0x00,0xe0,0x7f,0x00,0x00,0x00,0x00,0x00,0x00,0x00,0x00,0x00,0x00,0xfc,0x07,0x00,0x00,0x00,0x00,0x00,0x80,0xff,0x00,0x00,0x00,0x00,0xef,0x01,0x00,0x00,0x00,0x00,0x00,0xe0,0x7f,0x00,0x00,0x00,0x00,0x00,0x00,0x00,0x00,0x00,0x00,0xfe,0x07,0x00,0x00,0x00,0x00,0x00,0x80,0xf7,0x00,0x00,0x00,0x00,0xef,0x01,0x00,0x00,0x00,0x00,0x00,0xe0,0x7f,0x00,0x00,0x00,0x00,0x00,0x00,0x00,0x00,0x00,0x00,0xfe,0x07,0x00,0x00,0x00,0x00,0x00,0x80,0xf7,0x00,0x00,0x00,0x00,0xef,0x01,0x00,0x00,0x00,0x00,0x00,0xe0,0x7f,0x00,0x00,0x00,0x00,0x00,0x00,0x00,0x00,0x00,0x00,0xfe,0x07,0x00,0x00,0x00,0x00,0x00,0x80,0xf7,0x00,0x00,0x7f,0xfe,0xef,0xff,0xfc,0x01,0x00,0xe0,0x8e,0xfb,0xff,0x9f,0x7f,0x00,0x00,0x00,0x00,0x00,0x00,0xfe,0xf9,0xff,0xdf,0xf1,0x07,0x00,0x80,0x3b,0xff,0xf7,0x7f,0xfe,0x7f,0xfe,0x01,0xff,0xdc,0x01,0x00,0xe0,0x8f,0x3b,0xc0,0x9f,0x7f,0x00,0x00,0x00,0x00,0x00,0x00,0xfe,0xb9,0x03,0xdc,0xf1,0x07,0x00,0x80,0x3b,0xff,0x80,0x7f,0xfe,0x7f,0xfe,0x01,0xff,0xfc,0x01,0x00,0xe0,0x8f,0x3f,0xc0,0x9f,0x7f,0x00,0x00,0x00,0x00,0x00,0x00,0xfe,0xf9,0x03,0xfc,0xf1,0x07,0x00,0x80,0x3f,0xff,0x80,0x7f,0xfe,0x0c,0x30,0x00,0x18,0x60,0x00,0x00,0x00,0x03,0x0e,0x00,0x03,0x0c,0x00,0x00,0x00,0x00,0x00,0x00,0x30,0xc0,0x00,0x70,0xc0,0x00,0x00,0x00,0x06,0x18,0x00,0x0c,0x30,0x7f,0xfe,0x01,0xff,0xfc,0x01,0x00,0xe0,0x8f,0x3f,0xc0,0x9f,0x7f,0x00,0x00,0x00,0x00,0x00,0x00,0xfe,0xf8,0x03,0xfc,0xf1,0x07,0x00,0x80,0x3f,0xff,0x80,0x7f,0xfe,0x7f,0xfe,0x01,0xff,0xdc,0x01,0x00,0xe0,0x8f,0x3b,0xc0,0x9f,0x7f,0x00,0x00,0x00,0x00,0x00,0x00,0xfe,0xf9,0x03,0xdc,0xf1,0x07,0x00,0x80,0x3f,0xff,0x80,0x7f,0xfe,0xff,0xff,0x01,0xff,0xff,0x01,0x00,0xe0,0xff,0x3b,0xc0,0xff,0x7f,0x00,0x00,0x00,0x00,0x00,0x00,0xfe,0xff,0x03,0xdc,0xff,0x07,0x00,0x80,0xff,0xff,0x80,0xff,0xff,0xc0,0x03,0x00,0x80,0x07,0x00,0x00,0x00,0xf8,0x00,0x00,0xf0,0x00,0x00,0x00,0x00,0x00,0x00,0x00,0x00,0x0f,0x00,0x00,0x1f,0x00,0x00,0x00,0xe0,0x01,0x00,0xc0,0x03,0xc0,0x03,0x00,0x80,0x07,0x00,0x00,0x00,0xf8,0x00,0x00,0xf0,0x00,0x00,0x00,0x00,0x00,0x00,0x00,0x00,0x0f,0x00,0x00,0x0f,0x00,0x00,0x00,0xe0,0x01,0x00,0xc0,0x03,0xc0,0x03,0x00,0x80,0x07,0x00,0x00,0x00,0xf8,0x00,0x00,0xf0,0x00,0x00,0x00,0x00,0x00,0x00,0x00,0x00,0x0f,0x00,0x00,0x0f,0x00,0x00,0x00,0xe0,0x01,0x00,0xc0,0x03,0xff,0xfe,0x01,0xff,0xfc,0x01,0x00,0xe0,0xcf,0x3b,0xc0,0xdd,0x7f,0x00,0x00,0x00,0x00,0x00,0x00,0xfe,0xff,0x03,0xdc,0xfb,0x07,0x00,0x80,0xff,0xff,0x80,0x7f,0xfe,0x7f,0xfe,0x01,0xff,0xdc,0x01,0x00,0xe0,0x8f,0x3b,0xc0,0x9f,0x7f,0x00,0x00,0x00,0x00,0x00,0x00,0xfe,0xf9,0x03,0xdc,0xf1,0x07,0x00,0x80,0x3f,0xff,0x80,0x7f,0xfe,0x7f,0xfe,0x01,0xff,0xfc,0x01,0x00,0xe0,0x8f,0x3f,0xc0,0x9f,0x7f,0x00,0x00,0x00,0x00,0x00,0x00,0xfe,0xf9,0x03,0xfc,0xf1,0x07,0x00,0x80,0x3f,0xff,0x80,0x7f,0xfe,0x7f,0x7c,0x01,0xfd,0xf8,0x01,0x00,0xe0,0x8f,0x3f,0x40,0x9f,0x5f,0x00,0x00,0x00,0x00,0x00,0x00,0xfc,0xf9,0x03,0xfc,0xf1,0x07,0x00,0x80,0x27,0xff,0x80,0x5f,0xfa,0x7f,0xfe,0x01,0xff,0xdc,0x01,0x00,0xe0,0x8f,0x3b,0xc0,0x9f,0x7f,0x00,0x00,0x00,0x00,0x00,0x00,0xfe,0xf9,0x03,0xdc,0xf1,0x07,0x00,0x80,0x3f,0xff,0x80,0x7f,0xfe,0x77,0xfe,0x01,0xff,0xfc,0x01,0x00,0xe0,0x8f,0x3b,0xc0,0x9f,0x7f,0x00,0x00,0x00,0x00,0x00,0x00,0xfe,0xf9,0x03,0xdc,0xf1,0x07,0x00,0x80,0x3f,0xff,0x80,0x7f,0xfe,0x7f,0xfe,0x01,0xff,0xfc,0xff,0xe3,0xfd,0x8e,0x3b,0xc0,0x9f,0x7f,0x00,0x00,0x00,0x00,0x00,0x00,0xfe,0xb9,0x03,0xdc,0xf1,0xbf,0xc7,0xff,0x3b,0xff,0x80,0x7f,0xfe,0x00,0x00,0x00,0x00,0x00,0xff,0xe3,0x3d,0x00,0x00,0x00,0x00,0x00,0x00,0x00,0x00,0x00,0x00,0x00,0x00,0x00,0x00,0x00,0x00,0xbc,0xc7,0xff,0x00,0x00,0x00,0x00,0x00,0x00,0x00,0x00,0x00,0x00,0xff,0xe3,0x3d,0x00,0x00,0x00,0x00,0x00,0x00,0x00,0x00,0x00,0x00,0x00,0x00,0x00,0x00,0x00,0x00,0xbc,0xc7,0xff,0x00,0x00,0x00,0x00,0x00,0x00,0x00,0x00,0x00,0x00,0xff,0xe3,0x3f,0x00,0x00,0x00,0x00,0x00,0x00,0x00,0x00,0x00,0x00,0x00,0x00,0x00,0x00,0x00,0x00,0xfc,0xc7,0xff,0x00,0x00,0x00,0x00,0x00,0x00,0x00,0x00,0x00,0x00,0x30,0x00,0x07,0x00,0x00,0x00,0x00,0x00,0x00,0x00,0x00,0x00,0x00,0x00,0x00,0x00,0x00,0x00,0x00,0xe0,0x00,0x0c,0x00,0x00,0x00,0x00,0x00,0x00,0x00,0x00,0x00,0x00,0xff,0xe3,0x3f,0x00,0x00,0x00,0x00,0x00,0x00,0x00,0x00,0x00,0x00,0x00,0x00,0x00,0x00,0x00,0x00,0xfc,0xc7,0xff,0x00,0x00,0x00,0x00,0x00,0x00,0x00,0x00,0x00,0x00,0xff,0xe3,0x3d,0x00,0x00,0x00,0x00,0x00,0x00,0x00,0x00,0x00,0x00,0x00,0x00,0x00,0x00,0x00,0x00,0xbc,0xc7,0xff,0x00,0x00,0x00,0x00,0x00,0x00,0x00,0x00,0x00,0x00,0xff,0xe3,0x3d,0x00,0x00,0x00,0x00,0x00,0x00,0x00,0x00,0x00,0x00,0x00,0x00,0x00,0x00,0x00,0x00,0xbc,0xc7,0xff,0x00,0x00,0x00,0x00,0x00,0x00,0x00,0x00,0x00,0x00,0xff,0xff,0x3d,0x00,0x00,0x00,0x00,0x00,0x00,0x00,0x00,0x00,0x00,0x00,0x00,0x00,0x00,0x00,0x00,0xbc,0xff,0x7f,0x00,0x00,0x00,0x00,0x00,0x00,0x00,0x00,0x00,0x00,0x00,0x3e,0x00,0x00,0x00,0x00,0x00,0x00,0x00,0x00,0x00,0x00,0x00,0x00,0x00,0x00,0x00,0x00,0x00,0x00,0x7c,0x00,0x00,0x00,0x00,0x00,0x00,0x00,0x00,0x00,0x00,0x00,0x00,0x3e,0x00,0x00,0x00,0x00,0x00,0x00,0x00,0x00,0x00,0x00,0x00,0x00,0x00,0x00,0x00,0x00,0x00,0x00,0x7c,0x00,0x00,0x00,0x00,0x00,0x00,0x00,0x00,0x00,0x00,0x00,0x00,0x3e,0x00,0x00,0x00,0x00,0x00,0x00,0x00,0x00,0x00,0x00,0x00,0x00,0x00,0x00,0x00,0x00,0x00,0x00,0x7c,0x00,0x00,0x00,0x00,0x00,0x00,0x00,0x00,0x00,0x00,0x00,0xfe,0xff,0x3d,0x00,0x00,0x00,0x00,0x00,0x00,0x00,0x00,0x00,0x00,0x00,0x00,0x00,0x00,0x00,0x00,0xbc,0xff,0xff,0x00,0x00,0x00,0x00,0x00,0x00,0x00,0x00,0x00,0x00,0xff,0xe3,0x3d,0x00,0x00,0x00,0x00,0x00,0x00,0x00,0x00,0x00,0x00,0x00,0x00,0x00,0x00,0x00,0x00,0xbc,0xc7,0xff,0x00,0x00,0x00,0x00,0x00,0x00,0x00,0x00,0x00,0x00,0xff,0xe3,0x3d,0x00,0x00,0x00,0x00,0x00,0x00,0x00,0x00,0x00,0x00,0x00,0x00,0x00,0x00,0x00,0x00,0xbc,0xc7,0xff,0x00,0x00,0x00,0x00,0x00,0x00,0x00,0x00,0x00,0x00,0xff,0xe3,0x3d,0x00,0x00,0x00,0x00,0x00,0x00,0x00,0x00,0x00,0x00,0x00,0x00,0x00,0x00,0x00,0x00,0xbc,0xc7,0xff,0x00,0x00,0x00,0x00,0x00,0x00,0x00,0x00,0x00,0x00,0xff,0xe3,0x3f,0x00,0x00,0x00,0x00,0x00,0x00,0x00,0x00,0x00,0x00,0x00,0x00,0x00,0x00,0x00,0x00,0xfc,0xc7,0xff,0x00,0x00,0x00,0x00,0x00,0x00,0x00,0x00,0x00,0x00,0xfe,0xe3,0x3f,0x00,0x00,0x00,0x00,0x00,0x00,0x00,0x00,0x00,0x00,0x00,0x00,0x00,0x00,0x00,0x00,0xfc,0xc7,0xff,0x00,0x00,0x00,0x00,0x00,0x00,0x00,0x00,0x00,0x00,0xff,0xe3,0x3d,0x00,0x00,0x00,0x00,0x00,0x00,0x00,0x00,0x00,0x00,0x00,0x00,0x00,0x00,0x00,0x00,0xbc,0xc7,0xff,0x00,0x00,0x00,0x00,0x00,0x00,0x00,0x00,0x00,0x00,0xff,0xe3,0x3d,0x00,0x00,0x00,0x00,0x00,0x00,0x00,0x00,0x00,0x00,0x00,0x00,0x00,0x00,0x00,0x00,0xbc,0xc7,0xff,0x00,0x00,0x00,0x00,0x00,0x00,0x00,0x00,0x00,0x00,0xff,0xe3,0x3d,0x00,0x00,0x00,0x00,0x00,0x00,0x00,0x00,0x00,0x00,0x00,0x00,0x00,0x00,0x00,0x00,0xbc,0xc7,0xff,0x00,0x00,0x00,0x00,0x00,0x7f,0xfe,0x01,0xff,0xfc,0xff,0xe3,0xfd,0x8f,0x3b,0xc0,0x9f,0x7f,0x00,0x00,0x00,0x00,0x00,0x00,0xfe,0xf9,0x03,0xdc,0xf1,0xbf,0xc7,0xfb,0x3f,0xff,0x80,0x7f,0xfe,0x7f,0xfe,0x01,0xff,0xdc,0x01,0x00,0xe0,0x8f,0x3b,0xc0,0x9f,0x7f,0x00,0x00,0x00,0x00,0x00,0x00,0xfe,0xf9,0x03,0xdc,0xf1,0x07,0x00,0x80,0x3f,0xff,0x80,0x7f,0xfe,0x7f,0xfe,0x01,0xff,0xfc,0x01,0x00,0xe0,0x8f,0x3f,0xc0,0x9f,0x7f,0x00,0x00,0x00,0x00,0x00,0x00,0xfe,0xf9,0x03,0xfc,0xf1,0x07,0x00,0x80,0x3f,0xff,0x80,0x7f,0xfe,0x5d,0xfc,0x01,0x7b,0x70,0x01,0x00,0x00,0x8f,0x3f,0x40,0x8b,0x2d,0x00,0x00,0x00,0x00,0x00,0x00,0xfc,0xf8,0x01,0xfc,0xe1,0x07,0x00,0x00,0x3f,0xbe,0x80,0x6f,0xfe,0x7f,0xfe,0x01,0xff,0xfc,0x01,0x00,0xe0,0x8f,0x3b,0xc0,0x9f,0x7f,0x00,0x00,0x00,0x00,0x00,0x00,0xfe,0xf9,0x03,0xdc,0xf1,0x07,0x00,0x80,0x3b,0xff,0x80,0x7f,0xfe,0x7f,0xfe,0x01,0xff,0xfc,0x01,0x00,0xe0,0x8f,0x3b,0xc0,0x9d,0x7f,0x00,0x00,0x00,0x00,0x00,0x00,0xfe,0xf9,0x03,0xdc,0xf1,0x07,0x00,0x80,0x3f,0xff,0x80,0x7f,0xfe,0xff,0xff,0x01,0xff,0xdf,0x01,0x00,0xe0,0xff,0x3b,0xc0,0xff,0x7f,0x00,0x00,0x00,0x00,0x00,0x00,0xfe,0xff,0x03,0xdc,0xff,0x07,0x00,0x80,0xff,0xff,0x80,0xff,0xff,0xc0,0x03,0x00,0x80,0x07,0x00,0x00,0x00,0xf8,0x00,0x00,0xf0,0x00,0x00,0x00,0x00,0x00,0x00,0x00,0x00,0x0f,0x00,0x00,0x1f,0x00,0x00,0x00,0xe0,0x01,0x00,0xc0,0x03,0xc0,0x03,0x00,0x80,0x07,0x00,0x00,0x00,0xf0,0x00,0x00,0xf0,0x00,0x00,0x00,0x00,0x00,0x00,0x00,0x00,0x0f,0x00,0x00,0x0f,0x00,0x00,0x00,0xe0,0x01,0x00,0xc0,0x03,0xff,0xff,0x01,0xff,0xdf,0x01,0x00,0xe0,0xfe,0x3b,0xc0,0xff,0x7f,0x00,0x00,0x00,0x00,0x00,0x00,0xfe,0xff,0x03,0xdc,0x7f,0x07,0x00,0x80,0xfb,0xff,0x80,0xff,0xef,0x7f,0xfe,0x01,0xff,0xfc,0x01,0x00,0xe0,0x8f,0x3b,0xc0,0x9f,0x7f,0x00,0x00,0x00,0x00,0x00,0x00,0xfe,0xf9,0x03,0xdc,0xf1,0x07,0x00,0x80,0x3b,0xff,0x80,0x7f,0xfe,0x77,0xfe,0x01,0xff,0xfc,0x01,0x00,0xe0,0x8f,0x3b,0xc0,0x9d,0x7f,0x00,0x00,0x00,0x00,0x00,0x00,0xfe,0xf9,0x03,0xdc,0xf1,0x07,0x00,0x80,0x3b,0xff,0x80,0x7f,0xfe,0x7f,0xfe,0x01,0xff,0xfc,0x01,0x00,0xe0,0x8f,0x3f,0xc0,0x9f,0x7f,0x00,0x00,0x00,0x00,0x00,0x00,0xfe,0xf9,0x03,0xfc,0xf1,0x07,0x00,0x80,0x3f,0xff,0x80,0x7f,0xfe,0x7f,0xfe,0x01,0xff,0xfc,0x01,0x00,0xe0,0x8f,0x3f,0xc0,0x1f,0x7f,0x00,0x00,0x00,0x00,0x00,0x00,0xfe,0xf9,0x03,0xfc,0xf1,0x07,0x00,0x80,0x3f,0xfe,0x80,0x7f,0xfe,0x7f,0xfe,0x01,0xff,0xfc,0x01,0x00,0xe0,0x8f,0x3b,0xc0,0x9f,0x7f,0x00,0x00,0x00,0x00,0x00,0x00,0xfe,0xf9,0x03,0xdc,0xf1,0x07,0x00,0x80,0x3f,0xff,0x80,0x7f,0xee,0x7f,0xfe,0x01,0xff,0xfc,0x01,0x00,0xe0,0x8f,0x3b,0xc0,0x9f,0x7f,0x00,0x00,0x00,0x00,0x00,0x00,0xfe,0xf9,0x03,0xdc,0xf1,0x07,0x00,0x80,0x3b,0xff,0x80,0x7f,0xfe,0x77,0xfe,0xef,0xff,0xdc,0x01,0x00,0xe0,0x8f,0xfb,0xff,0x9f,0x7f,0x00,0x00,0x00,0x00,0x00,0x00,0xfe,0xf9,0xff,0xdf,0xf1,0x07,0x00,0x80,0x3b,0xff,0xf7,0x7f,0xfe,0x00,0x00,0xef,0x01,0x00,0x00,0x00,0x00,0x00,0xe0,0x7f,0x00,0x00,0x00,0x00,0x00,0x00,0x00,0x00,0x00,0x00,0xfe,0x07,0x00,0x00,0x00,0x00,0x00,0x80,0xf7,0x00,0x00,0x00,0x00,0xef,0x01,0x00,0x00,0x00,0x00,0x00,0xe0,0x7f,0x00,0x00,0x00,0x00,0x00,0x00,0x00,0x00,0x00,0x00,0xfe,0x07,0x00,0x00,0x00,0x00,0x00,0x80,0xf7,0x00,0x00,0x00,0x00,0xff,0x01,0x00,0x00,0x00,0x00,0x00,0xe0,0x7f,0x00,0x00,0x00,0x00,0x00,0x00,0x00,0x00,0x00,0x00,0xfe,0x07,0x00,0x00,0x00,0x00,0x00,0x80,0xff,0x00,0x00,0x00,0x00,0x38,0x00,0x00,0x00,0x00,0x00,0x00,0x00,0x06,0x00,0x00,0x00,0x00,0x00,0x00,0x00,0x00,0x00,0x00,0x60,0x00,0x00,0x00,0x00,0x00,0x00,0x00,0x1c,0x00,0x00,0x00,0x00,0xff,0x01,0x00,0x00,0x00,0x00,0x00,0xe0,0x7f,0x00,0x00,0x00,0x00,0x00,0x00,0x00,0x00,0x00,0x00,0xfe,0x07,0x00,0x00,0x00,0x00,0x00,0x80,0xff,0x00,0x00,0x00,0x00,0xef,0x01,0x00,0x00,0x00,0x00,0x00,0xe0,0x7f,0x00,0x00,0x00,0x00,0x00,0x00,0x00,0x00,0x00,0x00,0xfe,0x07,0x00,0x00,0x00,0x00,0x00,0x80,0xf7,0x00,0x00,0x00,0x00,0xef,0x01,0x00,0x00,0x00,0x00,0x00,0xe0,0x7f,0x00,0x00,0x00,0x00,0x00,0x00,0x00,0x00,0x00,0x00,0xfc,0x07,0x00,0x00,0x00,0x00,0x00,0x80,0xf7,0x00,0x00,0x7f,0xfe,0xef,0xff,0xdc,0x01,0x00,0xe0,0x8f,0xfb,0xff,0x9f,0x7f,0x00,0x00,0x00,0x00,0x00,0x00,0xfe,0xf9,0xff,0xdf,0x71,0x07,0x00,0x80,0x3f,0xff,0xf7,0x7f,0xfe,0x77,0xfe,0x01,0xff,0xfc,0x01,0x00,0xe0,0x8f,0x3b,0xc0,0x9f,0x7f,0x00,0x00,0x00,0x00,0x00,0x00,0xfe,0xf9,0x03,0xdc,0x71,0x07,0x00,0x80,0x3f,0xff,0x80,0x7f,0xfe,0x7f,0xfe,0x01,0xff,0xdc,0x01,0x00,0xe0,0x8f,0x3b,0xc0,0x9f,0x7f,0x00,0x00,0x00,0x00,0x00,0x00,0xfe,0xf9,0x03,0xdc,0x71,0x07,0x00,0x80,0x3f,0xff,0x80,0x7f,0xfe,0x7f,0xfe,0x01,0xff,0xfc,0x01,0x00,0xe0,0x8f,0x3f,0xc0,0x9f,0x7f,0x00,0x00,0x00,0x00,0x00,0x00,0xfe,0xf9,0x03,0xfc,0xf1,0x07,0x00,0x80,0x3f,0xff,0x80,0x7f,0xfe,0x7f,0xfe,0x01,0xff,0xfc,0x01,0x00,0xe0,0x8f,0x3f,0xc0,0x9f,0x7f,0x00,0x00,0x00,0x00,0x00,0x00,0xfe,0xf9,0x03,0xfc,0xf1,0x07,0x00,0x80,0x3f,0xff,0x80,0x7f,0xfe,0x7f,0xfe,0x01,0xff,0xfc,0x01,0x00,0xe0,0x8f,0x3b,0xc0,0x9f,0x7f,0x00,0x00,0x00,0x00,0x00,0x00,0xfe,0xf9,0x03,0xdc,0xf1,0x07,0x00,0x80,0x3f,0xff,0x80,0x7f,0xfe,0x7f,0xfe,0x01,0xff,0xfc,0x01,0x00,0xe0,0x8f,0x3b,0xc0,0x9f,0x7f,0x00,0x00,0x00,0x00,0x00,0x00,0xfe,0xf9,0x03,0xdc,0xf1,0x07,0x00,0x80,0x3f,0xff,0x80,0x7f,0xfe,0xff,0xff,0x01,0xff,0xdf,0x01,0x00,0xe0,0xff,0x3b,0xc0,0xff,0x7f,0x00,0x00,0x00,0x00,0x00,0x00,0xfe,0xbf,0x03,0xdc,0xff,0x07,0x00,0x80,0xfb,0xff,0x80,0xff,0xef,0xc0,0x03,0x00,0x80,0x07,0x00,0x00,0x00,0xf8,0x00,0x00,0xf0,0x00,0x00,0x00,0x00,0x00,0x00,0x00,0x00,0x0f,0x00,0x00,0x0f,0x00,0x00,0x00,0xe0,0x01,0x00,0xc0,0x03,0xc0,0x03,0x00,0x80,0x07,0x00,0x00,0x00,0xf0,0x00,0x00,0xf0,0x00,0x00,0x00,0x00,0x00,0x00,0x00,0x00,0x0f,0x00,0x00,0x1f,0x00,0x00,0x00,0xe0,0x01,0x00,0xc0,0x03,0xff,0xff,0x01,0xff,0xdf,0x01,0x00,0xe0,0xff,0x3b,0xc0,0xff,0x7f,0x00,0x00,0x00,0x00,0x00,0x00,0xfe,0xff,0x03,0xdc,0xff,0x07,0x00,0x80,0xff,0xff,0x80,0xff,0xff,0x7f,0xfe,0x01,0xff,0xfc,0x01,0x00,0xe0,0x8f,0x3b,0xc0,0x9f,0x7f,0x00,0x00,0x00,0x00,0x00,0x00,0xfe,0xf9,0x03,0xdc,0xf1,0x07,0x00,0x80,0x3b,0xff,0x80,0x7f,0xee,0x7f,0xfe,0x01,0xff,0xfc,0x01,0x00,0xe0,0x8f,0x3b,0xc0,0x9f,0x7f,0x00,0x00,0x00,0x00,0x00,0x00,0xfe,0xf9,0x03,0xdc,0xf1,0x07,0x00,0x80,0x3f,0xff,0x80,0x7f,0xfe,0x7f,0xb4,0x01,0x7f,0xfc,0x01,0x00,0xe0,0x8f,0x3f,0x80,0x9f,0x7f,0x00,0x00,0x00,0x00,0x00,0x00,0xfe,0xf1,0x02,0xfc,0xd1,0x03,0x00,0x80,0x1f,0xfb,0x80,0x7f,0xbe,0x7f,0xfe,0x01,0xff,0xfc,0x01,0x00,0xe0,0x8f,0x3f,0xc0,0x9f,0x7f,0x00,0x00,0x00,0x00,0x00,0x00,0xfe,0xf9,0x03,0xfc,0xf1,0x07,0x00,0x80,0x3f,0xff,0x80,0x7f,0xfe,0x77,0xfe,0x01,0xff,0xdc,0x01,0x00,0xe0,0x8f,0x3b,0xc0,0x9f,0x7f,0x00,0x00,0x00,0x00,0x00,0x00,0xfe,0xf9,0x03,0xdc,0xf1,0x07,0x00,0x80,0x3f,0xff,0x80,0x7f,0xfe,0x7f,0xfe,0x01,0xff,0xdc,0x01,0x00,0xe0,0x8f,0x3b,0xc0,0x9f,0x7f,0x00,0x00,0x00,0x00,0x00,0x00,0xfe,0xf9,0x03,0xdc,0xf1,0x07,0x00,0x80,0x3f,0xff,0x80,0x7f,0xfe};
