#define x_width 256
#define x_height 256
static char x_bits[] = {
0x00,0x00,0x00,0x00,0x00,0x00,0x00,0x00,0x00,0x00,0x00,0x00,0x00,0x00,0x00,0x00,0x00,0x00,0x00,0x00,0x00,0x00,0x00,0x00,0x00,0x00,0x00,0x00,0x00,0x00,0x00,0x00,0x00,0x00,0x00,0x00,0x00,0x00,0x00,0x00,0x00,0x00,0x00,0x00,0x00,0x00,0x00,0x00,0x00,0x00,0x00,0x00,0x00,0x00,0x00,0x00,0x00,0x00,0x00,0x00,0x00,0x00,0x00,0x00,0x00,0x00,0x00,0x00,0x00,0x00,0x00,0x00,0x00,0x00,0x00,0x00,0x00,0x00,0x00,0x00,0x00,0x00,0x00,0x00,0x00,0x00,0x00,0x00,0x00,0x00,0x00,0x00,0x00,0x00,0x00,0x00,0x00,0x00,0x00,0x00,0x00,0x00,0x00,0x00,0x00,0x00,0x00,0x00,0x00,0x00,0x00,0x00,0x00,0x00,0x00,0x00,0x00,0x00,0x00,0x00,0x00,0x00,0x00,0x00,0x00,0x00,0x00,0x00,0x00,0x00,0x00,0x00,0x00,0x00,0x00,0x00,0x00,0x00,0x00,0x00,0x00,0x00,0x00,0x00,0x00,0x00,0x00,0x00,0x00,0x00,0x00,0x00,0x00,0x00,0x00,0x00,0x00,0x00,0x00,0x00,0x00,0x00,0x00,0x00,0x00,0x00,0x00,0x00,0x00,0x00,0x00,0x00,0x00,0x00,0x00,0x00,0x00,0x00,0x00,0x00,0x00,0x00,0x00,0x00,0x00,0x00,0x00,0x00,0x00,0x00,0x00,0x00,0x00,0x00,0x00,0x00,0x00,0x00,0x00,0x00,0x00,0x00,0x00,0x00,0x00,0x00,0x00,0x00,0x00,0x00,0x00,0x00,0x00,0x00,0x00,0x00,0x00,0x00,0x00,0x00,0x00,0x00,0x00,0x00,0x00,0x00,0x00,0x00,0x00,0x00,0x00,0x00,0x00,0x00,0x00,0x00,0x00,0x00,0x00,0x00,0x00,0x00,0x00,0x00,0x00,0x00,0x00,0x00,0x00,0x00,0x00,0x00,0x00,0x00,0x00,0x00,0x00,0x00,0x00,0x00,0x00,0x00,0x00,0x00,0x00,0x00,0x00,0x00,0x00,0x00,0x00,0x00,0x00,0x00,0x00,0x00,0x00,0x00,0x00,0x00,0x00,0x00,0x00,0x00,0x00,0x00,0x00,0x00,0x00,0x00,0x00,0x00,0x00,0x00,0x00,0x00,0x00,0x00,0x00,0x00,0x00,0x00,0x00,0x00,0x00,0x00,0x00,0x00,0x00,0x00,0x00,0x00,0x00,0x00,0x00,0x00,0x00,0x00,0x00,0x00,0x00,0x00,0x00,0x00,0x00,0x00,0x00,0x00,0x00,0x00,0x00,0x00,0x00,0x00,0x00,0x00,0x00,0x00,0x00,0x00,0x00,0x00,0x00,0x00,0x00,0x00,0x00,0x00,0x00,0x00,0x00,0x00,0x00,0x00,0x00,0x00,0x00,0x00,0x00,0x00,0x00,0x00,0x00,0x00,0x00,0x00,0x00,0x00,0x00,0x00,0x00,0x00,0x00,0x00,0x00,0x00,0x00,0x00,0x00,0x00,0x00,0x00,0x00,0x00,0x00,0x00,0x00,0x00,0x00,0x00,0x00,0x00,0x00,0x00,0x00,0x00,0x00,0x00,0x00,0x00,0x00,0x00,0x00,0x00,0x00,0x00,0x00,0x00,0x00,0x00,0x00,0x00,0x00,0x00,0x00,0x00,0x00,0x00,0x00,0x00,0x00,0x00,0x00,0x00,0x00,0x00,0x00,0x00,0x00,0x00,0x00,0x00,0x00,0x00,0x00,0x00,0x00,0x00,0x00,0x00,0x00,0x00,0x00,0x00,0x00,0x00,0x00,0x00,0x00,0x00,0x00,0x00,0x00,0x00,0x00,0x00,0x00,0x00,0x00,0x00,0x00,0x00,0x00,0x00,0x00,0x00,0x00,0x00,0x00,0x00,0x00,0x00,0x00,0x00,0x00,0x00,0x00,0x00,0x00,0x00,0x00,0x00,0x00,0x00,0x00,0x00,0x00,0x00,0x00,0x00,0x00,0x00,0x00,0x00,0x00,0x00,0x00,0x00,0x00,0x00,0x00,0x00,0x00,0x00,0x00,0x00,0x00,0x00,0x00,0x00,0x00,0x00,0x00,0x00,0x00,0x00,0x00,0x00,0x00,0x00,0x00,0x00,0x00,0x00,0x00,0x00,0x00,0x00,0x00,0x00,0x00,0x00,0x00,0x00,0x00,0x00,0x00,0x00,0x00,0x00,0x00,0x00,0x00,0x00,0x00,0x00,0x00,0x00,0x00,0x00,0x00,0x00,0x00,0x00,0x00,0x00,0x00,0x00,0x00,0x00,0x00,0x00,0x00,0x00,0x00,0x00,0x00,0x00,0x00,0x00,0x00,0x00,0x00,0x00,0x00,0x00,0x00,0x00,0x00,0x00,0x00,0x00,0x00,0x00,0x00,0x00,0x00,0x00,0x00,0x00,0x00,0x00,0x00,0x00,0x00,0x00,0x00,0x00,0x00,0x00,0x00,0x00,0x00,0x00,0x00,0x00,0x00,0x00,0x00,0x00,0x00,0x00,0x00,0x00,0x00,0x00,0x00,0x00,0x00,0x00,0x00,0x00,0x00,0x00,0x00,0x00,0x00,0x00,0x00,0x00,0x00,0x00,0x00,0x00,0x00,0x00,0x00,0x00,0x00,0x00,0x00,0x00,0x00,0x00,0x00,0x00,0x00,0x00,0x00,0x00,0x00,0x00,0x00,0x00,0x00,0x00,0x00,0x00,0x00,0x00,0x00,0x00,0x00,0x00,0x00,0x00,0x00,0x00,0x00,0x00,0x00,0x00,0x00,0x00,0x00,0x00,0x00,0x00,0x00,0x00,0x00,0x00,0x00,0x00,0x00,0x00,0x00,0x00,0x00,0x00,0x00,0x00,0x00,0x00,0x00,0x00,0x00,0x00,0x00,0x00,0x00,0x00,0x00,0x00,0x00,0x00,0x00,0x00,0x00,0x00,0x00,0x00,0x00,0x00,0x00,0x00,0x00,0x00,0x00,0x00,0x00,0x00,0x00,0x00,0x00,0x00,0x00,0x00,0x00,0x00,0x00,0x00,0x00,0x00,0x00,0x00,0x00,0x00,0x00,0x00,0x00,0x00,0x00,0x00,0x00,0x00,0x00,0x00,0x00,0x00,0x00,0x00,0x00,0x00,0x00,0x00,0x00,0x00,0x00,0x00,0x00,0x00,0x00,0x00,0x00,0x00,0x00,0x00,0x00,0x00,0x00,0x00,0x00,0x00,0x00,0x00,0x00,0x00,0x00,0x00,0x00,0x00,0x00,0x00,0x00,0x00,0x00,0x00,0x00,0x00,0x00,0x00,0x00,0x00,0x00,0x00,0x00,0x00,0x00,0x00,0x00,0x00,0x00,0x00,0x00,0x00,0x00,0x00,0x00,0x00,0x00,0x00,0x00,0x00,0x00,0x00,0x00,0x00,0x00,0x00,0x00,0x00,0x00,0x00,0x00,0x00,0x00,0x00,0x00,0x00,0x00,0x00,0x00,0x00,0x00,0x00,0x00,0x00,0x00,0x00,0x00,0x00,0x00,0x00,0x00,0x00,0x00,0x00,0x00,0x00,0x00,0x00,0x00,0x00,0x00,0x00,0x00,0x00,0x00,0x00,0x00,0x00,0x00,0x00,0x00,0x00,0x00,0x00,0x00,0x00,0x00,0x00,0x00,0x00,0x00,0x00,0x00,0x00,0x00,0x00,0x00,0x00,0x00,0x00,0x00,0x00,0x00,0x00,0x00,0x00,0x00,0x00,0x00,0x00,0x00,0x00,0x00,0x00,0x00,0x00,0x00,0x00,0x00,0x00,0x00,0x00,0x00,0x00,0x00,0x00,0x00,0x00,0x00,0x00,0x00,0x00,0x00,0x00,0x00,0x00,0x00,0x00,0x00,0x00,0x00,0x00,0x00,0x00,0x00,0x00,0x00,0x00,0x00,0x00,0x00,0x00,0x00,0x00,0x00,0x00,0x00,0x00,0x00,0x00,0x00,0x00,0x00,0x00,0x00,0x00,0x00,0x00,0x00,0x00,0x00,0x00,0x00,0x00,0x00,0x00,0x00,0x00,0x00,0x00,0x00,0x00,0x00,0x00,0x00,0x00,0x00,0x00,0x00,0x00,0x00,0x00,0x00,0x00,0x00,0x00,0x00,0x00,0x00,0x00,0x00,0x00,0x00,0x00,0x00,0x00,0x00,0x00,0x00,0x00,0x00,0x00,0x00,0x00,0x00,0x00,0x00,0x00,0x00,0x00,0x00,0x00,0x00,0x00,0x00,0x00,0x00,0x00,0x00,0x00,0x00,0x00,0x00,0x00,0x00,0x00,0x00,0x00,0x00,0x00,0x00,0x00,0x00,0x00,0x00,0x00,0x00,0x00,0x00,0x00,0x00,0x00,0x00,0x00,0x00,0x00,0x00,0x00,0x00,0x00,0x00,0x00,0x00,0x00,0x00,0x00,0x00,0x00,0x00,0x00,0x00,0x00,0x00,0x00,0x00,0x00,0x00,0x00,0x00,0x00,0x00,0x00,0x00,0x00,0x00,0x00,0x00,0x00,0x00,0x00,0x00,0x00,0x00,0x00,0x00,0x00,0x00,0x00,0x00,0x00,0x00,0x00,0x00,0x00,0x00,0x00,0x00,0x00,0x00,0x00,0x00,0x00,0x00,0x00,0x00,0x00,0x00,0x00,0x00,0x00,0x00,0x00,0x00,0x00,0x00,0x00,0x00,0x00,0x00,0x00,0x00,0x00,0x00,0x00,0x00,0x00,0x00,0x00,0x00,0x00,0x00,0x00,0x00,0x00,0x00,0x00,0x00,0x00,0x00,0x00,0x00,0x00,0x00,0x00,0x00,0x00,0x00,0x00,0x00,0x00,0x00,0x00,0x00,0x00,0x00,0x00,0x00,0x00,0x00,0x00,0x00,0x00,0x00,0x00,0x00,0x00,0x00,0x00,0x00,0x00,0x00,0x00,0x00,0x00,0x00,0x00,0x00,0x00,0x00,0x00,0x00,0x00,0x00,0x00,0x00,0x00,0x00,0x00,0x00,0x00,0x00,0x00,0x00,0x00,0x00,0x00,0x00,0x00,0x00,0x00,0x00,0x00,0x00,0x00,0x00,0x00,0x00,0x00,0x00,0x00,0x00,0x00,0x00,0x00,0x00,0x00,0x00,0x00,0x00,0x00,0x00,0x00,0x00,0x00,0x00,0x00,0x00,0x00,0x00,0x00,0x00,0x00,0x00,0x00,0x00,0x00,0x00,0x00,0x00,0x00,0x00,0x00,0x00,0x00,0x00,0x00,0x00,0x00,0x00,0x00,0x00,0x00,0x00,0x00,0x00,0x00,0x00,0x00,0x00,0x00,0x00,0x00,0x00,0x00,0x00,0x00,0x00,0x00,0x00,0x00,0x00,0x00,0x00,0x00,0x00,0x00,0x00,0x00,0x00,0x00,0x00,0x00,0x00,0x00,0x00,0x00,0x00,0x00,0x00,0x00,0x00,0x00,0x00,0x00,0x00,0x00,0x00,0x00,0x00,0x00,0x00,0x00,0x00,0x00,0x00,0x00,0x00,0x00,0x00,0x00,0x00,0x00,0x00,0x00,0x00,0x00,0x00,0x00,0x00,0x00,0x00,0x00,0x00,0x00,0x00,0x00,0x00,0x00,0x00,0x00,0x00,0x00,0x00,0x00,0x00,0x00,0x00,0x00,0x00,0x00,0x00,0x00,0x00,0x00,0x00,0x00,0x00,0x00,0x00,0x00,0x00,0x00,0x00,0x00,0x00,0x00,0x00,0x00,0x00,0x00,0x00,0x00,0x00,0x00,0x00,0x00,0x00,0x00,0x00,0x00,0x00,0x00,0x00,0x00,0x00,0x00,0x00,0x00,0x00,0x00,0x00,0x00,0x00,0x80,0x0d,0x6c,0x00,0x00,0x00,0x6c,0xc0,0x06,0x00,0x00,0x00,0x00,0x00,0x00,0x00,0x00,0x00,0x00,0x00,0x00,0x60,0x03,0x36,0x00,0x00,0x00,0x36,0xb0,0x01,0x00,0x00,0x80,0x0f,0x7c,0x00,0x00,0x00,0x7c,0xc0,0x07,0x00,0x00,0x00,0x00,0x00,0x00,0x00,0x00,0x00,0x00,0x00,0x00,0xe0,0x03,0x3e,0x00,0x00,0x00,0x3e,0xf0,0x01,0x00,0x00,0x80,0x0f,0x7c,0x00,0x00,0x00,0x7c,0xc0,0x07,0x00,0x00,0x00,0x00,0x00,0x00,0x00,0x00,0x00,0x00,0x00,0x00,0xe0,0x03,0x3e,0x00,0x00,0x00,0x3e,0xf0,0x01,0x00,0x00,0x80,0x3f,0x7f,0x00,0x00,0x00,0xfc,0xf1,0x07,0x00,0x00,0x00,0x00,0x00,0x00,0x00,0x00,0x00,0x00,0x00,0x00,0xe0,0x8f,0x3f,0x00,0x00,0x00,0xfe,0xfc,0x01,0x00,0x00,0x00,0xff,0x3f,0x00,0x00,0x00,0xf8,0xfb,0x03,0x00,0x00,0x00,0x00,0x00,0x00,0x00,0x00,0x00,0x00,0x00,0x00,0xc0,0xdf,0x1f,0x00,0x00,0x00,0xfc,0xff,0x00,0x00,0x00,0x00,0xfb,0x37,0x00,0x00,0x00,0xb0,0xff,0x01,0x00,0x00,0x00,0x00,0x00,0x00,0x00,0x00,0x00,0x00,0x00,0x00,0x80,0xff,0x0d,0x00,0x00,0x00,0xec,0xdf,0x00,0x00,0x00,0x00,0xfb,0x37,0x00,0x00,0x00,0xb0,0xff,0x01,0x00,0x00,0x00,0x00,0x00,0x00,0x00,0x00,0x00,0x00,0x00,0x00,0x80,0xff,0x0d,0x00,0x00,0x00,0xec,0xdf,0x00,0x00,0x00,0x00,0xff,0x3f,0x00,0x00,0x00,0xf8,0xfb,0x03,0x00,0x00,0x00,0x00,0x00,0x00,0x00,0x00,0x00,0x00,0x00,0x00,0xc0,0xdf,0x1f,0x00,0x00,0x00,0xfc,0xff,0x00,0x00,0x00,0x00,0x3f,0x3f,0x00,0x00,0x00,0xfc,0xf1,0x07,0x00,0x00,0x00,0x00,0x00,0x00,0x00,0x00,0x00,0x00,0x00,0x00,0xc0,0x8f,0x1f,0x00,0x00,0x00,0xfe,0xfc,0x00,0x00,0x00,0x80,0x3f,0x7f,0x00,0x00,0x00,0xfc,0xf1,0x07,0x00,0x00,0x00,0x00,0x00,0x00,0x00,0x00,0x00,0x00,0x00,0x00,0xe0,0x8f,0x3f,0x00,0x00,0x00,0xfe,0xfc,0x01,0x00,0x00,0x80,0x07,0x7c,0x00,0x00,0x00,0x78,0xc0,0x07,0x00,0x00,0x00,0x00,0x00,0x00,0x00,0x00,0x00,0x00,0x00,0x00,0xe0,0x03,0x1e,0x00,0x00,0x00,0x3e,0xe0,0x01,0x00,0x00,0x80,0x3f,0xff,0x39,0x00,0x38,0xfe,0xf1,0x07,0x00,0x00,0x00,0x00,0x00,0x00,0x00,0x00,0x00,0x00,0x00,0x00,0xe0,0x8f,0x7f,0x1c,0x00,0x9c,0xff,0xfc,0x01,0x00,0x00,0x80,0xfd,0xef,0x3d,0x00,0x78,0xcf,0xfb,0x06,0x00,0x00,0x00,0x00,0x00,0x00,0x00,0x00,0x00,0x00,0x00,0x00,0x60,0xdf,0xf7,0x1e,0x00,0xbc,0xf7,0xbd,0x01,0x00,0x00,0x00,0xf8,0xc7,0x3f,0x00,0xf8,0xcf,0x7f,0x00,0x00,0x00,0x00,0x00,0x00,0x00,0x00,0x00,0x00,0x00,0x00,0x00,0x00,0xfe,0xf3,0x0f,0x00,0xfc,0xe3,0x1f,0x00,0x00,0x00,0x00,0xf8,0xc7,0x1f,0x00,0xf0,0x87,0x3f,0x00,0x00,0x00,0x00,0x00,0x00,0x00,0x00,0x00,0x00,0x00,0x00,0x00,0x00,0xfc,0xe1,0x0f,0x00,0xf8,0xe3,0x1f,0x00,0x00,0x00,0x00,0xf8,0xe7,0x3f,0x00,0xf8,0xcf,0x7f,0x00,0x00,0x00,0x00,0x00,0x00,0x00,0x00,0x00,0x00,0x00,0x00,0x00,0x00,0xfe,0xf3,0x1f,0x00,0xfc,0xe7,0x1f,0x00,0x00,0x00,0x00,0x38,0xc7,0x39,0x00,0x38,0xce,0x71,0x00,0x00,0x00,0x00,0x00,0x00,0x00,0x00,0x00,0x00,0x00,0x00,0x00,0x00,0x8e,0x73,0x1c,0x00,0x9c,0xe7,0x1c,0x00,0x00,0x00,0x00,0xf8,0xe7,0xff,0x03,0xff,0xcf,0x5f,0x00,0x00,0x00,0x00,0x00,0x00,0x00,0x00,0x00,0x00,0x00,0x00,0x00,0x00,0xfa,0xf3,0xff,0xc0,0xff,0xe3,0x1f,0x00,0x00,0x00,0x00,0xe0,0x01,0xef,0x03,0xcf,0x03,0x1f,0x00,0x00,0x00,0x00,0x00,0x00,0x00,0x00,0x00,0x00,0x00,0x00,0x00,0x00,0xf8,0xc0,0xf3,0xc0,0xf7,0x80,0x07,0x00,0x00,0x00,0x00,0xe0,0x81,0xef,0xcf,0xff,0x03,0x1f,0x00,0x00,0x00,0x00,0x00,0x00,0x00,0x00,0x00,0x00,0x00,0x00,0x00,0x00,0xf8,0xc0,0xff,0xf3,0xf7,0x81,0x07,0x00,0x00,0x00,0x00,0xe0,0x00,0xc7,0xcf,0xcf,0x01,0x0e,0x00,0x00,0x00,0x00,0x00,0x00,0x00,0x00,0x00,0x00,0x00,0x00,0x00,0x00,0x70,0x80,0xf3,0xf3,0xe3,0x00,0x03,0x00,0x00,0x00,0x00,0xc0,0x00,0xc7,0xff,0xcf,0x01,0x0e,0x00,0x00,0x00,0x00,0x00,0x00,0x00,0x00,0x00,0x00,0x00,0x00,0x00,0x00,0x70,0x80,0xf3,0xff,0xe3,0x00,0x03,0x00,0x00,0x00,0x00,0xc0,0x00,0x86,0xfe,0x84,0x00,0x04,0x00,0x00,0x00,0x00,0x00,0x00,0x00,0x00,0x00,0x00,0x00,0x00,0x00,0x00,0x20,0x00,0x21,0x7f,0x61,0x00,0x03,0x00,0x00,0x00,0x00,0xc0,0x00,0xc7,0xff,0xcf,0x01,0x0e,0x00,0x00,0x00,0x00,0x00,0x00,0x00,0x00,0x00,0x00,0x00,0x00,0x00,0x00,0x70,0x80,0xf3,0xff,0xe3,0x00,0x03,0x00,0x00,0x00,0x00,0xe0,0x00,0xc7,0xcf,0xcf,0x01,0x0e,0x00,0x00,0x00,0x00,0x00,0x00,0x00,0x00,0x00,0x00,0x00,0x00,0x00,0x00,0x70,0x80,0xf3,0xf3,0xe3,0x00,0x07,0x00,0x00,0x00,0x00,0xe0,0x81,0xef,0xcf,0xff,0x03,0x1f,0x00,0x00,0x00,0x00,0x00,0x00,0x00,0x00,0x00,0x00,0x00,0x00,0x00,0x00,0xf8,0xc0,0xff,0xe3,0xf7,0x81,0x07,0x00,0x00,0x00,0x00,0xe0,0x01,0xef,0x03,0xcf,0x03,0x1f,0x00,0x00,0x00,0x00,0x00,0x00,0x00,0x00,0x00,0x00,0x00,0x00,0x00,0x00,0xf8,0xc0,0xf7,0xc0,0xf7,0x80,0x07,0x00,0x00,0x00,0x00,0xf8,0xc7,0xff,0x03,0xff,0xcf,0x7f,0x00,0x00,0x00,0x00,0x00,0x00,0x00,0x00,0x00,0x00,0x00,0x00,0x00,0x00,0xfa,0xf3,0xff,0xc0,0xff,0xe3,0x1f,0x00,0x00,0x00,0x00,0xf8,0xc7,0x7d,0x03,0x7b,0xcf,0x7b,0x00,0x00,0x00,0x00,0x00,0x00,0x00,0x00,0x00,0x00,0x00,0x00,0x00,0x00,0xde,0xf3,0xde,0xc0,0xbe,0xe3,0x1f,0x00,0x00,0x00,0x00,0xf8,0xc7,0x3d,0x00,0x78,0xcf,0x7b,0x00,0x00,0x00,0x00,0x00,0x00,0x00,0x00,0x00,0x00,0x00,0x00,0x00,0x00,0xde,0xf3,0x1e,0x00,0xbc,0xe7,0x1f,0x00,0x00,0x00,0x00,0xf8,0xc7,0x3f,0x00,0xf0,0x8f,0x7f,0x00,0x00,0x00,0x00,0x00,0x00,0x00,0x00,0x00,0x00,0x00,0x00,0x00,0x00,0xfe,0xf1,0x0f,0x00,0xfc,0xe3,0x1f,0x00,0x00,0x00,0x00,0xf8,0xc7,0x3f,0x00,0xf0,0x8f,0x7f,0x00,0x00,0x00,0x00,0x00,0x00,0x00,0x00,0x00,0x00,0x00,0x00,0x00,0x00,0xfe,0xf1,0x0f,0x00,0xfc,0xe3,0x1f,0x00,0x00,0x00,0x00,0xf8,0xe7,0x3d,0x00,0x78,0xcf,0x7b,0x00,0x00,0x00,0x00,0x00,0x00,0x00,0x00,0x00,0x00,0x00,0x00,0x00,0x00,0xde,0xf3,0x1e,0x00,0xbc,0xe3,0x1f,0x00,0x00,0x00,0x80,0x3f,0xff,0x39,0x00,0x38,0xfe,0xf1,0x07,0x00,0x00,0x00,0x00,0x00,0x00,0x00,0x00,0x00,0x00,0x00,0x00,0xe0,0x8f,0x7f,0x1c,0x00,0x9c,0xff,0xfc,0x01,0x00,0x00,0x80,0x07,0x7c,0x00,0x00,0x00,0x78,0xc0,0x07,0x00,0x00,0x00,0x00,0x00,0x00,0x00,0x00,0x00,0x00,0x00,0x00,0xe0,0x03,0x1e,0x00,0x00,0x00,0x3e,0xe0,0x01,0x00,0x00,0x80,0x0f,0x7c,0x00,0x00,0x00,0x7c,0xc0,0x07,0x00,0x00,0x00,0x00,0x00,0x00,0x00,0x00,0x00,0x00,0x00,0x00,0xe0,0x03,0x3e,0x00,0x00,0x00,0x3e,0xf0,0x01,0x00,0x00,0x80,0x3f,0x7f,0x00,0x00,0x00,0xfc,0xf1,0x07,0x00,0x00,0x00,0x00,0x00,0x00,0x00,0x00,0x00,0x00,0x00,0x00,0xe0,0x8f,0x3f,0x00,0x00,0x00,0xfe,0xfc,0x01,0x00,0x00,0x00,0xff,0x3f,0x00,0x00,0x00,0xf8,0xfb,0x03,0x00,0x00,0x00,0x00,0x00,0x00,0x00,0x00,0x00,0x00,0x00,0x00,0xc0,0xdf,0x1f,0x00,0x00,0x00,0xfc,0xff,0x00,0x00,0x00,0x00,0xfb,0x37,0x00,0x00,0x00,0xb0,0xbf,0x01,0x00,0x00,0x00,0x00,0x00,0x00,0x00,0x00,0x00,0x00,0x00,0x00,0x80,0xff,0x0d,0x00,0x00,0x00,0xec,0xdf,0x00,0x00,0x00,0x00,0xfb,0x37,0x00,0x00,0x00,0xb0,0xff,0x01,0x00,0x00,0x00,0x00,0x00,0x00,0x00,0x00,0x00,0x00,0x00,0x00,0x80,0xff,0x0d,0x00,0x00,0x00,0xec,0xdf,0x00,0x00,0x00,0x00,0xff,0x3f,0x00,0x00,0x00,0xf8,0xfb,0x03,0x00,0x00,0x00,0x00,0x00,0x00,0x00,0x00,0x00,0x00,0x00,0x00,0xc0,0xdf,0x1f,0x00,0x00,0x00,0xfc,0xff,0x00,0x00,0x00,0x80,0x3f,0x7f,0x00,0x00,0x00,0xfc,0xf1,0x07,0x00,0x00,0x00,0x00,0x00,0x00,0x00,0x00,0x00,0x00,0x00,0x00,0xe0,0x8f,0x3f,0x00,0x00,0x00,0xfe,0xfc,0x01,0x00,0x00,0x80,0x0f,0xfc,0x38,0x00,0x38,0x7e,0xc0,0xe7,0x00,0xe0,0x38,0x00,0x00,0x00,0x00,0x00,0x00,0x1c,0x07,0x00,0xe7,0x03,0x7e,0x1c,0x00,0x1c,0x3f,0xf0,0x01,0x00,0x00,0x80,0x07,0xfc,0x39,0x00,0x38,0x7e,0xc0,0xe7,0x00,0xe0,0x38,0x00,0x00,0x00,0x00,0x00,0x00,0x1c,0x07,0x00,0xe7,0x03,0x7e,0x1c,0x00,0x9c,0x3f,0xe0,0x01,0x00,0x00,0x80,0x0f,0xfc,0x3f,0x00,0xf8,0x7f,0xc0,0xff,0x00,0xe0,0x3f,0x00,0x00,0x00,0x00,0x00,0x00,0xfc,0x07,0x00,0xff,0x03,0xfe,0x1f,0x00,0xfc,0x3f,0xf0,0x01,0x00,0x00,0x00,0x00,0xc0,0x1f,0x00,0xf0,0x07,0x00,0x7f,0x00,0xc0,0x1f,0x00,0x00,0x00,0x00,0x00,0x00,0xf8,0x03,0x00,0xfe,0x00,0xe0,0x0f,0x00,0xf8,0x03,0x00,0x00,0x00,0x00,0x00,0x00,0xc0,0x3f,0x00,0xf0,0x0f,0x00,0x7f,0x00,0xe0,0x1f,0x00,0x00,0x00,0x00,0x00,0x00,0xf8,0x07,0x00,0xff,0x00,0xf0,0x0f,0x00,0xfc,0x03,0x00,0x00,0x00,0x00,0x00,0x00,0xc0,0x3d,0x00,0x78,0x0f,0x80,0xf7,0x00,0xe0,0x3d,0x00,0x00,0x00,0x00,0x00,0x00,0xbc,0x07,0x00,0xef,0x01,0xf0,0x1e,0x00,0xbc,0x03,0x00,0x00,0x00,0x00,0x00,0x00,0xe0,0xff,0x03,0xff,0x0f,0x80,0xff,0x07,0xf6,0x3d,0x00,0x00,0x00,0x00,0x00,0x00,0xbc,0x7f,0xe0,0xef,0x01,0xf0,0xfe,0xc0,0xbf,0x03,0x00,0x00,0x00,0x00,0x00,0x00,0x00,0xef,0x03,0xff,0x03,0x00,0xbe,0x07,0xbe,0x07,0x00,0x00,0x00,0x00,0x00,0x00,0xf0,0x3d,0xe0,0x7d,0x00,0xc0,0xf3,0xc0,0xf7,0x00,0x00,0x00,0x00,0x00,0x00,0x00,0x80,0xef,0x03,0xff,0x03,0x00,0xbe,0x07,0xbe,0x0f,0x00,0x00,0x00,0x00,0x00,0x00,0xf0,0x7d,0xe0,0x7f,0x00,0xc0,0xff,0xc0,0xf7,0x01,0x00,0x00,0x00,0x00,0x00,0x00,0x80,0xef,0xcf,0xff,0x03,0x00,0xfe,0x1f,0xbf,0x0f,0x00,0x00,0x00,0x00,0x00,0x00,0xf0,0xfd,0xf8,0x7d,0x00,0xc0,0xff,0xf3,0xf7,0x01,0x00,0x00,0x00,0x00,0x00,0x00,0x00,0xc7,0xef,0xcf,0x01,0x00,0x9c,0xbf,0x1f,0x07,0x00,0x00,0x00,0x00,0x00,0x00,0xe0,0xf8,0xfd,0x39,0x00,0x80,0xf3,0xf7,0xe3,0x00,0x00,0x00,0x00,0x00,0x00,0x00,0x00,0xc6,0xfe,0x86,0x01,0x00,0x08,0xfb,0x1b,0x03,0x00,0x00,0x00,0x00,0x00,0x00,0xc0,0xd8,0xdf,0x10,0x00,0x80,0x61,0x7f,0x63,0x00,0x00,0x00,0x00,0x00,0x00,0x00,0x00,0xc6,0xfe,0x86,0x01,0x00,0x0c,0xfb,0x1b,0x03,0x00,0x00,0x00,0x00,0x00,0x00,0xc0,0xd8,0xdf,0x10,0x00,0x80,0xe1,0x7f,0x63,0x00,0x00,0x00,0x00,0x00,0x00,0x00,0x00,0xc7,0xef,0xcf,0x01,0x00,0x9c,0xbf,0x1f,0x07,0x00,0x00,0x00,0x00,0x00,0x00,0xe0,0xf8,0xfd,0x39,0x00,0x80,0xf3,0xf7,0xe3,0x00,0x00,0x00,0x00,0x00,0x00,0x00,0x80,0xef,0xcf,0xff,0x03,0x00,0xbe,0x1f,0xbf,0x0f,0x00,0x00,0x00,0x00,0x00,0x00,0xf0,0xfd,0xf8,0x7d,0x00,0xc0,0xff,0xf3,0xf7,0x01,0x00,0x00,0x00,0x00,0x00,0x00,0x80,0xef,0x03,0xff,0x03,0x00,0xbe,0x07,0xbe,0x0f,0x00,0x00,0x00,0x00,0x00,0x00,0xf0,0x7d,0xe0,0x7f,0x00,0xc0,0xff,0xc0,0xf7,0x01,0x00,0x00,0x00,0x00,0x00,0x00,0x80,0xef,0x03,0xff,0x03,0x00,0xfe,0x07,0xbe,0x0f,0x00,0x00,0x00,0x00,0x00,0x00,0xf0,0x7d,0xe0,0x7d,0x00,0xc0,0xff,0xc0,0xf7,0x01,0x00,0x00,0x00,0x00,0x00,0x00,0xe0,0x7d,0x03,0x7b,0x0f,0x80,0xf7,0x06,0xf6,0x3d,0x00,0x00,0x00,0x00,0x00,0x00,0xbc,0x6f,0xe0,0xef,0x01,0xf0,0xde,0xc0,0xbe,0x07,0x00,0x00,0x00,0x00,0x00,0x00,0xe0,0x3d,0x00,0x78,0x0f,0x80,0xf7,0x00,0xe0,0x3d,0x00,0x00,0x00,0x00,0x00,0x00,0xbc,0x07,0x00,0xef,0x01,0xf0,0x1e,0x00,0xbc,0x03,0x00,0x00,0x00,0x00,0x00,0x00,0xc0,0x3f,0x00,0xf0,0x0f,0x00,0x7f,0x00,0xe0,0x1f,0x00,0x00,0x00,0x00,0x00,0x00,0xf8,0x07,0x00,0xfe,0x00,0xf0,0x0f,0x00,0xfc,0x03,0x00,0x00,0x00,0x00,0x00,0x00,0xc0,0x3f,0x00,0xf0,0x0f,0x00,0x7f,0x00,0xe0,0x1f,0x00,0x00,0x00,0x00,0x00,0x00,0xf8,0x07,0x00,0xfe,0x00,0xf0,0x0f,0x00,0xfc,0x03,0x00,0x00,0x00,0x00,0x00,0x00,0xc0,0x7d,0x03,0x7b,0x0f,0x80,0xf7,0x06,0xf6,0xfd,0xc0,0x06,0x00,0x00,0x60,0x03,0xbf,0x6f,0x60,0xef,0x01,0xf0,0xde,0xc0,0xbe,0x07,0x00,0x00,0x00,0x00,0x00,0x00,0xc0,0xf9,0x03,0x3f,0x0e,0x80,0xe3,0x07,0xfe,0xf8,0xc0,0x07,0x00,0x00,0xe0,0x03,0x1f,0x7f,0xe0,0xc7,0x01,0x70,0xfc,0xc0,0x9f,0x07,0x00,0x00,0x00,0x00,0x00,0x00,0x00,0xe0,0x03,0x0f,0x00,0x00,0x80,0x07,0x3c,0xf0,0xc0,0x07,0x00,0x00,0xe0,0x03,0x0f,0x3c,0xe0,0x01,0x00,0x00,0xf0,0xc0,0x07,0x00,0x00,0x00,0x00,0x00,0x00,0x00,0x00,0xe0,0xcf,0x1f,0x00,0x00,0x80,0x1f,0x3f,0xf8,0xf3,0x07,0x00,0x00,0xe0,0xcf,0x1f,0xfc,0xf8,0x01,0x00,0x00,0xf8,0xf3,0x07,0x00,0x00,0x00,0x00,0x00,0x00,0x00,0x00,0xc0,0xcf,0x0f,0x00,0x00,0x80,0x1f,0x1f,0xf0,0xf3,0x03,0x00,0x00,0xc0,0xcf,0x0f,0xf8,0xf8,0x01,0x00,0x00,0xf0,0xf3,0x03,0x00,0x00,0x00,0x00,0x00,0x00,0x00,0x00,0xc0,0xff,0x0f,0x00,0x00,0x80,0xff,0x1f,0xf0,0xff,0x03,0x00,0x00,0xc0,0xff,0x0f,0xf8,0xff,0x01,0x00,0x00,0xf0,0xff,0x03,0x00,0x00,0x00,0x00,0x00,0x00,0x00,0x00,0x80,0xfe,0x04,0x00,0x00,0x00,0xfb,0x1b,0x20,0x7f,0x01,0x00,0x00,0x80,0xfe,0x04,0xd8,0xdf,0x00,0x00,0x00,0x20,0x7f,0x01,0x00,0x00,0x00,0x00,0x00,0x00,0x00,0x00,0xc0,0xff,0x0f,0x00,0x00,0x80,0xff,0x1f,0xf0,0xff,0x03,0x00,0x00,0xc0,0xff,0x0f,0xf8,0xff,0x01,0x00,0x00,0xf0,0xff,0x03,0x00,0x00,0x00,0x00,0x00,0x00,0x00,0x00,0xc0,0xcf,0x0f,0x00,0x00,0x80,0x1f,0x1f,0xf0,0xf3,0x03,0x00,0x00,0xc0,0xcf,0x0f,0xf8,0xf8,0x01,0x00,0x00,0xf0,0xf3,0x03,0x00,0x00,0x00,0x00,0x00,0x00,0x00,0x00,0xe0,0xcf,0x1f,0x00,0x00,0x80,0x1f,0x3f,0xf8,0xf3,0x07,0x00,0x00,0xe0,0xcf,0x1f,0xfc,0xf8,0x01,0x00,0x00,0xf8,0xf3,0x07,0x00,0x00,0x00,0x00,0x00,0x00,0x00,0x00,0xe0,0x03,0x0f,0x00,0x00,0x80,0x07,0x3c,0xf0,0xc0,0x07,0x00,0x00,0xe0,0x03,0x0f,0x3c,0xe0,0x01,0x00,0x00,0xf0,0xc0,0x07,0x00,0x00,0x00,0x00,0x00,0x00,0x00,0x00,0xe0,0xcf,0x1f,0x00,0x00,0x80,0x1f,0x3f,0xf8,0xf3,0x8f,0x03,0xc0,0xf1,0xcf,0x1f,0xfc,0xf8,0x01,0x00,0x00,0xf8,0xf3,0x07,0x00,0x00,0x00,0x00,0x00,0x00,0x00,0x00,0x00,0xee,0x01,0x00,0x00,0x00,0xbc,0x07,0x80,0x77,0xde,0x03,0xc0,0x7b,0xee,0x01,0xe0,0x3d,0x00,0x00,0x00,0x80,0x77,0x00,0x00,0x00,0x00,0x00,0x00,0x00,0x00,0x00,0x00,0xfe,0x01,0x00,0x00,0x00,0xf8,0x03,0x80,0x7f,0xfc,0x01,0x80,0x3f,0xfe,0x00,0xc0,0x1f,0x00,0x00,0x00,0x00,0x7f,0x00,0x00,0x00,0x00,0x00,0x00,0x00,0x00,0x00,0x00,0xfe,0x01,0x00,0x00,0x00,0xf8,0x03,0x00,0x7f,0xfc,0x01,0x80,0x3f,0xfe,0x01,0xc0,0x1f,0x00,0x00,0x00,0x00,0x7f,0x00,0x00,0x00,0x00,0x00,0x00,0x00,0x00,0x00,0x00,0xee,0x01,0x00,0x00,0x00,0xbc,0x07,0x80,0x77,0xde,0x03,0xc0,0x7b,0xee,0x01,0xe0,0x3d,0x00,0x00,0x00,0x80,0x77,0x00,0x00,0x00,0x00,0x00,0x00,0x00,0x00,0x00,0x00,0xee,0x01,0x00,0x00,0x00,0xbc,0x07,0x80,0x77,0xde,0x1b,0xd8,0x7b,0xee,0x01,0xe0,0x3d,0x00,0x00,0x00,0x80,0x77,0x00,0x00,0x00,0x00,0x00,0x00,0x00,0x00,0x00,0x00,0x7c,0x00,0x00,0x00,0x00,0xf0,0x01,0x00,0x3e,0xf8,0x1f,0xf8,0x1f,0x7c,0x00,0x80,0x0f,0x00,0x00,0x00,0x00,0x3e,0x00,0x00,0x00,0x00,0x00,0x00,0x00,0x00,0x00,0x00,0x7c,0x00,0x00,0x00,0x00,0xf0,0x01,0x00,0x3e,0xf8,0x1f,0xf8,0x1f,0x7c,0x00,0x80,0x0f,0x00,0x00,0x00,0x00,0x3e,0x00,0x00,0x00,0x00,0x00,0x00,0x00,0x00,0x00,0x00,0x7c,0x00,0x00,0x00,0x00,0xf0,0x01,0x00,0x3e,0xf8,0x7f,0xfe,0x1f,0x7c,0x00,0x80,0x0f,0x00,0x00,0x00,0x00,0x3e,0x00,0x00,0x00,0x00,0x00,0x00,0x00,0x00,0x00,0x00,0x38,0x00,0x00,0x00,0x00,0xe0,0x00,0x00,0x1c,0x70,0xfe,0x7f,0x0e,0x38,0x00,0x00,0x07,0x00,0x00,0x00,0x00,0x1c,0x00,0x00,0x00,0x00,0x00,0x00,0x00,0x00,0x00,0x00,0x30,0x00,0x00,0x00,0x00,0x60,0x00,0x00,0x0c,0x60,0xfc,0x3f,0x06,0x30,0x00,0x00,0x06,0x00,0x00,0x00,0x00,0x0c,0x00,0x00,0x00,0x00,0x00,0x00,0x00,0x00,0x00,0x00,0x30,0x00,0x00,0x00,0x00,0x60,0x00,0x00,0x0c,0x60,0xfc,0x3f,0x06,0x30,0x00,0x00,0x06,0x00,0x00,0x00,0x00,0x0c,0x00,0x00,0x00,0x00,0x00,0x00,0x00,0x00,0x00,0x00,0x38,0x00,0x00,0x00,0x00,0xe0,0x00,0x00,0x1c,0x70,0xfe,0x7f,0x0e,0x38,0x00,0x00,0x07,0x00,0x00,0x00,0x00,0x1c,0x00,0x00,0x00,0x00,0x00,0x00,0x00,0x00,0x00,0x00,0x7c,0x00,0x00,0x00,0x00,0xf0,0x01,0x00,0x3e,0xf8,0x7f,0xfe,0x1f,0x7c,0x00,0x80,0x0f,0x00,0x00,0x00,0x00,0x3e,0x00,0x00,0x00,0x00,0x00,0x00,0x00,0x00,0x00,0x00,0x7c,0x00,0x00,0x00,0x00,0xf0,0x01,0x00,0x3e,0xf8,0x1f,0xf8,0x1f,0x7c,0x00,0x80,0x0f,0x00,0x00,0x00,0x00,0x3e,0x00,0x00,0x00,0x00,0x00,0x00,0x00,0x00,0x00,0x00,0x7c,0x00,0x00,0x00,0x00,0xf0,0x01,0x00,0x3e,0xf8,0x1f,0xf8,0x1f,0x7c,0x00,0x80,0x0f,0x00,0x00,0x00,0x00,0x3e,0x00,0x00,0x00,0x00,0x00,0x00,0x00,0x00,0x00,0x00,0xee,0x01,0x00,0x00,0x00,0xbc,0x07,0x80,0x77,0xde,0x1b,0xd8,0x7b,0xee,0x01,0xe0,0x3d,0x00,0x00,0x00,0x80,0x77,0x00,0x00,0x00,0x00,0x00,0x00,0x00,0x00,0x00,0x00,0xee,0x01,0x00,0x00,0x00,0xbc,0x07,0x80,0x77,0xde,0x03,0xc0,0x7b,0xee,0x01,0xe0,0x3d,0x00,0x00,0x00,0x80,0x77,0x00,0x00,0x00,0x00,0x00,0x00,0x00,0x00,0x00,0x00,0xfe,0x00,0x00,0x00,0x00,0xf8,0x03,0x00,0x7f,0xfc,0x01,0x80,0x3f,0xfe,0x01,0xc0,0x1f,0x00,0x00,0x00,0x80,0x7f,0x00,0x00,0x00,0x00,0x00,0x00,0x00,0x00,0x00,0x00,0xfe,0x01,0x00,0x00,0x00,0xf8,0x03,0x80,0x7f,0xfc,0x01,0x80,0x3f,0xfe,0x01,0xc0,0x1f,0x00,0x00,0x00,0x80,0x7f,0x00,0x00,0x00,0x00,0x00,0x00,0x00,0x00,0x00,0x00,0xee,0x01,0x00,0x00,0x00,0xbc,0x07,0x80,0x77,0xde,0x03,0xc0,0x7b,0xee,0x01,0xe0,0x3d,0x00,0x00,0x00,0x80,0x77,0x00,0x00,0x00,0x00,0x00,0x00,0x00,0x00,0x00,0xe0,0xcf,0x1f,0x00,0x00,0x80,0x1f,0x3f,0xf8,0xf3,0x8f,0x03,0xc0,0xf1,0xcf,0x1f,0xfc,0xf8,0x01,0x00,0x00,0xf8,0xf3,0x07,0x00,0x00,0x00,0x00,0x00,0x00,0x00,0x00,0xe0,0x03,0x0f,0x00,0x00,0x80,0x07,0x3c,0xf0,0xc0,0x07,0x00,0x00,0xe0,0x03,0x0f,0x3c,0xe0,0x01,0x00,0x00,0xf0,0xc0,0x07,0x00,0x00,0x00,0x00,0x00,0x00,0x00,0x00,0xe0,0xcf,0x1f,0x00,0x00,0xc0,0x1f,0x3f,0xf8,0xf3,0x07,0x00,0x00,0xe0,0xc7,0x1f,0xfc,0xf8,0x03,0x00,0x00,0xf8,0xf2,0x07,0x00,0x00,0x00,0x00,0x00,0x00,0x00,0x00,0xc0,0xcf,0x0f,0x00,0x00,0x80,0x1f,0x1f,0xf0,0xf3,0x03,0x00,0x00,0xc0,0xcf,0x0f,0xf8,0xf8,0x01,0x00,0x00,0xf0,0xf3,0x03,0x00,0x00,0x00,0x00,0x00,0x00,0x00,0x00,0xc0,0xff,0x0f,0x00,0x00,0x00,0xff,0x1f,0xf0,0xff,0x03,0x00,0x00,0xc0,0xff,0x0f,0xf8,0xff,0x01,0x00,0x00,0xf0,0xff,0x03,0x00,0x00,0x00,0x00,0x00,0x00,0x00,0x00,0x80,0xfe,0x04,0x00,0x00,0x00,0xfb,0x1b,0x20,0x7f,0x01,0x00,0x00,0x80,0xfe,0x04,0xd8,0xdf,0x00,0x00,0x00,0x20,0x7f,0x01,0x00,0x00,0x00,0x00,0x00,0x00,0x00,0x00,0xc0,0xff,0x0f,0x00,0x00,0x00,0xff,0x1f,0xf0,0xff,0x03,0x00,0x00,0xc0,0xff,0x0f,0xf8,0xff,0x00,0x00,0x00,0xf0,0xff,0x03,0x00,0x00,0x00,0x00,0x00,0x00,0x00,0x00,0xc0,0xcf,0x0f,0x00,0x00,0x80,0x1f,0x1f,0xf0,0xf3,0x03,0x00,0x00,0xc0,0xcf,0x0f,0xf8,0xf8,0x01,0x00,0x00,0xf0,0xf3,0x03,0x00,0x00,0x00,0x00,0x00,0x00,0x00,0x00,0xe0,0xcf,0x1f,0x00,0x00,0x80,0x1f,0x3f,0xf8,0xf3,0x07,0x00,0x00,0xe0,0xcf,0x1f,0xfc,0xf8,0x03,0x00,0x00,0xf8,0xf3,0x07,0x00,0x00,0x00,0x00,0x00,0x00,0x00,0x00,0xe0,0x03,0x0f,0x00,0x00,0x80,0x07,0x3c,0xf0,0xc0,0x07,0x00,0x00,0xe0,0x03,0x0f,0x3c,0xe0,0x01,0x00,0x00,0xf0,0xc0,0x07,0x00,0x00,0x00,0x00,0x00,0x00,0x00,0xc0,0xf9,0x03,0x3f,0x0e,0x80,0xe3,0x07,0xfe,0xf8,0xc0,0x07,0x00,0x00,0xe0,0x03,0x1f,0x7f,0xe0,0xc7,0x01,0x70,0xfc,0xc0,0x9f,0x07,0x00,0x00,0x00,0x00,0x00,0x00,0xc0,0x7d,0x03,0x7b,0x0f,0x80,0xf7,0x06,0xf6,0xfd,0xc0,0x06,0x00,0x00,0x60,0x03,0xbf,0x6f,0xe0,0xef,0x01,0xf0,0xde,0xc0,0xbe,0x07,0x00,0x00,0x00,0x00,0x00,0x00,0xc0,0x3f,0x00,0xf0,0x0f,0x00,0x7f,0x00,0xe0,0x1f,0x00,0x00,0x00,0x00,0x00,0x00,0xf8,0x07,0x00,0xfe,0x00,0xf0,0x0f,0x00,0xfc,0x03,0x00,0x00,0x00,0x00,0x00,0x00,0xc0,0x3f,0x00,0xf0,0x0f,0x00,0x7f,0x00,0xe0,0x1f,0x00,0x00,0x00,0x00,0x00,0x00,0xf8,0x07,0x00,0xfe,0x00,0xf0,0x0f,0x00,0xfc,0x03,0x00,0x00,0x00,0x00,0x00,0x00,0xe0,0x3d,0x00,0x78,0x0f,0x80,0xf7,0x00,0xe0,0x3d,0x00,0x00,0x00,0x00,0x00,0x00,0xbc,0x07,0x00,0xef,0x01,0xf0,0x1e,0x00,0xbc,0x07,0x00,0x00,0x00,0x00,0x00,0x00,0xe0,0x7d,0x03,0x7b,0x0f,0x80,0xf7,0x06,0xf6,0x3d,0x00,0x00,0x00,0x00,0x00,0x00,0xbc,0x6f,0xe0,0xef,0x01,0xf0,0xde,0xc0,0xbe,0x03,0x00,0x00,0x00,0x00,0x00,0x00,0x80,0xef,0x03,0xff,0x03,0x00,0xbe,0x07,0xbe,0x0f,0x00,0x00,0x00,0x00,0x00,0x00,0xf0,0x7d,0xe0,0x7d,0x00,0xc0,0xff,0xc0,0xf7,0x01,0x00,0x00,0x00,0x00,0x00,0x00,0x80,0xef,0x03,0xff,0x03,0x00,0xfe,0x07,0xbe,0x0f,0x00,0x00,0x00,0x00,0x00,0x00,0xf0,0x7d,0xe0,0x7d,0x00,0xc0,0xff,0xc0,0xf7,0x01,0x00,0x00,0x00,0x00,0x00,0x00,0x80,0xef,0xcf,0xff,0x03,0x00,0xbe,0x1f,0xbf,0x0f,0x00,0x00,0x00,0x00,0x00,0x00,0xf0,0xfd,0xf8,0x7d,0x00,0xc0,0xff,0xf3,0xf7,0x01,0x00,0x00,0x00,0x00,0x00,0x00,0x00,0xc7,0xef,0xcf,0x01,0x00,0x9c,0xbf,0x1f,0x07,0x00,0x00,0x00,0x00,0x00,0x00,0xe0,0xf8,0xfd,0x39,0x00,0x80,0xf3,0xf7,0xe3,0x00,0x00,0x00,0x00,0x00,0x00,0x00,0x00,0xc6,0xfe,0x86,0x01,0x00,0x0c,0xfb,0x1b,0x03,0x00,0x00,0x00,0x00,0x00,0x00,0xc0,0xd8,0xdf,0x10,0x00,0x80,0x61,0x7f,0x63,0x00,0x00,0x00,0x00,0x00,0x00,0x00,0x00,0xc6,0xfe,0x86,0x01,0x00,0x08,0xfb,0x1b,0x03,0x00,0x00,0x00,0x00,0x00,0x00,0xc0,0xd8,0xdf,0x10,0x00,0x80,0x61,0x7f,0x63,0x00,0x00,0x00,0x00,0x00,0x00,0x00,0x00,0xc7,0xef,0xcf,0x01,0x00,0x9c,0xbf,0x1f,0x07,0x00,0x00,0x00,0x00,0x00,0x00,0xe0,0xf8,0xfd,0x39,0x00,0x80,0xf3,0xf7,0xe3,0x00,0x00,0x00,0x00,0x00,0x00,0x00,0x00,0xef,0xcf,0xff,0x03,0x00,0xbe,0x1f,0xbf,0x0f,0x00,0x00,0x00,0x00,0x00,0x00,0xf0,0xfd,0xf8,0x7d,0x00,0xc0,0xff,0xf3,0xf7,0x01,0x00,0x00,0x00,0x00,0x00,0x00,0x80,0xef,0x03,0xff,0x03,0x00,0xbe,0x07,0xbe,0x0f,0x00,0x00,0x00,0x00,0x00,0x00,0xf0,0x7d,0xe0,0x7d,0x00,0xc0,0xff,0xc0,0xf7,0x01,0x00,0x00,0x00,0x00,0x00,0x00,0x00,0xef,0x03,0xcf,0x03,0x00,0xbe,0x07,0xbc,0x0f,0x00,0x00,0x00,0x00,0x00,0x00,0xf0,0x7d,0xe0,0x7d,0x00,0xc0,0xf3,0xc0,0xf7,0x00,0x00,0x00,0x00,0x00,0x00,0x00,0xc0,0x7f,0x03,0xff,0x0f,0x80,0xff,0x07,0xfe,0x3f,0x00,0x00,0x00,0x00,0x00,0x00,0xfc,0x6f,0xe0,0xff,0x01,0xf0,0xde,0xc0,0xfe,0x07,0x00,0x00,0x00,0x00,0x00,0x00,0xc0,0x3d,0x00,0x78,0x0f,0x80,0xf7,0x00,0xe0,0x3d,0x00,0x00,0x00,0x00,0x00,0x00,0xbc,0x07,0x00,0xef,0x01,0xf0,0x1e,0x00,0xbc,0x07,0x00,0x00,0x00,0x00,0x00,0x00,0xc0,0x3f,0x00,0xf8,0x0f,0x00,0x7f,0x00,0xe0,0x1f,0x00,0x00,0x00,0x00,0x00,0x00,0xf8,0x07,0x00,0xfe,0x00,0xf0,0x0f,0x00,0xfc,0x03,0x00,0x00,0x00,0x00,0x00,0x00,0xc0,0x1f,0x00,0xf0,0x07,0x00,0x7f,0x00,0xc0,0x1f,0x00,0x00,0x00,0x00,0x00,0x00,0xf8,0x03,0x00,0xfe,0x00,0xe0,0x0f,0x00,0xf8,0x03,0x00,0x00,0x00,0x00,0x80,0x0f,0xfc,0x3f,0x00,0xf8,0x6f,0xc0,0xff,0x00,0xe0,0x3f,0x00,0x00,0x00,0x00,0x00,0x00,0xfc,0x07,0x00,0xff,0x03,0xfe,0x1f,0x00,0xfc,0x3f,0xf0,0x01,0x00,0x00,0x80,0x07,0xfc,0x39,0x00,0x38,0x7e,0xc0,0xe7,0x00,0xe0,0x38,0x00,0x00,0x00,0x00,0x00,0x00,0x1c,0x07,0x00,0xe7,0x03,0x7e,0x1c,0x00,0x9c,0x3f,0xe0,0x01,0x00,0x00,0x80,0x0f,0xfc,0x38,0x00,0x38,0x7e,0xc0,0xe7,0x00,0xe0,0x38,0x00,0x00,0x00,0x00,0x00,0x00,0x1c,0x07,0x00,0xe7,0x03,0x7e,0x1c,0x00,0x9c,0x3f,0xf0,0x01,0x00,0x00,0x80,0x3f,0x7f,0x00,0x00,0x00,0xfc,0xf1,0x07,0x00,0x00,0x00,0x00,0x00,0x00,0x00,0x00,0x00,0x00,0x00,0x00,0xe0,0x8f,0x3f,0x00,0x00,0x00,0xfe,0xfc,0x01,0x00,0x00,0x00,0xff,0x3f,0x00,0x00,0x00,0xf8,0xfb,0x03,0x00,0x00,0x00,0x00,0x00,0x00,0x00,0x00,0x00,0x00,0x00,0x00,0xc0,0xdf,0x1f,0x00,0x00,0x00,0xfc,0xfd,0x00,0x00,0x00,0x00,0xfb,0x37,0x00,0x00,0x00,0xb0,0xff,0x01,0x00,0x00,0x00,0x00,0x00,0x00,0x00,0x00,0x00,0x00,0x00,0x00,0x80,0xfd,0x0d,0x00,0x00,0x00,0xec,0xdf,0x00,0x00,0x00,0x00,0xfb,0x37,0x00,0x00,0x00,0xb0,0xff,0x01,0x00,0x00,0x00,0x00,0x00,0x00,0x00,0x00,0x00,0x00,0x00,0x00,0x80,0xff,0x0d,0x00,0x00,0x00,0xec,0xdf,0x00,0x00,0x00,0x00,0xff,0x3f,0x00,0x00,0x00,0xf8,0xfb,0x03,0x00,0x00,0x00,0x00,0x00,0x00,0x00,0x00,0x00,0x00,0x00,0x00,0xc0,0xdf,0x1f,0x00,0x00,0x00,0xfc,0xff,0x00,0x00,0x00,0x80,0x3f,0x7f,0x00,0x00,0x00,0xfc,0xf1,0x07,0x00,0x00,0x00,0x00,0x00,0x00,0x00,0x00,0x00,0x00,0x00,0x00,0xe0,0x8f,0x3f,0x00,0x00,0x00,0xfe,0xfc,0x01,0x00,0x00,0x80,0x0f,0x7c,0x00,0x00,0x00,0x7c,0xc0,0x07,0x00,0x00,0x00,0x00,0x00,0x00,0x00,0x00,0x00,0x00,0x00,0x00,0xe0,0x03,0x3e,0x00,0x00,0x00,0x3e,0xf0,0x01,0x00,0x00,0x80,0x07,0x7c,0x00,0x00,0x00,0x78,0xc0,0x07,0x00,0x00,0x00,0x00,0x00,0x00,0x00,0x00,0x00,0x00,0x00,0x00,0xe0,0x03,0x1e,0x00,0x00,0x00,0x3e,0xe0,0x01,0x00,0x00,0x80,0x3f,0xff,0x39,0x00,0x38,0xfe,0xf1,0x07,0x00,0x00,0x00,0x00,0x00,0x00,0x00,0x00,0x00,0x00,0x00,0x00,0xe0,0x8f,0x7f,0x1c,0x00,0x9c,0xff,0xfc,0x01,0x00,0x00,0x00,0xf8,0xc7,0x3d,0x00,0x78,0xcf,0x7b,0x00,0x00,0x00,0x00,0x00,0x00,0x00,0x00,0x00,0x00,0x00,0x00,0x00,0x00,0xde,0xf3,0x1e,0x00,0xbc,0xe7,0x1f,0x00,0x00,0x00,0x00,0xf8,0xc7,0x3f,0x00,0xf0,0x8f,0x7f,0x00,0x00,0x00,0x00,0x00,0x00,0x00,0x00,0x00,0x00,0x00,0x00,0x00,0x00,0xfe,0xf1,0x0f,0x00,0xfc,0xe3,0x1f,0x00,0x00,0x00,0x00,0xf8,0xc7,0x3f,0x00,0xf0,0x8f,0x3f,0x00,0x00,0x00,0x00,0x00,0x00,0x00,0x00,0x00,0x00,0x00,0x00,0x00,0x00,0xfc,0xf1,0x0f,0x00,0xfc,0xe3,0x1f,0x00,0x00,0x00,0x00,0xf8,0xe7,0x3d,0x00,0x78,0xcf,0x7b,0x00,0x00,0x00,0x00,0x00,0x00,0x00,0x00,0x00,0x00,0x00,0x00,0x00,0x00,0xde,0xf3,0x1e,0x00,0xbc,0xe3,0x1f,0x00,0x00,0x00,0x00,0xb8,0xc7,0x7d,0x03,0x7b,0xcf,0x7b,0x00,0x00,0x00,0x00,0x00,0x00,0x00,0x00,0x00,0x00,0x00,0x00,0x00,0x00,0xde,0xf3,0xde,0xc0,0xbe,0xe3,0x1f,0x00,0x00,0x00,0x00,0xf8,0xe7,0xff,0x03,0xff,0xcf,0x7f,0x00,0x00,0x00,0x00,0x00,0x00,0x00,0x00,0x00,0x00,0x00,0x00,0x00,0x00,0xfe,0xf3,0xff,0xc0,0xff,0xe3,0x1f,0x00,0x00,0x00,0x00,0xe0,0x01,0xef,0x03,0xcf,0x03,0x1f,0x00,0x00,0x00,0x00,0x00,0x00,0x00,0x00,0x00,0x00,0x00,0x00,0x00,0x00,0xf8,0xc0,0xf3,0xc0,0xf7,0x80,0x07,0x00,0x00,0x00,0x00,0xe0,0x81,0xef,0xcf,0xff,0x03,0x1f,0x00,0x00,0x00,0x00,0x00,0x00,0x00,0x00,0x00,0x00,0x00,0x00,0x00,0x00,0xf8,0xc0,0xff,0xf3,0xf7,0x81,0x07,0x00,0x00,0x00,0x00,0xe0,0x00,0xc7,0xcf,0xcf,0x01,0x0e,0x00,0x00,0x00,0x00,0x00,0x00,0x00,0x00,0x00,0x00,0x00,0x00,0x00,0x00,0x70,0x80,0xf3,0xf3,0xe3,0x00,0x03,0x00,0x00,0x00,0x00,0xe0,0x00,0xc7,0xff,0xcf,0x01,0x0e,0x00,0x00,0x00,0x00,0x00,0x00,0x00,0x00,0x00,0x00,0x00,0x00,0x00,0x00,0x70,0x80,0xf3,0xff,0xe3,0x00,0x03,0x00,0x00,0x00,0x00,0xc0,0x00,0x86,0xfe,0x84,0x00,0x04,0x00,0x00,0x00,0x00,0x00,0x00,0x00,0x00,0x00,0x00,0x00,0x00,0x00,0x00,0x20,0x00,0x21,0x7f,0x61,0x00,0x03,0x00,0x00,0x00,0x00,0xc0,0x00,0xc7,0xff,0xcf,0x01,0x0e,0x00,0x00,0x00,0x00,0x00,0x00,0x00,0x00,0x00,0x00,0x00,0x00,0x00,0x00,0x70,0x80,0xf3,0xff,0xe3,0x00,0x07,0x00,0x00,0x00,0x00,0xe0,0x00,0xc7,0xcf,0xcf,0x01,0x0e,0x00,0x00,0x00,0x00,0x00,0x00,0x00,0x00,0x00,0x00,0x00,0x00,0x00,0x00,0x70,0x80,0xf3,0xf3,0xe3,0x00,0x07,0x00,0x00,0x00,0x00,0xe0,0x81,0xef,0xcf,0xff,0x03,0x1f,0x00,0x00,0x00,0x00,0x00,0x00,0x00,0x00,0x00,0x00,0x00,0x00,0x00,0x00,0xf8,0xc0,0xff,0xf3,0xf7,0x81,0x07,0x00,0x00,0x00,0x00,0xe0,0x01,0xef,0x03,0xcf,0x03,0x1f,0x00,0x00,0x00,0x00,0x00,0x00,0x00,0x00,0x00,0x00,0x00,0x00,0x00,0x00,0xf8,0xc0,0xf3,0xc0,0xf7,0x80,0x07,0x00,0x00,0x00,0x00,0xf8,0xc7,0xff,0x03,0xff,0xcf,0x7f,0x00,0x00,0x00,0x00,0x00,0x00,0x00,0x00,0x00,0x00,0x00,0x00,0x00,0x00,0xfe,0xf3,0xff,0xc0,0xff,0xe7,0x1f,0x00,0x00,0x00,0x00,0x38,0xc7,0x39,0x00,0x38,0xce,0x71,0x00,0x00,0x00,0x00,0x00,0x00,0x00,0x00,0x00,0x00,0x00,0x00,0x00,0x00,0x8e,0x73,0x1c,0x00,0x9c,0xe3,0x1c,0x00,0x00,0x00,0x00,0xf8,0xc7,0x3f,0x00,0xf8,0xcf,0x7f,0x00,0x00,0x00,0x00,0x00,0x00,0x00,0x00,0x00,0x00,0x00,0x00,0x00,0x00,0xfe,0xf3,0x1f,0x00,0xfc,0xe3,0x1f,0x00,0x00,0x00,0x00,0xf8,0xc7,0x3f,0x00,0xf0,0x87,0x3f,0x00,0x00,0x00,0x00,0x00,0x00,0x00,0x00,0x00,0x00,0x00,0x00,0x00,0x00,0xfc,0xe1,0x0f,0x00,0xfc,0xe3,0x1f,0x00,0x00,0x00,0x00,0xf8,0xc7,0x3f,0x00,0xf8,0xcf,0x7f,0x00,0x00,0x00,0x00,0x00,0x00,0x00,0x00,0x00,0x00,0x00,0x00,0x00,0x00,0xfe,0xf3,0x1f,0x00,0xfc,0xe3,0x1f,0x00,0x00,0x00,0x80,0xfd,0xef,0x39,0x00,0x78,0xef,0xfb,0x06,0x00,0x00,0x00,0x00,0x00,0x00,0x00,0x00,0x00,0x00,0x00,0x00,0x60,0xde,0xf7,0x1e,0x00,0xbc,0xf7,0x9f,0x01,0x00,0x00,0x80,0x3f,0xff,0x39,0x00,0x38,0xfe,0xf1,0x07,0x00,0x00,0x00,0x00,0x00,0x00,0x00,0x00,0x00,0x00,0x00,0x00,0xe0,0x8f,0x7f,0x1c,0x00,0x9c,0xff,0xfc,0x01,0x00,0x00,0x80,0x07,0x7c,0x00,0x00,0x00,0x78,0xc0,0x07,0x00,0x00,0x00,0x00,0x00,0x00,0x00,0x00,0x00,0x00,0x00,0x00,0xe0,0x03,0x1e,0x00,0x00,0x00,0x3e,0xe0,0x01,0x00,0x00,0x80,0x3f,0x7f,0x00,0x00,0x00,0xfc,0xf1,0x07,0x00,0x00,0x00,0x00,0x00,0x00,0x00,0x00,0x00,0x00,0x00,0x00,0xe0,0x8f,0x3f,0x00,0x00,0x00,0xfe,0xfc,0x01,0x00,0x00,0x00,0x3f,0x7f,0x00,0x00,0x00,0xfc,0xf1,0x07,0x00,0x00,0x00,0x00,0x00,0x00,0x00,0x00,0x00,0x00,0x00,0x00,0xc0,0x8f,0x1f,0x00,0x00,0x00,0xfc,0xfc,0x00,0x00,0x00,0x00,0xff,0x3f,0x00,0x00,0x00,0xf8,0xfb,0x03,0x00,0x00,0x00,0x00,0x00,0x00,0x00,0x00,0x00,0x00,0x00,0x00,0xc0,0xdf,0x1f,0x00,0x00,0x00,0xfc,0xff,0x00,0x00,0x00,0x00,0xfb,0x37,0x00,0x00,0x00,0xb0,0xff,0x01,0x00,0x00,0x00,0x00,0x00,0x00,0x00,0x00,0x00,0x00,0x00,0x00,0x80,0xff,0x0d,0x00,0x00,0x00,0xec,0xdf,0x00,0x00,0x00,0x00,0xfb,0x37,0x00,0x00,0x00,0xb0,0xff,0x01,0x00,0x00,0x00,0x00,0x00,0x00,0x00,0x00,0x00,0x00,0x00,0x00,0x80,0xff,0x0d,0x00,0x00,0x00,0xec,0xdf,0x00,0x00,0x00,0x00,0xff,0x3f,0x00,0x00,0x00,0xf8,0xfb,0x03,0x00,0x00,0x00,0x00,0x00,0x00,0x00,0x00,0x00,0x00,0x00,0x00,0xc0,0xdf,0x1f,0x00,0x00,0x00,0xfc,0xff,0x00,0x00,0x00,0x80,0x3f,0x7f,0x00,0x00,0x00,0xfc,0xf1,0x07,0x00,0x00,0x00,0x00,0x00,0x00,0x00,0x00,0x00,0x00,0x00,0x00,0xe0,0x8f,0x3f,0x00,0x00,0x00,0xfe,0xfc,0x01,0x00,0x00,0x80,0x0f,0x7c,0x00,0x00,0x00,0x7c,0xc0,0x07,0x00,0x00,0x00,0x00,0x00,0x00,0x00,0x00,0x00,0x00,0x00,0x00,0xe0,0x03,0x3e,0x00,0x00,0x00,0x3e,0xf0,0x01,0x00,0x00,0x80,0x0f,0x7c,0x00,0x00,0x00,0x7c,0xc0,0x07,0x00,0x00,0x00,0x00,0x00,0x00,0x00,0x00,0x00,0x00,0x00,0x00,0xe0,0x03,0x3e,0x00,0x00,0x00,0x3e,0xf0,0x01,0x00,0x00,0x80,0x0d,0x6c,0x00,0x00,0x00,0x6c,0xc0,0x06,0x00,0x00,0x00,0x00,0x00,0x00,0x00,0x00,0x00,0x00,0x00,0x00,0x60,0x03,0x36,0x00,0x00,0x00,0x36,0xb0,0x01,0x00,0x00,0x00,0x00,0x00,0x00,0x00,0x00,0x00,0x00,0x00,0x00,0x00,0x00,0x00,0x00,0x00,0x00,0x00,0x00,0x00,0x00,0x00,0x00,0x00,0x00,0x00,0x00,0x00,0x00,0x00,0x00,0x00,0x00,0x00,0x00,0x00,0x00,0x00,0x00,0x00,0x00,0x00,0x00,0x00,0x00,0x00,0x00,0x00,0x00,0x00,0x00,0x00,0x00,0x00,0x00,0x00,0x00,0x00,0x00,0x00,0x00,0x00,0x00,0x00,0x00,0x00,0x00,0x00,0x00,0x00,0x00,0x00,0x00,0x00,0x00,0x00,0x00,0x00,0x00,0x00,0x00,0x00,0x00,0x00,0x00,0x00,0x00,0x00,0x00,0x00,0x00,0x00,0x00,0x00,0x00,0x00,0x00,0x00,0x00,0x00,0x00,0x00,0x00,0x00,0x00,0x00,0x00,0x00,0x00,0x00,0x00,0x00,0x00,0x00,0x00,0x00,0x00,0x00,0x00,0x00,0x00,0x00,0x00,0x00,0x00,0x00,0x00,0x00,0x00,0x00,0x00,0x00,0x00,0x00,0x00,0x00,0x00,0x00,0x00,0x00,0x00,0x00,0x00,0x00,0x00,0x00,0x00,0x00,0x00,0x00,0x00,0x00,0x00,0x00,0x00,0x00,0x00,0x00,0x00,0x00,0x00,0x00,0x00,0x00,0x00,0x00,0x00,0x00,0x00,0x00,0x00,0x00,0x00,0x00,0x00,0x00,0x00,0x00,0x00,0x00,0x00,0x00,0x00,0x00,0x00,0x00,0x00,0x00,0x00,0x00,0x00,0x00,0x00,0x00,0x00,0x00,0x00,0x00,0x00,0x00,0x00,0x00,0x00,0x00,0x00,0x00,0x00,0x00,0x00,0x00,0x00,0x00,0x00,0x00,0x00,0x00,0x00,0x00,0x00,0x00,0x00,0x00,0x00,0x00,0x00,0x00,0x00,0x00,0x00,0x00,0x00,0x00,0x00,0x00,0x00,0x00,0x00,0x00,0x00,0x00,0x00,0x00,0x00,0x00,0x00,0x00,0x00,0x00,0x00,0x00,0x00,0x00,0x00,0x00,0x00,0x00,0x00,0x00,0x00,0x00,0x00,0x00,0x00,0x00,0x00,0x00,0x00,0x00,0x00,0x00,0x00,0x00,0x00,0x00,0x00,0x00,0x00,0x00,0x00,0x00,0x00,0x00,0x00,0x00,0x00,0x00,0x00,0x00,0x00,0x00,0x00,0x00,0x00,0x00,0x00,0x00,0x00,0x00,0x00,0x00,0x00,0x00,0x00,0x00,0x00,0x00,0x00,0x00,0x00,0x00,0x00,0x00,0x00,0x00,0x00,0x00,0x00,0x00,0x00,0x00,0x00,0x00,0x00,0x00,0x00,0x00,0x00,0x00,0x00,0x00,0x00,0x00,0x00,0x00,0x00,0x00,0x00,0x00,0x00,0x00,0x00,0x00,0x00,0x00,0x00,0x00,0x00,0x00,0x00,0x00,0x00,0x00,0x00,0x00,0x00,0x00,0x00,0x00,0x00,0x00,0x00,0x00,0x00,0x00,0x00,0x00,0x00,0x00,0x00,0x00,0x00,0x00,0x00,0x00,0x00,0x00,0x00,0x00,0x00,0x00,0x00,0x00,0x00,0x00,0x00,0x00,0x00,0x00,0x00,0x00,0x00,0x00,0x00,0x00,0x00,0x00,0x00,0x00,0x00,0x00,0x00,0x00,0x00,0x00,0x00,0x00,0x00,0x00,0x00,0x00,0x00,0x00,0x00,0x00,0x00,0x00,0x00,0x00,0x00,0x00,0x00,0x00,0x00,0x00,0x00,0x00,0x00,0x00,0x00,0x00,0x00,0x00,0x00,0x00,0x00,0x00,0x00,0x00,0x00,0x00,0x00,0x00,0x00,0x00,0x00,0x00,0x00,0x00,0x00,0x00,0x00,0x00,0x00,0x00,0x00,0x00,0x00,0x00,0x00,0x00,0x00,0x00,0x00,0x00,0x00,0x00,0x00,0x00,0x00,0x00,0x00,0x00,0x00,0x00,0x00,0x00,0x00,0x00,0x00,0x00,0x00,0x00,0x00,0x00,0x00,0x00,0x00,0x00,0x00,0x00,0x00,0x00,0x00,0x00,0x00,0x00,0x00,0x00,0x00,0x00,0x00,0x00,0x00,0x00,0x00,0x00,0x00,0x00,0x00,0x00,0x00,0x00,0x00,0x00,0x00,0x00,0x00,0x00,0x00,0x00,0x00,0x00,0x00,0x00,0x00,0x00,0x00,0x00,0x00,0x00,0x00,0x00,0x00,0x00,0x00,0x00,0x00,0x00,0x00,0x00,0x00,0x00,0x00,0x00,0x00,0x00,0x00,0x00,0x00,0x00,0x00,0x00,0x00,0x00,0x00,0x00,0x00,0x00,0x00,0x00,0x00,0x00,0x00,0x00,0x00,0x00,0x00,0x00,0x00,0x00,0x00,0x00,0x00,0x00,0x00,0x00,0x00,0x00,0x00,0x00,0x00,0x00,0x00,0x00,0x00,0x00,0x00,0x00,0x00,0x00,0x00,0x00,0x00,0x00,0x00,0x00,0x00,0x00,0x00,0x00,0x00,0x00,0x00,0x00,0x00,0x00,0x00,0x00,0x00,0x00,0x00,0x00,0x00,0x00,0x00,0x00,0x00,0x00,0x00,0x00,0x00,0x00,0x00,0x00,0x00,0x00,0x00,0x00,0x00,0x00,0x00,0x00,0x00,0x00,0x00,0x00,0x00,0x00,0x00,0x00,0x00,0x00,0x00,0x00,0x00,0x00,0x00,0x00,0x00,0x00,0x00,0x00,0x00,0x00,0x00,0x00,0x00,0x00,0x00,0x00,0x00,0x00,0x00,0x00,0x00,0x00,0x00,0x00,0x00,0x00,0x00,0x00,0x00,0x00,0x00,0x00,0x00,0x00,0x00,0x00,0x00,0x00,0x00,0x00,0x00,0x00,0x00,0x00,0x00,0x00,0x00,0x00,0x00,0x00,0x00,0x00,0x00,0x00,0x00,0x00,0x00,0x00,0x00,0x00,0x00,0x00,0x00,0x00,0x00,0x00,0x00,0x00,0x00,0x00,0x00,0x00,0x00,0x00,0x00,0x00,0x00,0x00,0x00,0x00,0x00,0x00,0x00,0x00,0x00,0x00,0x00,0x00,0x00,0x00,0x00,0x00,0x00,0x00,0x00,0x00,0x00,0x00,0x00,0x00,0x00,0x00,0x00,0x00,0x00,0x00,0x00,0x00,0x00,0x00,0x00,0x00,0x00,0x00,0x00,0x00,0x00,0x00,0x00,0x00,0x00,0x00,0x00,0x00,0x00,0x00,0x00,0x00,0x00,0x00,0x00,0x00,0x00,0x00,0x00,0x00,0x00,0x00,0x00,0x00,0x00,0x00,0x00,0x00,0x00,0x00,0x00,0x00,0x00,0x00,0x00,0x00,0x00,0x00,0x00,0x00,0x00,0x00,0x00,0x00,0x00,0x00,0x00,0x00,0x00,0x00,0x00,0x00,0x00,0x00,0x00,0x00,0x00,0x00,0x00,0x00,0x00,0x00,0x00,0x00,0x00,0x00,0x00,0x00,0x00,0x00,0x00,0x00,0x00,0x00,0x00,0x00,0x00,0x00,0x00,0x00,0x00,0x00,0x00,0x00,0x00,0x00,0x00,0x00,0x00,0x00,0x00,0x00,0x00,0x00,0x00,0x00,0x00,0x00,0x00,0x00,0x00,0x00,0x00,0x00,0x00,0x00,0x00,0x00,0x00,0x00,0x00,0x00,0x00,0x00,0x00,0x00,0x00,0x00,0x00,0x00,0x00,0x00,0x00,0x00,0x00,0x00,0x00,0x00,0x00,0x00,0x00,0x00,0x00,0x00,0x00,0x00,0x00,0x00,0x00,0x00,0x00,0x00,0x00,0x00,0x00,0x00,0x00,0x00,0x00,0x00,0x00,0x00,0x00,0x00,0x00,0x00,0x00,0x00,0x00,0x00,0x00,0x00,0x00,0x00,0x00,0x00,0x00,0x00,0x00,0x00,0x00,0x00,0x00,0x00,0x00,0x00,0x00,0x00,0x00,0x00,0x00,0x00,0x00,0x00,0x00,0x00,0x00,0x00,0x00,0x00,0x00,0x00,0x00,0x00,0x00,0x00,0x00,0x00,0x00,0x00,0x00,0x00,0x00,0x00,0x00,0x00,0x00,0x00,0x00,0x00,0x00,0x00,0x00,0x00,0x00,0x00,0x00,0x00,0x00,0x00,0x00,0x00,0x00,0x00,0x00,0x00,0x00,0x00,0x00,0x00,0x00,0x00,0x00,0x00,0x00,0x00,0x00,0x00,0x00,0x00,0x00,0x00,0x00,0x00,0x00,0x00,0x00,0x00,0x00,0x00,0x00,0x00,0x00,0x00,0x00,0x00,0x00,0x00,0x00,0x00,0x00,0x00,0x00,0x00,0x00,0x00,0x00,0x00,0x00,0x00,0x00,0x00,0x00,0x00,0x00,0x00,0x00,0x00,0x00,0x00,0x00,0x00,0x00,0x00,0x00,0x00,0x00,0x00,0x00,0x00,0x00,0x00,0x00,0x00,0x00,0x00,0x00,0x00,0x00,0x00,0x00,0x00,0x00,0x00,0x00,0x00,0x00,0x00,0x00,0x00,0x00,0x00,0x00,0x00,0x00,0x00,0x00,0x00,0x00,0x00,0x00,0x00,0x00,0x00,0x00,0x00,0x00,0x00,0x00,0x00,0x00,0x00,0x00,0x00,0x00,0x00,0x00,0x00,0x00,0x00,0x00,0x00,0x00,0x00,0x00,0x00,0x00,0x00,0x00,0x00,0x00,0x00,0x00,0x00,0x00,0x00,0x00,0x00,0x00,0x00,0x00,0x00,0x00,0x00,0x00,0x00,0x00,0x00,0x00,0x00,0x00,0x00,0x00,0x00,0x00,0x00,0x00,0x00,0x00,0x00,0x00,0x00,0x00,0x00,0x00,0x00,0x00,0x00,0x00,0x00,0x00,0x00,0x00,0x00,0x00,0x00,0x00,0x00,0x00,0x00,0x00,0x00,0x00,0x00,0x00,0x00,0x00,0x00,0x00,0x00,0x00,0x00,0x00,0x00,0x00,0x00,0x00,0x00,0x00,0x00,0x00,0x00,0x00,0x00,0x00,0x00,0x00,0x00,0x00,0x00,0x00,0x00,0x00,0x00,0x00,0x00,0x00,0x00,0x00,0x00,0x00,0x00,0x00,0x00,0x00,0x00,0x00,0x00,0x00,0x00,0x00,0x00,0x00,0x00,0x00,0x00,0x00,0x00,0x00,0x00,0x00,0x00,0x00,0x00,0x00,0x00,0x00,0x00,0x00,0x00,0x00,0x00,0x00,0x00,0x00,0x00,0x00,0x00,0x00,0x00,0x00,0x00,0x00,0x00,0x00,0x00,0x00,0x00,0x00,0x00,0x00,0x00,0x00,0x00,0x00,0x00,0x00,0x00,0x00,0x00,0x00,0x00,0x00,0x00,0x00,0x00,0x00,0x00,0x00,0x00,0x00,0x00,0x00,0x00,0x00,0x00,0x00,0x00,0x00,0x00,0x00,0x00,0x00,0x00,0x00,0x00,0x00,0x00,0x00,0x00,0x00,0x00,0x00,0x00,0x00,0x00,0x00,0x00,0x00,0x00,0x00,0x00,0x00,0x00,0x00,0x00,0x00,0x00,0x00,0x00,0x00,0x00,0x00,0x00,0x00,0x00,0x00,0x00,0x00,0x00,0x00,0x00,0x00,0x00,0x00,0x00,0x00,0x00,0x00,0x00,0x00,0x00,0x00,0x00,0x00,0x00,0x00,0x00,0x00,0x00,0x00,0x00,0x00,0x00,0x00,0x00,0x00,0x00,0x00,0x00,0x00,0x00,0x00,0x00,0x00,0x00,0x00,0x00,0x00,0x00,0x00,0x00,0x00,0x00,0x00,0x00,0x00,0x00,0x00,0x00,0x00,0x00,0x00,0x00,0x00,0x00};
